<svg id="uuid-f742876d-15f3-4040-9a50-cbaac7d66269" data-name="Layer 1" xmlns="http://www.w3.org/2000/svg" width="841.89" height="271.018" viewBox="0 0 841.89 271.018">
  <defs>
    <style>
      .uuid-d33af4a7-e63f-4e45-bb59-c6c6f5a3a76f {
        stroke-dasharray: 0 2.957;
      }

      .uuid-d33af4a7-e63f-4e45-bb59-c6c6f5a3a76f, .uuid-9af2defb-c6ca-4d66-bb03-de035af2aca4 {
        fill: none;
      }

      .uuid-d33af4a7-e63f-4e45-bb59-c6c6f5a3a76f, .uuid-9af2defb-c6ca-4d66-bb03-de035af2aca4, .uuid-02a605f4-806d-4340-a0ca-561a170f6937 {
        stroke: #000;
      }

      .uuid-d33af4a7-e63f-4e45-bb59-c6c6f5a3a76f, .uuid-02a605f4-806d-4340-a0ca-561a170f6937 {
        stroke-linecap: round;
        stroke-linejoin: round;
      }

      .uuid-a44b072d-b54d-4a1f-a4c4-75ef07e76923 {
        fill: #e6e6e6;
      }

      .uuid-6d0e8b3b-e363-4745-8069-9d2e1e00289d {
        stroke: #fff;
        stroke-width: .25px;
      }

      .uuid-6d0e8b3b-e363-4745-8069-9d2e1e00289d, .uuid-9af2defb-c6ca-4d66-bb03-de035af2aca4 {
        stroke-miterlimit: 10;
      }

      .uuid-737a0061-15d0-4d2b-b782-9d8c33482a8d, .uuid-02a605f4-806d-4340-a0ca-561a170f6937 {
        fill: #fff;
      }

      .uuid-02a605f4-806d-4340-a0ca-561a170f6937 {
        stroke-width: .75px;
      }
    </style>
  </defs>
  <rect class="uuid-737a0061-15d0-4d2b-b782-9d8c33482a8d" x="-2.122" y="-1.143" width="845.469" height="273.305"></rect>
  <g>
    <rect class="uuid-a44b072d-b54d-4a1f-a4c4-75ef07e76923" x="487.456" y="113.258" width="152.889" height="44.749"></rect>
    <rect class="uuid-a44b072d-b54d-4a1f-a4c4-75ef07e76923" x="312.721" y="113.258" width="152.889" height="44.749"></rect>
    <rect class="uuid-a44b072d-b54d-4a1f-a4c4-75ef07e76923" x="312.721" y="27.318" width="152.889" height="44.749"></rect>
    <rect class="uuid-a44b072d-b54d-4a1f-a4c4-75ef07e76923" x="137.986" y="113.258" width="152.889" height="44.749"></rect>
    <rect class="uuid-a44b072d-b54d-4a1f-a4c4-75ef07e76923" x="661.598" y="113.258" width="152.889" height="44.749"></rect>
    <g>
      <polyline class="uuid-9af2defb-c6ca-4d66-bb03-de035af2aca4" points="77.99 135.633 115.547 135.633 130.03 135.633"></polyline>
      <polygon points="128.936 139.373 135.412 135.633 128.936 131.893 128.936 139.373"></polygon>
    </g>
    <g>
      <polyline class="uuid-9af2defb-c6ca-4d66-bb03-de035af2aca4" points="737.814 158.098 737.814 178.22 717.631 178.22 563.155 178.22 563.155 193.54"></polyline>
      <polygon points="559.416 192.446 563.155 198.922 566.895 192.446 559.416 192.446"></polygon>
    </g>
    <g>
      <line class="uuid-9af2defb-c6ca-4d66-bb03-de035af2aca4" x1="737.813" y1="158.469" x2="737.813" y2="193.91"></line>
      <polygon points="734.074 192.815 737.813 199.292 741.553 192.815 734.074 192.815"></polygon>
    </g>
    <g>
      <line class="uuid-9af2defb-c6ca-4d66-bb03-de035af2aca4" x1="290.823" y1="135.363" x2="306.311" y2="135.363"></line>
      <polygon points="305.217 139.103 311.693 135.363 305.217 131.623 305.217 139.103"></polygon>
    </g>
    <g>
      <polyline class="uuid-737a0061-15d0-4d2b-b782-9d8c33482a8d" points="214.685 157.789 214.685 221.851 312.712 221.851"></polyline>
      <g>
        <polyline class="uuid-9af2defb-c6ca-4d66-bb03-de035af2aca4" points="214.685 157.789 214.685 221.851 307.33 221.851"></polyline>
        <polygon points="306.236 225.591 312.712 221.851 306.236 218.111 306.236 225.591"></polygon>
      </g>
    </g>
    <g>
      <line class="uuid-9af2defb-c6ca-4d66-bb03-de035af2aca4" x1="389.165" y1="72.072" x2="389.165" y2="107.593"></line>
      <polygon points="385.426 106.498 389.165 112.975 392.905 106.498 385.426 106.498"></polygon>
    </g>
    <g>
      <line class="uuid-9af2defb-c6ca-4d66-bb03-de035af2aca4" x1="738.043" y1="77.038" x2="738.043" y2="112.975"></line>
      <polygon points="734.303 78.132 738.043 71.656 741.782 78.132 734.303 78.132"></polygon>
    </g>
    <g>
      <line class="uuid-9af2defb-c6ca-4d66-bb03-de035af2aca4" x1="389.165" y1="163.428" x2="389.165" y2="199.292"></line>
      <polygon points="385.426 164.522 389.165 158.046 392.905 164.522 385.426 164.522"></polygon>
    </g>
    <g>
      <line class="uuid-9af2defb-c6ca-4d66-bb03-de035af2aca4" x1="465.851" y1="135.363" x2="481.339" y2="135.363"></line>
      <polygon points="480.245 139.103 486.722 135.363 480.245 131.623 480.245 139.103"></polygon>
    </g>
    <g>
      <line class="uuid-9af2defb-c6ca-4d66-bb03-de035af2aca4" x1="639.749" y1="135.363" x2="655.237" y2="135.363"></line>
      <polygon points="654.143 139.103 660.62 135.363 654.143 131.623 654.143 139.103"></polygon>
    </g>
    <g>
      <path d="M349.197,137.594l.65-.879c.899.74,1.549,1.02,2.358,1.02.919,0,1.559-.47,1.559-1.12,0-.569-.339-.839-1.269-1l-1.29-.22c-1.209-.22-1.799-.819-1.799-1.779,0-1.27,1.009-2.109,2.579-2.109,1.049,0,2.009.31,2.809.899l-.61.899c-.7-.53-1.449-.81-2.239-.81-.839,0-1.399.43-1.399,1,0,.51.32.77,1.079.89l1.25.21c1.409.25,2.069.869,2.069,1.929,0,1.289-1.14,2.199-2.809,2.199-1.1,0-2.049-.38-2.938-1.129Z"></path>
      <path d="M355.896,136.115c0-1.449,1.1-2.589,2.529-2.589.779,0,1.499.31,1.999.85l-.699.729c-.35-.39-.78-.589-1.259-.589-.81,0-1.439.7-1.439,1.599,0,.909.63,1.599,1.439,1.599.479,0,.909-.2,1.259-.58l.699.719c-.5.54-1.219.85-1.999.85-1.429,0-2.529-1.129-2.529-2.588Z"></path>
      <path d="M361.097,137.174c0-.899.739-1.469,1.919-1.469.47,0,.909.1,1.349.32v-.56c0-.66-.38-1-1.149-1-.42,0-.879.12-1.459.39l-.4-.82c.75-.34,1.409-.51,2.079-.51,1.31,0,2.049.66,2.049,1.819v3.268h-1.119v-.52c-.43.419-.91.609-1.489.609-1.049,0-1.779-.629-1.779-1.529ZM363.186,137.904c.45,0,.839-.13,1.179-.42v-.81c-.36-.17-.72-.24-1.149-.24-.649,0-1.06.27-1.06.72,0,.459.4.75,1.03.75Z"></path>
      <path d="M366.856,133.606h1.129v.82c.38-.59.929-.9,1.579-.9,1.029,0,1.749.73,1.749,1.789v3.298h-1.14v-2.979c0-.729-.43-1.199-1.099-1.199-.46,0-.83.21-1.089.61v3.568h-1.129v-5.007Z"></path>
      <path d="M372.216,137.594l.65-.879c.899.74,1.549,1.02,2.358,1.02.919,0,1.559-.47,1.559-1.12,0-.569-.339-.839-1.269-1l-1.29-.22c-1.209-.22-1.799-.819-1.799-1.779,0-1.27,1.009-2.109,2.579-2.109,1.049,0,2.009.31,2.809.899l-.61.899c-.7-.53-1.449-.81-2.239-.81-.839,0-1.399.43-1.399,1,0,.51.32.77,1.079.89l1.25.21c1.409.25,2.069.869,2.069,1.929,0,1.289-1.14,2.199-2.809,2.199-1.1,0-2.049-.38-2.938-1.129Z"></path>
      <path d="M378.916,136.115c0-1.469,1.06-2.589,2.438-2.589,1.37,0,2.369,1.089,2.369,2.589v.27h-3.698c.11.81.72,1.399,1.499,1.399.47,0,.91-.18,1.189-.47l.74.669c-.61.51-1.219.73-1.979.73-1.439,0-2.559-1.129-2.559-2.599ZM382.654,135.685c-.12-.73-.64-1.239-1.309-1.239-.68,0-1.179.49-1.309,1.239h2.618Z"></path>
      <path d="M385.346,137.314v-2.809h-1v-.899h1v-1.379l1.129-.24v1.619h1.389v.899h-1.389v2.559c0,.49.19.68.7.68.22,0,.379-.03.68-.12v.949c-.29.09-.67.14-.97.14-1.009,0-1.539-.48-1.539-1.399Z"></path>
      <path d="M389.585,137.314v-2.809h-1v-.899h1v-1.379l1.129-.24v1.619h1.389v.899h-1.389v2.559c0,.49.19.68.7.68.22,0,.379-.03.68-.12v.949c-.29.09-.67.14-.97.14-1.009,0-1.539-.48-1.539-1.399Z"></path>
      <path d="M392.966,131.897c0-.38.31-.7.7-.7.38,0,.7.32.7.7s-.32.689-.7.689c-.39,0-.7-.31-.7-.689ZM393.096,133.606h1.129v5.007h-1.129v-5.007Z"></path>
      <path d="M395.626,133.606h1.129v.82c.38-.59.929-.9,1.579-.9,1.029,0,1.749.73,1.749,1.789v3.298h-1.14v-2.979c0-.729-.43-1.199-1.099-1.199-.46,0-.83.21-1.089.61v3.568h-1.129v-5.007Z"></path>
      <path d="M401.775,140.313l.39-.83c.589.29,1.069.419,1.569.419.84,0,1.279-.379,1.279-1.109v-.849c-.36.439-.91.699-1.539.699-1.27,0-2.259-1.129-2.259-2.548s1.029-2.529,2.339-2.529c.58,0,1.099.23,1.469.67v-.63h1.119v5.187c0,1.29-.839,2.009-2.358,2.009-.72,0-1.419-.18-2.009-.49ZM405.014,137.155v-2.099c-.29-.34-.72-.54-1.189-.54-.859,0-1.499.669-1.499,1.589,0,.91.64,1.599,1.499,1.599.49,0,.9-.2,1.189-.549Z"></path>
      <path d="M409.925,131.617h3.118c1.31,0,2.199.75,2.199,1.839,0,.709-.439,1.279-1.14,1.549.84.25,1.379.859,1.379,1.659,0,1.159-.929,1.949-2.309,1.949h-3.248v-6.996ZM412.914,134.566c.68,0,1.13-.39,1.13-.989,0-.59-.44-.979-1.13-.979h-1.789v1.969h1.789ZM413.024,137.634c.76,0,1.249-.43,1.249-1.08s-.479-1.069-1.249-1.069h-1.899v2.149h1.899Z"></path>
      <path d="M416.605,131.897c0-.38.31-.7.7-.7.379,0,.699.32.699.7s-.32.689-.699.689c-.391,0-.7-.31-.7-.689ZM416.735,133.606h1.13v5.007h-1.13v-5.007Z"></path>
      <path d="M419.265,133.606h1.13v.82c.38-.59.93-.9,1.579-.9,1.029,0,1.749.73,1.749,1.789v3.298h-1.14v-2.979c0-.729-.43-1.199-1.1-1.199-.459,0-.829.21-1.089.61v3.568h-1.13v-5.007Z"></path>
      <path d="M424.855,136.115c0-1.429,1.029-2.549,2.339-2.549.569,0,1.089.23,1.459.65v-2.769l1.13-.2v7.366h-1.12v-.66c-.359.45-.919.709-1.549.709-1.27,0-2.259-1.129-2.259-2.548ZM428.653,137.164v-2.109c-.29-.34-.72-.54-1.189-.54-.859,0-1.499.68-1.499,1.599,0,.909.64,1.599,1.499,1.599.49,0,.899-.19,1.189-.55Z"></path>
      <path d="M431.045,131.897c0-.38.31-.7.7-.7.379,0,.699.32.699.7s-.32.689-.699.689c-.391,0-.7-.31-.7-.689ZM431.175,133.606h1.13v5.007h-1.13v-5.007Z"></path>
      <path d="M433.705,133.606h1.13v.82c.38-.59.93-.9,1.579-.9,1.029,0,1.749.73,1.749,1.789v3.298h-1.14v-2.979c0-.729-.43-1.199-1.1-1.199-.459,0-.829.21-1.089.61v3.568h-1.13v-5.007Z"></path>
      <path d="M439.855,140.313l.39-.83c.59.29,1.069.419,1.569.419.84,0,1.279-.379,1.279-1.109v-.849c-.359.439-.909.699-1.539.699-1.27,0-2.259-1.129-2.259-2.548s1.029-2.529,2.339-2.529c.579,0,1.1.23,1.469.67v-.63h1.12v5.187c0,1.29-.84,2.009-2.359,2.009-.72,0-1.419-.18-2.009-.49ZM443.093,137.155v-2.099c-.29-.34-.72-.54-1.189-.54-.859,0-1.499.669-1.499,1.589,0,.91.64,1.599,1.499,1.599.49,0,.899-.2,1.189-.549Z"></path>
    </g>
    <g>
      <path d="M523.353,135.115c0-2.029,1.579-3.608,3.618-3.608,1.069,0,2.089.459,2.729,1.249l-.8.78c-.5-.62-1.189-.95-1.929-.95-1.359,0-2.389,1.089-2.389,2.529s1.029,2.529,2.389,2.529c.739,0,1.429-.33,1.929-.95l.8.78c-.64.79-1.659,1.249-2.729,1.249-2.039,0-3.618-1.579-3.618-3.608Z"></path>
      <path d="M530.393,136.115c0-1.479,1.079-2.589,2.519-2.589,1.43,0,2.509,1.109,2.509,2.589s-1.079,2.588-2.509,2.588c-1.439,0-2.519-1.109-2.519-2.588ZM534.311,136.115c0-.93-.59-1.629-1.399-1.629-.819,0-1.409.7-1.409,1.629,0,.939.59,1.629,1.409,1.629.81,0,1.399-.689,1.399-1.629Z"></path>
      <path d="M536.592,133.606h1.13v.79c.37-.57.869-.87,1.479-.87.689,0,1.219.37,1.479.959.39-.629.95-.959,1.659-.959.97,0,1.64.75,1.64,1.809v3.278h-1.13v-3.028c0-.7-.39-1.149-1.01-1.149-.409,0-.749.19-.999.6.01.1.02.2.02.3v3.278h-1.139v-3.028c0-.7-.39-1.149-1.01-1.149-.41,0-.739.19-.989.58v3.598h-1.13v-5.007Z"></path>
      <path d="M545.352,133.606h1.109v.709c.36-.47.92-.75,1.56-.75,1.27,0,2.259,1.129,2.259,2.549,0,1.429-1.02,2.548-2.329,2.548-.589,0-1.109-.22-1.469-.64v2.679h-1.13v-7.096ZM549.17,136.115c0-.91-.64-1.599-1.489-1.599-.5,0-.909.2-1.199.56v2.089c.29.35.72.56,1.199.56.859,0,1.489-.689,1.489-1.609Z"></path>
      <path d="M551.462,131.448l1.13-.2v7.366h-1.13v-7.166Z"></path>
      <path d="M553.842,131.897c0-.38.31-.7.7-.7.379,0,.699.32.699.7s-.32.689-.699.689c-.391,0-.7-.31-.7-.689ZM553.972,133.606h1.13v5.007h-1.13v-5.007Z"></path>
      <path d="M556.243,137.174c0-.899.74-1.469,1.919-1.469.47,0,.91.1,1.35.32v-.56c0-.66-.38-1-1.149-1-.42,0-.88.12-1.459.39l-.4-.82c.75-.34,1.409-.51,2.079-.51,1.31,0,2.049.66,2.049,1.819v3.268h-1.119v-.52c-.43.419-.909.609-1.489.609-1.05,0-1.779-.629-1.779-1.529ZM558.332,137.904c.45,0,.84-.13,1.18-.42v-.81c-.359-.17-.72-.24-1.149-.24-.649,0-1.06.27-1.06.72,0,.459.4.75,1.029.75Z"></path>
      <path d="M562.001,133.606h1.13v.82c.38-.59.93-.9,1.579-.9,1.029,0,1.749.73,1.749,1.789v3.298h-1.14v-2.979c0-.729-.43-1.199-1.1-1.199-.459,0-.829.21-1.089.61v3.568h-1.13v-5.007Z"></path>
      <path d="M567.592,136.115c0-1.449,1.1-2.589,2.528-2.589.78,0,1.499.31,1.999.85l-.699.729c-.35-.39-.78-.589-1.26-.589-.81,0-1.438.7-1.438,1.599,0,.909.629,1.599,1.438,1.599.479,0,.91-.2,1.26-.58l.699.719c-.5.54-1.219.85-1.999.85-1.429,0-2.528-1.129-2.528-2.588Z"></path>
      <path d="M572.672,136.115c0-1.469,1.06-2.589,2.438-2.589,1.369,0,2.369,1.089,2.369,2.589v.27h-3.698c.11.81.72,1.399,1.499,1.399.47,0,.91-.18,1.189-.47l.739.669c-.609.51-1.219.73-1.979.73-1.439,0-2.559-1.129-2.559-2.599ZM576.411,135.685c-.12-.73-.64-1.239-1.31-1.239-.68,0-1.18.49-1.31,1.239h2.619Z"></path>
      <path d="M580.422,137.594l.649-.879c.899.74,1.549,1.02,2.358,1.02.92,0,1.56-.47,1.56-1.12,0-.569-.34-.839-1.27-1l-1.289-.22c-1.21-.22-1.799-.819-1.799-1.779,0-1.27,1.009-2.109,2.578-2.109,1.05,0,2.009.31,2.809.899l-.609.899c-.7-.53-1.449-.81-2.239-.81-.84,0-1.399.43-1.399,1,0,.51.32.77,1.08.89l1.249.21c1.409.25,2.068.869,2.068,1.929,0,1.289-1.139,2.199-2.808,2.199-1.1,0-2.05-.38-2.938-1.129Z"></path>
      <path d="M587.211,136.905v-3.298h1.14v2.968c0,.74.43,1.209,1.1,1.209.45,0,.829-.2,1.09-.6v-3.578h1.129v5.007h-1.129v-.81c-.38.59-.92.89-1.59.89-1.02,0-1.739-.74-1.739-1.789Z"></path>
      <path d="M592.932,131.897c0-.38.31-.7.7-.7.379,0,.699.32.699.7s-.32.689-.699.689c-.391,0-.7-.31-.7-.689ZM593.062,133.606h1.13v5.007h-1.13v-5.007Z"></path>
      <path d="M596.211,137.314v-2.809h-.999v-.899h.999v-1.379l1.129-.24v1.619h1.39v.899h-1.39v2.559c0,.49.19.68.7.68.22,0,.38-.03.68-.12v.949c-.29.09-.67.14-.97.14-1.01,0-1.539-.48-1.539-1.399Z"></path>
      <path d="M599.421,136.115c0-1.469,1.06-2.589,2.438-2.589,1.369,0,2.369,1.089,2.369,2.589v.27h-3.698c.11.81.72,1.399,1.499,1.399.47,0,.91-.18,1.189-.47l.739.669c-.609.51-1.219.73-1.979.73-1.439,0-2.559-1.129-2.559-2.599ZM603.16,135.685c-.12-.73-.64-1.239-1.31-1.239-.68,0-1.18.49-1.31,1.239h2.619Z"></path>
    </g>
    <g>
      <path d="M693.976,135.115c0-2.029,1.579-3.608,3.618-3.608,1.069,0,2.089.459,2.729,1.249l-.8.78c-.5-.62-1.189-.95-1.929-.95-1.359,0-2.389,1.089-2.389,2.529s1.029,2.529,2.389,2.529c.739,0,1.429-.33,1.929-.95l.8.78c-.64.79-1.659,1.249-2.729,1.249-2.039,0-3.618-1.579-3.618-3.608Z"></path>
      <path d="M701.016,136.115c0-1.479,1.079-2.589,2.519-2.589,1.43,0,2.509,1.109,2.509,2.589s-1.079,2.588-2.509,2.588c-1.439,0-2.519-1.109-2.519-2.588ZM704.934,136.115c0-.93-.59-1.629-1.399-1.629-.819,0-1.409.7-1.409,1.629,0,.939.59,1.629,1.409,1.629.81,0,1.399-.689,1.399-1.629Z"></path>
      <path d="M707.215,133.606h1.13v.79c.37-.57.869-.87,1.479-.87.689,0,1.219.37,1.479.959.39-.629.95-.959,1.659-.959.97,0,1.64.75,1.64,1.809v3.278h-1.13v-3.028c0-.7-.39-1.149-1.01-1.149-.409,0-.749.19-.999.6.01.1.02.2.02.3v3.278h-1.139v-3.028c0-.7-.39-1.149-1.01-1.149-.41,0-.739.19-.989.58v3.598h-1.13v-5.007Z"></path>
      <path d="M715.975,133.606h1.109v.709c.36-.47.92-.75,1.56-.75,1.27,0,2.259,1.129,2.259,2.549,0,1.429-1.02,2.548-2.329,2.548-.589,0-1.109-.22-1.469-.64v2.679h-1.13v-7.096ZM719.793,136.115c0-.91-.64-1.599-1.489-1.599-.5,0-.909.2-1.199.56v2.089c.29.35.72.56,1.199.56.859,0,1.489-.689,1.489-1.609Z"></path>
      <path d="M722.085,131.448l1.13-.2v7.366h-1.13v-7.166Z"></path>
      <path d="M724.465,131.897c0-.38.31-.7.7-.7.379,0,.699.32.699.7s-.32.689-.699.689c-.391,0-.7-.31-.7-.689ZM724.595,133.606h1.13v5.007h-1.13v-5.007Z"></path>
      <path d="M726.866,137.174c0-.899.74-1.469,1.919-1.469.47,0,.91.1,1.35.32v-.56c0-.66-.38-1-1.149-1-.42,0-.88.12-1.459.39l-.4-.82c.75-.34,1.409-.51,2.079-.51,1.31,0,2.049.66,2.049,1.819v3.268h-1.119v-.52c-.43.419-.909.609-1.489.609-1.05,0-1.779-.629-1.779-1.529ZM728.955,137.904c.45,0,.84-.13,1.18-.42v-.81c-.359-.17-.72-.24-1.149-.24-.649,0-1.06.27-1.06.72,0,.459.4.75,1.029.75Z"></path>
      <path d="M732.625,133.606h1.13v.82c.38-.59.93-.9,1.579-.9,1.029,0,1.749.73,1.749,1.789v3.298h-1.14v-2.979c0-.729-.43-1.199-1.1-1.199-.459,0-.829.21-1.089.61v3.568h-1.13v-5.007Z"></path>
      <path d="M738.215,136.115c0-1.449,1.1-2.589,2.528-2.589.78,0,1.499.31,1.999.85l-.699.729c-.35-.39-.78-.589-1.26-.589-.81,0-1.438.7-1.438,1.599,0,.909.629,1.599,1.438,1.599.479,0,.91-.2,1.26-.58l.699.719c-.5.54-1.219.85-1.999.85-1.429,0-2.528-1.129-2.528-2.588Z"></path>
      <path d="M743.295,136.115c0-1.469,1.06-2.589,2.438-2.589,1.369,0,2.369,1.089,2.369,2.589v.27h-3.698c.11.81.72,1.399,1.499,1.399.47,0,.91-.18,1.189-.47l.739.669c-.609.51-1.219.73-1.979.73-1.439,0-2.559-1.129-2.559-2.599ZM747.034,135.685c-.12-.73-.64-1.239-1.31-1.239-.68,0-1.18.49-1.31,1.239h2.619Z"></path>
      <path d="M751.045,137.594l.649-.879c.899.74,1.549,1.02,2.358,1.02.92,0,1.56-.47,1.56-1.12,0-.569-.34-.839-1.27-1l-1.289-.22c-1.21-.22-1.799-.819-1.799-1.779,0-1.27,1.009-2.109,2.578-2.109,1.05,0,2.009.31,2.809.899l-.609.899c-.7-.53-1.449-.81-2.239-.81-.84,0-1.399.43-1.399,1,0,.51.32.77,1.08.89l1.249.21c1.409.25,2.068.869,2.068,1.929,0,1.289-1.139,2.199-2.808,2.199-1.1,0-2.05-.38-2.938-1.129Z"></path>
      <path d="M757.745,136.115c0-1.449,1.1-2.589,2.528-2.589.78,0,1.499.31,1.999.85l-.699.729c-.35-.39-.78-.589-1.26-.589-.81,0-1.438.7-1.438,1.599,0,.909.629,1.599,1.438,1.599.479,0,.91-.2,1.26-.58l.699.719c-.5.54-1.219.85-1.999.85-1.429,0-2.528-1.129-2.528-2.588Z"></path>
      <path d="M762.945,137.174c0-.899.74-1.469,1.919-1.469.47,0,.91.1,1.35.32v-.56c0-.66-.38-1-1.149-1-.42,0-.88.12-1.459.39l-.4-.82c.75-.34,1.409-.51,2.079-.51,1.31,0,2.049.66,2.049,1.819v3.268h-1.119v-.52c-.43.419-.909.609-1.489.609-1.05,0-1.779-.629-1.779-1.529ZM765.034,137.904c.45,0,.84-.13,1.18-.42v-.81c-.359-.17-.72-.24-1.149-.24-.649,0-1.06.27-1.06.72,0,.459.4.75,1.029.75Z"></path>
      <path d="M768.705,133.606h1.13v.82c.38-.59.93-.9,1.579-.9,1.029,0,1.749.73,1.749,1.789v3.298h-1.14v-2.979c0-.729-.43-1.199-1.1-1.199-.459,0-.829.21-1.089.61v3.568h-1.13v-5.007Z"></path>
      <path d="M774.075,138.034l.529-.75c.66.41,1.1.569,1.609.569.6,0,1.01-.28,1.01-.68,0-.31-.21-.47-.7-.569l-.879-.15c-.979-.18-1.449-.63-1.449-1.379,0-.939.77-1.549,1.938-1.549.7,0,1.329.2,1.969.6l-.529.75c-.51-.33-1-.48-1.509-.48-.521,0-.86.22-.86.58,0,.32.181.46.7.55l.89.17c.999.18,1.479.64,1.479,1.389,0,.919-.879,1.629-2.049,1.629-.859,0-1.619-.24-2.148-.68Z"></path>
    </g>
    <g>
      <path d="M177.015,133.956h3.128c1.419,0,2.339.89,2.339,2.179,0,1.259-.919,2.149-2.339,2.149h-1.929v2.668h-1.2v-6.996ZM179.953,137.304c.85,0,1.319-.47,1.319-1.179,0-.69-.47-1.16-1.309-1.16h-1.749v2.339h1.739Z"></path>
      <path d="M183.635,135.945h1.129v1.08c.28-.76.759-1.169,1.379-1.169.19.01.32.03.49.1v.989c-.18-.07-.41-.12-.62-.12-.549,0-.999.31-1.249.83v3.298h-1.129v-5.007Z"></path>
      <path d="M187.105,138.454c0-1.479,1.08-2.589,2.519-2.589,1.429,0,2.509,1.109,2.509,2.589s-1.08,2.588-2.509,2.588c-1.439,0-2.519-1.109-2.519-2.588ZM191.023,138.454c0-.93-.59-1.629-1.399-1.629-.819,0-1.409.7-1.409,1.629,0,.939.59,1.629,1.409,1.629.81,0,1.399-.689,1.399-1.629Z"></path>
      <path d="M193.754,136.844h-1.08v-.899h1.08v-.859c0-1.089.609-1.679,1.729-1.679.28,0,.56.03.75.09v.959c-.25-.05-.4-.07-.6-.07-.52,0-.75.23-.75.72v.839h1.349v.899h-1.349v4.108h-1.129v-4.108Z"></path>
      <path d="M197.044,134.236c0-.38.31-.7.7-.7.38,0,.7.32.7.7s-.32.689-.7.689c-.39,0-.7-.31-.7-.689ZM197.174,135.945h1.129v5.007h-1.129v-5.007Z"></path>
      <path d="M199.705,133.786l1.129-.2v7.366h-1.129v-7.166Z"></path>
      <path d="M201.995,138.454c0-1.469,1.06-2.589,2.438-2.589,1.37,0,2.369,1.089,2.369,2.589v.27h-3.698c.11.81.72,1.399,1.499,1.399.47,0,.91-.18,1.189-.47l.74.669c-.61.51-1.219.73-1.979.73-1.439,0-2.559-1.129-2.559-2.599ZM205.732,138.024c-.12-.73-.64-1.239-1.309-1.239-.68,0-1.179.49-1.309,1.239h2.618Z"></path>
      <path d="M207.555,140.373l.53-.75c.659.41,1.099.569,1.609.569.6,0,1.009-.28,1.009-.68,0-.31-.209-.47-.699-.569l-.88-.15c-.979-.18-1.449-.63-1.449-1.379,0-.939.77-1.549,1.939-1.549.7,0,1.33.2,1.969.6l-.53.75c-.51-.33-1-.48-1.509-.48-.52,0-.859.22-.859.58,0,.32.18.46.699.55l.89.17c1,.18,1.479.64,1.479,1.389,0,.919-.88,1.629-2.049,1.629-.86,0-1.619-.24-2.149-.68Z"></path>
    </g>
    <polygon class="uuid-737a0061-15d0-4d2b-b782-9d8c33482a8d" points="149.361 189.787 147.74 191.408 149.361 191.408 149.361 189.787"></polygon>
    <polygon class="uuid-737a0061-15d0-4d2b-b782-9d8c33482a8d" points="149.361 124.074 147.74 125.695 149.361 125.695 149.361 124.074"></polygon>
    <path class="uuid-737a0061-15d0-4d2b-b782-9d8c33482a8d" d="M151.049,126.539c-.006.464-.38.838-.844.844h-3.658v18.569h16.318v-23.071h-11.817v3.658ZM159.763,131.941c.341.318.36.852.042,1.193l-4.502,4.502c-.329.329-.863.329-1.193,0l-1.497-1.497c-.302-.324-.302-.827,0-1.151.318-.341.852-.36,1.193-.042l.9.9,3.905-3.905c.324-.302.827-.302,1.151,0ZM157.047,131.041c0,.466-.378.844-.844.844h-5.154v7.315h7.315v-2.161c0-.466.378-.844.844-.844s.844.378.844.844v2.982c-.006.464-.38.838-.844.844h-9.003c-.466,0-.844-.378-.844-.844v-9.003h0c.006-.46.384-.828.844-.822h5.998c.466,0,.844.378.844.844Z"></path>
    <path class="uuid-6d0e8b3b-e363-4745-8069-9d2e1e00289d" d="M163.71,121.193h-13.505c-.071-.011-.143-.011-.214,0h-.079c-.093.039-.177.096-.248.169l-4.502,4.502c-.073.07-.13.154-.169.248-.007.026-.007.053,0,.079-.012.071-.012.143,0,.214v20.37c0,.466.378.844.844.844h17.872c.464-.006.838-.38.844-.844v-24.759c-.012-.457-.387-.822-.844-.822ZM149.361,124.074v1.621h-1.621l1.621-1.621ZM162.866,145.952h-16.318v-18.569h3.658c.464-.006.838-.38.844-.844v-3.658h11.817v23.071Z"></path>
    <path class="uuid-6d0e8b3b-e363-4745-8069-9d2e1e00289d" d="M149.361,131.018h0v9.003c0,.466.378.844.844.844h9.003c.464-.006.838-.38.844-.844v-2.982c0-.466-.378-.844-.844-.844s-.844.378-.844.844v2.161h-7.315v-7.315h5.154c.466,0,.844-.378.844-.844s-.378-.844-.844-.844h-5.998c-.46-.006-.838.361-.844.821Z"></path>
    <path class="uuid-6d0e8b3b-e363-4745-8069-9d2e1e00289d" d="M153.806,134.946c-.341-.318-.875-.299-1.193.042-.302.324-.302.827,0,1.151l1.497,1.497c.33.329.863.329,1.193,0l4.502-4.502c.318-.341.299-.875-.042-1.193-.324-.302-.827-.302-1.151,0l-3.905,3.905-.9-.9Z"></path>
    <g>
      <rect class="uuid-a44b072d-b54d-4a1f-a4c4-75ef07e76923" x="312.721" y="198.962" width="152.889" height="44.749"></rect>
      <g>
        <path d="M353.499,219.08h-2.338v-1.04h5.876v1.04h-2.338v5.956h-1.2v-5.956Z"></path>
        <path d="M356.781,223.597c0-.899.739-1.469,1.919-1.469.47,0,.909.1,1.349.32v-.561c0-.659-.38-.999-1.149-.999-.42,0-.879.12-1.459.39l-.4-.819c.75-.34,1.409-.51,2.079-.51,1.31,0,2.049.659,2.049,1.819v3.268h-1.119v-.52c-.43.42-.91.609-1.489.609-1.049,0-1.779-.629-1.779-1.529ZM358.87,224.327c.45,0,.839-.13,1.179-.42v-.81c-.36-.17-.72-.24-1.149-.24-.649,0-1.06.27-1.06.72,0,.46.4.75,1.03.75Z"></path>
        <path d="M362.4,218.321c0-.38.31-.7.7-.7.38,0,.7.32.7.7s-.32.689-.7.689c-.39,0-.7-.31-.7-.689ZM362.53,220.03h1.129v5.007h-1.129v-5.007Z"></path>
        <path d="M365.06,217.87l1.129-.199v7.365h-1.129v-7.166Z"></path>
        <path d="M367.35,222.538c0-1.479,1.08-2.589,2.519-2.589,1.429,0,2.509,1.109,2.509,2.589s-1.08,2.588-2.509,2.588c-1.439,0-2.519-1.109-2.519-2.588ZM371.268,222.538c0-.93-.59-1.63-1.399-1.63-.819,0-1.409.7-1.409,1.63,0,.939.59,1.629,1.409,1.629.81,0,1.399-.689,1.399-1.629Z"></path>
        <path d="M373.55,220.03h1.129v1.079c.28-.76.759-1.169,1.379-1.169.19.01.32.029.49.1v.989c-.18-.069-.41-.12-.62-.12-.549,0-.999.311-1.249.83v3.298h-1.129v-5.007Z"></path>
        <path d="M377.02,222.538c0-1.47,1.06-2.589,2.438-2.589,1.37,0,2.369,1.089,2.369,2.589v.27h-3.698c.11.81.72,1.399,1.499,1.399.47,0,.91-.18,1.189-.47l.74.669c-.61.51-1.219.73-1.979.73-1.439,0-2.559-1.13-2.559-2.599ZM380.758,222.109c-.12-.73-.64-1.239-1.309-1.239-.68,0-1.179.489-1.309,1.239h2.618Z"></path>
        <path d="M382.77,222.538c0-1.43,1.029-2.549,2.339-2.549.569,0,1.089.229,1.459.649v-2.769l1.129-.199v7.365h-1.119v-.659c-.36.449-.919.709-1.549.709-1.27,0-2.259-1.129-2.259-2.548ZM386.568,223.587v-2.108c-.29-.34-.72-.54-1.189-.54-.859,0-1.499.68-1.499,1.6,0,.909.64,1.599,1.499,1.599.49,0,.9-.189,1.189-.55Z"></path>
        <path d="M389.239,218.04h3.128c1.419,0,2.339.89,2.339,2.179,0,1.26-.919,2.149-2.339,2.149h-1.929v2.668h-1.2v-6.996ZM392.178,221.389c.85,0,1.319-.47,1.319-1.18,0-.689-.47-1.159-1.309-1.159h-1.749v2.339h1.739Z"></path>
        <path d="M395.86,220.03h1.129v1.079c.28-.76.759-1.169,1.379-1.169.19.01.32.029.49.1v.989c-.18-.069-.41-.12-.62-.12-.549,0-1,.311-1.249.83v3.298h-1.129v-5.007Z"></path>
        <path d="M399.33,222.538c0-1.479,1.08-2.589,2.519-2.589,1.429,0,2.509,1.109,2.509,2.589s-1.08,2.588-2.509,2.588c-1.439,0-2.519-1.109-2.519-2.588ZM403.248,222.538c0-.93-.59-1.63-1.399-1.63-.819,0-1.409.7-1.409,1.63,0,.939.59,1.629,1.409,1.629.81,0,1.399-.689,1.399-1.629Z"></path>
        <path d="M405.979,220.929h-1.08v-.899h1.08v-.859c0-1.09.609-1.68,1.729-1.68.28,0,.56.03.75.09v.96c-.25-.05-.4-.07-.6-.07-.52,0-.75.23-.75.72v.84h1.349v.899h-1.349v4.107h-1.129v-4.107Z"></path>
        <path d="M409.27,218.321c0-.38.31-.7.7-.7.38,0,.7.32.7.7s-.32.689-.7.689c-.39,0-.7-.31-.7-.689ZM409.399,220.03h1.129v5.007h-1.129v-5.007Z"></path>
        <path d="M411.93,217.87l1.129-.199v7.365h-1.129v-7.166Z"></path>
        <path d="M414.22,222.538c0-1.47,1.06-2.589,2.438-2.589,1.37,0,2.369,1.089,2.369,2.589v.27h-3.698c.11.81.72,1.399,1.499,1.399.47,0,.91-.18,1.189-.47l.74.669c-.61.51-1.219.73-1.979.73-1.439,0-2.559-1.13-2.559-2.599ZM417.958,222.109c-.12-.73-.64-1.239-1.309-1.239-.68,0-1.179.489-1.309,1.239h2.618Z"></path>
        <path d="M419.78,224.457l.53-.75c.66.41,1.099.569,1.609.569.6,0,1.01-.279,1.01-.68,0-.31-.21-.47-.7-.569l-.88-.149c-.979-.181-1.449-.63-1.449-1.38,0-.939.77-1.549,1.939-1.549.7,0,1.33.2,1.97.6l-.53.75c-.51-.33-1-.48-1.509-.48-.52,0-.859.22-.859.58,0,.319.18.46.7.55l.89.17c.999.18,1.479.64,1.479,1.389,0,.92-.88,1.63-2.05,1.63-.859,0-1.619-.24-2.148-.68Z"></path>
      </g>
      <path class="uuid-737a0061-15d0-4d2b-b782-9d8c33482a8d" d="M325.784,212.252c-.006.464-.38.838-.844.844h-3.658v18.569h16.318v-23.071h-11.817v3.658ZM334.498,217.654c.341.318.36.852.042,1.193l-4.502,4.502c-.329.329-.863.329-1.193,0l-1.497-1.497c-.302-.324-.302-.827,0-1.151.318-.341.852-.36,1.193-.042l.9.9,3.905-3.905c.324-.302.827-.302,1.151,0ZM331.783,216.754c0,.466-.378.844-.844.844h-5.154v7.315h7.315v-2.161c0-.466.378-.844.844-.844s.844.378.844.844v2.982c-.006.464-.38.838-.844.844h-9.003c-.466,0-.844-.378-.844-.844v-9.003h0c.006-.46.384-.828.844-.822h5.998c.466,0,.844.378.844.844Z"></path>
      <path class="uuid-6d0e8b3b-e363-4745-8069-9d2e1e00289d" d="M338.445,206.906h-13.505c-.071-.011-.143-.011-.214,0h-.079c-.093.039-.177.096-.248.169l-4.502,4.502c-.073.07-.13.154-.169.248-.007.026-.007.053,0,.079-.012.071-.012.143,0,.214v20.37c0,.466.378.844.844.844h17.872c.464-.006.838-.38.844-.844v-24.759c-.012-.457-.387-.822-.844-.822ZM324.096,209.787v1.621h-1.621l1.621-1.621ZM337.601,231.665h-16.318v-18.569h3.658c.464-.006.838-.38.844-.844v-3.658h11.817v23.071Z"></path>
      <path class="uuid-6d0e8b3b-e363-4745-8069-9d2e1e00289d" d="M324.096,216.731h0v9.003c0,.466.378.844.844.844h9.003c.464-.006.838-.38.844-.844v-2.982c0-.466-.378-.844-.844-.844s-.844.378-.844.844v2.161h-7.315v-7.315h5.154c.466,0,.844-.378.844-.844s-.378-.844-.844-.844h-5.998c-.46-.006-.838.361-.844.821Z"></path>
      <path class="uuid-6d0e8b3b-e363-4745-8069-9d2e1e00289d" d="M328.541,220.659c-.341-.318-.875-.299-1.193.042-.302.324-.302.827,0,1.151l1.497,1.497c.33.329.863.329,1.193,0l4.502-4.502c.318-.341.299-.875-.042-1.193-.324-.302-.827-.302-1.151,0l-3.905,3.905-.9-.9Z"></path>
    </g>
    <g>
      <g>
        <path d="M27.577,150.494h3.128c1.419,0,2.339.89,2.339,2.179,0,1.259-.919,2.149-2.339,2.149h-1.929v2.668h-1.2v-6.996ZM30.516,153.842c.85,0,1.319-.47,1.319-1.179,0-.69-.47-1.16-1.309-1.16h-1.749v2.339h1.739Z"></path>
        <path d="M34.197,152.483h1.129v1.08c.28-.76.759-1.169,1.379-1.169.19.01.32.03.49.1v.989c-.18-.07-.41-.12-.62-.12-.549,0-.999.31-1.249.83v3.298h-1.129v-5.007Z"></path>
        <path d="M37.667,154.991c0-1.479,1.08-2.589,2.519-2.589,1.429,0,2.509,1.109,2.509,2.589s-1.08,2.588-2.509,2.588c-1.439,0-2.519-1.109-2.519-2.588ZM41.585,154.991c0-.93-.59-1.629-1.399-1.629-.819,0-1.409.7-1.409,1.629,0,.939.59,1.629,1.409,1.629.81,0,1.399-.689,1.399-1.629Z"></path>
        <path d="M44.317,153.382h-1.08v-.899h1.08v-.859c0-1.089.609-1.679,1.729-1.679.28,0,.56.03.75.09v.959c-.25-.05-.4-.07-.6-.07-.52,0-.75.23-.75.72v.839h1.349v.899h-1.349v4.108h-1.129v-4.108Z"></path>
        <path d="M47.607,150.774c0-.38.31-.7.7-.7.38,0,.7.32.7.7s-.32.689-.7.689c-.39,0-.7-.31-.7-.689ZM47.737,152.483h1.129v5.007h-1.129v-5.007Z"></path>
        <path d="M50.267,150.324l1.129-.2v7.366h-1.129v-7.166Z"></path>
        <path d="M52.557,154.991c0-1.469,1.06-2.589,2.438-2.589,1.37,0,2.369,1.089,2.369,2.589v.27h-3.698c.11.81.72,1.399,1.499,1.399.47,0,.91-.18,1.189-.47l.74.669c-.61.51-1.219.73-1.979.73-1.439,0-2.559-1.129-2.559-2.599ZM56.295,154.562c-.12-.73-.64-1.239-1.309-1.239-.68,0-1.179.49-1.309,1.239h2.618Z"></path>
        <path d="M58.657,150.494h3.119c1.309,0,2.199.75,2.199,1.839,0,.709-.44,1.279-1.14,1.549.84.25,1.379.859,1.379,1.659,0,1.159-.93,1.949-2.309,1.949h-3.249v-6.996ZM61.646,153.442c.679,0,1.129-.39,1.129-.989,0-.59-.44-.979-1.129-.979h-1.789v1.969h1.789ZM61.755,156.511c.759,0,1.249-.43,1.249-1.08s-.479-1.069-1.249-1.069h-1.899v2.149h1.899Z"></path>
        <path d="M65.337,155.781v-3.298h1.139v2.968c0,.74.43,1.209,1.1,1.209.45,0,.83-.2,1.089-.6v-3.578h1.129v5.007h-1.129v-.81c-.38.59-.919.89-1.589.89-1.02,0-1.739-.74-1.739-1.789Z"></path>
        <path d="M71.197,152.483h1.129v.82c.38-.59.929-.9,1.579-.9,1.029,0,1.749.73,1.749,1.789v3.298h-1.14v-2.979c0-.729-.43-1.199-1.099-1.199-.46,0-.83.21-1.089.61v3.568h-1.129v-5.007Z"></path>
        <path d="M76.787,154.991c0-1.429,1.029-2.549,2.339-2.549.569,0,1.089.23,1.459.65v-2.769l1.129-.2v7.366h-1.119v-.66c-.36.45-.92.709-1.549.709-1.27,0-2.259-1.129-2.259-2.548ZM80.585,156.041v-2.109c-.29-.34-.72-.54-1.189-.54-.859,0-1.499.68-1.499,1.599,0,.909.64,1.599,1.499,1.599.49,0,.9-.19,1.189-.55Z"></path>
        <path d="M83.117,150.324l1.129-.2v7.366h-1.129v-7.166Z"></path>
        <path d="M85.407,154.991c0-1.469,1.06-2.589,2.438-2.589,1.37,0,2.369,1.089,2.369,2.589v.27h-3.698c.11.81.72,1.399,1.499,1.399.47,0,.91-.18,1.189-.47l.74.669c-.61.51-1.219.73-1.979.73-1.439,0-2.559-1.129-2.559-2.599ZM89.145,154.562c-.12-.73-.64-1.239-1.309-1.239-.68,0-1.179.49-1.309,1.239h2.618Z"></path>
      </g>
      <g>
        <rect class="uuid-737a0061-15d0-4d2b-b782-9d8c33482a8d" x="56.963" y="120.728" width="8.318" height="2.773"></rect>
        <rect class="uuid-737a0061-15d0-4d2b-b782-9d8c33482a8d" x="49.199" y="125.165" width="23.846" height="16.082"></rect>
        <path d="M73.877,123.501h-6.932v-3.605c-.006-.457-.375-.826-.832-.832h-9.982c-.457.006-.826.375-.832.832v3.605h-6.932c-.457.006-.826.375-.832.832v17.746c.006.457.375.826.832.832h25.51c.457-.006.826-.375.832-.832v-17.746c-.006-.457-.375-.826-.832-.832ZM56.963,120.728h8.318v2.773h-8.318v-2.773ZM73.045,141.247h-23.846v-16.082h23.846v16.082Z"></path>
        <path d="M70.55,122.947h1.109c.459,0,.832-.372.832-.832s-.372-.832-.832-.832h-1.109c-.459,0-.832.372-.832.832s.372.832.832.832Z"></path>
        <path d="M50.585,122.947h1.109c.459,0,.832-.372.832-.832s-.372-.832-.832-.832h-1.109c-.459,0-.832.372-.832.832s.372.832.832.832Z"></path>
      </g>
    </g>
    <g>
      <path d="M355.473,53.231l.65-.879c.899.74,1.549,1.02,2.358,1.02.919,0,1.559-.47,1.559-1.12,0-.569-.339-.839-1.269-1l-1.29-.22c-1.209-.22-1.799-.819-1.799-1.779,0-1.27,1.009-2.109,2.579-2.109,1.049,0,2.009.31,2.809.899l-.61.899c-.7-.53-1.449-.81-2.239-.81-.839,0-1.399.43-1.399,1,0,.51.32.77,1.079.89l1.25.21c1.409.25,2.069.869,2.069,1.929,0,1.289-1.14,2.199-2.809,2.199-1.1,0-2.049-.38-2.938-1.129Z"></path>
      <path d="M362.173,51.752c0-1.449,1.1-2.589,2.529-2.589.779,0,1.499.31,1.999.85l-.699.729c-.35-.39-.78-.589-1.259-.589-.81,0-1.439.7-1.439,1.599,0,.909.63,1.599,1.439,1.599.479,0,.909-.2,1.259-.58l.699.719c-.5.54-1.219.85-1.999.85-1.429,0-2.529-1.129-2.529-2.588Z"></path>
      <path d="M367.373,52.811c0-.899.739-1.469,1.919-1.469.47,0,.909.1,1.349.32v-.56c0-.66-.38-1-1.149-1-.42,0-.879.12-1.459.39l-.4-.82c.75-.34,1.409-.51,2.079-.51,1.31,0,2.049.66,2.049,1.819v3.268h-1.119v-.52c-.43.419-.91.609-1.489.609-1.049,0-1.779-.629-1.779-1.529ZM369.462,53.541c.45,0,.839-.13,1.179-.42v-.81c-.36-.17-.72-.24-1.149-.24-.649,0-1.06.27-1.06.72,0,.459.4.75,1.03.75Z"></path>
      <path d="M373.133,49.243h1.129v.82c.38-.59.929-.9,1.579-.9,1.029,0,1.749.73,1.749,1.789v3.298h-1.14v-2.979c0-.729-.43-1.199-1.099-1.199-.46,0-.83.21-1.089.61v3.568h-1.129v-5.007Z"></path>
      <path d="M378.493,53.231l.65-.879c.899.74,1.549,1.02,2.358,1.02.919,0,1.559-.47,1.559-1.12,0-.569-.339-.839-1.269-1l-1.29-.22c-1.209-.22-1.799-.819-1.799-1.779,0-1.27,1.009-2.109,2.579-2.109,1.049,0,2.009.31,2.809.899l-.61.899c-.7-.53-1.449-.81-2.239-.81-.839,0-1.399.43-1.399,1,0,.51.32.77,1.079.89l1.25.21c1.409.25,2.069.869,2.069,1.929,0,1.289-1.14,2.199-2.809,2.199-1.1,0-2.049-.38-2.938-1.129Z"></path>
      <path d="M385.192,51.752c0-1.469,1.06-2.589,2.438-2.589,1.37,0,2.369,1.089,2.369,2.589v.27h-3.698c.11.81.72,1.399,1.499,1.399.47,0,.91-.18,1.189-.47l.74.669c-.61.51-1.219.73-1.979.73-1.439,0-2.559-1.129-2.559-2.599ZM388.93,51.322c-.12-.73-.64-1.239-1.309-1.239-.68,0-1.179.49-1.309,1.239h2.618Z"></path>
      <path d="M391.622,52.951v-2.809h-1v-.899h1v-1.379l1.129-.24v1.619h1.389v.899h-1.389v2.559c0,.49.19.68.7.68.22,0,.379-.03.68-.12v.949c-.29.09-.67.14-.97.14-1.009,0-1.539-.48-1.539-1.399Z"></path>
      <path d="M395.862,52.951v-2.809h-1v-.899h1v-1.379l1.129-.24v1.619h1.389v.899h-1.389v2.559c0,.49.19.68.7.68.22,0,.379-.03.68-.12v.949c-.29.09-.67.14-.97.14-1.009,0-1.539-.48-1.539-1.399Z"></path>
      <path d="M399.242,47.534c0-.38.31-.7.7-.7.38,0,.7.32.7.7s-.32.689-.7.689c-.39,0-.7-.31-.7-.689ZM399.372,49.243h1.129v5.007h-1.129v-5.007Z"></path>
      <path d="M401.902,49.243h1.129v.82c.38-.59.929-.9,1.579-.9,1.029,0,1.749.73,1.749,1.789v3.298h-1.14v-2.979c0-.729-.43-1.199-1.099-1.199-.46,0-.83.21-1.089.61v3.568h-1.129v-5.007Z"></path>
      <path d="M408.052,55.949l.39-.83c.589.29,1.069.419,1.569.419.839,0,1.279-.379,1.279-1.109v-.849c-.36.439-.91.699-1.54.699-1.269,0-2.258-1.129-2.258-2.548s1.029-2.529,2.338-2.529c.58,0,1.1.23,1.47.67v-.63h1.119v5.187c0,1.29-.84,2.009-2.358,2.009-.72,0-1.419-.18-2.009-.49ZM411.291,52.791v-2.099c-.29-.34-.72-.54-1.189-.54-.86,0-1.5.669-1.5,1.589,0,.91.64,1.599,1.5,1.599.489,0,.899-.2,1.189-.549Z"></path>
      <path d="M413.362,53.671l.529-.75c.66.41,1.1.569,1.609.569.6,0,1.01-.28,1.01-.68,0-.31-.21-.47-.7-.569l-.879-.15c-.979-.18-1.449-.63-1.449-1.379,0-.939.77-1.549,1.938-1.549.7,0,1.329.2,1.969.6l-.529.75c-.51-.33-1-.48-1.509-.48-.521,0-.86.22-.86.58,0,.32.181.46.7.55l.89.17c.999.18,1.479.64,1.479,1.389,0,.919-.879,1.629-2.049,1.629-.859,0-1.619-.24-2.148-.68Z"></path>
    </g>
    <g>
      <rect class="uuid-a44b072d-b54d-4a1f-a4c4-75ef07e76923" x="661.598" y="198.962" width="152.889" height="44.749"></rect>
      <g>
        <path d="M694.306,217.322h3.108c1.389,0,2.338.859,2.338,2.119,0,.909-.539,1.619-1.389,1.919l1.479,2.958h-1.33l-1.349-2.799h-1.659v2.799h-1.199v-6.996ZM697.304,220.56c.75,0,1.239-.439,1.239-1.109,0-.68-.489-1.119-1.239-1.119h-1.799v2.229h1.799Z"></path>
        <path d="M700.526,222.878c0-.899.74-1.469,1.919-1.469.47,0,.91.1,1.35.319v-.56c0-.659-.38-.999-1.149-.999-.42,0-.88.12-1.459.39l-.4-.819c.75-.34,1.409-.51,2.079-.51,1.31,0,2.049.659,2.049,1.818v3.269h-1.119v-.52c-.43.42-.909.609-1.489.609-1.05,0-1.779-.63-1.779-1.529ZM702.615,223.608c.45,0,.84-.13,1.18-.419v-.81c-.359-.17-.72-.24-1.149-.24-.649,0-1.06.27-1.06.72,0,.46.4.749,1.029.749Z"></path>
        <path d="M705.715,219.311h1.08l.879,3.527,1.04-3.527h.949l1.029,3.527.88-3.527h1.049l-1.349,5.007h-1.08l-1.02-3.528-1.009,3.528h-1.1l-1.35-5.007Z"></path>
        <path d="M715.936,217.322h3.108c1.389,0,2.338.859,2.338,2.119,0,.909-.539,1.619-1.389,1.919l1.479,2.958h-1.33l-1.349-2.799h-1.659v2.799h-1.199v-6.996ZM718.934,220.56c.75,0,1.239-.439,1.239-1.109,0-.68-.489-1.119-1.239-1.119h-1.799v2.229h1.799Z"></path>
        <path d="M722.036,221.819c0-1.469,1.06-2.588,2.438-2.588,1.369,0,2.369,1.089,2.369,2.588v.271h-3.698c.11.81.72,1.399,1.499,1.399.47,0,.91-.181,1.189-.47l.739.669c-.609.51-1.219.729-1.979.729-1.439,0-2.559-1.129-2.559-2.599ZM725.774,221.389c-.12-.729-.64-1.239-1.31-1.239-.68,0-1.18.49-1.31,1.239h2.619Z"></path>
        <path d="M727.596,223.738l.529-.749c.66.409,1.1.569,1.609.569.6,0,1.01-.279,1.01-.68,0-.31-.21-.47-.7-.569l-.879-.15c-.979-.18-1.449-.629-1.449-1.379,0-.939.77-1.549,1.938-1.549.7,0,1.329.199,1.969.6l-.529.749c-.51-.329-1-.479-1.509-.479-.521,0-.86.22-.86.58,0,.319.181.459.7.55l.89.17c.999.18,1.479.64,1.479,1.389,0,.92-.879,1.629-2.049,1.629-.859,0-1.619-.239-2.148-.68Z"></path>
        <path d="M732.795,222.609v-3.298h1.14v2.968c0,.74.43,1.21,1.1,1.21.45,0,.829-.2,1.09-.601v-3.577h1.129v5.007h-1.129v-.81c-.38.59-.92.89-1.59.89-1.02,0-1.739-.739-1.739-1.789Z"></path>
        <path d="M738.655,217.152l1.13-.2v7.366h-1.13v-7.166Z"></path>
        <path d="M741.795,223.019v-2.809h-.999v-.899h.999v-1.38l1.129-.239v1.619h1.39v.899h-1.39v2.559c0,.489.19.68.7.68.22,0,.38-.03.68-.12v.949c-.29.09-.67.14-.97.14-1.01,0-1.539-.479-1.539-1.398Z"></path>
        <path d="M744.965,223.738l.529-.749c.66.409,1.1.569,1.609.569.6,0,1.01-.279,1.01-.68,0-.31-.21-.47-.7-.569l-.879-.15c-.979-.18-1.449-.629-1.449-1.379,0-.939.77-1.549,1.938-1.549.7,0,1.329.199,1.969.6l-.529.749c-.51-.329-1-.479-1.509-.479-.521,0-.86.22-.86.58,0,.319.181.459.7.55l.89.17c.999.18,1.479.64,1.479,1.389,0,.92-.879,1.629-2.049,1.629-.859,0-1.619-.239-2.148-.68Z"></path>
      </g>
      <g>
        <path class="uuid-02a605f4-806d-4340-a0ca-561a170f6937" d="M671.113,221.271v4.404c0,2.432,3.569,4.404,7.971,4.404s7.971-1.972,7.971-4.404v-4.404"></path>
        <path class="uuid-02a605f4-806d-4340-a0ca-561a170f6937" d="M671.113,216.867v4.404c0,2.432,3.569,4.404,7.971,4.404s7.971-1.972,7.971-4.404v-4.404"></path>
        <ellipse class="uuid-02a605f4-806d-4340-a0ca-561a170f6937" cx="679.084" cy="216.867" rx="7.971" ry="4.404"></ellipse>
        <path class="uuid-d33af4a7-e63f-4e45-bb59-c6c6f5a3a76f" d="M679.084,232.721c-6.059,0-10.628-3.029-10.628-7.046v-8.808c0-4.017,4.569-7.046,10.628-7.046s10.628,3.029,10.628,7.046v8.808c0,4.017-4.569,7.046-10.628,7.046Z"></path>
      </g>
    </g>
    <path class="uuid-737a0061-15d0-4d2b-b782-9d8c33482a8d" d="M328.495,136.977c-1.097,0-1.986.889-1.986,1.986s.889,1.986,1.986,1.986,1.986-.889,1.986-1.986-.889-1.986-1.986-1.986Z"></path>
    <path class="uuid-737a0061-15d0-4d2b-b782-9d8c33482a8d" d="M334.818,137.85c-.253,0-.473-.173-.534-.419-.141-.517-.348-1.014-.615-1.478-.125-.217-.089-.491.089-.668l1.389-1.389c-.447-.579-.964-1.1-1.541-1.55l-1.38,1.38c-.18.179-.46.212-.677.08-.468-.278-.971-.49-1.496-.632-.242-.065-.41-.284-.41-.534v-1.959c-.724-.103-1.458-.103-2.182,0v1.942c0,.255-.172.478-.419.543-.54.135-1.059.345-1.541.623-.217.125-.491.089-.668-.089l-1.389-1.389c-.579.447-1.1.964-1.55,1.541l1.38,1.38c.179.18.212.46.08.677-.289.483-.508,1.005-.65,1.55-.065.242-.284.41-.534.41h-1.95c-.107.726-.107,1.465,0,2.191h1.95c.25,0,.47.168.534.41.142.545.361,1.067.65,1.55.132.217.099.497-.08.677l-1.38,1.38c.45.576.971,1.094,1.55,1.541l1.389-1.389c.177-.178.451-.214.668-.089.482.279,1.001.489,1.541.623.247.065.419.288.419.543v1.924c.724.103,1.458.103,2.182,0v-1.959c0-.25.168-.47.41-.534.525-.142,1.028-.355,1.496-.632.217-.132.497-.099.677.08l1.38,1.38c.576-.45,1.094-.971,1.541-1.55l-1.389-1.389c-.178-.177-.214-.451-.089-.668.267-.465.473-.962.615-1.478.061-.245.281-.418.534-.419h1.95v-.018c.107-.726.107-1.465,0-2.191h-1.95ZM328.495,142.063c-1.712,0-3.099-1.388-3.099-3.099s1.388-3.099,3.099-3.099,3.099,1.388,3.099,3.099-1.388,3.099-3.099,3.099Z"></path>
    <path class="uuid-737a0061-15d0-4d2b-b782-9d8c33482a8d" d="M320.029,58.203h5.113v-18.212h-5.113v18.212ZM321.759,42.077c.038-.105.098-.199.177-.277.08-.072.169-.131.266-.178.207-.077.436-.077.643,0,.097.046.186.106.266.178.076.081.136.175.177.277.044.101.067.211.067.322.004.115-.019.228-.067.333-.045.101-.105.194-.177.277-.325.324-.851.324-1.176,0-.079-.086-.14-.188-.177-.299-.044-.098-.067-.203-.067-.311,0-.111.022-.22.067-.322ZM321.936,45.138c.239-.237.596-.311.909-.189.099.046.19.11.266.189.156.156.244.367.244.588.004.115-.019.228-.067.333-.045.101-.105.194-.177.277-.325.324-.851.324-1.176,0-.079-.086-.14-.188-.177-.299-.044-.098-.067-.203-.067-.311,0-.221.088-.432.244-.588ZM321.936,48.465c.239-.237.596-.31.909-.189.099.046.19.11.266.189.156.156.244.367.244.588.004.115-.019.228-.067.333-.045.101-.105.194-.177.277-.325.324-.851.324-1.176,0-.079-.086-.14-.188-.177-.299-.044-.098-.067-.203-.067-.311,0-.22.088-.432.244-.588ZM321.936,51.792c.239-.237.596-.31.909-.189.099.046.19.11.266.189.156.156.244.367.244.588.004.115-.019.228-.067.333-.045.101-.105.194-.177.277-.325.324-.851.324-1.176,0-.079-.086-.14-.188-.177-.299-.044-.097-.067-.203-.067-.311,0-.22.088-.432.244-.588ZM321.936,55.12c.239-.237.596-.31.909-.189.099.046.19.11.266.189.156.156.244.367.244.588.004.115-.019.228-.067.333-.045.101-.105.194-.177.277-.325.324-.851.324-1.176,0-.079-.086-.14-.188-.177-.299-.044-.097-.067-.203-.067-.311,0-.221.088-.432.244-.588Z"></path>
    <path class="uuid-737a0061-15d0-4d2b-b782-9d8c33482a8d" d="M326.805,58.203h18.179v-18.212h-18.179v18.212ZM340.27,48.221h.277v-5.823c0-.459.372-.832.832-.832s.832.372.832.832v5.845h.277c.459,0,.832.372.832.832s-.372.832-.832.832h-.277v5.801c0,.459-.372.832-.832.832s-.832-.372-.832-.832v-5.801h-.277v-.022c-.459,0-.832-.372-.832-.832s.372-.832.832-.832ZM334.725,51.548h.277v-9.15c0-.459.372-.832.832-.832s.832.372.832.832v9.172h.277c.459,0,.832.372.832.832s-.372.832-.832.832h-.277v2.473c0,.459-.372.832-.832.832s-.832-.372-.832-.832v-2.473h-.277v-.022c-.459,0-.832-.372-.832-.832s.372-.832.832-.832ZM329.179,43.785h.277v-1.386c0-.459.372-.832.832-.832s.832.372.832.832v1.409h.277c.459,0,.832.372.832.832s-.372.832-.832.832h-.277v10.237c0,.459-.372.832-.832.832s-.832-.372-.832-.832v-10.237h-.277v-.022c-.459,0-.832-.372-.832-.832s.372-.832.832-.832Z"></path>
    <path d="M337.241,136.755h-2.004c-.108-.329-.239-.651-.392-.962l1.425-1.425c.188-.189.214-.485.062-.704-.669-.977-1.515-1.819-2.494-2.485-.221-.157-.522-.13-.712.062l-1.416,1.416c-.316-.163-.643-.303-.98-.419v-2.013c.004-.266-.184-.495-.445-.543-1.159-.228-2.35-.228-3.509,0-.264.051-.455.283-.454.552v1.995c-.351.113-.693.249-1.024.41l-1.425-1.425c-.189-.188-.485-.214-.704-.062-.965.664-1.798,1.5-2.458,2.467-.157.221-.13.522.062.713l1.416,1.416c-.173.332-.319.678-.436,1.033h-2.004c-.268.003-.498.192-.552.454-.214,1.16-.214,2.349,0,3.509.054.262.284.451.552.454h2.004c.118.355.264.701.436,1.033l-1.416,1.389c-.193.19-.219.492-.062.712.663.973,1.507,1.811,2.485,2.467.219.152.515.125.704-.062l1.425-1.425c.331.16.674.297,1.024.41v1.995c0,.269.19.501.454.552.558.101,1.125.152,1.692.151.598,0,1.195-.06,1.781-.178.261-.048.45-.278.445-.543v-2.013c.336-.116.664-.256.98-.419l1.416,1.416c.19.193.492.219.712.062.978-.651,1.827-1.479,2.503-2.44.152-.219.125-.515-.062-.704l-1.425-1.425c.153-.311.284-.633.392-.962h2.004c.268-.003.498-.192.552-.454.214-1.16.214-2.349,0-3.509-.035-.28-.27-.492-.552-.499ZM336.769,140.041v.018h-1.95c-.253,0-.473.173-.534.419-.141.517-.348,1.014-.615,1.478-.125.217-.089.491.089.668l1.389,1.389c-.447.579-.964,1.1-1.541,1.55l-1.38-1.38c-.18-.179-.46-.212-.677-.08-.468.278-.971.49-1.496.632-.242.065-.41.284-.41.534v1.959c-.724.103-1.458.103-2.182,0v-1.924c0-.255-.172-.479-.419-.543-.54-.135-1.059-.345-1.541-.623-.217-.125-.491-.089-.668.089l-1.389,1.389c-.579-.447-1.1-.964-1.55-1.541l1.38-1.38c.179-.18.212-.46.08-.677-.289-.483-.508-1.005-.65-1.55-.065-.242-.284-.41-.534-.41h-1.95c-.107-.726-.107-1.465,0-2.191h1.95c.25,0,.47-.168.534-.41.142-.545.361-1.067.65-1.55.132-.217.099-.497-.08-.677l-1.38-1.38c.45-.576.971-1.094,1.55-1.541l1.389,1.389c.177.178.451.214.668.089.482-.279,1.001-.489,1.541-.623.247-.065.419-.288.419-.543v-1.942c.724-.103,1.458-.103,2.182,0v1.959c0,.25.168.47.41.534.525.142,1.028.355,1.496.632.217.132.497.099.677-.08l1.38-1.38c.576.45,1.094.971,1.541,1.55l-1.389,1.389c-.178.177-.214.451-.089.668.267.465.473.962.615,1.478.061.245.281.418.534.419h1.95c.107.726.107,1.465,0,2.191Z"></path>
    <path d="M328.495,135.864c-1.712,0-3.099,1.388-3.099,3.099s1.388,3.099,3.099,3.099,3.099-1.388,3.099-3.099-1.388-3.099-3.099-3.099ZM328.495,140.95c-1.097,0-1.986-.889-1.986-1.986s.889-1.986,1.986-1.986,1.986.889,1.986,1.986-.889,1.986-1.986,1.986Z"></path>
    <path d="M344.944,128.632c-.047-.263-.276-.454-.543-.454h-1.532c-.073-.216-.159-.427-.258-.632l1.087-1.051c.187-.188.217-.482.071-.704-.536-.803-1.215-1.5-2.004-2.057-.222-.153-.521-.127-.712.062l-1.078,1.078c-.211-.105-.428-.197-.65-.276v-1.532c.004-.268-.189-.499-.454-.543-.938-.183-1.903-.183-2.841,0-.265.044-.458.275-.454.543v1.505c-.236.073-.465.166-.686.276l-1.051-1.087c-.188-.187-.482-.217-.704-.071-.803.536-1.5,1.215-2.057,2.004-.153.222-.127.521.062.712l1.078,1.078c-.171.359-.311.731-.419,1.113-.073.297.105.598.401.677.295.079.597-.096.676-.39v-.002c.114-.425.285-.832.508-1.211.132-.217.099-.497-.08-.677l-1.033-1.033c.319-.4.683-.762,1.087-1.078l1.033,1.042c.18.179.457.216.677.089.371-.221.774-.386,1.193-.49.247-.061.423-.28.427-.534v-1.461c.506-.062,1.017-.062,1.523,0v1.478c-.001.253.166.475.41.543.41.109.802.274,1.167.49.217.132.497.099.677-.08l1.033-1.033c.4.319.762.683,1.078,1.087l-1.042,1.033c-.179.18-.216.457-.089.677.214.361.376.751.481,1.158.065.242.284.41.534.41h1.461c.071.508.071,1.024,0,1.532h-1.461c-.25,0-.47.168-.534.41-.105.407-.267.796-.481,1.158-.127.22-.09.497.089.677l1.042,1.033c-.316.403-.677.768-1.078,1.087l-1.033-1.033c-.18-.179-.46-.212-.677-.08-.365.216-.757.381-1.167.49-.29.11-.436.434-.326.724.095.251.355.4.62.354.366-.098.721-.232,1.06-.401l1.078,1.051c.104.103.245.161.392.16.114-.002.225-.036.321-.098.785-.546,1.464-1.231,2.004-2.022.146-.222.116-.515-.071-.704l-1.087-1.087c.099-.205.185-.416.258-.632h1.532c.267,0,.496-.191.543-.454.178-.942.178-1.908,0-2.85v.027Z"></path>
    <path d="M337.401,131.536c-.307.039-.525.32-.486.627.032.254.232.454.486.486,1.431,0,2.592-1.16,2.592-2.592s-1.16-2.592-2.592-2.592-2.592,1.16-2.592,2.592c.039.307.32.525.627.486.254-.032.454-.232.486-.486,0-.816.662-1.478,1.478-1.478s1.478.662,1.478,1.478-.662,1.478-1.478,1.478Z"></path>
    <path class="uuid-6d0e8b3b-e363-4745-8069-9d2e1e00289d" d="M321.936,43.008c.325.324.851.324,1.176,0,.073-.083.132-.177.177-.277.048-.104.07-.218.067-.333,0-.111-.022-.22-.067-.322-.042-.102-.102-.196-.177-.277-.08-.072-.169-.131-.266-.178-.207-.077-.436-.077-.643,0-.097.046-.186.106-.266.178-.079.078-.14.173-.177.277-.044.101-.067.211-.067.322,0,.107.022.213.067.311.038.111.098.213.177.299Z"></path>
    <path class="uuid-6d0e8b3b-e363-4745-8069-9d2e1e00289d" d="M321.936,49.663c.325.324.851.324,1.176,0,.073-.083.132-.177.177-.277.048-.104.07-.218.067-.333,0-.22-.088-.432-.244-.588-.076-.079-.167-.142-.266-.189-.314-.122-.67-.048-.909.189-.156.156-.244.367-.244.588,0,.107.022.213.067.311.038.111.098.213.177.299Z"></path>
    <path class="uuid-6d0e8b3b-e363-4745-8069-9d2e1e00289d" d="M321.936,56.318c.325.324.851.324,1.176,0,.073-.083.132-.177.177-.277.048-.104.07-.218.067-.333,0-.221-.088-.432-.244-.588-.076-.079-.167-.142-.266-.189-.314-.122-.67-.048-.909.189-.156.156-.244.367-.244.588,0,.107.022.213.067.311.038.111.098.213.177.299Z"></path>
    <path class="uuid-6d0e8b3b-e363-4745-8069-9d2e1e00289d" d="M321.936,52.99c.325.324.851.324,1.176,0,.073-.083.132-.177.177-.277.048-.104.07-.218.067-.333,0-.22-.088-.432-.244-.588-.076-.079-.167-.142-.266-.189-.314-.122-.67-.048-.909.189-.156.156-.244.367-.244.588,0,.107.022.213.067.311.038.111.098.213.177.299Z"></path>
    <path class="uuid-6d0e8b3b-e363-4745-8069-9d2e1e00289d" d="M321.936,46.336c.325.324.851.324,1.176,0,.073-.083.132-.177.177-.277.048-.104.07-.218.067-.333,0-.221-.088-.432-.244-.588-.076-.079-.167-.143-.266-.189-.314-.122-.67-.048-.909.189-.156.156-.244.367-.244.588,0,.107.022.213.067.311.038.111.098.213.177.299Z"></path>
    <path class="uuid-6d0e8b3b-e363-4745-8069-9d2e1e00289d" d="M345.816,38.328h-26.619c-.459,0-.832.372-.832.832v19.876c0,.459.372.832.832.832h6.588c.063.006.126.006.189,0,.063.006.126.006.189,0h19.654c.457-.006.826-.375.832-.832v-19.876c-.006-.457-.375-.826-.832-.832ZM325.142,58.203h-5.113v-18.212h5.113v18.212ZM344.984,58.203h-18.179v-18.212h18.179v18.212Z"></path>
    <path class="uuid-6d0e8b3b-e363-4745-8069-9d2e1e00289d" d="M329.179,45.448v.022h.277v10.237c0,.459.372.832.832.832s.832-.372.832-.832v-10.237h.277c.459,0,.832-.372.832-.832s-.372-.832-.832-.832h-.277v-1.409c0-.459-.372-.832-.832-.832s-.832.372-.832.832v1.386h-.277c-.459,0-.832.372-.832.832s.372.832.832.832Z"></path>
    <path class="uuid-6d0e8b3b-e363-4745-8069-9d2e1e00289d" d="M334.725,53.212v.022h.277v2.473c0,.459.372.832.832.832s.832-.372.832-.832v-2.473h.277c.459,0,.832-.372.832-.832s-.372-.832-.832-.832h-.277v-9.172c0-.459-.372-.832-.832-.832s-.832.372-.832.832v9.15h-.277c-.459,0-.832.372-.832.832s.372.832.832.832Z"></path>
    <path class="uuid-6d0e8b3b-e363-4745-8069-9d2e1e00289d" d="M340.27,49.885v.022h.277v5.801c0,.459.372.832.832.832s.832-.372.832-.832v-5.801h.277c.459,0,.832-.372.832-.832s-.372-.832-.832-.832h-.277v-5.845c0-.459-.372-.832-.832-.832s-.832.372-.832.832v5.823h-.277c-.459,0-.832.372-.832.832s.372.832.832.832Z"></path>
    <g>
      <rect class="uuid-a44b072d-b54d-4a1f-a4c4-75ef07e76923" x="661.598" y="27.318" width="152.889" height="44.749"></rect>
      <g>
        <path d="M686.763,49.175c0-2.029,1.579-3.608,3.618-3.608,1.069,0,2.089.46,2.729,1.25l-.8.779c-.5-.62-1.189-.949-1.929-.949-1.359,0-2.389,1.089-2.389,2.528s1.029,2.528,2.389,2.528c.739,0,1.429-.329,1.929-.949l.8.779c-.64.79-1.659,1.25-2.729,1.25-2.039,0-3.618-1.579-3.618-3.608Z"></path>
        <path d="M693.663,50.174c0-1.479,1.08-2.588,2.519-2.588,1.43,0,2.509,1.109,2.509,2.588s-1.079,2.589-2.509,2.589c-1.438,0-2.519-1.109-2.519-2.589ZM697.581,50.174c0-.929-.59-1.629-1.399-1.629-.819,0-1.409.7-1.409,1.629,0,.939.59,1.63,1.409,1.63.81,0,1.399-.69,1.399-1.63Z"></path>
        <path d="M699.722,47.666h1.13v.789c.369-.569.869-.869,1.479-.869.689,0,1.22.369,1.479.959.39-.63.949-.959,1.659-.959.97,0,1.639.749,1.639,1.809v3.278h-1.129v-3.028c0-.699-.39-1.149-1.01-1.149-.409,0-.749.189-.999.6.01.1.02.2.02.3v3.278h-1.139v-3.028c0-.699-.391-1.149-1.01-1.149-.41,0-.74.189-.989.58v3.598h-1.13v-5.007Z"></path>
        <path d="M708.342,47.666h1.109v.709c.36-.47.92-.749,1.56-.749,1.269,0,2.259,1.129,2.259,2.548,0,1.43-1.02,2.549-2.329,2.549-.59,0-1.109-.22-1.469-.64v2.679h-1.13v-7.096ZM712.161,50.174c0-.909-.64-1.599-1.489-1.599-.5,0-.91.2-1.199.56v2.089c.289.35.72.56,1.199.56.859,0,1.489-.689,1.489-1.609Z"></path>
        <path d="M714.312,45.507l1.13-.2v7.366h-1.13v-7.166Z"></path>
        <path d="M716.552,45.957c0-.38.311-.7.7-.7.38,0,.699.32.699.7s-.319.689-.699.689c-.39,0-.7-.311-.7-.689ZM716.682,47.666h1.13v5.007h-1.13v-5.007Z"></path>
        <path d="M718.813,51.233c0-.899.739-1.469,1.919-1.469.47,0,.909.1,1.349.319v-.56c0-.659-.38-.999-1.149-.999-.42,0-.879.12-1.459.39l-.399-.819c.749-.34,1.409-.51,2.078-.51,1.31,0,2.049.659,2.049,1.818v3.269h-1.119v-.52c-.43.42-.909.609-1.489.609-1.049,0-1.778-.63-1.778-1.529ZM720.902,51.963c.449,0,.839-.13,1.179-.419v-.81c-.359-.17-.72-.24-1.149-.24-.649,0-1.06.27-1.06.72,0,.46.4.749,1.03.749Z"></path>
        <path d="M724.432,47.666h1.13v.819c.38-.59.929-.899,1.579-.899,1.029,0,1.749.729,1.749,1.789v3.298h-1.14v-2.979c0-.729-.43-1.199-1.1-1.199-.46,0-.829.21-1.089.609v3.568h-1.13v-5.007Z"></path>
        <path d="M729.882,50.174c0-1.449,1.1-2.588,2.528-2.588.779,0,1.499.31,1.999.85l-.699.729c-.351-.39-.78-.59-1.26-.59-.81,0-1.439.699-1.439,1.599,0,.91.63,1.6,1.439,1.6.479,0,.909-.2,1.26-.58l.699.72c-.5.54-1.22.85-1.999.85-1.429,0-2.528-1.129-2.528-2.589Z"></path>
        <path d="M734.822,50.174c0-1.469,1.06-2.588,2.438-2.588,1.37,0,2.369,1.089,2.369,2.588v.271h-3.698c.11.81.72,1.399,1.499,1.399.47,0,.91-.181,1.189-.47l.74.669c-.61.51-1.22.729-1.979.729-1.438,0-2.559-1.129-2.559-2.599ZM738.56,49.744c-.12-.729-.64-1.239-1.31-1.239-.68,0-1.179.49-1.309,1.239h2.618Z"></path>
        <path d="M742.892,45.677h3.108c1.389,0,2.339.859,2.339,2.119,0,.909-.54,1.619-1.39,1.919l1.479,2.958h-1.329l-1.35-2.799h-1.659v2.799h-1.199v-6.996ZM745.89,48.915c.75,0,1.239-.439,1.239-1.109,0-.68-.489-1.119-1.239-1.119h-1.799v2.229h1.799Z"></path>
        <path d="M748.852,50.174c0-1.469,1.06-2.588,2.438-2.588,1.37,0,2.369,1.089,2.369,2.588v.271h-3.698c.11.81.72,1.399,1.499,1.399.47,0,.91-.181,1.189-.47l.74.669c-.61.51-1.22.729-1.979.729-1.438,0-2.559-1.129-2.559-2.599ZM752.59,49.744c-.12-.729-.64-1.239-1.31-1.239-.68,0-1.179.49-1.309,1.239h2.618Z"></path>
        <path d="M754.672,47.666h1.129v.789c.37-.569.87-.869,1.479-.869.689,0,1.219.369,1.479.959.39-.63.95-.959,1.659-.959.97,0,1.64.749,1.64,1.809v3.278h-1.13v-3.028c0-.699-.39-1.149-1.01-1.149-.409,0-.749.189-.999.6.01.1.02.2.02.3v3.278h-1.139v-3.028c0-.699-.39-1.149-1.01-1.149-.409,0-.739.189-.989.58v3.598h-1.129v-5.007Z"></path>
        <path d="M763.062,50.174c0-1.469,1.06-2.588,2.438-2.588,1.369,0,2.369,1.089,2.369,2.588v.271h-3.698c.11.81.72,1.399,1.499,1.399.47,0,.91-.181,1.189-.47l.739.669c-.609.51-1.219.729-1.979.729-1.439,0-2.559-1.129-2.559-2.599ZM766.8,49.744c-.12-.729-.64-1.239-1.31-1.239-.68,0-1.18.49-1.31,1.239h2.619Z"></path>
        <path d="M768.671,50.174c0-1.429,1.029-2.548,2.339-2.548.569,0,1.089.229,1.459.649v-2.769l1.13-.2v7.366h-1.12v-.659c-.359.449-.919.709-1.549.709-1.27,0-2.259-1.129-2.259-2.549ZM772.469,51.223v-2.108c-.29-.34-.72-.54-1.189-.54-.859,0-1.499.68-1.499,1.599,0,.91.64,1.6,1.499,1.6.49,0,.899-.19,1.189-.55Z"></path>
        <path d="M774.721,45.957c0-.38.31-.7.7-.7.379,0,.699.32.699.7s-.32.689-.699.689c-.391,0-.7-.311-.7-.689ZM774.851,47.666h1.13v5.007h-1.13v-5.007Z"></path>
        <path d="M776.981,51.233c0-.899.74-1.469,1.919-1.469.47,0,.91.1,1.35.319v-.56c0-.659-.38-.999-1.149-.999-.42,0-.88.12-1.459.39l-.4-.819c.75-.34,1.409-.51,2.079-.51,1.31,0,2.049.659,2.049,1.818v3.269h-1.119v-.52c-.43.42-.909.609-1.489.609-1.05,0-1.779-.63-1.779-1.529ZM779.07,51.963c.45,0,.84-.13,1.18-.419v-.81c-.359-.17-.72-.24-1.149-.24-.649,0-1.06.27-1.06.72,0,.46.4.749,1.029.749Z"></path>
        <path d="M783.071,51.374v-2.809h-.999v-.899h.999v-1.38l1.129-.239v1.619h1.39v.899h-1.39v2.559c0,.489.19.68.7.68.22,0,.38-.03.68-.12v.949c-.29.09-.67.14-.97.14-1.01,0-1.539-.479-1.539-1.398Z"></path>
        <path d="M786.311,45.957c0-.38.31-.7.7-.7.379,0,.699.32.699.7s-.32.689-.699.689c-.391,0-.7-.311-.7-.689ZM786.441,47.666h1.13v5.007h-1.13v-5.007Z"></path>
        <path d="M788.601,50.174c0-1.479,1.079-2.588,2.519-2.588,1.43,0,2.509,1.109,2.509,2.588s-1.079,2.589-2.509,2.589c-1.439,0-2.519-1.109-2.519-2.589ZM792.519,50.174c0-.929-.59-1.629-1.399-1.629-.819,0-1.409.7-1.409,1.629,0,.939.59,1.63,1.409,1.63.81,0,1.399-.69,1.399-1.63Z"></path>
        <path d="M794.661,47.666h1.13v.819c.38-.59.93-.899,1.579-.899,1.029,0,1.749.729,1.749,1.789v3.298h-1.14v-2.979c0-.729-.43-1.199-1.1-1.199-.459,0-.829.21-1.089.609v3.568h-1.13v-5.007Z"></path>
        <path d="M799.891,52.093l.529-.749c.66.409,1.1.569,1.609.569.6,0,1.01-.279,1.01-.68,0-.31-.21-.47-.7-.569l-.879-.15c-.979-.18-1.449-.629-1.449-1.379,0-.939.77-1.549,1.938-1.549.7,0,1.329.199,1.969.6l-.529.749c-.51-.329-1-.479-1.509-.479-.521,0-.86.22-.86.58,0,.319.181.459.7.55l.89.17c.999.18,1.479.64,1.479,1.389,0,.92-.879,1.629-2.049,1.629-.859,0-1.619-.239-2.148-.68Z"></path>
      </g>
      <g>
        <path class="uuid-737a0061-15d0-4d2b-b782-9d8c33482a8d" d="M668.035,42.406v9.615c.271,3.788,3.431,6.719,7.229,6.704,3.774-.014,6.898-2.939,7.159-6.704v-9.615l-7.211-1.748-7.176,1.748Z"></path>
        <path class="uuid-6d0e8b3b-e363-4745-8069-9d2e1e00289d" d="M683.279,41.234l-7.867-1.879c-.097-.026-.2-.026-.297,0l-7.867,1.879c-.295.072-.504.335-.507.638v10.183c.302,4.707,4.362,8.278,9.068,7.976,4.286-.275,7.701-3.69,7.976-7.976v-10.183c0-.305-.21-.569-.507-.638ZM682.423,52.021c-.261,3.765-3.384,6.69-7.159,6.704-3.798.014-6.957-2.916-7.229-6.704v-9.615l7.176-1.748,7.211,1.748v9.615Z"></path>
      </g>
    </g>
    <polygon class="uuid-737a0061-15d0-4d2b-b782-9d8c33482a8d" points="471.107 258.633 469.613 260.127 471.107 260.127 471.107 258.633"></polygon>
    <path d="M499.196,141.598c.005,0,.011,0,.016,0h9.62c.274,0,.497-.223.497-.497,0-.274-.222-.497-.497-.497h-9.123v-15.039h15.039v12.329c0,.275.223.497.497.497.274,0,.497-.222.497-.497v-12.826c.004-.27-.211-.493-.481-.497-.005,0-.011,0-.016,0h-16.033c-.27-.004-.493.211-.497.481,0,.005,0,.011,0,.016v16.033c-.004.27.211.493.481.497Z"></path>
    <path d="M496.791,144.003c.005,0,.011,0,.016,0h12.025c.274,0,.497-.223.497-.497,0-.274-.222-.497-.497-.497h-11.528v-15.536c0-.275-.223-.497-.497-.497-.274,0-.497.222-.497.497v16.033c-.004.27.211.493.481.497Z"></path>
    <path d="M510.13,145.911c0-.274-.222-.497-.497-.497h-14.734v-15.536c0-.274-.223-.497-.497-.497-.274,0-.497.222-.497.497v16.033c-.004.27.211.493.481.497.005,0,.011,0,.016,0h15.231c.275,0,.497-.223.497-.497Z"></path>
    <g>
      <rect class="uuid-a44b072d-b54d-4a1f-a4c4-75ef07e76923" x="487.456" y="198.962" width="152.889" height="44.749"></rect>
      <g>
        <path d="M516.76,220.82c0-2.029,1.579-3.608,3.618-3.608,1.069,0,2.089.46,2.729,1.25l-.8.779c-.5-.62-1.189-.949-1.929-.949-1.359,0-2.389,1.089-2.389,2.528s1.029,2.528,2.389,2.528c.739,0,1.429-.329,1.929-.949l.8.779c-.64.79-1.659,1.25-2.729,1.25-2.039,0-3.618-1.579-3.618-3.608Z"></path>
        <path d="M523.49,221.819c0-1.479,1.079-2.588,2.519-2.588,1.43,0,2.509,1.109,2.509,2.588s-1.079,2.589-2.509,2.589c-1.439,0-2.519-1.109-2.519-2.589ZM527.408,221.819c0-.929-.59-1.629-1.399-1.629-.819,0-1.409.7-1.409,1.629,0,.939.59,1.63,1.409,1.63.81,0,1.399-.69,1.399-1.63Z"></path>
        <path d="M529.379,219.311h1.13v.789c.37-.569.869-.869,1.479-.869.689,0,1.219.369,1.479.959.39-.63.95-.959,1.659-.959.97,0,1.64.749,1.64,1.809v3.278h-1.13v-3.028c0-.699-.39-1.149-1.01-1.149-.409,0-.749.189-.999.6.01.1.02.2.02.3v3.278h-1.139v-3.028c0-.699-.39-1.149-1.01-1.149-.41,0-.739.189-.989.58v3.598h-1.13v-5.007Z"></path>
        <path d="M537.83,219.311h1.109v.709c.36-.47.92-.749,1.56-.749,1.27,0,2.259,1.129,2.259,2.548,0,1.43-1.02,2.549-2.329,2.549-.589,0-1.109-.22-1.469-.64v2.679h-1.13v-7.096ZM541.648,221.819c0-.909-.64-1.599-1.489-1.599-.5,0-.909.2-1.199.56v2.089c.29.35.72.56,1.199.56.859,0,1.489-.689,1.489-1.609Z"></path>
        <path d="M543.629,217.152l1.13-.2v7.366h-1.13v-7.166Z"></path>
        <path d="M545.7,217.601c0-.379.31-.699.7-.699.379,0,.699.32.699.699s-.32.69-.699.69c-.391,0-.7-.311-.7-.69ZM545.83,219.311h1.13v5.007h-1.13v-5.007Z"></path>
        <path d="M547.79,222.878c0-.899.74-1.469,1.919-1.469.47,0,.91.1,1.35.319v-.56c0-.659-.38-.999-1.149-.999-.42,0-.88.12-1.459.39l-.4-.819c.75-.34,1.409-.51,2.079-.51,1.31,0,2.049.659,2.049,1.818v3.269h-1.119v-.52c-.43.42-.909.609-1.489.609-1.05,0-1.779-.63-1.779-1.529ZM549.878,223.608c.45,0,.84-.13,1.18-.419v-.81c-.359-.17-.72-.24-1.149-.24-.649,0-1.06.27-1.06.72,0,.46.4.749,1.029.749Z"></path>
        <path d="M553.239,219.311h1.13v.819c.38-.59.93-.899,1.579-.899,1.029,0,1.749.729,1.749,1.789v3.298h-1.14v-2.979c0-.729-.43-1.199-1.1-1.199-.459,0-.829.21-1.089.609v3.568h-1.13v-5.007Z"></path>
        <path d="M558.52,221.819c0-1.449,1.1-2.588,2.528-2.588.78,0,1.499.31,1.999.85l-.699.729c-.35-.39-.78-.59-1.26-.59-.81,0-1.438.699-1.438,1.599,0,.91.629,1.6,1.438,1.6.479,0,.91-.2,1.26-.58l.699.72c-.5.54-1.219.85-1.999.85-1.429,0-2.528-1.129-2.528-2.589Z"></path>
        <path d="M563.29,221.819c0-1.469,1.06-2.588,2.438-2.588,1.369,0,2.369,1.089,2.369,2.588v.271h-3.698c.11.81.72,1.399,1.499,1.399.47,0,.91-.181,1.189-.47l.739.669c-.609.51-1.219.729-1.979.729-1.439,0-2.559-1.129-2.559-2.599ZM567.028,221.389c-.12-.729-.64-1.239-1.31-1.239-.68,0-1.18.49-1.31,1.239h2.619Z"></path>
        <path d="M570.689,220.82c0-2.029,1.579-3.608,3.618-3.608,1.069,0,2.089.46,2.729,1.25l-.8.779c-.5-.62-1.189-.949-1.929-.949-1.359,0-2.389,1.089-2.389,2.528s1.029,2.528,2.389,2.528c.739,0,1.429-.329,1.929-.949l.8.779c-.64.79-1.659,1.25-2.729,1.25-2.039,0-3.618-1.579-3.618-3.608Z"></path>
        <path d="M577.798,217.152l1.13-.2v3.179c.38-.59.93-.899,1.579-.899,1.029,0,1.749.729,1.749,1.789v3.298h-1.14v-2.979c0-.729-.43-1.199-1.1-1.199-.459,0-.829.21-1.089.609v3.568h-1.13v-7.166Z"></path>
        <path d="M583.08,221.819c0-1.469,1.06-2.588,2.438-2.588,1.369,0,2.369,1.089,2.369,2.588v.271h-3.698c.11.81.72,1.399,1.499,1.399.47,0,.91-.181,1.189-.47l.739.669c-.609.51-1.219.729-1.979.729-1.439,0-2.559-1.129-2.559-2.599ZM586.818,221.389c-.12-.729-.64-1.239-1.31-1.239-.68,0-1.18.49-1.31,1.239h2.619Z"></path>
        <path d="M588.519,221.819c0-1.449,1.1-2.588,2.528-2.588.78,0,1.499.31,1.999.85l-.699.729c-.35-.39-.779-.59-1.26-.59-.81,0-1.439.699-1.439,1.599,0,.91.63,1.6,1.439,1.6.48,0,.91-.2,1.26-.58l.699.72c-.5.54-1.219.85-1.999.85-1.429,0-2.528-1.129-2.528-2.589Z"></path>
        <path d="M593.668,217.131l1.13-.189v4.497l2.079-2.128h1.299l-2.309,2.318,2.429,2.688h-1.439l-2.059-2.309v2.309h-1.13v-7.187Z"></path>
        <path d="M600.849,217.322h3.108c1.389,0,2.338.859,2.338,2.119,0,.909-.539,1.619-1.389,1.919l1.479,2.958h-1.33l-1.349-2.799h-1.659v2.799h-1.199v-6.996ZM603.847,220.56c.75,0,1.239-.439,1.239-1.109,0-.68-.489-1.119-1.239-1.119h-1.799v2.229h1.799Z"></path>
        <path d="M606.639,221.819c0-1.469,1.06-2.588,2.438-2.588,1.369,0,2.369,1.089,2.369,2.588v.271h-3.698c.11.81.72,1.399,1.499,1.399.47,0,.91-.181,1.189-.47l.739.669c-.609.51-1.219.729-1.979.729-1.439,0-2.559-1.129-2.559-2.599ZM610.377,221.389c-.12-.729-.64-1.239-1.31-1.239-.68,0-1.18.49-1.31,1.239h2.619Z"></path>
        <path d="M611.889,223.738l.529-.749c.66.409,1.1.569,1.609.569.6,0,1.01-.279,1.01-.68,0-.31-.21-.47-.7-.569l-.879-.15c-.979-.18-1.449-.629-1.449-1.379,0-.939.77-1.549,1.938-1.549.7,0,1.329.199,1.969.6l-.529.749c-.51-.329-1-.479-1.509-.479-.521,0-.86.22-.86.58,0,.319.181.459.7.55l.89.17c.999.18,1.479.64,1.479,1.389,0,.92-.879,1.629-2.049,1.629-.859,0-1.619-.239-2.148-.68Z"></path>
        <path d="M616.778,222.609v-3.298h1.14v2.968c0,.74.43,1.21,1.1,1.21.45,0,.829-.2,1.09-.601v-3.577h1.129v5.007h-1.129v-.81c-.38.59-.92.89-1.59.89-1.02,0-1.739-.739-1.739-1.789Z"></path>
        <path d="M622.328,217.152l1.13-.2v7.366h-1.13v-7.166Z"></path>
        <path d="M625.158,223.019v-2.809h-1v-.899h1v-1.38l1.129-.239v1.619h1.39v.899h-1.39v2.559c0,.489.19.68.7.68.22,0,.38-.03.68-.12v.949c-.29.09-.67.14-.97.14-1.01,0-1.539-.479-1.539-1.398Z"></path>
        <path d="M628.019,223.738l.529-.749c.66.409,1.1.569,1.609.569.6,0,1.01-.279,1.01-.68,0-.31-.21-.47-.7-.569l-.879-.15c-.979-.18-1.449-.629-1.449-1.379,0-.939.77-1.549,1.938-1.549.7,0,1.329.199,1.969.6l-.529.749c-.51-.329-1-.479-1.51-.479-.52,0-.859.22-.859.58,0,.319.181.459.7.55l.89.17c.999.18,1.479.64,1.479,1.389,0,.92-.879,1.629-2.049,1.629-.859,0-1.619-.239-2.148-.68Z"></path>
      </g>
      <path class="uuid-737a0061-15d0-4d2b-b782-9d8c33482a8d" d="M498.798,213.319c0,.005,0,.011,0,.016-.004.269-.226.484-.496.479h-2.701v14.091h12.596v-17.288h-9.399v2.701ZM505.495,225.004h-7.193c-.273,0-.495-.222-.495-.495,0-.274.222-.496.495-.496h7.193c.273,0,.495.222.495.495,0,.274-.222.496-.495.496ZM505.495,222.606h-7.193c-.273,0-.495-.222-.495-.495,0-.274.222-.496.495-.496h7.193c.273,0,.495.222.495.495,0,.274-.222.496-.495.496ZM505.991,219.713c0,.274-.222.496-.495.496h-7.193c-.005,0-.011,0-.016,0-.269-.004-.484-.226-.479-.496,0-.005,0-.011,0-.016.004-.269.226-.484.496-.479h7.193c.273,0,.495.222.495.495ZM501.899,216.82c.274,0,.495.222.495.496,0,.274-.222.495-.496.495h-3.597c-.005,0-.011,0-.016,0-.269-.004-.484-.226-.479-.496,0-.005,0-.011,0-.016.004-.269.226-.484.496-.479h3.597Z"></path>
      <path d="M509.188,228.425c0-.005,0-.011,0-.016v-18.287c.004-.269-.21-.491-.479-.496-.005,0-.011,0-.016,0h-10.391c-.132.005-.258.059-.352.152l-3.197,3.197c-.095.089-.15.213-.152.344v15.09c-.005.269.21.491.479.496.008,0,.016,0,.024,0h13.588c.269.004.491-.21.496-.479ZM497.806,211.329v1.495h-1.495l1.495-1.495ZM508.197,227.906h-12.596v-14.091h2.701c.269.004.491-.21.496-.479,0-.005,0-.011,0-.016v-2.701h9.399v17.288Z"></path>
      <path d="M511.106,212.12c-.005,0-.011,0-.016,0-.269-.004-.491.21-.496.479,0,.005,0,.011,0,.016v17.792h-13.092c-.274,0-.495.222-.495.496,0,.273.222.495.495.495h13.588c.269.004.491-.21.496-.479,0-.005,0-.011,0-.016v-18.287c.004-.269-.21-.491-.479-.496Z"></path>
      <path d="M497.806,217.299c0,.005,0,.011,0,.016-.004.269.21.491.479.496.005,0,.011,0,.016,0h3.597c.274,0,.496-.222.496-.495,0-.274-.222-.496-.495-.496h-3.597c-.269-.004-.491.21-.496.479Z"></path>
      <path d="M497.806,219.697c0,.005,0,.011,0,.016-.004.269.21.491.479.496.005,0,.011,0,.016,0h7.193c.274,0,.495-.222.495-.496,0-.273-.222-.495-.495-.495h-7.193c-.269-.004-.491.21-.496.479Z"></path>
      <path d="M505.495,221.615h-7.193c-.274,0-.495.222-.495.496,0,.273.222.495.495.495h7.193c.274,0,.495-.222.495-.496,0-.273-.222-.495-.495-.495Z"></path>
      <path d="M505.495,224.013h-7.193c-.274,0-.495.222-.495.496,0,.273.222.495.495.495h7.193c.274,0,.495-.222.495-.496,0-.273-.222-.495-.495-.495Z"></path>
    </g>
    <rect class="uuid-737a0061-15d0-4d2b-b782-9d8c33482a8d" x="499.709" y="125.565" width="15.126" height="15.129"></rect>
    <rect class="uuid-737a0061-15d0-4d2b-b782-9d8c33482a8d" x="670.55" y="127.072" width="15.126" height="15.129"></rect>
    <path d="M510.739,127.481c.035.277.288.473.565.438.229-.029.409-.209.437-.438,0-.279-.226-.505-.505-.505-.276.004-.497.229-.497.505Z"></path>
    <path d="M512.343,127.481c.035.277.288.473.565.438.229-.029.409-.209.438-.438,0-.279-.226-.505-.505-.505-.276.004-.497.229-.497.505Z"></path>
    <path d="M516.15,140.299l-2.405-.513c-.069-.016-.14-.016-.208,0l-2.405.513c-.23.049-.394.254-.393.489v2.774c0,1.603,1.299,2.902,2.902,2.902s2.902-1.299,2.902-2.902v-2.79c-.006-.229-.168-.425-.393-.473Z"></path>
    <g>
      <g>
        <path d="M669.895,143.295h9.62c.274,0,.497-.223.497-.497,0-.274-.222-.497-.497-.497h-9.123v-15.039h15.039v7.893c0,.274.223.497.497.497.274,0,.497-.222.497-.497v-8.39c.004-.27-.211-.493-.481-.497-.005,0-.011,0-.016,0h-16.033c-.27-.004-.493.211-.497.481,0,.005,0,.011,0,.016v16.033c-.004.27.211.493.481.497.005,0,.011,0,.016,0Z"></path>
        <path d="M686.833,137.56l-2.405-.513c-.069-.016-.14-.016-.208,0l-2.405.513c-.23.049-.394.254-.393.489v2.774c0,1.603,1.299,2.902,2.902,2.902s2.902-1.299,2.902-2.902v-2.79c-.006-.229-.168-.425-.393-.473Z"></path>
      </g>
      <path d="M681.919,128.673c-.276.004-.497.229-.497.505.035.277.288.473.565.438.229-.029.409-.209.438-.438,0-.279-.226-.505-.505-.505Z"></path>
      <path d="M683.523,128.673c-.276.004-.497.229-.497.505.035.277.288.473.565.438.229-.029.409-.209.438-.438,0-.279-.226-.505-.505-.505Z"></path>
    </g>
  </g>
</svg>