<svg id="uuid-317f0719-0591-48fc-b867-0ae82ca0f904" data-name="Layer_1" xmlns="http://www.w3.org/2000/svg" width="595.276" height="344.487" viewBox="0 0 595.276 344.487">
  <defs>
    <style>
      .uuid-8a4cee5f-34b5-4796-b364-69c186e3b6f2, .uuid-0faa0b82-0d4c-482d-b0d6-d14216d7537c {
        stroke: #e00;
      }

      .uuid-8a4cee5f-34b5-4796-b364-69c186e3b6f2, .uuid-0faa0b82-0d4c-482d-b0d6-d14216d7537c, .uuid-dcd5861e-b01c-4446-9494-586ff2e88420 {
        stroke-linecap: round;
        stroke-linejoin: round;
      }

      .uuid-8a4cee5f-34b5-4796-b364-69c186e3b6f2, .uuid-52f759e4-53f3-415c-8c46-7af017532478 {
        fill: #fff;
      }

      .uuid-0b4e2edf-28f4-42b4-be36-e01870834c79 {
        fill: #d2d2d2;
      }

      .uuid-b80784d3-8366-426c-97db-01698f2af259 {
        fill: #e6e6e6;
      }

      .uuid-5750e8a9-fe8d-489d-8472-f39e0c3d7ec7 {
        fill: #5b5b5b;
      }

      .uuid-0faa0b82-0d4c-482d-b0d6-d14216d7537c, .uuid-dcd5861e-b01c-4446-9494-586ff2e88420, .uuid-14854d4f-36e7-4030-8619-85cf9c6a5332 {
        fill: none;
      }

      .uuid-dcd5861e-b01c-4446-9494-586ff2e88420 {
        stroke: #fff;
        stroke-dasharray: 3;
      }

      .uuid-14854d4f-36e7-4030-8619-85cf9c6a5332 {
        stroke: #000;
        stroke-miterlimit: 10;
      }

      .uuid-94b43957-c1d4-4881-b4da-1d3bc9dee908 {
        fill: #e00;
      }
    </style>
  </defs>
  <rect class="uuid-52f759e4-53f3-415c-8c46-7af017532478" width="595.276" height="344.487"></rect>
  <rect class="uuid-b80784d3-8366-426c-97db-01698f2af259" x="14.843" y="46.168" width="166" height="26.249"></rect>
  <rect class="uuid-b80784d3-8366-426c-97db-01698f2af259" x="14.843" y="87.689" width="166" height="238.874"></rect>
  <rect class="uuid-0b4e2edf-28f4-42b4-be36-e01870834c79" x="25.343" y="98.147" width="145" height="26.249"></rect>
  <rect class="uuid-0b4e2edf-28f4-42b4-be36-e01870834c79" x="25.343" y="150.69" width="145" height="54.296"></rect>
  <rect class="uuid-0b4e2edf-28f4-42b4-be36-e01870834c79" x="25.343" y="231.718" width="145" height="26.249"></rect>
  <g>
    <path class="uuid-94b43957-c1d4-4881-b4da-1d3bc9dee908" d="M39.675,19.123h3.741c1.584,0,2.717,1.023,2.717,2.453,0,.979-.561,1.771-1.43,2.156l1.617,3.092h-2.112l-1.397-2.827h-1.243v2.827h-1.893v-7.701ZM43.24,22.511c.583,0,.979-.363.979-.913s-.396-.913-.979-.913h-1.672v1.826h1.672Z"></path>
    <path class="uuid-94b43957-c1d4-4881-b4da-1d3bc9dee908" d="M46.715,23.997c0-1.661,1.232-2.938,2.86-2.938,1.64,0,2.794,1.243,2.794,3.003v.386h-3.905c.165.638.682,1.066,1.331,1.066.473,0,.869-.165,1.122-.473l1.177.979c-.737.648-1.43.913-2.387.913-1.672,0-2.993-1.287-2.993-2.938ZM50.72,23.435c-.154-.604-.583-.99-1.155-.99-.561,0-.957.363-1.1.99h2.255Z"></path>
    <path class="uuid-94b43957-c1d4-4881-b4da-1d3bc9dee908" d="M53.282,23.974c0-1.595,1.167-2.86,2.641-2.86.594,0,1.133.242,1.518.683v-2.806l1.782-.275v8.108h-1.76v-.737c-.374.474-1.001.771-1.672.771-1.397,0-2.508-1.287-2.508-2.883ZM57.441,24.931v-1.914c-.275-.286-.649-.44-1.056-.44-.781,0-1.353.595-1.353,1.408,0,.804.583,1.397,1.353,1.397.429,0,.781-.154,1.056-.451Z"></path>
    <path class="uuid-94b43957-c1d4-4881-b4da-1d3bc9dee908" d="M63.028,19.123h1.893v2.992h3.113v-2.992h1.892v7.701h-1.892v-3.048h-3.113v3.048h-1.893v-7.701Z"></path>
    <path class="uuid-94b43957-c1d4-4881-b4da-1d3bc9dee908" d="M70.992,25.196c0-1.046.814-1.65,2.211-1.65.407,0,.814.077,1.32.264v-.462c0-.55-.363-.825-1.122-.825-.429,0-.935.121-1.595.396l-.616-1.243c.935-.418,1.771-.616,2.607-.616,1.573,0,2.486.781,2.486,2.134v3.631h-1.76v-.495c-.495.418-.968.583-1.573.583-1.155,0-1.958-.704-1.958-1.716ZM73.5,25.735c.374,0,.715-.1,1.023-.286v-.727c-.33-.077-.649-.121-.979-.121-.583,0-.913.198-.913.562s.319.572.869.572Z"></path>
    <path class="uuid-94b43957-c1d4-4881-b4da-1d3bc9dee908" d="M78.208,25.108v-2.586h-1.101v-1.375h1.101v-1.573l1.782-.363v1.937h1.518v1.375h-1.518v2.233c0,.506.198.683.748.683.209,0,.374-.022.726-.121v1.44c-.33.1-.858.177-1.221.177-1.342,0-2.035-.616-2.035-1.826Z"></path>
    <path class="uuid-94b43957-c1d4-4881-b4da-1d3bc9dee908" d="M84.247,21.147h1.936l1.287,3.564,1.298-3.564h1.837l-2.321,5.677h-1.738l-2.299-5.677Z"></path>
    <path class="uuid-94b43957-c1d4-4881-b4da-1d3bc9dee908" d="M91.265,19.277c0-.551.451-1.001,1.001-1.001s1.001.45,1.001,1.001-.451,1.001-1.001,1.001-1.001-.451-1.001-1.001ZM91.375,21.147h1.783v5.677h-1.783v-5.677Z"></path>
    <path class="uuid-94b43957-c1d4-4881-b4da-1d3bc9dee908" d="M94.542,21.147h1.783v1.287c.363-.946.869-1.397,1.54-1.397.253.012.374.033.594.144v1.529c-.22-.11-.528-.177-.836-.177-.528,0-1.012.275-1.298.704v3.587h-1.783v-5.677Z"></path>
    <path class="uuid-94b43957-c1d4-4881-b4da-1d3bc9dee908" d="M100.153,25.108v-2.586h-1.101v-1.375h1.101v-1.573l1.782-.363v1.937h1.518v1.375h-1.518v2.233c0,.506.198.683.748.683.209,0,.374-.022.726-.121v1.44c-.33.1-.858.177-1.221.177-1.342,0-2.035-.616-2.035-1.826Z"></path>
    <path class="uuid-94b43957-c1d4-4881-b4da-1d3bc9dee908" d="M104.398,24.975v-3.828h1.782v3.312c0,.638.374,1.056.946,1.056.385,0,.693-.153.946-.473v-3.895h1.782v5.677h-1.782v-.924c-.44.66-1.056,1.012-1.793,1.012-1.1,0-1.881-.803-1.881-1.937Z"></path>
    <path class="uuid-94b43957-c1d4-4881-b4da-1d3bc9dee908" d="M110.977,25.196c0-1.046.814-1.65,2.211-1.65.407,0,.814.077,1.32.264v-.462c0-.55-.363-.825-1.122-.825-.429,0-.935.121-1.595.396l-.616-1.243c.935-.418,1.771-.616,2.607-.616,1.573,0,2.486.781,2.486,2.134v3.631h-1.76v-.495c-.495.418-.968.583-1.573.583-1.155,0-1.958-.704-1.958-1.716ZM113.485,25.735c.374,0,.715-.1,1.023-.286v-.727c-.33-.077-.649-.121-.979-.121-.583,0-.913.198-.913.562s.319.572.869.572Z"></path>
    <path class="uuid-94b43957-c1d4-4881-b4da-1d3bc9dee908" d="M117.609,18.991l1.783-.275v8.108h-1.783v-7.833Z"></path>
    <path class="uuid-94b43957-c1d4-4881-b4da-1d3bc9dee908" d="M120.667,19.277c0-.551.451-1.001,1.001-1.001s1.001.45,1.001,1.001-.451,1.001-1.001,1.001-1.001-.451-1.001-1.001ZM120.777,21.147h1.783v5.677h-1.783v-5.677Z"></path>
    <path class="uuid-94b43957-c1d4-4881-b4da-1d3bc9dee908" d="M123.648,25.581l2.542-2.959-2.52.021v-1.496h4.709v1.243l-2.553,2.971,2.641-.022v1.485h-4.819v-1.243Z"></path>
    <path class="uuid-94b43957-c1d4-4881-b4da-1d3bc9dee908" d="M129.292,25.196c0-1.046.814-1.65,2.211-1.65.407,0,.814.077,1.32.264v-.462c0-.55-.363-.825-1.122-.825-.429,0-.935.121-1.595.396l-.616-1.243c.935-.418,1.771-.616,2.607-.616,1.573,0,2.487.781,2.487,2.134v3.631h-1.761v-.495c-.495.418-.968.583-1.573.583-1.155,0-1.958-.704-1.958-1.716ZM131.8,25.735c.374,0,.715-.1,1.023-.286v-.727c-.33-.077-.649-.121-.979-.121-.583,0-.913.198-.913.562s.319.572.869.572Z"></path>
    <path class="uuid-94b43957-c1d4-4881-b4da-1d3bc9dee908" d="M136.507,25.108v-2.586h-1.101v-1.375h1.101v-1.573l1.782-.363v1.937h1.518v1.375h-1.518v2.233c0,.506.198.683.748.683.209,0,.374-.022.726-.121v1.44c-.33.1-.857.177-1.221.177-1.342,0-2.035-.616-2.035-1.826Z"></path>
    <path class="uuid-94b43957-c1d4-4881-b4da-1d3bc9dee908" d="M140.687,19.277c0-.551.451-1.001,1.001-1.001s1.001.45,1.001,1.001-.45,1.001-1.001,1.001-1.001-.451-1.001-1.001ZM140.797,21.147h1.782v5.677h-1.782v-5.677Z"></path>
    <path class="uuid-94b43957-c1d4-4881-b4da-1d3bc9dee908" d="M143.712,23.997c0-1.673,1.275-2.938,2.959-2.938s2.96,1.265,2.96,2.938-1.276,2.938-2.96,2.938-2.959-1.266-2.959-2.938ZM147.893,23.997c0-.848-.507-1.452-1.222-1.452s-1.221.604-1.221,1.452.506,1.452,1.221,1.452,1.222-.605,1.222-1.452Z"></path>
    <path class="uuid-94b43957-c1d4-4881-b4da-1d3bc9dee908" d="M150.763,21.147h1.782v.924c.439-.66,1.056-1.012,1.793-1.012,1.101,0,1.881.803,1.881,1.937v3.828h-1.782v-3.312c0-.638-.374-1.056-.945-1.056-.386,0-.693.153-.946.473v3.895h-1.782v-5.677Z"></path>
  </g>
  <g>
    <path d="M27.985,305.469h3.741c1.584,0,2.717,1.023,2.717,2.453,0,.979-.561,1.771-1.43,2.156l1.617,3.092h-2.112l-1.397-2.827h-1.243v2.827h-1.893v-7.701ZM31.55,308.858c.583,0,.979-.363.979-.913s-.396-.913-.979-.913h-1.672v1.826h1.672Z"></path>
    <path d="M35.608,305.469h1.893v2.992h3.113v-2.992h1.892v7.701h-1.892v-3.048h-3.113v3.048h-1.893v-7.701Z"></path>
    <path d="M43.275,305.469h2.046l2.035,5.731,2.068-5.731h1.969l-3.003,7.701h-2.156l-2.959-7.701Z"></path>
    <path d="M54.528,305.469h1.892v2.992h3.114v-2.992h1.892v7.701h-1.892v-3.048h-3.114v3.048h-1.892v-7.701Z"></path>
    <path d="M62.613,310.343c0-1.673,1.276-2.938,2.959-2.938s2.96,1.265,2.96,2.938-1.276,2.938-2.96,2.938-2.959-1.266-2.959-2.938ZM66.794,310.343c0-.848-.507-1.452-1.222-1.452s-1.221.604-1.221,1.452.506,1.452,1.221,1.452,1.222-.605,1.222-1.452Z"></path>
    <path d="M69.202,312.587l.78-1.188c.814.43,1.276.572,1.827.572.506,0,.813-.176.813-.462,0-.22-.165-.341-.528-.407l-1.089-.198c-1.1-.209-1.672-.77-1.672-1.65,0-1.154.891-1.848,2.376-1.848.792,0,1.573.22,2.311.648l-.814,1.134c-.572-.33-1.1-.484-1.628-.484-.429,0-.683.144-.683.385,0,.231.144.33.584.407l1.066.198c1.122.209,1.706.781,1.706,1.64,0,1.11-1.046,1.947-2.442,1.947-1.034,0-1.947-.242-2.607-.693Z"></path>
    <path d="M75.923,311.455v-2.586h-1.101v-1.375h1.101v-1.573l1.782-.363v1.937h1.518v1.375h-1.518v2.233c0,.506.198.683.748.683.209,0,.374-.022.726-.121v1.44c-.33.1-.857.177-1.221.177-1.342,0-2.035-.616-2.035-1.826Z"></path>
  </g>
  <g>
    <path d="M51.064,54.981h3.108c1.389,0,2.339.859,2.339,2.119,0,.909-.54,1.619-1.389,1.919l1.479,2.958h-1.329l-1.35-2.799h-1.659v2.799h-1.2v-6.996ZM54.062,58.219c.75,0,1.239-.439,1.239-1.109,0-.68-.49-1.119-1.239-1.119h-1.799v2.229h1.799Z"></path>
    <path d="M57.734,54.981h1.199v2.938h3.478v-2.938h1.2v6.996h-1.2v-2.988h-3.478v2.988h-1.199v-6.996Z"></path>
    <path d="M64.464,54.981h1.289l2.149,5.776,2.169-5.776h1.239l-2.739,6.996h-1.389l-2.718-6.996Z"></path>
    <path d="M71.634,58.659h3.488v.96h-3.488v-.96Z"></path>
    <path d="M76.534,54.981h1.559l2.049,4.248,2.039-4.248h1.559v6.996h-1.129v-5.477l-2.479,4.977-2.489-5.007v5.507h-1.109v-6.996Z"></path>
    <path d="M87.344,58.479c0-2.029,1.579-3.608,3.618-3.608,1.069,0,2.089.46,2.729,1.25l-.8.779c-.5-.62-1.189-.949-1.929-.949-1.359,0-2.389,1.089-2.389,2.528s1.029,2.528,2.389,2.528c.739,0,1.429-.329,1.929-.949l.8.779c-.64.79-1.659,1.25-2.729,1.25-2.039,0-3.618-1.579-3.618-3.608Z"></path>
    <path d="M94.384,59.478c0-1.479,1.08-2.588,2.519-2.588,1.429,0,2.509,1.109,2.509,2.588s-1.08,2.589-2.509,2.589c-1.439,0-2.519-1.109-2.519-2.589ZM98.302,59.478c0-.929-.59-1.629-1.399-1.629-.819,0-1.409.7-1.409,1.629,0,.939.59,1.63,1.409,1.63.81,0,1.399-.69,1.399-1.63Z"></path>
    <path d="M100.583,56.97h1.129v.819c.38-.59.929-.899,1.579-.899,1.029,0,1.749.729,1.749,1.789v3.298h-1.14v-2.979c0-.729-.43-1.199-1.099-1.199-.46,0-.83.21-1.089.609v3.568h-1.129v-5.007Z"></path>
    <path d="M105.954,61.397l.53-.749c.659.409,1.099.569,1.609.569.6,0,1.009-.279,1.009-.68,0-.31-.209-.47-.699-.569l-.88-.15c-.979-.18-1.449-.629-1.449-1.379,0-.939.77-1.549,1.939-1.549.7,0,1.33.199,1.969.6l-.53.749c-.51-.329-1-.479-1.509-.479-.52,0-.859.22-.859.58,0,.319.18.459.699.55l.89.17c1,.18,1.479.64,1.479,1.389,0,.92-.88,1.629-2.049,1.629-.86,0-1.619-.239-2.149-.68Z"></path>
    <path d="M111.013,59.478c0-1.479,1.08-2.588,2.519-2.588,1.429,0,2.509,1.109,2.509,2.588s-1.08,2.589-2.509,2.589c-1.439,0-2.519-1.109-2.519-2.589ZM114.931,59.478c0-.929-.59-1.629-1.399-1.629-.819,0-1.409.7-1.409,1.629,0,.939.59,1.63,1.409,1.63.81,0,1.399-.69,1.399-1.63Z"></path>
    <path d="M117.213,54.811l1.129-.2v7.366h-1.129v-7.166Z"></path>
    <path d="M119.503,59.478c0-1.469,1.06-2.588,2.438-2.588,1.37,0,2.369,1.089,2.369,2.588v.271h-3.698c.11.81.72,1.399,1.499,1.399.47,0,.91-.181,1.189-.47l.74.669c-.61.51-1.219.729-1.979.729-1.439,0-2.559-1.129-2.559-2.599ZM123.241,59.048c-.12-.729-.64-1.239-1.309-1.239-.68,0-1.179.49-1.309,1.239h2.618Z"></path>
    <path d="M128.122,54.981h1.1l-4.008,9.085h-1.089l3.998-9.085Z"></path>
    <path d="M129.703,58.479c0-2.029,1.579-3.608,3.618-3.608,1.069,0,2.089.46,2.729,1.25l-.8.779c-.5-.62-1.189-.949-1.929-.949-1.359,0-2.389,1.089-2.389,2.528s1.029,2.528,2.389,2.528c.739,0,1.429-.329,1.929-.949l.8.779c-.64.79-1.659,1.25-2.729,1.25-2.039,0-3.618-1.579-3.618-3.608Z"></path>
    <path d="M137.263,54.981h1.199v5.957h3.728v1.039h-4.927v-6.996Z"></path>
    <path d="M143.474,54.981h1.199v6.996h-1.199v-6.996Z"></path>
  </g>
  <g>
    <path d="M85.494,109.034h1.229l1.399,3.638,1.39-3.638h1.179l-2.059,5.007h-1.099l-2.039-5.007Z"></path>
    <path d="M91.124,111.542c0-1.429,1.029-2.548,2.339-2.548.569,0,1.089.229,1.459.649v-2.769l1.129-.2v7.366h-1.119v-.659c-.36.449-.92.709-1.549.709-1.27,0-2.259-1.129-2.259-2.549ZM94.921,112.591v-2.108c-.29-.34-.72-.54-1.189-.54-.859,0-1.499.68-1.499,1.599,0,.91.64,1.6,1.499,1.6.49,0,.9-.19,1.189-.55Z"></path>
    <path d="M97.003,113.461l.53-.749c.659.409,1.099.569,1.609.569.6,0,1.009-.279,1.009-.68,0-.31-.209-.47-.699-.569l-.88-.15c-.979-.18-1.449-.629-1.449-1.379,0-.939.77-1.549,1.939-1.549.7,0,1.33.199,1.969.6l-.53.749c-.51-.329-1-.479-1.509-.479-.52,0-.859.22-.859.58,0,.319.18.459.699.55l.89.17c1,.18,1.479.64,1.479,1.389,0,.92-.88,1.629-2.049,1.629-.86,0-1.619-.239-2.149-.68Z"></path>
    <path d="M102.243,109.034h1.129v.789c.37-.569.87-.869,1.479-.869.689,0,1.219.369,1.479.959.39-.63.949-.959,1.659-.959.97,0,1.639.749,1.639,1.809v3.278h-1.129v-3.028c0-.699-.39-1.149-1.009-1.149-.41,0-.75.189-1,.6.01.1.02.2.02.3v3.278h-1.139v-3.028c0-.699-.39-1.149-1.01-1.149-.41,0-.74.189-.989.58v3.598h-1.129v-5.007Z"></path>
  </g>
  <g>
    <path d="M85.039,159.418l1.129-.2v7.366h-1.129v-7.166Z"></path>
    <path d="M87.418,159.868c0-.38.31-.7.7-.7.38,0,.7.32.7.7s-.32.689-.7.689c-.39,0-.7-.311-.7-.689ZM87.548,161.577h1.129v5.007h-1.129v-5.007Z"></path>
    <path d="M90.079,159.448l1.129-.19v2.988c.35-.439.909-.709,1.539-.709,1.27,0,2.259,1.129,2.259,2.548,0,1.43-1.02,2.549-2.329,2.549-.59,0-1.109-.239-1.489-.689v.64h-1.109v-7.136ZM93.896,164.085c0-.909-.64-1.599-1.489-1.599-.5,0-.91.2-1.199.56v2.089c.29.35.72.56,1.199.56.859,0,1.489-.689,1.489-1.609Z"></path>
    <path d="M95.449,161.577h1.229l1.399,3.638,1.39-3.638h1.179l-2.059,5.007h-1.099l-2.039-5.007Z"></path>
    <path d="M101.318,159.868c0-.38.31-.7.7-.7.38,0,.7.32.7.7s-.32.689-.7.689c-.39,0-.7-.311-.7-.689ZM101.448,161.577h1.129v5.007h-1.129v-5.007Z"></path>
    <path d="M103.979,161.577h1.129v1.079c.28-.76.759-1.17,1.379-1.17.19.011.32.03.49.101v.989c-.18-.07-.41-.12-.62-.12-.549,0-1,.31-1.249.83v3.298h-1.129v-5.007Z"></path>
    <path d="M108.528,165.285v-2.809h-1v-.899h1v-1.38l1.129-.239v1.619h1.389v.899h-1.389v2.559c0,.489.19.68.7.68.22,0,.379-.03.68-.12v.949c-.29.09-.67.14-.97.14-1.009,0-1.539-.479-1.539-1.398Z"></path>
  </g>
  <g>
    <path d="M74.48,194.341c-.48.26-1.02.4-1.609.4-1.979,0-3.538-1.59-3.538-3.608s1.559-3.608,3.538-3.608,3.538,1.59,3.538,3.608c0,1.029-.41,1.959-1.079,2.608l.779.949-1.089.311-.54-.66ZM73.761,193.442l-.879-1.069,1.089-.31.629.76c.36-.44.58-1.02.58-1.689,0-1.439-1-2.528-2.309-2.528s-2.318,1.089-2.318,2.528,1.009,2.528,2.318,2.528c.32,0,.63-.08.89-.22Z"></path>
    <path d="M77.773,187.635h5.007v1.02h-3.808v1.949h2.658v.999h-2.658v2.009h3.848v1.02h-5.047v-6.996Z"></path>
    <path d="M84.183,187.635h1.559l2.049,4.248,2.039-4.248h1.559v6.996h-1.129v-5.477l-2.479,4.977-2.489-5.007v5.507h-1.109v-6.996Z"></path>
    <path d="M92.933,191.633v-3.998h1.199v3.998c0,1.229.68,2.028,1.739,2.028s1.739-.799,1.739-2.028v-3.998h1.199v3.998c0,1.908-1.139,3.108-2.938,3.108s-2.938-1.2-2.938-3.108Z"></path>
    <path d="M102.761,187.635h1.1l-4.008,9.085h-1.089l3.998-9.085Z"></path>
    <path d="M105.073,187.635h1.2v3.188l3.038-3.188h1.469l-3.338,3.368,3.458,3.628h-1.589l-3.038-3.269v3.269h-1.2v-6.996Z"></path>
    <path d="M111.073,187.635h1.289l2.149,5.776,2.169-5.776h1.239l-2.739,6.996h-1.389l-2.718-6.996Z"></path>
    <path d="M118.822,187.635h1.559l2.049,4.248,2.039-4.248h1.559v6.996h-1.129v-5.477l-2.479,4.977-2.489-5.007v5.507h-1.109v-6.996Z"></path>
  </g>
  <g>
    <path d="M89.974,240.617h1.289l2.149,5.776,2.169-5.776h1.239l-2.739,6.996h-1.389l-2.718-6.996Z"></path>
    <path d="M97.723,240.617h1.559l2.049,4.248,2.039-4.248h1.559v6.996h-1.129v-5.477l-2.479,4.977-2.489-5.007v5.507h-1.109v-6.996Z"></path>
  </g>
  <rect class="uuid-b80784d3-8366-426c-97db-01698f2af259" x="213.74" y="46.168" width="166" height="26.249"></rect>
  <rect class="uuid-b80784d3-8366-426c-97db-01698f2af259" x="213.74" y="89.706" width="166" height="236.856"></rect>
  <rect class="uuid-8a4cee5f-34b5-4796-b364-69c186e3b6f2" x="217.843" y="150.69" width="157.793" height="140.762"></rect>
  <rect class="uuid-0b4e2edf-28f4-42b4-be36-e01870834c79" x="224.24" y="98.147" width="145" height="26.249"></rect>
  <rect class="uuid-0b4e2edf-28f4-42b4-be36-e01870834c79" x="224.24" y="157.485" width="145" height="54.296"></rect>
  <rect class="uuid-0b4e2edf-28f4-42b4-be36-e01870834c79" x="224.24" y="237.636" width="145" height="26.249"></rect>
  <g>
    <path class="uuid-94b43957-c1d4-4881-b4da-1d3bc9dee908" d="M231.396,22.973c0-2.223,1.749-3.972,3.982-3.972s3.983,1.749,3.983,3.972-1.75,3.972-3.983,3.972-3.982-1.749-3.982-3.972ZM237.414,22.973c0-1.31-.88-2.288-2.036-2.288s-2.035.979-2.035,2.288.88,2.288,2.035,2.288,2.036-.979,2.036-2.288Z"></path>
    <path class="uuid-94b43957-c1d4-4881-b4da-1d3bc9dee908" d="M240.547,21.147h1.76v.792c.375-.506,1.001-.825,1.684-.825,1.397,0,2.508,1.287,2.508,2.883s-1.166,2.86-2.641,2.86c-.616,0-1.155-.231-1.529-.66v2.927h-1.783v-7.977ZM244.75,23.985c0-.803-.583-1.396-1.353-1.396-.44,0-.781.153-1.067.462v1.893c.275.285.649.45,1.067.45.781,0,1.353-.594,1.353-1.408Z"></path>
    <path class="uuid-94b43957-c1d4-4881-b4da-1d3bc9dee908" d="M247.378,23.997c0-1.661,1.232-2.938,2.86-2.938,1.64,0,2.794,1.243,2.794,3.003v.386h-3.905c.165.638.682,1.066,1.331,1.066.473,0,.869-.165,1.122-.473l1.177.979c-.737.648-1.43.913-2.387.913-1.672,0-2.993-1.287-2.993-2.938ZM251.383,23.435c-.154-.604-.583-.99-1.155-.99-.561,0-.957.363-1.1.99h2.255Z"></path>
    <path class="uuid-94b43957-c1d4-4881-b4da-1d3bc9dee908" d="M254.143,21.147h1.783v.924c.44-.66,1.056-1.012,1.793-1.012,1.1,0,1.881.803,1.881,1.937v3.828h-1.782v-3.312c0-.638-.374-1.056-.946-1.056-.385,0-.693.153-.946.473v3.895h-1.783v-5.677Z"></path>
    <path class="uuid-94b43957-c1d4-4881-b4da-1d3bc9dee908" d="M260.457,25.779l.968-1.397c1.067.748,1.738,1.023,2.497,1.023.814,0,1.31-.33,1.31-.814,0-.451-.264-.671-1.012-.803l-1.639-.286c-1.221-.209-1.893-.979-1.893-2.068,0-1.496,1.145-2.432,3.059-2.432,1.188,0,2.365.385,3.157,1.013l-.957,1.375c-.748-.572-1.485-.848-2.299-.848-.748,0-1.177.309-1.177.727,0,.396.253.594.869.704l1.541.264c1.441.242,2.2,1.001,2.2,2.179,0,1.507-1.276,2.53-3.29,2.53-1.221,0-2.311-.407-3.333-1.166Z"></path>
    <path class="uuid-94b43957-c1d4-4881-b4da-1d3bc9dee908" d="M268.146,18.991l1.783-.275v3.355c.44-.66,1.056-1.012,1.793-1.012,1.1,0,1.881.803,1.881,1.937v3.828h-1.782v-3.312c0-.638-.374-1.056-.946-1.056-.385,0-.693.153-.946.473v3.895h-1.783v-7.833Z"></path>
    <path class="uuid-94b43957-c1d4-4881-b4da-1d3bc9dee908" d="M274.834,19.277c0-.551.451-1.001,1.001-1.001s1.001.45,1.001,1.001-.451,1.001-1.001,1.001-1.001-.451-1.001-1.001ZM274.944,21.147h1.783v5.677h-1.783v-5.677Z"></path>
    <path class="uuid-94b43957-c1d4-4881-b4da-1d3bc9dee908" d="M278.948,22.522h-1.177v-1.375h1.177v-.748c0-1.354.803-2.091,2.266-2.091.308,0,.715.044.946.11v1.463c-.319-.055-.484-.065-.682-.065-.506,0-.748.198-.748.616v.715h1.43v1.375h-1.43v4.302h-1.782v-4.302Z"></path>
    <path class="uuid-94b43957-c1d4-4881-b4da-1d3bc9dee908" d="M283.92,25.108v-2.586h-1.101v-1.375h1.101v-1.573l1.782-.363v1.937h1.518v1.375h-1.518v2.233c0,.506.198.683.748.683.209,0,.374-.022.726-.121v1.44c-.33.1-.858.177-1.221.177-1.342,0-2.035-.616-2.035-1.826Z"></path>
    <path class="uuid-94b43957-c1d4-4881-b4da-1d3bc9dee908" d="M289.959,21.147h1.936l1.287,3.564,1.298-3.564h1.837l-2.321,5.677h-1.738l-2.299-5.677Z"></path>
    <path class="uuid-94b43957-c1d4-4881-b4da-1d3bc9dee908" d="M296.977,19.277c0-.551.451-1.001,1.001-1.001s1.001.45,1.001,1.001-.451,1.001-1.001,1.001-1.001-.451-1.001-1.001ZM297.087,21.147h1.783v5.677h-1.783v-5.677Z"></path>
    <path class="uuid-94b43957-c1d4-4881-b4da-1d3bc9dee908" d="M300.255,21.147h1.783v1.287c.362-.946.869-1.397,1.54-1.397.253.012.374.033.594.144v1.529c-.22-.11-.528-.177-.836-.177-.528,0-1.013.275-1.298.704v3.587h-1.783v-5.677Z"></path>
    <path class="uuid-94b43957-c1d4-4881-b4da-1d3bc9dee908" d="M305.865,25.108v-2.586h-1.101v-1.375h1.101v-1.573l1.782-.363v1.937h1.519v1.375h-1.519v2.233c0,.506.198.683.748.683.209,0,.374-.022.727-.121v1.44c-.33.1-.858.177-1.222.177-1.342,0-2.035-.616-2.035-1.826Z"></path>
    <path class="uuid-94b43957-c1d4-4881-b4da-1d3bc9dee908" d="M310.11,24.975v-3.828h1.782v3.312c0,.638.374,1.056.946,1.056.386,0,.693-.153.946-.473v-3.895h1.782v5.677h-1.782v-.924c-.439.66-1.056,1.012-1.793,1.012-1.101,0-1.882-.803-1.882-1.937Z"></path>
    <path class="uuid-94b43957-c1d4-4881-b4da-1d3bc9dee908" d="M316.688,25.196c0-1.046.814-1.65,2.212-1.65.406,0,.813.077,1.319.264v-.462c0-.55-.362-.825-1.122-.825-.429,0-.935.121-1.595.396l-.616-1.243c.935-.418,1.771-.616,2.607-.616,1.573,0,2.486.781,2.486,2.134v3.631h-1.761v-.495c-.495.418-.968.583-1.573.583-1.154,0-1.958-.704-1.958-1.716ZM319.197,25.735c.374,0,.715-.1,1.022-.286v-.727c-.33-.077-.648-.121-.979-.121-.583,0-.913.198-.913.562s.318.572.869.572Z"></path>
    <path class="uuid-94b43957-c1d4-4881-b4da-1d3bc9dee908" d="M323.321,18.991l1.783-.275v8.108h-1.783v-7.833Z"></path>
    <path class="uuid-94b43957-c1d4-4881-b4da-1d3bc9dee908" d="M326.38,19.277c0-.551.451-1.001,1.001-1.001s1.001.45,1.001,1.001-.451,1.001-1.001,1.001-1.001-.451-1.001-1.001ZM326.489,21.147h1.783v5.677h-1.783v-5.677Z"></path>
    <path class="uuid-94b43957-c1d4-4881-b4da-1d3bc9dee908" d="M329.36,25.581l2.542-2.959-2.52.021v-1.496h4.709v1.243l-2.553,2.971,2.641-.022v1.485h-4.819v-1.243Z"></path>
    <path class="uuid-94b43957-c1d4-4881-b4da-1d3bc9dee908" d="M335.004,25.196c0-1.046.814-1.65,2.212-1.65.407,0,.813.077,1.32.264v-.462c0-.55-.363-.825-1.122-.825-.43,0-.936.121-1.596.396l-.616-1.243c.936-.418,1.771-.616,2.607-.616,1.573,0,2.486.781,2.486,2.134v3.631h-1.76v-.495c-.495.418-.969.583-1.573.583-1.155,0-1.959-.704-1.959-1.716ZM337.513,25.735c.374,0,.715-.1,1.023-.286v-.727c-.33-.077-.649-.121-.979-.121-.583,0-.913.198-.913.562s.319.572.869.572Z"></path>
    <path class="uuid-94b43957-c1d4-4881-b4da-1d3bc9dee908" d="M342.22,25.108v-2.586h-1.101v-1.375h1.101v-1.573l1.782-.363v1.937h1.518v1.375h-1.518v2.233c0,.506.198.683.748.683.209,0,.374-.022.726-.121v1.44c-.33.1-.857.177-1.221.177-1.342,0-2.035-.616-2.035-1.826Z"></path>
    <path class="uuid-94b43957-c1d4-4881-b4da-1d3bc9dee908" d="M346.399,19.277c0-.551.451-1.001,1.001-1.001s1.001.45,1.001,1.001-.45,1.001-1.001,1.001-1.001-.451-1.001-1.001ZM346.51,21.147h1.782v5.677h-1.782v-5.677Z"></path>
    <path class="uuid-94b43957-c1d4-4881-b4da-1d3bc9dee908" d="M349.425,23.997c0-1.673,1.275-2.938,2.959-2.938s2.96,1.265,2.96,2.938-1.276,2.938-2.96,2.938-2.959-1.266-2.959-2.938ZM353.605,23.997c0-.848-.507-1.452-1.222-1.452s-1.221.604-1.221,1.452.506,1.452,1.221,1.452,1.222-.605,1.222-1.452Z"></path>
    <path class="uuid-94b43957-c1d4-4881-b4da-1d3bc9dee908" d="M356.476,21.147h1.782v.924c.439-.66,1.056-1.012,1.793-1.012,1.101,0,1.881.803,1.881,1.937v3.828h-1.782v-3.312c0-.638-.374-1.056-.945-1.056-.386,0-.693.153-.946.473v3.895h-1.782v-5.677Z"></path>
  </g>
  <g>
    <path d="M226.882,305.469h3.741c1.584,0,2.717,1.023,2.717,2.453,0,.979-.561,1.771-1.43,2.156l1.617,3.092h-2.112l-1.397-2.827h-1.243v2.827h-1.893v-7.701ZM230.447,308.858c.583,0,.979-.363.979-.913s-.396-.913-.979-.913h-1.672v1.826h1.672Z"></path>
    <path d="M234.505,305.469h1.893v2.992h3.113v-2.992h1.892v7.701h-1.892v-3.048h-3.113v3.048h-1.893v-7.701Z"></path>
    <path d="M243.007,305.469h5.82v1.584h-3.927v1.464h2.772v1.54h-2.772v1.529h3.972v1.584h-5.864v-7.701Z"></path>
    <path d="M250.355,305.469h1.893v6.084h3.817v1.617h-5.71v-7.701Z"></path>
    <path d="M259.486,309.32c0-2.244,1.771-3.972,4.059-3.972,1.232,0,2.454.583,3.125,1.496l-1.276,1.21c-.506-.682-1.122-1.022-1.849-1.022-1.198,0-2.101.979-2.101,2.288s.903,2.288,2.101,2.288c.727,0,1.343-.341,1.849-1.022l1.276,1.21c-.671.913-1.893,1.496-3.125,1.496-2.288,0-4.059-1.728-4.059-3.972Z"></path>
    <path d="M267.186,310.343c0-1.673,1.275-2.938,2.959-2.938s2.96,1.265,2.96,2.938-1.276,2.938-2.96,2.938-2.959-1.266-2.959-2.938ZM271.366,310.343c0-.848-.507-1.452-1.222-1.452s-1.221.604-1.221,1.452.506,1.452,1.221,1.452,1.222-.605,1.222-1.452Z"></path>
    <path d="M274.236,307.494h1.782v1.287c.363-.946.869-1.397,1.54-1.397.253.012.374.033.594.144v1.529c-.22-.11-.527-.177-.836-.177-.528,0-1.012.275-1.298.704v3.587h-1.782v-5.677Z"></path>
    <path d="M278.681,310.343c0-1.661,1.231-2.938,2.86-2.938,1.639,0,2.794,1.243,2.794,3.003v.386h-3.905c.165.638.682,1.066,1.331,1.066.473,0,.869-.165,1.122-.473l1.178.979c-.737.648-1.431.913-2.388.913-1.673,0-2.992-1.287-2.992-2.938ZM282.685,309.782c-.153-.604-.583-.99-1.155-.99-.561,0-.957.363-1.1.99h2.255Z"></path>
    <path d="M285.247,309.32c0-2.223,1.749-3.972,3.982-3.972s3.982,1.749,3.982,3.972-1.749,3.972-3.982,3.972-3.982-1.749-3.982-3.972ZM291.265,309.32c0-1.31-.88-2.288-2.035-2.288s-2.035.979-2.035,2.288.88,2.288,2.035,2.288,2.035-.979,2.035-2.288Z"></path>
    <path d="M293.915,312.126l.968-1.397c1.067.748,1.738,1.023,2.498,1.023.813,0,1.309-.33,1.309-.814,0-.451-.264-.671-1.012-.803l-1.64-.286c-1.221-.209-1.892-.979-1.892-2.068,0-1.496,1.144-2.432,3.058-2.432,1.188,0,2.366.385,3.158,1.013l-.957,1.375c-.748-.572-1.485-.848-2.3-.848-.748,0-1.177.309-1.177.727,0,.396.253.594.869.704l1.54.264c1.441.242,2.2,1.001,2.2,2.179,0,1.507-1.276,2.53-3.289,2.53-1.222,0-2.311-.407-3.334-1.166Z"></path>
    <path d="M304.024,305.469h1.893v2.992h3.113v-2.992h1.893v7.701h-1.893v-3.048h-3.113v3.048h-1.893v-7.701Z"></path>
    <path d="M312.109,310.343c0-1.673,1.275-2.938,2.959-2.938s2.96,1.265,2.96,2.938-1.276,2.938-2.96,2.938-2.959-1.266-2.959-2.938ZM316.29,310.343c0-.848-.507-1.452-1.222-1.452s-1.221.604-1.221,1.452.506,1.452,1.221,1.452,1.222-.605,1.222-1.452Z"></path>
    <path d="M318.698,312.587l.78-1.188c.814.43,1.276.572,1.827.572.506,0,.813-.176.813-.462,0-.22-.165-.341-.528-.407l-1.089-.198c-1.1-.209-1.672-.77-1.672-1.65,0-1.154.891-1.848,2.376-1.848.792,0,1.573.22,2.311.648l-.814,1.134c-.572-.33-1.1-.484-1.628-.484-.429,0-.683.144-.683.385,0,.231.144.33.584.407l1.066.198c1.122.209,1.706.781,1.706,1.64,0,1.11-1.046,1.947-2.442,1.947-1.034,0-1.947-.242-2.607-.693Z"></path>
    <path d="M325.419,311.455v-2.586h-1.101v-1.375h1.101v-1.573l1.782-.363v1.937h1.518v1.375h-1.518v2.233c0,.506.198.683.748.683.209,0,.374-.022.726-.121v1.44c-.33.1-.857.177-1.221.177-1.342,0-2.035-.616-2.035-1.826Z"></path>
  </g>
  <g>
    <path d="M225.02,273.848h1.719v3.038l2.609-3.038h2.049l-3.059,3.288,3.238,3.708h-2.249l-2.589-3.179v3.179h-1.719v-6.996Z"></path>
    <path d="M231.81,279.166v-3.479h1.619v3.009c0,.579.34.959.859.959.35,0,.629-.14.859-.43v-3.538h1.619v5.157h-1.619v-.84c-.4.6-.959.92-1.629.92-1,0-1.709-.729-1.709-1.759Z"></path>
    <path d="M238.03,273.728l1.619-.25v2.869c.34-.42.9-.69,1.509-.69,1.27,0,2.279,1.17,2.279,2.619s-1.06,2.599-2.398,2.599c-.56,0-1.06-.24-1.409-.66v.63h-1.599v-7.116ZM241.848,278.266c0-.73-.53-1.27-1.229-1.27-.4,0-.709.14-.97.42v1.719c.25.26.59.41.97.41.709,0,1.229-.54,1.229-1.279Z"></path>
    <path d="M244.24,278.276c0-1.51,1.119-2.669,2.599-2.669,1.489,0,2.539,1.13,2.539,2.729v.35h-3.548c.15.58.62.97,1.209.97.43,0,.79-.149,1.02-.43l1.069.89c-.669.59-1.299.829-2.169.829-1.519,0-2.718-1.169-2.718-2.668ZM247.878,277.766c-.14-.55-.529-.899-1.049-.899-.51,0-.87.329-1,.899h2.049Z"></path>
    <path d="M249.38,273.848h1.859l1.849,5.207,1.879-5.207h1.789l-2.729,6.996h-1.959l-2.688-6.996Z"></path>
    <path d="M257.31,273.988c0-.499.41-.909.909-.909s.91.41.91.909-.41.91-.91.91-.909-.41-.909-.91ZM257.41,275.687h1.619v5.157h-1.619v-5.157Z"></path>
    <path d="M260.29,275.687h1.619v1.169c.33-.859.79-1.269,1.399-1.269.229.01.34.029.54.13v1.389c-.2-.1-.48-.159-.76-.159-.479,0-.92.249-1.18.64v3.258h-1.619v-5.157Z"></path>
    <path d="M265.389,279.285v-2.349h-1v-1.249h1v-1.429l1.619-.33v1.759h1.379v1.249h-1.379v2.029c0,.46.18.619.68.619.189,0,.34-.02.659-.109v1.31c-.3.09-.779.159-1.109.159-1.22,0-1.849-.56-1.849-1.659Z"></path>
    <path d="M271.26,277.346c0-2.039,1.608-3.608,3.688-3.608,1.119,0,2.229.53,2.839,1.359l-1.16,1.1c-.459-.62-1.02-.93-1.679-.93-1.09,0-1.909.89-1.909,2.079s.819,2.079,1.909,2.079c.659,0,1.22-.311,1.679-.93l1.16,1.1c-.61.829-1.72,1.359-2.839,1.359-2.079,0-3.688-1.569-3.688-3.608Z"></path>
    <path d="M278.259,278.276c0-1.52,1.16-2.669,2.688-2.669s2.688,1.149,2.688,2.669-1.159,2.668-2.688,2.668-2.688-1.149-2.688-2.668ZM282.057,278.276c0-.77-.459-1.319-1.109-1.319s-1.109.55-1.109,1.319.46,1.319,1.109,1.319,1.109-.55,1.109-1.319Z"></path>
    <path d="M284.669,275.687h1.619v.84c.399-.6.959-.92,1.629-.92.999,0,1.709.729,1.709,1.759v3.479h-1.619v-3.009c0-.579-.34-.959-.859-.959-.35,0-.63.14-.859.43v3.538h-1.619v-5.157Z"></path>
    <path d="M291.379,279.285v-2.349h-1v-1.249h1v-1.429l1.619-.33v1.759h1.379v1.249h-1.379v2.029c0,.46.18.619.68.619.189,0,.34-.02.659-.109v1.31c-.3.09-.779.159-1.109.159-1.22,0-1.849-.56-1.849-1.659Z"></path>
    <path d="M295.04,279.365c0-.949.739-1.499,2.009-1.499.37,0,.74.07,1.199.24v-.42c0-.5-.329-.75-1.02-.75-.39,0-.849.11-1.449.36l-.56-1.13c.85-.38,1.609-.56,2.369-.56,1.428,0,2.258.71,2.258,1.939v3.298h-1.599v-.45c-.449.38-.879.53-1.429.53-1.05,0-1.779-.64-1.779-1.56ZM297.319,279.855c.34,0,.649-.09.929-.26v-.66c-.3-.069-.589-.109-.889-.109-.53,0-.83.18-.83.51s.29.52.79.52Z"></path>
    <path d="M300.968,273.988c0-.499.41-.909.91-.909s.909.41.909.909-.41.91-.909.91-.91-.41-.91-.91ZM301.068,275.687h1.619v5.157h-1.619v-5.157Z"></path>
    <path d="M303.949,275.687h1.619v.84c.399-.6.959-.92,1.629-.92.999,0,1.709.729,1.709,1.759v3.479h-1.619v-3.009c0-.579-.34-.959-.859-.959-.35,0-.63.14-.859.43v3.538h-1.619v-5.157Z"></path>
    <path d="M309.898,278.276c0-1.51,1.12-2.669,2.599-2.669,1.489,0,2.539,1.13,2.539,2.729v.35h-3.548c.149.58.619.97,1.209.97.43,0,.79-.149,1.02-.43l1.069.89c-.67.59-1.299.829-2.169.829-1.519,0-2.719-1.169-2.719-2.668ZM313.537,277.766c-.141-.55-.53-.899-1.05-.899-.51,0-.869.329-.999.899h2.049Z"></path>
    <path d="M316.049,275.687h1.619v1.169c.329-.859.789-1.269,1.399-1.269.229.01.34.029.539.13v1.389c-.199-.1-.479-.159-.76-.159-.479,0-.919.249-1.179.64v3.258h-1.619v-5.157Z"></path>
  </g>
  <g>
    <path d="M242.426,58.479c0-2.019,1.56-3.608,3.538-3.608s3.538,1.59,3.538,3.608-1.559,3.608-3.538,3.608-3.538-1.59-3.538-3.608ZM248.273,58.479c0-1.439-1-2.528-2.309-2.528s-2.318,1.089-2.318,2.528,1.009,2.528,2.318,2.528,2.309-1.089,2.309-2.528Z"></path>
    <path d="M250.726,56.97h1.109v.709c.36-.47.919-.749,1.559-.749,1.27,0,2.259,1.129,2.259,2.548,0,1.43-1.02,2.549-2.329,2.549-.59,0-1.109-.22-1.469-.64v2.679h-1.129v-7.096ZM254.544,59.478c0-.909-.64-1.599-1.489-1.599-.5,0-.91.2-1.199.56v2.089c.29.35.72.56,1.199.56.859,0,1.489-.689,1.489-1.609Z"></path>
    <path d="M256.606,59.478c0-1.469,1.06-2.588,2.438-2.588,1.37,0,2.369,1.089,2.369,2.588v.271h-3.698c.11.81.72,1.399,1.499,1.399.47,0,.91-.181,1.189-.47l.74.669c-.61.51-1.219.729-1.979.729-1.439,0-2.559-1.129-2.559-2.599ZM260.344,59.048c-.12-.729-.64-1.239-1.309-1.239-.68,0-1.179.49-1.309,1.239h2.618Z"></path>
    <path d="M262.566,56.97h1.129v.819c.38-.59.929-.899,1.579-.899,1.029,0,1.749.729,1.749,1.789v3.298h-1.14v-2.979c0-.729-.43-1.199-1.099-1.199-.46,0-.83.21-1.089.609v3.568h-1.129v-5.007Z"></path>
    <path d="M267.926,60.958l.65-.88c.899.74,1.549,1.02,2.358,1.02.919,0,1.559-.47,1.559-1.119,0-.569-.339-.84-1.269-.999l-1.29-.22c-1.209-.221-1.799-.82-1.799-1.779,0-1.27,1.009-2.109,2.579-2.109,1.049,0,2.009.311,2.809.899l-.61.9c-.7-.53-1.449-.81-2.239-.81-.839,0-1.399.43-1.399.999,0,.51.32.77,1.079.89l1.25.21c1.409.25,2.069.869,2.069,1.929,0,1.289-1.14,2.199-2.809,2.199-1.1,0-2.049-.38-2.938-1.13Z"></path>
    <path d="M274.755,54.811l1.129-.2v3.179c.38-.59.929-.899,1.579-.899,1.029,0,1.749.729,1.749,1.789v3.298h-1.14v-2.979c0-.729-.43-1.199-1.099-1.199-.46,0-.83.21-1.089.609v3.568h-1.129v-7.166Z"></path>
    <path d="M280.436,55.261c0-.38.31-.7.7-.7.38,0,.7.32.7.7s-.32.689-.7.689c-.39,0-.7-.311-.7-.689ZM280.565,56.97h1.129v5.007h-1.129v-5.007Z"></path>
    <path d="M283.775,57.87h-1.08v-.899h1.08v-.86c0-1.089.609-1.679,1.729-1.679.28,0,.56.03.75.09v.96c-.25-.051-.4-.07-.6-.07-.52,0-.75.229-.75.72v.84h1.349v.899h-1.349v4.107h-1.129v-4.107Z"></path>
    <path d="M287.875,60.678v-2.809h-1v-.899h1v-1.38l1.129-.239v1.619h1.389v.899h-1.389v2.559c0,.489.19.68.7.68.22,0,.379-.03.68-.12v.949c-.29.09-.67.14-.97.14-1.009,0-1.539-.479-1.539-1.398Z"></path>
    <path d="M293.455,58.479c0-2.029,1.579-3.608,3.618-3.608,1.069,0,2.089.46,2.729,1.25l-.8.779c-.5-.62-1.189-.949-1.929-.949-1.359,0-2.389,1.089-2.389,2.528s1.029,2.528,2.389,2.528c.739,0,1.429-.329,1.929-.949l.8.779c-.64.79-1.659,1.25-2.729,1.25-2.039,0-3.618-1.579-3.618-3.608Z"></path>
    <path d="M300.495,59.478c0-1.479,1.079-2.588,2.519-2.588,1.429,0,2.509,1.109,2.509,2.588s-1.08,2.589-2.509,2.589c-1.439,0-2.519-1.109-2.519-2.589ZM304.413,59.478c0-.929-.59-1.629-1.399-1.629-.819,0-1.409.7-1.409,1.629,0,.939.59,1.63,1.409,1.63.81,0,1.399-.69,1.399-1.63Z"></path>
    <path d="M306.694,56.97h1.13v.819c.38-.59.929-.899,1.579-.899,1.029,0,1.749.729,1.749,1.789v3.298h-1.14v-2.979c0-.729-.43-1.199-1.1-1.199-.46,0-.829.21-1.089.609v3.568h-1.13v-5.007Z"></path>
    <path d="M312.064,61.397l.53-.749c.659.409,1.099.569,1.608.569.6,0,1.01-.279,1.01-.68,0-.31-.21-.47-.699-.569l-.88-.15c-.979-.18-1.449-.629-1.449-1.379,0-.939.77-1.549,1.938-1.549.7,0,1.33.199,1.97.6l-.53.749c-.51-.329-.999-.479-1.509-.479-.52,0-.859.22-.859.58,0,.319.18.459.699.55l.89.17c.999.18,1.479.64,1.479,1.389,0,.92-.88,1.629-2.049,1.629-.86,0-1.619-.239-2.149-.68Z"></path>
    <path d="M317.124,59.478c0-1.479,1.08-2.588,2.519-2.588,1.43,0,2.509,1.109,2.509,2.588s-1.079,2.589-2.509,2.589c-1.438,0-2.519-1.109-2.519-2.589ZM321.042,59.478c0-.929-.59-1.629-1.399-1.629-.819,0-1.409.7-1.409,1.629,0,.939.59,1.63,1.409,1.63.81,0,1.399-.69,1.399-1.63Z"></path>
    <path d="M323.324,54.811l1.129-.2v7.366h-1.129v-7.166Z"></path>
    <path d="M325.614,59.478c0-1.469,1.06-2.588,2.438-2.588,1.369,0,2.369,1.089,2.369,2.588v.271h-3.698c.109.81.72,1.399,1.499,1.399.47,0,.909-.181,1.189-.47l.739.669c-.609.51-1.219.729-1.979.729-1.439,0-2.559-1.129-2.559-2.599ZM329.352,59.048c-.119-.729-.64-1.239-1.309-1.239-.68,0-1.18.49-1.31,1.239h2.618Z"></path>
    <path d="M334.232,54.981h1.1l-4.008,9.085h-1.089l3.997-9.085Z"></path>
    <path d="M335.814,58.479c0-2.029,1.579-3.608,3.618-3.608,1.069,0,2.089.46,2.729,1.25l-.8.779c-.5-.62-1.189-.949-1.929-.949-1.359,0-2.389,1.089-2.389,2.528s1.029,2.528,2.389,2.528c.739,0,1.429-.329,1.929-.949l.8.779c-.64.79-1.659,1.25-2.729,1.25-2.039,0-3.618-1.579-3.618-3.608Z"></path>
    <path d="M343.374,54.981h1.199v5.957h3.728v1.039h-4.927v-6.996Z"></path>
    <path d="M349.585,54.981h1.199v6.996h-1.199v-6.996Z"></path>
  </g>
  <g>
    <path d="M279.86,106.854l1.129-.189v4.498l2.079-2.129h1.299l-2.309,2.318,2.429,2.688h-1.439l-2.059-2.309v2.309h-1.129v-7.187Z"></path>
    <path d="M285.08,112.332v-3.298h1.139v2.968c0,.74.43,1.21,1.1,1.21.45,0,.83-.2,1.089-.601v-3.577h1.129v5.007h-1.129v-.81c-.38.59-.919.89-1.589.89-1.02,0-1.739-.739-1.739-1.789Z"></path>
    <path d="M290.94,106.905l1.129-.19v2.988c.35-.439.909-.709,1.539-.709,1.27,0,2.259,1.129,2.259,2.548,0,1.43-1.02,2.549-2.329,2.549-.59,0-1.109-.239-1.489-.689v.64h-1.109v-7.136ZM294.758,111.542c0-.909-.64-1.599-1.489-1.599-.5,0-.91.2-1.199.56v2.089c.29.35.72.56,1.199.56.859,0,1.489-.689,1.489-1.609Z"></path>
    <path d="M296.82,111.542c0-1.469,1.06-2.588,2.438-2.588,1.37,0,2.369,1.089,2.369,2.588v.271h-3.698c.11.81.72,1.399,1.499,1.399.47,0,.91-.181,1.189-.47l.74.669c-.61.51-1.22.729-1.979.729-1.438,0-2.558-1.129-2.558-2.599ZM300.558,111.112c-.12-.729-.64-1.239-1.31-1.239-.679,0-1.179.49-1.309,1.239h2.618Z"></path>
    <path d="M302.779,106.875l1.13-.2v7.366h-1.13v-7.166Z"></path>
    <path d="M305.069,111.542c0-1.469,1.06-2.588,2.438-2.588,1.37,0,2.369,1.089,2.369,2.588v.271h-3.698c.11.81.72,1.399,1.499,1.399.47,0,.91-.181,1.189-.47l.74.669c-.61.51-1.22.729-1.979.729-1.438,0-2.559-1.129-2.559-2.599ZM308.808,111.112c-.12-.729-.64-1.239-1.31-1.239-.68,0-1.179.49-1.309,1.239h2.618Z"></path>
    <path d="M311.499,112.742v-2.809h-.999v-.899h.999v-1.38l1.13-.239v1.619h1.389v.899h-1.389v2.559c0,.489.189.68.699.68.22,0,.38-.03.68-.12v.949c-.29.09-.67.14-.97.14-1.009,0-1.539-.479-1.539-1.398Z"></path>
  </g>
  <g>
    <path d="M283.935,166.213l1.129-.2v7.366h-1.129v-7.166Z"></path>
    <path d="M286.315,166.664c0-.38.31-.7.7-.7.38,0,.7.32.7.7s-.32.689-.7.689c-.39,0-.7-.311-.7-.689ZM286.445,168.373h1.129v5.007h-1.129v-5.007Z"></path>
    <path d="M288.975,166.244l1.129-.19v2.988c.35-.439.909-.709,1.539-.709,1.27,0,2.259,1.129,2.259,2.548,0,1.43-1.02,2.549-2.329,2.549-.59,0-1.109-.239-1.489-.689v.64h-1.109v-7.136ZM292.793,170.88c0-.909-.64-1.599-1.489-1.599-.5,0-.91.2-1.199.56v2.089c.29.35.72.56,1.199.56.859,0,1.489-.689,1.489-1.609Z"></path>
    <path d="M294.345,168.373h1.229l1.399,3.638,1.39-3.638h1.179l-2.059,5.007h-1.099l-2.039-5.007Z"></path>
    <path d="M300.215,166.664c0-.38.31-.7.699-.7.38,0,.7.32.7.7s-.32.689-.7.689c-.39,0-.699-.311-.699-.689ZM300.345,168.373h1.129v5.007h-1.129v-5.007Z"></path>
    <path d="M302.875,168.373h1.129v1.079c.28-.76.76-1.17,1.379-1.17.19.011.32.03.49.101v.989c-.18-.07-.41-.12-.62-.12-.549,0-.999.31-1.249.83v3.298h-1.129v-5.007Z"></path>
    <path d="M307.424,172.081v-2.809h-.999v-.899h.999v-1.38l1.13-.239v1.619h1.389v.899h-1.389v2.559c0,.489.189.68.699.68.22,0,.38-.03.68-.12v.949c-.29.09-.67.14-.97.14-1.009,0-1.539-.479-1.539-1.398Z"></path>
  </g>
  <g>
    <path d="M273.377,201.136c-.48.26-1.02.4-1.609.4-1.979,0-3.538-1.59-3.538-3.608s1.559-3.608,3.538-3.608,3.538,1.59,3.538,3.608c0,1.029-.41,1.959-1.079,2.608l.779.949-1.089.311-.54-.66ZM272.657,200.237l-.879-1.069,1.089-.31.629.76c.36-.44.58-1.02.58-1.689,0-1.439-1-2.528-2.309-2.528s-2.318,1.089-2.318,2.528,1.009,2.528,2.318,2.528c.32,0,.63-.08.89-.22Z"></path>
    <path d="M276.669,194.43h5.007v1.02h-3.808v1.949h2.658v.999h-2.658v2.009h3.848v1.02h-5.047v-6.996Z"></path>
    <path d="M283.079,194.43h1.559l2.049,4.248,2.039-4.248h1.559v6.996h-1.129v-5.477l-2.479,4.977-2.489-5.007v5.507h-1.109v-6.996Z"></path>
    <path d="M291.83,198.428v-3.998h1.199v3.998c0,1.229.68,2.028,1.739,2.028s1.739-.799,1.739-2.028v-3.998h1.199v3.998c0,1.908-1.139,3.108-2.938,3.108s-2.938-1.2-2.938-3.108Z"></path>
    <path d="M301.658,194.43h1.1l-4.008,9.085h-1.089l3.998-9.085Z"></path>
    <path d="M303.97,194.43h1.199v3.188l3.038-3.188h1.47l-3.339,3.368,3.459,3.628h-1.59l-3.038-3.269v3.269h-1.199v-6.996Z"></path>
    <path d="M309.97,194.43h1.289l2.149,5.776,2.169-5.776h1.239l-2.739,6.996h-1.389l-2.719-6.996Z"></path>
    <path d="M317.719,194.43h1.56l2.049,4.248,2.039-4.248h1.559v6.996h-1.129v-5.477l-2.479,4.977-2.489-5.007v5.507h-1.109v-6.996Z"></path>
  </g>
  <g>
    <path d="M288.87,246.535h1.289l2.149,5.776,2.169-5.776h1.239l-2.739,6.996h-1.389l-2.718-6.996Z"></path>
    <path d="M296.619,246.535h1.559l2.049,4.248,2.039-4.248h1.559v6.996h-1.129v-5.477l-2.479,4.977-2.489-5.007v5.507h-1.109v-6.996Z"></path>
  </g>
  <g>
    <line class="uuid-14854d4f-36e7-4030-8619-85cf9c6a5332" x1="296.74" y1="129.778" x2="296.74" y2="144.869"></line>
    <polygon points="293 130.872 296.74 124.396 300.48 130.872 293 130.872"></polygon>
    <polygon points="293 143.775 296.74 150.251 300.48 143.775 293 143.775"></polygon>
  </g>
  <g>
    <line class="uuid-14854d4f-36e7-4030-8619-85cf9c6a5332" x1="296.74" y1="77.799" x2="296.74" y2="92.89"></line>
    <polygon points="293 78.893 296.74 72.417 300.48 78.893 293 78.893"></polygon>
    <polygon points="293 91.796 296.74 98.272 300.48 91.796 293 91.796"></polygon>
  </g>
  <g>
    <line class="uuid-14854d4f-36e7-4030-8619-85cf9c6a5332" x1="97.843" y1="77.799" x2="97.843" y2="92.89"></line>
    <polygon points="94.104 78.893 97.843 72.417 101.583 78.893 94.104 78.893"></polygon>
    <polygon points="94.104 91.796 97.843 98.272 101.583 91.796 94.104 91.796"></polygon>
  </g>
  <g>
    <line class="uuid-14854d4f-36e7-4030-8619-85cf9c6a5332" x1="97.843" y1="129.778" x2="97.843" y2="144.869"></line>
    <polygon points="94.104 130.872 97.843 124.396 101.583 130.872 94.104 130.872"></polygon>
    <polygon points="94.104 143.775 97.843 150.251 101.583 143.775 94.104 143.775"></polygon>
  </g>
  <g>
    <line class="uuid-14854d4f-36e7-4030-8619-85cf9c6a5332" x1="97.843" y1="210.806" x2="97.843" y2="225.897"></line>
    <polygon points="94.104 211.9 97.843 205.424 101.583 211.9 94.104 211.9"></polygon>
    <polygon points="94.104 224.803 97.843 231.28 101.583 224.803 94.104 224.803"></polygon>
  </g>
  <g>
    <line class="uuid-14854d4f-36e7-4030-8619-85cf9c6a5332" x1="296.74" y1="217.163" x2="296.74" y2="232.254"></line>
    <polygon points="293 218.257 296.74 211.781 300.48 218.257 293 218.257"></polygon>
    <polygon points="293 231.16 296.74 237.636 300.48 231.16 293 231.16"></polygon>
  </g>
  <rect class="uuid-b80784d3-8366-426c-97db-01698f2af259" x="412.637" y="46.168" width="166" height="26.249"></rect>
  <rect class="uuid-b80784d3-8366-426c-97db-01698f2af259" x="412.637" y="87.689" width="166" height="238.874"></rect>
  <rect class="uuid-0b4e2edf-28f4-42b4-be36-e01870834c79" x="423.137" y="98.147" width="145" height="26.249"></rect>
  <rect class="uuid-0b4e2edf-28f4-42b4-be36-e01870834c79" x="423.137" y="150.69" width="145" height="54.296"></rect>
  <rect class="uuid-0b4e2edf-28f4-42b4-be36-e01870834c79" x="423.137" y="231.718" width="145" height="26.249"></rect>
  <g>
    <path class="uuid-94b43957-c1d4-4881-b4da-1d3bc9dee908" d="M418.379,19.123h3.741c1.584,0,2.717,1.023,2.717,2.453,0,.979-.561,1.771-1.43,2.156l1.617,3.092h-2.112l-1.397-2.827h-1.243v2.827h-1.893v-7.701ZM421.944,22.511c.583,0,.979-.363.979-.913s-.396-.913-.979-.913h-1.673v1.826h1.673Z"></path>
    <path class="uuid-94b43957-c1d4-4881-b4da-1d3bc9dee908" d="M425.419,23.997c0-1.661,1.232-2.938,2.86-2.938,1.64,0,2.795,1.243,2.795,3.003v.386h-3.905c.165.638.682,1.066,1.331,1.066.473,0,.869-.165,1.122-.473l1.177.979c-.737.648-1.43.913-2.387.913-1.673,0-2.993-1.287-2.993-2.938ZM429.424,23.435c-.154-.604-.583-.99-1.155-.99-.561,0-.957.363-1.1.99h2.255Z"></path>
    <path class="uuid-94b43957-c1d4-4881-b4da-1d3bc9dee908" d="M431.986,23.974c0-1.595,1.166-2.86,2.641-2.86.594,0,1.133.242,1.518.683v-2.806l1.782-.275v8.108h-1.76v-.737c-.374.474-1.001.771-1.673.771-1.396,0-2.508-1.287-2.508-2.883ZM436.145,24.931v-1.914c-.274-.286-.648-.44-1.056-.44-.781,0-1.354.595-1.354,1.408,0,.804.583,1.397,1.354,1.397.429,0,.781-.154,1.056-.451Z"></path>
    <path class="uuid-94b43957-c1d4-4881-b4da-1d3bc9dee908" d="M441.731,19.123h1.893v2.992h3.113v-2.992h1.893v7.701h-1.893v-3.048h-3.113v3.048h-1.893v-7.701Z"></path>
    <path class="uuid-94b43957-c1d4-4881-b4da-1d3bc9dee908" d="M449.696,25.196c0-1.046.813-1.65,2.211-1.65.407,0,.814.077,1.32.264v-.462c0-.55-.363-.825-1.122-.825-.43,0-.936.121-1.596.396l-.616-1.243c.936-.418,1.771-.616,2.607-.616,1.573,0,2.486.781,2.486,2.134v3.631h-1.76v-.495c-.495.418-.968.583-1.573.583-1.155,0-1.958-.704-1.958-1.716ZM452.204,25.735c.374,0,.715-.1,1.023-.286v-.727c-.33-.077-.649-.121-.979-.121-.583,0-.913.198-.913.562s.319.572.869.572Z"></path>
    <path class="uuid-94b43957-c1d4-4881-b4da-1d3bc9dee908" d="M456.912,25.108v-2.586h-1.101v-1.375h1.101v-1.573l1.782-.363v1.937h1.518v1.375h-1.518v2.233c0,.506.197.683.748.683.209,0,.374-.022.726-.121v1.44c-.33.1-.858.177-1.221.177-1.343,0-2.035-.616-2.035-1.826Z"></path>
    <path class="uuid-94b43957-c1d4-4881-b4da-1d3bc9dee908" d="M463.369,22.973c0-2.223,1.749-3.972,3.982-3.972s3.982,1.749,3.982,3.972-1.749,3.972-3.982,3.972-3.982-1.749-3.982-3.972ZM469.387,22.973c0-1.31-.88-2.288-2.035-2.288s-2.035.979-2.035,2.288.88,2.288,2.035,2.288,2.035-.979,2.035-2.288Z"></path>
    <path class="uuid-94b43957-c1d4-4881-b4da-1d3bc9dee908" d="M472.521,21.147h1.76v.792c.375-.506,1.002-.825,1.684-.825,1.397,0,2.509,1.287,2.509,2.883s-1.166,2.86-2.641,2.86c-.616,0-1.155-.231-1.529-.66v2.927h-1.782v-7.977ZM476.723,23.985c0-.803-.583-1.396-1.353-1.396-.44,0-.781.153-1.067.462v1.893c.275.285.649.45,1.067.45.781,0,1.353-.594,1.353-1.408Z"></path>
    <path class="uuid-94b43957-c1d4-4881-b4da-1d3bc9dee908" d="M479.352,23.997c0-1.661,1.232-2.938,2.86-2.938,1.64,0,2.794,1.243,2.794,3.003v.386h-3.905c.165.638.683,1.066,1.331,1.066.474,0,.869-.165,1.122-.473l1.178.979c-.737.648-1.431.913-2.388.913-1.672,0-2.992-1.287-2.992-2.938ZM483.356,23.435c-.154-.604-.584-.99-1.155-.99-.562,0-.957.363-1.101.99h2.256Z"></path>
    <path class="uuid-94b43957-c1d4-4881-b4da-1d3bc9dee908" d="M486.116,21.147h1.783v.924c.439-.66,1.056-1.012,1.793-1.012,1.1,0,1.881.803,1.881,1.937v3.828h-1.782v-3.312c0-.638-.374-1.056-.946-1.056-.385,0-.692.153-.945.473v3.895h-1.783v-5.677Z"></path>
    <path class="uuid-94b43957-c1d4-4881-b4da-1d3bc9dee908" d="M492.431,25.779l.968-1.397c1.067.748,1.738,1.023,2.497,1.023.814,0,1.31-.33,1.31-.814,0-.451-.264-.671-1.012-.803l-1.64-.286c-1.221-.209-1.893-.979-1.893-2.068,0-1.496,1.145-2.432,3.059-2.432,1.188,0,2.365.385,3.157,1.013l-.957,1.375c-.748-.572-1.485-.848-2.299-.848-.748,0-1.178.309-1.178.727,0,.396.254.594.869.704l1.541.264c1.44.242,2.2,1.001,2.2,2.179,0,1.507-1.276,2.53-3.29,2.53-1.221,0-2.31-.407-3.333-1.166Z"></path>
    <path class="uuid-94b43957-c1d4-4881-b4da-1d3bc9dee908" d="M500.703,25.108v-2.586h-1.101v-1.375h1.101v-1.573l1.782-.363v1.937h1.518v1.375h-1.518v2.233c0,.506.197.683.748.683.209,0,.374-.022.726-.121v1.44c-.33.1-.858.177-1.221.177-1.343,0-2.035-.616-2.035-1.826Z"></path>
    <path class="uuid-94b43957-c1d4-4881-b4da-1d3bc9dee908" d="M504.729,25.196c0-1.046.814-1.65,2.212-1.65.406,0,.813.077,1.319.264v-.462c0-.55-.362-.825-1.122-.825-.429,0-.935.121-1.595.396l-.616-1.243c.935-.418,1.771-.616,2.607-.616,1.573,0,2.486.781,2.486,2.134v3.631h-1.761v-.495c-.495.418-.968.583-1.573.583-1.154,0-1.958-.704-1.958-1.716ZM507.237,25.735c.374,0,.715-.1,1.022-.286v-.727c-.33-.077-.648-.121-.979-.121-.583,0-.913.198-.913.562s.318.572.869.572Z"></path>
    <path class="uuid-94b43957-c1d4-4881-b4da-1d3bc9dee908" d="M511.108,23.997c0-1.661,1.276-2.938,2.938-2.938.935,0,1.793.374,2.365,1.045l-1.089,1.089c-.363-.429-.727-.616-1.211-.616-.704,0-1.231.605-1.231,1.42s.527,1.419,1.231,1.419c.484,0,.848-.188,1.211-.616l1.089,1.089c-.572.672-1.431,1.046-2.365,1.046-1.661,0-2.938-1.276-2.938-2.938Z"></path>
    <path class="uuid-94b43957-c1d4-4881-b4da-1d3bc9dee908" d="M517.29,18.958l1.782-.275v4.72l1.98-2.255h1.969l-2.31,2.541,2.475,3.136h-2.222l-1.893-2.509v2.509h-1.782v-7.866Z"></path>
    <path class="uuid-94b43957-c1d4-4881-b4da-1d3bc9dee908" d="M526.299,21.147h1.76v.792c.375-.506,1.002-.825,1.684-.825,1.397,0,2.509,1.287,2.509,2.883s-1.166,2.86-2.641,2.86c-.616,0-1.155-.231-1.529-.66v2.927h-1.782v-7.977ZM530.501,23.985c0-.803-.583-1.396-1.353-1.396-.44,0-.781.153-1.067.462v1.893c.275.285.649.45,1.067.45.781,0,1.353-.594,1.353-1.408Z"></path>
    <path class="uuid-94b43957-c1d4-4881-b4da-1d3bc9dee908" d="M533.384,18.991l1.782-.275v8.108h-1.782v-7.833Z"></path>
    <path class="uuid-94b43957-c1d4-4881-b4da-1d3bc9dee908" d="M536.287,25.196c0-1.046.814-1.65,2.212-1.65.407,0,.813.077,1.32.264v-.462c0-.55-.363-.825-1.122-.825-.43,0-.936.121-1.596.396l-.616-1.243c.936-.418,1.771-.616,2.607-.616,1.573,0,2.486.781,2.486,2.134v3.631h-1.76v-.495c-.495.418-.969.583-1.573.583-1.155,0-1.959-.704-1.959-1.716ZM538.796,25.735c.374,0,.715-.1,1.023-.286v-.727c-.33-.077-.649-.121-.979-.121-.583,0-.913.198-.913.562s.319.572.869.572Z"></path>
    <path class="uuid-94b43957-c1d4-4881-b4da-1d3bc9dee908" d="M543.504,25.108v-2.586h-1.101v-1.375h1.101v-1.573l1.782-.363v1.937h1.518v1.375h-1.518v2.233c0,.506.198.683.748.683.209,0,.374-.022.726-.121v1.44c-.33.1-.857.177-1.221.177-1.342,0-2.035-.616-2.035-1.826Z"></path>
    <path class="uuid-94b43957-c1d4-4881-b4da-1d3bc9dee908" d="M548.739,22.522h-1.177v-1.375h1.177v-.748c0-1.354.803-2.091,2.267-2.091.308,0,.715.044.945.11v1.463c-.318-.055-.483-.065-.682-.065-.506,0-.748.198-.748.616v.715h1.43v1.375h-1.43v4.302h-1.782v-4.302Z"></path>
    <path class="uuid-94b43957-c1d4-4881-b4da-1d3bc9dee908" d="M552.49,23.997c0-1.673,1.275-2.938,2.959-2.938s2.96,1.265,2.96,2.938-1.276,2.938-2.96,2.938-2.959-1.266-2.959-2.938ZM556.671,23.997c0-.848-.507-1.452-1.222-1.452s-1.221.604-1.221,1.452.506,1.452,1.221,1.452,1.222-.605,1.222-1.452Z"></path>
    <path class="uuid-94b43957-c1d4-4881-b4da-1d3bc9dee908" d="M559.541,21.147h1.782v1.287c.363-.946.869-1.397,1.54-1.397.253.012.374.033.594.144v1.529c-.22-.11-.527-.177-.836-.177-.528,0-1.012.275-1.298.704v3.587h-1.782v-5.677Z"></path>
    <path class="uuid-94b43957-c1d4-4881-b4da-1d3bc9dee908" d="M564.403,21.147h1.782v.902c.418-.649.99-.99,1.683-.99.737,0,1.32.407,1.596,1.056.44-.682,1.078-1.056,1.859-1.056,1.045,0,1.782.825,1.782,1.991v3.773h-1.782v-3.422c0-.571-.341-.945-.848-.945-.33,0-.594.132-.825.429v3.938h-1.782v-3.422c0-.571-.341-.945-.847-.945-.33,0-.605.143-.836.439v3.928h-1.782v-5.677Z"></path>
  </g>
  <g>
    <path d="M425.416,309.32c0-2.223,1.749-3.972,3.982-3.972s3.982,1.749,3.982,3.972-1.749,3.972-3.982,3.972-3.982-1.749-3.982-3.972ZM431.434,309.32c0-1.31-.88-2.288-2.035-2.288s-2.035.979-2.035,2.288.88,2.288,2.035,2.288,2.035-.979,2.035-2.288Z"></path>
    <path d="M434.084,312.126l.968-1.397c1.067.748,1.738,1.023,2.497,1.023.814,0,1.31-.33,1.31-.814,0-.451-.264-.671-1.012-.803l-1.64-.286c-1.221-.209-1.893-.979-1.893-2.068,0-1.496,1.145-2.432,3.059-2.432,1.188,0,2.365.385,3.157,1.013l-.957,1.375c-.748-.572-1.485-.848-2.299-.848-.748,0-1.178.309-1.178.727,0,.396.254.594.869.704l1.541.264c1.44.242,2.2,1.001,2.2,2.179,0,1.507-1.276,2.53-3.29,2.53-1.221,0-2.311-.407-3.333-1.166Z"></path>
    <path d="M441.938,305.469h3.763c1.639,0,2.717,1.067,2.717,2.541,0,1.397-1.078,2.476-2.717,2.476h-1.87v2.685h-1.893v-7.701ZM445.359,308.979c.77,0,1.144-.418,1.144-.979,0-.55-.374-.968-1.133-.968h-1.54v1.947h1.529Z"></path>
    <path d="M451.75,309.32c0-2.244,1.771-3.972,4.06-3.972,1.231,0,2.453.583,3.124,1.496l-1.276,1.21c-.506-.682-1.122-1.022-1.848-1.022-1.199,0-2.102.979-2.102,2.288s.902,2.288,2.102,2.288c.726,0,1.342-.341,1.848-1.022l1.276,1.21c-.671.913-1.893,1.496-3.124,1.496-2.289,0-4.06-1.728-4.06-3.972Z"></path>
    <path d="M459.449,310.343c0-1.673,1.276-2.938,2.96-2.938s2.959,1.265,2.959,2.938-1.276,2.938-2.959,2.938-2.96-1.266-2.96-2.938ZM463.63,310.343c0-.848-.506-1.452-1.221-1.452s-1.222.604-1.222,1.452.506,1.452,1.222,1.452,1.221-.605,1.221-1.452Z"></path>
    <path d="M466.5,307.494h1.782v.902c.418-.649.99-.99,1.683-.99.737,0,1.32.407,1.596,1.056.44-.682,1.078-1.056,1.859-1.056,1.045,0,1.782.825,1.782,1.991v3.773h-1.782v-3.422c0-.571-.341-.945-.848-.945-.33,0-.594.132-.825.429v3.938h-1.782v-3.422c0-.571-.341-.945-.847-.945-.33,0-.605.143-.836.439v3.928h-1.782v-5.677Z"></path>
    <path d="M476.543,307.494h1.76v.792c.374-.506,1.001-.825,1.684-.825,1.397,0,2.508,1.287,2.508,2.883s-1.166,2.86-2.64,2.86c-.616,0-1.155-.231-1.529-.66v2.927h-1.782v-7.977ZM480.745,310.332c0-.803-.583-1.396-1.353-1.396-.44,0-.781.153-1.067.462v1.893c.274.285.648.45,1.067.45.78,0,1.353-.594,1.353-1.408Z"></path>
    <path d="M483.583,311.322v-3.828h1.782v3.312c0,.638.374,1.056.946,1.056.385,0,.692-.153.945-.473v-3.895h1.782v5.677h-1.782v-.924c-.439.66-1.056,1.012-1.793,1.012-1.1,0-1.881-.803-1.881-1.937Z"></path>
    <path d="M491.173,311.455v-2.586h-1.101v-1.375h1.101v-1.573l1.782-.363v1.937h1.518v1.375h-1.518v2.233c0,.506.198.683.748.683.209,0,.374-.022.726-.121v1.44c-.33.1-.857.177-1.221.177-1.342,0-2.035-.616-2.035-1.826Z"></path>
    <path d="M495.155,310.343c0-1.661,1.231-2.938,2.86-2.938,1.639,0,2.794,1.243,2.794,3.003v.386h-3.905c.165.638.682,1.066,1.331,1.066.473,0,.869-.165,1.122-.473l1.178.979c-.737.648-1.431.913-2.388.913-1.673,0-2.992-1.287-2.992-2.938ZM499.159,309.782c-.153-.604-.583-.99-1.155-.99-.561,0-.957.363-1.1.99h2.255Z"></path>
  </g>
  <g>
    <path d="M440.303,58.479c0-2.019,1.559-3.608,3.538-3.608s3.538,1.59,3.538,3.608-1.56,3.608-3.538,3.608-3.538-1.59-3.538-3.608ZM446.149,58.479c0-1.439-.999-2.528-2.309-2.528s-2.318,1.089-2.318,2.528,1.009,2.528,2.318,2.528,2.309-1.089,2.309-2.528Z"></path>
    <path d="M448.603,56.97h1.109v.709c.36-.47.92-.749,1.56-.749,1.269,0,2.259,1.129,2.259,2.548,0,1.43-1.02,2.549-2.329,2.549-.59,0-1.109-.22-1.469-.64v2.679h-1.13v-7.096ZM452.421,59.478c0-.909-.64-1.599-1.489-1.599-.5,0-.91.2-1.199.56v2.089c.289.35.72.56,1.199.56.859,0,1.489-.689,1.489-1.609Z"></path>
    <path d="M454.482,59.478c0-1.469,1.06-2.588,2.438-2.588,1.37,0,2.369,1.089,2.369,2.588v.271h-3.698c.11.81.72,1.399,1.499,1.399.47,0,.91-.181,1.189-.47l.74.669c-.61.51-1.22.729-1.979.729-1.438,0-2.559-1.129-2.559-2.599ZM458.221,59.048c-.12-.729-.64-1.239-1.31-1.239-.68,0-1.179.49-1.309,1.239h2.618Z"></path>
    <path d="M460.442,56.97h1.13v.819c.38-.59.929-.899,1.579-.899,1.029,0,1.749.729,1.749,1.789v3.298h-1.14v-2.979c0-.729-.43-1.199-1.1-1.199-.46,0-.829.21-1.089.609v3.568h-1.13v-5.007Z"></path>
    <path d="M465.803,60.958l.649-.88c.899.74,1.549,1.02,2.358,1.02.92,0,1.56-.47,1.56-1.119,0-.569-.34-.84-1.27-.999l-1.289-.22c-1.209-.221-1.799-.82-1.799-1.779,0-1.27,1.009-2.109,2.578-2.109,1.05,0,2.009.311,2.809.899l-.609.9c-.7-.53-1.449-.81-2.239-.81-.839,0-1.398.43-1.398.999,0,.51.319.77,1.079.89l1.249.21c1.409.25,2.069.869,2.069,1.929,0,1.289-1.14,2.199-2.809,2.199-1.1,0-2.049-.38-2.938-1.13Z"></path>
    <path d="M473.102,60.678v-2.809h-.999v-.899h.999v-1.38l1.13-.239v1.619h1.389v.899h-1.389v2.559c0,.489.189.68.699.68.22,0,.38-.03.68-.12v.949c-.29.09-.67.14-.97.14-1.009,0-1.539-.479-1.539-1.398Z"></path>
    <path d="M476.362,60.538c0-.899.739-1.469,1.919-1.469.47,0,.909.1,1.35.319v-.56c0-.659-.38-.999-1.149-.999-.42,0-.88.12-1.459.39l-.4-.819c.75-.34,1.409-.51,2.079-.51,1.31,0,2.049.659,2.049,1.818v3.269h-1.119v-.52c-.43.42-.91.609-1.489.609-1.05,0-1.779-.63-1.779-1.529ZM478.451,61.267c.45,0,.84-.13,1.18-.419v-.81c-.36-.17-.72-.24-1.149-.24-.649,0-1.06.27-1.06.72,0,.46.399.749,1.029.749Z"></path>
    <path d="M481.892,59.478c0-1.449,1.1-2.588,2.529-2.588.779,0,1.499.31,1.998.85l-.699.729c-.35-.39-.779-.59-1.26-.59-.809,0-1.438.699-1.438,1.599,0,.91.63,1.6,1.438,1.6.48,0,.91-.2,1.26-.58l.699.72c-.499.54-1.219.85-1.998.85-1.43,0-2.529-1.129-2.529-2.589Z"></path>
    <path d="M487.352,54.791l1.13-.189v4.498l2.078-2.129h1.3l-2.309,2.318,2.429,2.688h-1.439l-2.059-2.309v2.309h-1.13v-7.187Z"></path>
    <path d="M495.102,54.981h1.199v2.938h3.479v-2.938h1.199v6.996h-1.199v-2.988h-3.479v2.988h-1.199v-6.996Z"></path>
    <path d="M502.241,59.478c0-1.479,1.08-2.588,2.519-2.588,1.43,0,2.509,1.109,2.509,2.588s-1.079,2.589-2.509,2.589c-1.438,0-2.519-1.109-2.519-2.589ZM506.159,59.478c0-.929-.59-1.629-1.399-1.629-.819,0-1.409.7-1.409,1.629,0,.939.59,1.63,1.409,1.63.81,0,1.399-.69,1.399-1.63Z"></path>
    <path d="M508.441,56.97h1.13v1.079c.279-.76.759-1.17,1.379-1.17.189.011.319.03.489.101v.989c-.18-.07-.409-.12-.619-.12-.55,0-1,.31-1.249.83v3.298h-1.13v-5.007Z"></path>
    <path d="M512.231,55.261c0-.38.31-.7.699-.7.38,0,.7.32.7.7s-.32.689-.7.689c-.39,0-.699-.311-.699-.689ZM512.361,56.97h1.129v5.007h-1.129v-5.007Z"></path>
    <path d="M514.581,61.148l2.579-3.209-2.559.021v-.989h3.947v.829l-2.588,3.218,2.648-.01v.97h-4.028v-.829Z"></path>
    <path d="M519.331,59.478c0-1.479,1.08-2.588,2.519-2.588,1.43,0,2.509,1.109,2.509,2.588s-1.079,2.589-2.509,2.589c-1.438,0-2.519-1.109-2.519-2.589ZM523.249,59.478c0-.929-.59-1.629-1.399-1.629-.819,0-1.409.7-1.409,1.629,0,.939.59,1.63,1.409,1.63.81,0,1.399-.69,1.399-1.63Z"></path>
    <path d="M525.531,56.97h1.129v.819c.38-.59.93-.899,1.579-.899,1.029,0,1.749.729,1.749,1.789v3.298h-1.14v-2.979c0-.729-.43-1.199-1.099-1.199-.46,0-.83.21-1.09.609v3.568h-1.129v-5.007Z"></path>
    <path d="M534.149,54.981h1.099l-4.007,9.085h-1.09l3.998-9.085Z"></path>
    <path d="M535.73,58.479c0-2.029,1.579-3.608,3.618-3.608,1.069,0,2.089.46,2.729,1.25l-.8.779c-.5-.62-1.189-.949-1.929-.949-1.359,0-2.389,1.089-2.389,2.528s1.029,2.528,2.389,2.528c.739,0,1.429-.329,1.929-.949l.8.779c-.64.79-1.659,1.25-2.729,1.25-2.039,0-3.618-1.579-3.618-3.608Z"></path>
    <path d="M543.291,54.981h1.199v5.957h3.728v1.039h-4.927v-6.996Z"></path>
    <path d="M549.501,54.981h1.199v6.996h-1.199v-6.996Z"></path>
  </g>
  <g>
    <path d="M462.007,109.034h1.13v.819c.38-.59.929-.899,1.579-.899,1.029,0,1.749.729,1.749,1.789v3.298h-1.14v-2.979c0-.729-.43-1.199-1.1-1.199-.46,0-.829.21-1.089.609v3.568h-1.13v-5.007Z"></path>
    <path d="M467.597,111.542c0-1.479,1.08-2.588,2.519-2.588,1.43,0,2.509,1.109,2.509,2.588s-1.079,2.589-2.509,2.589c-1.438,0-2.519-1.109-2.519-2.589ZM471.515,111.542c0-.929-.59-1.629-1.399-1.629-.819,0-1.409.7-1.409,1.629,0,.939.59,1.63,1.409,1.63.81,0,1.399-.69,1.399-1.63Z"></path>
    <path d="M473.057,109.034h1.229l1.399,3.638,1.39-3.638h1.179l-2.059,5.007h-1.1l-2.039-5.007Z"></path>
    <path d="M478.657,112.601c0-.899.739-1.469,1.919-1.469.47,0,.909.1,1.349.319v-.56c0-.659-.38-.999-1.149-.999-.42,0-.879.12-1.459.39l-.399-.819c.749-.34,1.409-.51,2.078-.51,1.31,0,2.049.659,2.049,1.818v3.269h-1.119v-.52c-.43.42-.909.609-1.489.609-1.049,0-1.778-.63-1.778-1.529ZM480.746,113.331c.449,0,.839-.13,1.179-.419v-.81c-.359-.17-.72-.24-1.149-.24-.649,0-1.06.27-1.06.72,0,.46.4.749,1.03.749Z"></path>
    <path d="M484.276,110.722h3.488v.96h-3.488v-.96Z"></path>
    <path d="M488.906,111.542c0-1.449,1.1-2.588,2.529-2.588.779,0,1.499.31,1.998.85l-.699.729c-.35-.39-.779-.59-1.26-.59-.809,0-1.438.699-1.438,1.599,0,.91.63,1.6,1.438,1.6.48,0,.91-.2,1.26-.58l.699.72c-.499.54-1.219.85-1.998.85-1.43,0-2.529-1.129-2.529-2.589Z"></path>
    <path d="M493.986,111.542c0-1.479,1.08-2.588,2.519-2.588,1.43,0,2.509,1.109,2.509,2.588s-1.079,2.589-2.509,2.589c-1.438,0-2.519-1.109-2.519-2.589ZM497.904,111.542c0-.929-.59-1.629-1.399-1.629-.819,0-1.409.7-1.409,1.629,0,.939.59,1.63,1.409,1.63.81,0,1.399-.69,1.399-1.63Z"></path>
    <path d="M500.187,109.034h1.129v.789c.37-.569.87-.869,1.479-.869.689,0,1.219.369,1.479.959.39-.63.949-.959,1.658-.959.97,0,1.64.749,1.64,1.809v3.278h-1.13v-3.028c0-.699-.39-1.149-1.009-1.149-.41,0-.75.189-1,.6.01.1.021.2.021.3v3.278h-1.14v-3.028c0-.699-.39-1.149-1.01-1.149-.409,0-.739.189-.989.58v3.598h-1.129v-5.007Z"></path>
    <path d="M508.946,109.034h1.109v.709c.359-.47.919-.749,1.559-.749,1.27,0,2.259,1.129,2.259,2.548,0,1.43-1.02,2.549-2.328,2.549-.59,0-1.109-.22-1.47-.64v2.679h-1.129v-7.096ZM512.764,111.542c0-.909-.64-1.599-1.489-1.599-.499,0-.909.2-1.199.56v2.089c.29.35.72.56,1.199.56.859,0,1.489-.689,1.489-1.609Z"></path>
    <path d="M515.016,112.332v-3.298h1.14v2.968c0,.74.43,1.21,1.1,1.21.449,0,.829-.2,1.089-.601v-3.577h1.13v5.007h-1.13v-.81c-.38.59-.919.89-1.589.89-1.02,0-1.739-.739-1.739-1.789Z"></path>
    <path d="M521.495,112.742v-2.809h-.999v-.899h.999v-1.38l1.13-.239v1.619h1.389v.899h-1.389v2.559c0,.489.189.68.699.68.22,0,.38-.03.68-.12v.949c-.29.09-.67.14-.97.14-1.009,0-1.539-.479-1.539-1.398Z"></path>
    <path d="M524.706,111.542c0-1.469,1.06-2.588,2.438-2.588,1.369,0,2.368,1.089,2.368,2.588v.271h-3.697c.109.81.72,1.399,1.499,1.399.47,0,.909-.181,1.189-.47l.739.669c-.609.51-1.219.729-1.979.729-1.439,0-2.559-1.129-2.559-2.599ZM528.443,111.112c-.119-.729-.64-1.239-1.309-1.239-.68,0-1.18.49-1.31,1.239h2.618Z"></path>
  </g>
  <g>
    <path d="M482.832,159.418l1.129-.2v7.366h-1.129v-7.166Z"></path>
    <path d="M485.212,159.868c0-.38.31-.7.699-.7.38,0,.7.32.7.7s-.32.689-.7.689c-.39,0-.699-.311-.699-.689ZM485.342,161.577h1.129v5.007h-1.129v-5.007Z"></path>
    <path d="M487.872,159.448l1.129-.19v2.988c.35-.439.909-.709,1.539-.709,1.27,0,2.259,1.129,2.259,2.548,0,1.43-1.02,2.549-2.328,2.549-.59,0-1.109-.239-1.489-.689v.64h-1.109v-7.136ZM491.689,164.085c0-.909-.64-1.599-1.489-1.599-.499,0-.909.2-1.199.56v2.089c.29.35.72.56,1.199.56.859,0,1.489-.689,1.489-1.609Z"></path>
    <path d="M493.242,161.577h1.229l1.398,3.638,1.39-3.638h1.18l-2.06,5.007h-1.099l-2.039-5.007Z"></path>
    <path d="M499.111,159.868c0-.38.311-.7.7-.7.38,0,.699.32.699.7s-.319.689-.699.689c-.39,0-.7-.311-.7-.689ZM499.241,161.577h1.13v5.007h-1.13v-5.007Z"></path>
    <path d="M501.771,161.577h1.13v1.079c.279-.76.759-1.17,1.379-1.17.189.011.319.03.489.101v.989c-.18-.07-.409-.12-.619-.12-.55,0-1,.31-1.249.83v3.298h-1.13v-5.007Z"></path>
    <path d="M506.321,165.285v-2.809h-1v-.899h1v-1.38l1.129-.239v1.619h1.39v.899h-1.39v2.559c0,.489.19.68.7.68.22,0,.379-.03.68-.12v.949c-.29.09-.67.14-.97.14-1.01,0-1.539-.479-1.539-1.398Z"></path>
  </g>
  <g>
    <path d="M472.273,194.341c-.479.26-1.02.4-1.609.4-1.979,0-3.538-1.59-3.538-3.608s1.56-3.608,3.538-3.608,3.538,1.59,3.538,3.608c0,1.029-.409,1.959-1.079,2.608l.779.949-1.089.311-.54-.66ZM471.554,193.442l-.879-1.069,1.089-.31.63.76c.359-.44.58-1.02.58-1.689,0-1.439-1-2.528-2.31-2.528s-2.318,1.089-2.318,2.528,1.01,2.528,2.318,2.528c.32,0,.63-.08.89-.22Z"></path>
    <path d="M475.566,187.635h5.007v1.02h-3.808v1.949h2.658v.999h-2.658v2.009h3.848v1.02h-5.047v-6.996Z"></path>
    <path d="M481.976,187.635h1.56l2.049,4.248,2.039-4.248h1.559v6.996h-1.129v-5.477l-2.479,4.977-2.489-5.007v5.507h-1.109v-6.996Z"></path>
    <path d="M490.727,191.633v-3.998h1.199v3.998c0,1.229.68,2.028,1.739,2.028s1.738-.799,1.738-2.028v-3.998h1.199v3.998c0,1.908-1.139,3.108-2.938,3.108s-2.938-1.2-2.938-3.108Z"></path>
    <path d="M500.555,187.635h1.1l-4.008,9.085h-1.09l3.998-9.085Z"></path>
    <path d="M502.866,187.635h1.199v3.188l3.038-3.188h1.47l-3.339,3.368,3.459,3.628h-1.59l-3.038-3.269v3.269h-1.199v-6.996Z"></path>
    <path d="M508.866,187.635h1.289l2.149,5.776,2.169-5.776h1.239l-2.739,6.996h-1.389l-2.719-6.996Z"></path>
    <path d="M516.615,187.635h1.56l2.049,4.248,2.039-4.248h1.559v6.996h-1.129v-5.477l-2.479,4.977-2.489-5.007v5.507h-1.109v-6.996Z"></path>
  </g>
  <g>
    <path d="M487.767,240.617h1.289l2.149,5.776,2.169-5.776h1.239l-2.739,6.996h-1.389l-2.719-6.996Z"></path>
    <path d="M495.516,240.617h1.56l2.049,4.248,2.039-4.248h1.559v6.996h-1.129v-5.477l-2.479,4.977-2.489-5.007v5.507h-1.109v-6.996Z"></path>
  </g>
  <polygon class="uuid-5750e8a9-fe8d-489d-8472-f39e0c3d7ec7" points="192.289 159.429 192.289 247.76 202.294 203.13 192.289 159.429"></polygon>
  <polygon class="uuid-5750e8a9-fe8d-489d-8472-f39e0c3d7ec7" points="401.191 159.429 401.191 247.76 391.186 203.13 401.191 159.429"></polygon>
  <line class="uuid-dcd5861e-b01c-4446-9494-586ff2e88420" x1="25.343" y1="177.838" x2="170.343" y2="177.838"></line>
  <line class="uuid-dcd5861e-b01c-4446-9494-586ff2e88420" x1="224.24" y1="184.633" x2="369.24" y2="184.633"></line>
  <line class="uuid-dcd5861e-b01c-4446-9494-586ff2e88420" x1="423.137" y1="177.838" x2="568.137" y2="177.838"></line>
  <g>
    <line class="uuid-14854d4f-36e7-4030-8619-85cf9c6a5332" x1="495.637" y1="77.799" x2="495.637" y2="92.89"></line>
    <polygon points="491.897 78.893 495.637 72.417 499.376 78.893 491.897 78.893"></polygon>
    <polygon points="491.897 91.796 495.637 98.272 499.376 91.796 491.897 91.796"></polygon>
  </g>
  <g>
    <line class="uuid-14854d4f-36e7-4030-8619-85cf9c6a5332" x1="495.637" y1="129.778" x2="495.637" y2="144.869"></line>
    <polygon points="491.897 130.872 495.637 124.396 499.376 130.872 491.897 130.872"></polygon>
    <polygon points="491.897 143.775 495.637 150.251 499.376 143.775 491.897 143.775"></polygon>
  </g>
  <g>
    <line class="uuid-14854d4f-36e7-4030-8619-85cf9c6a5332" x1="495.637" y1="210.806" x2="495.637" y2="225.897"></line>
    <polygon points="491.897 211.9 495.637 205.424 499.376 211.9 491.897 211.9"></polygon>
    <polygon points="491.897 224.803 495.637 231.28 499.376 224.803 491.897 224.803"></polygon>
  </g>
  <polyline class="uuid-0faa0b82-0d4c-482d-b0d6-d14216d7537c" points="14.843 39.439 14.843 33.349 180.442 33.349 180.442 39.439"></polyline>
  <polyline class="uuid-0faa0b82-0d4c-482d-b0d6-d14216d7537c" points="213.941 39.439 213.941 33.349 379.539 33.349 379.539 39.439"></polyline>
  <polyline class="uuid-0faa0b82-0d4c-482d-b0d6-d14216d7537c" points="412.837 39.439 412.837 33.349 578.436 33.349 578.436 39.439"></polyline>
</svg>