<svg xmlns="http://www.w3.org/2000/svg" version="1.1" viewBox="0 0 841.89 393.297" height="138.747mm" width="297mm" data-name="Layer 1" id="Layer_1">
  <metadata id="metadata651">
    
      
        image/svg+xml
        
        
        
          
            prep
            install
            OCP
            OpenShift
            process
            install
          
        
      
    
  </metadata>
  
  <defs id="defs12">
    <style id="style10">
      .cls-1 {
        fill: #f0f0f0;
      }

      .cls-2 {
        fill: #fff;
      }

      .cls-3 {
        fill: #a1c2e7;
      }

      .cls-4 {
        fill: none;
        stroke: #06c;
        stroke-miterlimit: 10;
      }

      .cls-5 {
        fill: #06c;
      }

      .cls-6 {
        fill: #dbe8f5;
      }
    </style>
  </defs>
  <rect id="rect14" height="325.407" width="122.807" y="21.051" x="24.64" class="cls-1"></rect>
  <rect id="rect16" height="325.407" width="258.316" y="21.051" x="557.685" class="cls-1"></rect>
  <rect id="rect18" height="325.407" width="389.885" y="21.051" x="157.768" class="cls-1"></rect>
  <g id="g24">
    <rect id="rect20" height="43.737" width="101.632" y="62.893" x="35.228" class="cls-2"></rect>
    <path id="path22" d="M136.36,63.393v42.736H35.728V63.393H136.36m1-1H34.728v44.736H137.36V62.393Z" class="cls-3"></path>
  </g>
  <g id="g30">
    <rect id="rect26" height="43.737" width="101.632" y="138.524" x="35.228" class="cls-2"></rect>
    <path id="path28" d="M136.36,139.024v42.737H35.728V139.024H136.36m1-1H34.728v44.737H137.36V138.024Z" class="cls-3"></path>
  </g>
  <g id="g36">
    <rect id="rect32" height="12.345" width="18.339" y="364.581" x="25.141" class="cls-2"></rect>
    <path id="path34" d="M42.979,365.081v11.345H25.64V365.081H42.979m1-1H24.64v13.345H43.979V364.081Z" class="cls-3"></path>
  </g>
  <g id="g42">
    <line id="line38" y2="160.393" x2="162.68" y1="160.393" x1="137.36" class="cls-4"></line>
    <polygon id="polygon40" points="161.585 164.132 168.062 160.393 161.585 156.653 161.585 164.132" class="cls-5"></polygon>
  </g>
  <g id="g48">
    <line id="line44" y2="107.129" x2="86.044" y1="132.449" x1="86.044" class="cls-4"></line>
    <polygon id="polygon46" points="89.783 131.355 86.044 137.831 82.305 131.355 89.783 131.355" class="cls-5"></polygon>
  </g>
  <g id="g54">
    <line id="line50" y2="182.761" x2="486.044" y1="208.081" x1="486.044" class="cls-4"></line>
    <polygon id="polygon52" points="489.784 206.987 486.045 213.463 482.305 206.987 489.784 206.987" class="cls-5"></polygon>
  </g>
  <g id="g88">
    <path id="path56" d="M36.519,37.669h3.418a2.286,2.286,0,1,1,0,4.558h-1.7v2.438H36.519Zm1.718,1.419v1.77h1.389c.7,0,1.04-.38,1.04-.89s-.34-.88-1.029-.88Z"></path>
    <path id="path58" d="M43.619,37.669h3.4A2.271,2.271,0,0,1,49.485,39.9a2.105,2.105,0,0,1-1.3,1.959l1.469,2.808H47.736L46.467,42.1h-1.13v2.568H43.619Zm1.718,1.419v1.659h1.519a.832.832,0,1,0,0-1.659Z"></path>
    <path id="path60" d="M50.648,37.669h5.288v1.44H52.367v1.329h2.519v1.4H52.367v1.389h3.608v1.439H50.648Z"></path>
    <path id="path62" d="M60.586,41.127v1.35H56.908v-1.35Z"></path>
    <path id="path64" d="M61.778,37.669H63.5v7H61.778Z"></path>
    <path id="path66" d="M66.577,37.669l3.108,4.237-.03-4.237h1.619v7H69.755l-3.208-4.378.03,4.378H64.958v-7Z"></path>
    <path id="path68" d="M73.128,42.437a3.844,3.844,0,0,0,2.269.929c.739,0,1.189-.3,1.189-.73,0-.409-.24-.6-.919-.73l-1.49-.259a1.855,1.855,0,0,1-1.719-1.869c0-1.359,1.04-2.208,2.779-2.208a4.753,4.753,0,0,1,2.868.918l-.869,1.25a3.338,3.338,0,0,0-2.089-.77c-.68,0-1.069.28-1.069.66,0,.35.229.54.789.63l1.4.239c1.31.231,2,.91,2,1.98,0,1.359-1.159,2.288-2.988,2.288a4.951,4.951,0,0,1-3.028-1.06Z"></path>
    <path id="path70" d="M78.668,37.669H84.9v1.469H82.646v5.527H80.927V39.138H78.668Z"></path>
    <path id="path72" d="M86.657,37.669h1.959l2.688,7H89.445L88.865,43H86.307l-.59,1.669H83.928Zm1.749,4-.81-2.319-.819,2.319Z"></path>
    <path id="path74" d="M92.108,37.669h1.719V43.2H97.3v1.469H92.108Z"></path>
    <path id="path76" d="M98.588,37.669h1.719V43.2h3.468v1.469H98.588Z"></path>
    <path id="path78" d="M107.137,37.669H109.1l2.688,7h-1.859L109.346,43h-2.559l-.59,1.669h-1.789Zm1.749,4-.81-2.319-.819,2.319Z"></path>
    <path id="path80" d="M110.818,37.669h6.226v1.469H114.8v5.527h-1.718V39.138h-2.259Z"></path>
    <path id="path82" d="M117.938,37.669h1.718v7h-1.718Z"></path>
    <path id="path84" d="M124.406,44.776a3.609,3.609,0,1,1,3.608-3.609A3.578,3.578,0,0,1,124.406,44.776Zm-.01-5.688a2.095,2.095,0,1,0,1.839,2.079A1.923,1.923,0,0,0,124.4,39.088Z"></path>
    <path id="path86" d="M130.866,37.669l3.109,4.237-.03-4.237h1.619v7h-1.519l-3.209-4.378.03,4.378h-1.618v-7Z"></path>
  </g>
  <g id="g140">
    <path id="path90" d="M52.579,74.289h2.559a3.5,3.5,0,1,1,0,7H52.579Zm1.2,1.039v4.918h1.389a2.47,2.47,0,0,0,0-4.918Z"></path>
    <path id="path92" d="M62.148,76.2a2.595,2.595,0,1,1-2.519,2.588A2.5,2.5,0,0,1,62.148,76.2Zm1.4,2.6a1.415,1.415,0,1,0-2.8,0,1.413,1.413,0,1,0,2.8,0Z"></path>
    <path id="path94" d="M66.619,81.285,65.27,76.279h1.079l.88,3.538,1.029-3.538h.959l1.03,3.547.869-3.547h1.06l-1.35,5.006H69.737l-1.009-3.528-1.01,3.528Z"></path>
    <path id="path96" d="M73.109,76.279h1.13V77.1a1.817,1.817,0,0,1,1.589-.9,1.686,1.686,0,0,1,1.729,1.79v3.3h-1.13V78.307a1.077,1.077,0,0,0-1.1-1.2,1.283,1.283,0,0,0-1.089.6v3.578h-1.13Z"></path>
    <path id="path98" d="M80.059,81.285h-1.13V74.139l1.13-.19Z"></path>
    <path id="path100" d="M83.738,76.2a2.595,2.595,0,1,1-2.519,2.588A2.5,2.5,0,0,1,83.738,76.2Zm1.4,2.6a1.415,1.415,0,1,0-2.8,0,1.413,1.413,0,1,0,2.8,0Z"></path>
    <path id="path102" d="M87.229,79.846c0-.9.729-1.469,1.909-1.469a3.089,3.089,0,0,1,1.349.31v-.55c0-.659-.38-1-1.149-1a3.459,3.459,0,0,0-1.459.39l-.4-.82a4.806,4.806,0,0,1,2.079-.51c1.3,0,2.048.66,2.048,1.819v3.268H90.487v-.509A2.087,2.087,0,0,1,89,81.365,1.579,1.579,0,0,1,87.229,79.846Zm2.079.729a1.783,1.783,0,0,0,1.179-.409v-.819a2.588,2.588,0,0,0-1.159-.24c-.64,0-1.039.279-1.039.719C88.289,80.286,88.688,80.575,89.308,80.575Z"></path>
    <path id="path104" d="M96.557,80.615a1.924,1.924,0,0,1-1.539.72,2.562,2.562,0,0,1,.07-5.1,1.911,1.911,0,0,1,1.459.66V74.139l1.129-.19v7.336H96.557Zm-1.2-.229a1.5,1.5,0,0,0,1.19-.55V77.728a1.554,1.554,0,0,0-1.19-.54,1.6,1.6,0,0,0,0,3.2Z"></path>
    <path id="path106" d="M102.008,76.279v-.89a1.538,1.538,0,0,1,1.729-1.68,2.684,2.684,0,0,1,.75.1v.959a2.309,2.309,0,0,0-.6-.08c-.52,0-.749.23-.749.719v.871h1.349v.9h-1.349v4.107h-1.13V77.178h-1.079v-.9Z"></path>
    <path id="path108" d="M105.3,74.57a.705.705,0,0,1,1.41,0,.705.705,0,0,1-1.41,0Zm1.27,6.715h-1.13V76.279h1.13Z"></path>
    <path id="path110" d="M109.088,81.285h-1.13V74.139l1.13-.19Z"></path>
    <path id="path112" d="M112.8,81.385a2.545,2.545,0,0,1-2.548-2.6,2.466,2.466,0,0,1,2.438-2.588,2.4,2.4,0,0,1,2.369,2.579v.28h-3.7a1.529,1.529,0,0,0,1.5,1.369,1.624,1.624,0,0,0,1.189-.47l.74.69A2.9,2.9,0,0,1,112.8,81.385Zm-1.419-3.018h2.608a1.371,1.371,0,0,0-1.309-1.25A1.346,1.346,0,0,0,111.378,78.367Z"></path>
    <path id="path114" d="M116.338,79.946a2.887,2.887,0,0,0,1.609.57c.6,0,1.01-.27,1.01-.67,0-.31-.21-.48-.69-.569l-.89-.151c-.969-.18-1.449-.629-1.449-1.379,0-.939.77-1.549,1.939-1.549a3.52,3.52,0,0,1,1.969.6l-.529.739a2.737,2.737,0,0,0-1.51-.479c-.519,0-.859.22-.859.59,0,.319.18.459.709.549l.88.16c1,.19,1.479.65,1.479,1.4a1.835,1.835,0,0,1-2.039,1.629,3.35,3.35,0,0,1-2.158-.68Z"></path>
    <path id="path116" d="M52.544,91.846c0-.9.73-1.469,1.91-1.469a3.1,3.1,0,0,1,1.349.31v-.55c0-.659-.38-1-1.15-1a3.462,3.462,0,0,0-1.459.39l-.4-.82a4.809,4.809,0,0,1,2.079-.51c1.3,0,2.049.66,2.049,1.819v3.268H55.8v-.509a2.091,2.091,0,0,1-1.49.589A1.579,1.579,0,0,1,52.544,91.846Zm2.08.729a1.785,1.785,0,0,0,1.179-.409v-.819a2.591,2.591,0,0,0-1.159-.24c-.64,0-1.04.279-1.04.719C53.6,92.286,54,92.575,54.624,92.575Z"></path>
    <path id="path118" d="M58.294,88.279h1.13V89.1a1.817,1.817,0,0,1,1.589-.9,1.686,1.686,0,0,1,1.729,1.79v3.3h-1.13V90.307a1.077,1.077,0,0,0-1.1-1.2,1.283,1.283,0,0,0-1.089.6v3.578h-1.13Z"></path>
    <path id="path120" d="M67.692,92.615a1.923,1.923,0,0,1-1.539.72,2.562,2.562,0,0,1,.07-5.1,1.91,1.91,0,0,1,1.459.66V86.139l1.13-.19v7.336h-1.12Zm-1.2-.229a1.5,1.5,0,0,0,1.189-.55V89.728a1.552,1.552,0,0,0-1.189-.54,1.6,1.6,0,0,0,0,3.2Z"></path>
    <path id="path122" d="M72.6,86.289h3.108a2.133,2.133,0,0,1,2.339,2.119,1.988,1.988,0,0,1-1.38,1.919l1.47,2.958H76.812l-1.35-2.8H73.8v2.8H72.6Zm1.2,1.01v2.229h1.809a1.12,1.12,0,1,0,0-2.229Z"></path>
    <path id="path124" d="M81.253,93.385a2.546,2.546,0,0,1-2.549-2.6A2.466,2.466,0,0,1,81.143,88.2a2.4,2.4,0,0,1,2.368,2.579v.28h-3.7a1.53,1.53,0,0,0,1.5,1.369,1.628,1.628,0,0,0,1.19-.47l.74.69A2.9,2.9,0,0,1,81.253,93.385Zm-1.42-3.018h2.609a1.371,1.371,0,0,0-1.309-1.25A1.347,1.347,0,0,0,79.833,90.367Z"></path>
    <path id="path126" d="M84.794,91.946a2.882,2.882,0,0,0,1.609.57c.6,0,1.009-.27,1.009-.67,0-.31-.209-.48-.689-.569l-.89-.151c-.969-.18-1.449-.629-1.449-1.379,0-.939.769-1.549,1.939-1.549a3.525,3.525,0,0,1,1.969.6l-.53.739a2.734,2.734,0,0,0-1.509-.479c-.52,0-.859.22-.859.59,0,.319.179.459.709.549l.879.16c1,.19,1.48.65,1.48,1.4a1.835,1.835,0,0,1-2.039,1.629,3.353,3.353,0,0,1-2.159-.68Z"></path>
    <path id="path128" d="M91.842,88.2a2.595,2.595,0,1,1-2.518,2.588A2.5,2.5,0,0,1,91.842,88.2Zm1.4,2.6a1.416,1.416,0,1,0-2.8,0,1.413,1.413,0,1,0,2.8,0Z"></path>
    <path id="path130" d="M96.633,91.256a1.078,1.078,0,0,0,1.1,1.2,1.264,1.264,0,0,0,1.1-.62V88.279h1.129v5.006H98.832v-.829a1.833,1.833,0,0,1-1.6.909,1.68,1.68,0,0,1-1.73-1.789v-3.3h1.13Z"></path>
    <path id="path132" d="M101.354,88.279h1.129v1.088a1.484,1.484,0,0,1,1.379-1.179,1.339,1.339,0,0,1,.49.1v.99a1.576,1.576,0,0,0-.62-.121,1.373,1.373,0,0,0-1.249.831v3.3h-1.129Z"></path>
    <path id="path134" d="M108.622,91.836l.679.68a2.6,2.6,0,0,1-1.959.869,2.589,2.589,0,0,1,0-5.177,2.7,2.7,0,0,1,2,.84l-.7.73a1.656,1.656,0,0,0-1.26-.59,1.606,1.606,0,0,0,.03,3.2A1.539,1.539,0,0,0,108.622,91.836Z"></path>
    <path id="path136" d="M112.442,93.385a2.545,2.545,0,0,1-2.548-2.6,2.466,2.466,0,0,1,2.438-2.588,2.4,2.4,0,0,1,2.369,2.579v.28H111a1.529,1.529,0,0,0,1.5,1.369,1.624,1.624,0,0,0,1.189-.47l.74.69A2.9,2.9,0,0,1,112.442,93.385Zm-1.419-3.018h2.608a1.371,1.371,0,0,0-1.309-1.25A1.346,1.346,0,0,0,111.023,90.367Z"></path>
    <path id="path138" d="M115.983,91.946a2.887,2.887,0,0,0,1.609.57c.6,0,1.01-.27,1.01-.67,0-.31-.21-.48-.69-.569l-.89-.151c-.969-.18-1.449-.629-1.449-1.379,0-.939.77-1.549,1.939-1.549a3.52,3.52,0,0,1,1.969.6l-.529.739a2.737,2.737,0,0,0-1.51-.479c-.519,0-.859.22-.859.59,0,.319.18.459.709.549l.88.16c1,.19,1.479.65,1.479,1.4a1.835,1.835,0,0,1-2.039,1.629,3.35,3.35,0,0,1-2.158-.68Z"></path>
  </g>
  <g id="g218">
    <path id="path142" d="M54.294,145.166h1.2v7h-1.2Z"></path>
    <path id="path144" d="M56.984,147.155h1.13v.82a1.817,1.817,0,0,1,1.589-.9,1.685,1.685,0,0,1,1.729,1.789v3.3H60.3v-2.978a1.077,1.077,0,0,0-1.1-1.2,1.283,1.283,0,0,0-1.089.6v3.578h-1.13Z"></path>
    <path id="path146" d="M63.334,147.155v-.889a1.537,1.537,0,0,1,1.729-1.68,2.671,2.671,0,0,1,.749.1v.959a2.3,2.3,0,0,0-.6-.08c-.52,0-.75.23-.75.719v.87h1.349v.9H64.463v4.107H63.334v-4.107h-1.08v-.9Z"></path>
    <path id="path148" d="M66.764,147.155h1.13v1.089a1.484,1.484,0,0,1,1.378-1.179,1.339,1.339,0,0,1,.49.1v.99a1.567,1.567,0,0,0-.619-.121,1.373,1.373,0,0,0-1.249.83v3.3h-1.13Z"></path>
    <path id="path150" d="M70.274,150.723c0-.9.729-1.469,1.909-1.469a3.089,3.089,0,0,1,1.349.31v-.55c0-.659-.38-1-1.149-1a3.459,3.459,0,0,0-1.459.39l-.4-.82a4.8,4.8,0,0,1,2.079-.51c1.3,0,2.048.66,2.048,1.819v3.268H73.532v-.509a2.087,2.087,0,0,1-1.489.589A1.579,1.579,0,0,1,70.274,150.723Zm2.079.729a1.789,1.789,0,0,0,1.179-.409v-.819a2.591,2.591,0,0,0-1.159-.24c-.64,0-1.04.279-1.04.719C71.333,151.163,71.733,151.452,72.353,151.452Z"></path>
    <path id="path152" d="M76.1,150.823a2.882,2.882,0,0,0,1.609.57c.6,0,1.009-.27,1.009-.67,0-.31-.209-.48-.689-.569l-.89-.151c-.969-.18-1.449-.629-1.449-1.379,0-.939.769-1.549,1.939-1.549a3.522,3.522,0,0,1,1.969.6l-.53.739a2.734,2.734,0,0,0-1.509-.479c-.52,0-.859.22-.859.59,0,.319.179.459.709.549l.879.16c1,.19,1.48.65,1.48,1.4a1.835,1.835,0,0,1-2.039,1.629,3.353,3.353,0,0,1-2.159-.68Z"></path>
    <path id="path154" d="M81.333,148.055H80.324v-.9h1.009v-1.379l1.13-.24v1.619h1.4v.9h-1.4v2.538c0,.49.19.68.7.68a2.1,2.1,0,0,0,.679-.12v.95a3.552,3.552,0,0,1-.969.139c-1.01,0-1.54-.479-1.54-1.4Z"></path>
    <path id="path156" d="M84.854,147.155h1.129v1.089a1.484,1.484,0,0,1,1.379-1.179,1.339,1.339,0,0,1,.49.1v.99a1.576,1.576,0,0,0-.62-.121,1.374,1.374,0,0,0-1.249.83v3.3H84.854Z"></path>
    <path id="path158" d="M89.843,150.133a1.079,1.079,0,0,0,1.1,1.2,1.264,1.264,0,0,0,1.1-.62v-3.558h1.129v5.007H92.042v-.829a1.833,1.833,0,0,1-1.6.909,1.68,1.68,0,0,1-1.73-1.789v-3.3h1.13Z"></path>
    <path id="path160" d="M98.142,150.713l.679.68a2.6,2.6,0,0,1-1.959.869,2.589,2.589,0,0,1,0-5.177,2.7,2.7,0,0,1,2,.84l-.7.73a1.656,1.656,0,0,0-1.26-.59,1.606,1.606,0,0,0,.03,3.2A1.543,1.543,0,0,0,98.142,150.713Z"></path>
    <path id="path162" d="M100.513,148.055H99.5v-.9h1.009v-1.379l1.13-.24v1.619h1.4v.9h-1.4v2.538c0,.49.19.68.7.68a2.1,2.1,0,0,0,.68-.12v.95a3.553,3.553,0,0,1-.97.139c-1.009,0-1.539-.479-1.539-1.4Z"></path>
    <path id="path164" d="M105.132,150.133a1.079,1.079,0,0,0,1.1,1.2,1.264,1.264,0,0,0,1.1-.62v-3.558h1.128v5.007h-1.128v-.829a1.833,1.833,0,0,1-1.6.909A1.679,1.679,0,0,1,104,150.453v-3.3h1.129Z"></path>
    <path id="path166" d="M109.853,147.155h1.129v1.089a1.486,1.486,0,0,1,1.379-1.179,1.339,1.339,0,0,1,.49.1v.99a1.576,1.576,0,0,0-.62-.121,1.375,1.375,0,0,0-1.249.83v3.3h-1.129Z"></path>
    <path id="path168" d="M115.862,152.262a2.546,2.546,0,0,1-2.549-2.6,2.466,2.466,0,0,1,2.438-2.588,2.4,2.4,0,0,1,2.37,2.579v.28h-3.7a1.53,1.53,0,0,0,1.5,1.369,1.628,1.628,0,0,0,1.19-.47l.74.69A2.9,2.9,0,0,1,115.862,152.262Zm-1.42-3.018h2.609a1.371,1.371,0,0,0-1.309-1.25A1.347,1.347,0,0,0,114.442,149.244Z"></path>
    <path id="path170" d="M50.224,156.166h3.129a2.17,2.17,0,1,1,0,4.327H51.424v2.669h-1.2Zm1.2,1.01v2.338h1.739a1.177,1.177,0,1,0,.01-2.338Z"></path>
    <path id="path172" d="M58.923,163.262a2.545,2.545,0,0,1-2.548-2.6,2.466,2.466,0,0,1,2.438-2.588,2.4,2.4,0,0,1,2.369,2.579v.28h-3.7a1.529,1.529,0,0,0,1.5,1.369,1.624,1.624,0,0,0,1.189-.47l.74.69A2.9,2.9,0,0,1,58.923,163.262ZM57.5,160.244h2.608a1.371,1.371,0,0,0-1.309-1.25A1.346,1.346,0,0,0,57.5,160.244Z"></path>
    <path id="path174" d="M62.334,158.155h1.13v1.089a1.484,1.484,0,0,1,1.379-1.179,1.339,1.339,0,0,1,.49.1v.99a1.576,1.576,0,0,0-.62-.121,1.373,1.373,0,0,0-1.249.83v3.3h-1.13Z"></path>
    <path id="path176" d="M66.264,158.155h1.13v.8a1.707,1.707,0,0,1,1.489-.879,1.574,1.574,0,0,1,1.469.969,1.846,1.846,0,0,1,1.659-.969,1.659,1.659,0,0,1,1.639,1.819v3.268H72.521v-3.028a1.013,1.013,0,0,0-1.01-1.149,1.193,1.193,0,0,0-1.009.589c.01.11.02.21.02.32v3.268H69.393v-3.028a1.014,1.014,0,0,0-1.01-1.149,1.159,1.159,0,0,0-.989.569v3.608h-1.13Z"></path>
    <path id="path178" d="M74.884,156.446a.7.7,0,0,1,1.409,0,.7.7,0,0,1-1.409,0Zm1.27,6.716h-1.13v-5.007h1.13Z"></path>
    <path id="path180" d="M77.624,161.823a2.882,2.882,0,0,0,1.609.57c.6,0,1.009-.27,1.009-.67,0-.31-.209-.48-.689-.569l-.89-.151c-.969-.18-1.449-.629-1.449-1.379,0-.939.769-1.549,1.939-1.549a3.522,3.522,0,0,1,1.969.6l-.53.739a2.734,2.734,0,0,0-1.509-.479c-.52,0-.859.22-.859.59,0,.319.179.459.709.549l.879.16c1,.19,1.48.65,1.48,1.4a1.835,1.835,0,0,1-2.039,1.629,3.353,3.353,0,0,1-2.159-.68Z"></path>
    <path id="path182" d="M82.454,161.823a2.885,2.885,0,0,0,1.609.57c.6,0,1.009-.27,1.009-.67,0-.31-.209-.48-.689-.569l-.89-.151c-.969-.18-1.449-.629-1.449-1.379,0-.939.769-1.549,1.939-1.549a3.522,3.522,0,0,1,1.969.6l-.53.739a2.734,2.734,0,0,0-1.509-.479c-.519,0-.859.22-.859.59,0,.319.179.459.709.549l.88.16c1,.19,1.479.65,1.479,1.4a1.835,1.835,0,0,1-2.039,1.629,3.353,3.353,0,0,1-2.159-.68Z"></path>
    <path id="path184" d="M87.024,156.446a.7.7,0,0,1,1.409,0,.7.7,0,0,1-1.409,0Zm1.269,6.716H87.164v-5.007h1.129Z"></path>
    <path id="path186" d="M91.973,158.075a2.595,2.595,0,1,1-2.519,2.588A2.5,2.5,0,0,1,91.973,158.075Zm1.4,2.6a1.415,1.415,0,1,0-2.8,0,1.413,1.413,0,1,0,2.8,0Z"></path>
    <path id="path188" d="M95.664,158.155h1.129v.82a1.818,1.818,0,0,1,1.589-.9,1.685,1.685,0,0,1,1.729,1.789v3.3H98.982v-2.978a1.078,1.078,0,0,0-1.1-1.2,1.286,1.286,0,0,0-1.09.6v3.578H95.664Z"></path>
    <path id="path190" d="M103.483,161.723c0-.9.73-1.469,1.91-1.469a3.1,3.1,0,0,1,1.349.31v-.55c0-.659-.38-1-1.15-1a3.462,3.462,0,0,0-1.459.39l-.4-.82a4.809,4.809,0,0,1,2.079-.51c1.3,0,2.049.66,2.049,1.819v3.268h-1.119v-.509a2.091,2.091,0,0,1-1.49.589A1.579,1.579,0,0,1,103.483,161.723Zm2.079.729a1.791,1.791,0,0,0,1.18-.409v-.819a2.591,2.591,0,0,0-1.159-.24c-.64,0-1.04.279-1.04.719C104.543,162.163,104.943,162.452,105.562,162.452Z"></path>
    <path id="path192" d="M109.233,158.155h1.13v.82a1.817,1.817,0,0,1,1.589-.9,1.685,1.685,0,0,1,1.729,1.789v3.3h-1.13v-2.978a1.077,1.077,0,0,0-1.1-1.2,1.283,1.283,0,0,0-1.089.6v3.578h-1.13Z"></path>
    <path id="path194" d="M118.631,162.492a1.923,1.923,0,0,1-1.539.72,2.562,2.562,0,0,1,.07-5.1,1.91,1.91,0,0,1,1.459.66v-2.759l1.129-.19v7.336h-1.119Zm-1.2-.229a1.5,1.5,0,0,0,1.189-.55V159.6a1.552,1.552,0,0,0-1.189-.54,1.6,1.6,0,0,0,0,3.2Z"></path>
    <path id="path196" d="M59.711,173.253l.63.739-.86.61-.629-.73a3.42,3.42,0,0,1-1.63.4,3.609,3.609,0,1,1,3.538-3.609A3.645,3.645,0,0,1,59.711,173.253Zm-.76-.88a2.689,2.689,0,0,0,.58-1.709,2.318,2.318,0,1,0-2.3,2.529,2.131,2.131,0,0,0,.88-.18l-.8-.93.86-.619Z"></path>
    <path id="path198" d="M63.073,172.133a1.079,1.079,0,0,0,1.1,1.2,1.263,1.263,0,0,0,1.1-.62v-3.558H66.4v5.007H65.272v-.829a1.83,1.83,0,0,1-1.6.909,1.679,1.679,0,0,1-1.729-1.789v-3.3h1.129Z"></path>
    <path id="path200" d="M70.083,169.075a2.595,2.595,0,1,1-2.519,2.588A2.5,2.5,0,0,1,70.083,169.075Zm1.4,2.6a1.415,1.415,0,1,0-2.8,0,1.413,1.413,0,1,0,2.8,0Z"></path>
    <path id="path202" d="M74.154,170.055H73.145v-.9h1.009v-1.379l1.129-.24v1.619h1.4v.9h-1.4v2.538c0,.49.19.68.7.68a2.111,2.111,0,0,0,.68-.12v.95a3.553,3.553,0,0,1-.97.139c-1.009,0-1.539-.479-1.539-1.4Z"></path>
    <path id="path204" d="M77.424,172.723c0-.9.729-1.469,1.909-1.469a3.092,3.092,0,0,1,1.349.31v-.55c0-.659-.38-1-1.149-1a3.459,3.459,0,0,0-1.459.39l-.4-.82a4.8,4.8,0,0,1,2.078-.51c1.3,0,2.049.66,2.049,1.819v3.268H80.682v-.509a2.088,2.088,0,0,1-1.489.589A1.579,1.579,0,0,1,77.424,172.723Zm2.079.729a1.789,1.789,0,0,0,1.179-.409v-.819a2.591,2.591,0,0,0-1.159-.24c-.64,0-1.04.279-1.04.719C78.483,173.163,78.883,173.452,79.5,173.452Z"></path>
    <path id="path206" d="M90.761,172.274l.789.759a3.59,3.59,0,1,1,.031-4.738l-.81.8a2.461,2.461,0,1,0-1.879,4.088A2.373,2.373,0,0,0,90.761,172.274Z"></path>
    <path id="path208" d="M92.654,167.016l1.129-.19v3.149a1.818,1.818,0,0,1,1.589-.9,1.685,1.685,0,0,1,1.729,1.789v3.3H95.972v-2.978a1.078,1.078,0,0,0-1.1-1.2,1.286,1.286,0,0,0-1.09.6v3.578H92.654Z"></path>
    <path id="path210" d="M100.792,174.262a2.545,2.545,0,0,1-2.548-2.6,2.466,2.466,0,0,1,2.438-2.588,2.4,2.4,0,0,1,2.369,2.579v.28h-3.7a1.53,1.53,0,0,0,1.5,1.369,1.628,1.628,0,0,0,1.19-.47l.739.69A2.9,2.9,0,0,1,100.792,174.262Zm-1.419-3.018h2.608a1.37,1.37,0,0,0-1.309-1.25A1.346,1.346,0,0,0,99.373,171.244Z"></path>
    <path id="path212" d="M107.812,172.713l.679.68a2.6,2.6,0,0,1-1.959.869,2.589,2.589,0,0,1,0-5.177,2.7,2.7,0,0,1,2,.84l-.7.73a1.657,1.657,0,0,0-1.26-.59,1.606,1.606,0,0,0,.03,3.2A1.543,1.543,0,0,0,107.812,172.713Z"></path>
    <path id="path214" d="M109.463,167.016l1.13-.19v4.468l2.078-2.139h1.29l-2.289,2.319,2.429,2.688h-1.45l-2.058-2.308v2.308h-1.13Z"></path>
    <path id="path216" d="M114.913,172.823a2.882,2.882,0,0,0,1.609.57c.6,0,1.009-.27,1.009-.67,0-.31-.209-.48-.689-.569l-.89-.151c-.969-.18-1.449-.629-1.449-1.379,0-.939.769-1.549,1.939-1.549a3.522,3.522,0,0,1,1.969.6l-.53.739a2.734,2.734,0,0,0-1.509-.479c-.519,0-.859.22-.859.59,0,.319.179.459.709.549l.88.16c1,.19,1.479.65,1.479,1.4a1.835,1.835,0,0,1-2.039,1.629,3.353,3.353,0,0,1-2.159-.68Z"></path>
  </g>
  <g id="g246">
    <path id="path220" d="M56,366.6h2.559a3.5,3.5,0,1,1,0,7H56Zm1.2,1.039v4.918h1.389a2.47,2.47,0,0,0,0-4.918Z"></path>
    <path id="path222" d="M65.568,368.506a2.595,2.595,0,1,1-2.519,2.588A2.5,2.5,0,0,1,65.568,368.506Zm1.4,2.6a1.415,1.415,0,1,0-2.8,0,1.413,1.413,0,1,0,2.8,0Z"></path>
    <path id="path224" d="M69.259,368.586h1.13v.819a1.818,1.818,0,0,1,1.589-.9,1.685,1.685,0,0,1,1.729,1.789v3.3h-1.13v-2.979a1.078,1.078,0,0,0-1.1-1.2,1.281,1.281,0,0,0-1.089.6v3.578h-1.13Z"></path>
    <path id="path226" d="M77.4,373.693a2.546,2.546,0,0,1-2.549-2.6,2.466,2.466,0,0,1,2.439-2.588,2.4,2.4,0,0,1,2.368,2.578v.28h-3.7a1.53,1.53,0,0,0,1.5,1.37,1.627,1.627,0,0,0,1.189-.47l.74.689A2.9,2.9,0,0,1,77.4,373.693Zm-1.419-3.018h2.608a1.371,1.371,0,0,0-1.309-1.25A1.344,1.344,0,0,0,75.979,370.675Z"></path>
    <path id="path228" d="M85.647,373.643a1.865,1.865,0,0,1-1.479-.7v.649H83.059v-7.147l1.129-.189v3a1.952,1.952,0,0,1,1.54-.709A2.4,2.4,0,0,1,88,371.094,2.427,2.427,0,0,1,85.647,373.643Zm-1.459-3.588v2.089a1.539,1.539,0,0,0,1.2.55,1.6,1.6,0,0,0,0-3.2A1.471,1.471,0,0,0,84.188,370.055Z"></path>
    <path id="path230" d="M90.3,373.623l-1.889-5.037h1.259l1.27,3.718,1.4-3.718h1.229l-2.378,5.826a1.693,1.693,0,0,1-1.779,1.32,2.4,2.4,0,0,1-.57-.07v-.969a4.416,4.416,0,0,0,.44.04.8.8,0,0,0,.809-.58Z"></path>
    <path id="path232" d="M97.258,369.486H96.249v-.9h1.009v-1.38l1.13-.239v1.619h1.4v.9h-1.4v2.538c0,.49.19.679.7.679a2.076,2.076,0,0,0,.68-.12v.95a3.554,3.554,0,0,1-.97.14c-1.009,0-1.539-.479-1.539-1.4Z"></path>
    <path id="path234" d="M100.778,366.446l1.13-.189v3.148a1.818,1.818,0,0,1,1.589-.9,1.685,1.685,0,0,1,1.729,1.789v3.3H104.1v-2.979a1.078,1.078,0,0,0-1.1-1.2,1.281,1.281,0,0,0-1.089.6v3.578h-1.13Z"></path>
    <path id="path236" d="M108.917,373.693a2.546,2.546,0,0,1-2.549-2.6,2.466,2.466,0,0,1,2.439-2.588,2.4,2.4,0,0,1,2.369,2.578v.28h-3.7a1.528,1.528,0,0,0,1.5,1.37,1.627,1.627,0,0,0,1.189-.47l.74.689A2.9,2.9,0,0,1,108.917,373.693Zm-1.419-3.018h2.608a1.371,1.371,0,0,0-1.309-1.25A1.344,1.344,0,0,0,107.5,370.675Z"></path>
    <path id="path238" d="M115.677,371.564a1.079,1.079,0,0,0,1.1,1.2,1.263,1.263,0,0,0,1.1-.62v-3.558h1.129v5.007h-1.129v-.829a1.83,1.83,0,0,1-1.6.909,1.679,1.679,0,0,1-1.729-1.789v-3.3h1.129Z"></path>
    <path id="path240" d="M120.478,372.254a2.888,2.888,0,0,0,1.609.569c.6,0,1.009-.269,1.009-.669,0-.31-.209-.48-.689-.57l-.89-.15c-.969-.18-1.449-.629-1.449-1.379,0-.94.769-1.549,1.939-1.549a3.522,3.522,0,0,1,1.969.6l-.53.739a2.735,2.735,0,0,0-1.509-.48c-.52,0-.859.22-.859.59,0,.32.179.459.709.55l.88.159c1,.191,1.479.651,1.479,1.4a1.835,1.835,0,0,1-2.039,1.629,3.358,3.358,0,0,1-2.159-.68Z"></path>
    <path id="path242" d="M127.557,373.693a2.545,2.545,0,0,1-2.549-2.6,2.465,2.465,0,0,1,2.438-2.588,2.4,2.4,0,0,1,2.369,2.578v.28h-3.7a1.53,1.53,0,0,0,1.5,1.37,1.628,1.628,0,0,0,1.19-.47l.739.689A2.892,2.892,0,0,1,127.557,373.693Zm-1.42-3.018h2.609a1.371,1.371,0,0,0-1.309-1.25A1.346,1.346,0,0,0,126.137,370.675Z"></path>
    <path id="path244" d="M130.968,368.586H132.1v1.089a1.486,1.486,0,0,1,1.379-1.18,1.361,1.361,0,0,1,.49.1v.989a1.593,1.593,0,0,0-.62-.12,1.375,1.375,0,0,0-1.249.83v3.3h-1.129Z"></path>
  </g>
  <g id="g252">
    <rect id="rect248" height="12.345" width="18.339" y="364.581" x="153.009" class="cls-6"></rect>
    <path id="path250" d="M170.848,365.081v11.345H153.509V365.081h17.339m1-1H152.509v13.345h19.339V364.081Z" class="cls-3"></path>
  </g>
  <g id="g290">
    <path id="path254" d="M183.867,366.6h2.559a3.5,3.5,0,1,1,0,7h-2.559Zm1.2,1.039v4.918h1.389a2.47,2.47,0,0,0,0-4.918Z"></path>
    <path id="path256" d="M193.436,368.506a2.595,2.595,0,1,1-2.519,2.588A2.5,2.5,0,0,1,193.436,368.506Zm1.4,2.6a1.415,1.415,0,1,0-2.8,0,1.413,1.413,0,1,0,2.8,0Z"></path>
    <path id="path258" d="M197.127,368.586h1.13v.819a1.818,1.818,0,0,1,1.589-.9,1.685,1.685,0,0,1,1.729,1.789v3.3h-1.13v-2.979a1.078,1.078,0,0,0-1.1-1.2,1.281,1.281,0,0,0-1.089.6v3.578h-1.13Z"></path>
    <path id="path260" d="M205.266,373.693a2.546,2.546,0,0,1-2.549-2.6,2.466,2.466,0,0,1,2.439-2.588,2.4,2.4,0,0,1,2.368,2.578v.28h-3.7a1.529,1.529,0,0,0,1.5,1.37,1.627,1.627,0,0,0,1.189-.47l.74.689A2.9,2.9,0,0,1,205.266,373.693Zm-1.419-3.018h2.608a1.371,1.371,0,0,0-1.309-1.25A1.346,1.346,0,0,0,203.847,370.675Z"></path>
    <path id="path262" d="M213.516,373.643a1.862,1.862,0,0,1-1.479-.7v.649h-1.11v-7.147l1.13-.189v3a1.949,1.949,0,0,1,1.539-.709,2.4,2.4,0,0,1,2.268,2.548A2.427,2.427,0,0,1,213.516,373.643Zm-1.459-3.588v2.089a1.536,1.536,0,0,0,1.2.55,1.6,1.6,0,0,0,0-3.2A1.467,1.467,0,0,0,212.057,370.055Z"></path>
    <path id="path264" d="M218.167,373.623l-1.89-5.037h1.26l1.269,3.718,1.4-3.718h1.23l-2.379,5.826a1.693,1.693,0,0,1-1.779,1.32,2.4,2.4,0,0,1-.57-.07v-.969a4.416,4.416,0,0,0,.44.04.8.8,0,0,0,.81-.58Z"></path>
    <path id="path266" d="M225.126,369.486h-1.009v-.9h1.009v-1.38l1.13-.239v1.619h1.4v.9h-1.4v2.538c0,.49.19.679.7.679a2.074,2.074,0,0,0,.679-.12v.95a3.553,3.553,0,0,1-.969.14c-1.01,0-1.54-.479-1.54-1.4Z"></path>
    <path id="path268" d="M228.646,366.446l1.13-.189v3.148a1.818,1.818,0,0,1,1.589-.9,1.685,1.685,0,0,1,1.729,1.789v3.3h-1.13v-2.979a1.078,1.078,0,0,0-1.1-1.2,1.283,1.283,0,0,0-1.089.6v3.578h-1.13Z"></path>
    <path id="path270" d="M236.785,373.693a2.546,2.546,0,0,1-2.549-2.6,2.466,2.466,0,0,1,2.439-2.588,2.4,2.4,0,0,1,2.369,2.578v.28h-3.7a1.529,1.529,0,0,0,1.5,1.37,1.627,1.627,0,0,0,1.189-.47l.74.689A2.9,2.9,0,0,1,236.785,373.693Zm-1.419-3.018h2.608a1.371,1.371,0,0,0-1.309-1.25A1.346,1.346,0,0,0,235.366,370.675Z"></path>
    <path id="path272" d="M242.306,366.877a.7.7,0,0,1,1.409,0,.7.7,0,0,1-1.409,0Zm1.27,6.716h-1.13v-5.007h1.13Z"></path>
    <path id="path274" d="M244.966,368.586h1.13v.819a1.818,1.818,0,0,1,1.589-.9,1.685,1.685,0,0,1,1.729,1.789v3.3h-1.13v-2.979a1.078,1.078,0,0,0-1.1-1.2,1.281,1.281,0,0,0-1.089.6v3.578h-1.13Z"></path>
    <path id="path276" d="M250.866,372.254a2.89,2.89,0,0,0,1.609.569c.6,0,1.009-.269,1.009-.669,0-.31-.209-.48-.689-.57l-.89-.15c-.969-.18-1.449-.629-1.449-1.379,0-.94.77-1.549,1.939-1.549a3.52,3.52,0,0,1,1.969.6l-.53.739a2.735,2.735,0,0,0-1.509-.48c-.519,0-.859.22-.859.59,0,.32.18.459.709.55l.88.159c1,.191,1.479.651,1.479,1.4a1.835,1.835,0,0,1-2.039,1.629,3.358,3.358,0,0,1-2.159-.68Z"></path>
    <path id="path278" d="M256.1,369.486h-1.01v-.9h1.01v-1.38l1.129-.239v1.619h1.4v.9h-1.4v2.538c0,.49.19.679.7.679a2.074,2.074,0,0,0,.679-.12v.95a3.547,3.547,0,0,1-.969.14c-1.01,0-1.539-.479-1.539-1.4Z"></path>
    <path id="path280" d="M259.366,372.154c0-.9.73-1.469,1.909-1.469a3.1,3.1,0,0,1,1.35.309v-.549c0-.66-.38-1-1.15-1a3.474,3.474,0,0,0-1.459.389l-.4-.819a4.792,4.792,0,0,1,2.079-.51c1.3,0,2.049.659,2.049,1.818v3.269h-1.119v-.51a2.092,2.092,0,0,1-1.49.59A1.579,1.579,0,0,1,259.366,372.154Zm2.079.729a1.791,1.791,0,0,0,1.18-.409v-.819a2.593,2.593,0,0,0-1.16-.241c-.639,0-1.039.28-1.039.72C260.426,372.594,260.826,372.883,261.445,372.883Z"></path>
    <path id="path282" d="M266.245,373.593h-1.129v-7.147l1.129-.189Z"></path>
    <path id="path284" d="M268.765,373.593h-1.129v-7.147l1.129-.189Z"></path>
    <path id="path286" d="M272.475,373.693a2.545,2.545,0,0,1-2.549-2.6,2.465,2.465,0,0,1,2.438-2.588,2.4,2.4,0,0,1,2.369,2.578v.28h-3.7a1.53,1.53,0,0,0,1.5,1.37,1.628,1.628,0,0,0,1.19-.47l.739.689A2.892,2.892,0,0,1,272.475,373.693Zm-1.42-3.018h2.609a1.371,1.371,0,0,0-1.31-1.25A1.346,1.346,0,0,0,271.055,370.675Z"></path>
    <path id="path288" d="M275.886,368.586h1.129v1.089a1.486,1.486,0,0,1,1.379-1.18,1.361,1.361,0,0,1,.49.1v.989a1.593,1.593,0,0,0-.62-.12,1.375,1.375,0,0,0-1.249.83v3.3h-1.129Z"></path>
  </g>
  <g id="g296">
    <rect id="rect292" height="43.736" width="101.631" y="138.525" x="168.562" class="cls-2"></rect>
    <path id="path294" d="M269.693,139.024v42.737H169.062V139.024H269.693m1-1H168.062v44.737H270.693V138.024Z" class="cls-3"></path>
  </g>
  <g id="g302">
    <rect id="rect298" height="43.736" width="101.631" y="138.525" x="301.895" class="cls-6"></rect>
    <path id="path300" d="M403.026,139.024v42.737H302.4V139.024H403.026m1-1H301.4v44.737H404.026V138.024Z" class="cls-3"></path>
  </g>
  <g id="g308">
    <rect id="rect304" height="43.736" width="101.632" y="138.525" x="435.228" class="cls-6"></rect>
    <path id="path306" d="M536.36,139.024v42.737H435.728V139.024H536.36m1-1H434.728v44.737H537.36V138.024Z" class="cls-3"></path>
  </g>
  <g id="g314">
    <line id="line310" y2="160.393" x2="296.013" y1="160.393" x1="270.693" class="cls-4"></line>
    <polygon id="polygon312" points="294.919 164.132 301.395 160.393 294.919 156.653 294.919 164.132" class="cls-5"></polygon>
  </g>
  <g id="g320">
    <line id="line316" y2="160.393" x2="429.346" y1="160.393" x1="404.026" class="cls-4"></line>
    <polygon id="polygon318" points="428.252 164.132 434.728 160.393 428.252 156.653 428.252 164.132" class="cls-5"></polygon>
  </g>
  <g id="g326">
    <line id="line322" y2="257.733" x2="486.044" y1="283.053" x1="486.044" class="cls-4"></line>
    <polygon id="polygon324" points="489.783 281.959 486.044 288.435 482.305 281.959 489.783 281.959" class="cls-5"></polygon>
  </g>
  <g id="g352">
    <path id="path328" d="M191.153,156.237h3.108a2.132,2.132,0,0,1,2.339,2.119,1.989,1.989,0,0,1-1.379,1.919l1.469,2.958h-1.329l-1.35-2.8h-1.658v2.8h-1.2Zm1.2,1.009v2.229h1.808a1.12,1.12,0,1,0,0-2.229Z"></path>
    <path id="path330" d="M198.732,161.2a1.08,1.08,0,0,0,1.1,1.2,1.26,1.26,0,0,0,1.1-.621v-3.557h1.13v5.007h-1.13V162.4a1.832,1.832,0,0,1-1.6.909,1.68,1.68,0,0,1-1.73-1.789v-3.3h1.129Z"></path>
    <path id="path332" d="M203.453,158.226h1.13v.819a1.814,1.814,0,0,1,1.588-.9,1.684,1.684,0,0,1,1.729,1.789v3.3h-1.129v-2.979a1.078,1.078,0,0,0-1.1-1.2,1.281,1.281,0,0,0-1.089.6v3.578h-1.13Z"></path>
    <path id="path334" d="M211.6,156.237h1.2v7h-1.2Z"></path>
    <path id="path336" d="M214.293,158.226h1.129v.819a1.817,1.817,0,0,1,1.589-.9,1.684,1.684,0,0,1,1.729,1.789v3.3h-1.129v-2.979a1.078,1.078,0,0,0-1.1-1.2,1.284,1.284,0,0,0-1.09.6v3.578h-1.129Z"></path>
    <path id="path338" d="M220.193,161.894a2.888,2.888,0,0,0,1.609.569c.6,0,1.009-.269,1.009-.67,0-.309-.209-.479-.689-.569l-.89-.151c-.969-.179-1.449-.628-1.449-1.378,0-.94.769-1.549,1.939-1.549a3.524,3.524,0,0,1,1.969.6l-.53.74a2.735,2.735,0,0,0-1.509-.48c-.52,0-.86.22-.86.59,0,.319.18.459.71.55l.879.159c1,.19,1.48.65,1.48,1.4a1.835,1.835,0,0,1-2.039,1.629,3.358,3.358,0,0,1-2.159-.679Z"></path>
    <path id="path340" d="M225.422,159.125h-1.009v-.9h1.009v-1.38l1.13-.239v1.619h1.4v.9h-1.4v2.538c0,.491.19.68.7.68a2.076,2.076,0,0,0,.68-.12v.95a3.554,3.554,0,0,1-.97.14c-1.009,0-1.539-.48-1.539-1.4Z"></path>
    <path id="path342" d="M228.692,161.793c0-.9.73-1.469,1.91-1.469a3.1,3.1,0,0,1,1.349.31v-.55c0-.659-.38-1-1.15-1a3.462,3.462,0,0,0-1.459.39l-.4-.82a4.807,4.807,0,0,1,2.079-.509c1.3,0,2.049.659,2.049,1.818v3.269h-1.119v-.51a2.092,2.092,0,0,1-1.49.59A1.579,1.579,0,0,1,228.692,161.793Zm2.079.73a1.787,1.787,0,0,0,1.18-.41v-.819a2.591,2.591,0,0,0-1.159-.24c-.64,0-1.04.279-1.04.72C229.752,162.234,230.152,162.523,230.771,162.523Z"></path>
    <path id="path344" d="M235.572,163.233h-1.13v-7.147l1.13-.189Z"></path>
    <path id="path346" d="M238.092,163.233h-1.13v-7.147l1.13-.189Z"></path>
    <path id="path348" d="M241.8,163.332a2.545,2.545,0,0,1-2.549-2.6,2.466,2.466,0,0,1,2.439-2.588,2.4,2.4,0,0,1,2.369,2.578V161h-3.7a1.529,1.529,0,0,0,1.5,1.369,1.627,1.627,0,0,0,1.189-.469l.74.689A2.894,2.894,0,0,1,241.8,163.332Zm-1.419-3.017h2.608a1.37,1.37,0,0,0-1.309-1.25A1.346,1.346,0,0,0,240.382,160.315Z"></path>
    <path id="path350" d="M245.212,158.226h1.13v1.089a1.484,1.484,0,0,1,1.379-1.18,1.331,1.331,0,0,1,.489.1v.989a1.585,1.585,0,0,0-.619-.12,1.371,1.371,0,0,0-1.249.83v3.3h-1.13Z"></path>
  </g>
  <g id="g388">
    <path id="path354" d="M335.4,155.774l.79.759a3.591,3.591,0,1,1,.03-4.738l-.809.8a2.461,2.461,0,1,0-1.88,4.088A2.371,2.371,0,0,0,335.4,155.774Z"></path>
    <path id="path356" d="M339.434,152.575a2.595,2.595,0,1,1-2.518,2.588A2.5,2.5,0,0,1,339.434,152.575Zm1.4,2.6a1.415,1.415,0,1,0-2.8,0,1.413,1.413,0,1,0,2.8,0Z"></path>
    <path id="path358" d="M343.125,152.655h1.13v.82a1.817,1.817,0,0,1,1.589-.9,1.685,1.685,0,0,1,1.729,1.789v3.3h-1.13v-2.978a1.077,1.077,0,0,0-1.1-1.2,1.284,1.284,0,0,0-1.089.6v3.578h-1.13Z"></path>
    <path id="path360" d="M349.475,152.655v-.889a1.537,1.537,0,0,1,1.729-1.68,2.682,2.682,0,0,1,.749.1v.959a2.307,2.307,0,0,0-.6-.08c-.521,0-.75.23-.75.719v.87h1.349v.9H350.6v4.107h-1.129v-4.107H348.4v-.9Z"></path>
    <path id="path362" d="M352.765,150.946a.7.7,0,0,1,1.409,0,.7.7,0,0,1-1.409,0Zm1.27,6.716h-1.13v-5.007h1.13Z"></path>
    <path id="path364" d="M355.2,155.154a2.417,2.417,0,0,1,2.339-2.539,1.883,1.883,0,0,1,1.469.68v-.64h1.12v5.177c0,1.289-.84,2-2.359,2a4.36,4.36,0,0,1-2.009-.479l.4-.84a3.4,3.4,0,0,0,1.559.43c.84,0,1.279-.38,1.279-1.11v-.849a1.944,1.944,0,0,1-1.529.71A2.4,2.4,0,0,1,355.2,155.154Zm2.609,1.6a1.5,1.5,0,0,0,1.189-.55v-2.1a1.552,1.552,0,0,0-1.189-.54,1.493,1.493,0,0,0-1.489,1.589A1.514,1.514,0,0,0,357.8,156.753Z"></path>
    <path id="path366" d="M362.614,155.633a1.079,1.079,0,0,0,1.1,1.2,1.262,1.262,0,0,0,1.1-.62v-3.558h1.129v5.007h-1.129v-.829a1.83,1.83,0,0,1-1.6.909,1.679,1.679,0,0,1-1.729-1.789v-3.3h1.129Z"></path>
    <path id="path368" d="M367.335,152.655h1.129v1.089a1.486,1.486,0,0,1,1.379-1.179,1.339,1.339,0,0,1,.49.1v.99a1.576,1.576,0,0,0-.62-.121,1.375,1.375,0,0,0-1.249.83v3.3h-1.129Z"></path>
    <path id="path370" d="M373.344,157.762a2.546,2.546,0,0,1-2.549-2.6,2.466,2.466,0,0,1,2.438-2.588,2.4,2.4,0,0,1,2.37,2.579v.28h-3.7a1.53,1.53,0,0,0,1.5,1.369,1.628,1.628,0,0,0,1.19-.47l.74.69A2.9,2.9,0,0,1,373.344,157.762Zm-1.42-3.018h2.609a1.371,1.371,0,0,0-1.309-1.25A1.347,1.347,0,0,0,371.924,154.744Z"></path>
    <path id="path372" d="M333.666,166.753a3.5,3.5,0,0,0,2.348,1.02c.929,0,1.569-.47,1.569-1.11,0-.569-.339-.829-1.269-1l-1.29-.219c-1.209-.221-1.8-.821-1.8-1.78,0-1.26,1.009-2.1,2.578-2.1a4.671,4.671,0,0,1,2.809.909l-.61.9a3.627,3.627,0,0,0-2.239-.809c-.839,0-1.389.42-1.389.989,0,.5.31.76,1.08.88l1.239.22c1.409.24,2.069.859,2.069,1.918,0,1.28-1.14,2.189-2.809,2.189a4.406,4.406,0,0,1-2.938-1.129Z"></path>
    <path id="path374" d="M342.264,168.762a2.546,2.546,0,0,1-2.549-2.6,2.467,2.467,0,0,1,2.439-2.588,2.4,2.4,0,0,1,2.368,2.579v.28h-3.7a1.529,1.529,0,0,0,1.5,1.369,1.627,1.627,0,0,0,1.189-.47l.74.69A2.9,2.9,0,0,1,342.264,168.762Zm-1.419-3.018h2.608a1.371,1.371,0,0,0-1.309-1.25A1.346,1.346,0,0,0,340.845,165.744Z"></path>
    <path id="path376" d="M345.675,163.655h1.13v1.089a1.484,1.484,0,0,1,1.379-1.179,1.334,1.334,0,0,1,.489.1v.99a1.567,1.567,0,0,0-.619-.121,1.374,1.374,0,0,0-1.249.83v3.3h-1.13Z"></path>
    <path id="path378" d="M349.166,163.655H350.4l1.389,3.658,1.389-3.658h1.19l-2.059,5.007h-1.09Z"></path>
    <path id="path380" d="M355.035,161.946a.7.7,0,0,1,1.409,0,.7.7,0,0,1-1.409,0Zm1.27,6.716h-1.13v-5.007h1.13Z"></path>
    <path id="path382" d="M361.273,167.213l.68.68a2.6,2.6,0,0,1-1.959.869,2.589,2.589,0,0,1,0-5.177,2.7,2.7,0,0,1,2,.84l-.7.73a1.654,1.654,0,0,0-1.259-.59,1.606,1.606,0,0,0,.03,3.2A1.54,1.54,0,0,0,361.273,167.213Z"></path>
    <path id="path384" d="M365.094,168.762a2.546,2.546,0,0,1-2.549-2.6,2.467,2.467,0,0,1,2.439-2.588,2.4,2.4,0,0,1,2.369,2.579v.28h-3.7a1.529,1.529,0,0,0,1.5,1.369,1.625,1.625,0,0,0,1.189-.47l.74.69A2.9,2.9,0,0,1,365.094,168.762Zm-1.419-3.018h2.608a1.371,1.371,0,0,0-1.309-1.25A1.346,1.346,0,0,0,363.675,165.744Z"></path>
    <path id="path386" d="M368.635,167.323a2.885,2.885,0,0,0,1.609.57c.6,0,1.009-.27,1.009-.67,0-.31-.209-.48-.689-.569l-.89-.151c-.969-.18-1.449-.629-1.449-1.379,0-.939.77-1.549,1.939-1.549a3.52,3.52,0,0,1,1.969.6l-.529.739a2.739,2.739,0,0,0-1.51-.479c-.519,0-.859.22-.859.59,0,.319.18.459.709.549l.88.16c1,.19,1.479.65,1.479,1.4a1.835,1.835,0,0,1-2.039,1.629,3.355,3.355,0,0,1-2.159-.68Z"></path>
  </g>
  <g id="g424">
    <path id="path390" d="M453.849,150.666h1.2v7h-1.2Z"></path>
    <path id="path392" d="M456.54,152.655h1.128v.82a1.818,1.818,0,0,1,1.589-.9,1.686,1.686,0,0,1,1.73,1.789v3.3h-1.13v-2.978a1.078,1.078,0,0,0-1.1-1.2,1.286,1.286,0,0,0-1.09.6v3.578H456.54Z"></path>
    <path id="path394" d="M462.439,156.323a2.885,2.885,0,0,0,1.609.57c.6,0,1.009-.27,1.009-.67,0-.31-.209-.48-.689-.569l-.89-.151c-.969-.18-1.449-.629-1.449-1.379,0-.939.769-1.549,1.939-1.549a3.525,3.525,0,0,1,1.969.6l-.529.739a2.739,2.739,0,0,0-1.51-.479c-.52,0-.859.22-.859.59,0,.319.179.459.71.549l.878.16c1,.19,1.48.65,1.48,1.4a1.835,1.835,0,0,1-2.039,1.629,3.35,3.35,0,0,1-2.158-.68Z"></path>
    <path id="path396" d="M467.668,153.555H466.66v-.9h1.008v-1.379l1.13-.24v1.619h1.4v.9h-1.4v2.538c0,.49.19.68.7.68a2.1,2.1,0,0,0,.679-.12v.95a3.552,3.552,0,0,1-.969.139c-1.009,0-1.54-.479-1.54-1.4Z"></path>
    <path id="path398" d="M470.939,156.223c0-.9.729-1.469,1.909-1.469a3.089,3.089,0,0,1,1.349.31v-.55c0-.659-.38-1-1.15-1a3.462,3.462,0,0,0-1.459.39l-.4-.82a4.8,4.8,0,0,1,2.078-.51c1.3,0,2.049.66,2.049,1.819v3.268H474.2v-.509a2.087,2.087,0,0,1-1.489.589A1.579,1.579,0,0,1,470.939,156.223Zm2.079.729a1.79,1.79,0,0,0,1.179-.409v-.819a2.591,2.591,0,0,0-1.159-.24c-.64,0-1.039.279-1.039.719C472,156.663,472.4,156.952,473.018,156.952Z"></path>
    <path id="path400" d="M477.818,157.662h-1.129v-7.146l1.129-.19Z"></path>
    <path id="path402" d="M480.338,157.662h-1.13v-7.146l1.13-.19Z"></path>
    <path id="path404" d="M484.119,150.666h3.108a2.133,2.133,0,0,1,2.339,2.119,1.988,1.988,0,0,1-1.38,1.919l1.47,2.958h-1.329l-1.35-2.8h-1.659v2.8h-1.2Zm1.2,1.01v2.229h1.808a1.12,1.12,0,1,0,0-2.229Z"></path>
    <path id="path406" d="M490.789,150.666h1.2v2.948h3.477v-2.948h1.2v7h-1.2v-3h-3.477v3h-1.2Z"></path>
    <path id="path408" d="M503.5,155.774l.789.759a3.591,3.591,0,1,1,.03-4.738l-.81.8a2.461,2.461,0,1,0-1.879,4.088A2.375,2.375,0,0,0,503.5,155.774Z"></path>
    <path id="path410" d="M508.6,157.773a3.609,3.609,0,1,1,3.538-3.609A3.543,3.543,0,0,1,508.6,157.773Zm.011-6.148a2.544,2.544,0,0,0,0,5.068,2.546,2.546,0,0,0,0-5.068Z"></path>
    <path id="path412" d="M513.539,155.753a3.5,3.5,0,0,0,2.348,1.02c.929,0,1.569-.47,1.569-1.11,0-.569-.339-.829-1.269-1l-1.29-.219c-1.209-.221-1.8-.821-1.8-1.78,0-1.26,1.01-2.1,2.579-2.1a4.673,4.673,0,0,1,2.809.909l-.611.9a3.623,3.623,0,0,0-2.238-.809c-.84,0-1.389.42-1.389.989,0,.5.31.76,1.08.88l1.239.22c1.409.24,2.068.859,2.068,1.918,0,1.28-1.139,2.189-2.808,2.189a4.41,4.41,0,0,1-2.939-1.129Z"></path>
    <path id="path414" d="M473.254,161.666h1.2v2.948h3.477v-2.948h1.2v7h-1.2v-3h-3.477v3h-1.2Z"></path>
    <path id="path416" d="M482.913,163.575a2.595,2.595,0,1,1-2.519,2.588A2.5,2.5,0,0,1,482.913,163.575Zm1.4,2.6a1.415,1.415,0,1,0-2.8,0,1.413,1.413,0,1,0,2.8,0Z"></path>
    <path id="path418" d="M486.684,167.323a2.885,2.885,0,0,0,1.609.57c.6,0,1.009-.27,1.009-.67,0-.31-.209-.48-.689-.569l-.89-.151c-.969-.18-1.449-.629-1.449-1.379,0-.939.769-1.549,1.939-1.549a3.522,3.522,0,0,1,1.969.6l-.529.739a2.739,2.739,0,0,0-1.51-.479c-.519,0-.859.22-.859.59,0,.319.179.459.71.549l.879.16c1,.19,1.479.65,1.479,1.4a1.835,1.835,0,0,1-2.039,1.629,3.35,3.35,0,0,1-2.158-.68Z"></path>
    <path id="path420" d="M491.914,164.555h-1.009v-.9h1.009v-1.379l1.129-.24v1.619h1.4v.9h-1.4v2.538c0,.49.19.68.7.68a2.1,2.1,0,0,0,.679-.12v.95a3.552,3.552,0,0,1-.969.139c-1.009,0-1.539-.479-1.539-1.4Z"></path>
    <path id="path422" d="M495.614,167.323a2.882,2.882,0,0,0,1.609.57c.6,0,1.009-.27,1.009-.67,0-.31-.209-.48-.69-.569l-.889-.151c-.969-.18-1.449-.629-1.449-1.379,0-.939.769-1.549,1.939-1.549a3.525,3.525,0,0,1,1.969.6l-.529.739a2.739,2.739,0,0,0-1.51-.479c-.52,0-.86.22-.86.59,0,.319.18.459.71.549l.879.16c1,.19,1.48.65,1.48,1.4a1.835,1.835,0,0,1-2.039,1.629,3.355,3.355,0,0,1-2.159-.68Z"></path>
  </g>
  <g id="g430">
    <rect id="rect426" height="43.736" width="101.632" y="213.496" x="435.228" class="cls-6"></rect>
    <path id="path428" d="M536.36,214v42.737H435.728V214H536.36m1-1H434.728v44.737H537.36V213Z" class="cls-3"></path>
  </g>
  <g id="g470">
    <path id="path432" d="M475.085,230.745l.79.76a3.59,3.59,0,1,1,.031-4.738l-.81.8a2.461,2.461,0,1,0-1.88,4.088A2.368,2.368,0,0,0,475.085,230.745Z"></path>
    <path id="path434" d="M478.108,232.634h-1.129v-7.146l1.129-.19Z"></path>
    <path id="path436" d="M480.6,230.605a1.079,1.079,0,0,0,1.1,1.2,1.262,1.262,0,0,0,1.1-.62v-3.558h1.129v5.007H482.8v-.829a1.833,1.833,0,0,1-1.6.909,1.68,1.68,0,0,1-1.73-1.789v-3.3h1.13Z"></path>
    <path id="path438" d="M485.4,231.3a2.887,2.887,0,0,0,1.608.569c.6,0,1.01-.269,1.01-.669,0-.31-.21-.48-.689-.57l-.89-.15c-.97-.18-1.449-.629-1.449-1.379,0-.94.769-1.549,1.938-1.549a3.526,3.526,0,0,1,1.97.6l-.53.739a2.735,2.735,0,0,0-1.509-.48c-.52,0-.859.22-.859.59,0,.32.179.459.709.55l.879.159c1,.191,1.48.651,1.48,1.4a1.835,1.835,0,0,1-2.039,1.629,3.358,3.358,0,0,1-2.159-.68Z"></path>
    <path id="path440" d="M490.628,228.527h-1.009v-.9h1.009v-1.38l1.129-.239v1.619h1.4v.9h-1.4v2.538c0,.49.191.679.7.679a2.079,2.079,0,0,0,.679-.12v.95a3.554,3.554,0,0,1-.97.14c-1.009,0-1.539-.479-1.539-1.4Z"></path>
    <path id="path442" d="M496.4,232.734a2.546,2.546,0,0,1-2.549-2.6,2.466,2.466,0,0,1,2.439-2.588,2.4,2.4,0,0,1,2.369,2.578v.28h-3.7a1.529,1.529,0,0,0,1.5,1.37,1.625,1.625,0,0,0,1.189-.47l.74.689A2.9,2.9,0,0,1,496.4,232.734Zm-1.419-3.018h2.608a1.37,1.37,0,0,0-1.309-1.25A1.346,1.346,0,0,0,494.978,229.716Z"></path>
    <path id="path444" d="M499.808,227.627h1.13v1.089a1.485,1.485,0,0,1,1.379-1.18,1.36,1.36,0,0,1,.489.1v.989a1.588,1.588,0,0,0-.619-.12,1.374,1.374,0,0,0-1.249.83v3.3h-1.13Z"></path>
    <path id="path446" d="M460.939,236.638h1.2v7h-1.2Z"></path>
    <path id="path448" d="M463.629,238.627h1.129v.819a1.819,1.819,0,0,1,1.589-.9,1.685,1.685,0,0,1,1.73,1.789v3.3h-1.13v-2.979a1.078,1.078,0,0,0-1.1-1.2,1.284,1.284,0,0,0-1.09.6v3.578h-1.129Z"></path>
    <path id="path450" d="M469.529,242.3a2.888,2.888,0,0,0,1.609.569c.6,0,1.009-.269,1.009-.669,0-.31-.209-.48-.689-.57l-.89-.15c-.969-.18-1.449-.629-1.449-1.379,0-.94.769-1.549,1.939-1.549a3.525,3.525,0,0,1,1.969.6l-.529.739a2.741,2.741,0,0,0-1.51-.48c-.52,0-.86.22-.86.59,0,.32.18.459.71.55l.879.159c1,.191,1.48.651,1.48,1.4a1.835,1.835,0,0,1-2.039,1.629,3.355,3.355,0,0,1-2.158-.68Z"></path>
    <path id="path452" d="M474.758,239.527H473.75v-.9h1.008v-1.38l1.13-.239v1.619h1.4v.9h-1.4v2.538c0,.49.19.679.7.679a2.076,2.076,0,0,0,.68-.12v.95a3.554,3.554,0,0,1-.97.14c-1.008,0-1.539-.479-1.539-1.4Z"></path>
    <path id="path454" d="M478.029,242.2c0-.9.729-1.469,1.909-1.469a3.091,3.091,0,0,1,1.349.309v-.549c0-.66-.38-1-1.15-1a3.474,3.474,0,0,0-1.459.389l-.4-.819a4.788,4.788,0,0,1,2.078-.51c1.3,0,2.049.659,2.049,1.818v3.269h-1.119v-.51a2.09,2.09,0,0,1-1.49.59A1.579,1.579,0,0,1,478.029,242.2Zm2.079.729a1.79,1.79,0,0,0,1.179-.409V241.7a2.593,2.593,0,0,0-1.16-.241c-.639,0-1.039.28-1.039.72C479.088,242.635,479.488,242.924,480.108,242.924Z"></path>
    <path id="path456" d="M484.908,243.634h-1.129v-7.146l1.129-.19Z"></path>
    <path id="path458" d="M487.428,243.634H486.3v-7.146l1.13-.19Z"></path>
    <path id="path460" d="M488.569,242.2c0-.9.729-1.469,1.909-1.469a3.091,3.091,0,0,1,1.349.309v-.549c0-.66-.38-1-1.15-1a3.474,3.474,0,0,0-1.459.389l-.4-.819a4.788,4.788,0,0,1,2.078-.51c1.3,0,2.049.659,2.049,1.818v3.269h-1.119v-.51a2.09,2.09,0,0,1-1.49.59A1.579,1.579,0,0,1,488.569,242.2Zm2.079.729a1.79,1.79,0,0,0,1.179-.409V241.7a2.593,2.593,0,0,0-1.16-.241c-.639,0-1.039.28-1.039.72C489.628,242.635,490.028,242.924,490.648,242.924Z"></path>
    <path id="path462" d="M494.789,239.527h-1.01v-.9h1.01v-1.38l1.128-.239v1.619h1.4v.9h-1.4v2.538c0,.49.191.679.7.679a2.074,2.074,0,0,0,.679-.12v.95a3.553,3.553,0,0,1-.969.14c-1.01,0-1.539-.479-1.539-1.4Z"></path>
    <path id="path464" d="M498.168,236.918a.705.705,0,0,1,1.41,0,.705.705,0,0,1-1.41,0Zm1.27,6.716h-1.13v-5.007h1.13Z"></path>
    <path id="path466" d="M503.117,238.547a2.595,2.595,0,1,1-2.519,2.588A2.5,2.5,0,0,1,503.117,238.547Zm1.4,2.6a1.415,1.415,0,1,0-2.8,0,1.413,1.413,0,1,0,2.8,0Z"></path>
    <path id="path468" d="M506.808,238.627h1.13v.819a1.818,1.818,0,0,1,1.589-.9,1.684,1.684,0,0,1,1.728,1.789v3.3h-1.129v-2.979a1.078,1.078,0,0,0-1.1-1.2,1.284,1.284,0,0,0-1.089.6v3.578h-1.13Z"></path>
  </g>
  <g id="g476">
    <rect id="rect472" height="43.737" width="101.632" y="288.468" x="435.228" class="cls-2"></rect>
    <path id="path474" d="M536.36,288.968v42.737H435.728V288.968H536.36m1-1H434.728v44.737H537.36V287.968Z" class="cls-3"></path>
  </g>
  <g id="g482">
    <rect id="rect478" height="43.737" width="101.632" y="288.468" x="569.561" class="cls-2"></rect>
    <path id="path480" d="M670.693,288.968v42.737H570.062V288.968H670.693m1-1H569.062v44.737H671.693V287.968Z" class="cls-3"></path>
  </g>
  <g id="g488">
    <rect id="rect484" height="43.737" width="101.632" y="288.468" x="702.895" class="cls-2"></rect>
    <path id="path486" d="M804.026,288.968v42.737H703.4V288.968H804.026m1-1H702.4v44.737H805.026V287.968Z" class="cls-3"></path>
  </g>
  <g id="g494">
    <line id="line490" y2="310.336" x2="563.18" y1="310.336" x1="537.86" class="cls-4"></line>
    <polygon id="polygon492" points="562.085 314.076 568.562 310.337 562.085 306.597 562.085 314.076" class="cls-5"></polygon>
  </g>
  <g id="g500">
    <line id="line496" y2="310.336" x2="696.813" y1="310.336" x1="671.493" class="cls-4"></line>
    <polygon id="polygon498" points="695.718 314.076 702.194 310.337 695.718 306.597 695.718 314.076" class="cls-5"></polygon>
  </g>
  <g id="g524">
    <path id="path502" d="M459.267,306.18c1.319,0,2.209.739,2.209,1.839a1.677,1.677,0,0,1-1.119,1.549,1.75,1.75,0,0,1,1.359,1.659,2.04,2.04,0,0,1-2.308,1.949h-3.249v-7Zm-1.908.979v1.959h1.789c.689,0,1.129-.38,1.129-.979s-.44-.98-1.129-.98Zm3.147,3.958a1.09,1.09,0,0,0-1.239-1.069h-1.908V312.2h1.908A1.1,1.1,0,0,0,460.506,311.117Z"></path>
    <path id="path504" d="M462.729,311.737c0-.9.729-1.469,1.909-1.469a3.1,3.1,0,0,1,1.35.309v-.549c0-.66-.38-1-1.15-1a3.47,3.47,0,0,0-1.459.389l-.4-.819a4.792,4.792,0,0,1,2.079-.51c1.3,0,2.049.659,2.049,1.818v3.269h-1.119v-.51a2.091,2.091,0,0,1-1.489.59A1.58,1.58,0,0,1,462.729,311.737Zm2.079.729a1.791,1.791,0,0,0,1.18-.409v-.819a2.6,2.6,0,0,0-1.159-.241c-.64,0-1.04.28-1.04.72C463.789,312.177,464.189,312.466,464.808,312.466Z"></path>
    <path id="path506" d="M468.559,311.837a2.89,2.89,0,0,0,1.609.569c.6,0,1.009-.269,1.009-.669,0-.31-.209-.48-.689-.57l-.89-.15c-.969-.18-1.449-.629-1.449-1.379,0-.94.769-1.549,1.939-1.549a3.522,3.522,0,0,1,1.969.6l-.529.739a2.741,2.741,0,0,0-1.51-.48c-.519,0-.859.22-.859.59,0,.32.179.459.71.55l.879.159c1,.191,1.479.651,1.479,1.4a1.835,1.835,0,0,1-2.039,1.629,3.355,3.355,0,0,1-2.158-.68Z"></path>
    <path id="path508" d="M473.128,306.46a.705.705,0,0,1,1.41,0,.705.705,0,0,1-1.41,0Zm1.27,6.716h-1.129v-5.007H474.4Z"></path>
    <path id="path510" d="M479.367,311.727l.679.679a2.6,2.6,0,0,1-1.959.87,2.589,2.589,0,0,1,0-5.177,2.7,2.7,0,0,1,2,.84l-.7.729a1.659,1.659,0,0,0-1.26-.59,1.607,1.607,0,0,0,.031,3.2A1.542,1.542,0,0,0,479.367,311.727Z"></path>
    <path id="path512" d="M488.606,311.287l.789.76a3.591,3.591,0,1,1,.03-4.738l-.809.8a2.461,2.461,0,1,0-1.879,4.087A2.371,2.371,0,0,0,488.606,311.287Z"></path>
    <path id="path514" d="M490.5,306.03l1.129-.19v3.148a1.818,1.818,0,0,1,1.589-.9,1.684,1.684,0,0,1,1.729,1.789v3.3h-1.129V310.2a1.079,1.079,0,0,0-1.1-1.2,1.284,1.284,0,0,0-1.089.6v3.578H490.5Z"></path>
    <path id="path516" d="M498.637,313.276a2.546,2.546,0,0,1-2.549-2.6,2.466,2.466,0,0,1,2.439-2.588,2.4,2.4,0,0,1,2.369,2.578v.28h-3.7a1.529,1.529,0,0,0,1.5,1.37,1.624,1.624,0,0,0,1.189-.47l.74.689A2.9,2.9,0,0,1,498.637,313.276Zm-1.419-3.018h2.609a1.371,1.371,0,0,0-1.31-1.25A1.346,1.346,0,0,0,497.218,310.258Z"></path>
    <path id="path518" d="M505.657,311.727l.678.679a2.6,2.6,0,0,1-1.958.87,2.589,2.589,0,0,1,0-5.177,2.694,2.694,0,0,1,2,.84l-.7.729a1.656,1.656,0,0,0-1.259-.59,1.607,1.607,0,0,0,.03,3.2A1.544,1.544,0,0,0,505.657,311.727Z"></path>
    <path id="path520" d="M507.308,306.03l1.13-.19v4.468l2.078-2.139h1.29l-2.289,2.319,2.429,2.688H510.5l-2.059-2.309v2.309h-1.13Z"></path>
    <path id="path522" d="M512.758,311.837a2.893,2.893,0,0,0,1.61.569c.6,0,1.008-.269,1.008-.669,0-.31-.209-.48-.689-.57l-.89-.15c-.968-.18-1.449-.629-1.449-1.379,0-.94.77-1.549,1.94-1.549a3.519,3.519,0,0,1,1.968.6l-.529.739a2.738,2.738,0,0,0-1.51-.48c-.519,0-.859.22-.859.59,0,.32.18.459.71.55l.879.159c1,.191,1.479.651,1.479,1.4a1.835,1.835,0,0,1-2.039,1.629,3.355,3.355,0,0,1-2.158-.68Z"></path>
  </g>
  <g id="g554">
    <path id="path526" d="M609.337,300.68H611.9a3.5,3.5,0,1,1,0,7h-2.559Zm1.2,1.039v4.918h1.389a2.47,2.47,0,0,0,0-4.918Z"></path>
    <path id="path528" d="M616.267,306.237c0-.9.73-1.469,1.909-1.469a3.1,3.1,0,0,1,1.35.309v-.549c0-.66-.38-1-1.15-1a3.478,3.478,0,0,0-1.459.389l-.4-.819a4.792,4.792,0,0,1,2.079-.51c1.3,0,2.049.659,2.049,1.818v3.269h-1.119v-.51a2.091,2.091,0,0,1-1.489.59A1.58,1.58,0,0,1,616.267,306.237Zm2.079.729a1.791,1.791,0,0,0,1.18-.409v-.819a2.592,2.592,0,0,0-1.159-.241c-.64,0-1.04.28-1.04.72C617.327,306.677,617.727,306.966,618.346,306.966Z"></path>
    <path id="path530" d="M623.2,307.706l-1.89-5.037h1.26l1.269,3.718,1.4-3.718h1.229l-2.378,5.826a1.692,1.692,0,0,1-1.779,1.32,2.4,2.4,0,0,1-.57-.07v-.969a4.416,4.416,0,0,0,.44.04.8.8,0,0,0,.81-.58Z"></path>
    <path id="path532" d="M631.537,307.676h-1.09V301.82l-1.239.539v-.969l1.638-.71h.691Z"></path>
    <path id="path534" d="M598.266,318.786a3.609,3.609,0,1,1,3.538-3.608A3.542,3.542,0,0,1,598.266,318.786Zm.01-6.147a2.545,2.545,0,1,0,2.3,2.539A2.394,2.394,0,0,0,598.276,312.639Z"></path>
    <path id="path536" d="M603.018,313.669h1.109v.719a1.886,1.886,0,0,1,1.559-.759,2.4,2.4,0,0,1,2.269,2.548,2.427,2.427,0,0,1-2.349,2.549,1.872,1.872,0,0,1-1.459-.65V320.8h-1.129Zm1.129,1.469v2.089a1.539,1.539,0,0,0,1.2.55,1.6,1.6,0,0,0,0-3.2A1.47,1.47,0,0,0,604.147,315.138Z"></path>
    <path id="path538" d="M611.476,318.776a2.546,2.546,0,0,1-2.549-2.6,2.466,2.466,0,0,1,2.439-2.588,2.4,2.4,0,0,1,2.369,2.578v.28h-3.7a1.529,1.529,0,0,0,1.5,1.37,1.625,1.625,0,0,0,1.189-.47l.74.689A2.9,2.9,0,0,1,611.476,318.776Zm-1.419-3.018h2.609a1.371,1.371,0,0,0-1.31-1.25A1.346,1.346,0,0,0,610.057,315.758Z"></path>
    <path id="path540" d="M614.887,313.669h1.13v1.089a1.485,1.485,0,0,1,1.379-1.18,1.36,1.36,0,0,1,.489.1v.989a1.585,1.585,0,0,0-.619-.12,1.374,1.374,0,0,0-1.249.83v3.3h-1.13Z"></path>
    <path id="path542" d="M618.4,317.237c0-.9.729-1.469,1.909-1.469a3.088,3.088,0,0,1,1.349.309v-.549c0-.66-.38-1-1.15-1a3.474,3.474,0,0,0-1.459.389l-.4-.819a4.788,4.788,0,0,1,2.078-.51c1.3,0,2.049.659,2.049,1.818v3.269h-1.119v-.51a2.088,2.088,0,0,1-1.489.59A1.579,1.579,0,0,1,618.4,317.237Zm2.079.729a1.79,1.79,0,0,0,1.179-.409v-.819a2.592,2.592,0,0,0-1.159-.241c-.64,0-1.039.28-1.039.72C619.458,317.677,619.857,317.966,620.477,317.966Z"></path>
    <path id="path544" d="M624.617,314.569h-1.009v-.9h1.009v-1.38l1.13-.239v1.619h1.4v.9h-1.4v2.538c0,.49.189.679.7.679a2.07,2.07,0,0,0,.679-.12v.95a3.547,3.547,0,0,1-.969.14c-1.009,0-1.539-.479-1.539-1.4Z"></path>
    <path id="path546" d="M628,311.96a.7.7,0,0,1,1.409,0,.7.7,0,0,1-1.409,0Zm1.269,6.716h-1.13v-5.007h1.13Z"></path>
    <path id="path548" d="M632.946,313.589a2.595,2.595,0,1,1-2.519,2.588A2.5,2.5,0,0,1,632.946,313.589Zm1.4,2.6a1.415,1.415,0,1,0-2.8,0,1.413,1.413,0,1,0,2.8,0Z"></path>
    <path id="path550" d="M636.637,313.669h1.13v.819a1.818,1.818,0,0,1,1.589-.9,1.684,1.684,0,0,1,1.728,1.789v3.3h-1.128V315.7a1.079,1.079,0,0,0-1.1-1.2,1.284,1.284,0,0,0-1.089.6v3.578h-1.13Z"></path>
    <path id="path552" d="M642.538,317.337a2.885,2.885,0,0,0,1.608.569c.6,0,1.01-.269,1.01-.669,0-.31-.21-.48-.69-.57l-.889-.15c-.97-.18-1.45-.629-1.45-1.379,0-.94.77-1.549,1.939-1.549a3.526,3.526,0,0,1,1.97.6l-.531.739a2.732,2.732,0,0,0-1.508-.48c-.52,0-.86.22-.86.59,0,.32.18.459.709.55l.88.159c1,.191,1.48.651,1.48,1.4a1.835,1.835,0,0,1-2.039,1.629,3.361,3.361,0,0,1-2.16-.68Z"></path>
  </g>
  <g id="g584">
    <path id="path556" d="M741.531,300.68h2.558a3.5,3.5,0,1,1,0,7h-2.558Zm1.2,1.039v4.918h1.39a2.47,2.47,0,0,0,0-4.918Z"></path>
    <path id="path558" d="M748.46,306.237c0-.9.73-1.469,1.91-1.469a3.094,3.094,0,0,1,1.349.309v-.549c0-.66-.38-1-1.149-1a3.47,3.47,0,0,0-1.459.389l-.4-.819a4.8,4.8,0,0,1,2.08-.51c1.3,0,2.048.659,2.048,1.818v3.269h-1.119v-.51a2.091,2.091,0,0,1-1.489.59A1.58,1.58,0,0,1,748.46,306.237Zm2.08.729a1.789,1.789,0,0,0,1.179-.409v-.819a2.589,2.589,0,0,0-1.159-.241c-.64,0-1.04.28-1.04.72C749.52,306.677,749.92,306.966,750.54,306.966Z"></path>
    <path id="path560" d="M755.39,307.706l-1.89-5.037h1.26l1.27,3.718,1.4-3.718h1.23L756.28,308.5a1.694,1.694,0,0,1-1.78,1.32,2.4,2.4,0,0,1-.57-.07v-.969a4.426,4.426,0,0,0,.441.04.8.8,0,0,0,.809-.58Z"></path>
    <path id="path562" d="M761.541,306.886l2.868-3a1.869,1.869,0,0,0,.679-1.319,1.14,1.14,0,0,0-1.279-1.03,2.524,2.524,0,0,0-1.809.86l-.62-.749a3.541,3.541,0,0,1,2.459-1.06c1.369,0,2.309.779,2.309,1.909a2.67,2.67,0,0,1-1,1.948l-2.239,2.309,3.368-.019v.939h-4.737Z"></path>
    <path id="path564" d="M731.6,318.786a3.609,3.609,0,1,1,3.538-3.608A3.542,3.542,0,0,1,731.6,318.786Zm.011-6.147a2.545,2.545,0,1,0,2.3,2.539A2.395,2.395,0,0,0,731.61,312.639Z"></path>
    <path id="path566" d="M736.351,313.669h1.109v.719a1.887,1.887,0,0,1,1.56-.759,2.4,2.4,0,0,1,2.269,2.548,2.427,2.427,0,0,1-2.349,2.549,1.869,1.869,0,0,1-1.459-.65V320.8h-1.13Zm1.13,1.469v2.089a1.537,1.537,0,0,0,1.2.55,1.6,1.6,0,0,0,0-3.2A1.469,1.469,0,0,0,737.481,315.138Z"></path>
    <path id="path568" d="M744.81,318.776a2.545,2.545,0,0,1-2.549-2.6,2.466,2.466,0,0,1,2.439-2.588,2.4,2.4,0,0,1,2.368,2.578v.28h-3.7a1.528,1.528,0,0,0,1.5,1.37,1.627,1.627,0,0,0,1.189-.47l.739.689A2.892,2.892,0,0,1,744.81,318.776Zm-1.42-3.018H746a1.371,1.371,0,0,0-1.309-1.25A1.346,1.346,0,0,0,743.39,315.758Z"></path>
    <path id="path570" d="M748.221,313.669h1.129v1.089a1.486,1.486,0,0,1,1.379-1.18,1.361,1.361,0,0,1,.49.1v.989a1.59,1.59,0,0,0-.62-.12,1.375,1.375,0,0,0-1.249.83v3.3h-1.129Z"></path>
    <path id="path572" d="M751.731,317.237c0-.9.729-1.469,1.909-1.469a3.1,3.1,0,0,1,1.35.309v-.549c0-.66-.38-1-1.15-1a3.47,3.47,0,0,0-1.459.389l-.4-.819a4.792,4.792,0,0,1,2.079-.51c1.3,0,2.049.659,2.049,1.818v3.269H754.99v-.51a2.092,2.092,0,0,1-1.49.59A1.579,1.579,0,0,1,751.731,317.237Zm2.079.729a1.791,1.791,0,0,0,1.18-.409v-.819a2.6,2.6,0,0,0-1.159-.241c-.64,0-1.04.28-1.04.72C752.791,317.677,753.191,317.966,753.81,317.966Z"></path>
    <path id="path574" d="M757.951,314.569h-1.01v-.9h1.01v-1.38l1.129-.239v1.619h1.4v.9h-1.4v2.538c0,.49.19.679.7.679a2.074,2.074,0,0,0,.679-.12v.95a3.547,3.547,0,0,1-.969.14c-1.01,0-1.539-.479-1.539-1.4Z"></path>
    <path id="path576" d="M761.331,311.96a.7.7,0,0,1,1.409,0,.7.7,0,0,1-1.409,0Zm1.269,6.716h-1.129v-5.007H762.6Z"></path>
    <path id="path578" d="M766.28,313.589a2.595,2.595,0,1,1-2.519,2.588A2.5,2.5,0,0,1,766.28,313.589Zm1.4,2.6a1.416,1.416,0,1,0-2.8,0,1.413,1.413,0,1,0,2.8,0Z"></path>
    <path id="path580" d="M769.971,313.669H771.1v.819a1.819,1.819,0,0,1,1.589-.9,1.685,1.685,0,0,1,1.729,1.789v3.3h-1.129V315.7a1.078,1.078,0,0,0-1.1-1.2,1.284,1.284,0,0,0-1.09.6v3.578h-1.129Z"></path>
    <path id="path582" d="M775.871,317.337a2.888,2.888,0,0,0,1.609.569c.6,0,1.009-.269,1.009-.669,0-.31-.209-.48-.69-.57l-.889-.15c-.969-.18-1.45-.629-1.45-1.379,0-.94.77-1.549,1.94-1.549a3.525,3.525,0,0,1,1.969.6l-.53.739a2.738,2.738,0,0,0-1.509-.48c-.52,0-.86.22-.86.59,0,.32.18.459.71.55l.879.159c1,.191,1.48.651,1.48,1.4a1.835,1.835,0,0,1-2.039,1.629,3.358,3.358,0,0,1-2.159-.68Z"></path>
  </g>
  <g id="g610">
    <path id="path586" d="M167.216,37.669h1.719v7h-1.719Z"></path>
    <path id="path588" d="M172.015,37.669l3.109,4.237-.03-4.237h1.619v7h-1.519l-3.209-4.378.03,4.378H170.4v-7Z"></path>
    <path id="path590" d="M178.566,42.437a3.844,3.844,0,0,0,2.269.929c.739,0,1.189-.3,1.189-.73,0-.409-.24-.6-.92-.73l-1.489-.259a1.855,1.855,0,0,1-1.719-1.869c0-1.359,1.04-2.208,2.779-2.208a4.753,4.753,0,0,1,2.868.918l-.869,1.25a3.338,3.338,0,0,0-2.089-.77c-.68,0-1.069.28-1.069.66,0,.35.229.54.789.63l1.4.239c1.31.231,2,.91,2,1.98,0,1.359-1.159,2.288-2.988,2.288a4.951,4.951,0,0,1-3.028-1.06Z"></path>
    <path id="path592" d="M184.106,37.669h6.227v1.469h-2.249v5.527h-1.719V39.138h-2.259Z"></path>
    <path id="path594" d="M192.1,37.669h1.959l2.689,7h-1.859L194.3,43h-2.558l-.59,1.669h-1.789Zm1.749,4-.809-2.319-.82,2.319Z"></path>
    <path id="path596" d="M197.546,37.669h1.719V43.2h3.468v1.469h-5.187Z"></path>
    <path id="path598" d="M204.026,37.669h1.719V43.2h3.468v1.469h-5.187Z"></path>
    <path id="path600" d="M212.575,37.669h1.959l2.688,7h-1.859L214.784,43h-2.559l-.59,1.669h-1.789Zm1.749,4-.81-2.319-.819,2.319Z"></path>
    <path id="path602" d="M216.256,37.669h6.227v1.469h-2.249v5.527h-1.719V39.138h-2.259Z"></path>
    <path id="path604" d="M223.376,37.669H225.1v7h-1.719Z"></path>
    <path id="path606" d="M229.844,44.776a3.609,3.609,0,1,1,3.608-3.609A3.578,3.578,0,0,1,229.844,44.776Zm-.011-5.688a2.095,2.095,0,1,0,1.84,2.079A1.923,1.923,0,0,0,229.833,39.088Z"></path>
    <path id="path608" d="M236.3,37.669l3.109,4.237-.03-4.237H241v7h-1.519l-3.209-4.378.03,4.378h-1.618v-7Z"></path>
  </g>
  <g id="g646">
    <path id="path612" d="M567.857,37.669h3.418a2.286,2.286,0,1,1,0,4.558h-1.7v2.438h-1.719Zm1.719,1.419v1.77h1.388c.7,0,1.04-.38,1.04-.89s-.339-.88-1.029-.88Z"></path>
    <path id="path614" d="M578.245,44.776a3.609,3.609,0,1,1,3.608-3.609A3.579,3.579,0,0,1,578.245,44.776Zm-.01-5.688a2.095,2.095,0,1,0,1.839,2.079A1.923,1.923,0,0,0,578.235,39.088Z"></path>
    <path id="path616" d="M583.376,42.437a3.846,3.846,0,0,0,2.269.929c.739,0,1.189-.3,1.189-.73,0-.409-.24-.6-.919-.73l-1.49-.259a1.854,1.854,0,0,1-1.718-1.869c0-1.359,1.04-2.208,2.778-2.208a4.756,4.756,0,0,1,2.869.918l-.87,1.25a3.338,3.338,0,0,0-2.089-.77c-.68,0-1.069.28-1.069.66,0,.35.229.54.79.63l1.4.239c1.31.231,2,.91,2,1.98,0,1.359-1.159,2.288-2.988,2.288a4.953,4.953,0,0,1-3.028-1.06Z"></path>
    <path id="path618" d="M588.917,37.669h6.226v1.469h-2.249v5.527h-1.719V39.138h-2.258Z"></path>
    <path id="path620" d="M599.294,41.127v1.35h-3.677v-1.35Z"></path>
    <path id="path622" d="M600.486,37.669h1.72v7h-1.72Z"></path>
    <path id="path624" d="M605.286,37.669l3.107,4.237-.029-4.237h1.619v7h-1.52l-3.208-4.378.031,4.378h-1.619v-7Z"></path>
    <path id="path626" d="M611.835,42.437a3.846,3.846,0,0,0,2.27.929c.739,0,1.188-.3,1.188-.73,0-.409-.239-.6-.918-.73l-1.49-.259a1.854,1.854,0,0,1-1.718-1.869c0-1.359,1.039-2.208,2.778-2.208a4.755,4.755,0,0,1,2.868.918l-.869,1.25a3.34,3.34,0,0,0-2.089-.77c-.68,0-1.069.28-1.069.66,0,.35.229.54.789.63l1.4.239c1.31.231,2,.91,2,1.98,0,1.359-1.159,2.288-2.988,2.288a4.951,4.951,0,0,1-3.028-1.06Z"></path>
    <path id="path628" d="M617.376,37.669H623.6v1.469h-2.249v5.527h-1.719V39.138h-2.259Z"></path>
    <path id="path630" d="M625.365,37.669h1.959l2.688,7h-1.858L627.574,43h-2.559l-.59,1.669h-1.789Zm1.749,4-.81-2.319-.819,2.319Z"></path>
    <path id="path632" d="M630.816,37.669h1.719V43.2H636v1.469h-5.187Z"></path>
    <path id="path634" d="M637.3,37.669h1.719V43.2h3.468v1.469H637.3Z"></path>
    <path id="path636" d="M645.844,37.669H647.8l2.689,7h-1.859L648.053,43H645.5l-.59,1.669h-1.789Zm1.749,4-.809-2.319-.82,2.319Z"></path>
    <path id="path638" d="M649.526,37.669h6.226v1.469H653.5v5.527h-1.718V39.138h-2.259Z"></path>
    <path id="path640" d="M656.646,37.669h1.719v7h-1.719Z"></path>
    <path id="path642" d="M663.114,44.776a3.609,3.609,0,1,1,3.608-3.609A3.578,3.578,0,0,1,663.114,44.776Zm-.01-5.688a2.095,2.095,0,1,0,1.839,2.079A1.923,1.923,0,0,0,663.1,39.088Z"></path>
    <path id="path644" d="M669.575,37.669l3.108,4.237-.03-4.237h1.619v7h-1.519l-3.209-4.378.031,4.378h-1.619v-7Z"></path>
  </g>
</svg>
