<svg id="Layer_1" data-name="Layer 1" xmlns="http://www.w3.org/2000/svg" width="8.3in" height="1.8in" xmlns:xlink="http://www.w3.org/1999/xlink" version="1.1" viewBox="0 0 595.3 128.1">
  <defs>
    <style>
      .cls-1 {
        fill: #e34e3b;
      }

      .cls-1, .cls-2, .cls-3, .cls-4, .cls-5, .cls-6, .cls-7, .cls-8, .cls-9, .cls-10, .cls-11, .cls-12, .cls-13, .cls-14, .cls-15, .cls-16, .cls-17, .cls-18 {
        stroke-width: 0px;
      }

      .cls-19 {
        clip-path: url(#clippath);
      }

      .cls-2, .cls-20 {
        fill: none;
      }

      .cls-21 {
        font-family: RedHatText-Medium, 'Red Hat Text';
        font-size: 10px;
        font-weight: 500;
      }

      .cls-21, .cls-9 {
        fill: #000;
      }

      .cls-21, .cls-22 {
        isolation: isolate;
      }

      .cls-3 {
        fill: #d0e8f0;
      }

      .cls-4 {
        fill: #f8d6d8;
      }

      .cls-5 {
        fill: #e6f5f8;
      }

      .cls-23 {
        stroke-linecap: round;
        stroke-linejoin: round;
        stroke-width: 1.5px;
      }

      .cls-23, .cls-20 {
        stroke: #000;
      }

      .cls-23, .cls-24, .cls-17 {
        fill: #fff;
      }

      .cls-6 {
        fill: #ac213b;
      }

      .cls-7 {
        fill: #b6cfea;
      }

      .cls-8 {
        fill: #da212e;
      }

      .cls-25 {
        clip-path: url(#clippath-1);
      }

      .cls-26 {
        clip-path: url(#clippath-4);
      }

      .cls-27 {
        clip-path: url(#clippath-3);
      }

      .cls-28 {
        clip-path: url(#clippath-2);
      }

      .cls-10 {
        fill: #010101;
      }

      .cls-11 {
        fill: #ef5034;
      }

      .cls-20, .cls-24 {
        stroke-miterlimit: 10;
      }

      .cls-12 {
        fill: #ea2126;
      }

      .cls-13 {
        fill: #ee794b;
      }

      .cls-14 {
        fill: #c12133;
      }

      .cls-24 {
        stroke: #c8c8c8;
      }

      .cls-15 {
        fill: #e9654b;
      }

      .cls-16 {
        fill: #fbdfc3;
      }

      .cls-18 {
        fill: #b92133;
      }
    </style>
    <clipPath id="clippath">
      <rect class="cls-2" x="368.9" y="33.9" width="18.7" height="21.7"></rect>
    </clipPath>
    <clipPath id="clippath-1">
      <polygon class="cls-2" points="387.4 34 386.4 58.7 370.1 58.7 369.2 34 387.4 34"></polygon>
    </clipPath>
    <clipPath id="clippath-2">
      <rect class="cls-2" x="351" y="16.5" width="54.4" height="54.4"></rect>
    </clipPath>
    <clipPath id="clippath-3">
      <rect class="cls-2" x="351" y="16.5" width="54.4" height="54.4"></rect>
    </clipPath>
    <clipPath id="clippath-4">
      <rect class="cls-2" x="351" y="16.5" width="54.4" height="54.4"></rect>
    </clipPath>
  </defs>
  <rect class="cls-24" x="14.7" y="11.4" width="94.2" height="105.3"></rect>
  <rect class="cls-24" x="172.6" y="11.4" width="94.2" height="105.3"></rect>
  <rect class="cls-24" x="330.4" y="11.4" width="94.2" height="105.3"></rect>
  <rect class="cls-24" x="488.2" y="11.4" width="94.2" height="105.3"></rect>
  <g>
    <g class="cls-22">
      <path class="cls-9" d="M38,81.4c0-2,1.6-3.6,3.5-3.6s3.5,1.6,3.5,3.6-1.6,3.6-3.5,3.6-3.5-1.6-3.5-3.6ZM43.8,81.4c0-1.4-1-2.5-2.3-2.5s-2.3,1.1-2.3,2.5,1,2.5,2.3,2.5,2.3-1.1,2.3-2.5Z"></path>
      <path class="cls-9" d="M46.3,79.8h1.1v.7c.4-.5.9-.7,1.6-.7,1.3,0,2.3,1.1,2.3,2.5s-1,2.5-2.3,2.5-1.1-.2-1.5-.6v2.7h-1.1v-7.1ZM50.1,82.4c0-.9-.6-1.6-1.5-1.6s-.9.2-1.2.6v2.1c.3.3.7.6,1.2.6.9,0,1.5-.7,1.5-1.6Z"></path>
      <path class="cls-9" d="M52.2,82.4c0-1.5,1.1-2.6,2.4-2.6s2.4,1.1,2.4,2.6v.3h-3.7c.1.8.7,1.4,1.5,1.4s.9-.2,1.2-.5l.7.7c-.6.5-1.2.7-2,.7-1.4,0-2.6-1.1-2.6-2.6ZM55.9,81.9c-.1-.7-.6-1.2-1.3-1.2s-1.2.5-1.3,1.2h2.6Z"></path>
      <path class="cls-9" d="M58.1,79.8h1.1v.8c.4-.6.9-.9,1.6-.9,1,0,1.7.7,1.7,1.8v3.3h-1.1v-3c0-.7-.4-1.2-1.1-1.2s-.8.2-1.1.6v3.6h-1.1v-5Z"></path>
      <path class="cls-9" d="M63.5,83.8l.6-.9c.9.7,1.5,1,2.4,1s1.6-.5,1.6-1.1-.3-.8-1.3-1l-1.3-.2c-1.2-.2-1.8-.8-1.8-1.8s1-2.1,2.6-2.1,2,.3,2.8.9l-.6.9c-.7-.5-1.4-.8-2.2-.8s-1.4.4-1.4,1,.3.8,1.1.9l1.2.2c1.4.2,2.1.9,2.1,1.9s-1.1,2.2-2.8,2.2-2-.4-2.9-1.1Z"></path>
      <path class="cls-9" d="M70.3,77.7l1.1-.2v3.2c.4-.6.9-.9,1.6-.9,1,0,1.7.7,1.7,1.8v3.3h-1.1v-3c0-.7-.4-1.2-1.1-1.2s-.8.2-1.1.6v3.6h-1.1v-7.2Z"></path>
      <path class="cls-9" d="M76,78.1c0-.4.3-.7.7-.7s.7.3.7.7-.3.7-.7.7-.7-.3-.7-.7ZM76.1,79.8h1.1v5h-1.1v-5Z"></path>
      <path class="cls-9" d="M79.3,80.7h-1.1v-.9h1.1v-.9c0-1.1.6-1.7,1.7-1.7s.6,0,.7,0v1c-.2,0-.4,0-.6,0-.5,0-.7.2-.7.7v.8h1.3v.9h-1.3v4.1h-1.1v-4.1Z"></path>
      <path class="cls-9" d="M83.4,83.6v-2.8h-1v-.9h1v-1.4l1.1-.2v1.6h1.4v.9h-1.4v2.6c0,.5.2.7.7.7s.4,0,.7-.1v.9c-.3,0-.7.1-1,.1-1,0-1.5-.5-1.5-1.4Z"></path>
      <path class="cls-9" d="M30.7,95.4c0-.9.7-1.5,1.9-1.5s.9,0,1.3.3v-.6c0-.7-.4-1-1.1-1s-.9.1-1.5.4l-.4-.8c.7-.3,1.4-.5,2.1-.5,1.3,0,2,.7,2,1.8v3.3h-1.1v-.5c-.4.4-.9.6-1.5.6-1,0-1.8-.6-1.8-1.5ZM32.8,96.1c.4,0,.8-.1,1.2-.4v-.8c-.4-.2-.7-.2-1.1-.2-.6,0-1.1.3-1.1.7s.4.8,1,.8Z"></path>
      <path class="cls-9" d="M36.2,94.4c0-1.4,1-2.5,2.3-2.5s1.1.2,1.5.6v-2.8l1.1-.2v7.4h-1.1v-.7c-.4.4-.9.7-1.5.7-1.3,0-2.3-1.1-2.3-2.5ZM40,95.4v-2.1c-.3-.3-.7-.5-1.2-.5-.9,0-1.5.7-1.5,1.6s.6,1.6,1.5,1.6.9-.2,1.2-.5Z"></path>
      <path class="cls-9" d="M42.6,91.8h1.1v.8c.4-.6.9-.9,1.5-.9s1.2.4,1.5,1c.4-.6.9-1,1.7-1s1.6.8,1.6,1.8v3.3h-1.1v-3c0-.7-.4-1.1-1-1.1s-.7.2-1,.6c0,.1,0,.2,0,.3v3.3h-1.1v-3c0-.7-.4-1.1-1-1.1s-.7.2-1,.6v3.6h-1.1v-5Z"></path>
      <path class="cls-9" d="M51.2,90.1c0-.4.3-.7.7-.7s.7.3.7.7-.3.7-.7.7-.7-.3-.7-.7ZM51.3,91.8h1.1v5h-1.1v-5Z"></path>
      <path class="cls-9" d="M53.9,91.8h1.1v.8c.4-.6.9-.9,1.6-.9,1,0,1.7.7,1.7,1.8v3.3h-1.1v-3c0-.7-.4-1.2-1.1-1.2s-.8.2-1.1.6v3.6h-1.1v-5Z"></path>
      <path class="cls-9" d="M59.5,90.1c0-.4.3-.7.7-.7s.7.3.7.7-.3.7-.7.7-.7-.3-.7-.7ZM59.7,91.8h1.1v5h-1.1v-5Z"></path>
      <path class="cls-9" d="M61.7,96.3l.5-.8c.7.4,1.1.6,1.6.6s1-.3,1-.7-.2-.5-.7-.6h-.9c-1-.3-1.4-.8-1.4-1.5s.8-1.5,1.9-1.5,1.3.2,2,.6l-.5.8c-.5-.3-1-.5-1.5-.5s-.9.2-.9.6.2.5.7.5l.9.2c1,.2,1.5.6,1.5,1.4s-.9,1.6-2,1.6-1.6-.2-2.1-.7Z"></path>
      <path class="cls-9" d="M67.5,95.6v-2.8h-1v-.9h1v-1.4l1.1-.2v1.6h1.4v.9h-1.4v2.6c0,.5.2.7.7.7s.4,0,.7-.1v.9c-.3,0-.7.1-1,.1-1,0-1.5-.5-1.5-1.4Z"></path>
      <path class="cls-9" d="M71,91.8h1.1v1.1c.3-.8.8-1.2,1.4-1.2.2,0,.3,0,.5,0v1c-.2,0-.4-.1-.6-.1-.5,0-1,.3-1.2.8v3.3h-1.1v-5Z"></path>
      <path class="cls-9" d="M74.5,95.4c0-.9.7-1.5,1.9-1.5s.9,0,1.3.3v-.6c0-.7-.4-1-1.1-1s-.9.1-1.5.4l-.4-.8c.7-.3,1.4-.5,2.1-.5,1.3,0,2,.7,2,1.8v3.3h-1.1v-.5c-.4.4-.9.6-1.5.6-1,0-1.8-.6-1.8-1.5ZM76.6,96.1c.4,0,.8-.1,1.2-.4v-.8c-.4-.2-.7-.2-1.1-.2-.6,0-1.1.3-1.1.7s.4.8,1,.8Z"></path>
      <path class="cls-9" d="M80.8,95.6v-2.8h-1v-.9h1v-1.4l1.1-.2v1.6h1.4v.9h-1.4v2.6c0,.5.2.7.7.7s.4,0,.7-.1v.9c-.3,0-.7.1-1,.1-1,0-1.5-.5-1.5-1.4Z"></path>
      <path class="cls-9" d="M84,94.4c0-1.5,1.1-2.6,2.5-2.6s2.5,1.1,2.5,2.6-1.1,2.6-2.5,2.6-2.5-1.1-2.5-2.6ZM87.9,94.4c0-.9-.6-1.6-1.4-1.6s-1.4.7-1.4,1.6.6,1.6,1.4,1.6,1.4-.7,1.4-1.6Z"></path>
      <path class="cls-9" d="M90.2,91.8h1.1v1.1c.3-.8.8-1.2,1.4-1.2.2,0,.3,0,.5,0v1c-.2,0-.4-.1-.6-.1-.5,0-1,.3-1.2.8v3.3h-1.1v-5Z"></path>
    </g>
    <g>
      <path class="cls-23" d="M81.5,67.2c-.1-10.9-9-19.6-19.9-19.5-10.7.1-19.3,8.8-19.5,19.5h39.3Z"></path>
      <ellipse class="cls-23" cx="61.8" cy="38.1" rx="9.9" ry="9.7"></ellipse>
    </g>
  </g>
  <g>
    <line class="cls-20" x1="109" y1="64" x2="167.2" y2="64"></line>
    <polygon class="cls-9" points="166.1 67.8 172.6 64 166.1 60.3 166.1 67.8"></polygon>
  </g>
  <g>
    <line class="cls-20" x1="266.8" y1="64" x2="325" y2="64"></line>
    <polygon class="cls-9" points="323.9 67.8 330.4 64 323.9 60.3 323.9 67.8"></polygon>
  </g>
  <g>
    <line class="cls-20" x1="430" y1="64" x2="482.8" y2="64"></line>
    <polygon class="cls-9" points="431.1 67.8 424.6 64 431.1 60.3 431.1 67.8"></polygon>
    <polygon class="cls-9" points="481.7 67.8 488.2 64 481.7 60.3 481.7 67.8"></polygon>
  </g>
  <g>
    <path class="cls-11" d="M220.3,78.1h-1.3c-.5-.3-1-.5-1.4-.9-.9-1-1.9-1.9-2.9-2.9-5.5-5.5-11.1-11.1-16.6-16.6-.2-.2-.3-.3-.5-.5-1.1-1.2-1.1-2.9,0-4.1,4.4-4.4,8.9-8.9,13.3-13.3.3-.3.4-.3.6,0,1.5,1.5,3,3,4.5,4.5.2.2.3.4.2.7-.4,1.6.2,3.1,1.6,3.9.4.2.4.5.4.8,0,3.8,0,7.5,0,11.3,0,.4-.1.7-.5.9-1.3.8-1.9,2.4-1.5,3.9.4,1.4,1.7,2.5,3.2,2.5,1.6,0,3-.9,3.5-2.4.5-1.5,0-3.1-1.3-3.9-.4-.2-.4-.5-.4-.9,0-3.7,0-7.4,0-11.1,0-.2,0-.4,0-.6.2,0,.3.2.5.4,1.3,1.2,2.5,2.5,3.7,3.7.3.3.4.6.3,1.1-.6,2.2,1.3,4.4,3.6,4.2,2.1-.2,3.5-1.9,3.2-4-.3-2-2.1-3.3-4.2-2.9-.3,0-.5,0-.8-.3-1.4-1.5-2.9-2.9-4.4-4.4-.2-.2-.3-.4-.2-.7.5-2.5-1.6-4.6-4.1-4.1-.3,0-.5,0-.7-.2-1.5-1.6-3.1-3.1-4.6-4.6-.3-.3-.3-.4,0-.7,1.3-1.3,2.6-2.5,3.8-3.8.3-.3.7-.6,1.2-.7,1.3-.4,2.3,0,3.3,1,6.3,6.3,12.6,12.6,18.9,18.9.6.6,1.2,1.3,1.5,2.2v1.3c-.4,1.1-1.3,1.8-2.1,2.5-6,6-11.9,11.9-17.9,17.9-.6.6-1.3,1.3-2.2,1.6Z"></path>
    <text class="cls-21" transform="translate(212.3 92.6)"><tspan x="0" y="0">Git</tspan></text>
  </g>
  <g>
    <g class="cls-22">
      <path class="cls-9" d="M360.5,77.7h1.4l2.7,7h-1.3l-.7-2h-2.9l-.7,2h-1.2l2.7-7ZM362.3,81.8l-1.1-3-1.1,3h2.2Z"></path>
      <path class="cls-9" d="M365.4,79.7h1.1v1.1c.3-.8.8-1.2,1.4-1.2.2,0,.3,0,.5.1v1c-.2,0-.4-.1-.6-.1-.5,0-1,.3-1.2.8v3.3h-1.1v-5Z"></path>
      <path class="cls-9" d="M369.4,86.4l.4-.8c.6.3,1.1.4,1.6.4.8,0,1.3-.4,1.3-1.1v-.8c-.4.4-.9.7-1.5.7-1.3,0-2.3-1.1-2.3-2.5s1-2.5,2.3-2.5,1.1.2,1.5.7v-.6h1.1v5.2c0,1.3-.8,2-2.4,2s-1.4-.2-2-.5ZM372.6,83.2v-2.1c-.3-.3-.7-.5-1.2-.5-.9,0-1.5.7-1.5,1.6s.6,1.6,1.5,1.6.9-.2,1.2-.5Z"></path>
      <path class="cls-9" d="M374.9,82.2c0-1.5,1.1-2.6,2.5-2.6s2.5,1.1,2.5,2.6-1.1,2.6-2.5,2.6-2.5-1.1-2.5-2.6ZM378.8,82.2c0-.9-.6-1.6-1.4-1.6s-1.4.7-1.4,1.6.6,1.6,1.4,1.6,1.4-.7,1.4-1.6Z"></path>
      <path class="cls-9" d="M383.2,81.2c0-2,1.6-3.6,3.6-3.6s2.1.5,2.7,1.2l-.8.8c-.5-.6-1.2-.9-1.9-.9-1.4,0-2.4,1.1-2.4,2.5s1,2.5,2.4,2.5,1.4-.3,1.9-.9l.8.8c-.6.8-1.7,1.2-2.7,1.2-2,0-3.6-1.6-3.6-3.6Z"></path>
      <path class="cls-9" d="M390.7,77.7h2.6c2,0,3.5,1.5,3.5,3.5s-1.5,3.5-3.5,3.5h-2.6v-7ZM393.3,83.7c1.3,0,2.2-1.1,2.2-2.5s-1-2.5-2.2-2.5h-1.4v4.9h1.4Z"></path>
      <path class="cls-9" d="M344.5,95.3c0-.9.7-1.5,1.9-1.5s.9,0,1.3.3v-.6c0-.7-.4-1-1.1-1s-.9.1-1.5.4l-.4-.8c.8-.3,1.4-.5,2.1-.5,1.3,0,2,.7,2,1.8v3.3h-1.1v-.5c-.4.4-.9.6-1.5.6-1,0-1.8-.6-1.8-1.5ZM346.6,96c.5,0,.8-.1,1.2-.4v-.8c-.4-.2-.7-.2-1.1-.2-.6,0-1.1.3-1.1.7s.4.7,1,.7Z"></path>
      <path class="cls-9" d="M350.1,94.2c0-1.4,1-2.5,2.3-2.5s1.1.2,1.5.6v-2.8l1.1-.2v7.4h-1.1v-.7c-.4.4-.9.7-1.5.7-1.3,0-2.3-1.1-2.3-2.5ZM353.9,95.3v-2.1c-.3-.3-.7-.5-1.2-.5-.9,0-1.5.7-1.5,1.6s.6,1.6,1.5,1.6.9-.2,1.2-.5Z"></path>
      <path class="cls-9" d="M356.4,91.7h1.1v.8c.4-.6.9-.9,1.5-.9s1.2.4,1.5,1c.4-.6,1-1,1.7-1s1.6.7,1.6,1.8v3.3h-1.1v-3c0-.7-.4-1.1-1-1.1s-.7.2-1,.6c0,0,0,.2,0,.3v3.3h-1.1v-3c0-.7-.4-1.1-1-1.1s-.7.2-1,.6v3.6h-1.1v-5Z"></path>
      <path class="cls-9" d="M365,90c0-.4.3-.7.7-.7s.7.3.7.7-.3.7-.7.7-.7-.3-.7-.7ZM365.1,91.7h1.1v5h-1.1v-5Z"></path>
      <path class="cls-9" d="M367.7,91.7h1.1v.8c.4-.6.9-.9,1.6-.9,1,0,1.7.7,1.7,1.8v3.3h-1.1v-3c0-.7-.4-1.2-1.1-1.2s-.8.2-1.1.6v3.6h-1.1v-5Z"></path>
      <path class="cls-9" d="M373.3,90c0-.4.3-.7.7-.7s.7.3.7.7-.3.7-.7.7-.7-.3-.7-.7ZM373.5,91.7h1.1v5h-1.1v-5Z"></path>
      <path class="cls-9" d="M375.6,96.1l.5-.7c.7.4,1.1.6,1.6.6s1-.3,1-.7-.2-.5-.7-.6l-.9-.2c-1-.2-1.4-.6-1.4-1.4s.8-1.5,1.9-1.5,1.3.2,2,.6l-.5.7c-.5-.3-1-.5-1.5-.5s-.9.2-.9.6.2.5.7.5l.9.2c1,.2,1.5.6,1.5,1.4s-.9,1.6-2,1.6-1.6-.2-2.1-.7Z"></path>
      <path class="cls-9" d="M381.3,95.4v-2.8h-1v-.9h1v-1.4l1.1-.2v1.6h1.4v.9h-1.4v2.6c0,.5.2.7.7.7s.4,0,.7-.1v.9c-.3,0-.7.1-1,.1-1,0-1.5-.5-1.5-1.4Z"></path>
      <path class="cls-9" d="M384.8,91.7h1.1v1.1c.3-.8.8-1.2,1.4-1.2.2,0,.3,0,.5.1v1c-.2,0-.4-.1-.6-.1-.5,0-1,.3-1.2.8v3.3h-1.1v-5Z"></path>
      <path class="cls-9" d="M388.4,95.3c0-.9.7-1.5,1.9-1.5s.9,0,1.3.3v-.6c0-.7-.4-1-1.1-1s-.9.1-1.5.4l-.4-.8c.8-.3,1.4-.5,2.1-.5,1.3,0,2,.7,2,1.8v3.3h-1.1v-.5c-.4.4-.9.6-1.5.6-1,0-1.8-.6-1.8-1.5ZM390.4,96c.5,0,.8-.1,1.2-.4v-.8c-.4-.2-.7-.2-1.1-.2-.6,0-1.1.3-1.1.7s.4.7,1,.7Z"></path>
      <path class="cls-9" d="M394.6,95.4v-2.8h-1v-.9h1v-1.4l1.1-.2v1.6h1.4v.9h-1.4v2.6c0,.5.2.7.7.7s.4,0,.7-.1v.9c-.3,0-.7.1-1,.1-1,0-1.5-.5-1.5-1.4Z"></path>
      <path class="cls-9" d="M398,90c0-.4.3-.7.7-.7s.7.3.7.7-.3.7-.7.7-.7-.3-.7-.7ZM398.1,91.7h1.1v5h-1.1v-5Z"></path>
      <path class="cls-9" d="M400,91.7h1.2l1.4,3.6,1.4-3.6h1.2l-2.1,5h-1.1l-2-5Z"></path>
      <path class="cls-9" d="M405.7,94.2c0-1.5,1.1-2.6,2.4-2.6s2.4,1.1,2.4,2.6v.3h-3.7c.1.8.7,1.4,1.5,1.4s.9-.2,1.2-.5l.7.7c-.6.5-1.2.7-2,.7-1.4,0-2.6-1.1-2.6-2.6ZM409.4,93.8c-.1-.7-.6-1.2-1.3-1.2s-1.2.5-1.3,1.2h2.6Z"></path>
      <path class="cls-9" d="M358.4,102c0-.4.3-.7.7-.7s.7.3.7.7-.3.7-.7.7-.7-.3-.7-.7ZM358.5,103.7h1.1v5h-1.1v-5Z"></path>
      <path class="cls-9" d="M361.1,103.7h1.1v.8c.4-.6.9-.9,1.6-.9,1,0,1.7.7,1.7,1.8v3.3h-1.1v-3c0-.7-.4-1.2-1.1-1.2s-.8.2-1.1.6v3.6h-1.1v-5Z"></path>
      <path class="cls-9" d="M366.4,108.1l.5-.7c.7.4,1.1.6,1.6.6s1-.3,1-.7-.2-.5-.7-.6l-.9-.2c-1-.2-1.4-.6-1.4-1.4s.8-1.5,1.9-1.5,1.3.2,2,.6l-.5.7c-.5-.3-1-.5-1.5-.5s-.9.2-.9.6.2.5.7.5l.9.2c1,.2,1.5.6,1.5,1.4s-.9,1.6-2,1.6-1.6-.2-2.1-.7Z"></path>
      <path class="cls-9" d="M372.2,107.4v-2.8h-1v-.9h1v-1.4l1.1-.2v1.6h1.4v.9h-1.4v2.6c0,.5.2.7.7.7s.4,0,.7-.1v.9c-.3,0-.7.1-1,.1-1,0-1.5-.5-1.5-1.4Z"></path>
      <path class="cls-9" d="M375.5,107.3c0-.9.7-1.5,1.9-1.5s.9,0,1.3.3v-.6c0-.7-.4-1-1.1-1s-.9.1-1.5.4l-.4-.8c.8-.3,1.4-.5,2.1-.5,1.3,0,2,.7,2,1.8v3.3h-1.1v-.5c-.4.4-.9.6-1.5.6-1,0-1.8-.6-1.8-1.5ZM377.6,108c.5,0,.8-.1,1.2-.4v-.8c-.4-.2-.7-.2-1.1-.2-.6,0-1.1.3-1.1.7s.4.7,1,.7Z"></path>
      <path class="cls-9" d="M381.2,103.7h1.1v.8c.4-.6.9-.9,1.6-.9,1,0,1.7.7,1.7,1.8v3.3h-1.1v-3c0-.7-.4-1.2-1.1-1.2s-.8.2-1.1.6v3.6h-1.1v-5Z"></path>
      <path class="cls-9" d="M386.8,106.2c0-1.4,1.1-2.6,2.5-2.6s1.5.3,2,.8l-.7.7c-.3-.4-.8-.6-1.3-.6-.8,0-1.4.7-1.4,1.6s.6,1.6,1.4,1.6.9-.2,1.3-.6l.7.7c-.5.5-1.2.8-2,.8-1.4,0-2.5-1.1-2.5-2.6Z"></path>
      <path class="cls-9" d="M391.9,106.2c0-1.5,1.1-2.6,2.4-2.6s2.4,1.1,2.4,2.6v.3h-3.7c.1.8.7,1.4,1.5,1.4s.9-.2,1.2-.5l.7.7c-.6.5-1.2.7-2,.7-1.4,0-2.6-1.1-2.6-2.6ZM395.6,105.8c-.1-.7-.6-1.2-1.3-1.2s-1.2.5-1.3,1.2h2.6Z"></path>
    </g>
    <g>
      <path class="cls-15" d="M369.7,54.6s-.4,1.1-.9,1.6c-.3.4-.8.6-1.3.5-.9.2-1.8.4-2.7.5,0,0,1.3.2,2.7.4q.5,0,.9.2c.9,0,1.3-.5,1.3-.5v-2.7ZM386.4,54.6s.4,1.1.9,1.6c.3.4.8.6,1.3.5.9.2,1.8.4,2.7.5,0,0-1.3.2-2.9.4q-.5,0-.9.2c-1.1,0-1.3-.5-1.3-.5l.2-2.7Z"></path>
      <path class="cls-7" d="M397.7,36.7c0,10.8-8.7,19.5-19.5,19.5s-19.5-8.7-19.5-19.5,8.7-19.5,19.5-19.5,19.5,8.7,19.5,19.5Z"></path>
      <path class="cls-5" d="M397,36.7c0,10.4-8.4,18.8-18.8,18.8s-18.8-8.4-18.8-18.8c0-10.4,8.4-18.8,18.8-18.8s18.8,8.4,18.8,18.8h0Z"></path>
      <path class="cls-3" d="M393.6,37c0,8.5-6.9,15.4-15.4,15.4s-15.4-6.9-15.4-15.4,6.9-15.4,15.4-15.4,15.4,6.9,15.4,15.4h0Z"></path>
      <path class="cls-13" d="M369.2,44.3s1.3,20.4,1.3,20.8.2.5-.7.9c-.9.4-3.8,1.1-3.8,1.1h4.3c2,0,2-1.6,2-2s.5-8.1.5-8.1c0,0,.2,9.2.2,9.6s-.2.9-1.4,1.3c-.9.2-3.6.7-3.6.7h4.2c2.5,0,2.5-1.6,2.5-1.6l.5-8.1s.2,8.1.2,9-.5,1.3-2.5,1.6c-1.3.4-2.9.7-2.9.7h4.7c2.3-.2,2.7-1.8,2.7-1.8l4-20.2-12.1-3.8Z"></path>
      <path class="cls-13" d="M387.3,44.3s-1.3,20.4-1.3,20.8-.2.5.7.9c.9.4,3.8,1.1,3.8,1.1h-4.3c-2,0-2-1.6-2-2s-.5-8.1-.5-8.1c0,0-.2,9.2-.2,9.6s.2.9,1.4,1.3l3.6.7h-4.2c-2.5,0-2.5-1.6-2.5-1.6l-.5-8.1s-.2,8.1-.2,9,.5,1.3,2.5,1.6c1.3.4,2.9.7,2.9.7h-4.7c-2.3-.2-2.7-1.8-2.7-1.8l-4-20.2,12.1-3.8ZM387.4,34.3c0,5.1-4.2,9-9,9s-9-4.2-9-9,4.2-9,9-9,9,4,9,9Z"></path>
      <g class="cls-19">
        <g class="cls-25">
          <path class="cls-13" d="M394.5,39.2c0,8.9-7.2,16.1-16.1,16.1s-16.1-7.2-16.1-16.1,7.2-16.1,16.1-16.1,16.1,7.2,16.1,16.1h0Z"></path>
        </g>
      </g>
      <g class="cls-28">
        <g id="argocd-original-g">
          <path class="cls-1" d="M386.9,44.3s1.1-9.6-.4-13.2c-2.7-6.3-9-5.8-9-5.8,0,0,3.6,1.4,3.8,6.9.2,3.8,0,9.4,0,9.4l5.6,2.7Z"></path>
        </g>
      </g>
      <g class="cls-27">
        <g id="argocd-original-i">
          <path class="cls-16" d="M375.9,29.4c0,.7-.6,1.3-1.3,1.3-.7,0-1.3-.6-1.3-1.3,0,0,0,0,0,0,0-.7.6-1.3,1.3-1.3.7,0,1.3.6,1.3,1.3Z"></path>
        </g>
      </g>
      <path class="cls-10" d="M381.5,47.9c0,3.1-1.4,5.1-3.3,5.1s-3.3-2.3-3.3-5.4c0,0,1.4,2.9,3.4,2.9s3.1-2.5,3.1-2.5Z"></path>
      <path class="cls-17" d="M381.5,47.9c0,2-1.4,3.1-3.3,3.1s-3.1-1.4-3.1-3.3c0,0,1.4,1.8,3.4,1.8s2.9-1.6,2.9-1.6Z"></path>
      <path class="cls-15" d="M390.2,39.4c0,3.1-2.5,5.6-5.6,5.6s-5.6-2.5-5.6-5.6,2.5-5.6,5.6-5.6,5.6,2.5,5.6,5.6ZM377.5,39.4c0,3.1-2.5,5.6-5.6,5.6s-5.6-2.5-5.6-5.6,2.5-5.6,5.6-5.6,5.6,2.5,5.6,5.6h0Z"></path>
      <path class="cls-17" d="M388.9,39.4c0,2.4-1.9,4.3-4.3,4.3s-4.3-1.9-4.3-4.3,1.9-4.3,4.3-4.3,4.3,1.9,4.3,4.3ZM375.9,39.4c0,2.4-1.9,4.3-4.3,4.3s-4.3-1.9-4.3-4.3c0-2.4,1.9-4.3,4.3-4.3h0c2.4,0,4.3,1.9,4.3,4.3h0Z"></path>
      <path class="cls-10" d="M372.8,38.8c0,.7-.6,1.3-1.3,1.3-.7,0-1.3-.6-1.3-1.3h0c0-.7.6-1.3,1.3-1.3s1.3.6,1.3,1.3h0ZM385.8,38.8c0,.7-.5,1.3-1.2,1.3s-1.3-.5-1.3-1.2c0,0,0,0,0,0,0-.7.6-1.3,1.3-1.2.7,0,1.2.6,1.2,1.2h0ZM351,16.5"></path>
      <path class="cls-17" d="M373,22.2c0,.5-.4.9-.9.9s-.9-.4-.9-.9.4-.9.9-.9.9.4.9.9ZM365.6,46.6c-.2,0-.4,0-.5-.2-2.2-2.7-3.3-6.1-3.3-9.6,0-2.9.7-5.7,2.2-8.1,1.4-2.4,3.4-4.3,5.8-5.8.3-.1.7,0,.9.2.1.3,0,.7-.2.9-4.6,2.6-7.4,7.4-7.4,12.6,0,3.2,1.1,6.3,3.1,8.9.2.2.2.7-.2.9q-.2.2-.4.2h0Z"></path>
      <g class="cls-26">
        <g id="argocd-original-k">
          <path class="cls-15" d="M386.4,55.1v-1.4c-2.5,1.4-5.2,2.9-8.5,2.9s-6-1.6-8.3-2.9l.2,1.4s2.7,2.9,8.3,2.9c5.2-.2,8.3-2.9,8.3-2.9h0Z"></path>
        </g>
      </g>
    </g>
  </g>
  <g>
    <g class="cls-22">
      <path class="cls-9" d="M511.5,79.7c0-2,1.6-3.6,3.5-3.6s3.5,1.6,3.5,3.6-1.6,3.6-3.5,3.6-3.5-1.6-3.5-3.6ZM517.3,79.7c0-1.4-1-2.5-2.3-2.5s-2.3,1.1-2.3,2.5,1,2.5,2.3,2.5,2.3-1.1,2.3-2.5Z"></path>
      <path class="cls-9" d="M519.8,78.2h1.1v.7c.4-.5.9-.7,1.6-.7,1.3,0,2.3,1.1,2.3,2.5s-1,2.5-2.3,2.5-1.1-.2-1.5-.6v2.7h-1.1v-7.1ZM523.6,80.7c0-.9-.6-1.6-1.5-1.6s-.9.2-1.2.6v2.1c.3.3.7.6,1.2.6.9,0,1.5-.7,1.5-1.6Z"></path>
      <path class="cls-9" d="M525.6,80.7c0-1.5,1.1-2.6,2.4-2.6s2.4,1.1,2.4,2.6v.3h-3.7c.1.8.7,1.4,1.5,1.4s.9-.2,1.2-.5l.7.7c-.6.5-1.2.7-2,.7-1.4,0-2.6-1.1-2.6-2.6ZM529.4,80.3c-.1-.7-.6-1.2-1.3-1.2s-1.2.5-1.3,1.2h2.6Z"></path>
      <path class="cls-9" d="M531.6,78.2h1.1v.8c.4-.6.9-.9,1.6-.9,1,0,1.7.7,1.7,1.8v3.3h-1.1v-3c0-.7-.4-1.2-1.1-1.2s-.8.2-1.1.6v3.6h-1.1v-5Z"></path>
      <path class="cls-9" d="M537,82.2l.6-.9c.9.7,1.5,1,2.4,1s1.6-.5,1.6-1.1-.3-.8-1.3-1l-1.3-.2c-1.2-.2-1.8-.8-1.8-1.8s1-2.1,2.6-2.1,2,.3,2.8.9l-.6.9c-.7-.5-1.4-.8-2.2-.8s-1.4.4-1.4,1,.3.8,1.1.9l1.2.2c1.4.2,2.1.9,2.1,1.9s-1.1,2.2-2.8,2.2-2-.4-2.9-1.1Z"></path>
      <path class="cls-9" d="M543.8,76l1.1-.2v3.2c.4-.6.9-.9,1.6-.9,1,0,1.7.7,1.7,1.8v3.3h-1.1v-3c0-.7-.4-1.2-1.1-1.2s-.8.2-1.1.6v3.6h-1.1v-7.2Z"></path>
      <path class="cls-9" d="M549.5,76.5c0-.4.3-.7.7-.7s.7.3.7.7-.3.7-.7.7-.7-.3-.7-.7ZM549.6,78.2h1.1v5h-1.1v-5Z"></path>
      <path class="cls-9" d="M552.8,79.1h-1.1v-.9h1.1v-.9c0-1.1.6-1.7,1.7-1.7s.6,0,.7,0v1c-.2,0-.4,0-.6,0-.5,0-.7.2-.7.7v.8h1.3v.9h-1.3v4.1h-1.1v-4.1Z"></path>
      <path class="cls-9" d="M556.9,81.9v-2.8h-1v-.9h1v-1.4l1.1-.2v1.6h1.4v.9h-1.4v2.6c0,.5.2.7.7.7s.4,0,.7-.1v.9c-.3,0-.7.1-1,.1-1,0-1.5-.5-1.5-1.4Z"></path>
      <path class="cls-9" d="M513.3,90.2h1.1v1.1c.3-.8.8-1.2,1.4-1.2.2,0,.3,0,.5.1v1c-.2,0-.4-.1-.6-.1-.5,0-1,.3-1.2.8v3.3h-1.1v-5Z"></path>
      <path class="cls-9" d="M516.8,92.7c0-1.5,1.1-2.6,2.4-2.6s2.4,1.1,2.4,2.6v.3h-3.7c.1.8.7,1.4,1.5,1.4s.9-.2,1.2-.5l.7.7c-.6.5-1.2.7-2,.7-1.4,0-2.6-1.1-2.6-2.6ZM520.5,92.3c-.1-.7-.6-1.2-1.3-1.2s-1.2.5-1.3,1.2h2.6Z"></path>
      <path class="cls-9" d="M522.3,94.6l.5-.7c.7.4,1.1.6,1.6.6s1-.3,1-.7-.2-.5-.7-.6l-.9-.2c-1-.2-1.4-.6-1.4-1.4s.8-1.5,1.9-1.5,1.3.2,2,.6l-.5.7c-.5-.3-1-.5-1.5-.5s-.9.2-.9.6.2.5.7.5l.9.2c1,.2,1.5.6,1.5,1.4s-.9,1.6-2,1.6-1.6-.2-2.1-.7Z"></path>
      <path class="cls-9" d="M527.4,92.7c0-1.5,1.1-2.6,2.5-2.6s2.5,1.1,2.5,2.6-1.1,2.6-2.5,2.6-2.5-1.1-2.5-2.6ZM531.3,92.7c0-.9-.6-1.6-1.4-1.6s-1.4.7-1.4,1.6.6,1.6,1.4,1.6,1.4-.7,1.4-1.6Z"></path>
      <path class="cls-9" d="M533.6,93.5v-3.3h1.1v3c0,.7.4,1.2,1.1,1.2s.8-.2,1.1-.6v-3.6h1.1v5h-1.1v-.8c-.4.6-.9.9-1.6.9-1,0-1.7-.7-1.7-1.8Z"></path>
      <path class="cls-9" d="M539.4,90.2h1.1v1.1c.3-.8.8-1.2,1.4-1.2.2,0,.3,0,.5.1v1c-.2,0-.4-.1-.6-.1-.5,0-1,.3-1.2.8v3.3h-1.1v-5Z"></path>
      <path class="cls-9" d="M542.9,92.7c0-1.4,1.1-2.6,2.5-2.6s1.5.3,2,.8l-.7.7c-.3-.4-.8-.6-1.3-.6-.8,0-1.4.7-1.4,1.6s.6,1.6,1.4,1.6.9-.2,1.3-.6l.7.7c-.5.5-1.2.8-2,.8-1.4,0-2.5-1.1-2.5-2.6Z"></path>
      <path class="cls-9" d="M548,92.7c0-1.5,1.1-2.6,2.4-2.6s2.4,1.1,2.4,2.6v.3h-3.7c.1.8.7,1.4,1.5,1.4s.9-.2,1.2-.5l.7.7c-.6.5-1.2.7-2,.7-1.4,0-2.6-1.1-2.6-2.6ZM551.7,92.3c-.1-.7-.6-1.2-1.3-1.2s-1.2.5-1.3,1.2h2.6Z"></path>
      <path class="cls-9" d="M553.5,94.6l.5-.7c.7.4,1.1.6,1.6.6s1-.3,1-.7-.2-.5-.7-.6l-.9-.2c-1-.2-1.4-.6-1.4-1.4s.8-1.5,1.9-1.5,1.3.2,2,.6l-.5.7c-.5-.3-1-.5-1.5-.5s-.9.2-.9.6.2.5.7.5l.9.2c1,.2,1.5.6,1.5,1.4s-.9,1.6-2,1.6-1.6-.2-2.1-.7Z"></path>
    </g>
    <g>
      <path class="cls-4" d="M536.8,30s0,0,0,0h.7s0,0,0,0c0,0,0,0,0,0-.2,0-.4,0-.6,0,0,0,0,0,0,0Z"></path>
      <path class="cls-8" d="M536.8,30c.2,0,.5,0,.7,0,.9,0,1.7,0,2.6.2,1.2.2,2.3.5,3.4.9,2.7,1,5.1,2.5,7.1,4.6.6.7,1.2,1.3,1.7,2.1,0,0,0,0-.1,0-.9.3-1.8.7-2.8,1-.3.1-.6.2-.9.3-.5.2-1.1.4-1.6.6-.3.1-.7.2-1,.4-.1,0-.2,0-.3,0-.6-.6-1.3-1.1-2-1.6-1.1-.7-2.2-1.2-3.4-1.5-.7-.2-1.4-.3-2.1-.4-.4,0-.8,0-1.2,0-1.2,0-2.4.2-3.5.6-1.5.5-2.8,1.2-4,2.1-1.2,1-2.2,2.1-2.9,3.4-.7,1.2-1.2,2.5-1.4,3.9,0,.3,0,.6-.1.9,0,0,0,.1,0,.2,0,0-.2,0-.3.1-1.1.4-2.2.8-3.4,1.2,0,0-.1,0-.2,0-.7.3-1.5.5-2.2.8-.1,0-.3.1-.4.2,0,0,0,0,0,0,0-1.1,0-2.2,0-3.3.2-2.1.8-4,1.6-5.9,1.8-3.8,4.6-6.7,8.4-8.7,1.7-.9,3.4-1.5,5.3-1.8,1-.2,2-.3,2.9-.3Z"></path>
      <path class="cls-8" d="M555.7,49.9c0,.5,0,.9-.1,1.4-.3,1.8-.8,3.6-1.5,5.2-1.7,3.7-4.4,6.5-8,8.5-1.8,1-3.7,1.7-5.7,2-1.5.3-3,.4-4.4.3-4.2-.3-7.9-1.8-11-4.5-.4-.4-.9-.8-1.3-1.2,0,0,0,0,.2,0,.8-.3,1.5-.6,2.3-.8,1-.4,2-.7,3.1-1.1.5-.2,1-.4,1.6-.6.2,0,.3.1.4.2,1.2.7,2.5,1.2,3.9,1.4.6.1,1.2.2,1.8.2,1.5,0,2.9-.2,4.2-.6,1.4-.5,2.7-1.2,3.8-2.1,1.2-1,2.1-2.1,2.8-3.4.4-.7.7-1.3.9-2,0,0,0,0,0-.1.2-.1.5-.2.7-.3,1.4-.5,2.9-1,4.3-1.6.7-.2,1.3-.5,2-.7,0,0,0,0,.1,0Z"></path>
      <path class="cls-12" d="M521.9,59.6c-1,.4-2,.7-2.9,1.1-.1,0-.2,0-.2,0-1.3-1.9-2.2-3.9-2.8-6,0-.1,0-.2.1-.2,1.9-.7,3.7-1.4,5.6-2,0,0,0,0,0,0,.1-.1.3-.2.4-.2,0,.1,0,.2,0,.4.2,1.1.6,2.1,1.2,3.1.5.9,1,1.6,1.7,2.4,0,0,.2.2.2.3,0,0,0,0,0,.1,0,0,0,0,0,0-.9.3-1.8.7-2.8,1-.1,0-.3,0-.4.1,0,0-.1,0-.2,0Z"></path>
      <path class="cls-12" d="M550.8,41.7c.5,1,.9,2.1,1.2,3.1.3,1.2.5,2.4.6,3.6,0,0,0,0-.1,0-.5.2-1.1.4-1.6.6-.6.2-1.2.4-1.7.6-.9.3-1.9.7-2.8,1-.2,0-.3,0-.3-.2,0-.2,0-.4,0-.6,0-1.3-.2-2.5-.6-3.7-.2-.7-.5-1.4-.9-2-.1-.3-.1-.3.1-.4,1.2-.4,2.3-.8,3.5-1.3.7-.2,1.4-.5,2.1-.7.1,0,.3-.1.4-.1Z"></path>
      <path class="cls-14" d="M550.8,41.7c-.1,0-.3,0-.4.1,0,0,0,0-.1-.1-.3-.5-.6-1-.9-1.4-.2-.3-.5-.6-.7-.9,0,0-.1-.1-.1-.2.2,0,.3-.1.5-.2.9-.3,1.8-.6,2.7-1,.2,0,.4-.2.6-.2.4-.1.7-.3,1.1-.4.5-.2,1-.4,1.5-.6,0,0,.1,0,.2,0,.5.8,1,1.6,1.5,2.5,0,0,0,.1,0,.2-1.3.5-2.7,1-4,1.5-.6.2-1.1.4-1.7.6Z"></path>
      <path class="cls-18" d="M521.9,59.6c.7-.3,1.5-.5,2.2-.8.4-.1.8-.3,1.2-.4,0,0,.2,0,.3-.1.9-.3,1.8-.7,2.7-1,.1,0,.2,0,.2,0,.6.6,1.3,1.1,2,1.6,0,0,.1,0,.1.1-.2.1-.3.1-.5.2-1,.4-1.9.7-2.9,1-1.2.4-2.3.8-3.5,1.3,0,0-.1,0-.2,0-.4-.3-.7-.7-1-1.1-.2-.3-.5-.6-.7-.9Z"></path>
      <path class="cls-18" d="M549.2,49.6c.6-.2,1.2-.4,1.7-.6.6-.2,1.2-.4,1.7-.6.5-.2,1-.3,1.4-.5.5-.2,1-.4,1.5-.6,0,0,.1,0,.1,0,0,.8,0,1.6,0,2.4,0,0,0,0,0,0-.2,0-.5.2-.7.2-.5.2-1,.4-1.5.6-.9.3-1.9.7-2.8,1-.7.2-1.3.5-2,.7,0,0,0,0,0-.1.2-.7.4-1.4.5-2.2,0-.1,0-.2,0-.4,0,0,0,0,0-.1Z"></path>
      <path class="cls-14" d="M522.1,52.1c-.1,0-.3,0-.4.2,0-.3-.1-.5-.2-.8,0-.4-.1-.7-.2-1.1,0,0,0,0,.2,0,.8-.3,1.6-.6,2.3-.9,1-.4,2.1-.8,3.1-1.1.2,0,.4-.1.6-.2,0,0,0,0,.1,0,0,0,0,.2,0,.3,0,.5,0,1,.2,1.4,0,.2,0,.2-.2.3-1.3.5-2.5.9-3.8,1.4-.6.2-1.1.4-1.7.6,0,0,0,0-.1,0Z"></path>
      <path class="cls-6" d="M527.7,48.1c-.5.2-1,.3-1.4.5-.5.2-1,.4-1.5.6-.8.3-1.6.6-2.4.9-.3.1-.6.2-.9.3,0-.2,0-.4,0-.6,0-.2,0-.4,0-.6.2-.1.4-.2.7-.3,1-.4,2.1-.8,3.1-1.1,0,0,0,0,.1,0,.8-.3,1.6-.6,2.4-.9.2,0,.3,0,.2.2,0,.3,0,.7,0,1,0,0,0,0,0,.1Z"></path>
    </g>
  </g>
  <text class="cls-21" transform="translate(123.1 57.8)"><tspan x="0" y="0">commit</tspan></text>
  <text class="cls-21" transform="translate(445.8 57.8)"><tspan x="0" y="0">sync</tspan></text>
</svg>