<svg id="Layer_1" data-name="Layer 1" xmlns="http://www.w3.org/2000/svg" viewBox="0 0 595.28 723.04">
  <defs>
    <style>
      .cls-1, .cls-2, .cls-3, .cls-4, .cls-5, .cls-6, .cls-7, .cls-8, .cls-9, .cls-10 {
        font-family: RedHatText-Bold, 'Red Hat Text';
        font-weight: 700;
      }

      .cls-11 {
        stroke: #a1c2e7;
      }

      .cls-11, .cls-12, .cls-13, .cls-14, .cls-15, .cls-16, .cls-17, .cls-18 {
        fill: none;
      }

      .cls-11, .cls-12, .cls-13, .cls-14, .cls-16, .cls-18 {
        stroke-linecap: round;
        stroke-linejoin: round;
      }

      .cls-19, .cls-20, .cls-21, .cls-9 {
        font-size: 9px;
      }

      .cls-19, .cls-22, .cls-21, .cls-23, .cls-24, .cls-25, .cls-26, .cls-27, .cls-28 {
        font-family: RedHatText-Medium, 'Red Hat Text';
        font-weight: 500;
      }

      .cls-29 {
        fill: #e6e6e6;
      }

      .cls-12 {
        stroke-dasharray: 3;
      }

      .cls-12, .cls-14 {
        stroke: #c8c8c8;
      }

      .cls-30 {
        fill: #231f20;
      }

      .cls-2, .cls-31 {
        fill: #06c;
      }

      .cls-2, .cls-10 {
        font-size: 10px;
      }

      .cls-21, .cls-32 {
        fill: #fff;
      }

      .cls-23 {
        letter-spacing: 0em;
      }

      .cls-13, .cls-15, .cls-18 {
        stroke: #000;
      }

      .cls-33 {
        letter-spacing: 0em;
      }

      .cls-24 {
        letter-spacing: 0em;
      }

      .cls-34 {
        letter-spacing: 0em;
      }

      .cls-25 {
        letter-spacing: 0em;
      }

      .cls-35 {
        letter-spacing: 0em;
      }

      .cls-3, .cls-36 {
        letter-spacing: -.04em;
      }

      .cls-4, .cls-37 {
        letter-spacing: -.01em;
      }

      .cls-5, .cls-38 {
        letter-spacing: -.02em;
      }

      .cls-39 {
        letter-spacing: 0em;
      }

      .cls-15, .cls-17 {
        stroke-miterlimit: 10;
      }

      .cls-6, .cls-40 {
        letter-spacing: -.01em;
      }

      .cls-7, .cls-41 {
        letter-spacing: 0em;
      }

      .cls-16 {
        stroke: #231f20;
      }

      .cls-16, .cls-18 {
        stroke-dasharray: 3 3;
      }

      .cls-17 {
        stroke: #06c;
      }

      .cls-42 {
        fill: #f5f5f5;
      }

      .cls-26 {
        letter-spacing: 0em;
      }

      .cls-27 {
        letter-spacing: -.02em;
      }

      .cls-28, .cls-43 {
        letter-spacing: -.02em;
      }

      .cls-8, .cls-44 {
        letter-spacing: 0em;
      }

      .cls-45 {
        letter-spacing: -.1em;
      }

      .cls-46 {
        letter-spacing: -.02em;
      }

      .cls-47 {
        letter-spacing: -.02em;
      }

      .cls-48 {
        letter-spacing: -.02em;
      }

      .cls-49 {
        letter-spacing: -.01em;
      }

      .cls-50 {
        letter-spacing: -.01em;
      }

      .cls-51 {
        letter-spacing: -.04em;
      }

      .cls-52 {
        letter-spacing: -.04em;
      }

      .cls-53 {
        letter-spacing: 0em;
      }

      .cls-54 {
        letter-spacing: 0em;
      }

      .cls-55 {
        letter-spacing: 0em;
      }

      .cls-56 {
        letter-spacing: -.01em;
      }

      .cls-57 {
        letter-spacing: 0em;
      }

      .cls-58 {
        letter-spacing: 0em;
      }

      .cls-59 {
        letter-spacing: 0em;
      }

      .cls-60 {
        letter-spacing: 0em;
      }

      .cls-61 {
        letter-spacing: 0em;
      }

      .cls-62 {
        letter-spacing: 0em;
      }

      .cls-63 {
        letter-spacing: 0em;
      }

      .cls-64 {
        letter-spacing: 0em;
      }
    </style>
  </defs>
  <rect class="cls-32" width="595.28" height="723.04"></rect>
  <rect class="cls-17" x="16.56" y="322.11" width="562.88" height="381.64"></rect>
  <rect class="cls-29" x="146.41" y="615" width="203.58" height="45.2"></rect>
  <rect class="cls-17" x="136.75" y="330.2" width="434.07" height="247.63"></rect>
  <rect class="cls-29" x="146.41" y="437.12" width="203.58" height="45.2"></rect>
  <polyline class="cls-14" points="131 56.6 131 103.29 34.08 103.29"></polyline>
  <polyline class="cls-14" points="134.52 60.12 134.52 106.82 37.61 106.82"></polyline>
  <rect class="cls-32" x="74.57" y="99.77" width="10.04" height="10.76"></rect>
  <rect class="cls-17" x="16.56" y="21.21" width="562.88" height="266.75"></rect>
  <rect class="cls-29" x="31" y="53.08" width="96.91" height="46.69"></rect>
  <rect class="cls-29" x="146.41" y="56.6" width="203.58" height="46.69"></rect>
  <rect class="cls-29" x="457.41" y="95.81" width="99.72" height="33.92"></rect>
  <polyline class="cls-14" points="561.17 100.09 561.17 134.01 461.45 134.01"></polyline>
  <polyline class="cls-14" points="564.46 103.43 564.46 137.35 464.74 137.35"></polyline>
  <rect class="cls-29" x="457.41" y="145.49" width="99.72" height="33.92"></rect>
  <polyline class="cls-14" points="561.17 149.78 561.17 183.7 461.45 183.7"></polyline>
  <polyline class="cls-14" points="564.46 153.12 564.46 187.04 464.74 187.04"></polyline>
  <rect class="cls-29" x="457.41" y="198.08" width="99.72" height="33.92"></rect>
  <polyline class="cls-14" points="561.17 202.37 561.17 236.29 461.45 236.29"></polyline>
  <polyline class="cls-14" points="564.46 205.71 564.46 239.63 464.74 239.63"></polyline>
  <rect class="cls-29" x="457.41" y="438.94" width="99.72" height="33.92"></rect>
  <polyline class="cls-14" points="561.17 443.23 561.17 477.15 461.45 477.15"></polyline>
  <polyline class="cls-14" points="564.46 446.57 564.46 480.49 464.74 480.49"></polyline>
  <rect class="cls-29" x="146.41" y="223.81" width="203.58" height="45.18"></rect>
  <rect class="cls-12" x="142.89" y="53.08" width="210.67" height="53.74"></rect>
  <rect class="cls-12" x="142.89" y="219.52" width="210.67" height="53.74"></rect>
  <rect class="cls-42" x="153.39" y="242.79" width="91.81" height="19.87"></rect>
  <rect class="cls-42" x="251.2" y="242.79" width="91.81" height="19.87"></rect>
  <rect class="cls-42" x="153.39" y="77.21" width="91.81" height="19.87"></rect>
  <rect class="cls-42" x="251.2" y="77.21" width="91.81" height="19.87"></rect>
  <rect class="cls-42" x="153.39" y="456.24" width="91.81" height="19.87"></rect>
  <rect class="cls-42" x="251.2" y="456.24" width="91.81" height="19.87"></rect>
  <rect class="cls-31" x="146.41" y="358.89" width="99" height="36.82"></rect>
  <rect class="cls-31" x="146.41" y="515.34" width="203" height="45.2"></rect>
  <rect class="cls-29" x="31" y="437.12" width="98.92" height="45.2"></rect>
  <rect class="cls-42" x="153.39" y="634.12" width="91.81" height="19.87"></rect>
  <rect class="cls-42" x="251.2" y="634.12" width="91.81" height="19.87"></rect>
  <rect class="cls-29" x="353.99" y="615" width="99" height="45.2"></rect>
  <polyline class="cls-14" points="457.22 618.7 457.22 663.9 358.22 663.9"></polyline>
  <polyline class="cls-14" points="460.81 622.52 460.81 667.71 361.81 667.71"></polyline>
  <rect class="cls-31" x="250.41" y="358.89" width="99" height="36.82"></rect>
  <rect class="cls-31" x="353.99" y="515.34" width="99" height="45.2"></rect>
  <rect class="cls-31" x="457.99" y="515.34" width="99" height="45.2"></rect>
  <polyline class="cls-11" points="560.81 518.83 560.81 565.31 461.81 565.31"></polyline>
  <polyline class="cls-11" points="564.1 523.36 564.1 569.83 465.1 569.83"></polyline>
  <g>
    <line class="cls-18" x1="248.2" y1="515.34" x2="248.2" y2="487.69"></line>
    <polygon points="251.94 488.79 248.2 482.31 244.46 488.79 251.94 488.79"></polygon>
  </g>
  <g>
    <line class="cls-13" x1="195.91" y1="431.73" x2="195.91" y2="395.71"></line>
    <polygon points="199.65 430.64 195.91 437.12 192.17 430.64 199.65 430.64"></polygon>
  </g>
  <g>
    <line class="cls-13" x1="195.91" y1="218.42" x2="195.91" y2="180.99"></line>
    <polygon points="199.65 217.33 195.91 223.81 192.17 217.33 199.65 217.33"></polygon>
  </g>
  <g>
    <line class="cls-18" x1="299.91" y1="218.42" x2="299.91" y2="180.99"></line>
    <polygon points="303.65 217.33 299.91 223.81 296.17 217.33 303.65 217.33"></polygon>
  </g>
  <g>
    <line class="cls-18" x1="195.91" y1="145.55" x2="195.91" y2="108.82"></line>
    <polygon points="199.65 109.91 195.91 103.43 192.17 109.91 199.65 109.91"></polygon>
  </g>
  <g>
    <line class="cls-13" x1="299.91" y1="145.55" x2="299.91" y2="108.82"></line>
    <polygon points="303.65 109.91 299.91 103.43 296.17 109.91 303.65 109.91"></polygon>
  </g>
  <g>
    <polyline class="cls-18" points="349.41 377.3 507.49 377.3 507.49 431.73"></polyline>
    <polygon points="503.75 430.64 507.49 437.12 511.23 430.64 503.75 430.64"></polygon>
  </g>
  <g>
    <polyline class="cls-13" points="146.41 162.45 79.46 162.45 79.46 105.48"></polyline>
    <polygon points="83.2 106.57 79.46 100.09 75.72 106.57 83.2 106.57"></polygon>
  </g>
  <g>
    <line class="cls-16" x1="349.99" y1="162.45" x2="449.6" y2="162.45"></line>
    <polygon class="cls-30" points="448.51 166.19 454.99 162.45 448.51 158.71 448.51 166.19"></polygon>
  </g>
  <g>
    <polyline class="cls-16" points="421.05 162.45 421.05 112.76 452.03 112.76"></polyline>
    <polygon class="cls-30" points="450.93 116.5 457.41 112.76 450.93 109.03 450.93 116.5"></polygon>
  </g>
  <g>
    <polyline class="cls-16" points="421.05 162.45 421.05 215.04 452.03 215.04"></polyline>
    <polygon class="cls-30" points="450.93 218.78 457.41 215.04 450.93 211.3 450.93 218.78"></polygon>
  </g>
  <line class="cls-13" x1="353.56" y1="66.58" x2="364.32" y2="56.6"></line>
  <line class="cls-13" x1="353.56" y1="262.7" x2="364.32" y2="252.72"></line>
  <text class="cls-20" transform="translate(153.39 236.29)"><tspan class="cls-3" x="0" y="0">P</tspan><tspan class="cls-1" x="6.03" y="0">olicy cu</tspan><tspan class="cls-6" x="39.23" y="0">s</tspan><tspan class="cls-7" x="43.74" y="0">t</tspan><tspan class="cls-1" x="47.82" y="0">om </tspan><tspan class="cls-5" x="63.53" y="0">r</tspan><tspan class="cls-8" x="67.37" y="0">es</tspan><tspan class="cls-1" x="77.39" y="0">ou</tspan><tspan class="cls-4" x="88.51" y="0">rc</tspan><tspan class="cls-8" x="97.07" y="0">e</tspan><tspan class="cls-1" x="102.45" y="0">s</tspan><tspan class="cls-23" x="107.04" y="0" xml:space="preserve"> (</tspan><tspan class="cls-28" x="112.8" y="0">r</tspan><tspan class="cls-23" x="116.13" y="0">eplic</tspan><tspan class="cls-27" x="136.02" y="0">a</tspan><tspan class="cls-26" x="140.84" y="0">t</tspan><tspan class="cls-25" x="144.49" y="0">e</tspan><tspan class="cls-22" x="149.67" y="0">d)</tspan></text>
  <text class="cls-10" transform="translate(31 40.16)"><tspan x="0" y="0">Hub clu</tspan><tspan class="cls-56" x="36.85" y="0">s</tspan><tspan class="cls-55" x="41.86" y="0">t</tspan><tspan x="46.39" y="0">er</tspan></text>
  <text class="cls-10" transform="translate(31 338.62)"><tspan class="cls-56" x="0" y="0">M</tspan><tspan x="9.15" y="0">anag</tspan><tspan class="cls-62" x="33.33" y="0">e</tspan><tspan x="39.3" y="0">d clu</tspan><tspan class="cls-58" x="62.33" y="0">s</tspan><tspan class="cls-54" x="67.34" y="0">t</tspan><tspan x="71.87" y="0">er</tspan></text>
  <text class="cls-2" transform="translate(358.81 347.54)"><tspan x="0" y="0">G</tspan><tspan class="cls-48" x="8.06" y="0">ov</tspan><tspan x="19.86" y="0">ernan</tspan><tspan class="cls-49" x="48.35" y="0">c</tspan><tspan x="53.59" y="0">e policy f</tspan><tspan class="cls-56" x="98.02" y="0">r</tspan><tspan x="102.34" y="0">am</tspan><tspan class="cls-56" x="117.26" y="0">ew</tspan><tspan x="130.81" y="0">ork </tspan><tspan class="cls-50" x="149.6" y="0">c</tspan><tspan class="cls-33" x="154.84" y="0">o</tspan><tspan class="cls-49" x="161.02" y="0">n</tspan><tspan class="cls-33" x="167.05" y="0">t</tspan><tspan class="cls-49" x="171.63" y="0">r</tspan><tspan x="175.9" y="0">oller</tspan></text>
  <text class="cls-20" transform="translate(153.39 66.58)"><tspan class="cls-3" x="0" y="0">P</tspan><tspan class="cls-1" x="6.03" y="0">olicy cu</tspan><tspan class="cls-6" x="39.23" y="0">s</tspan><tspan class="cls-7" x="43.74" y="0">t</tspan><tspan class="cls-1" x="47.82" y="0">om </tspan><tspan class="cls-5" x="63.53" y="0">r</tspan><tspan class="cls-8" x="67.37" y="0">es</tspan><tspan class="cls-1" x="77.39" y="0">ou</tspan><tspan class="cls-4" x="88.51" y="0">rc</tspan><tspan class="cls-8" x="97.07" y="0">e</tspan><tspan class="cls-1" x="102.45" y="0">s</tspan><tspan class="cls-23" x="107.04" y="0" xml:space="preserve"> (</tspan><tspan class="cls-28" x="112.8" y="0">r</tspan><tspan class="cls-23" x="116.13" y="0">o</tspan><tspan class="cls-28" x="121.5" y="0">o</tspan><tspan class="cls-24" x="126.66" y="0">t)</tspan></text>
  <text class="cls-19" transform="translate(188.74 89.64)"><tspan x="0" y="0">Sp</tspan><tspan class="cls-35" x="11.23" y="0">e</tspan><tspan x="16.41" y="0">c</tspan></text>
  <text class="cls-19" transform="translate(41.62 78.92)"><tspan class="cls-37" x="0" y="0">C</tspan><tspan x="6.37" y="0">u</tspan><tspan class="cls-40" x="11.61" y="0">s</tspan><tspan class="cls-59" x="15.83" y="0">t</tspan><tspan class="cls-34" x="19.48" y="0">om </tspan><tspan class="cls-47" x="34.77" y="0">r</tspan><tspan class="cls-61" x="38.1" y="0">es</tspan><tspan x="47.65" y="0">ou</tspan><tspan class="cls-43" x="58.26" y="0">r</tspan><tspan class="cls-38" x="61.59" y="0">c</tspan><tspan class="cls-44" x="66.17" y="0">e</tspan><tspan x="71.37" y="0">s</tspan></text>
  <text class="cls-19" transform="translate(283.4 89.64)"><tspan class="cls-37" x="0" y="0">S</tspan><tspan class="cls-34" x="5.6" y="0">t</tspan><tspan class="cls-37" x="9.32" y="0">a</tspan><tspan x="14.14" y="0">tus</tspan></text>
  <text class="cls-19" transform="translate(188.74 255.22)"><tspan x="0" y="0">Sp</tspan><tspan class="cls-35" x="11.23" y="0">e</tspan><tspan x="16.41" y="0">c</tspan></text>
  <text class="cls-19" transform="translate(283.4 255.22)"><tspan class="cls-37" x="0" y="0">S</tspan><tspan class="cls-34" x="5.6" y="0">t</tspan><tspan class="cls-37" x="9.32" y="0">a</tspan><tspan x="14.14" y="0">tus</tspan></text>
  <text class="cls-9" transform="translate(153.39 449.72)"><tspan class="cls-36" x="0" y="0">P</tspan><tspan x="6.03" y="0">olicy cu</tspan><tspan class="cls-40" x="39.23" y="0">s</tspan><tspan class="cls-41" x="43.74" y="0">t</tspan><tspan x="47.82" y="0">om </tspan><tspan class="cls-38" x="63.53" y="0">r</tspan><tspan class="cls-44" x="67.37" y="0">es</tspan><tspan x="77.39" y="0">ou</tspan><tspan class="cls-37" x="88.51" y="0">rc</tspan><tspan class="cls-44" x="97.07" y="0">e</tspan><tspan x="102.45" y="0">s</tspan></text>
  <g>
    <path d="M41.91,453.66c0-1.82,1.41-3.25,3.23-3.25,1,0,1.94.4,2.55,1.12l-.76.67c-.43-.54-1.09-.83-1.79-.83-1.22,0-2.12.99-2.12,2.28s.93,2.29,2.15,2.29c1.01,0,1.77-.69,1.91-1.65h-1.87v-.93h3.02v.35c0,1.81-1.31,3.19-3.07,3.19s-3.24-1.43-3.24-3.25Z"></path>
    <path d="M49.09,454.56c0-1.33.97-2.33,2.27-2.33s2.26,1,2.26,2.33-.97,2.33-2.26,2.33-2.27-1-2.27-2.33ZM52.62,454.56c0-.84-.53-1.47-1.26-1.47s-1.27.63-1.27,1.47.53,1.47,1.27,1.47,1.26-.62,1.26-1.47Z"></path>
    <path d="M54.01,452.3h1.11l1.26,3.28,1.25-3.28h1.06l-1.85,4.51h-.99l-1.84-4.51Z"></path>
    <path d="M59.08,454.56c0-1.32.95-2.33,2.2-2.33s2.13.98,2.13,2.33v.24h-3.33c.1.73.65,1.26,1.35,1.26.42,0,.82-.16,1.07-.42l.67.6c-.55.46-1.1.66-1.78.66-1.3,0-2.3-1.02-2.3-2.34ZM62.44,454.17c-.11-.66-.58-1.12-1.18-1.12s-1.06.44-1.18,1.12h2.36Z"></path>
    <path d="M64.44,452.3h1.02v.97c.25-.68.68-1.05,1.24-1.05.17,0,.29.03.44.09v.89c-.16-.06-.37-.11-.56-.11-.5,0-.9.28-1.13.75v2.97h-1.02v-4.51Z"></path>
    <path d="M67.98,452.3h1.02v.74c.34-.53.84-.81,1.42-.81.93,0,1.58.66,1.58,1.61v2.97h-1.03v-2.68c0-.66-.39-1.08-.99-1.08-.41,0-.75.19-.98.55v3.21h-1.02v-4.51Z"></path>
    <path d="M72.98,455.51c0-.81.67-1.32,1.73-1.32.42,0,.82.09,1.22.29v-.5c0-.59-.34-.9-1.04-.9-.38,0-.79.11-1.31.35l-.36-.74c.67-.31,1.27-.46,1.87-.46,1.18,0,1.85.59,1.85,1.64v2.94h-1.01v-.47c-.39.38-.82.55-1.34.55-.95,0-1.6-.57-1.6-1.38ZM74.86,456.17c.4,0,.76-.12,1.06-.38v-.73c-.32-.15-.65-.22-1.04-.22-.58,0-.95.24-.95.65s.36.68.93.68Z"></path>
    <path d="M78.16,452.3h1.02v.74c.34-.53.84-.81,1.42-.81.93,0,1.58.66,1.58,1.61v2.97h-1.03v-2.68c0-.66-.39-1.08-.99-1.08-.41,0-.75.19-.98.55v3.21h-1.02v-4.51Z"></path>
    <path d="M83.19,454.56c0-1.31.99-2.33,2.28-2.33.7,0,1.35.28,1.8.76l-.63.66c-.31-.35-.7-.53-1.13-.53-.73,0-1.3.63-1.3,1.44s.57,1.44,1.3,1.44c.43,0,.82-.18,1.13-.52l.63.65c-.45.49-1.1.76-1.8.76-1.29,0-2.28-1.02-2.28-2.33Z"></path>
    <path d="M87.77,454.56c0-1.32.95-2.33,2.2-2.33s2.13.98,2.13,2.33v.24h-3.33c.1.73.65,1.26,1.35,1.26.42,0,.82-.16,1.07-.42l.67.6c-.55.46-1.1.66-1.78.66-1.3,0-2.3-1.02-2.3-2.34ZM91.13,454.17c-.11-.66-.58-1.12-1.18-1.12s-1.06.44-1.18,1.12h2.36Z"></path>
    <path d="M95.16,452.3h1v.64c.32-.42.83-.67,1.4-.67,1.14,0,2.03,1.02,2.03,2.3s-.92,2.29-2.1,2.29c-.53,0-1-.2-1.32-.58v2.41h-1.02v-6.39ZM98.59,454.56c0-.82-.58-1.44-1.34-1.44-.45,0-.82.18-1.08.5v1.88c.26.31.65.5,1.08.5.77,0,1.34-.62,1.34-1.45Z"></path>
    <path d="M100.45,454.56c0-1.33.97-2.33,2.27-2.33s2.26,1,2.26,2.33-.97,2.33-2.26,2.33-2.27-1-2.27-2.33ZM103.98,454.56c0-.84-.53-1.47-1.26-1.47s-1.27.63-1.27,1.47.53,1.47,1.27,1.47,1.26-.62,1.26-1.47Z"></path>
    <path d="M106.03,450.35l1.02-.18v6.63h-1.02v-6.46Z"></path>
    <path d="M108.17,450.76c0-.34.28-.63.63-.63s.63.29.63.63-.29.62-.63.62-.63-.28-.63-.62ZM108.29,452.3h1.02v4.51h-1.02v-4.51Z"></path>
    <path d="M110.36,454.56c0-1.31.99-2.33,2.28-2.33.7,0,1.35.28,1.8.76l-.63.66c-.31-.35-.7-.53-1.13-.53-.73,0-1.3.63-1.3,1.44s.57,1.44,1.3,1.44c.43,0,.82-.18,1.13-.52l.63.65c-.45.49-1.1.76-1.8.76-1.29,0-2.28-1.02-2.28-2.33Z"></path>
    <path d="M115.09,458.72v-.88c.12.03.26.04.4.04.36,0,.58-.16.73-.51l.21-.5-1.7-4.55h1.13l1.15,3.34,1.25-3.34h1.12l-2.16,5.29c-.35.87-.77,1.19-1.61,1.19-.14,0-.32-.02-.5-.06Z"></path>
    <path d="M44.1,466.31c0-.81.67-1.32,1.73-1.32.42,0,.82.09,1.22.29v-.5c0-.59-.34-.9-1.04-.9-.38,0-.79.11-1.31.35l-.36-.74c.67-.31,1.27-.46,1.87-.46,1.18,0,1.85.59,1.85,1.64v2.94h-1.01v-.47c-.39.38-.82.55-1.34.55-.95,0-1.6-.57-1.6-1.38ZM45.98,466.97c.4,0,.76-.12,1.06-.38v-.73c-.32-.15-.65-.22-1.04-.22-.58,0-.95.24-.95.65s.36.68.93.68Z"></path>
    <path d="M49.08,465.36c0-1.29.93-2.3,2.11-2.3.51,0,.98.21,1.31.58v-2.49l1.02-.18v6.63h-1.01v-.59c-.32.41-.83.64-1.4.64-1.14,0-2.03-1.02-2.03-2.29ZM52.5,466.3v-1.9c-.26-.31-.65-.49-1.07-.49-.77,0-1.35.61-1.35,1.44s.58,1.44,1.35,1.44c.44,0,.81-.17,1.07-.5Z"></path>
    <path d="M54.57,465.36c0-1.29.93-2.3,2.11-2.3.51,0,.98.21,1.31.58v-2.49l1.02-.18v6.63h-1.01v-.59c-.32.41-.83.64-1.4.64-1.14,0-2.03-1.02-2.03-2.29ZM57.99,466.3v-1.9c-.26-.31-.65-.49-1.07-.49-.77,0-1.35.61-1.35,1.44s.58,1.44,1.35,1.44c.44,0,.81-.17,1.07-.5Z"></path>
    <path d="M60.14,464.62h3.14v.86h-3.14v-.86Z"></path>
    <path d="M64.3,465.36c0-1.33.97-2.33,2.27-2.33s2.26,1,2.26,2.33-.97,2.33-2.26,2.33-2.27-1-2.27-2.33ZM67.83,465.36c0-.84-.53-1.47-1.26-1.47s-1.27.63-1.27,1.47.53,1.47,1.27,1.47,1.26-.62,1.26-1.47Z"></path>
    <path d="M69.88,463.1h1.02v.74c.34-.53.84-.81,1.42-.81.93,0,1.58.66,1.58,1.61v2.97h-1.03v-2.68c0-.66-.39-1.08-.99-1.08-.41,0-.75.19-.98.55v3.21h-1.02v-4.51Z"></path>
    <path d="M76.94,465.36c0-1.31.99-2.33,2.28-2.33.7,0,1.35.28,1.8.76l-.63.66c-.31-.35-.7-.53-1.13-.53-.73,0-1.3.63-1.3,1.44s.57,1.44,1.3,1.44c.43,0,.82-.18,1.13-.52l.63.65c-.45.49-1.1.76-1.8.76-1.29,0-2.28-1.02-2.28-2.33Z"></path>
    <path d="M81.51,465.36c0-1.33.97-2.33,2.27-2.33s2.26,1,2.26,2.33-.97,2.33-2.26,2.33-2.27-1-2.27-2.33ZM85.04,465.36c0-.84-.53-1.47-1.26-1.47s-1.27.63-1.27,1.47.53,1.47,1.27,1.47,1.26-.62,1.26-1.47Z"></path>
    <path d="M87.09,463.1h1.02v.74c.34-.53.84-.81,1.42-.81.93,0,1.58.66,1.58,1.61v2.97h-1.03v-2.68c0-.66-.39-1.08-.99-1.08-.41,0-.75.19-.98.55v3.21h-1.02v-4.51Z"></path>
    <path d="M92.75,466.44v-2.53h-.9v-.81h.9v-1.24l1.02-.22v1.46h1.25v.81h-1.25v2.3c0,.44.17.61.63.61.2,0,.34-.03.61-.11v.85c-.26.08-.6.13-.87.13-.91,0-1.39-.43-1.39-1.26Z"></path>
    <path d="M95.92,463.1h1.02v.97c.25-.68.68-1.05,1.24-1.05.17,0,.29.03.44.09v.89c-.16-.06-.37-.11-.56-.11-.5,0-.9.28-1.13.75v2.97h-1.02v-4.51Z"></path>
    <path d="M99.04,465.36c0-1.33.97-2.33,2.27-2.33s2.26,1,2.26,2.33-.97,2.33-2.26,2.33-2.27-1-2.27-2.33ZM102.57,465.36c0-.84-.53-1.47-1.26-1.47s-1.27.63-1.27,1.47.53,1.47,1.27,1.47,1.26-.62,1.26-1.47Z"></path>
    <path d="M104.62,461.15l1.02-.18v6.63h-1.02v-6.46Z"></path>
    <path d="M106.89,461.15l1.02-.18v6.63h-1.02v-6.46Z"></path>
    <path d="M108.95,465.36c0-1.32.95-2.33,2.2-2.33s2.13.98,2.13,2.33v.24h-3.33c.1.73.65,1.26,1.35,1.26.42,0,.82-.16,1.07-.42l.67.6c-.55.46-1.1.66-1.78.66-1.3,0-2.3-1.02-2.3-2.34ZM112.32,464.97c-.11-.66-.58-1.12-1.18-1.12s-1.06.44-1.18,1.12h2.36Z"></path>
    <path d="M114.32,463.1h1.02v.97c.25-.68.68-1.05,1.24-1.05.17,0,.29.03.44.09v.89c-.16-.06-.37-.11-.56-.11-.5,0-.9.28-1.13.75v2.97h-1.02v-4.51Z"></path>
  </g>
  <text class="cls-19" transform="translate(188.74 468.67)"><tspan x="0" y="0">Sp</tspan><tspan class="cls-35" x="11.23" y="0">e</tspan><tspan x="16.41" y="0">c</tspan></text>
  <text class="cls-19" transform="translate(283.4 468.67)"><tspan class="cls-37" x="0" y="0">S</tspan><tspan class="cls-34" x="5.6" y="0">t</tspan><tspan class="cls-37" x="9.32" y="0">a</tspan><tspan x="14.14" y="0">tus</tspan></text>
  <text class="cls-9" transform="translate(153.39 628.13)"><tspan class="cls-36" x="0" y="0">P</tspan><tspan x="6.03" y="0">olicy </tspan><tspan class="cls-53" x="28.82" y="0">t</tspan><tspan x="32.89" y="0">empl</tspan><tspan class="cls-38" x="54.83" y="0">a</tspan><tspan class="cls-41" x="59.9" y="0">t</tspan><tspan x="63.98" y="0">e cu</tspan><tspan class="cls-57" x="81.66" y="0">s</tspan><tspan class="cls-41" x="86.17" y="0">t</tspan><tspan x="90.24" y="0">om </tspan><tspan class="cls-37" x="105.96" y="0">r</tspan><tspan class="cls-44" x="109.8" y="0">es</tspan><tspan x="119.82" y="0">ou</tspan><tspan class="cls-37" x="130.94" y="0">rc</tspan><tspan class="cls-44" x="139.5" y="0">e</tspan><tspan x="144.87" y="0">s</tspan></text>
  <text class="cls-19" transform="translate(188.74 647.07)"><tspan x="0" y="0">Sp</tspan><tspan class="cls-35" x="11.23" y="0">e</tspan><tspan x="16.41" y="0">c</tspan></text>
  <text class="cls-19" transform="translate(283.4 647.07)"><tspan class="cls-37" x="0" y="0">S</tspan><tspan class="cls-34" x="5.6" y="0">t</tspan><tspan class="cls-37" x="9.32" y="0">a</tspan><tspan x="14.14" y="0">tus</tspan></text>
  <g>
    <path d="M470.93,103.56h2.82c1.28,0,2.11.8,2.11,1.96s-.83,1.94-2.11,1.94h-1.74v2.4h-1.08v-6.3ZM473.58,106.57c.77,0,1.19-.42,1.19-1.06s-.42-1.04-1.18-1.04h-1.58v2.11h1.57Z"></path>
    <path d="M476.31,107.61c0-1.33.97-2.33,2.27-2.33s2.26,1,2.26,2.33-.97,2.33-2.26,2.33-2.27-1-2.27-2.33ZM479.83,107.61c0-.84-.53-1.47-1.26-1.47s-1.27.63-1.27,1.47.53,1.47,1.27,1.47,1.26-.62,1.26-1.47Z"></path>
    <path d="M481.89,103.4l1.02-.18v6.63h-1.02v-6.46Z"></path>
    <path d="M484.03,103.81c0-.34.28-.63.63-.63s.63.29.63.63-.29.62-.63.62-.63-.28-.63-.62ZM484.14,105.35h1.02v4.51h-1.02v-4.51Z"></path>
    <path d="M486.21,107.61c0-1.31.99-2.33,2.28-2.33.7,0,1.35.28,1.8.77l-.63.66c-.31-.35-.7-.53-1.13-.53-.73,0-1.3.63-1.3,1.44s.57,1.44,1.3,1.44c.43,0,.82-.18,1.13-.52l.63.65c-.45.49-1.1.77-1.8.77-1.29,0-2.28-1.02-2.28-2.33Z"></path>
    <path d="M490.95,111.77v-.88c.12.03.26.04.4.04.36,0,.58-.16.73-.51l.21-.5-1.7-4.56h1.13l1.15,3.34,1.25-3.34h1.12l-2.16,5.29c-.35.87-.77,1.19-1.61,1.19-.14,0-.32-.02-.5-.06Z"></path>
    <path d="M497.2,103.56h1.25l2.44,6.3h-1.16l-.65-1.76h-2.58l-.65,1.76h-1.12l2.48-6.3ZM498.78,107.25l-.99-2.66-.98,2.66h1.97Z"></path>
    <path d="M501.4,108.32v-2.97h1.03v2.67c0,.67.39,1.09.99,1.09.41,0,.75-.18.98-.54v-3.22h1.02v4.51h-1.02v-.73c-.34.53-.83.8-1.43.8-.92,0-1.57-.67-1.57-1.61Z"></path>
    <path d="M507.23,108.69v-2.53h-.9v-.81h.9v-1.24l1.02-.22v1.46h1.25v.81h-1.25v2.3c0,.44.17.61.63.61.2,0,.34-.03.61-.11v.85c-.26.08-.6.13-.87.13-.91,0-1.39-.43-1.39-1.26Z"></path>
    <path d="M510.12,107.61c0-1.33.97-2.33,2.27-2.33s2.26,1,2.26,2.33-.97,2.33-2.26,2.33-2.27-1-2.27-2.33ZM513.65,107.61c0-.84-.53-1.47-1.26-1.47s-1.27.63-1.27,1.47.53,1.47,1.27,1.47,1.26-.62,1.26-1.47Z"></path>
    <path d="M515.7,105.35h1.02v.71c.33-.51.78-.78,1.33-.78.62,0,1.1.33,1.33.86.35-.57.86-.86,1.49-.86.87,0,1.48.68,1.48,1.63v2.95h-1.02v-2.73c0-.63-.35-1.04-.91-1.04-.37,0-.67.17-.9.54,0,.09.02.18.02.27v2.95h-1.03v-2.73c0-.63-.35-1.04-.91-1.04-.37,0-.67.17-.89.52v3.24h-1.02v-4.51Z"></path>
    <path d="M523.35,108.56c0-.81.67-1.32,1.73-1.32.42,0,.82.09,1.22.29v-.5c0-.59-.34-.9-1.04-.9-.38,0-.79.11-1.31.35l-.36-.74c.67-.31,1.27-.46,1.87-.46,1.18,0,1.84.59,1.84,1.64v2.94h-1.01v-.47c-.39.38-.82.55-1.34.55-.95,0-1.6-.57-1.6-1.38ZM525.23,109.22c.41,0,.76-.12,1.06-.38v-.73c-.32-.15-.65-.22-1.04-.22-.58,0-.95.24-.95.65s.36.68.93.68Z"></path>
    <path d="M528.96,108.69v-2.53h-.9v-.81h.9v-1.24l1.02-.22v1.46h1.25v.81h-1.25v2.3c0,.44.17.61.63.61.2,0,.34-.03.61-.11v.85c-.26.08-.6.13-.87.13-.91,0-1.39-.43-1.39-1.26Z"></path>
    <path d="M532,103.81c0-.34.28-.63.63-.63s.63.29.63.63-.29.62-.63.62-.63-.28-.63-.62ZM532.11,105.35h1.02v4.51h-1.02v-4.51Z"></path>
    <path d="M534.18,107.61c0-1.33.97-2.33,2.27-2.33s2.26,1,2.26,2.33-.97,2.33-2.26,2.33-2.27-1-2.27-2.33ZM537.71,107.61c0-.84-.53-1.47-1.26-1.47s-1.27.63-1.27,1.47.53,1.47,1.27,1.47,1.26-.62,1.26-1.47Z"></path>
    <path d="M539.76,105.35h1.02v.74c.34-.53.84-.81,1.42-.81.93,0,1.58.66,1.58,1.61v2.97h-1.03v-2.68c0-.66-.39-1.08-.99-1.08-.41,0-.75.19-.98.55v3.21h-1.02v-4.51Z"></path>
    <path d="M470.69,118.41c0-1.31.99-2.33,2.28-2.33.7,0,1.35.28,1.8.77l-.63.66c-.32-.35-.7-.53-1.13-.53-.73,0-1.3.63-1.3,1.44s.57,1.44,1.3,1.44c.43,0,.82-.18,1.13-.52l.63.65c-.45.49-1.1.77-1.8.77-1.29,0-2.28-1.02-2.28-2.33Z"></path>
    <path d="M475.57,119.12v-2.97h1.03v2.67c0,.67.39,1.09.99,1.09.41,0,.75-.18.98-.54v-3.22h1.02v4.51h-1.02v-.73c-.34.53-.83.8-1.43.8-.92,0-1.57-.67-1.57-1.61Z"></path>
    <path d="M480.44,120.14l.48-.68c.59.37.99.51,1.45.51.54,0,.91-.25.91-.61,0-.28-.19-.42-.63-.51l-.79-.13c-.88-.16-1.31-.57-1.31-1.24,0-.85.69-1.4,1.75-1.4.63,0,1.2.18,1.77.54l-.48.67c-.46-.3-.9-.43-1.36-.43s-.77.2-.77.52c0,.29.16.41.63.5l.8.15c.9.16,1.33.58,1.33,1.25,0,.83-.79,1.47-1.85,1.47-.77,0-1.46-.22-1.94-.61Z"></path>
    <path d="M485.62,119.49v-2.53h-.9v-.81h.9v-1.24l1.02-.22v1.46h1.25v.81h-1.25v2.3c0,.44.17.61.63.61.2,0,.34-.03.61-.11v.85c-.26.08-.6.13-.87.13-.91,0-1.39-.43-1.39-1.26Z"></path>
    <path d="M488.51,118.41c0-1.33.97-2.33,2.27-2.33s2.26,1,2.26,2.33-.97,2.33-2.26,2.33-2.27-1-2.27-2.33ZM492.04,118.41c0-.84-.53-1.47-1.26-1.47s-1.27.63-1.27,1.47.53,1.47,1.27,1.47,1.26-.62,1.26-1.47Z"></path>
    <path d="M494.09,116.15h1.02v.71c.33-.51.78-.78,1.33-.78.62,0,1.1.33,1.33.86.35-.57.85-.86,1.49-.86.87,0,1.48.68,1.48,1.63v2.95h-1.02v-2.73c0-.63-.35-1.04-.91-1.04-.37,0-.67.17-.9.54,0,.09.02.18.02.27v2.95h-1.03v-2.73c0-.63-.35-1.04-.91-1.04-.37,0-.67.17-.89.52v3.24h-1.02v-4.51Z"></path>
    <path d="M504,116.15h1.02v.97c.25-.68.68-1.05,1.24-1.05.17,0,.29.03.44.09v.89c-.16-.06-.37-.11-.56-.11-.5,0-.9.28-1.12.75v2.97h-1.02v-4.51Z"></path>
    <path d="M507.12,118.41c0-1.32.95-2.33,2.2-2.33s2.13.98,2.13,2.33v.24h-3.33c.1.73.65,1.26,1.35,1.26.42,0,.82-.16,1.07-.42l.67.6c-.55.46-1.1.66-1.78.66-1.3,0-2.3-1.02-2.3-2.34ZM510.49,118.02c-.11-.66-.58-1.12-1.18-1.12s-1.06.44-1.18,1.12h2.36Z"></path>
    <path d="M512.12,120.14l.48-.68c.59.37.99.51,1.45.51.54,0,.91-.25.91-.61,0-.28-.19-.42-.63-.51l-.79-.13c-.88-.16-1.31-.57-1.31-1.24,0-.85.69-1.4,1.75-1.4.63,0,1.2.18,1.77.54l-.48.67c-.46-.3-.9-.43-1.36-.43s-.77.2-.77.52c0,.29.16.41.63.5l.8.15c.9.16,1.33.58,1.33,1.25,0,.83-.79,1.47-1.85,1.47-.77,0-1.46-.22-1.94-.61Z"></path>
    <path d="M516.68,118.41c0-1.33.97-2.33,2.27-2.33s2.26,1,2.26,2.33-.97,2.33-2.26,2.33-2.27-1-2.27-2.33ZM520.21,118.41c0-.84-.53-1.47-1.26-1.47s-1.27.63-1.27,1.47.53,1.47,1.27,1.47,1.26-.62,1.26-1.47Z"></path>
    <path d="M522.22,119.12v-2.97h1.03v2.67c0,.67.39,1.09.99,1.09.41,0,.75-.18.98-.54v-3.22h1.02v4.51h-1.02v-.73c-.34.53-.83.8-1.43.8-.92,0-1.57-.67-1.57-1.61Z"></path>
    <path d="M527.5,116.15h1.02v.97c.25-.68.68-1.05,1.24-1.05.17,0,.29.03.44.09v.89c-.16-.06-.37-.11-.56-.11-.5,0-.9.28-1.12.75v2.97h-1.02v-4.51Z"></path>
    <path d="M530.62,118.41c0-1.31.99-2.33,2.28-2.33.7,0,1.35.28,1.8.77l-.63.66c-.32-.35-.7-.53-1.13-.53-.73,0-1.3.63-1.3,1.44s.57,1.44,1.3,1.44c.43,0,.82-.18,1.13-.52l.63.65c-.45.49-1.1.77-1.8.77-1.29,0-2.28-1.02-2.28-2.33Z"></path>
    <path d="M535.19,118.41c0-1.32.95-2.33,2.2-2.33s2.13.98,2.13,2.33v.24h-3.33c.1.73.65,1.26,1.35,1.26.42,0,.82-.16,1.07-.42l.67.6c-.55.46-1.1.66-1.78.66-1.3,0-2.3-1.02-2.3-2.34ZM538.56,118.02c-.11-.66-.58-1.12-1.18-1.12s-1.06.44-1.18,1.12h2.36Z"></path>
    <path d="M540.2,120.14l.48-.68c.59.37.99.51,1.45.51.54,0,.91-.25.91-.61,0-.28-.19-.42-.63-.51l-.79-.13c-.88-.16-1.31-.57-1.31-1.24,0-.85.69-1.4,1.75-1.4.63,0,1.2.18,1.77.54l-.48.67c-.46-.3-.9-.43-1.36-.43s-.77.2-.77.52c0,.29.16.41.63.5l.8.15c.9.16,1.33.58,1.33,1.25,0,.83-.79,1.47-1.85,1.47-.77,0-1.46-.22-1.94-.61Z"></path>
  </g>
  <g>
    <path d="M469.44,153.24h2.82c1.28,0,2.11.8,2.11,1.96s-.83,1.94-2.11,1.94h-1.74v2.4h-1.08v-6.3ZM472.09,156.26c.77,0,1.19-.42,1.19-1.06s-.42-1.04-1.18-1.04h-1.58v2.11h1.57Z"></path>
    <path d="M475.43,153.09l1.02-.18v6.63h-1.02v-6.46Z"></path>
    <path d="M477.46,158.25c0-.81.67-1.32,1.73-1.32.42,0,.82.09,1.21.29v-.5c0-.59-.34-.9-1.04-.9-.38,0-.79.11-1.31.35l-.36-.74c.67-.31,1.27-.46,1.87-.46,1.18,0,1.85.59,1.85,1.64v2.94h-1.01v-.47c-.39.38-.82.55-1.34.55-.95,0-1.6-.57-1.6-1.38ZM479.34,158.9c.4,0,.76-.12,1.06-.38v-.73c-.32-.15-.65-.22-1.04-.22-.58,0-.95.24-.95.65s.36.68.93.68Z"></path>
    <path d="M482.44,157.29c0-1.31.99-2.33,2.28-2.33.7,0,1.35.28,1.8.77l-.63.66c-.32-.35-.7-.53-1.13-.53-.73,0-1.3.63-1.3,1.44s.57,1.44,1.3,1.44c.43,0,.82-.18,1.13-.52l.63.65c-.45.49-1.1.77-1.8.77-1.29,0-2.28-1.02-2.28-2.33Z"></path>
    <path d="M487.01,157.29c0-1.32.95-2.33,2.2-2.33s2.13.98,2.13,2.33v.24h-3.33c.1.73.65,1.26,1.35,1.26.42,0,.82-.16,1.07-.42l.67.6c-.55.46-1.1.66-1.78.66-1.3,0-2.3-1.02-2.3-2.34ZM490.38,156.91c-.11-.66-.58-1.12-1.18-1.12s-1.06.44-1.18,1.12h2.36Z"></path>
    <path d="M492.38,155.03h1.02v.71c.33-.51.78-.78,1.33-.78.62,0,1.1.33,1.33.86.35-.57.86-.86,1.49-.86.87,0,1.48.68,1.48,1.63v2.95h-1.02v-2.73c0-.63-.35-1.04-.91-1.04-.37,0-.67.17-.9.54,0,.09.02.18.02.27v2.95h-1.03v-2.73c0-.63-.35-1.04-.91-1.04-.37,0-.67.17-.89.52v3.24h-1.02v-4.51Z"></path>
    <path d="M500.05,157.29c0-1.32.95-2.33,2.2-2.33s2.13.98,2.13,2.33v.24h-3.33c.1.73.65,1.26,1.35,1.26.42,0,.82-.16,1.07-.42l.67.6c-.55.46-1.1.66-1.78.66-1.3,0-2.3-1.02-2.3-2.34ZM503.42,156.91c-.11-.66-.58-1.12-1.18-1.12s-1.06.44-1.18,1.12h2.36Z"></path>
    <path d="M505.42,155.03h1.02v.74c.34-.53.84-.81,1.42-.81.93,0,1.58.66,1.58,1.61v2.97h-1.03v-2.68c0-.66-.39-1.08-.99-1.08-.41,0-.75.19-.98.55v3.21h-1.02v-4.51Z"></path>
    <path d="M511.08,158.37v-2.53h-.9v-.81h.9v-1.24l1.02-.22v1.46h1.25v.81h-1.25v2.3c0,.44.17.61.63.61.2,0,.34-.03.61-.11v.85c-.26.08-.6.13-.87.13-.91,0-1.39-.43-1.39-1.26Z"></path>
    <path d="M514.37,153.24h2.81c1.18,0,1.98.68,1.98,1.66,0,.64-.4,1.15-1.03,1.4.76.23,1.24.77,1.24,1.49,0,1.04-.84,1.76-2.08,1.76h-2.93v-6.3ZM517.06,155.9c.61,0,1.02-.35,1.02-.89s-.4-.88-1.02-.88h-1.61v1.77h1.61ZM517.16,158.66c.68,0,1.12-.39,1.12-.97s-.43-.96-1.12-.96h-1.71v1.94h1.71Z"></path>
    <path d="M520.38,153.49c0-.34.28-.63.63-.63s.63.29.63.63-.29.62-.63.62-.63-.28-.63-.62ZM520.5,155.03h1.02v4.51h-1.02v-4.51Z"></path>
    <path d="M522.78,155.03h1.02v.74c.34-.53.84-.81,1.42-.81.93,0,1.58.66,1.58,1.61v2.97h-1.03v-2.68c0-.66-.39-1.08-.99-1.08-.41,0-.75.19-.98.55v3.21h-1.02v-4.51Z"></path>
    <path d="M527.81,157.29c0-1.29.93-2.3,2.11-2.3.51,0,.98.21,1.31.59v-2.49l1.02-.18v6.63h-1.01v-.59c-.32.41-.83.64-1.4.64-1.14,0-2.03-1.02-2.03-2.3ZM531.23,158.24v-1.9c-.26-.31-.65-.49-1.07-.49-.77,0-1.35.61-1.35,1.44s.58,1.44,1.35,1.44c.44,0,.81-.17,1.07-.5Z"></path>
    <path d="M533.38,153.49c0-.34.28-.63.63-.63s.63.29.63.63-.29.62-.63.62-.63-.28-.63-.62ZM533.5,155.03h1.02v4.51h-1.02v-4.51Z"></path>
    <path d="M535.77,155.03h1.02v.74c.34-.53.84-.81,1.42-.81.93,0,1.58.66,1.58,1.61v2.97h-1.03v-2.68c0-.66-.39-1.08-.99-1.08-.41,0-.75.19-.98.55v3.21h-1.02v-4.51Z"></path>
    <path d="M541.31,161.07l.35-.75c.53.26.96.38,1.41.38.76,0,1.15-.34,1.15-1v-.77c-.32.4-.82.63-1.39.63-1.14,0-2.03-1.02-2.03-2.3s.93-2.28,2.11-2.28c.52,0,.99.21,1.32.6v-.57h1.01v4.67c0,1.16-.76,1.81-2.12,1.81-.65,0-1.28-.16-1.81-.44ZM544.22,158.23v-1.89c-.26-.31-.65-.49-1.07-.49-.77,0-1.35.6-1.35,1.43s.58,1.44,1.35,1.44c.44,0,.81-.18,1.07-.5Z"></path>
    <path d="M470.69,168.09c0-1.31.99-2.33,2.28-2.33.7,0,1.35.28,1.8.77l-.63.66c-.32-.35-.7-.53-1.13-.53-.73,0-1.3.63-1.3,1.44s.57,1.44,1.3,1.44c.43,0,.82-.18,1.13-.52l.63.65c-.45.49-1.1.77-1.8.77-1.29,0-2.28-1.02-2.28-2.33Z"></path>
    <path d="M475.57,168.8v-2.97h1.03v2.67c0,.67.39,1.09.99,1.09.41,0,.75-.18.98-.54v-3.22h1.02v4.51h-1.02v-.73c-.34.53-.83.8-1.43.8-.92,0-1.57-.67-1.57-1.61Z"></path>
    <path d="M480.44,169.82l.48-.68c.59.37.99.51,1.45.51.54,0,.91-.25.91-.61,0-.28-.19-.42-.63-.51l-.79-.13c-.88-.16-1.31-.57-1.31-1.24,0-.85.69-1.4,1.75-1.4.63,0,1.2.18,1.77.54l-.48.67c-.46-.3-.9-.43-1.36-.43s-.77.2-.77.52c0,.29.16.41.63.5l.8.15c.9.16,1.33.58,1.33,1.25,0,.83-.79,1.47-1.85,1.47-.77,0-1.46-.22-1.94-.61Z"></path>
    <path d="M485.62,169.17v-2.53h-.9v-.81h.9v-1.24l1.02-.22v1.46h1.25v.81h-1.25v2.3c0,.44.17.61.63.61.2,0,.34-.03.61-.11v.85c-.26.08-.6.13-.87.13-.91,0-1.39-.43-1.39-1.26Z"></path>
    <path d="M488.51,168.09c0-1.33.97-2.33,2.27-2.33s2.26,1,2.26,2.33-.97,2.33-2.26,2.33-2.27-1-2.27-2.33ZM492.04,168.09c0-.84-.53-1.47-1.26-1.47s-1.27.63-1.27,1.47.53,1.47,1.27,1.47,1.26-.62,1.26-1.47Z"></path>
    <path d="M494.09,165.83h1.02v.71c.33-.51.78-.78,1.33-.78.62,0,1.1.33,1.33.86.35-.57.85-.86,1.49-.86.87,0,1.48.68,1.48,1.63v2.95h-1.02v-2.73c0-.63-.35-1.04-.91-1.04-.37,0-.67.17-.9.54,0,.09.02.18.02.27v2.95h-1.03v-2.73c0-.63-.35-1.04-.91-1.04-.37,0-.67.17-.89.52v3.24h-1.02v-4.51Z"></path>
    <path d="M504,165.83h1.02v.97c.25-.68.68-1.05,1.24-1.05.17,0,.29.03.44.09v.89c-.16-.06-.37-.11-.56-.11-.5,0-.9.28-1.12.75v2.97h-1.02v-4.51Z"></path>
    <path d="M507.12,168.09c0-1.32.95-2.33,2.2-2.33s2.13.98,2.13,2.33v.24h-3.33c.1.73.65,1.26,1.35,1.26.42,0,.82-.16,1.07-.42l.67.6c-.55.46-1.1.66-1.78.66-1.3,0-2.3-1.02-2.3-2.34ZM510.49,167.71c-.11-.66-.58-1.12-1.18-1.12s-1.06.44-1.18,1.12h2.36Z"></path>
    <path d="M512.12,169.82l.48-.68c.59.37.99.51,1.45.51.54,0,.91-.25.91-.61,0-.28-.19-.42-.63-.51l-.79-.13c-.88-.16-1.31-.57-1.31-1.24,0-.85.69-1.4,1.75-1.4.63,0,1.2.18,1.77.54l-.48.67c-.46-.3-.9-.43-1.36-.43s-.77.2-.77.52c0,.29.16.41.63.5l.8.15c.9.16,1.33.58,1.33,1.25,0,.83-.79,1.47-1.85,1.47-.77,0-1.46-.22-1.94-.61Z"></path>
    <path d="M516.68,168.09c0-1.33.97-2.33,2.27-2.33s2.26,1,2.26,2.33-.97,2.33-2.26,2.33-2.27-1-2.27-2.33ZM520.21,168.09c0-.84-.53-1.47-1.26-1.47s-1.27.63-1.27,1.47.53,1.47,1.27,1.47,1.26-.62,1.26-1.47Z"></path>
    <path d="M522.22,168.8v-2.97h1.03v2.67c0,.67.39,1.09.99,1.09.41,0,.75-.18.98-.54v-3.22h1.02v4.51h-1.02v-.73c-.34.53-.83.8-1.43.8-.92,0-1.57-.67-1.57-1.61Z"></path>
    <path d="M527.5,165.83h1.02v.97c.25-.68.68-1.05,1.24-1.05.17,0,.29.03.44.09v.89c-.16-.06-.37-.11-.56-.11-.5,0-.9.28-1.12.75v2.97h-1.02v-4.51Z"></path>
    <path d="M530.62,168.09c0-1.31.99-2.33,2.28-2.33.7,0,1.35.28,1.8.77l-.63.66c-.32-.35-.7-.53-1.13-.53-.73,0-1.3.63-1.3,1.44s.57,1.44,1.3,1.44c.43,0,.82-.18,1.13-.52l.63.65c-.45.49-1.1.77-1.8.77-1.29,0-2.28-1.02-2.28-2.33Z"></path>
    <path d="M535.19,168.09c0-1.32.95-2.33,2.2-2.33s2.13.98,2.13,2.33v.24h-3.33c.1.73.65,1.26,1.35,1.26.42,0,.82-.16,1.07-.42l.67.6c-.55.46-1.1.66-1.78.66-1.3,0-2.3-1.02-2.3-2.34ZM538.56,167.71c-.11-.66-.58-1.12-1.18-1.12s-1.06.44-1.18,1.12h2.36Z"></path>
    <path d="M540.2,169.82l.48-.68c.59.37.99.51,1.45.51.54,0,.91-.25.91-.61,0-.28-.19-.42-.63-.51l-.79-.13c-.88-.16-1.31-.57-1.31-1.24,0-.85.69-1.4,1.75-1.4.63,0,1.2.18,1.77.54l-.48.67c-.46-.3-.9-.43-1.36-.43s-.77.2-.77.52c0,.29.16.41.63.5l.8.15c.9.16,1.33.58,1.33,1.25,0,.83-.79,1.47-1.85,1.47-.77,0-1.46-.22-1.94-.61Z"></path>
  </g>
  <g>
    <path d="M485.57,205.83h2.82c1.28,0,2.11.8,2.11,1.96s-.83,1.94-2.11,1.94h-1.74v2.4h-1.08v-6.3ZM488.21,208.85c.77,0,1.19-.42,1.19-1.06s-.42-1.04-1.18-1.04h-1.58v2.11h1.57Z"></path>
    <path d="M491.55,205.68l1.02-.18v6.63h-1.02v-6.46Z"></path>
    <path d="M493.58,210.84c0-.81.67-1.32,1.73-1.32.42,0,.82.09,1.21.29v-.5c0-.59-.34-.9-1.04-.9-.38,0-.79.11-1.31.35l-.36-.74c.67-.31,1.27-.46,1.87-.46,1.18,0,1.85.59,1.85,1.64v2.94h-1.01v-.47c-.39.38-.82.55-1.34.55-.95,0-1.6-.57-1.6-1.38ZM495.47,211.49c.4,0,.76-.12,1.06-.38v-.73c-.32-.15-.65-.22-1.04-.22-.58,0-.95.24-.95.65s.36.68.93.68Z"></path>
    <path d="M498.56,209.88c0-1.31.99-2.33,2.28-2.33.7,0,1.35.28,1.8.77l-.63.66c-.32-.35-.7-.53-1.13-.53-.73,0-1.3.63-1.3,1.44s.57,1.44,1.3,1.44c.43,0,.82-.18,1.13-.52l.63.65c-.45.49-1.1.77-1.8.77-1.29,0-2.28-1.02-2.28-2.33Z"></path>
    <path d="M503.13,209.88c0-1.32.95-2.33,2.2-2.33s2.13.98,2.13,2.33v.24h-3.33c.1.73.65,1.26,1.35,1.26.42,0,.82-.16,1.07-.42l.67.6c-.55.46-1.1.66-1.78.66-1.3,0-2.3-1.02-2.3-2.34ZM506.5,209.49c-.11-.66-.58-1.12-1.18-1.12s-1.06.44-1.18,1.12h2.36Z"></path>
    <path d="M508.5,207.62h1.02v.71c.33-.51.78-.78,1.33-.78.62,0,1.1.33,1.33.86.35-.57.86-.86,1.49-.86.87,0,1.48.68,1.48,1.63v2.95h-1.02v-2.73c0-.63-.35-1.04-.91-1.04-.37,0-.67.17-.9.54,0,.09.02.18.02.27v2.95h-1.03v-2.73c0-.63-.35-1.04-.91-1.04-.37,0-.67.17-.89.52v3.24h-1.02v-4.51Z"></path>
    <path d="M516.17,209.88c0-1.32.95-2.33,2.2-2.33s2.13.98,2.13,2.33v.24h-3.33c.1.73.65,1.26,1.35,1.26.42,0,.82-.16,1.07-.42l.67.6c-.55.46-1.1.66-1.78.66-1.3,0-2.3-1.02-2.3-2.34ZM519.54,209.49c-.11-.66-.58-1.12-1.18-1.12s-1.06.44-1.18,1.12h2.36Z"></path>
    <path d="M521.54,207.62h1.02v.74c.34-.53.84-.81,1.42-.81.93,0,1.58.66,1.58,1.61v2.97h-1.03v-2.68c0-.66-.39-1.08-.99-1.08-.41,0-.75.19-.98.55v3.21h-1.02v-4.51Z"></path>
    <path d="M527.2,210.96v-2.53h-.9v-.81h.9v-1.24l1.02-.22v1.46h1.25v.81h-1.25v2.3c0,.44.17.61.63.61.2,0,.34-.03.61-.11v.85c-.26.08-.6.13-.87.13-.91,0-1.39-.43-1.39-1.26Z"></path>
    <path d="M470.69,220.68c0-1.31.99-2.33,2.28-2.33.7,0,1.35.28,1.8.77l-.63.66c-.32-.35-.7-.53-1.13-.53-.73,0-1.3.63-1.3,1.44s.57,1.44,1.3,1.44c.43,0,.82-.18,1.13-.52l.63.65c-.45.49-1.1.77-1.8.77-1.29,0-2.28-1.02-2.28-2.33Z"></path>
    <path d="M475.57,221.39v-2.97h1.03v2.67c0,.67.39,1.09.99,1.09.41,0,.75-.18.98-.54v-3.22h1.02v4.51h-1.02v-.73c-.34.53-.83.8-1.43.8-.92,0-1.57-.67-1.57-1.61Z"></path>
    <path d="M480.44,222.41l.48-.68c.59.37.99.51,1.45.51.54,0,.91-.25.91-.61,0-.28-.19-.42-.63-.51l-.79-.13c-.88-.16-1.31-.57-1.31-1.24,0-.85.69-1.4,1.75-1.4.63,0,1.2.18,1.77.54l-.48.67c-.46-.3-.9-.43-1.36-.43s-.77.2-.77.52c0,.29.16.41.63.5l.8.15c.9.16,1.33.58,1.33,1.25,0,.83-.79,1.47-1.85,1.47-.77,0-1.46-.22-1.94-.61Z"></path>
    <path d="M485.62,221.76v-2.53h-.9v-.81h.9v-1.24l1.02-.22v1.46h1.25v.81h-1.25v2.3c0,.44.17.61.63.61.2,0,.34-.03.61-.11v.85c-.26.08-.6.13-.87.13-.91,0-1.39-.43-1.39-1.26Z"></path>
    <path d="M488.51,220.68c0-1.33.97-2.33,2.27-2.33s2.26,1,2.26,2.33-.97,2.33-2.26,2.33-2.27-1-2.27-2.33ZM492.04,220.68c0-.84-.53-1.47-1.26-1.47s-1.27.63-1.27,1.47.53,1.47,1.27,1.47,1.26-.62,1.26-1.47Z"></path>
    <path d="M494.09,218.42h1.02v.71c.33-.51.78-.78,1.33-.78.62,0,1.1.33,1.33.86.35-.57.85-.86,1.49-.86.87,0,1.48.68,1.48,1.63v2.95h-1.02v-2.73c0-.63-.35-1.04-.91-1.04-.37,0-.67.17-.9.54,0,.09.02.18.02.27v2.95h-1.03v-2.73c0-.63-.35-1.04-.91-1.04-.37,0-.67.17-.89.52v3.24h-1.02v-4.51Z"></path>
    <path d="M504,218.42h1.02v.97c.25-.68.68-1.05,1.24-1.05.17,0,.29.03.44.09v.89c-.16-.06-.37-.11-.56-.11-.5,0-.9.28-1.12.75v2.97h-1.02v-4.51Z"></path>
    <path d="M507.12,220.68c0-1.32.95-2.33,2.2-2.33s2.13.98,2.13,2.33v.24h-3.33c.1.73.65,1.26,1.35,1.26.42,0,.82-.16,1.07-.42l.67.6c-.55.46-1.1.66-1.78.66-1.3,0-2.3-1.02-2.3-2.34ZM510.49,220.29c-.11-.66-.58-1.12-1.18-1.12s-1.06.44-1.18,1.12h2.36Z"></path>
    <path d="M512.12,222.41l.48-.68c.59.37.99.51,1.45.51.54,0,.91-.25.91-.61,0-.28-.19-.42-.63-.51l-.79-.13c-.88-.16-1.31-.57-1.31-1.24,0-.85.69-1.4,1.75-1.4.63,0,1.2.18,1.77.54l-.48.67c-.46-.3-.9-.43-1.36-.43s-.77.2-.77.52c0,.29.16.41.63.5l.8.15c.9.16,1.33.58,1.33,1.25,0,.83-.79,1.47-1.85,1.47-.77,0-1.46-.22-1.94-.61Z"></path>
    <path d="M516.68,220.68c0-1.33.97-2.33,2.27-2.33s2.26,1,2.26,2.33-.97,2.33-2.26,2.33-2.27-1-2.27-2.33ZM520.21,220.68c0-.84-.53-1.47-1.26-1.47s-1.27.63-1.27,1.47.53,1.47,1.27,1.47,1.26-.62,1.26-1.47Z"></path>
    <path d="M522.22,221.39v-2.97h1.03v2.67c0,.67.39,1.09.99,1.09.41,0,.75-.18.98-.54v-3.22h1.02v4.51h-1.02v-.73c-.34.53-.83.8-1.43.8-.92,0-1.57-.67-1.57-1.61Z"></path>
    <path d="M527.5,218.42h1.02v.97c.25-.68.68-1.05,1.24-1.05.17,0,.29.03.44.09v.89c-.16-.06-.37-.11-.56-.11-.5,0-.9.28-1.12.75v2.97h-1.02v-4.51Z"></path>
    <path d="M530.62,220.68c0-1.31.99-2.33,2.28-2.33.7,0,1.35.28,1.8.77l-.63.66c-.32-.35-.7-.53-1.13-.53-.73,0-1.3.63-1.3,1.44s.57,1.44,1.3,1.44c.43,0,.82-.18,1.13-.52l.63.65c-.45.49-1.1.77-1.8.77-1.29,0-2.28-1.02-2.28-2.33Z"></path>
    <path d="M535.19,220.68c0-1.32.95-2.33,2.2-2.33s2.13.98,2.13,2.33v.24h-3.33c.1.73.65,1.26,1.35,1.26.42,0,.82-.16,1.07-.42l.67.6c-.55.46-1.1.66-1.78.66-1.3,0-2.3-1.02-2.3-2.34ZM538.56,220.29c-.11-.66-.58-1.12-1.18-1.12s-1.06.44-1.18,1.12h2.36Z"></path>
    <path d="M540.2,222.41l.48-.68c.59.37.99.51,1.45.51.54,0,.91-.25.91-.61,0-.28-.19-.42-.63-.51l-.79-.13c-.88-.16-1.31-.57-1.31-1.24,0-.85.69-1.4,1.75-1.4.63,0,1.2.18,1.77.54l-.48.67c-.46-.3-.9-.43-1.36-.43s-.77.2-.77.52c0,.29.16.41.63.5l.8.15c.9.16,1.33.58,1.33,1.25,0,.83-.79,1.47-1.85,1.47-.77,0-1.46-.22-1.94-.61Z"></path>
  </g>
  <rect class="cls-32" x="60.59" y="122.97" width="292.96" height="13.04"></rect>
  <text class="cls-19" transform="translate(178.53 131.6)"><tspan class="cls-52" x="0" y="0">W</tspan><tspan class="cls-37" x="8.06" y="0">a</tspan><tspan class="cls-60" x="12.88" y="0">t</tspan><tspan x="16.53" y="0">ch A</tspan></text>
  <text class="cls-19" transform="translate(65.17 131.6)"><tspan x="0" y="0">C</tspan><tspan class="cls-43" x="6.51" y="0">r</tspan><tspan class="cls-53" x="9.84" y="0">e</tspan><tspan class="cls-37" x="14.95" y="0">a</tspan><tspan class="cls-59" x="19.76" y="0">t</tspan><tspan class="cls-34" x="23.42" y="0">e</tspan></text>
  <text class="cls-19" transform="translate(280.19 131.6)"><tspan x="0" y="0">Upd</tspan><tspan class="cls-37" x="17.54" y="0">a</tspan><tspan class="cls-59" x="22.36" y="0">t</tspan><tspan class="cls-34" x="26.01" y="0">e B</tspan></text>
  <rect class="cls-32" x="154.1" y="193.48" width="199.46" height="13.04"></rect>
  <rect class="cls-32" x="401.82" y="158.15" width="37.41" height="8.62"></rect>
  <text class="cls-19" transform="translate(282.53 202.1)"><tspan class="cls-52" x="0" y="0">W</tspan><tspan class="cls-37" x="8.06" y="0">a</tspan><tspan class="cls-60" x="12.88" y="0">t</tspan><tspan x="16.53" y="0">ch B</tspan></text>
  <text class="cls-19" transform="translate(368.22 252.72)"><tspan x="0" y="0">Clu</tspan><tspan class="cls-57" x="14.01" y="0">s</tspan><tspan class="cls-60" x="18.23" y="0">t</tspan><tspan x="21.89" y="0">er nam</tspan><tspan class="cls-44" x="50.68" y="0">e</tspan><tspan x="55.88" y="0">s</tspan><tspan class="cls-44" x="60.19" y="0">p</tspan><tspan x="65.73" y="0">a</tspan><tspan class="cls-38" x="70.68" y="0">c</tspan><tspan x="75.26" y="0">e</tspan></text>
  <text class="cls-19" transform="translate(368.22 56.6)"><tspan class="cls-44" x="0" y="0">Us</tspan><tspan x="10.95" y="0">er nam</tspan><tspan class="cls-44" x="39.74" y="0">e</tspan><tspan x="44.94" y="0">s</tspan><tspan class="cls-44" x="49.26" y="0">p</tspan><tspan x="54.8" y="0">a</tspan><tspan class="cls-37" x="59.75" y="0">c</tspan><tspan class="cls-34" x="64.32" y="0">e</tspan></text>
  <text class="cls-19" transform="translate(403.54 165.27)"><tspan class="cls-52" x="0" y="0">W</tspan><tspan class="cls-37" x="8.06" y="0">a</tspan><tspan class="cls-60" x="12.88" y="0">t</tspan><tspan x="16.53" y="0">ch C</tspan></text>
  <text class="cls-19" transform="translate(176.18 202.1)"><tspan x="0" y="0">Upd</tspan><tspan class="cls-37" x="17.54" y="0">a</tspan><tspan class="cls-59" x="22.36" y="0">t</tspan><tspan class="cls-34" x="26.01" y="0">e A</tspan></text>
  <g>
    <line class="cls-18" x1="276.81" y1="431.73" x2="276.81" y2="395.71"></line>
    <polygon points="280.55 430.64 276.81 437.12 273.07 430.64 280.55 430.64"></polygon>
  </g>
  <g>
    <line class="cls-13" x1="321.3" y1="431.73" x2="321.3" y2="395.71"></line>
    <polygon points="325.04 430.64 321.3 437.12 317.56 430.64 325.04 430.64"></polygon>
  </g>
  <text class="cls-19" transform="translate(472.16 458.39)"><tspan class="cls-57" x="0" y="0">E</tspan><tspan class="cls-38" x="5.68" y="0">v</tspan><tspan x="10.42" y="0">e</tspan><tspan class="cls-38" x="15.58" y="0">n</tspan><tspan class="cls-64" x="20.68" y="0">t</tspan><tspan x="24.5" y="0">s </tspan><tspan class="cls-46" x="30.83" y="0">f</tspan><tspan class="cls-34" x="34.35" y="0">or policy</tspan></text>
  <g>
    <path d="M379.01,631.54c0-1.82,1.41-3.25,3.23-3.25,1,0,1.95.4,2.55,1.12l-.76.67c-.43-.54-1.09-.83-1.79-.83-1.21,0-2.12.99-2.12,2.28s.93,2.29,2.15,2.29c1.01,0,1.77-.69,1.91-1.65h-1.87v-.93h3.02v.35c0,1.81-1.3,3.19-3.07,3.19s-3.24-1.43-3.24-3.25Z"></path>
    <path d="M386.17,633.39c0-.81.67-1.32,1.73-1.32.42,0,.82.09,1.22.29v-.5c0-.59-.34-.9-1.04-.9-.38,0-.79.11-1.31.35l-.36-.74c.67-.31,1.27-.46,1.87-.46,1.18,0,1.84.59,1.84,1.64v2.94h-1.01v-.47c-.39.38-.82.55-1.34.55-.95,0-1.6-.57-1.6-1.38ZM388.05,634.05c.41,0,.76-.12,1.06-.38v-.73c-.32-.15-.65-.22-1.04-.22-.58,0-.95.24-.95.65s.36.68.93.68Z"></path>
    <path d="M391.77,633.52v-2.53h-.9v-.81h.9v-1.24l1.02-.22v1.46h1.25v.81h-1.25v2.3c0,.44.17.61.63.61.2,0,.34-.03.61-.11v.85c-.26.08-.6.13-.87.13-.91,0-1.39-.43-1.39-1.26Z"></path>
    <path d="M394.66,632.44c0-1.32.95-2.33,2.2-2.33s2.13.98,2.13,2.33v.24h-3.33c.1.73.65,1.26,1.35,1.26.42,0,.82-.16,1.07-.42l.67.6c-.55.46-1.1.66-1.78.66-1.3,0-2.3-1.02-2.3-2.34ZM398.03,632.05c-.11-.66-.58-1.12-1.18-1.12s-1.06.44-1.18,1.12h2.36Z"></path>
    <path d="M400.03,628.22l1.02-.17v4.05l1.87-1.92h1.17l-2.08,2.09,2.19,2.42h-1.3l-1.85-2.08v2.08h-1.02v-6.47Z"></path>
    <path d="M404.33,632.44c0-1.32.95-2.33,2.2-2.33s2.13.98,2.13,2.33v.24h-3.33c.1.73.65,1.26,1.35,1.26.42,0,.82-.16,1.07-.42l.67.6c-.55.46-1.1.66-1.78.66-1.3,0-2.3-1.02-2.3-2.34ZM407.7,632.05c-.11-.66-.58-1.12-1.18-1.12s-1.06.44-1.18,1.12h2.36Z"></path>
    <path d="M409.5,632.44c0-1.32.95-2.33,2.2-2.33s2.13.98,2.13,2.33v.24h-3.33c.1.73.65,1.26,1.35,1.26.42,0,.82-.16,1.07-.42l.67.6c-.55.46-1.1.66-1.78.66-1.3,0-2.3-1.02-2.3-2.34ZM412.87,632.05c-.11-.66-.58-1.12-1.18-1.12s-1.06.44-1.18,1.12h2.36Z"></path>
    <path d="M414.87,630.18h1v.64c.32-.42.83-.67,1.4-.67,1.14,0,2.04,1.02,2.04,2.3s-.92,2.29-2.1,2.29c-.53,0-1-.2-1.32-.58v2.41h-1.02v-6.39ZM418.31,632.44c0-.82-.58-1.44-1.34-1.44-.45,0-.82.18-1.08.5v1.88c.26.31.65.5,1.08.5.77,0,1.34-.62,1.34-1.45Z"></path>
    <path d="M420.16,632.44c0-1.32.95-2.33,2.2-2.33s2.13.98,2.13,2.33v.24h-3.33c.1.73.65,1.26,1.35,1.26.42,0,.82-.16,1.07-.42l.67.6c-.55.46-1.1.66-1.78.66-1.3,0-2.3-1.02-2.3-2.34ZM423.53,632.05c-.11-.66-.58-1.12-1.18-1.12s-1.06.44-1.18,1.12h2.36Z"></path>
    <path d="M425.52,630.18h1.02v.97c.25-.68.68-1.05,1.24-1.05.17,0,.29.03.44.09v.89c-.16-.06-.37-.11-.56-.11-.5,0-.9.28-1.13.75v2.97h-1.02v-4.51Z"></path>
    <path d="M383.67,640.98h1.02v.97c.25-.68.68-1.05,1.24-1.05.17,0,.29.03.44.09v.89c-.16-.06-.37-.11-.56-.11-.5,0-.9.28-1.13.75v2.97h-1.02v-4.51Z"></path>
    <path d="M386.79,643.24c0-1.32.95-2.33,2.2-2.33s2.13.98,2.13,2.33v.24h-3.33c.1.73.65,1.26,1.35,1.26.42,0,.82-.16,1.07-.42l.67.6c-.55.46-1.1.66-1.78.66-1.3,0-2.3-1.02-2.3-2.34ZM390.15,642.85c-.11-.66-.58-1.12-1.18-1.12s-1.06.44-1.18,1.12h2.36Z"></path>
    <path d="M391.79,644.97l.48-.68c.59.37.99.51,1.45.51.54,0,.91-.25.91-.61,0-.28-.19-.42-.63-.51l-.79-.13c-.88-.16-1.31-.57-1.31-1.24,0-.85.69-1.4,1.75-1.4.63,0,1.2.18,1.77.54l-.48.67c-.46-.3-.9-.43-1.36-.43s-.77.2-.77.52c0,.29.16.41.63.5l.8.15c.9.16,1.33.58,1.33,1.25,0,.83-.79,1.47-1.85,1.47-.77,0-1.46-.22-1.94-.61Z"></path>
    <path d="M396.35,643.24c0-1.33.97-2.33,2.27-2.33s2.26,1,2.26,2.33-.97,2.33-2.26,2.33-2.27-1-2.27-2.33ZM399.87,643.24c0-.84-.53-1.47-1.26-1.47s-1.27.63-1.27,1.47.53,1.47,1.27,1.47,1.26-.62,1.26-1.47Z"></path>
    <path d="M401.89,643.95v-2.97h1.03v2.67c0,.67.39,1.09.99,1.09.41,0,.75-.18.98-.54v-3.22h1.02v4.51h-1.02v-.73c-.34.53-.83.8-1.43.8-.92,0-1.57-.67-1.57-1.61Z"></path>
    <path d="M407.16,640.98h1.02v.97c.25-.68.68-1.05,1.24-1.05.17,0,.29.03.44.09v.89c-.16-.06-.37-.11-.56-.11-.5,0-.9.28-1.12.75v2.97h-1.02v-4.51Z"></path>
    <path d="M410.29,643.24c0-1.31.99-2.33,2.28-2.33.7,0,1.35.28,1.8.76l-.63.66c-.31-.35-.7-.53-1.13-.53-.73,0-1.3.63-1.3,1.44s.57,1.44,1.3,1.44c.43,0,.82-.18,1.13-.52l.63.65c-.45.49-1.1.76-1.8.76-1.29,0-2.28-1.02-2.28-2.33Z"></path>
    <path d="M414.86,643.24c0-1.32.95-2.33,2.2-2.33s2.13.98,2.13,2.33v.24h-3.33c.1.73.65,1.26,1.35,1.26.42,0,.82-.16,1.07-.42l.67.6c-.55.46-1.1.66-1.78.66-1.3,0-2.3-1.02-2.3-2.34ZM418.22,642.85c-.11-.66-.58-1.12-1.18-1.12s-1.06.44-1.18,1.12h2.36Z"></path>
    <path d="M419.86,644.97l.48-.68c.59.37.99.51,1.45.51.54,0,.91-.25.91-.61,0-.28-.19-.42-.63-.51l-.79-.13c-.88-.16-1.31-.57-1.31-1.24,0-.85.69-1.4,1.75-1.4.63,0,1.2.18,1.77.54l-.48.67c-.46-.3-.9-.43-1.36-.43s-.77.2-.77.52c0,.29.16.41.63.5l.8.15c.9.16,1.33.58,1.33,1.25,0,.83-.79,1.47-1.85,1.47-.77,0-1.46-.22-1.94-.61Z"></path>
  </g>
  <rect class="cls-31" x="146.41" y="145.14" width="203.58" height="36.82"></rect>
  <text class="cls-21" transform="translate(189.47 165.97)"><tspan class="cls-51" x="0" y="0">P</tspan><tspan class="cls-34" x="5.71" y="0">olicy p</tspan><tspan class="cls-43" x="32.68" y="0">r</tspan><tspan x="36.01" y="0">o</tspan><tspan class="cls-44" x="41.38" y="0">p</tspan><tspan x="46.93" y="0">ag</tspan><tspan class="cls-37" x="57.36" y="0">a</tspan><tspan class="cls-60" x="62.17" y="0">t</tspan><tspan x="65.82" y="0">or </tspan><tspan class="cls-37" x="76.76" y="0">c</tspan><tspan class="cls-34" x="81.33" y="0">o</tspan><tspan class="cls-37" x="86.7" y="0">n</tspan><tspan x="91.81" y="0">t</tspan><tspan class="cls-47" x="95.53" y="0">r</tspan><tspan x="98.86" y="0">oller</tspan></text>
  <g>
    <path class="cls-32" d="M185.57,373.48l.59-.79c.81.67,1.4.92,2.12.92.83,0,1.4-.42,1.4-1.01,0-.51-.31-.76-1.14-.9l-1.16-.2c-1.09-.2-1.62-.74-1.62-1.6,0-1.14.91-1.9,2.32-1.9.94,0,1.81.28,2.53.81l-.55.81c-.63-.48-1.31-.73-2.02-.73-.76,0-1.26.39-1.26.9,0,.46.29.69.97.8l1.13.19c1.27.23,1.86.78,1.86,1.74,0,1.16-1.03,1.98-2.53,1.98-.99,0-1.85-.34-2.65-1.02Z"></path>
    <path class="cls-32" d="M191.72,369.88h1v.64c.32-.42.83-.68,1.4-.68,1.14,0,2.03,1.02,2.03,2.3s-.92,2.29-2.1,2.29c-.53,0-1-.2-1.32-.58v2.41h-1.02v-6.39ZM195.16,372.14c0-.82-.58-1.44-1.34-1.44-.45,0-.82.18-1.08.5v1.88c.26.31.65.5,1.08.5.77,0,1.34-.62,1.34-1.45Z"></path>
    <path class="cls-32" d="M197.01,372.14c0-1.32.95-2.33,2.2-2.33s2.13.98,2.13,2.33v.24h-3.33c.1.73.65,1.26,1.35,1.26.42,0,.82-.16,1.07-.42l.67.6c-.55.46-1.1.66-1.78.66-1.3,0-2.3-1.02-2.3-2.34ZM200.38,371.76c-.11-.66-.58-1.12-1.18-1.12s-1.06.44-1.18,1.12h2.36Z"></path>
    <path class="cls-32" d="M202.19,372.14c0-1.31.99-2.33,2.28-2.33.7,0,1.35.28,1.8.77l-.63.66c-.31-.35-.7-.53-1.13-.53-.73,0-1.3.63-1.3,1.44s.57,1.44,1.3,1.44c.43,0,.82-.18,1.13-.52l.63.65c-.45.49-1.1.76-1.8.76-1.29,0-2.28-1.02-2.28-2.33Z"></path>
    <path class="cls-32" d="M165.27,384.67l.48-.68c.59.37.99.51,1.45.51.54,0,.91-.25.91-.61,0-.28-.19-.42-.63-.51l-.79-.13c-.88-.16-1.31-.57-1.31-1.24,0-.85.69-1.4,1.75-1.4.63,0,1.2.18,1.77.54l-.48.67c-.46-.3-.9-.43-1.36-.43s-.77.2-.77.52c0,.29.16.41.63.5l.8.15c.9.16,1.33.58,1.33,1.25,0,.83-.79,1.47-1.85,1.47-.77,0-1.46-.22-1.94-.61Z"></path>
    <path class="cls-32" d="M169.72,387.1v-.88c.12.03.26.04.4.04.36,0,.58-.16.73-.51l.21-.5-1.7-4.55h1.13l1.15,3.34,1.25-3.34h1.12l-2.16,5.29c-.35.87-.77,1.19-1.61,1.19-.14,0-.32-.02-.5-.06Z"></path>
    <path class="cls-32" d="M174.73,380.68h1.02v.74c.34-.53.84-.81,1.42-.81.93,0,1.58.66,1.58,1.61v2.97h-1.03v-2.68c0-.66-.39-1.08-.99-1.08-.41,0-.75.19-.98.55v3.21h-1.02v-4.51Z"></path>
    <path class="cls-32" d="M179.76,382.94c0-1.31.99-2.33,2.28-2.33.7,0,1.35.28,1.8.76l-.63.66c-.31-.35-.7-.53-1.13-.53-.73,0-1.3.63-1.3,1.44s.57,1.44,1.3,1.44c.43,0,.82-.18,1.13-.52l.63.65c-.45.49-1.1.76-1.8.76-1.29,0-2.28-1.02-2.28-2.33Z"></path>
    <path class="cls-32" d="M186.5,382.94c0-1.31.99-2.33,2.28-2.33.7,0,1.35.28,1.8.76l-.63.66c-.31-.35-.7-.53-1.13-.53-.73,0-1.3.63-1.3,1.44s.57,1.44,1.3,1.44c.43,0,.82-.18,1.13-.52l.63.65c-.45.49-1.1.76-1.8.76-1.29,0-2.28-1.02-2.28-2.33Z"></path>
    <path class="cls-32" d="M191.07,382.94c0-1.33.97-2.33,2.27-2.33s2.26,1,2.26,2.33-.97,2.33-2.26,2.33-2.27-1-2.27-2.33ZM194.6,382.94c0-.84-.53-1.47-1.26-1.47s-1.27.63-1.27,1.47.53,1.47,1.27,1.47,1.26-.62,1.26-1.47Z"></path>
    <path class="cls-32" d="M196.65,380.68h1.02v.74c.34-.53.84-.81,1.42-.81.93,0,1.58.66,1.58,1.61v2.97h-1.03v-2.68c0-.66-.39-1.08-.99-1.08-.41,0-.75.19-.98.55v3.21h-1.02v-4.51Z"></path>
    <path class="cls-32" d="M202.31,384.02v-2.53h-.9v-.81h.9v-1.24l1.02-.22v1.46h1.25v.81h-1.25v2.3c0,.44.17.61.63.61.2,0,.34-.03.61-.11v.85c-.26.08-.6.13-.87.13-.91,0-1.39-.43-1.39-1.26Z"></path>
    <path class="cls-32" d="M205.48,380.68h1.02v.97c.25-.68.68-1.05,1.24-1.05.17,0,.29.03.44.09v.89c-.16-.06-.37-.11-.56-.11-.5,0-.9.28-1.13.75v2.97h-1.02v-4.51Z"></path>
    <path class="cls-32" d="M208.6,382.94c0-1.33.97-2.33,2.27-2.33s2.26,1,2.26,2.33-.97,2.33-2.26,2.33-2.27-1-2.27-2.33ZM212.13,382.94c0-.84-.53-1.47-1.26-1.47s-1.27.63-1.27,1.47.53,1.47,1.27,1.47,1.26-.62,1.26-1.47Z"></path>
    <path class="cls-32" d="M214.18,378.74l1.02-.18v6.63h-1.02v-6.46Z"></path>
    <path class="cls-32" d="M216.45,378.74l1.02-.18v6.63h-1.02v-6.46Z"></path>
    <path class="cls-32" d="M218.51,382.94c0-1.32.95-2.33,2.2-2.33s2.13.98,2.13,2.33v.24h-3.33c.1.73.65,1.26,1.35,1.26.42,0,.82-.16,1.07-.42l.67.6c-.55.46-1.1.66-1.78.66-1.3,0-2.3-1.02-2.3-2.34ZM221.87,382.56c-.11-.66-.58-1.12-1.18-1.12s-1.06.44-1.18,1.12h2.36Z"></path>
    <path class="cls-32" d="M223.87,380.68h1.02v.97c.25-.68.68-1.05,1.24-1.05.17,0,.29.03.44.09v.89c-.16-.06-.37-.11-.56-.11-.5,0-.9.28-1.13.75v2.97h-1.02v-4.51Z"></path>
  </g>
  <text class="cls-21" transform="translate(196.42 540.43)"><tspan class="cls-45" x="0" y="0">T</tspan><tspan class="cls-39" x="4.8" y="0">empl</tspan><tspan class="cls-37" x="25.6" y="0">a</tspan><tspan class="cls-59" x="30.42" y="0">t</tspan><tspan x="34.07" y="0">e </tspan><tspan class="cls-57" x="41.26" y="0">s</tspan><tspan class="cls-34" x="45.48" y="0">ync </tspan><tspan class="cls-37" x="62.28" y="0">c</tspan><tspan class="cls-34" x="66.85" y="0">o</tspan><tspan class="cls-37" x="72.22" y="0">n</tspan><tspan x="77.33" y="0">t</tspan><tspan class="cls-47" x="81.05" y="0">r</tspan><tspan x="84.38" y="0">oller</tspan></text>
  <g>
    <path class="cls-32" d="M379.01,531.88c0-1.82,1.41-3.25,3.23-3.25,1,0,1.95.4,2.55,1.13l-.76.67c-.43-.54-1.09-.83-1.79-.83-1.21,0-2.12.99-2.12,2.28s.93,2.29,2.15,2.29c1.01,0,1.77-.69,1.91-1.65h-1.87v-.93h3.02v.35c0,1.81-1.3,3.19-3.07,3.19s-3.24-1.43-3.24-3.25Z"></path>
    <path class="cls-32" d="M386.17,533.73c0-.81.67-1.32,1.73-1.32.42,0,.82.09,1.22.29v-.5c0-.59-.34-.9-1.04-.9-.38,0-.79.11-1.31.35l-.36-.74c.67-.31,1.27-.46,1.87-.46,1.18,0,1.84.59,1.84,1.64v2.94h-1.01v-.47c-.39.38-.82.55-1.34.55-.95,0-1.6-.57-1.6-1.38ZM388.05,534.39c.41,0,.76-.12,1.06-.38v-.73c-.32-.15-.65-.22-1.04-.22-.58,0-.95.24-.95.65s.36.67.93.67Z"></path>
    <path class="cls-32" d="M391.77,533.86v-2.53h-.9v-.81h.9v-1.24l1.02-.22v1.46h1.25v.81h-1.25v2.3c0,.44.17.61.63.61.2,0,.34-.03.61-.11v.86c-.26.08-.6.13-.87.13-.91,0-1.39-.43-1.39-1.26Z"></path>
    <path class="cls-32" d="M394.66,532.78c0-1.32.95-2.33,2.2-2.33s2.13.98,2.13,2.33v.24h-3.33c.1.73.65,1.26,1.35,1.26.42,0,.82-.16,1.07-.42l.67.6c-.55.46-1.1.66-1.78.66-1.3,0-2.3-1.02-2.3-2.34ZM398.03,532.39c-.11-.66-.58-1.12-1.18-1.12s-1.06.44-1.18,1.12h2.36Z"></path>
    <path class="cls-32" d="M400.03,528.56l1.02-.17v4.05l1.87-1.92h1.17l-2.08,2.09,2.19,2.42h-1.3l-1.85-2.08v2.08h-1.02v-6.47Z"></path>
    <path class="cls-32" d="M404.33,532.78c0-1.32.95-2.33,2.2-2.33s2.13.98,2.13,2.33v.24h-3.33c.1.73.65,1.26,1.35,1.26.42,0,.82-.16,1.07-.42l.67.6c-.55.46-1.1.66-1.78.66-1.3,0-2.3-1.02-2.3-2.34ZM407.7,532.39c-.11-.66-.58-1.12-1.18-1.12s-1.06.44-1.18,1.12h2.36Z"></path>
    <path class="cls-32" d="M409.5,532.78c0-1.32.95-2.33,2.2-2.33s2.13.98,2.13,2.33v.24h-3.33c.1.73.65,1.26,1.35,1.26.42,0,.82-.16,1.07-.42l.67.6c-.55.46-1.1.66-1.78.66-1.3,0-2.3-1.02-2.3-2.34ZM412.87,532.39c-.11-.66-.58-1.12-1.18-1.12s-1.06.44-1.18,1.12h2.36Z"></path>
    <path class="cls-32" d="M414.87,530.52h1v.64c.32-.42.83-.68,1.4-.68,1.14,0,2.04,1.02,2.04,2.3s-.92,2.3-2.1,2.3c-.53,0-1-.2-1.32-.58v2.41h-1.02v-6.39ZM418.31,532.78c0-.82-.58-1.44-1.34-1.44-.45,0-.82.18-1.08.5v1.88c.26.32.65.5,1.08.5.77,0,1.34-.62,1.34-1.45Z"></path>
    <path class="cls-32" d="M420.16,532.78c0-1.32.95-2.33,2.2-2.33s2.13.98,2.13,2.33v.24h-3.33c.1.73.65,1.26,1.35,1.26.42,0,.82-.16,1.07-.42l.67.6c-.55.46-1.1.66-1.78.66-1.3,0-2.3-1.02-2.3-2.34ZM423.53,532.39c-.11-.66-.58-1.12-1.18-1.12s-1.06.44-1.18,1.12h2.36Z"></path>
    <path class="cls-32" d="M425.52,530.52h1.02v.97c.25-.68.68-1.05,1.24-1.05.17,0,.29.03.44.09v.89c-.16-.06-.37-.11-.56-.11-.5,0-.9.28-1.13.75v2.97h-1.02v-4.51Z"></path>
    <path class="cls-32" d="M372.85,545.31l.48-.67c.59.37.99.51,1.45.51.54,0,.91-.25.91-.61,0-.28-.19-.42-.63-.51l-.79-.13c-.88-.16-1.31-.57-1.31-1.24,0-.85.69-1.4,1.75-1.4.63,0,1.2.18,1.77.54l-.48.67c-.46-.3-.9-.43-1.36-.43s-.77.2-.77.52c0,.29.16.41.63.5l.8.15c.9.16,1.33.58,1.33,1.25,0,.83-.79,1.47-1.85,1.47-.77,0-1.46-.22-1.94-.61Z"></path>
    <path class="cls-32" d="M377.3,547.74v-.88c.12.03.26.04.4.04.36,0,.58-.16.73-.51l.21-.5-1.7-4.56h1.13l1.15,3.34,1.25-3.34h1.12l-2.16,5.29c-.35.87-.77,1.19-1.61,1.19-.14,0-.32-.02-.5-.06Z"></path>
    <path class="cls-32" d="M382.31,541.32h1.02v.74c.34-.53.84-.81,1.42-.81.93,0,1.58.66,1.58,1.61v2.97h-1.03v-2.68c0-.66-.39-1.08-.99-1.08-.41,0-.75.19-.98.55v3.21h-1.02v-4.51Z"></path>
    <path class="cls-32" d="M387.34,543.58c0-1.31.99-2.33,2.28-2.33.7,0,1.35.28,1.8.77l-.63.66c-.32-.35-.7-.53-1.13-.53-.73,0-1.3.63-1.3,1.44s.57,1.44,1.3,1.44c.43,0,.82-.18,1.13-.52l.63.65c-.45.49-1.1.77-1.8.77-1.29,0-2.28-1.02-2.28-2.33Z"></path>
    <path class="cls-32" d="M394.07,543.58c0-1.31.99-2.33,2.28-2.33.7,0,1.35.28,1.8.77l-.63.66c-.31-.35-.7-.53-1.13-.53-.73,0-1.3.63-1.3,1.44s.57,1.44,1.3,1.44c.43,0,.82-.18,1.13-.52l.63.65c-.45.49-1.1.77-1.8.77-1.29,0-2.28-1.02-2.28-2.33Z"></path>
    <path class="cls-32" d="M398.65,543.58c0-1.33.97-2.33,2.27-2.33s2.26,1,2.26,2.33-.97,2.33-2.26,2.33-2.27-1-2.27-2.33ZM402.17,543.58c0-.84-.53-1.47-1.26-1.47s-1.27.63-1.27,1.47.53,1.47,1.27,1.47,1.26-.62,1.26-1.47Z"></path>
    <path class="cls-32" d="M404.22,541.32h1.02v.74c.34-.53.84-.81,1.42-.81.93,0,1.58.66,1.58,1.61v2.97h-1.03v-2.68c0-.66-.39-1.08-.99-1.08-.41,0-.75.19-.98.55v3.21h-1.02v-4.51Z"></path>
    <path class="cls-32" d="M409.89,544.66v-2.53h-.9v-.81h.9v-1.24l1.02-.22v1.46h1.25v.81h-1.25v2.3c0,.44.17.61.63.61.2,0,.34-.03.61-.11v.86c-.26.08-.6.13-.87.13-.91,0-1.39-.43-1.39-1.26Z"></path>
    <path class="cls-32" d="M413.05,541.32h1.02v.97c.25-.68.68-1.05,1.24-1.05.17,0,.29.03.44.09v.89c-.16-.06-.37-.11-.56-.11-.5,0-.9.28-1.12.75v2.97h-1.02v-4.51Z"></path>
    <path class="cls-32" d="M416.18,543.58c0-1.33.97-2.33,2.27-2.33s2.26,1,2.26,2.33-.97,2.33-2.26,2.33-2.27-1-2.27-2.33ZM419.71,543.58c0-.84-.53-1.47-1.26-1.47s-1.27.63-1.27,1.47.53,1.47,1.27,1.47,1.26-.62,1.26-1.47Z"></path>
    <path class="cls-32" d="M421.76,539.37l1.02-.18v6.63h-1.02v-6.46Z"></path>
    <path class="cls-32" d="M424.02,539.37l1.02-.18v6.63h-1.02v-6.46Z"></path>
    <path class="cls-32" d="M426.09,543.58c0-1.32.95-2.33,2.2-2.33s2.13.98,2.13,2.33v.24h-3.33c.1.73.65,1.26,1.35,1.26.42,0,.82-.16,1.07-.42l.67.6c-.55.46-1.1.66-1.78.66-1.3,0-2.3-1.02-2.3-2.34ZM429.45,543.19c-.11-.66-.58-1.12-1.18-1.12s-1.06.44-1.18,1.12h2.36Z"></path>
    <path class="cls-32" d="M431.45,541.32h1.02v.97c.25-.68.68-1.05,1.24-1.05.17,0,.29.03.44.09v.89c-.16-.06-.37-.11-.56-.11-.5,0-.9.28-1.12.75v2.97h-1.02v-4.51Z"></path>
  </g>
  <text class="cls-21" transform="translate(471.38 540.43)"><tspan class="cls-51" x="0" y="0">P</tspan><tspan class="cls-34" x="5.71" y="0">olicy </tspan><tspan class="cls-38" x="27.18" y="0">c</tspan><tspan x="31.75" y="0">o</tspan><tspan class="cls-38" x="37.12" y="0">n</tspan><tspan x="42.23" y="0">t</tspan><tspan class="cls-43" x="45.95" y="0">r</tspan><tspan class="cls-34" x="49.28" y="0">olle</tspan><tspan class="cls-35" x="64.35" y="0">r</tspan><tspan x="67.9" y="0">s</tspan></text>
  <g>
    <path class="cls-32" d="M286.42,373.48l.59-.79c.81.67,1.4.92,2.12.92.83,0,1.4-.42,1.4-1.01,0-.51-.31-.76-1.14-.9l-1.16-.2c-1.09-.2-1.62-.74-1.62-1.6,0-1.14.91-1.9,2.32-1.9.94,0,1.81.28,2.53.81l-.55.81c-.63-.48-1.31-.73-2.02-.73-.76,0-1.26.39-1.26.9,0,.46.29.69.97.8l1.13.19c1.27.23,1.86.78,1.86,1.74,0,1.16-1.03,1.98-2.53,1.98-.99,0-1.85-.34-2.65-1.02Z"></path>
    <path class="cls-32" d="M292.99,373.22v-2.53h-.9v-.81h.9v-1.24l1.02-.22v1.46h1.25v.81h-1.25v2.3c0,.44.17.61.63.61.2,0,.34-.03.61-.11v.85c-.26.08-.6.13-.87.13-.91,0-1.39-.43-1.39-1.26Z"></path>
    <path class="cls-32" d="M295.93,373.1c0-.81.67-1.32,1.73-1.32.42,0,.82.09,1.22.29v-.5c0-.59-.34-.9-1.04-.9-.38,0-.79.11-1.31.35l-.36-.74c.67-.31,1.27-.46,1.87-.46,1.18,0,1.85.59,1.85,1.64v2.94h-1.01v-.47c-.39.38-.82.55-1.34.55-.95,0-1.6-.57-1.6-1.38ZM297.81,373.75c.4,0,.76-.12,1.06-.38v-.73c-.32-.15-.65-.22-1.04-.22-.58,0-.95.24-.95.65s.36.68.93.68Z"></path>
    <path class="cls-32" d="M301.53,373.22v-2.53h-.9v-.81h.9v-1.24l1.02-.22v1.46h1.25v.81h-1.25v2.3c0,.44.17.61.63.61.2,0,.34-.03.61-.11v.85c-.26.08-.6.13-.87.13-.91,0-1.39-.43-1.39-1.26Z"></path>
    <path class="cls-32" d="M304.67,372.85v-2.97h1.03v2.67c0,.67.39,1.09.99,1.09.41,0,.75-.18.98-.54v-3.22h1.02v4.51h-1.02v-.73c-.34.53-.83.8-1.43.8-.92,0-1.57-.67-1.57-1.61Z"></path>
    <path class="cls-32" d="M309.53,373.87l.48-.68c.59.37.99.51,1.45.51.54,0,.91-.25.91-.61,0-.28-.19-.42-.63-.51l-.79-.13c-.88-.16-1.31-.57-1.31-1.24,0-.85.69-1.4,1.75-1.4.63,0,1.2.18,1.77.54l-.48.67c-.46-.3-.9-.43-1.36-.43s-.77.2-.77.52c0,.29.16.41.63.5l.8.15c.9.16,1.33.58,1.33,1.25,0,.83-.79,1.47-1.85,1.47-.77,0-1.46-.22-1.94-.61Z"></path>
    <path class="cls-32" d="M269.27,384.67l.48-.68c.59.37.99.51,1.45.51.54,0,.91-.25.91-.61,0-.28-.19-.42-.63-.51l-.79-.13c-.88-.16-1.31-.57-1.31-1.24,0-.85.69-1.4,1.75-1.4.63,0,1.2.18,1.77.54l-.48.67c-.46-.3-.9-.43-1.36-.43s-.77.2-.77.52c0,.29.16.41.63.5l.8.15c.9.16,1.33.58,1.33,1.25,0,.83-.79,1.47-1.85,1.47-.77,0-1.46-.22-1.94-.61Z"></path>
    <path class="cls-32" d="M273.72,387.1v-.88c.12.03.26.04.4.04.36,0,.58-.16.73-.51l.21-.5-1.7-4.55h1.13l1.15,3.34,1.25-3.34h1.12l-2.16,5.29c-.35.87-.77,1.19-1.61,1.19-.14,0-.32-.02-.5-.06Z"></path>
    <path class="cls-32" d="M278.73,380.68h1.02v.74c.34-.53.84-.81,1.42-.81.93,0,1.58.66,1.58,1.61v2.97h-1.03v-2.68c0-.66-.39-1.08-.99-1.08-.41,0-.75.19-.98.55v3.21h-1.02v-4.51Z"></path>
    <path class="cls-32" d="M283.76,382.94c0-1.31.99-2.33,2.28-2.33.7,0,1.35.28,1.8.76l-.63.66c-.31-.35-.7-.53-1.13-.53-.73,0-1.3.63-1.3,1.44s.57,1.44,1.3,1.44c.43,0,.82-.18,1.13-.52l.63.65c-.45.49-1.1.76-1.8.76-1.29,0-2.28-1.02-2.28-2.33Z"></path>
    <path class="cls-32" d="M290.5,382.94c0-1.31.99-2.33,2.28-2.33.7,0,1.35.28,1.8.76l-.63.66c-.31-.35-.7-.53-1.13-.53-.73,0-1.3.63-1.3,1.44s.57,1.44,1.3,1.44c.43,0,.82-.18,1.13-.52l.63.65c-.45.49-1.1.76-1.8.76-1.29,0-2.28-1.02-2.28-2.33Z"></path>
    <path class="cls-32" d="M295.07,382.94c0-1.33.97-2.33,2.27-2.33s2.26,1,2.26,2.33-.97,2.33-2.26,2.33-2.27-1-2.27-2.33ZM298.6,382.94c0-.84-.53-1.47-1.26-1.47s-1.27.63-1.27,1.47.53,1.47,1.27,1.47,1.26-.62,1.26-1.47Z"></path>
    <path class="cls-32" d="M300.65,380.68h1.02v.74c.34-.53.84-.81,1.42-.81.93,0,1.58.66,1.58,1.61v2.97h-1.03v-2.68c0-.66-.39-1.08-.99-1.08-.41,0-.75.19-.98.55v3.21h-1.02v-4.51Z"></path>
    <path class="cls-32" d="M306.31,384.02v-2.53h-.9v-.81h.9v-1.24l1.02-.22v1.46h1.25v.81h-1.25v2.3c0,.44.17.61.63.61.2,0,.34-.03.61-.11v.85c-.26.08-.6.13-.87.13-.91,0-1.39-.43-1.39-1.26Z"></path>
    <path class="cls-32" d="M309.48,380.68h1.02v.97c.25-.68.68-1.05,1.24-1.05.17,0,.29.03.44.09v.89c-.16-.06-.37-.11-.56-.11-.5,0-.9.28-1.13.75v2.97h-1.02v-4.51Z"></path>
    <path class="cls-32" d="M312.6,382.94c0-1.33.97-2.33,2.27-2.33s2.26,1,2.26,2.33-.97,2.33-2.26,2.33-2.27-1-2.27-2.33ZM316.13,382.94c0-.84-.53-1.47-1.26-1.47s-1.27.63-1.27,1.47.53,1.47,1.27,1.47,1.26-.62,1.26-1.47Z"></path>
    <path class="cls-32" d="M318.18,378.74l1.02-.18v6.63h-1.02v-6.46Z"></path>
    <path class="cls-32" d="M320.45,378.74l1.02-.18v6.63h-1.02v-6.46Z"></path>
    <path class="cls-32" d="M322.51,382.94c0-1.32.95-2.33,2.2-2.33s2.13.98,2.13,2.33v.24h-3.33c.1.73.65,1.26,1.35,1.26.42,0,.82-.16,1.07-.42l.67.6c-.55.46-1.1.66-1.78.66-1.3,0-2.3-1.02-2.3-2.34ZM325.88,382.56c-.11-.66-.58-1.12-1.18-1.12s-1.06.44-1.18,1.12h2.36Z"></path>
    <path class="cls-32" d="M327.87,380.68h1.02v.97c.25-.68.68-1.05,1.24-1.05.17,0,.29.03.44.09v.89c-.16-.06-.37-.11-.56-.11-.5,0-.9.28-1.13.75v2.97h-1.02v-4.51Z"></path>
  </g>
  <rect class="cls-32" x="502.95" y="472.86" width="9.4" height="12.14"></rect>
  <rect class="cls-32" x="487.16" y="472.86" width="9.4" height="12.14"></rect>
  <rect class="cls-32" x="482.45" y="563.37" width="5.45" height="18.94"></rect>
  <rect class="cls-32" x="400.76" y="563.37" width="5.45" height="18.94"></rect>
  <rect class="cls-32" x="323.21" y="563.37" width="5.45" height="18.94"></rect>
  <rect class="cls-32" x="525.93" y="563.37" width="5.45" height="18.94"></rect>
  <g>
    <line class="cls-13" x1="507.49" y1="515.34" x2="507.49" y2="479.83"></line>
    <polygon points="511.23 480.92 507.49 474.45 503.75 480.92 511.23 480.92"></polygon>
  </g>
  <g>
    <polyline class="cls-13" points="491.86 479.83 491.86 493.66 403.49 493.66 403.49 515.34"></polyline>
    <polygon points="488.12 480.92 491.86 474.45 495.6 480.92 488.12 480.92"></polygon>
  </g>
  <rect class="cls-32" x="223.85" y="500.3" width="295.64" height="9.06"></rect>
  <text class="cls-19" transform="translate(237.51 506.94)"><tspan class="cls-52" x="0" y="0">W</tspan><tspan class="cls-37" x="8.06" y="0">a</tspan><tspan class="cls-60" x="12.88" y="0">t</tspan><tspan x="16.53" y="0">ch</tspan></text>
  <text class="cls-19" transform="translate(389.2 506.94)"><tspan x="0" y="0">C</tspan><tspan class="cls-43" x="6.51" y="0">r</tspan><tspan class="cls-53" x="9.84" y="0">e</tspan><tspan class="cls-37" x="14.95" y="0">a</tspan><tspan class="cls-59" x="19.76" y="0">t</tspan><tspan class="cls-34" x="23.42" y="0">e</tspan></text>
  <text class="cls-19" transform="translate(492.99 506.94)"><tspan x="0" y="0">C</tspan><tspan class="cls-43" x="6.51" y="0">r</tspan><tspan class="cls-53" x="9.84" y="0">e</tspan><tspan class="cls-37" x="14.95" y="0">a</tspan><tspan class="cls-59" x="19.76" y="0">t</tspan><tspan class="cls-34" x="23.42" y="0">e</tspan></text>
  <g>
    <polyline class="cls-18" points="253.71 669.28 253.71 677.68 485.33 677.68 485.33 560.53"></polyline>
    <polygon points="249.97 670.38 253.71 663.9 257.45 670.38 249.97 670.38"></polygon>
  </g>
  <g>
    <polyline class="cls-13" points="242.48 669.28 242.48 689.26 528.6 689.26 528.6 560.53"></polyline>
    <polygon points="238.74 670.38 242.48 663.9 246.22 670.38 238.74 670.38"></polygon>
  </g>
  <g>
    <polyline class="cls-15" points="80.38 482.31 80.38 598.9 176.81 598.9 176.81 585.38"></polyline>
    <polygon points="180.55 586.47 176.81 580 173.07 586.47 180.55 586.47"></polygon>
  </g>
  <rect class="cls-29" x="31" y="515.34" width="98.92" height="45.2"></rect>
  <g>
    <path d="M52.43,528.73h1.08v6.3h-1.08v-6.3Z"></path>
    <path d="M54.85,530.52h1.02v.74c.34-.53.84-.81,1.42-.81.93,0,1.58.66,1.58,1.61v2.97h-1.03v-2.68c0-.66-.39-1.08-.99-1.08-.41,0-.75.19-.98.55v3.21h-1.02v-4.51Z"></path>
    <path d="M59.69,534.51l.48-.68c.59.37.99.51,1.45.51.54,0,.91-.25.91-.61,0-.28-.19-.42-.63-.51l-.79-.13c-.88-.16-1.31-.57-1.31-1.24,0-.85.69-1.4,1.75-1.4.63,0,1.2.18,1.77.54l-.48.67c-.46-.3-.9-.43-1.36-.43s-.77.2-.77.52c0,.29.16.41.63.5l.8.15c.9.16,1.33.58,1.33,1.25,0,.83-.79,1.47-1.85,1.47-.77,0-1.46-.22-1.94-.61Z"></path>
    <path d="M64.87,533.86v-2.53h-.9v-.81h.9v-1.24l1.02-.22v1.46h1.25v.81h-1.25v2.3c0,.44.17.61.63.61.2,0,.34-.03.61-.11v.85c-.26.08-.6.13-.87.13-.91,0-1.39-.43-1.39-1.26Z"></path>
    <path d="M67.8,533.73c0-.81.67-1.32,1.73-1.32.42,0,.82.09,1.22.29v-.5c0-.59-.34-.9-1.04-.9-.38,0-.79.11-1.31.35l-.36-.74c.67-.31,1.27-.46,1.87-.46,1.18,0,1.85.59,1.85,1.64v2.94h-1.01v-.47c-.39.38-.82.55-1.34.55-.95,0-1.6-.57-1.6-1.38ZM69.69,534.39c.4,0,.76-.12,1.06-.38v-.73c-.32-.15-.65-.22-1.04-.22-.58,0-.95.24-.95.65s.36.68.93.68Z"></path>
    <path d="M72.99,528.57l1.02-.18v6.63h-1.02v-6.46Z"></path>
    <path d="M75.26,528.57l1.02-.18v6.63h-1.02v-6.46Z"></path>
    <path d="M77.29,533.73c0-.81.67-1.32,1.73-1.32.42,0,.82.09,1.22.29v-.5c0-.59-.34-.9-1.04-.9-.38,0-.79.11-1.31.35l-.36-.74c.67-.31,1.27-.46,1.87-.46,1.18,0,1.85.59,1.85,1.64v2.94h-1.01v-.47c-.39.38-.82.55-1.34.55-.95,0-1.6-.57-1.6-1.38ZM79.17,534.39c.4,0,.76-.12,1.06-.38v-.73c-.32-.15-.65-.22-1.04-.22-.58,0-.95.24-.95.65s.36.68.93.68Z"></path>
    <path d="M82.9,533.86v-2.53h-.9v-.81h.9v-1.24l1.02-.22v1.46h1.25v.81h-1.25v2.3c0,.44.17.61.63.61.2,0,.34-.03.61-.11v.85c-.26.08-.6.13-.87.13-.91,0-1.39-.43-1.39-1.26Z"></path>
    <path d="M85.94,528.98c0-.34.28-.63.63-.63s.63.29.63.63-.29.62-.63.62-.63-.28-.63-.62ZM86.06,530.52h1.02v4.51h-1.02v-4.51Z"></path>
    <path d="M88.13,532.78c0-1.33.97-2.33,2.27-2.33s2.26,1,2.26,2.33-.97,2.33-2.26,2.33-2.27-1-2.27-2.33ZM91.66,532.78c0-.84-.53-1.47-1.26-1.47s-1.27.63-1.27,1.47.53,1.47,1.27,1.47,1.26-.62,1.26-1.47Z"></path>
    <path d="M93.71,530.52h1.02v.74c.34-.53.84-.81,1.42-.81.93,0,1.58.66,1.58,1.61v2.97h-1.03v-2.68c0-.66-.39-1.08-.99-1.08-.41,0-.75.19-.98.55v3.21h-1.02v-4.51Z"></path>
    <path d="M100.76,532.78c0-1.33.97-2.33,2.27-2.33s2.26,1,2.26,2.33-.97,2.33-2.26,2.33-2.27-1-2.27-2.33ZM104.29,532.78c0-.84-.53-1.47-1.26-1.47s-1.27.63-1.27,1.47.53,1.47,1.27,1.47,1.26-.62,1.26-1.47Z"></path>
    <path d="M106.75,531.33h-.97v-.81h.97v-.77c0-.98.55-1.51,1.56-1.51.25,0,.5.03.68.08v.86c-.23-.04-.36-.06-.54-.06-.47,0-.68.21-.68.65v.76h1.22v.81h-1.22v3.7h-1.02v-3.7Z"></path>
    <path d="M45.09,541.32h1v.64c.32-.42.83-.67,1.4-.67,1.14,0,2.03,1.02,2.03,2.3s-.92,2.29-2.1,2.29c-.53,0-1-.2-1.32-.58v2.41h-1.02v-6.39ZM48.53,543.58c0-.82-.58-1.44-1.34-1.44-.45,0-.82.18-1.08.5v1.88c.26.31.65.5,1.08.5.77,0,1.34-.62,1.34-1.45Z"></path>
    <path d="M50.38,543.58c0-1.33.97-2.33,2.27-2.33s2.26,1,2.26,2.33-.97,2.33-2.26,2.33-2.27-1-2.27-2.33ZM53.91,543.58c0-.84-.53-1.47-1.26-1.47s-1.27.63-1.27,1.47.53,1.47,1.27,1.47,1.26-.62,1.26-1.47Z"></path>
    <path d="M55.96,539.37l1.02-.18v6.63h-1.02v-6.46Z"></path>
    <path d="M58.1,539.78c0-.34.28-.63.63-.63s.63.29.63.63-.29.62-.63.62-.63-.28-.63-.62ZM58.22,541.32h1.02v4.51h-1.02v-4.51Z"></path>
    <path d="M60.29,543.58c0-1.31.99-2.33,2.28-2.33.7,0,1.35.28,1.8.76l-.63.66c-.31-.35-.7-.53-1.13-.53-.73,0-1.3.63-1.3,1.44s.57,1.44,1.3,1.44c.43,0,.82-.18,1.13-.52l.63.65c-.45.49-1.1.76-1.8.76-1.29,0-2.28-1.02-2.28-2.33Z"></path>
    <path d="M65.02,547.74v-.88c.12.03.26.04.4.04.36,0,.58-.16.73-.51l.21-.5-1.7-4.55h1.13l1.15,3.34,1.25-3.34h1.12l-2.16,5.29c-.35.87-.77,1.19-1.61,1.19-.14,0-.32-.02-.5-.06Z"></path>
    <path d="M71.85,543.58c0-1.31.99-2.33,2.28-2.33.7,0,1.35.28,1.8.76l-.63.66c-.31-.35-.7-.53-1.13-.53-.73,0-1.3.63-1.3,1.44s.57,1.44,1.3,1.44c.43,0,.82-.18,1.13-.52l.63.65c-.45.49-1.1.76-1.8.76-1.29,0-2.28-1.02-2.28-2.33Z"></path>
    <path d="M76.43,543.58c0-1.33.97-2.33,2.27-2.33s2.26,1,2.26,2.33-.97,2.33-2.26,2.33-2.27-1-2.27-2.33ZM79.96,543.58c0-.84-.53-1.47-1.26-1.47s-1.27.63-1.27,1.47.53,1.47,1.27,1.47,1.26-.62,1.26-1.47Z"></path>
    <path d="M82.01,541.32h1.02v.74c.34-.53.84-.81,1.42-.81.93,0,1.58.66,1.58,1.61v2.97h-1.03v-2.68c0-.66-.39-1.08-.99-1.08-.41,0-.75.19-.98.55v3.21h-1.02v-4.51Z"></path>
    <path d="M87.67,544.66v-2.53h-.9v-.81h.9v-1.24l1.02-.22v1.46h1.25v.81h-1.25v2.3c0,.44.17.61.63.61.2,0,.34-.03.61-.11v.85c-.26.08-.6.13-.87.13-.91,0-1.39-.43-1.39-1.26Z"></path>
    <path d="M90.84,541.32h1.02v.97c.25-.68.68-1.05,1.24-1.05.17,0,.29.03.44.09v.89c-.16-.06-.37-.11-.56-.11-.5,0-.9.28-1.13.75v2.97h-1.02v-4.51Z"></path>
    <path d="M93.96,543.58c0-1.33.97-2.33,2.27-2.33s2.26,1,2.26,2.33-.97,2.33-2.26,2.33-2.27-1-2.27-2.33ZM97.49,543.58c0-.84-.53-1.47-1.26-1.47s-1.27.63-1.27,1.47.53,1.47,1.27,1.47,1.26-.62,1.26-1.47Z"></path>
    <path d="M99.54,539.37l1.02-.18v6.63h-1.02v-6.46Z"></path>
    <path d="M101.81,539.37l1.02-.18v6.63h-1.02v-6.46Z"></path>
    <path d="M103.87,543.58c0-1.32.95-2.33,2.2-2.33s2.13.98,2.13,2.33v.24h-3.33c.1.73.65,1.26,1.35,1.26.42,0,.82-.16,1.07-.42l.67.6c-.55.46-1.1.66-1.78.66-1.3,0-2.3-1.02-2.3-2.34ZM107.23,543.19c-.11-.66-.58-1.12-1.18-1.12s-1.06.44-1.18,1.12h2.36Z"></path>
    <path d="M109.23,541.32h1.02v.97c.25-.68.68-1.05,1.24-1.05.17,0,.29.03.44.09v.89c-.16-.06-.37-.11-.56-.11-.5,0-.9.28-1.13.75v2.97h-1.02v-4.51Z"></path>
    <path d="M112.38,545.31l.48-.68c.59.37.99.51,1.45.51.54,0,.91-.25.91-.61,0-.28-.19-.42-.63-.51l-.79-.13c-.88-.16-1.31-.57-1.31-1.24,0-.85.69-1.4,1.75-1.4.63,0,1.2.18,1.77.54l-.48.67c-.46-.3-.9-.43-1.36-.43s-.77.2-.77.52c0,.29.16.41.63.5l.8.15c.9.16,1.33.58,1.33,1.25,0,.83-.79,1.47-1.85,1.47-.77,0-1.46-.22-1.94-.61Z"></path>
  </g>
  <rect class="cls-32" x="60.92" y="495.77" width="31.31" height="9.06"></rect>
  <rect class="cls-32" x="60.92" y="575.57" width="31.31" height="9.06"></rect>
  <text class="cls-19" transform="translate(61.36 502.51)"><tspan class="cls-57" x="0" y="0">M</tspan><tspan x="7.91" y="0">anag</tspan><tspan class="cls-63" x="28.53" y="0">e</tspan><tspan x="33.73" y="0">s</tspan></text>
  <text class="cls-19" transform="translate(67.88 582.64)"><tspan x="0" y="0">In</tspan><tspan class="cls-57" x="7.74" y="0">s</tspan><tspan class="cls-34" x="11.96" y="0">tall</tspan></text>
  <rect class="cls-32" x="193.03" y="284.81" width="5.77" height="50.14"></rect>
  <rect class="cls-32" x="297.03" y="284.81" width="5.77" height="50.14"></rect>
  <g>
    <line class="cls-18" x1="195.91" y1="358.89" x2="195.91" y2="274.37"></line>
    <polygon points="199.65 275.46 195.91 268.98 192.17 275.46 199.65 275.46"></polygon>
  </g>
  <g>
    <line class="cls-13" x1="299.91" y1="358.89" x2="299.91" y2="274.37"></line>
    <polygon points="303.65 275.46 299.91 268.98 296.17 275.46 303.65 275.46"></polygon>
  </g>
  <rect class="cls-32" x="154.1" y="298.52" width="163.44" height="13.04"></rect>
  <text class="cls-19" transform="translate(182.67 307.14)"><tspan class="cls-52" x="0" y="0">W</tspan><tspan class="cls-37" x="8.06" y="0">a</tspan><tspan class="cls-60" x="12.88" y="0">t</tspan><tspan x="16.53" y="0">ch</tspan></text>
  <text class="cls-19" transform="translate(284.33 307.14)"><tspan x="0" y="0">Upd</tspan><tspan class="cls-38" x="17.54" y="0">a</tspan><tspan class="cls-59" x="22.36" y="0">t</tspan><tspan x="26.01" y="0">e</tspan></text>
  <g>
    <polyline class="cls-13" points="325.94 561.09 325.94 597.76 392.46 597.76 392.46 606.63"></polyline>
    <polygon points="388.72 605.54 392.46 612.02 396.2 605.54 388.72 605.54"></polygon>
  </g>
  <rect class="cls-32" x="245.48" y="563.37" width="5.45" height="18.94"></rect>
  <g>
    <line class="cls-13" x1="248.2" y1="606.63" x2="248.2" y2="561.09"></line>
    <polygon points="251.94 605.54 248.2 612.02 244.46 605.54 251.94 605.54"></polygon>
  </g>
  <g>
    <g>
      <line class="cls-18" x1="403.49" y1="606.63" x2="403.49" y2="561.09"></line>
      <polygon points="407.23 605.54 403.49 612.02 399.75 605.54 407.23 605.54"></polygon>
    </g>
    <rect class="cls-32" x="229.16" y="582.3" width="308.42" height="10.5"></rect>
    <text class="cls-19" transform="translate(471.94 590.27)"><tspan class="cls-52" x="0" y="0">W</tspan><tspan class="cls-37" x="8.06" y="0">a</tspan><tspan class="cls-60" x="12.88" y="0">t</tspan><tspan x="16.53" y="0">ch</tspan></text>
    <text class="cls-19" transform="translate(391.25 590.27)"><tspan class="cls-52" x="0" y="0">W</tspan><tspan class="cls-37" x="8.06" y="0">a</tspan><tspan class="cls-60" x="12.88" y="0">t</tspan><tspan x="16.53" y="0">ch</tspan></text>
    <text class="cls-19" transform="translate(513.88 590.27)"><tspan x="0" y="0">Upd</tspan><tspan class="cls-38" x="17.54" y="0">a</tspan><tspan class="cls-59" x="22.36" y="0">t</tspan><tspan x="26.01" y="0">e</tspan></text>
    <text class="cls-19" transform="translate(310.35 590.27)"><tspan x="0" y="0">Upd</tspan><tspan class="cls-38" x="17.54" y="0">a</tspan><tspan class="cls-59" x="22.36" y="0">t</tspan><tspan x="26.01" y="0">e</tspan></text>
    <text class="cls-19" transform="translate(232.64 590.27)"><tspan x="0" y="0">Upd</tspan><tspan class="cls-38" x="17.54" y="0">a</tspan><tspan class="cls-59" x="22.36" y="0">t</tspan><tspan x="26.01" y="0">e</tspan></text>
  </g>
  <rect class="cls-32" x="154.1" y="406.08" width="365.4" height="13.04"></rect>
  <text class="cls-19" transform="translate(180.33 414.7)"><tspan x="0" y="0">Upd</tspan><tspan class="cls-38" x="17.54" y="0">a</tspan><tspan class="cls-59" x="22.36" y="0">t</tspan><tspan x="26.01" y="0">e</tspan></text>
  <text class="cls-19" transform="translate(305.72 414.7)"><tspan x="0" y="0">Upd</tspan><tspan class="cls-38" x="17.54" y="0">a</tspan><tspan class="cls-59" x="22.36" y="0">t</tspan><tspan x="26.01" y="0">e</tspan></text>
  <text class="cls-19" transform="translate(262.94 414.7)"><tspan class="cls-52" x="0" y="0">W</tspan><tspan class="cls-37" x="8.06" y="0">a</tspan><tspan class="cls-60" x="12.88" y="0">t</tspan><tspan x="16.53" y="0">ch</tspan></text>
  <text class="cls-19" transform="translate(494.04 414.7)"><tspan class="cls-52" x="0" y="0">W</tspan><tspan class="cls-37" x="8.06" y="0">a</tspan><tspan class="cls-60" x="12.88" y="0">t</tspan><tspan x="16.53" y="0">ch</tspan></text>
</svg>