<svg xmlns="http://www.w3.org/2000/svg" version="1.1" viewBox="0 0 595.276 322.215" height="113.67mm" width="210mm" data-name="Layer 1" id="Layer_1">
  <metadata id="metadata1055">
    
      
        image/svg+xml
        
        
        
          
            ch03
            do322
            OpenShift
            OCP
            installation
            full stack
          
        
      
    
  </metadata>
  
  <defs id="defs12">
    <style id="style10">
      .cls-1 {
        fill: #f0f0f0;
      }

      .cls-19, .cls-2, .cls-21, .cls-4, .cls-8, .cls-9 {
        fill: #fff;
      }

      .cls-2 {
        stroke: #be0000;
      }

      .cls-10, .cls-15, .cls-17, .cls-2, .cls-21, .cls-5, .cls-6, .cls-7, .cls-8 {
        stroke-linecap: round;
        stroke-linejoin: round;
      }

      .cls-2, .cls-8 {
        stroke-dasharray: 3 0 0;
      }

      .cls-3 {
        fill: #dbe8f5;
      }

      .cls-10, .cls-15, .cls-17, .cls-5, .cls-6, .cls-7 {
        fill: none;
      }

      .cls-10, .cls-5 {
        stroke: #c0d682;
      }

      .cls-5, .cls-7 {
        stroke-width: 2px;
      }

      .cls-6, .cls-7 {
        stroke: #06c;
      }

      .cls-15, .cls-8 {
        stroke: #c8c8c8;
      }

      .cls-9 {
        stroke: #dcdcdc;
      }

      .cls-19, .cls-9 {
        stroke-miterlimit: 10;
      }

      .cls-11 {
        fill: #151515;
      }

      .cls-12 {
        fill: #06c;
      }

      .cls-13 {
        fill: #9aab68;
      }

      .cls-14 {
        fill: #5b5b5b;
      }

      .cls-16 {
        fill: #828282;
      }

      .cls-17 {
        stroke: #4d4c4c;
        stroke-width: 0.5px;
      }

      .cls-18 {
        fill: #4d4c4c;
      }

      .cls-19 {
        stroke: #dbdbdb;
      }

      .cls-20 {
        fill: #1d1d1b;
      }

      .cls-21 {
        stroke: #e31714;
        stroke-width: 0.75px;
      }
    </style>
  </defs>
  <rect id="rect14" height="301.272" width="578.001" y="11.198" x="8.638" class="cls-1"></rect>
  <rect id="rect16" height="278.072" width="385.888" y="23.037" x="187.575" class="cls-2"></rect>
  <rect id="rect18" height="63.59" width="254.775" y="228.557" x="277.203" class="cls-3"></rect>
  <rect id="rect20" height="41.712" width="246.017" y="232.688" x="281.628" class="cls-4"></rect>
  <line id="line22" y2="111.086" x2="516.409" y1="111.086" x1="23.011" class="cls-5"></line>
  <line id="line24" y2="48.857" x2="314.54" y1="173.315" x1="314.54" class="cls-6"></line>
  <line id="line26" y2="48.857" x2="517.304" y1="48.857" x1="23.011" class="cls-7"></line>
  <rect id="rect28" height="40.998" width="74.675" y="173.315" x="23.514" class="cls-8"></rect>
  <rect id="rect30" height="40.998" width="74.675" y="173.315" x="192.64" class="cls-9"></rect>
  <rect id="rect32" height="40.998" width="74.675" y="173.315" x="108.077" class="cls-8"></rect>
  <rect id="rect34" height="40.998" width="74.675" y="173.315" x="277.203" class="cls-9"></rect>
  <rect id="rect36" height="40.998" width="74.675" y="173.315" x="367.252" class="cls-9"></rect>
  <rect id="rect38" height="40.998" width="74.675" y="173.315" x="457.302" class="cls-9"></rect>
  <line id="line40" y2="111.086" x2="60.852" y1="173.315" x1="60.852" class="cls-10"></line>
  <line id="line42" y2="48.857" x2="145.415" y1="173.315" x1="145.415" class="cls-6"></line>
  <line id="line44" y2="111.086" x2="229.978" y1="173.315" x1="229.978" class="cls-10"></line>
  <line id="line46" y2="111.086" x2="163.411" y1="173.315" x1="163.411" class="cls-10"></line>
  <line id="line48" y2="48.857" x2="404.59" y1="173.315" x1="404.59" class="cls-6"></line>
  <line id="line50" y2="111.086" x2="494.64" y1="173.315" x1="494.64" class="cls-10"></line>
  <line id="line52" y2="79.851" x2="43.663" y1="110.549" x1="43.663" class="cls-10"></line>
  <line id="line54" y2="79.851" x2="77.437" y1="110.549" x1="77.437" class="cls-10"></line>
  <line id="line56" y2="79.851" x2="111.212" y1="110.549" x1="111.212" class="cls-10"></line>
  <rect id="rect58" height="17.129" width="28.157" y="62.722" x="29.584" class="cls-8"></rect>
  <rect id="rect60" height="17.129" width="28.157" y="62.722" x="63.359" class="cls-8"></rect>
  <rect id="rect62" height="17.129" width="28.157" y="62.722" x="97.133" class="cls-8"></rect>
  <g id="g98">
    <path id="path64" d="M320.4,120.71h.833l1.625,4.2h-.774l-.425-1.175h-1.727l-.431,1.175h-.75Zm1.049,2.459-.648-1.787-.659,1.787Z" class="cls-11"></path>
    <path id="path66" d="M323.4,120.71h1.877a1.3,1.3,0,1,1,0,2.6h-1.158v1.6H323.4Zm.719.606v1.4h1.044a.706.706,0,1,0,0-1.4Z" class="cls-11"></path>
    <path id="path68" d="M327.437,120.71h.72v4.2h-.72Z" class="cls-11"></path>
    <path id="path70" d="M330.485,120.71h.72v3.574h2.236v.624h-2.956Z" class="cls-11"></path>
    <path id="path72" d="M336.1,120.71c.791,0,1.325.444,1.325,1.1a1,1,0,0,1-.672.929,1.051,1.051,0,0,1,.816,1,1.224,1.224,0,0,1-1.385,1.169h-1.949v-4.2Zm-1.145.588v1.175h1.073c.414,0,.678-.228.678-.587s-.264-.588-.678-.588Zm1.888,2.375a.655.655,0,0,0-.743-.642h-1.145v1.289H336.1A.659.659,0,0,0,336.843,123.673Z" class="cls-11"></path>
    <path id="path74" d="M321.106,128.148l.168.324a3.452,3.452,0,0,0-1.78,3.083,2.322,2.322,0,0,0,.767,1.876l-.288.276a2.6,2.6,0,0,1-.893-2.117A3.783,3.783,0,0,1,321.106,128.148Z" class="cls-11"></path>
    <path id="path76" d="M321.485,130.847a2.5,2.5,0,0,1,2.195-2.675,1.752,1.752,0,0,1,1.073.348l-.282.318a1.41,1.41,0,0,0-.839-.282,1.928,1.928,0,0,0-1.673,1.763,1.758,1.758,0,0,1,1.206-.534,1.165,1.165,0,0,1,1.229,1.176,1.521,1.521,0,0,1-1.535,1.487A1.412,1.412,0,0,1,321.485,130.847Zm1.4,1.223a1.078,1.078,0,0,0,1.08-1.056.867.867,0,0,0-.893-.881,1.721,1.721,0,0,0-1.164.51c0,.078-.006.156-.006.234C321.9,131.608,322.289,132.07,322.888,132.07Z" class="cls-11"></path>
    <path id="path78" d="M327.6,130.913h.575l-.084.377h-.569l-.24,1.122h-.419l.239-1.122h-2.219l.078-.341,2.765-2.735h.449Zm-.42,0,.456-2.141-2.159,2.141Z" class="cls-11"></path>
    <path id="path80" d="M331.234,130.913h.575l-.084.377h-.569l-.24,1.122H330.5l.239-1.122h-2.219l.078-.341,2.765-2.735h.449Zm-.42,0,.456-2.141-2.159,2.141Z" class="cls-11"></path>
    <path id="path82" d="M333.515,132.466a1.677,1.677,0,0,1-1.47-.7l.325-.257a1.311,1.311,0,0,0,1.169.581.977.977,0,0,0,1.073-.882.726.726,0,0,0-.732-.755h-.5l.078-.372h.474c.552,0,.936-.317.936-.779a.76.76,0,0,0-.84-.744,1.651,1.651,0,0,0-1.079.426l-.228-.306a2.153,2.153,0,0,1,1.361-.5,1.062,1.062,0,1,1,.222,2.111.964.964,0,0,1,.732.906A1.4,1.4,0,0,1,333.515,132.466Z" class="cls-11"></path>
    <path id="path84" d="M336.2,131.968l-.75,1.385h-.342l.624-1.385Z" class="cls-11"></path>
    <path id="path86" d="M338.183,132.094l2.249-2.051a1.215,1.215,0,0,0,.491-.887c0-.36-.323-.612-.779-.612a1.806,1.806,0,0,0-1.109.456l-.186-.312a2.3,2.3,0,0,1,1.373-.522,1,1,0,0,1,1.127.936,1.506,1.506,0,0,1-.665,1.181l-1.932,1.757,2.087-.006-.078.378h-2.644Z" class="cls-11"></path>
    <path id="path88" d="M341.411,132.094l2.249-2.051a1.215,1.215,0,0,0,.491-.887c0-.36-.323-.612-.779-.612a1.8,1.8,0,0,0-1.11.456l-.185-.312a2.3,2.3,0,0,1,1.373-.522,1,1,0,0,1,1.127.936,1.506,1.506,0,0,1-.665,1.181l-1.932,1.757,2.087-.006-.078.378h-2.645Z" class="cls-11"></path>
    <path id="path90" d="M345.011,130.847a2.5,2.5,0,0,1,2.195-2.675,1.754,1.754,0,0,1,1.073.348l-.281.318a1.417,1.417,0,0,0-.84-.282,1.926,1.926,0,0,0-1.673,1.763,1.755,1.755,0,0,1,1.2-.534,1.165,1.165,0,0,1,1.229,1.176,1.521,1.521,0,0,1-1.535,1.487A1.412,1.412,0,0,1,345.011,130.847Zm1.4,1.223a1.078,1.078,0,0,0,1.079-1.056.867.867,0,0,0-.894-.881,1.721,1.721,0,0,0-1.163.51c0,.078-.006.156-.006.234C345.431,131.608,345.815,132.07,346.415,132.07Z" class="cls-11"></path>
    <path id="path92" d="M348.305,132.094l2.249-2.051a1.215,1.215,0,0,0,.491-.887c0-.36-.323-.612-.779-.612a1.8,1.8,0,0,0-1.109.456l-.186-.312a2.306,2.306,0,0,1,1.373-.522,1,1,0,0,1,1.127.936,1.5,1.5,0,0,1-.665,1.181l-1.931,1.757,2.086-.006-.078.378h-2.644Z" class="cls-11"></path>
    <path id="path94" d="M353,132.466a1.675,1.675,0,0,1-1.469-.7l.323-.257a1.315,1.315,0,0,0,1.17.581.977.977,0,0,0,1.073-.882.725.725,0,0,0-.731-.755h-.5l.078-.372h.474a.827.827,0,0,0,.935-.779.76.76,0,0,0-.84-.744,1.649,1.649,0,0,0-1.079.426l-.227-.306a2.149,2.149,0,0,1,1.361-.5,1.062,1.062,0,1,1,.222,2.111.963.963,0,0,1,.731.906A1.4,1.4,0,0,1,353,132.466Z" class="cls-11"></path>
    <path id="path96" d="M354.893,133.707l-.168-.323a3.452,3.452,0,0,0,1.781-3.083,2.324,2.324,0,0,0-.767-1.877l.288-.276a2.6,2.6,0,0,1,.893,2.117A3.783,3.783,0,0,1,354.893,133.707Z" class="cls-11"></path>
  </g>
  <g id="g140">
    <path id="path100" d="M369.29,281.925h1.055l.7,1.942.708-1.942h1l-1.265,3.094h-.948Z" class="cls-11"></path>
    <path id="path102" d="M373.441,283.681a2.3,2.3,0,0,0,1.361.558c.444,0,.713-.18.713-.437s-.142-.36-.551-.438l-.893-.156a1.113,1.113,0,0,1-1.032-1.122c0-.815.625-1.325,1.668-1.325a2.846,2.846,0,0,1,1.72.552l-.521.749a2.009,2.009,0,0,0-1.254-.461c-.407,0-.641.168-.641.395,0,.21.137.324.473.378l.84.144c.785.138,1.2.546,1.2,1.187,0,.816-.7,1.374-1.793,1.374a2.969,2.969,0,0,1-1.816-.636Z" class="cls-11"></path>
    <path id="path104" d="M377.107,281.925h.96v.431a1.141,1.141,0,0,1,.917-.449,1.474,1.474,0,0,1,1.367,1.571,1.492,1.492,0,0,1-1.439,1.559,1.079,1.079,0,0,1-.833-.36v1.631h-.972Zm.972,1.037v1.031a.8.8,0,0,0,.582.246.765.765,0,0,0,0-1.529A.749.749,0,0,0,378.079,282.962Z" class="cls-11"></path>
    <path id="path106" d="M380.972,280.731l.971-.15v1.847a1.143,1.143,0,0,1,.977-.551,1,1,0,0,1,1.026,1.055v2.087h-.972v-1.805a.515.515,0,0,0-.516-.576.628.628,0,0,0-.515.258v2.123h-.971Z" class="cls-11"></path>
    <path id="path108" d="M386.172,285.079a1.6,1.6,0,0,1-1.631-1.6,1.553,1.553,0,0,1,1.559-1.608,1.521,1.521,0,0,1,1.524,1.643v.21H385.5a.741.741,0,0,0,.725.582.766.766,0,0,0,.612-.258l.642.534A1.8,1.8,0,0,1,386.172,285.079Zm-.677-1.907h1.229a.645.645,0,0,0-.63-.546A.614.614,0,0,0,385.5,283.172Z" class="cls-11"></path>
    <path id="path110" d="M388.232,281.925h.971v.7c.2-.515.474-.761.839-.761a.659.659,0,0,1,.325.078v.833a1.073,1.073,0,0,0-.457-.1.855.855,0,0,0-.707.384v1.955h-.971Z" class="cls-11"></path>
    <path id="path112" d="M392.376,285.079a1.6,1.6,0,0,1-1.63-1.6,1.552,1.552,0,0,1,1.558-1.608,1.521,1.521,0,0,1,1.524,1.643v.21H391.7a.741.741,0,0,0,.725.582.77.77,0,0,0,.613-.258l.64.534A1.8,1.8,0,0,1,392.376,285.079Zm-.677-1.907h1.229a.644.644,0,0,0-.63-.546A.614.614,0,0,0,391.7,283.172Z" class="cls-11"></path>
    <path id="path114" d="M398.826,283.634l.677.641a2.15,2.15,0,1,1,.03-2.7l-.7.659a1.221,1.221,0,0,0-1.007-.557,1.17,1.17,0,0,0-1.145,1.247,1.169,1.169,0,0,0,2.141.714Z" class="cls-11"></path>
    <path id="path116" d="M401.016,285.019h-.972v-4.288l.972-.15Z" class="cls-11"></path>
    <path id="path118" d="M403.248,281.877a1.6,1.6,0,1,1-1.614,1.6A1.575,1.575,0,0,1,403.248,281.877Zm.671,1.6a.678.678,0,1,0-1.336,0,.676.676,0,1,0,1.336,0Z" class="cls-11"></path>
    <path id="path120" d="M406.435,283.73a.515.515,0,0,0,.516.575.623.623,0,0,0,.515-.258v-2.122h.971v3.094h-.971v-.5a1.142,1.142,0,0,1-.977.552,1,1,0,0,1-1.026-1.055v-2.087h.972Z" class="cls-11"></path>
    <path id="path122" d="M411.335,284.617a1.164,1.164,0,0,1-.912.42,1.475,1.475,0,0,1-1.367-1.571,1.492,1.492,0,0,1,1.44-1.559,1.083,1.083,0,0,1,.828.371v-1.547l.97-.15v4.438h-.959Zm-.587-.384a.757.757,0,0,0,.576-.245v-1.044a.79.79,0,0,0-.576-.24.765.765,0,0,0,0,1.529Z" class="cls-11"></path>
    <path id="path124" d="M414.433,280.821h2.051a1.371,1.371,0,1,1,0,2.734h-1.02v1.464h-1.031Zm1.031.852v1.061h.833c.42,0,.624-.228.624-.533s-.2-.528-.617-.528Z" class="cls-11"></path>
    <path id="path126" d="M418.6,281.925h.971v.7c.2-.515.474-.761.84-.761a.65.65,0,0,1,.324.078v.833a1.057,1.057,0,0,0-.455-.1.856.856,0,0,0-.709.384v1.955H418.6Z" class="cls-11"></path>
    <path id="path128" d="M422.73,281.877a1.6,1.6,0,1,1-1.613,1.6A1.575,1.575,0,0,1,422.73,281.877Zm.672,1.6a.679.679,0,1,0-1.338,0,.677.677,0,1,0,1.338,0Z" class="cls-11"></path>
    <path id="path130" d="M424.632,281.925h1.057l.7,1.942.707-1.942h1l-1.266,3.094h-.947Z" class="cls-11"></path>
    <path id="path132" d="M428.46,280.9a.549.549,0,0,1,1.1,0,.549.549,0,0,1-1.1,0Zm1.032,4.114h-.971v-3.094h.971Z" class="cls-11"></path>
    <path id="path134" d="M432.39,284.617a1.171,1.171,0,0,1-.912.42,1.474,1.474,0,0,1-1.367-1.571,1.492,1.492,0,0,1,1.439-1.559,1.083,1.083,0,0,1,.828.371v-1.547l.971-.15v4.438h-.959Zm-.588-.384a.754.754,0,0,0,.576-.245v-1.044a.79.79,0,0,0-.576-.24.765.765,0,0,0,0,1.529Z" class="cls-11"></path>
    <path id="path136" d="M435.6,285.079a1.6,1.6,0,0,1-1.631-1.6,1.553,1.553,0,0,1,1.559-1.608,1.52,1.52,0,0,1,1.523,1.643v.21h-2.129a.743.743,0,0,0,.727.582.764.764,0,0,0,.611-.258l.641.534A1.8,1.8,0,0,1,435.6,285.079Zm-.678-1.907h1.231a.646.646,0,0,0-.631-.546A.616.616,0,0,0,434.921,283.172Z" class="cls-11"></path>
    <path id="path138" d="M437.658,281.925h.972v.7c.2-.515.473-.761.838-.761a.647.647,0,0,1,.324.078v.833a1.057,1.057,0,0,0-.455-.1.851.851,0,0,0-.707.384v1.955h-.972Z" class="cls-11"></path>
  </g>
  <g id="g222">
    <path id="path142" d="M195.387,28.835h3.2V29.7h-2.165v.827h1.512v.84h-1.512v1.667h-1.031Z" class="cls-11"></path>
    <path id="path144" d="M200.223,31.744a.515.515,0,0,0,.515.576.624.624,0,0,0,.516-.259V29.939h.972v3.094h-.972v-.5a1.141,1.141,0,0,1-.977.552,1,1,0,0,1-1.026-1.055V29.939h.972Z" class="cls-11"></path>
    <path id="path146" d="M203.955,33.033h-.972V28.745l.972-.149Z" class="cls-11"></path>
    <path id="path148" d="M205.683,33.033h-.972V28.745l.972-.149Z" class="cls-11"></path>
    <path id="path150" d="M207.993,31.7a2.3,2.3,0,0,0,1.361.557c.444,0,.713-.179.713-.437s-.143-.36-.551-.438l-.893-.156a1.113,1.113,0,0,1-1.032-1.122c0-.815.623-1.325,1.667-1.325a2.849,2.849,0,0,1,1.721.552l-.521.749a2.009,2.009,0,0,0-1.254-.461c-.408,0-.642.168-.642.4,0,.21.138.323.474.377l.839.145c.786.137,1.2.545,1.2,1.187,0,.815-.7,1.373-1.793,1.373a2.976,2.976,0,0,1-1.817-.636Z" class="cls-11"></path>
    <path id="path152" d="M212.067,30.688h-.6v-.749h.6v-.858l.971-.2v1.056h.828v.749h-.828v1.2c0,.275.108.372.408.372a1.335,1.335,0,0,0,.4-.066v.785a2.7,2.7,0,0,1-.666.1c-.731,0-1.109-.336-1.109-1Z" class="cls-11"></path>
    <path id="path154" d="M214.263,32.145c0-.569.444-.9,1.2-.9a2.015,2.015,0,0,1,.72.144v-.252c0-.3-.2-.45-.611-.45a2.306,2.306,0,0,0-.87.216l-.336-.678a3.436,3.436,0,0,1,1.421-.335c.858,0,1.355.426,1.355,1.163v1.979h-.959v-.27a1.231,1.231,0,0,1-.857.318A.963.963,0,0,1,214.263,32.145Zm1.367.294a1.056,1.056,0,0,0,.558-.155v-.4a2.323,2.323,0,0,0-.534-.066c-.318,0-.5.108-.5.306S215.331,32.439,215.63,32.439Z" class="cls-11"></path>
    <path id="path156" d="M220.028,31.948l.576.569a1.629,1.629,0,0,1-1.26.576,1.6,1.6,0,1,1,0-3.2,1.678,1.678,0,0,1,1.29.569l-.594.594a.81.81,0,0,0-.66-.336.773.773,0,0,0,.024,1.535A.748.748,0,0,0,220.028,31.948Z" class="cls-11"></path>
    <path id="path158" d="M221.115,28.745l.971-.149v2.572l1.08-1.229h1.073l-1.259,1.385,1.349,1.709h-1.211l-1.032-1.367v1.367h-.971Z" class="cls-11"></path>
    <path id="path160" d="M228.164,30.91v.81h-2.207v-.81Z" class="cls-11"></path>
    <path id="path162" d="M230.229,28.835h2.039a1.363,1.363,0,0,1,1.481,1.338,1.264,1.264,0,0,1-.78,1.175l.882,1.685H232.7l-.761-1.541h-.678v1.541h-1.031Zm1.031.852v.995h.911a.5.5,0,1,0,0-.995Z" class="cls-11"></path>
    <path id="path164" d="M235.85,33.093a1.6,1.6,0,0,1-1.631-1.6,1.552,1.552,0,0,1,1.559-1.607,1.52,1.52,0,0,1,1.523,1.643v.21h-2.129a.743.743,0,0,0,.726.582.767.767,0,0,0,.612-.259l.641.534A1.8,1.8,0,0,1,235.85,33.093Zm-.678-1.907h1.23a.645.645,0,0,0-.63-.546A.615.615,0,0,0,235.172,31.186Z" class="cls-11"></path>
    <path id="path166" d="M238.083,32.068a2,2,0,0,0,1,.311c.276,0,.443-.095.443-.251,0-.12-.089-.186-.287-.222l-.594-.108c-.6-.114-.911-.42-.911-.9,0-.635.485-1.013,1.295-1.013a2.486,2.486,0,0,1,1.259.354l-.444.617a1.744,1.744,0,0,0-.887-.263c-.234,0-.372.077-.372.215s.078.18.318.222l.581.108c.612.114.936.426.93.894.006.605-.57,1.061-1.331,1.061a2.527,2.527,0,0,1-1.421-.378Z" class="cls-11"></path>
    <path id="path168" d="M242.45,29.891a1.6,1.6,0,1,1-1.614,1.6A1.575,1.575,0,0,1,242.45,29.891Zm.671,1.6a.678.678,0,1,0-1.337,0,.676.676,0,1,0,1.337,0Z" class="cls-11"></path>
    <path id="path170" d="M245.636,31.744a.515.515,0,0,0,.515.576.624.624,0,0,0,.516-.259V29.939h.972v3.094h-.972v-.5a1.141,1.141,0,0,1-.977.552,1,1,0,0,1-1.025-1.055V29.939h.971Z" class="cls-11"></path>
    <path id="path172" d="M248.4,29.939h.972v.7c.2-.515.473-.761.84-.761a.662.662,0,0,1,.323.078v.833a1.065,1.065,0,0,0-.456-.1.855.855,0,0,0-.707.384v1.955H248.4Z" class="cls-11"></path>
    <path id="path174" d="M253.2,31.948l.576.569a1.629,1.629,0,0,1-1.26.576,1.6,1.6,0,1,1,0-3.2,1.678,1.678,0,0,1,1.29.569l-.594.594a.81.81,0,0,0-.66-.336.773.773,0,0,0,.024,1.535A.748.748,0,0,0,253.2,31.948Z" class="cls-11"></path>
    <path id="path176" d="M255.775,33.093a1.6,1.6,0,0,1-1.631-1.6,1.552,1.552,0,0,1,1.559-1.607,1.521,1.521,0,0,1,1.524,1.643v.21H255.1a.742.742,0,0,0,.725.582.767.767,0,0,0,.612-.259l.642.534A1.8,1.8,0,0,1,255.775,33.093Zm-.677-1.907h1.229a.645.645,0,0,0-.63-.546A.614.614,0,0,0,255.1,31.186Z" class="cls-11"></path>
    <path id="path178" d="M258.008,32.068a2,2,0,0,0,1,.311c.276,0,.443-.095.443-.251,0-.12-.09-.186-.287-.222l-.594-.108c-.6-.114-.912-.42-.912-.9,0-.635.486-1.013,1.3-1.013a2.488,2.488,0,0,1,1.259.354l-.444.617a1.744,1.744,0,0,0-.887-.263c-.234,0-.372.077-.372.215s.078.18.318.222l.581.108c.612.114.936.426.93.894.006.605-.57,1.061-1.331,1.061a2.525,2.525,0,0,1-1.421-.378Z" class="cls-11"></path>
    <path id="path180" d="M264.337,31.948l.576.569a1.629,1.629,0,0,1-1.26.576,1.6,1.6,0,1,1,0-3.2,1.678,1.678,0,0,1,1.29.569l-.594.594a.81.81,0,0,0-.66-.336.773.773,0,0,0,.024,1.535A.748.748,0,0,0,264.337,31.948Z" class="cls-11"></path>
    <path id="path182" d="M265.424,29.939h.972v.7c.2-.515.474-.761.839-.761a.663.663,0,0,1,.324.078v.833a1.065,1.065,0,0,0-.456-.1.854.854,0,0,0-.707.384v1.955h-.972Z" class="cls-11"></path>
    <path id="path184" d="M269.569,33.093a1.6,1.6,0,0,1-1.631-1.6,1.552,1.552,0,0,1,1.559-1.607,1.521,1.521,0,0,1,1.524,1.643v.21h-2.129a.741.741,0,0,0,.725.582.767.767,0,0,0,.612-.259l.642.534A1.8,1.8,0,0,1,269.569,33.093Zm-.677-1.907h1.229a.645.645,0,0,0-.63-.546A.614.614,0,0,0,268.892,31.186Z" class="cls-11"></path>
    <path id="path186" d="M271.484,32.145c0-.569.444-.9,1.205-.9a2.015,2.015,0,0,1,.72.144v-.252c0-.3-.2-.45-.612-.45a2.3,2.3,0,0,0-.869.216l-.336-.678a3.436,3.436,0,0,1,1.421-.335c.858,0,1.355.426,1.355,1.163v1.979h-.959v-.27a1.233,1.233,0,0,1-.858.318A.963.963,0,0,1,271.484,32.145Zm1.367.294a1.056,1.056,0,0,0,.558-.155v-.4a2.323,2.323,0,0,0-.534-.066c-.318,0-.5.108-.5.306S272.551,32.439,272.851,32.439Z" class="cls-11"></path>
    <path id="path188" d="M275.51,30.688h-.6v-.749h.6v-.858l.971-.2v1.056h.828v.749h-.828v1.2c0,.275.108.372.408.372a1.335,1.335,0,0,0,.4-.066v.785a2.7,2.7,0,0,1-.666.1c-.731,0-1.109-.336-1.109-1Z" class="cls-11"></path>
    <path id="path190" d="M279.343,33.093a1.6,1.6,0,0,1-1.631-1.6,1.552,1.552,0,0,1,1.559-1.607,1.52,1.52,0,0,1,1.523,1.643v.21h-2.128a.742.742,0,0,0,.725.582.763.763,0,0,0,.611-.259l.642.534A1.8,1.8,0,0,1,279.343,33.093Zm-.677-1.907H279.9a.645.645,0,0,0-.63-.546A.614.614,0,0,0,278.666,31.186Z" class="cls-11"></path>
    <path id="path192" d="M283.542,32.631a1.166,1.166,0,0,1-.911.42,1.475,1.475,0,0,1-1.367-1.571,1.492,1.492,0,0,1,1.439-1.559,1.086,1.086,0,0,1,.828.371V28.745l.971-.149v4.437h-.96Zm-.587-.384a.757.757,0,0,0,.576-.245V30.958a.791.791,0,0,0-.576-.24.765.765,0,0,0,0,1.529Z" class="cls-11"></path>
    <path id="path194" d="M288.355,33.051a1.085,1.085,0,0,1-.846-.4v.378h-.959V28.745l.972-.149v1.738a1.169,1.169,0,0,1,.905-.413,1.474,1.474,0,0,1,1.367,1.571A1.492,1.492,0,0,1,288.355,33.051Zm-.833-2.075v1.032a.8.8,0,0,0,.581.245.765.765,0,0,0,0-1.529A.748.748,0,0,0,287.522,30.976Z" class="cls-11"></path>
    <path id="path196" d="M291.187,33.093l-1.14-3.154h1.074l.618,2,.708-2H293.5l-1.391,3.454a1.276,1.276,0,0,1-1.355.965,1.979,1.979,0,0,1-.4-.048v-.815a2.067,2.067,0,0,0,.288.024.474.474,0,0,0,.5-.312Z" class="cls-11"></path>
    <path id="path198" d="M295.615,30.688h-.6v-.749h.6v-.858l.971-.2v1.056h.829v.749h-.829v1.2c0,.275.109.372.409.372a1.329,1.329,0,0,0,.395-.066v.785a2.7,2.7,0,0,1-.666.1c-.731,0-1.109-.336-1.109-1Z" class="cls-11"></path>
    <path id="path200" d="M297.956,28.745l.971-.149v1.846a1.143,1.143,0,0,1,.978-.551,1,1,0,0,1,1.025,1.055v2.087h-.972v-1.8a.515.515,0,0,0-.515-.576.626.626,0,0,0-.516.258v2.123h-.971Z" class="cls-11"></path>
    <path id="path202" d="M303.157,33.093a1.6,1.6,0,0,1-1.631-1.6,1.551,1.551,0,0,1,1.558-1.607,1.521,1.521,0,0,1,1.524,1.643v.21h-2.129a.743.743,0,0,0,.726.582.766.766,0,0,0,.611-.259l.642.534A1.8,1.8,0,0,1,303.157,33.093Zm-.678-1.907h1.229a.644.644,0,0,0-.629-.546A.615.615,0,0,0,302.479,31.186Z" class="cls-11"></path>
    <path id="path204" d="M306.445,28.919a.549.549,0,0,1,1.1,0,.549.549,0,0,1-1.1,0Zm1.032,4.114h-.972V29.939h.972Z" class="cls-11"></path>
    <path id="path206" d="M308.234,29.939h.972v.5a1.141,1.141,0,0,1,.977-.551,1,1,0,0,1,1.025,1.055v2.087h-.971v-1.8a.515.515,0,0,0-.516-.576.623.623,0,0,0-.515.258v2.123h-.972Z" class="cls-11"></path>
    <path id="path208" d="M312.116,32.068a2,2,0,0,0,1,.311c.276,0,.444-.095.444-.251,0-.12-.09-.186-.288-.222l-.594-.108c-.6-.114-.911-.42-.911-.9,0-.635.486-1.013,1.3-1.013a2.489,2.489,0,0,1,1.26.354l-.444.617a1.75,1.75,0,0,0-.888-.263c-.234,0-.371.077-.371.215s.077.18.317.222l.582.108c.612.114.936.426.929.894.007.605-.569,1.061-1.331,1.061a2.525,2.525,0,0,1-1.421-.378Z" class="cls-11"></path>
    <path id="path210" d="M315.415,30.688h-.6v-.749h.6v-.858l.971-.2v1.056h.828v.749h-.828v1.2c0,.275.109.372.408.372a1.33,1.33,0,0,0,.4-.066v.785a2.7,2.7,0,0,1-.666.1c-.732,0-1.109-.336-1.109-1Z" class="cls-11"></path>
    <path id="path212" d="M317.611,32.145c0-.569.444-.9,1.206-.9a2.019,2.019,0,0,1,.72.144v-.252c0-.3-.2-.45-.613-.45a2.306,2.306,0,0,0-.869.216l-.336-.678a3.44,3.44,0,0,1,1.421-.335c.858,0,1.356.426,1.356,1.163v1.979h-.959v-.27a1.236,1.236,0,0,1-.858.318A.963.963,0,0,1,317.611,32.145Zm1.368.294a1.059,1.059,0,0,0,.558-.155v-.4a2.338,2.338,0,0,0-.535-.066c-.317,0-.5.108-.5.306S318.679,32.439,318.979,32.439Z" class="cls-11"></path>
    <path id="path214" d="M322.2,33.033h-.972V28.745l.972-.149Z" class="cls-11"></path>
    <path id="path216" d="M323.929,33.033h-.971V28.745l.971-.149Z" class="cls-11"></path>
    <path id="path218" d="M326.178,33.093a1.6,1.6,0,0,1-1.631-1.6,1.552,1.552,0,0,1,1.559-1.607,1.52,1.52,0,0,1,1.523,1.643v.21H325.5a.744.744,0,0,0,.726.582.763.763,0,0,0,.611-.259l.642.534A1.8,1.8,0,0,1,326.178,33.093Zm-.678-1.907h1.23a.645.645,0,0,0-.63-.546A.615.615,0,0,0,325.5,31.186Z" class="cls-11"></path>
    <path id="path220" d="M328.238,29.939h.971v.7c.2-.515.474-.761.839-.761a.667.667,0,0,1,.325.078v.833a1.071,1.071,0,0,0-.456-.1.854.854,0,0,0-.708.384v1.955h-.971Z" class="cls-11"></path>
  </g>
  <g id="g232">
    <path id="path224" d="M288.683,264.485h.774l1.289,3.472,1.3-3.472h.744l-1.644,4.2h-.833Z" class="cls-11"></path>
    <path id="path226" d="M294,265.39v3.292h-.666v-4.2h.936l1.229,2.542,1.223-2.542h.935v4.2h-.677v-3.274l-1.487,2.975Z" class="cls-11"></path>
    <path id="path228" d="M298.673,264.485h1.535a2.1,2.1,0,1,1,0,4.2h-1.535Zm.719.623v2.951h.834a1.482,1.482,0,0,0,0-2.951Z" class="cls-11"></path>
    <path id="path230" d="M303.125,264.485h.719V266.4l1.823-1.919h.876l-1.991,2.021,2.07,2.176h-.955l-1.823-1.973v1.973h-.719Z" class="cls-11"></path>
  </g>
  <g id="g242">
    <path id="path234" d="M378.275,264.485h.773l1.289,3.472,1.3-3.472h.743l-1.642,4.2h-.834Z" class="cls-11"></path>
    <path id="path236" d="M383.59,265.39v3.292h-.665v-4.2h.936l1.228,2.542,1.224-2.542h.936v4.2h-.678v-3.274l-1.488,2.975Z" class="cls-11"></path>
    <path id="path238" d="M388.265,264.485H389.8a2.1,2.1,0,1,1,0,4.2h-1.535Zm.719.623v2.951h.834a1.482,1.482,0,0,0,0-2.951Z" class="cls-11"></path>
    <path id="path240" d="M392.717,264.485h.719V266.4l1.823-1.919h.876l-1.991,2.021,2.069,2.176h-.954l-1.823-1.973v1.973h-.719Z" class="cls-11"></path>
  </g>
  <g id="g252">
    <path id="path244" d="M468.268,264.485h.774l1.289,3.472,1.3-3.472h.744l-1.643,4.2H469.9Z" class="cls-11"></path>
    <path id="path246" d="M473.583,265.39v3.292h-.666v-4.2h.936l1.23,2.542,1.223-2.542h.935v4.2h-.677v-3.274l-1.487,2.975Z" class="cls-11"></path>
    <path id="path248" d="M478.257,264.485h1.535a2.1,2.1,0,1,1,0,4.2h-1.535Zm.72.623v2.951h.833a1.482,1.482,0,0,0,0-2.951Z" class="cls-11"></path>
    <path id="path250" d="M482.709,264.485h.72V266.4l1.823-1.919h.875l-1.99,2.021,2.069,2.176h-.954l-1.823-1.973v1.973h-.72Z" class="cls-11"></path>
  </g>
  <g id="g294">
    <path id="path254" d="M411.388,120.71h.833l1.625,4.2h-.773l-.426-1.175H410.92l-.432,1.175h-.749Zm1.049,2.459-.647-1.787-.661,1.787Z" class="cls-11"></path>
    <path id="path256" d="M414.388,120.71h1.877a1.3,1.3,0,1,1,0,2.6h-1.157v1.6h-.72Zm.72.606v1.4h1.043a.706.706,0,1,0,.006-1.4Z" class="cls-11"></path>
    <path id="path258" d="M418.462,120.71h1.877a1.3,1.3,0,1,1,0,2.6h-1.157v1.6h-.72Zm.72.606v1.4h1.043a.706.706,0,1,0,.006-1.4Z" class="cls-11"></path>
    <path id="path260" d="M423.85,120.71h.72v4.2h-.72Z" class="cls-11"></path>
    <path id="path262" d="M425.464,121.9h.678v.491a1.092,1.092,0,0,1,.953-.539,1.011,1.011,0,0,1,1.037,1.073v1.979h-.676v-1.787a.648.648,0,0,0-.661-.72.77.77,0,0,0-.653.36v2.147h-.678Z" class="cls-11"></path>
    <path id="path264" d="M428.819,123.4a1.449,1.449,0,0,1,1.4-1.523,1.131,1.131,0,0,1,.881.407V121.9h.672v3.106c0,.774-.5,1.2-1.415,1.2a2.623,2.623,0,0,1-1.206-.287l.24-.5a2.046,2.046,0,0,0,.936.258c.5,0,.767-.228.767-.666v-.51a1.166,1.166,0,0,1-.917.426A1.44,1.44,0,0,1,428.819,123.4Zm1.564.959a.9.9,0,0,0,.714-.329v-1.26a.93.93,0,0,0-.714-.323.9.9,0,0,0-.893.953A.908.908,0,0,0,430.383,124.362Z" class="cls-11"></path>
    <path id="path266" d="M432.61,121.9h.678v.653a.891.891,0,0,1,.827-.707.8.8,0,0,1,.294.059v.594a.956.956,0,0,0-.372-.072.823.823,0,0,0-.749.5v1.979h-.678Z" class="cls-11"></path>
    <path id="path268" d="M436.359,124.968a1.526,1.526,0,0,1-1.528-1.559,1.478,1.478,0,0,1,1.462-1.553,1.441,1.441,0,0,1,1.421,1.547v.168H435.5a.917.917,0,0,0,.9.821.98.98,0,0,0,.714-.281l.443.413A1.734,1.734,0,0,1,436.359,124.968Zm-.851-1.811h1.565a.822.822,0,0,0-.785-.749A.805.805,0,0,0,435.508,123.157Z" class="cls-11"></path>
    <path id="path270" d="M438.454,124.1a1.727,1.727,0,0,0,.965.342c.36,0,.606-.162.606-.4,0-.185-.126-.287-.414-.342l-.533-.089c-.582-.108-.87-.378-.87-.828,0-.563.461-.929,1.163-.929a2.112,2.112,0,0,1,1.181.36l-.317.443a1.645,1.645,0,0,0-.906-.288c-.312,0-.516.132-.516.354,0,.192.108.276.426.33l.528.1c.6.114.888.39.888.84a1.1,1.1,0,0,1-1.224.977,2.016,2.016,0,0,1-1.295-.408Z" class="cls-11"></path>
    <path id="path272" d="M441.328,124.1a1.727,1.727,0,0,0,.965.342c.36,0,.606-.162.606-.4,0-.185-.126-.287-.414-.342l-.533-.089c-.582-.108-.87-.378-.87-.828,0-.563.461-.929,1.163-.929a2.112,2.112,0,0,1,1.181.36l-.317.443a1.645,1.645,0,0,0-.9-.288c-.313,0-.517.132-.517.354,0,.192.108.276.426.33l.528.1c.6.114.888.39.888.84a1.1,1.1,0,0,1-1.224.977,2.016,2.016,0,0,1-1.3-.408Z" class="cls-11"></path>
    <path id="path274" d="M445.587,120.71h.72v3.574h2.236v.624h-2.956Z" class="cls-11"></path>
    <path id="path276" d="M451.2,120.71c.791,0,1.325.444,1.325,1.1a1.006,1.006,0,0,1-.672.929,1.05,1.05,0,0,1,.815,1,1.223,1.223,0,0,1-1.384,1.169h-1.95v-4.2Zm-1.146.588v1.175h1.073c.414,0,.678-.228.678-.587s-.264-.588-.678-.588Zm1.889,2.375a.655.655,0,0,0-.743-.642h-1.146v1.289H451.2A.659.659,0,0,0,451.946,123.673Z" class="cls-11"></path>
    <path id="path278" d="M412.1,128.148l.168.324a3.451,3.451,0,0,0-1.781,3.083,2.322,2.322,0,0,0,.768,1.876l-.288.276a2.6,2.6,0,0,1-.893-2.117A3.783,3.783,0,0,1,412.1,128.148Z" class="cls-11"></path>
    <path id="path280" d="M412.319,131.374a1.322,1.322,0,0,1,1.2-1.211.894.894,0,0,1-.617-.827,1.309,1.309,0,0,1,1.409-1.182,1.094,1.094,0,0,1,1.217,1.014,1.184,1.184,0,0,1-1.013,1.067,1.024,1.024,0,0,1,.755.942,1.431,1.431,0,0,1-1.564,1.289C412.888,132.466,412.319,132.01,412.319,131.374Zm2.537-.2a.891.891,0,0,0-1-.8,1.041,1.041,0,0,0-1.115.929.879.879,0,0,0,.983.8A1.058,1.058,0,0,0,414.856,131.177Zm.258-1.979a.769.769,0,0,0-.84-.7.906.906,0,0,0-.966.828.756.756,0,0,0,.834.7A.907.907,0,0,0,415.114,129.2Z" class="cls-11"></path>
    <path id="path282" d="M416.1,130.835c0-1.439.894-2.675,1.937-2.675.84,0,1.385.642,1.385,1.631,0,1.446-.887,2.675-1.937,2.675C416.644,132.466,416.1,131.824,416.1,130.835Zm2.891-1.05c0-.773-.378-1.241-1.008-1.241-.779,0-1.451,1.061-1.451,2.3,0,.767.384,1.241,1.008,1.241C418.317,132.082,418.989,131.027,418.989,129.785Z" class="cls-11"></path>
    <path id="path284" d="M420.346,131.968l-.75,1.385h-.342l.624-1.385Z" class="cls-11"></path>
    <path id="path286" d="M423.747,130.913h.576l-.084.377h-.571l-.239,1.122h-.42l.24-1.122H421.03l.078-.341,2.765-2.735h.45Zm-.42,0,.456-2.141-2.159,2.141Z" class="cls-11"></path>
    <path id="path288" d="M427.382,130.913h.576l-.083.377H427.3l-.239,1.122h-.42l.239-1.122h-2.218l.078-.341,2.764-2.735h.45Zm-.42,0,.456-2.141-2.159,2.141Z" class="cls-11"></path>
    <path id="path290" d="M429.664,132.466a1.675,1.675,0,0,1-1.469-.7l.323-.257a1.315,1.315,0,0,0,1.17.581.977.977,0,0,0,1.073-.882.725.725,0,0,0-.731-.755h-.5l.078-.372h.473c.552,0,.936-.317.936-.779a.76.76,0,0,0-.84-.744,1.649,1.649,0,0,0-1.079.426l-.227-.306a2.147,2.147,0,0,1,1.361-.5,1.062,1.062,0,1,1,.222,2.111.963.963,0,0,1,.731.906A1.4,1.4,0,0,1,429.664,132.466Z" class="cls-11"></path>
    <path id="path292" d="M431.56,133.707l-.168-.323a3.452,3.452,0,0,0,1.781-3.083,2.324,2.324,0,0,0-.767-1.877l.288-.276a2.6,2.6,0,0,1,.893,2.117A3.783,3.783,0,0,1,431.56,133.707Z" class="cls-11"></path>
  </g>
  <g id="g322">
    <path id="path296" d="M523.651,47.044h1.877a1.3,1.3,0,1,1,0,2.6h-1.157v1.6h-.72Zm.72.606v1.4h1.043a.706.706,0,1,0,.006-1.4Z" class="cls-12"></path>
    <path id="path298" d="M528.3,50.025a.647.647,0,0,0,.66.719.758.758,0,0,0,.66-.372V48.238h.677v3h-.677v-.5a1.1,1.1,0,0,1-.96.546,1.007,1.007,0,0,1-1.037-1.073V48.238h.677Z" class="cls-12"></path>
    <path id="path300" d="M532.686,51.272a1.119,1.119,0,0,1-.888-.42v.39h-.665V46.954l.677-.113v1.8a1.172,1.172,0,0,1,.924-.425,1.441,1.441,0,0,1,1.361,1.529A1.456,1.456,0,0,1,532.686,51.272Zm-.876-2.153v1.253a.925.925,0,0,0,.72.33.961.961,0,0,0,0-1.918A.883.883,0,0,0,531.81,49.119Z" class="cls-12"></path>
    <path id="path302" d="M535.476,51.242H534.8V46.954l.677-.113Z" class="cls-12"></path>
    <path id="path304" d="M536.227,47.212a.423.423,0,0,1,.845,0,.423.423,0,0,1-.845,0Zm.761,4.03h-.677v-3h.677Z" class="cls-12"></path>
    <path id="path306" d="M539.969,50.372l.408.408a1.561,1.561,0,0,1-1.175.522,1.553,1.553,0,0,1,0-3.106,1.622,1.622,0,0,1,1.2.5l-.42.437a.992.992,0,0,0-.756-.353.963.963,0,0,0,.018,1.918A.92.92,0,0,0,539.969,50.372Z" class="cls-12"></path>
    <path id="path308" d="M543.1,47.044l2.189,3.047-.012-3.047h.678v4.2h-.642l-2.249-3.13.012,3.13H542.4v-4.2Z" class="cls-12"></path>
    <path id="path310" d="M548.268,51.3a1.528,1.528,0,0,1-1.529-1.559A1.479,1.479,0,0,1,548.2,48.19a1.442,1.442,0,0,1,1.421,1.547v.168H547.4a.918.918,0,0,0,.9.821.979.979,0,0,0,.713-.281l.444.413A1.736,1.736,0,0,1,548.268,51.3Zm-.851-1.811h1.564a.821.821,0,0,0-.785-.749A.806.806,0,0,0,547.417,49.491Z" class="cls-12"></path>
    <path id="path312" d="M550.686,48.777h-.605v-.539h.605V47.41l.678-.144v.972h.84v.539h-.84V50.3c0,.294.114.407.42.407a1.277,1.277,0,0,0,.408-.071v.569a2.133,2.133,0,0,1-.582.084c-.606,0-.924-.288-.924-.839Z" class="cls-12"></path>
    <path id="path314" d="M553.326,51.242l-.81-3h.649l.527,2.123.618-2.123h.575l.618,2.129.522-2.129h.636l-.81,3H555.2l-.606-2.117-.605,2.117Z" class="cls-12"></path>
    <path id="path316" d="M558.593,48.19a1.557,1.557,0,1,1-1.51,1.553A1.5,1.5,0,0,1,558.593,48.19Zm.84,1.559a.849.849,0,1,0-1.679,0,.848.848,0,1,0,1.679,0Z" class="cls-12"></path>
    <path id="path318" d="M560.808,48.238h.678v.653a.891.891,0,0,1,.827-.707.8.8,0,0,1,.294.059v.594a.947.947,0,0,0-.371-.072.824.824,0,0,0-.75.5v1.979h-.678Z" class="cls-12"></path>
    <path id="path320" d="M563.167,46.954l.677-.113v2.68l1.247-1.283h.774l-1.373,1.391,1.457,1.613h-.869l-1.236-1.385v1.385h-.677Z" class="cls-12"></path>
  </g>
  <g id="g352">
    <path id="path324" d="M522.433,108.5h1.877a1.3,1.3,0,1,1,0,2.6h-1.158v1.6h-.719Zm.719.606v1.4H524.2a.706.706,0,1,0,.006-1.4Z" class="cls-13"></path>
    <path id="path326" d="M526.422,109.694h.678v.653a.891.891,0,0,1,.827-.707.8.8,0,0,1,.294.06v.593a.947.947,0,0,0-.371-.071.826.826,0,0,0-.75.5V112.7h-.678Z" class="cls-13"></path>
    <path id="path328" d="M528.7,108.668a.423.423,0,0,1,.845,0,.423.423,0,0,1-.845,0Zm.761,4.03h-.677v-3h.677Z" class="cls-13"></path>
    <path id="path330" d="M529.939,109.694h.737l.834,2.194.833-2.194h.714l-1.235,3h-.654Z" class="cls-13"></path>
    <path id="path332" d="M533.4,111.834c0-.539.438-.881,1.145-.881a1.85,1.85,0,0,1,.809.186v-.33c0-.4-.227-.6-.689-.6a2.087,2.087,0,0,0-.875.234l-.241-.492a2.9,2.9,0,0,1,1.248-.3c.78,0,1.229.395,1.229,1.091V112.7h-.672v-.306a1.253,1.253,0,0,1-.893.354A.947.947,0,0,1,533.4,111.834Zm1.247.438a1.072,1.072,0,0,0,.707-.245v-.493a1.567,1.567,0,0,0-.7-.143c-.384,0-.624.168-.624.432S534.27,112.272,534.642,112.272Z" class="cls-13"></path>
    <path id="path334" d="M537.216,110.233h-.605v-.539h.605v-.828l.678-.144v.972h.839v.539h-.839v1.524c0,.294.113.407.42.407a1.258,1.258,0,0,0,.407-.071v.569a2.127,2.127,0,0,1-.582.084c-.605,0-.923-.288-.923-.839Z" class="cls-13"></path>
    <path id="path336" d="M540.719,112.758a1.527,1.527,0,0,1-1.529-1.559,1.48,1.48,0,0,1,1.464-1.553,1.442,1.442,0,0,1,1.421,1.547v.168h-2.219a.917.917,0,0,0,.9.821.978.978,0,0,0,.714-.281l.444.413A1.738,1.738,0,0,1,540.719,112.758Zm-.851-1.811h1.565a.822.822,0,0,0-.785-.749A.807.807,0,0,0,539.868,110.947Z" class="cls-13"></path>
    <path id="path338" d="M544.9,108.5l2.188,3.047-.011-3.047h.677v4.2h-.641l-2.249-3.13.011,3.13H544.2v-4.2Z" class="cls-13"></path>
    <path id="path340" d="M550.074,112.758a1.527,1.527,0,0,1-1.53-1.559,1.479,1.479,0,0,1,1.463-1.553,1.442,1.442,0,0,1,1.422,1.547v.168h-2.22a.92.92,0,0,0,.9.821.979.979,0,0,0,.713-.281l.444.413A1.736,1.736,0,0,1,550.074,112.758Zm-.852-1.811h1.565A.822.822,0,0,0,550,110.2.807.807,0,0,0,549.222,110.947Z" class="cls-13"></path>
    <path id="path342" d="M552.492,110.233h-.606v-.539h.606v-.828l.677-.144v.972h.84v.539h-.84v1.524c0,.294.115.407.42.407a1.278,1.278,0,0,0,.409-.071v.569a2.138,2.138,0,0,1-.582.084c-.606,0-.924-.288-.924-.839Z" class="cls-13"></path>
    <path id="path344" d="M555.131,112.7l-.809-3h.648l.528,2.123.618-2.123h.575l.618,2.129.522-2.129h.635l-.809,3H557l-.6-2.117-.605,2.117Z" class="cls-13"></path>
    <path id="path346" d="M560.4,109.646a1.557,1.557,0,1,1-1.511,1.553A1.5,1.5,0,0,1,560.4,109.646Zm.84,1.559a.849.849,0,1,0-1.679,0,.848.848,0,1,0,1.679,0Z" class="cls-13"></path>
    <path id="path348" d="M562.614,109.694h.678v.653a.891.891,0,0,1,.827-.707.8.8,0,0,1,.294.06v.593a.954.954,0,0,0-.371-.071.825.825,0,0,0-.75.5V112.7h-.678Z" class="cls-13"></path>
    <path id="path350" d="M564.972,108.41l.677-.113v2.68l1.248-1.283h.773l-1.373,1.391,1.457,1.613h-.87l-1.235-1.385V112.7h-.677Z" class="cls-13"></path>
  </g>
  <g id="g368">
    <path id="path354" d="M49.623,191.955H50.4l1.29,3.472,1.3-3.472h.743l-1.643,4.2h-.833Z" class="cls-11"></path>
    <path id="path356" d="M56.335,195.283l.409.408a1.565,1.565,0,0,1-1.176.522,1.554,1.554,0,0,1,0-3.107,1.62,1.62,0,0,1,1.2.5l-.42.438a.993.993,0,0,0-.756-.354.964.964,0,0,0,.018,1.919A.92.92,0,0,0,56.335,195.283Z" class="cls-11"></path>
    <path id="path358" d="M58.718,196.213a1.528,1.528,0,0,1-1.53-1.559,1.48,1.48,0,0,1,1.464-1.554,1.442,1.442,0,0,1,1.421,1.547v.168H57.854a.918.918,0,0,0,.9.822.974.974,0,0,0,.713-.282l.444.414A1.736,1.736,0,0,1,58.718,196.213Zm-.852-1.811h1.565a.822.822,0,0,0-.785-.75A.807.807,0,0,0,57.866,194.4Z" class="cls-11"></path>
    <path id="path360" d="M60.765,193.148h.677v.492a1.091,1.091,0,0,1,.954-.54,1.011,1.011,0,0,1,1.037,1.074v1.979h-.678v-1.787a.647.647,0,0,0-.659-.72.771.771,0,0,0-.654.36v2.147h-.677Z" class="cls-11"></path>
    <path id="path362" d="M64.628,193.688h-.605v-.54h.605v-.827l.678-.144v.971h.84v.54h-.84v1.523c0,.294.114.408.42.408a1.245,1.245,0,0,0,.408-.072v.57a2.133,2.133,0,0,1-.582.084c-.606,0-.924-.288-.924-.84Z" class="cls-11"></path>
    <path id="path364" d="M68.132,196.213a1.527,1.527,0,0,1-1.529-1.559,1.48,1.48,0,0,1,1.463-1.554,1.442,1.442,0,0,1,1.421,1.547v.168H67.268a.918.918,0,0,0,.9.822.974.974,0,0,0,.713-.282l.444.414A1.736,1.736,0,0,1,68.132,196.213ZM67.28,194.4h1.565a.822.822,0,0,0-.785-.75A.807.807,0,0,0,67.28,194.4Z" class="cls-11"></path>
    <path id="path366" d="M70.179,193.148h.677v.654a.89.89,0,0,1,.828-.707.787.787,0,0,1,.294.059v.594a.956.956,0,0,0-.372-.072.825.825,0,0,0-.75.5v1.979h-.677Z" class="cls-11"></path>
  </g>
  <g id="g388">
    <path id="path370" d="M218.088,191.279c.791,0,1.325.443,1.325,1.1a1,1,0,0,1-.671.929,1.052,1.052,0,0,1,.815,1,1.223,1.223,0,0,1-1.385,1.169h-1.949v-4.2Zm-1.146.588v1.175h1.074c.414,0,.677-.228.677-.588s-.263-.587-.677-.587Zm1.89,2.374a.655.655,0,0,0-.744-.642h-1.146v1.289h1.146A.659.659,0,0,0,218.832,194.241Z" class="cls-11"></path>
    <path id="path372" d="M221.688,192.424a1.557,1.557,0,1,1-1.511,1.553A1.5,1.5,0,0,1,221.688,192.424Zm.839,1.559a.849.849,0,1,0-1.678,0,.847.847,0,1,0,1.678,0Z" class="cls-11"></path>
    <path id="path374" d="M225.276,192.424a1.557,1.557,0,1,1-1.511,1.553A1.5,1.5,0,0,1,225.276,192.424Zm.84,1.559a.849.849,0,1,0-1.679,0,.848.848,0,1,0,1.679,0Z" class="cls-11"></path>
    <path id="path376" d="M227.863,193.012h-.606v-.54h.606v-.828l.678-.143v.971h.839v.54h-.839v1.523c0,.294.113.408.419.408a1.245,1.245,0,0,0,.408-.072v.569a2.133,2.133,0,0,1-.582.084c-.6,0-.923-.287-.923-.839Z" class="cls-11"></path>
    <path id="path378" d="M230.023,194.673a1.73,1.73,0,0,0,.965.341c.36,0,.606-.161.606-.4,0-.186-.126-.288-.414-.342l-.534-.09c-.581-.108-.869-.377-.869-.828,0-.563.462-.929,1.163-.929a2.115,2.115,0,0,1,1.182.36l-.318.444a1.643,1.643,0,0,0-.906-.288c-.312,0-.515.132-.515.354,0,.192.108.276.426.329l.527.1c.6.113.888.389.888.839a1.1,1.1,0,0,1-1.224.977,2.021,2.021,0,0,1-1.295-.407Z" class="cls-11"></path>
    <path id="path380" d="M233.221,193.012h-.606v-.54h.606v-.828l.677-.143v.971h.84v.54h-.84v1.523c0,.294.114.408.42.408a1.245,1.245,0,0,0,.408-.072v.569a2.133,2.133,0,0,1-.582.084c-.605,0-.923-.287-.923-.839Z" class="cls-11"></path>
    <path id="path382" d="M235.333,192.472h.677v.654a.891.891,0,0,1,.828-.708.8.8,0,0,1,.294.06v.594a.956.956,0,0,0-.372-.072.826.826,0,0,0-.75.5v1.979h-.677Z" class="cls-11"></path>
    <path id="path384" d="M237.541,194.613c0-.54.438-.882,1.145-.882a1.858,1.858,0,0,1,.81.186v-.33c0-.395-.228-.6-.69-.6a2.072,2.072,0,0,0-.875.234l-.24-.492a2.882,2.882,0,0,1,1.247-.306c.78,0,1.229.4,1.229,1.091v1.961H239.5v-.305a1.258,1.258,0,0,1-.894.353A.947.947,0,0,1,237.541,194.613Zm1.247.438a1.077,1.077,0,0,0,.708-.246v-.492a1.556,1.556,0,0,0-.7-.144c-.383,0-.624.168-.624.432S238.417,195.051,238.788,195.051Z" class="cls-11"></path>
    <path id="path386" d="M240.991,192.472h.665v.432a1.133,1.133,0,0,1,.936-.456,1.441,1.441,0,0,1,1.361,1.529,1.456,1.456,0,0,1-1.409,1.529,1.126,1.126,0,0,1-.876-.389v1.631h-.677Zm.677.881v1.254a.922.922,0,0,0,.72.33.962.962,0,0,0,0-1.919A.884.884,0,0,0,241.668,193.353Z" class="cls-11"></path>
  </g>
  <g id="g424">
    <path id="path390" d="M289.162,186.939l.473.456a2.155,2.155,0,1,1,.018-2.842l-.486.479a1.477,1.477,0,1,0-1.127,2.453A1.424,1.424,0,0,0,289.162,186.939Z" class="cls-11"></path>
    <path id="path392" d="M291.67,185.02a1.557,1.557,0,1,1-1.511,1.554A1.5,1.5,0,0,1,291.67,185.02Zm.84,1.559a.849.849,0,1,0-1.679,0,.848.848,0,1,0,1.679,0Z" class="cls-11"></path>
    <path id="path394" d="M293.885,185.068h.677v.492a1.092,1.092,0,0,1,.954-.54,1.012,1.012,0,0,1,1.038,1.074v1.979h-.678v-1.788a.647.647,0,0,0-.66-.719.772.772,0,0,0-.654.36v2.147h-.677Z" class="cls-11"></path>
    <path id="path396" d="M297.75,185.608h-.606v-.54h.606v-.827l.677-.144v.971h.839v.54h-.839v1.523c0,.294.114.408.42.408a1.236,1.236,0,0,0,.407-.072v.569a2.084,2.084,0,0,1-.582.084c-.605,0-.922-.287-.922-.839Z" class="cls-11"></path>
    <path id="path398" d="M299.862,185.068h.677v.654a.891.891,0,0,1,.828-.708.808.808,0,0,1,.294.06v.594a.96.96,0,0,0-.372-.072.824.824,0,0,0-.75.5v1.979h-.677Z" class="cls-11"></path>
    <path id="path400" d="M303.592,185.02a1.557,1.557,0,1,1-1.51,1.554A1.5,1.5,0,0,1,303.592,185.02Zm.84,1.559a.849.849,0,1,0-1.679,0,.848.848,0,1,0,1.679,0Z" class="cls-11"></path>
    <path id="path402" d="M306.485,188.073h-.678v-4.288l.678-.114Z" class="cls-11"></path>
    <path id="path404" d="M308.753,183.875h1.877a1.3,1.3,0,1,1,0,2.6h-1.158v1.6h-.719Zm.719.606v1.4h1.044a.706.706,0,1,0,.006-1.4Z" class="cls-11"></path>
    <path id="path406" d="M313.42,188.073h-.676v-4.288l.676-.114Z" class="cls-11"></path>
    <path id="path408" d="M314.105,187.209c0-.54.437-.882,1.145-.882a1.866,1.866,0,0,1,.81.186v-.33c0-.395-.227-.6-.689-.6a2.076,2.076,0,0,0-.876.234l-.24-.492a2.882,2.882,0,0,1,1.247-.306c.78,0,1.23.4,1.23,1.092v1.961h-.672v-.306a1.252,1.252,0,0,1-.893.353A.947.947,0,0,1,314.105,187.209Zm1.247.438a1.07,1.07,0,0,0,.708-.246v-.492a1.554,1.554,0,0,0-.695-.144c-.384,0-.624.168-.624.432S314.981,187.647,315.352,187.647Z" class="cls-11"></path>
    <path id="path410" d="M317.555,185.068h.677v.492a1.091,1.091,0,0,1,.954-.54,1.011,1.011,0,0,1,1.037,1.074v1.979h-.678v-1.788a.646.646,0,0,0-.659-.719.771.771,0,0,0-.654.36v2.147h-.677Z" class="cls-11"></path>
    <path id="path412" d="M322.438,188.133a1.528,1.528,0,0,1-1.529-1.559,1.48,1.48,0,0,1,1.464-1.554,1.442,1.442,0,0,1,1.42,1.547v.168h-2.218a.917.917,0,0,0,.9.822.977.977,0,0,0,.714-.282l.443.414A1.739,1.739,0,0,1,322.438,188.133Zm-.852-1.811h1.566a.823.823,0,0,0-.785-.75A.808.808,0,0,0,321.586,186.322Z" class="cls-11"></path>
    <path id="path414" d="M326.621,183.875l2.188,3.046-.012-3.046h.677v4.2h-.641l-2.249-3.131.012,3.131h-.678v-4.2Z" class="cls-11"></path>
    <path id="path416" d="M331.774,185.02a1.557,1.557,0,1,1-1.511,1.554A1.5,1.5,0,0,1,331.774,185.02Zm.84,1.559a.849.849,0,1,0-1.679,0,.848.848,0,1,0,1.679,0Z" class="cls-11"></path>
    <path id="path418" d="M336.135,187.671a1.155,1.155,0,0,1-.923.431,1.537,1.537,0,0,1,.042-3.058,1.143,1.143,0,0,1,.875.4v-1.655l.678-.114v4.4h-.672Zm-.719-.138a.9.9,0,0,0,.713-.33v-1.265a.929.929,0,0,0-.713-.324.962.962,0,0,0,0,1.919Z" class="cls-11"></path>
    <path id="path420" d="M339.04,188.133a1.527,1.527,0,0,1-1.529-1.559,1.48,1.48,0,0,1,1.463-1.554,1.442,1.442,0,0,1,1.421,1.547v.168h-2.219a.919.919,0,0,0,.9.822.977.977,0,0,0,.714-.282l.443.414A1.741,1.741,0,0,1,339.04,188.133Zm-.852-1.811h1.565a.822.822,0,0,0-.785-.75A.807.807,0,0,0,338.188,186.322Z" class="cls-11"></path>
    <path id="path422" d="M341.134,187.269a1.73,1.73,0,0,0,.966.342c.359,0,.606-.162.606-.4,0-.186-.126-.288-.414-.342l-.534-.09c-.582-.108-.87-.377-.87-.827,0-.564.462-.93,1.163-.93a2.115,2.115,0,0,1,1.182.36l-.317.444a1.645,1.645,0,0,0-.906-.288c-.312,0-.516.132-.516.354,0,.192.108.276.425.33l.529.1c.6.114.887.389.887.839a1.1,1.1,0,0,1-1.223.978,2.012,2.012,0,0,1-1.3-.408Z" class="cls-11"></path>
  </g>
  <g id="g464">
    <path id="path426" d="M375.623,183.875h.719v4.2h-.719Z" class="cls-11"></path>
    <path id="path428" d="M377.237,185.068h.678v.492a1.088,1.088,0,0,1,.953-.54,1.011,1.011,0,0,1,1.037,1.074v1.979h-.677v-1.788a.648.648,0,0,0-.66-.719.769.769,0,0,0-.653.36v2.147h-.678Z" class="cls-11"></path>
    <path id="path430" d="M381.136,185.068v-.534a.922.922,0,0,1,1.038-1.007,1.634,1.634,0,0,1,.45.06v.576a1.385,1.385,0,0,0-.36-.048c-.311,0-.45.138-.45.432v.521h.81v.54h-.81v2.465h-.678v-2.465h-.647v-.54Z" class="cls-11"></path>
    <path id="path432" d="M383.2,185.068h.678v.654a.89.89,0,0,1,.827-.708.8.8,0,0,1,.294.06v.594a.956.956,0,0,0-.372-.072.823.823,0,0,0-.749.5v1.979H383.2Z" class="cls-11"></path>
    <path id="path434" d="M385.4,187.209c0-.54.438-.882,1.145-.882a1.869,1.869,0,0,1,.81.186v-.33c0-.395-.228-.6-.69-.6a2.08,2.08,0,0,0-.875.234l-.24-.492a2.882,2.882,0,0,1,1.247-.306c.78,0,1.23.4,1.23,1.092v1.961h-.672v-.306a1.254,1.254,0,0,1-.894.353A.946.946,0,0,1,385.4,187.209Zm1.248.438a1.071,1.071,0,0,0,.707-.246v-.492a1.554,1.554,0,0,0-.7-.144c-.384,0-.624.168-.624.432S386.278,187.647,386.65,187.647Z" class="cls-11"></path>
    <path id="path436" d="M388.9,187.269a1.73,1.73,0,0,0,.966.342c.359,0,.605-.162.605-.4,0-.186-.126-.288-.414-.342l-.533-.09c-.582-.108-.87-.377-.87-.827,0-.564.462-.93,1.163-.93a2.115,2.115,0,0,1,1.182.36l-.318.444a1.641,1.641,0,0,0-.906-.288c-.312,0-.516.132-.516.354,0,.192.109.276.426.33l.528.1c.6.114.888.389.888.839a1.1,1.1,0,0,1-1.224.978,2.011,2.011,0,0,1-1.294-.408Z" class="cls-11"></path>
    <path id="path438" d="M392.1,185.608h-.606v-.54h.606v-.827l.677-.144v.971h.84v.54h-.84v1.523c0,.294.114.408.42.408a1.245,1.245,0,0,0,.408-.072v.569a2.1,2.1,0,0,1-.582.084c-.605,0-.923-.287-.923-.839Z" class="cls-11"></path>
    <path id="path440" d="M394.21,185.068h.678v.654a.89.89,0,0,1,.827-.708.8.8,0,0,1,.294.06v.594a.952.952,0,0,0-.372-.072.825.825,0,0,0-.749.5v1.979h-.678Z" class="cls-11"></path>
    <path id="path442" d="M397.227,186.855a.647.647,0,0,0,.66.72.757.757,0,0,0,.659-.372v-2.135h.678v3h-.678v-.5a1.1,1.1,0,0,1-.959.545,1.007,1.007,0,0,1-1.038-1.073v-1.979h.678Z" class="cls-11"></path>
    <path id="path444" d="M402.207,187.2l.408.408a1.563,1.563,0,0,1-1.176.522,1.554,1.554,0,0,1,0-3.107,1.618,1.618,0,0,1,1.2.5l-.42.438a.99.99,0,0,0-.755-.354.964.964,0,0,0,.018,1.919A.924.924,0,0,0,402.207,187.2Z" class="cls-11"></path>
    <path id="path446" d="M403.57,185.608h-.607v-.54h.607v-.827l.677-.144v.971h.839v.54h-.839v1.523c0,.294.114.408.42.408a1.245,1.245,0,0,0,.408-.072v.569a2.1,2.1,0,0,1-.582.084c-.606,0-.923-.287-.923-.839Z" class="cls-11"></path>
    <path id="path448" d="M406.341,186.855a.647.647,0,0,0,.66.72.758.758,0,0,0,.66-.372v-2.135h.677v3h-.677v-.5a1.1,1.1,0,0,1-.959.545,1.007,1.007,0,0,1-1.038-1.073v-1.979h.677Z" class="cls-11"></path>
    <path id="path450" d="M409.174,185.068h.678v.654a.89.89,0,0,1,.827-.708.8.8,0,0,1,.294.06v.594a.956.956,0,0,0-.372-.072.824.824,0,0,0-.749.5v1.979h-.678Z" class="cls-11"></path>
    <path id="path452" d="M412.922,188.133a1.527,1.527,0,0,1-1.528-1.559,1.48,1.48,0,0,1,1.463-1.554,1.442,1.442,0,0,1,1.421,1.547v.168h-2.219a.918.918,0,0,0,.9.822.975.975,0,0,0,.714-.282l.444.414A1.743,1.743,0,0,1,412.922,188.133Zm-.85-1.811h1.564a.823.823,0,0,0-.785-.75A.806.806,0,0,0,412.072,186.322Z" class="cls-11"></path>
    <path id="path454" d="M417.105,183.875l2.189,3.046-.012-3.046h.677v4.2h-.641l-2.249-3.131.013,3.131H416.4v-4.2Z" class="cls-11"></path>
    <path id="path456" d="M422.258,185.02a1.557,1.557,0,1,1-1.51,1.554A1.5,1.5,0,0,1,422.258,185.02Zm.84,1.559a.85.85,0,1,0-1.68,0,.848.848,0,1,0,1.68,0Z" class="cls-11"></path>
    <path id="path458" d="M426.621,187.671a1.155,1.155,0,0,1-.923.431,1.441,1.441,0,0,1-1.362-1.528,1.456,1.456,0,0,1,1.4-1.53,1.146,1.146,0,0,1,.875.4v-1.655l.677-.114v4.4h-.671Zm-.72-.138a.9.9,0,0,0,.714-.33v-1.265a.932.932,0,0,0-.714-.324.962.962,0,0,0,0,1.919Z" class="cls-11"></path>
    <path id="path460" d="M429.524,188.133A1.527,1.527,0,0,1,428,186.574a1.48,1.48,0,0,1,1.462-1.554,1.442,1.442,0,0,1,1.421,1.547v.168h-2.218a.917.917,0,0,0,.9.822.977.977,0,0,0,.714-.282l.443.414A1.739,1.739,0,0,1,429.524,188.133Zm-.851-1.811h1.565a.823.823,0,0,0-.785-.75A.806.806,0,0,0,428.673,186.322Z" class="cls-11"></path>
    <path id="path462" d="M431.62,187.269a1.727,1.727,0,0,0,.965.342c.36,0,.606-.162.606-.4,0-.186-.126-.288-.414-.342l-.533-.09c-.582-.108-.87-.377-.87-.827,0-.564.461-.93,1.163-.93a2.112,2.112,0,0,1,1.181.36l-.317.444a1.645,1.645,0,0,0-.905-.288c-.313,0-.517.132-.517.354,0,.192.108.276.426.33l.528.1c.6.114.888.389.888.839a1.1,1.1,0,0,1-1.224.978,2.016,2.016,0,0,1-1.295-.408Z" class="cls-11"></path>
  </g>
  <g id="g490">
    <path id="path466" d="M475.393,186.939l.474.456a2.155,2.155,0,1,1,.017-2.842l-.485.479a1.477,1.477,0,1,0-1.127,2.453A1.423,1.423,0,0,0,475.393,186.939Z" class="cls-11"></path>
    <path id="path468" d="M477.9,185.02a1.557,1.557,0,1,1-1.511,1.554A1.5,1.5,0,0,1,477.9,185.02Zm.84,1.559a.85.85,0,1,0-1.68,0,.848.848,0,1,0,1.68,0Z" class="cls-11"></path>
    <path id="path470" d="M480.117,185.068h.677v.48a1.025,1.025,0,0,1,.894-.528.943.943,0,0,1,.881.582,1.109,1.109,0,0,1,1-.582,1,1,0,0,1,.983,1.092v1.961h-.677v-1.817a.609.609,0,0,0-.606-.69.716.716,0,0,0-.606.354,1.767,1.767,0,0,1,.012.192v1.961h-.677v-1.817a.609.609,0,0,0-.606-.69.7.7,0,0,0-.594.342v2.165h-.677Z" class="cls-11"></path>
    <path id="path472" d="M485.373,185.068h.665v.432a1.131,1.131,0,0,1,.935-.456,1.537,1.537,0,0,1-.048,3.058,1.122,1.122,0,0,1-.875-.389v1.631h-.677Zm.677.882V187.2a.922.922,0,0,0,.72.33.962.962,0,0,0,0-1.919A.882.882,0,0,0,486.05,185.95Z" class="cls-11"></path>
    <path id="path474" d="M489.7,186.855a.647.647,0,0,0,.66.72.758.758,0,0,0,.659-.372v-2.135h.678v3h-.678v-.5a1.1,1.1,0,0,1-.959.545,1.007,1.007,0,0,1-1.038-1.073v-1.979h.678Z" class="cls-11"></path>
    <path id="path476" d="M492.9,185.608H492.3v-.54h.607v-.827l.677-.144v.971h.839v.54h-.839v1.523c0,.294.114.408.42.408a1.245,1.245,0,0,0,.408-.072v.569a2.1,2.1,0,0,1-.582.084c-.606,0-.923-.287-.923-.839Z" class="cls-11"></path>
    <path id="path478" d="M496.405,188.133a1.527,1.527,0,0,1-1.529-1.559,1.48,1.48,0,0,1,1.463-1.554,1.442,1.442,0,0,1,1.421,1.547v.168h-2.218a.917.917,0,0,0,.9.822.977.977,0,0,0,.714-.282l.443.414A1.739,1.739,0,0,1,496.405,188.133Zm-.852-1.811h1.566a.823.823,0,0,0-.786-.75A.807.807,0,0,0,495.553,186.322Z" class="cls-11"></path>
    <path id="path480" d="M500.587,183.875l2.19,3.046-.013-3.046h.678v4.2H502.8l-2.249-3.131.013,3.131h-.678v-4.2Z" class="cls-11"></path>
    <path id="path482" d="M505.742,185.02a1.557,1.557,0,1,1-1.511,1.554A1.5,1.5,0,0,1,505.742,185.02Zm.84,1.559a.85.85,0,1,0-1.68,0,.848.848,0,1,0,1.68,0Z" class="cls-11"></path>
    <path id="path484" d="M510.1,187.671a1.155,1.155,0,0,1-.923.431,1.441,1.441,0,0,1-1.361-1.528,1.455,1.455,0,0,1,1.4-1.53,1.145,1.145,0,0,1,.875.4v-1.655l.678-.114v4.4H510.1Zm-.72-.138a.9.9,0,0,0,.714-.33v-1.265a.931.931,0,0,0-.714-.324.962.962,0,0,0,0,1.919Z" class="cls-11"></path>
    <path id="path486" d="M513.007,188.133a1.527,1.527,0,0,1-1.528-1.559,1.48,1.48,0,0,1,1.463-1.554,1.442,1.442,0,0,1,1.421,1.547v.168h-2.219a.918.918,0,0,0,.9.822.975.975,0,0,0,.714-.282l.444.414A1.743,1.743,0,0,1,513.007,188.133Zm-.85-1.811h1.564a.823.823,0,0,0-.785-.75A.806.806,0,0,0,512.157,186.322Z" class="cls-11"></path>
    <path id="path488" d="M515.1,187.269a1.73,1.73,0,0,0,.966.342c.359,0,.605-.162.605-.4,0-.186-.126-.288-.414-.342l-.533-.09c-.582-.108-.87-.377-.87-.827,0-.564.462-.93,1.163-.93a2.115,2.115,0,0,1,1.182.36l-.318.444a1.641,1.641,0,0,0-.906-.288c-.311,0-.516.132-.516.354,0,.192.109.276.426.33l.529.1c.6.114.887.389.887.839a1.1,1.1,0,0,1-1.223.978,2.012,2.012,0,0,1-1.3-.408Z" class="cls-11"></path>
  </g>
  <g id="g500">
    <path id="path492" d="M35.5,68.751h1.535a2.1,2.1,0,1,1,0,4.2H35.5Zm.72.624v2.951h.833a1.482,1.482,0,0,0,0-2.951Z" class="cls-11"></path>
    <path id="path494" d="M39.918,68.751h.72V70.52h2.087V68.751h.719v4.2h-.719v-1.8H40.638v1.8h-.72Z" class="cls-11"></path>
    <path id="path496" d="M47.542,71.816l.474.455a2.155,2.155,0,1,1,.017-2.842l-.485.48a1.477,1.477,0,1,0-1.127,2.452A1.425,1.425,0,0,0,47.542,71.816Z" class="cls-11"></path>
    <path id="path498" d="M48.762,68.751h1.877a1.3,1.3,0,1,1,0,2.6H49.481v1.6h-.719Zm.719.606v1.4h1.043a.706.706,0,1,0,.006-1.4Z" class="cls-11"></path>
  </g>
  <g id="g508">
    <path id="path502" d="M71.521,68.751h1.536a2.1,2.1,0,1,1,0,4.2H71.521Zm.72.624v2.951h.833a1.482,1.482,0,0,0,0-2.951Z" class="cls-11"></path>
    <path id="path504" d="M76.675,68.751,78.864,71.8l-.012-3.047h.677v4.2h-.641l-2.249-3.13.012,3.13h-.677v-4.2Z" class="cls-11"></path>
    <path id="path506" d="M80.569,71.8a2.1,2.1,0,0,0,1.41.611c.557,0,.941-.281.941-.665,0-.342-.2-.5-.762-.6l-.773-.132c-.726-.132-1.08-.492-1.08-1.067,0-.756.606-1.26,1.548-1.26a2.8,2.8,0,0,1,1.684.546l-.365.54a2.179,2.179,0,0,0-1.344-.486c-.5,0-.834.252-.834.594,0,.3.187.456.649.527l.743.132c.845.144,1.241.516,1.241,1.152,0,.767-.684,1.313-1.685,1.313a2.643,2.643,0,0,1-1.763-.678Z" class="cls-11"></path>
  </g>
  <g id="g516">
    <path id="path510" d="M106.179,68.751l2.189,3.047-.013-3.047h.678v4.2h-.641l-2.249-3.13.012,3.13h-.677v-4.2Z" class="cls-11"></path>
    <path id="path512" d="M109.689,68.751h3.526v.624h-1.4v3.574H111.1V69.375h-1.41Z" class="cls-11"></path>
    <path id="path514" d="M113.877,68.751h1.877a1.3,1.3,0,1,1,0,2.6H114.6v1.6h-.72Zm.72.606v1.4h1.043a.706.706,0,1,0,.006-1.4Z" class="cls-11"></path>
  </g>
  <g id="g536">
    <g id="g522">
      <path id="path518" d="M288.985,251.913v4.78c0,2.64,3.874,4.78,8.653,4.78s8.652-2.14,8.652-4.78v-4.78" class="cls-4"></path>
      <path id="path520" d="M297.638,261.825c-5.049,0-9-2.255-9-5.132v-4.78a.352.352,0,0,1,.7,0v4.78c0,2.442,3.724,4.428,8.3,4.428s8.3-1.986,8.3-4.428v-4.78a.352.352,0,1,1,.7,0v4.78C306.642,259.57,302.687,261.825,297.638,261.825Z" class="cls-14"></path>
    </g>
    <g id="g528">
      <path id="path524" d="M288.985,247.133v4.78c0,2.64,3.874,4.78,8.653,4.78s8.652-2.14,8.652-4.78v-4.78" class="cls-4"></path>
      <path id="path526" d="M297.638,257.045c-5.049,0-9-2.255-9-5.132v-4.78a.352.352,0,0,1,.7,0v4.78c0,2.442,3.724,4.428,8.3,4.428s8.3-1.986,8.3-4.428v-4.78a.352.352,0,1,1,.7,0v4.78C306.642,254.79,302.687,257.045,297.638,257.045Z" class="cls-14"></path>
    </g>
    <g id="g534">
      <ellipse id="ellipse530" ry="4.78" rx="8.652" cy="247.133" cx="297.638" class="cls-4"></ellipse>
      <path id="path532" d="M297.638,252.264c-5.049,0-9-2.254-9-5.131s3.956-5.132,9-5.132,9,2.254,9,5.132S302.687,252.264,297.638,252.264Zm0-9.56c-4.577,0-8.3,1.987-8.3,4.429s3.724,4.428,8.3,4.428,8.3-1.987,8.3-4.428S302.215,242.7,297.638,242.7Z" class="cls-14"></path>
    </g>
  </g>
  <g id="g556">
    <g id="g542">
      <path id="path538" d="M378.577,251.913v4.78c0,2.64,3.874,4.78,8.653,4.78s8.652-2.14,8.652-4.78v-4.78" class="cls-4"></path>
      <path id="path540" d="M387.23,261.825c-5.049,0-9-2.255-9-5.132v-4.78a.352.352,0,0,1,.7,0v4.78c0,2.442,3.723,4.428,8.3,4.428s8.3-1.986,8.3-4.428v-4.78a.352.352,0,1,1,.7,0v4.78C396.234,259.57,392.279,261.825,387.23,261.825Z" class="cls-14"></path>
    </g>
    <g id="g548">
      <path id="path544" d="M378.577,247.133v4.78c0,2.64,3.874,4.78,8.653,4.78s8.652-2.14,8.652-4.78v-4.78" class="cls-4"></path>
      <path id="path546" d="M387.23,257.045c-5.049,0-9-2.255-9-5.132v-4.78a.352.352,0,0,1,.7,0v4.78c0,2.442,3.723,4.428,8.3,4.428s8.3-1.986,8.3-4.428v-4.78a.352.352,0,1,1,.7,0v4.78C396.234,254.79,392.279,257.045,387.23,257.045Z" class="cls-14"></path>
    </g>
    <g id="g554">
      <ellipse id="ellipse550" ry="4.78" rx="8.652" cy="247.133" cx="387.23" class="cls-4"></ellipse>
      <path id="path552" d="M387.23,252.264c-5.049,0-9-2.254-9-5.131s3.956-5.132,9-5.132,9,2.254,9,5.132S392.279,252.264,387.23,252.264Zm0-9.56c-4.578,0-8.3,1.987-8.3,4.429s3.723,4.428,8.3,4.428,8.3-1.987,8.3-4.428S391.807,242.7,387.23,242.7Z" class="cls-14"></path>
    </g>
  </g>
  <g id="g576">
    <g id="g562">
      <path id="path558" d="M468.569,251.913v4.78c0,2.64,3.874,4.78,8.653,4.78s8.652-2.14,8.652-4.78v-4.78" class="cls-4"></path>
      <path id="path560" d="M477.222,261.825c-5.049,0-9-2.255-9-5.132v-4.78a.352.352,0,1,1,.7,0v4.78c0,2.442,3.724,4.428,8.3,4.428s8.3-1.986,8.3-4.428v-4.78a.352.352,0,1,1,.7,0v4.78C486.226,259.57,482.271,261.825,477.222,261.825Z" class="cls-14"></path>
    </g>
    <g id="g568">
      <path id="path564" d="M468.569,247.133v4.78c0,2.64,3.874,4.78,8.653,4.78s8.652-2.14,8.652-4.78v-4.78" class="cls-4"></path>
      <path id="path566" d="M477.222,257.045c-5.049,0-9-2.255-9-5.132v-4.78a.352.352,0,1,1,.7,0v4.78c0,2.442,3.724,4.428,8.3,4.428s8.3-1.986,8.3-4.428v-4.78a.352.352,0,1,1,.7,0v4.78C486.226,254.79,482.271,257.045,477.222,257.045Z" class="cls-14"></path>
    </g>
    <g id="g574">
      <ellipse id="ellipse570" ry="4.78" rx="8.652" cy="247.133" cx="477.222" class="cls-4"></ellipse>
      <path id="path572" d="M477.222,252.264c-5.049,0-9-2.254-9-5.131s3.955-5.132,9-5.132,9,2.254,9,5.132S482.271,252.264,477.222,252.264Zm0-9.56c-4.577,0-8.3,1.987-8.3,4.429s3.724,4.428,8.3,4.428,8.3-1.987,8.3-4.428S481.8,242.7,477.222,242.7Z" class="cls-14"></path>
    </g>
  </g>
  <polyline id="polyline578" points="279.891 217.864 355.634 217.864 355.634 176.28" class="cls-15"></polyline>
  <polyline id="polyline580" points="369.707 217.864 445.449 217.864 445.449 176.28" class="cls-15"></polyline>
  <polyline id="polyline582" points="459.836 217.864 535.578 217.864 535.578 176.28" class="cls-15"></polyline>
  <polyline id="polyline584" points="283.315 221.249 359.058 221.249 359.058 179.665" class="cls-15"></polyline>
  <rect id="rect586" height="8.455" width="17.674" y="174.538" x="332.896" class="cls-1"></rect>
  <rect id="rect588" height="8.455" width="17.674" y="174.538" x="423.016" class="cls-1"></rect>
  <rect id="rect590" height="8.455" width="17.674" y="174.538" x="513.092" class="cls-1"></rect>
  <g id="g596">
    <path id="path592" d="M340.342,180.2a1.765,1.765,0,0,1-1.3-.525l.371-.346a1.146,1.146,0,0,0,.92.391c.452,0,.761-.235.761-.581a.553.553,0,0,0-.62-.525h-.435v-.456h.39a.508.508,0,0,0,.556-.525.605.605,0,0,0-.666-.556,1.082,1.082,0,0,0-.871.415l-.37-.345a1.7,1.7,0,0,1,1.261-.555,1.067,1.067,0,0,1,1.2.981.842.842,0,0,1-.681.8.869.869,0,0,1,.791.8C341.648,179.771,341.1,180.2,340.342,180.2Z" class="cls-16"></path>
    <path id="path594" d="M342.917,178.875,342,177.644h.662l.585.826.586-.826h.63l-.9,1.216.971,1.291h-.665l-.631-.886-.631.886h-.631Z" class="cls-16"></path>
  </g>
  <g id="g606">
    <path id="path598" d="M426.566,177.4v2.747h-.555v-3.5h.781l1.026,2.122,1.021-2.122h.782v3.5h-.567v-2.732l-1.242,2.482Z" class="cls-16"></path>
    <path id="path600" d="M432.439,178.409l-1.678,1.362-.289-.336,1.3-1.021-1.3-1.021.3-.345Z" class="cls-16"></path>
    <path id="path602" d="M434.949,178.154h-2.1v-.45h2.1Zm0,.9h-2.1v-.45h2.1Z" class="cls-16"></path>
    <path id="path604" d="M435.521,179.756l1.436-1.5a.939.939,0,0,0,.341-.66.572.572,0,0,0-.64-.516,1.259,1.259,0,0,0-.907.431l-.31-.376a1.775,1.775,0,0,1,1.23-.53c.686,0,1.157.39,1.157.955a1.336,1.336,0,0,1-.5.976l-1.121,1.157,1.687-.011v.471h-2.373Z" class="cls-16"></path>
  </g>
  <g id="g616">
    <path id="path608" d="M517,176.648l1.827,2.542-.011-2.542h.566v3.5h-.536l-1.877-2.612.011,2.612h-.566v-3.5Z" class="cls-16"></path>
    <path id="path610" d="M522.192,178.409l-1.677,1.362-.29-.336,1.3-1.021-1.3-1.021.295-.345Z" class="cls-16"></path>
    <path id="path612" d="M524.7,178.154h-2.1v-.45h2.1Zm0,.9h-2.1v-.45h2.1Z" class="cls-16"></path>
    <path id="path614" d="M525.275,179.756l1.436-1.5a.935.935,0,0,0,.341-.66.571.571,0,0,0-.64-.516,1.263,1.263,0,0,0-.907.431l-.31-.376a1.776,1.776,0,0,1,1.231-.53c.686,0,1.157.39,1.157.955a1.334,1.334,0,0,1-.5.976l-1.122,1.157,1.688-.011v.471h-2.373Z" class="cls-16"></path>
  </g>
  <rect id="rect618" height="5.379" width="3.814" y="108.397" x="246.734" class="cls-4"></rect>
  <rect id="rect620" height="5.379" width="3.814" y="108.397" x="292.99" class="cls-4"></rect>
  <rect id="rect622" height="7.573" width="3.814" y="215.87" x="295.731" class="cls-4"></rect>
  <rect id="rect624" height="7.573" width="3.814" y="215.87" x="385.323" class="cls-4"></rect>
  <rect id="rect626" height="7.573" width="3.814" y="215.87" x="475.315" class="cls-4"></rect>
  <rect id="rect628" height="5.379" width="3.814" y="108.397" x="379.542" class="cls-4"></rect>
  <rect id="rect630" height="5.379" width="3.814" y="108.397" x="466.338" class="cls-4"></rect>
  <g id="g668">
    <g id="g636">
      <polyline id="polyline632" points="294.897 169.105 294.897 72.363 284.315 72.363" class="cls-17"></polyline>
      <polygon id="polygon634" points="297.39 168.376 294.897 172.693 292.404 168.376 297.39 168.376" class="cls-18"></polygon>
    </g>
    <g id="g642">
      <polyline id="polyline638" points="248.614 169.105 248.614 72.363 259.441 72.363" class="cls-17"></polyline>
      <polygon id="polygon640" points="251.107 168.376 248.614 172.693 246.121 168.376 251.107 168.376" class="cls-18"></polygon>
    </g>
    <g id="g666">
      <rect id="rect644" height="19.281" width="28.346" y="62.722" x="257.582" class="cls-19"></rect>
      <g id="g664">
        <path id="path646" d="M262.716,70.245h.6v3.5h-.6Z" class="cls-11"></path>
        <path id="path648" d="M264.061,71.241h.565v.41a.911.911,0,0,1,.8-.45.843.843,0,0,1,.866.9v1.651h-.566V72.257a.539.539,0,0,0-.551-.6.645.645,0,0,0-.545.3v1.792h-.565Z" class="cls-11"></path>
        <path id="path650" d="M267.011,73.077a1.441,1.441,0,0,0,.806.286c.3,0,.5-.135.5-.335,0-.156-.105-.241-.345-.286l-.445-.075c-.486-.09-.726-.315-.726-.69,0-.471.385-.776.971-.776a1.766,1.766,0,0,1,.986.3l-.265.37a1.375,1.375,0,0,0-.756-.24c-.26,0-.431.111-.431.3,0,.16.091.23.356.275l.44.08c.5.095.741.325.741.7a.918.918,0,0,1-1.021.815,1.682,1.682,0,0,1-1.081-.34Z" class="cls-11"></path>
        <path id="path652" d="M269.675,71.691h-.5v-.45h.5V70.55l.567-.12v.811h.7v.45h-.7v1.272c0,.245.094.34.349.34a1.039,1.039,0,0,0,.341-.06v.475a1.777,1.777,0,0,1-.485.07c-.506,0-.772-.24-.772-.7Z" class="cls-11"></path>
        <path id="path654" d="M271.311,73.028c0-.451.365-.736.956-.736a1.551,1.551,0,0,1,.675.155v-.275c0-.33-.19-.5-.575-.5a1.725,1.725,0,0,0-.731.2l-.2-.411a2.406,2.406,0,0,1,1.041-.255c.65,0,1.025.33,1.025.911v1.636h-.56v-.255a1.042,1.042,0,0,1-.745.3A.79.79,0,0,1,271.311,73.028Zm1.041.365a.893.893,0,0,0,.59-.2v-.41a1.283,1.283,0,0,0-.58-.12c-.32,0-.521.139-.521.36S272.042,73.393,272.352,73.393Z" class="cls-11"></path>
        <path id="path656" d="M274.751,73.748h-.565V70.17l.565-.095Z" class="cls-11"></path>
        <path id="path658" d="M276.011,73.748h-.565V70.17l.565-.095Z" class="cls-11"></path>
        <path id="path660" d="M277.867,73.8a1.275,1.275,0,0,1-1.277-1.3,1.235,1.235,0,0,1,1.221-1.3A1.2,1.2,0,0,1,279,72.492v.14h-1.852a.765.765,0,0,0,.75.686.816.816,0,0,0,.6-.235l.371.345A1.453,1.453,0,0,1,277.867,73.8Zm-.711-1.511h1.306a.686.686,0,0,0-.656-.626A.674.674,0,0,0,277.156,72.287Z" class="cls-11"></path>
        <path id="path662" d="M279.571,71.241h.565v.545a.743.743,0,0,1,.691-.59.674.674,0,0,1,.245.05v.5a.781.781,0,0,0-.311-.061.688.688,0,0,0-.625.416v1.651h-.565Z" class="cls-11"></path>
      </g>
    </g>
  </g>
  <g id="g708">
    <g id="g674">
      <polyline id="polyline670" points="468.245 169.105 468.245 72.363 457.664 72.363" class="cls-17"></polyline>
      <polygon id="polygon672" points="470.738 168.376 468.245 172.693 465.752 168.376 470.738 168.376" class="cls-18"></polygon>
    </g>
    <g id="g680">
      <polyline id="polyline676" points="381.448 169.105 381.448 72.363 431.615 72.363" class="cls-17"></polyline>
      <polygon id="polygon678" points="383.941 168.376 381.449 172.693 378.955 168.376 383.941 168.376" class="cls-18"></polygon>
    </g>
    <g id="g706">
      <rect id="rect682" height="19.281" width="28.346" y="62.722" x="431.276" class="cls-19"></rect>
      <g id="g704">
        <path id="path684" d="M436.544,68v2.748h-.554v-3.5h.78l1.026,2.123,1.021-2.123h.781v3.5h-.565V68.015L437.791,70.5Z" class="cls-11"></path>
        <path id="path686" d="M440.245,70.027c0-.45.365-.736.956-.736a1.545,1.545,0,0,1,.674.156v-.276c0-.33-.189-.5-.575-.5a1.733,1.733,0,0,0-.73.195l-.2-.41a2.406,2.406,0,0,1,1.041-.255c.65,0,1.025.33,1.025.91v1.637h-.561v-.256a1.039,1.039,0,0,1-.745.3A.791.791,0,0,1,440.245,70.027Zm1.041.365a.891.891,0,0,0,.589-.2v-.41a1.293,1.293,0,0,0-.58-.12c-.32,0-.52.14-.52.36S440.975,70.392,441.286,70.392Z" class="cls-11"></path>
        <path id="path688" d="M444.912,70.022l.339.341a1.3,1.3,0,0,1-.98.435,1.3,1.3,0,0,1,0-2.593,1.347,1.347,0,0,1,1,.421l-.35.365a.828.828,0,0,0-.63-.3.8.8,0,0,0,.014,1.6A.776.776,0,0,0,444.912,70.022Z" class="cls-11"></path>
        <path id="path690" d="M445.734,67.169l.565-.095v1.577a.909.909,0,0,1,.8-.45.843.843,0,0,1,.865.9v1.651H447.4V69.257a.54.54,0,0,0-.55-.6.644.644,0,0,0-.546.3v1.792h-.565Z" class="cls-11"></path>
        <path id="path692" d="M448.574,67.385a.353.353,0,0,1,.706,0,.353.353,0,0,1-.706,0Zm.635,3.363h-.565V68.241h.565Z" class="cls-11"></path>
        <path id="path694" d="M449.9,68.241h.565v.41a.909.909,0,0,1,.8-.45.843.843,0,0,1,.865.9v1.651h-.565V69.257a.54.54,0,0,0-.55-.6.644.644,0,0,0-.546.3v1.792H449.9Z" class="cls-11"></path>
        <path id="path696" d="M453.975,70.8a1.274,1.274,0,0,1-1.276-1.3,1.234,1.234,0,0,1,1.22-1.3,1.2,1.2,0,0,1,1.187,1.291v.14h-1.852a.766.766,0,0,0,.751.685.814.814,0,0,0,.6-.235l.371.346A1.451,1.451,0,0,1,453.975,70.8Zm-.711-1.512h1.307a.687.687,0,0,0-.656-.625A.675.675,0,0,0,453.264,69.286Z" class="cls-11"></path>
        <path id="path698" d="M442.722,73.244h.695l1.357,3.5h-.646l-.355-.981h-1.441l-.361.981h-.625ZM443.6,75.3l-.54-1.492-.551,1.492Z" class="cls-11"></path>
        <path id="path700" d="M445.222,73.244h1.567a1.087,1.087,0,1,1,0,2.167h-.967v1.337h-.6Zm.6.506v1.171h.871a.59.59,0,1,0,0-1.171Z" class="cls-11"></path>
        <path id="path702" d="M448.586,73.244h.6v3.5h-.6Z" class="cls-11"></path>
      </g>
    </g>
  </g>
  <rect id="rect710" height="9.278" width="31.382" y="196.689" x="372.371" class="cls-9"></rect>
  <rect id="rect712" height="9.278" width="31.382" y="196.689" x="405.895" class="cls-9"></rect>
  <g id="g728">
    <path id="path714" d="M380.976,199.638h1.243a.853.853,0,0,1,.936.847.8.8,0,0,1-.552.768l.588,1.183h-.532l-.539-1.119h-.664v1.119h-.48Zm.48.4v.891h.723a.448.448,0,1,0,0-.891Z" class="cls-11"></path>
    <path id="path716" d="M384.523,200.4a1.037,1.037,0,1,1-1.008,1.035A1,1,0,0,1,384.523,200.4Zm.56,1.039a.566.566,0,1,0-1.12,0,.565.565,0,1,0,1.12,0Z" class="cls-11"></path>
    <path id="path718" d="M386.44,201.625a.431.431,0,0,0,.439.479.508.508,0,0,0,.441-.247v-1.424h.451v2h-.451V202.1a.733.733,0,0,1-.641.365.672.672,0,0,1-.691-.716v-1.32h.452Z" class="cls-11"></path>
    <path id="path720" d="M388.576,200.793h-.4v-.36h.4v-.551l.452-.1v.647h.559v.36h-.559v1.016c0,.2.076.271.28.271a.83.83,0,0,0,.272-.047v.379a1.391,1.391,0,0,1-.388.057c-.4,0-.616-.193-.616-.56Z" class="cls-11"></path>
    <path id="path722" d="M390.911,202.476a1.018,1.018,0,0,1-1.02-1.039.986.986,0,0,1,.976-1.035.96.96,0,0,1,.947,1.031v.112h-1.479a.612.612,0,0,0,.6.548.653.653,0,0,0,.476-.188l.3.275A1.156,1.156,0,0,1,390.911,202.476Zm-.568-1.207h1.043a.548.548,0,0,0-.523-.5A.538.538,0,0,0,390.343,201.269Z" class="cls-11"></path>
    <path id="path724" d="M392.276,200.433h.451v.436a.594.594,0,0,1,.552-.472.557.557,0,0,1,.2.04v.4a.637.637,0,0,0-.248-.048.551.551,0,0,0-.5.332v1.319h-.451Z" class="cls-11"></path>
    <path id="path726" d="M393.879,201.9a1.157,1.157,0,0,0,.644.228c.24,0,.4-.109.4-.268,0-.124-.084-.192-.276-.228l-.356-.06c-.387-.072-.58-.252-.58-.552,0-.376.309-.619.777-.619a1.408,1.408,0,0,1,.787.239l-.212.3a1.1,1.1,0,0,0-.6-.192c-.208,0-.343.088-.343.236,0,.128.072.184.284.22l.351.064c.4.076.592.26.592.56a.733.733,0,0,1-.815.651,1.345,1.345,0,0,1-.865-.272Z" class="cls-11"></path>
  </g>
  <rect id="rect730" height="9.278" width="31.382" y="190.433" x="282.179" class="cls-9"></rect>
  <g id="g740">
    <path id="path732" d="M292.042,193.382h2v.407h-1.523v.78h1.063v.4h-1.063v.8h1.539v.408h-2.019Z" class="cls-11"></path>
    <path id="path734" d="M294.371,193.382h2.35v.415h-.93v2.383h-.481V193.8h-.939Z" class="cls-11"></path>
    <path id="path736" d="M299.242,195.425l.315.3a1.436,1.436,0,1,1,.012-1.9l-.323.32a.985.985,0,1,0-.752,1.635A.953.953,0,0,0,299.242,195.425Z" class="cls-11"></path>
    <path id="path738" d="M300.054,193.382h1.024a1.4,1.4,0,1,1,0,2.8h-1.024Zm.48.415v1.967h.555a.988.988,0,0,0,0-1.967Z" class="cls-11"></path>
  </g>
  <rect id="rect742" height="9.278" width="31.382" y="190.433" x="315.68" class="cls-9"></rect>
  <g id="g750">
    <path id="path744" d="M329.85,193.382h.556l1.084,2.8h-.516l-.284-.784h-1.151l-.289.784h-.5Zm.7,1.639-.431-1.192-.441,1.192Z" class="cls-11"></path>
    <path id="path746" d="M331.851,193.382H333.1a.868.868,0,1,1,0,1.731h-.771v1.067h-.48Zm.48.4v.936h.695a.471.471,0,1,0,0-.936Z" class="cls-11"></path>
    <path id="path748" d="M334.542,193.382h.481v2.8h-.481Z" class="cls-11"></path>
  </g>
  <rect id="rect752" height="9.278" width="64.871" y="201.76" x="282.18" class="cls-9"></rect>
  <g id="g806">
    <path id="path754" d="M286.817,206.743a1.4,1.4,0,0,0,.94.408c.372,0,.628-.188.628-.444,0-.228-.136-.332-.508-.4l-.516-.087c-.483-.088-.719-.329-.719-.712,0-.5.4-.84,1.031-.84a1.87,1.87,0,0,1,1.124.364l-.244.36a1.455,1.455,0,0,0-.9-.324c-.336,0-.555.168-.555.4,0,.2.124.3.431.352l.5.088c.564.095.827.343.827.767,0,.512-.456.876-1.123.876a1.761,1.761,0,0,1-1.175-.452Z" class="cls-11"></path>
    <path id="path756" d="M290.721,206.927l.271.272a1.039,1.039,0,0,1-.783.348,1.036,1.036,0,0,1,0-2.071,1.083,1.083,0,0,1,.8.335l-.28.292a.666.666,0,0,0-.5-.236.643.643,0,0,0,.012,1.28A.616.616,0,0,0,290.721,206.927Z" class="cls-11"></path>
    <path id="path758" d="M291.382,204.648l.451-.076v1.259a.728.728,0,0,1,.636-.359.673.673,0,0,1,.691.715v1.32h-.451v-1.192a.431.431,0,0,0-.44-.479.514.514,0,0,0-.436.24v1.431h-.451Z" class="cls-11"></path>
    <path id="path760" d="M294.637,207.547a1.019,1.019,0,0,1-1.02-1.04.987.987,0,0,1,.976-1.035.962.962,0,0,1,.948,1.031v.112h-1.479a.611.611,0,0,0,.6.548.653.653,0,0,0,.476-.188l.3.276A1.161,1.161,0,0,1,294.637,207.547Zm-.568-1.208h1.043a.547.547,0,0,0-.523-.5A.537.537,0,0,0,294.069,206.339Z" class="cls-11"></path>
    <path id="path762" d="M297.433,207.239a.771.771,0,0,1-.616.288,1.025,1.025,0,0,1,.028-2.039.765.765,0,0,1,.584.264v-1.1l.451-.076v2.935h-.447Zm-.48-.092a.6.6,0,0,0,.476-.22v-.844a.627.627,0,0,0-.476-.216.642.642,0,0,0,0,1.28Z" class="cls-11"></path>
    <path id="path764" d="M298.881,206.7a.432.432,0,0,0,.44.48.506.506,0,0,0,.44-.248V205.5h.451v2h-.451v-.332a.733.733,0,0,1-.64.364.672.672,0,0,1-.692-.716V205.5h.452Z" class="cls-11"></path>
    <path id="path766" d="M301.22,207.507h-.451v-2.859l.451-.076Z" class="cls-11"></path>
    <path id="path768" d="M301.677,206.931c0-.36.292-.588.764-.588a1.239,1.239,0,0,1,.54.124v-.22c0-.263-.152-.4-.46-.4a1.375,1.375,0,0,0-.584.157l-.159-.328a1.92,1.92,0,0,1,.831-.2c.519,0,.819.264.819.728v1.307h-.447v-.2a.837.837,0,0,1-.6.236A.632.632,0,0,1,301.677,206.931Zm.832.292a.715.715,0,0,0,.472-.164v-.328a1.04,1.04,0,0,0-.464-.1c-.256,0-.416.112-.416.288S302.261,207.223,302.509,207.223Z" class="cls-11"></path>
    <path id="path770" d="M303.977,205.5h.451v.435a.6.6,0,0,1,.552-.471.536.536,0,0,1,.2.04v.4a.62.62,0,0,0-.248-.048.55.55,0,0,0-.5.331v1.32h-.451Z" class="cls-11"></path>
    <path id="path772" d="M308.584,206.751l.316.3a1.437,1.437,0,1,1,.012-1.9l-.324.32a.984.984,0,1,0-.752,1.635A.949.949,0,0,0,308.584,206.751Z" class="cls-11"></path>
    <path id="path774" d="M310.256,205.472a1.038,1.038,0,1,1-1.007,1.035A1,1,0,0,1,310.256,205.472Zm.56,1.039a.566.566,0,1,0-1.119,0,.565.565,0,1,0,1.119,0Z" class="cls-11"></path>
    <path id="path776" d="M311.733,205.5h.451v.327a.728.728,0,0,1,.636-.359.673.673,0,0,1,.691.715v1.32h-.451v-1.192a.431.431,0,0,0-.44-.479.514.514,0,0,0-.436.24v1.431h-.451Z" class="cls-11"></path>
    <path id="path778" d="M314.308,205.864h-.4v-.36h.4v-.552l.452-.1v.648h.56v.36h-.56v1.015c0,.2.076.272.281.272a.829.829,0,0,0,.271-.048v.38a1.422,1.422,0,0,1-.388.056c-.4,0-.616-.192-.616-.56Z" class="cls-11"></path>
    <path id="path780" d="M315.717,205.5h.451v.435a.6.6,0,0,1,.552-.471.545.545,0,0,1,.2.04v.4a.628.628,0,0,0-.249-.048.551.551,0,0,0-.5.331v1.32h-.451Z" class="cls-11"></path>
    <path id="path782" d="M318.205,205.472a1.038,1.038,0,1,1-1.008,1.035A1,1,0,0,1,318.205,205.472Zm.559,1.039a.566.566,0,1,0-1.119,0,.565.565,0,1,0,1.119,0Z" class="cls-11"></path>
    <path id="path784" d="M320.132,207.507h-.451v-2.859l.451-.076Z" class="cls-11"></path>
    <path id="path786" d="M321.14,207.507h-.451v-2.859l.451-.076Z" class="cls-11"></path>
    <path id="path788" d="M322.624,207.547a1.019,1.019,0,0,1-1.02-1.04.987.987,0,0,1,.976-1.035.961.961,0,0,1,.947,1.031v.112h-1.479a.612.612,0,0,0,.6.548.654.654,0,0,0,.476-.188l.295.276A1.156,1.156,0,0,1,322.624,207.547Zm-.568-1.208H323.1a.547.547,0,0,0-.523-.5A.537.537,0,0,0,322.056,206.339Z" class="cls-11"></path>
    <path id="path790" d="M323.989,205.5h.451v.435a.594.594,0,0,1,.552-.471.536.536,0,0,1,.2.04v.4a.62.62,0,0,0-.248-.048.55.55,0,0,0-.5.331v1.32h-.451Z" class="cls-11"></path>
    <path id="path792" d="M326.96,205.312v2.195h-.443v-2.8h.623l.82,1.695.816-1.695h.623v2.8h-.451v-2.183l-.991,1.983Z" class="cls-11"></path>
    <path id="path794" d="M329.92,206.931c0-.36.292-.588.764-.588a1.235,1.235,0,0,1,.54.124v-.22c0-.263-.152-.4-.46-.4a1.379,1.379,0,0,0-.584.157l-.159-.328a1.92,1.92,0,0,1,.831-.2c.52,0,.819.264.819.728v1.307h-.447v-.2a.837.837,0,0,1-.6.236A.632.632,0,0,1,329.92,206.931Zm.832.292a.715.715,0,0,0,.472-.164v-.328a1.037,1.037,0,0,0-.464-.1c-.256,0-.416.112-.416.288S330.5,207.223,330.752,207.223Z" class="cls-11"></path>
    <path id="path796" d="M332.221,205.5h.451v.327a.731.731,0,0,1,.636-.359.674.674,0,0,1,.692.715v1.32h-.452v-1.192a.431.431,0,0,0-.44-.479.515.515,0,0,0-.436.24v1.431h-.451Z" class="cls-11"></path>
    <path id="path798" d="M334.449,206.931c0-.36.292-.588.763-.588a1.232,1.232,0,0,1,.54.124v-.22c0-.263-.152-.4-.46-.4a1.382,1.382,0,0,0-.584.157l-.159-.328a1.923,1.923,0,0,1,.831-.2c.52,0,.82.264.82.728v1.307h-.448v-.2a.834.834,0,0,1-.6.236A.632.632,0,0,1,334.449,206.931Zm.832.292a.712.712,0,0,0,.471-.164v-.328a1.036,1.036,0,0,0-.463-.1c-.256,0-.416.112-.416.288S335.033,207.223,335.281,207.223Z" class="cls-11"></path>
    <path id="path800" d="M336.656,206.5a.966.966,0,0,1,.935-1.015.751.751,0,0,1,.588.272V205.5h.448v2.071c0,.515-.335.8-.944.8a1.74,1.74,0,0,1-.8-.192l.16-.335a1.371,1.371,0,0,0,.624.171c.336,0,.511-.151.511-.443v-.34a.774.774,0,0,1-.611.284A.96.96,0,0,1,336.656,206.5Zm1.044.64a.6.6,0,0,0,.475-.22v-.84a.624.624,0,0,0-.475-.216.6.6,0,0,0-.6.636A.606.606,0,0,0,337.7,207.143Z" class="cls-11"></path>
    <path id="path802" d="M340.112,207.547a1.019,1.019,0,0,1-1.02-1.04.987.987,0,0,1,.976-1.035.961.961,0,0,1,.947,1.031v.112h-1.478a.612.612,0,0,0,.6.548.651.651,0,0,0,.476-.188l.3.276A1.159,1.159,0,0,1,340.112,207.547Zm-.568-1.208h1.043a.546.546,0,0,0-.523-.5A.537.537,0,0,0,339.544,206.339Z" class="cls-11"></path>
    <path id="path804" d="M341.477,205.5h.451v.435a.6.6,0,0,1,.552-.471.536.536,0,0,1,.2.04v.4a.62.62,0,0,0-.248-.048.55.55,0,0,0-.5.331v1.32h-.451Z" class="cls-11"></path>
  </g>
  <g id="g822">
    <rect id="rect808" height="9.278" width="31.382" y="190.433" x="462.205" class="cls-9"></rect>
    <g id="g820">
      <path id="path810" d="M474.42,195.425l.316.3a1.436,1.436,0,1,1,.012-1.9l-.324.32a.984.984,0,1,0-.752,1.635A.951.951,0,0,0,474.42,195.425Z" class="cls-11"></path>
      <path id="path812" d="M475.233,193.382h1.243a.853.853,0,0,1,.936.847.794.794,0,0,1-.552.767l.588,1.184h-.532l-.54-1.119h-.664v1.119h-.479Zm.479.4v.892h.724a.448.448,0,1,0,0-.892Z" class="cls-11"></path>
      <path id="path814" d="M477.9,193.382h.48v2.8h-.48Z" class="cls-11"></path>
      <path id="path816" d="M480.312,194.857v.38H478.92v-.38Z" class="cls-11"></path>
      <path id="path818" d="M482.165,196.224a1.443,1.443,0,1,1,1.415-1.443A1.417,1.417,0,0,1,482.165,196.224Zm0-2.459a1.018,1.018,0,0,0,0,2.027,1.018,1.018,0,0,0,0-2.027Z" class="cls-11"></path>
    </g>
  </g>
  <g id="g848">
    <rect id="rect824" height="9.278" width="31.382" y="190.433" x="495.693" class="cls-9"></rect>
    <g id="g846">
      <path id="path826" d="M500.582,193.382h.479v1.279l1.216-1.279h.583l-1.327,1.347,1.38,1.451h-.636l-1.216-1.315v1.315h-.479Z" class="cls-11"></path>
      <path id="path828" d="M503.637,195.368a.432.432,0,0,0,.44.48.5.5,0,0,0,.439-.248v-1.423h.452v2h-.452v-.332a.73.73,0,0,1-.639.364.672.672,0,0,1-.692-.716v-1.319h.452Z" class="cls-11"></path>
      <path id="path830" d="M506.561,196.2a.745.745,0,0,1-.592-.28v.26h-.443v-2.858l.451-.077v1.2a.78.78,0,0,1,.616-.284.961.961,0,0,1,.907,1.019A.971.971,0,0,1,506.561,196.2Zm-.584-1.435v.835a.614.614,0,0,0,.48.22.641.641,0,0,0,0-1.279A.588.588,0,0,0,505.977,194.765Z" class="cls-11"></path>
      <path id="path832" d="M508.9,196.22a1.019,1.019,0,0,1-1.02-1.04.987.987,0,0,1,.976-1.035.962.962,0,0,1,.948,1.032v.111h-1.479a.612.612,0,0,0,.6.548.651.651,0,0,0,.476-.188l.3.276A1.159,1.159,0,0,1,508.9,196.22Zm-.567-1.207h1.043a.549.549,0,0,0-.524-.5A.537.537,0,0,0,508.33,195.013Z" class="cls-11"></path>
      <path id="path834" d="M511.6,194.857v.38h-1.392v-.38Z" class="cls-11"></path>
      <path id="path836" d="M512.11,194.177h.443v.288a.755.755,0,0,1,.624-.3.961.961,0,0,1,.907,1.019.971.971,0,0,1-.939,1.02.751.751,0,0,1-.584-.26v1.088h-.451Zm.451.588v.835a.614.614,0,0,0,.48.22.641.641,0,0,0,0-1.279A.588.588,0,0,0,512.561,194.765Z" class="cls-11"></path>
      <path id="path838" d="M514.554,194.177h.451v.436a.6.6,0,0,1,.552-.472.536.536,0,0,1,.2.04v.4a.637.637,0,0,0-.248-.048.552.552,0,0,0-.5.332v1.319h-.451Z" class="cls-11"></path>
      <path id="path840" d="M517.041,194.145a1.038,1.038,0,1,1-1.008,1.035A1,1,0,0,1,517.041,194.145Zm.559,1.039a.566.566,0,1,0-1.119,0,.565.565,0,1,0,1.119,0Z" class="cls-11"></path>
      <path id="path842" d="M519.038,195.16l-.732-.983h.527l.468.66.468-.66h.5l-.72.972.776,1.031H519.8l-.5-.708-.5.708h-.5Z" class="cls-11"></path>
      <path id="path844" d="M521.166,196.192l-.756-2.015h.5l.507,1.487.56-1.487h.491l-.951,2.331a.678.678,0,0,1-.712.527.952.952,0,0,1-.227-.027v-.388a1.614,1.614,0,0,0,.175.016.321.321,0,0,0,.325-.232Z" class="cls-11"></path>
    </g>
  </g>
  <rect id="rect850" height="9.278" width="64.871" y="201.76" x="462.205" class="cls-9"></rect>
  <g id="g864">
    <path id="path852" d="M488.776,204.708h.479v1.28l1.216-1.28h.583l-1.327,1.347,1.38,1.452h-.636l-1.216-1.316v1.316h-.479Z" class="cls-11"></path>
    <path id="path854" d="M491.832,206.7a.431.431,0,0,0,.439.48.5.5,0,0,0,.439-.248V205.5h.453v2h-.453v-.332a.73.73,0,0,1-.638.364.673.673,0,0,1-.693-.716V205.5h.453Z" class="cls-11"></path>
    <path id="path856" d="M494.755,207.527a.742.742,0,0,1-.591-.28v.26h-.444v-2.859l.451-.076v1.2a.782.782,0,0,1,.617-.284.961.961,0,0,1,.907,1.019A.971.971,0,0,1,494.755,207.527Zm-.584-1.435v.835a.616.616,0,0,0,.48.22.642.642,0,0,0,0-1.28A.592.592,0,0,0,494.171,206.092Z" class="cls-11"></path>
    <path id="path858" d="M496.616,207.507h-.451v-2.859l.451-.076Z" class="cls-11"></path>
    <path id="path860" d="M498.1,207.547a1.018,1.018,0,0,1-1.019-1.04.987.987,0,0,1,.975-1.035A.962.962,0,0,1,499,206.5v.112h-1.479a.612.612,0,0,0,.6.548.65.65,0,0,0,.475-.188l.3.276A1.157,1.157,0,0,1,498.1,207.547Zm-.567-1.208h1.043a.548.548,0,0,0-.524-.5A.536.536,0,0,0,497.532,206.339Z" class="cls-11"></path>
    <path id="path862" d="M499.711,205.864h-.4v-.36h.4v-.552l.453-.1v.648h.559v.36h-.559v1.015c0,.2.076.272.28.272a.825.825,0,0,0,.271-.048v.38a1.415,1.415,0,0,1-.387.056c-.4,0-.617-.192-.617-.56Z" class="cls-11"></path>
  </g>
  <g id="g882">
    <path id="path866" d="M414.064,199.638h1.243a.853.853,0,0,1,.936.847.8.8,0,0,1-.552.768l.588,1.183h-.532l-.539-1.119h-.665v1.119h-.479Zm.479.4v.891h.724a.448.448,0,1,0,0-.891Z" class="cls-11"></path>
    <path id="path868" d="M417.623,202.476a1.018,1.018,0,0,1-1.02-1.039.986.986,0,0,1,.976-1.035.962.962,0,0,1,.948,1.031v.112h-1.48a.612.612,0,0,0,.6.548.654.654,0,0,0,.476-.188l.3.275A1.152,1.152,0,0,1,417.623,202.476Zm-.568-1.207H418.1a.548.548,0,0,0-.523-.5A.538.538,0,0,0,417.055,201.269Z" class="cls-11"></path>
    <path id="path870" d="M418.9,201.433a.967.967,0,0,1,.936-1.016.751.751,0,0,1,.587.272v-.256h.449V202.5c0,.516-.336.8-.945.8a1.733,1.733,0,0,1-.8-.192l.159-.336a1.364,1.364,0,0,0,.624.172c.336,0,.512-.152.512-.444v-.34a.776.776,0,0,1-.612.285A.961.961,0,0,1,418.9,201.433Zm1.044.64a.606.606,0,0,0,.476-.22v-.84a.625.625,0,0,0-.476-.216.6.6,0,0,0-.6.636A.606.606,0,0,0,419.94,202.073Z" class="cls-11"></path>
    <path id="path872" d="M421.368,199.75a.282.282,0,0,1,.563,0,.282.282,0,0,1-.563,0Zm.507,2.686h-.451v-2h.451Z" class="cls-11"></path>
    <path id="path874" d="M422.463,201.9a1.157,1.157,0,0,0,.644.228c.24,0,.4-.109.4-.268,0-.124-.084-.192-.276-.228l-.356-.06c-.387-.072-.58-.252-.58-.552,0-.376.309-.619.777-.619a1.408,1.408,0,0,1,.787.239l-.212.3a1.1,1.1,0,0,0-.6-.192c-.208,0-.343.088-.343.236,0,.128.072.184.284.22l.351.064c.4.076.592.26.592.56a.733.733,0,0,1-.815.651,1.345,1.345,0,0,1-.865-.272Z" class="cls-11"></path>
    <path id="path876" d="M424.6,200.793h-.4v-.36h.4v-.551l.452-.1v.647h.56v.36h-.56v1.016c0,.2.077.271.281.271a.825.825,0,0,0,.271-.047v.379a1.38,1.38,0,0,1-.388.057c-.4,0-.616-.193-.616-.56Z" class="cls-11"></path>
    <path id="path878" d="M426,200.433h.452v.436a.593.593,0,0,1,.551-.472.567.567,0,0,1,.2.04v.4a.641.641,0,0,0-.248-.048.55.55,0,0,0-.5.332v1.319H426Z" class="cls-11"></path>
    <path id="path880" d="M428.087,202.449l-.755-2.016h.5l.508,1.488.56-1.488h.491l-.951,2.331a.677.677,0,0,1-.712.528.964.964,0,0,1-.228-.028v-.388a1.645,1.645,0,0,0,.176.016.319.319,0,0,0,.324-.232Z" class="cls-11"></path>
  </g>
  <g id="g888">
    <line id="line884" y2="214.936" x2="297.638" y1="238.59" x1="297.638" class="cls-17"></line>
    <polygon id="polygon886" points="300.131 237.861 297.638 242.178 295.145 237.861 300.131 237.861" class="cls-18"></polygon>
  </g>
  <g id="g898">
    <path id="path890" d="M323.079,264.485h.773l1.289,3.472,1.3-3.472h.743l-1.643,4.2h-.834Z" class="cls-11"></path>
    <path id="path892" d="M328.394,265.39v3.292h-.665v-4.2h.936l1.228,2.542,1.224-2.542h.935v4.2h-.677v-3.274l-1.488,2.975Z" class="cls-11"></path>
    <path id="path894" d="M333.069,264.485H334.6a2.1,2.1,0,1,1,0,4.2h-1.535Zm.719.623v2.951h.834a1.482,1.482,0,0,0,0-2.951Z" class="cls-11"></path>
    <path id="path896" d="M337.521,264.485h.719V266.4l1.823-1.919h.876l-1.991,2.021,2.069,2.176h-.954l-1.823-1.973v1.973h-.719Z" class="cls-11"></path>
  </g>
  <g id="g918">
    <g id="g904">
      <path id="path900" d="M323.381,251.913v4.78c0,2.64,3.874,4.78,8.652,4.78s8.653-2.14,8.653-4.78v-4.78" class="cls-4"></path>
      <path id="path902" d="M332.033,261.825c-5.049,0-9-2.255-9-5.132v-4.78a.352.352,0,1,1,.7,0v4.78c0,2.442,3.724,4.428,8.3,4.428s8.3-1.986,8.3-4.428v-4.78a.352.352,0,1,1,.7,0v4.78C341.037,259.57,337.082,261.825,332.033,261.825Z" class="cls-14"></path>
    </g>
    <g id="g910">
      <path id="path906" d="M323.381,247.133v4.78c0,2.64,3.874,4.78,8.652,4.78s8.653-2.14,8.653-4.78v-4.78" class="cls-4"></path>
      <path id="path908" d="M332.033,257.045c-5.049,0-9-2.255-9-5.132v-4.78a.352.352,0,1,1,.7,0v4.78c0,2.442,3.724,4.428,8.3,4.428s8.3-1.986,8.3-4.428v-4.78a.352.352,0,1,1,.7,0v4.78C341.037,254.79,337.082,257.045,332.033,257.045Z" class="cls-14"></path>
    </g>
    <g id="g916">
      <ellipse id="ellipse912" ry="4.78" rx="8.652" cy="247.133" cx="332.033" class="cls-4"></ellipse>
      <path id="path914" d="M332.033,252.264c-5.049,0-9-2.254-9-5.131s3.955-5.132,9-5.132,9,2.254,9,5.132S337.082,252.264,332.033,252.264Zm0-9.56c-4.577,0-8.3,1.987-8.3,4.429s3.724,4.428,8.3,4.428,8.3-1.987,8.3-4.428S336.61,242.7,332.033,242.7Z" class="cls-14"></path>
    </g>
  </g>
  <rect id="rect920" height="7.573" width="3.814" y="215.87" x="330.126" class="cls-4"></rect>
  <g id="g926">
    <line id="line922" y2="214.936" x2="332.033" y1="238.59" x1="332.033" class="cls-17"></line>
    <polygon id="polygon924" points="334.526 237.861 332.033 242.178 329.54 237.861 334.526 237.861" class="cls-18"></polygon>
  </g>
  <g id="g932">
    <line id="line928" y2="214.936" x2="387.23" y1="238.59" x1="387.23" class="cls-17"></line>
    <polygon id="polygon930" points="389.723 237.861 387.23 242.178 384.737 237.861 389.723 237.861" class="cls-18"></polygon>
  </g>
  <g id="g942">
    <path id="path934" d="M413.1,264.485h.774l1.289,3.472,1.3-3.472h.744l-1.643,4.2h-.834Z" class="cls-11"></path>
    <path id="path936" d="M418.411,265.39v3.292h-.665v-4.2h.935l1.229,2.542,1.223-2.542h.936v4.2h-.678v-3.274l-1.487,2.975Z" class="cls-11"></path>
    <path id="path938" d="M423.085,264.485h1.536a2.1,2.1,0,1,1,0,4.2h-1.536Zm.719.623v2.951h.834a1.482,1.482,0,0,0,0-2.951Z" class="cls-11"></path>
    <path id="path940" d="M427.538,264.485h.718V266.4l1.824-1.919h.876l-1.992,2.021,2.07,2.176h-.954l-1.824-1.973v1.973h-.718Z" class="cls-11"></path>
  </g>
  <g id="g962">
    <g id="g948">
      <path id="path944" d="M413.4,251.913v4.78c0,2.64,3.874,4.78,8.652,4.78s8.653-2.14,8.653-4.78v-4.78" class="cls-4"></path>
      <path id="path946" d="M422.05,261.825c-5.049,0-9-2.255-9-5.132v-4.78a.352.352,0,1,1,.7,0v4.78c0,2.442,3.724,4.428,8.3,4.428s8.3-1.986,8.3-4.428v-4.78a.352.352,0,1,1,.7,0v4.78C431.054,259.57,427.1,261.825,422.05,261.825Z" class="cls-14"></path>
    </g>
    <g id="g954">
      <path id="path950" d="M413.4,247.133v4.78c0,2.64,3.874,4.78,8.652,4.78s8.653-2.14,8.653-4.78v-4.78" class="cls-4"></path>
      <path id="path952" d="M422.05,257.045c-5.049,0-9-2.255-9-5.132v-4.78a.352.352,0,1,1,.7,0v4.78c0,2.442,3.724,4.428,8.3,4.428s8.3-1.986,8.3-4.428v-4.78a.352.352,0,1,1,.7,0v4.78C431.054,254.79,427.1,257.045,422.05,257.045Z" class="cls-14"></path>
    </g>
    <g id="g960">
      <ellipse id="ellipse956" ry="4.78" rx="8.652" cy="247.133" cx="422.05" class="cls-4"></ellipse>
      <path id="path958" d="M422.05,252.264c-5.049,0-9-2.254-9-5.131S417,242,422.05,242s9,2.254,9,5.132S427.1,252.264,422.05,252.264Zm0-9.56c-4.577,0-8.3,1.987-8.3,4.429s3.724,4.428,8.3,4.428,8.3-1.987,8.3-4.428S426.627,242.7,422.05,242.7Z" class="cls-14"></path>
    </g>
  </g>
  <rect id="rect964" height="7.573" width="3.814" y="215.87" x="420.143" class="cls-4"></rect>
  <g id="g970">
    <line id="line966" y2="214.936" x2="422.05" y1="238.59" x1="422.05" class="cls-17"></line>
    <polygon id="polygon968" points="424.543 237.861 422.05 242.178 419.557 237.861 424.543 237.861" class="cls-18"></polygon>
  </g>
  <g id="g976">
    <line id="line972" y2="214.936" x2="477.222" y1="238.59" x1="477.222" class="cls-17"></line>
    <polygon id="polygon974" points="479.715 237.861 477.222 242.178 474.729 237.861 479.715 237.861" class="cls-18"></polygon>
  </g>
  <g id="g986">
    <path id="path978" d="M503.1,264.485h.773l1.29,3.472,1.3-3.472h.744l-1.643,4.2h-.833Z" class="cls-11"></path>
    <path id="path980" d="M508.419,265.39v3.292h-.666v-4.2h.936l1.229,2.542,1.224-2.542h.935v4.2H511.4v-3.274l-1.487,2.975Z" class="cls-11"></path>
    <path id="path982" d="M513.093,264.485h1.535a2.1,2.1,0,1,1,0,4.2h-1.535Zm.72.623v2.951h.833a1.482,1.482,0,0,0,0-2.951Z" class="cls-11"></path>
    <path id="path984" d="M517.545,264.485h.72V266.4l1.823-1.919h.875l-1.99,2.021,2.069,2.176h-.954l-1.823-1.973v1.973h-.72Z" class="cls-11"></path>
  </g>
  <g id="g1006">
    <g id="g992">
      <path id="path988" d="M503.406,251.913v4.78c0,2.64,3.873,4.78,8.652,4.78s8.652-2.14,8.652-4.78v-4.78" class="cls-4"></path>
      <path id="path990" d="M512.058,261.825c-5.049,0-9-2.255-9-5.132v-4.78a.352.352,0,1,1,.7,0v4.78c0,2.442,3.724,4.428,8.3,4.428s8.3-1.986,8.3-4.428v-4.78a.352.352,0,1,1,.7,0v4.78C521.062,259.57,517.107,261.825,512.058,261.825Z" class="cls-14"></path>
    </g>
    <g id="g998">
      <path id="path994" d="M503.406,247.133v4.78c0,2.64,3.873,4.78,8.652,4.78s8.652-2.14,8.652-4.78v-4.78" class="cls-4"></path>
      <path id="path996" d="M512.058,257.045c-5.049,0-9-2.255-9-5.132v-4.78a.352.352,0,1,1,.7,0v4.78c0,2.442,3.724,4.428,8.3,4.428s8.3-1.986,8.3-4.428v-4.78a.352.352,0,1,1,.7,0v4.78C521.062,254.79,517.107,257.045,512.058,257.045Z" class="cls-14"></path>
    </g>
    <g id="g1004">
      <ellipse id="ellipse1000" ry="4.78" rx="8.652" cy="247.133" cx="512.058" class="cls-4"></ellipse>
      <path id="path1002" d="M512.058,252.264c-5.049,0-9-2.254-9-5.131s3.955-5.132,9-5.132,9,2.254,9,5.132S517.107,252.264,512.058,252.264Zm0-9.56c-4.577,0-8.3,1.987-8.3,4.429s3.724,4.428,8.3,4.428,8.3-1.987,8.3-4.428S516.635,242.7,512.058,242.7Z" class="cls-14"></path>
    </g>
  </g>
  <rect id="rect1008" height="7.573" width="3.814" y="215.87" x="510.151" class="cls-4"></rect>
  <g id="g1014">
    <line id="line1010" y2="214.936" x2="512.058" y1="238.59" x1="512.058" class="cls-17"></line>
    <polygon id="polygon1012" points="514.551 237.861 512.058 242.178 509.565 237.861 514.551 237.861" class="cls-18"></polygon>
  </g>
  <g id="g1038">
    <path id="path1016" d="M129.745,191.279c.792,0,1.325.443,1.325,1.1a1,1,0,0,1-.671.929,1.052,1.052,0,0,1,.815,1,1.223,1.223,0,0,1-1.385,1.169H127.88v-4.2Zm-1.145.587v1.176h1.073c.414,0,.678-.228.678-.588s-.264-.588-.678-.588Zm1.889,2.375a.655.655,0,0,0-.744-.642H128.6v1.289h1.145A.659.659,0,0,0,130.489,194.241Z" class="cls-20"></path>
    <path id="path1018" d="M131.822,194.613c0-.54.438-.882,1.145-.882a1.855,1.855,0,0,1,.81.186v-.329c0-.4-.228-.6-.69-.6a2.061,2.061,0,0,0-.875.234l-.24-.492a2.882,2.882,0,0,1,1.247-.306c.78,0,1.23.4,1.23,1.091v1.961h-.672v-.305a1.254,1.254,0,0,1-.894.353A.947.947,0,0,1,131.822,194.613Zm1.247.438a1.077,1.077,0,0,0,.708-.246v-.492a1.554,1.554,0,0,0-.695-.144c-.384,0-.624.168-.624.431S132.7,195.051,133.069,195.051Z" class="cls-20"></path>
    <path id="path1020" d="M135.32,194.673a1.73,1.73,0,0,0,.966.341c.36,0,.606-.162.606-.4,0-.186-.126-.288-.414-.342l-.534-.09c-.582-.108-.87-.377-.87-.828,0-.563.462-.929,1.164-.929a2.112,2.112,0,0,1,1.181.36l-.318.443a1.646,1.646,0,0,0-.905-.287c-.312,0-.516.132-.516.354,0,.191.108.275.426.33l.528.1c.6.113.887.389.887.838a1.1,1.1,0,0,1-1.223.978,2.022,2.022,0,0,1-1.3-.407Z" class="cls-20"></path>
    <path id="path1022" d="M138.458,193.012h-.6v-.54h.6v-.828l.678-.143v.971h.839v.54h-.839v1.523c0,.294.114.407.42.407a1.24,1.24,0,0,0,.407-.071v.569a2.122,2.122,0,0,1-.582.084c-.6,0-.923-.288-.923-.84Z" class="cls-20"></path>
    <path id="path1024" d="M140.486,191.446a.423.423,0,0,1,.846,0,.423.423,0,0,1-.846,0Zm.762,4.03h-.678v-3h.678Z" class="cls-20"></path>
    <path id="path1026" d="M143.455,192.424a1.557,1.557,0,1,1-1.511,1.553A1.5,1.5,0,0,1,143.455,192.424Zm.839,1.559a.849.849,0,1,0-1.678,0,.847.847,0,1,0,1.678,0Z" class="cls-20"></path>
    <path id="path1028" d="M145.67,192.472h.677v.492a1.091,1.091,0,0,1,.954-.54,1.011,1.011,0,0,1,1.037,1.074v1.978h-.677v-1.787a.647.647,0,0,0-.66-.719.771.771,0,0,0-.654.36v2.146h-.677Z" class="cls-20"></path>
    <path id="path1030" d="M150.566,191.279h.72v1.769h2.087v-1.769h.719v4.2h-.719v-1.8h-2.087v1.8h-.72Z" class="cls-20"></path>
    <path id="path1032" d="M156.361,192.424a1.557,1.557,0,1,1-1.511,1.553A1.5,1.5,0,0,1,156.361,192.424Zm.839,1.559a.849.849,0,1,0-1.679,0,.848.848,0,1,0,1.679,0Z" class="cls-20"></path>
    <path id="path1034" d="M158.624,194.673a1.725,1.725,0,0,0,.965.341c.36,0,.606-.162.606-.4,0-.186-.126-.288-.414-.342l-.534-.09c-.581-.108-.87-.377-.87-.828,0-.563.462-.929,1.164-.929a2.112,2.112,0,0,1,1.181.36l-.318.443a1.644,1.644,0,0,0-.905-.287c-.312,0-.516.132-.516.354,0,.191.108.275.426.33l.528.1c.6.113.887.389.887.838a1.1,1.1,0,0,1-1.223.978,2.019,2.019,0,0,1-1.295-.407Z" class="cls-20"></path>
    <path id="path1036" d="M161.761,193.012h-.6v-.54h.6v-.828l.678-.143v.971h.839v.54h-.839v1.523c0,.294.114.407.42.407a1.245,1.245,0,0,0,.408-.071v.569a2.133,2.133,0,0,1-.582.084c-.606,0-.924-.288-.924-.84Z" class="cls-20"></path>
  </g>
  <g id="g1044">
    <rect id="rect1040" height="12.311" width="14.712" y="104.931" x="307.184" class="cls-21"></rect>
    <path id="path1042" d="M318.883,113.221v-2.17a.307.307,0,0,0-.3-.3h-3.737v-1.866a1.11,1.11,0,1,0-.606,0v1.866H310.5a.307.307,0,0,0-.3.3v2.17a1.11,1.11,0,1,0,.606,0v-1.867h3.433v1.867a1.111,1.111,0,1,0,.606,0v-1.867h3.434v1.867a1.111,1.111,0,1,0,.606,0Z" class="cls-11"></path>
  </g>
  <g id="g1050">
    <rect id="rect1046" height="12.311" width="14.712" y="104.931" x="397.234" class="cls-21"></rect>
    <path id="path1048" d="M408.933,113.221v-2.17a.307.307,0,0,0-.3-.3h-3.737v-1.866a1.111,1.111,0,1,0-.606,0v1.866H400.55a.307.307,0,0,0-.3.3v2.17a1.111,1.111,0,1,0,.606,0v-1.867h3.434v1.867a1.111,1.111,0,1,0,.606,0v-1.867h3.434v1.867a1.111,1.111,0,1,0,.606,0Z" class="cls-11"></path>
  </g>
</svg>
