<svg id="uuid-af665d28-c78f-4639-bf23-99f4444fc738" data-name="Layer 1" width="575.737" height="282.91199" viewBox="0 0 575.737 282.91197" version="1.1" xmlns="http://www.w3.org/2000/svg">
  
  <defs id="defs1">
    <style id="style1">
      .uuid-c495c4a1-84c0-4332-a436-0e3098090131, .uuid-11253acd-8134-4892-addf-7dda1a6a3a4c, .uuid-120089e1-6f69-4133-8c1f-3e04778fcd45, .uuid-f3ebc513-33c1-4536-a367-3283b9c4bff6, .uuid-fd71e55c-b369-4458-9602-36dbbcf62643, .uuid-ff1fbbd2-899a-4e83-b92a-cf6c3e7f989f, .uuid-326a11e6-3042-4af9-95cd-c711c863ce19 {
        stroke: #000;
      }

      .uuid-c495c4a1-84c0-4332-a436-0e3098090131, .uuid-11253acd-8134-4892-addf-7dda1a6a3a4c, .uuid-120089e1-6f69-4133-8c1f-3e04778fcd45, .uuid-f3ebc513-33c1-4536-a367-3283b9c4bff6, .uuid-fd71e55c-b369-4458-9602-36dbbcf62643, .uuid-326a11e6-3042-4af9-95cd-c711c863ce19 {
        stroke-linecap: round;
        stroke-linejoin: round;
      }

      .uuid-c495c4a1-84c0-4332-a436-0e3098090131, .uuid-120089e1-6f69-4133-8c1f-3e04778fcd45, .uuid-f3ebc513-33c1-4536-a367-3283b9c4bff6, .uuid-fd71e55c-b369-4458-9602-36dbbcf62643, .uuid-ff1fbbd2-899a-4e83-b92a-cf6c3e7f989f, .uuid-326a11e6-3042-4af9-95cd-c711c863ce19 {
        fill: none;
      }

      .uuid-11253acd-8134-4892-addf-7dda1a6a3a4c, .uuid-c4cb6c92-67bb-4640-96ae-2a5fc1a62a02, .uuid-5f205065-be4c-4eb4-bf5e-0be7343e9d0e {
        fill: #fff;
      }

      .uuid-120089e1-6f69-4133-8c1f-3e04778fcd45 {
        stroke-dasharray: 0 0 0 5.048;
      }

      .uuid-120089e1-6f69-4133-8c1f-3e04778fcd45, .uuid-f3ebc513-33c1-4536-a367-3283b9c4bff6, .uuid-fd71e55c-b369-4458-9602-36dbbcf62643, .uuid-326a11e6-3042-4af9-95cd-c711c863ce19 {
        stroke-width: 2px;
      }

      .uuid-c4cb6c92-67bb-4640-96ae-2a5fc1a62a02 {
        stroke: #06c;
      }

      .uuid-c4cb6c92-67bb-4640-96ae-2a5fc1a62a02, .uuid-ff1fbbd2-899a-4e83-b92a-cf6c3e7f989f {
        stroke-miterlimit: 10;
      }

      .uuid-e15b26b3-951f-42d8-a6aa-49dd73b3fd87 {
        fill: #000;
      }

      .uuid-e15b26b3-951f-42d8-a6aa-49dd73b3fd87, .uuid-73a70ef8-b94c-437a-90ea-4782a9a72ed7, .uuid-1180e904-a7df-4983-9203-b77b4723b47d, .uuid-04167577-47f9-4cad-a697-658790db4288, .uuid-5f205065-be4c-4eb4-bf5e-0be7343e9d0e {
        stroke-width: 0px;
      }

      .uuid-73a70ef8-b94c-437a-90ea-4782a9a72ed7 {
        fill: #a1c2e7;
      }

      .uuid-1180e904-a7df-4983-9203-b77b4723b47d {
        fill: #dbe8f5;
      }

      .uuid-fd71e55c-b369-4458-9602-36dbbcf62643 {
        stroke-dasharray: 0 0 0 5.121;
      }

      .uuid-04167577-47f9-4cad-a697-658790db4288 {
        fill: #151515;
      }

      .uuid-326a11e6-3042-4af9-95cd-c711c863ce19 {
        stroke-dasharray: 0 0 0 4.872;
      }
    </style>
  </defs>
  <rect class="uuid-1180e904-a7df-4983-9203-b77b4723b47d" x="116.28589" y="-6.970896e-07" width="343.31134" height="282.91199" id="rect7" style="mix-blend-mode:color;fill:#ffffff;fill-opacity:1"></rect>
  <rect class="uuid-c4cb6c92-67bb-4640-96ae-2a5fc1a62a02" x="239.62201" y="13.411999" width="96.494003" height="35.914001" id="rect1"></rect>
  <rect class="uuid-c4cb6c92-67bb-4640-96ae-2a5fc1a62a02" x="239.62201" y="216.76801" width="96.494003" height="35.914001" id="rect2"></rect>
  <rect class="uuid-73a70ef8-b94c-437a-90ea-4782a9a72ed7" x="129.703" y="13.411999" width="96.494003" height="35.914001" id="rect3"></rect>
  <rect class="uuid-73a70ef8-b94c-437a-90ea-4782a9a72ed7" x="349.54099" y="13.411999" width="96.494003" height="35.914001" id="rect4"></rect>
  <rect class="uuid-73a70ef8-b94c-437a-90ea-4782a9a72ed7" x="349.54099" y="60.500999" width="96.494003" height="35.914001" id="rect5"></rect>
  <rect class="uuid-1180e904-a7df-4983-9203-b77b4723b47d" x="8.2850669e-09" y="-6.970896e-07" width="116.277" height="282.91199" id="rect6"></rect>
  <g id="g13" transform="translate(-9.7690001,-11.748001)">
    <path class="uuid-e15b26b3-951f-42d8-a6aa-49dd73b3fd87" d="m 168.568,38.891 h 3.128 c 1.419,0 2.339,0.89 2.339,2.179 0,1.259 -0.919,2.149 -2.339,2.149 h -1.929 v 2.668 h -1.2 v -6.996 z m 2.939,3.348 c 0.85,0 1.319,-0.47 1.319,-1.179 0,-0.69 -0.47,-1.16 -1.309,-1.16 h -1.749 v 2.339 z" id="path6"></path>
    <path class="uuid-e15b26b3-951f-42d8-a6aa-49dd73b3fd87" d="m 175.188,40.879 h 1.129 v 1.08 c 0.28,-0.76 0.759,-1.169 1.379,-1.169 0.19,0.01 0.32,0.03 0.49,0.1 v 0.989 c -0.18,-0.07 -0.41,-0.12 -0.62,-0.12 -0.549,0 -0.999,0.31 -1.249,0.83 v 3.298 h -1.129 V 40.88 Z" id="path7"></path>
    <path class="uuid-e15b26b3-951f-42d8-a6aa-49dd73b3fd87" d="m 178.659,43.388 c 0,-1.479 1.08,-2.589 2.519,-2.589 1.429,0 2.509,1.109 2.509,2.589 0,1.48 -1.08,2.588 -2.509,2.588 -1.439,0 -2.519,-1.109 -2.519,-2.588 z m 3.918,0 c 0,-0.93 -0.59,-1.629 -1.399,-1.629 -0.819,0 -1.409,0.7 -1.409,1.629 0,0.939 0.59,1.629 1.409,1.629 0.81,0 1.399,-0.689 1.399,-1.629 z" id="path8"></path>
    <path class="uuid-e15b26b3-951f-42d8-a6aa-49dd73b3fd87" d="m 184.119,40.879 h 1.229 l 1.399,3.638 1.39,-3.638 h 1.179 l -2.059,5.007 h -1.099 z" id="path9"></path>
    <path class="uuid-e15b26b3-951f-42d8-a6aa-49dd73b3fd87" d="m 189.988,39.17 c 0,-0.38 0.31,-0.7 0.7,-0.7 0.38,0 0.7,0.32 0.7,0.7 0,0.38 -0.32,0.689 -0.7,0.689 -0.39,0 -0.7,-0.31 -0.7,-0.689 z m 0.13,1.709 h 1.129 v 5.007 h -1.129 z" id="path10"></path>
    <path class="uuid-e15b26b3-951f-42d8-a6aa-49dd73b3fd87" d="m 192.418,43.388 c 0,-1.429 1.029,-2.549 2.339,-2.549 0.569,0 1.089,0.23 1.459,0.65 V 38.72 l 1.129,-0.2 v 7.366 h -1.119 v -0.66 c -0.36,0.45 -0.919,0.709 -1.549,0.709 -1.27,0 -2.259,-1.129 -2.259,-2.548 z m 3.798,1.05 v -2.109 c -0.29,-0.34 -0.72,-0.54 -1.189,-0.54 -0.859,0 -1.499,0.68 -1.499,1.599 0,0.909 0.64,1.599 1.499,1.599 0.49,0 0.9,-0.19 1.189,-0.55 z" id="path11"></path>
    <path class="uuid-e15b26b3-951f-42d8-a6aa-49dd73b3fd87" d="m 198.518,43.388 c 0,-1.469 1.06,-2.589 2.438,-2.589 1.37,0 2.369,1.09 2.369,2.589 v 0.27 h -3.698 c 0.11,0.81 0.72,1.399 1.499,1.399 0.47,0 0.91,-0.18 1.189,-0.47 l 0.74,0.669 c -0.61,0.51 -1.219,0.73 -1.979,0.73 -1.439,0 -2.559,-1.129 -2.559,-2.599 z m 3.738,-0.43 c -0.12,-0.73 -0.64,-1.239 -1.309,-1.239 -0.68,0 -1.179,0.489 -1.309,1.239 z" id="path12"></path>
    <path class="uuid-e15b26b3-951f-42d8-a6aa-49dd73b3fd87" d="m 204.478,40.879 h 1.129 v 1.08 c 0.28,-0.76 0.759,-1.169 1.379,-1.169 0.19,0.01 0.32,0.03 0.49,0.1 v 0.989 c -0.18,-0.07 -0.41,-0.12 -0.62,-0.12 -0.549,0 -1,0.31 -1.249,0.83 v 3.298 h -1.129 V 40.88 Z" id="path13"></path>
  </g>
  <g id="g17" transform="translate(-9.7690001,-11.748001)">
    <path class="uuid-e15b26b3-951f-42d8-a6aa-49dd73b3fd87" d="m 287.443,38.891 h 3.418 c 1.489,0 2.469,0.969 2.469,2.309 0,1.27 -0.979,2.249 -2.469,2.249 h -1.699 v 2.438 h -1.719 z m 3.108,3.188 c 0.7,0 1.04,-0.379 1.04,-0.889 0,-0.5 -0.34,-0.88 -1.029,-0.88 h -1.399 v 1.769 h 1.389 z" id="path14"></path>
    <path class="uuid-e15b26b3-951f-42d8-a6aa-49dd73b3fd87" d="m 294.393,38.771 1.619,-0.25 v 7.366 h -1.619 z" id="path15"></path>
    <path class="uuid-e15b26b3-951f-42d8-a6aa-49dd73b3fd87" d="m 297.033,44.408 c 0,-0.95 0.74,-1.5 2.009,-1.5 0.369,0 0.739,0.07 1.199,0.24 v -0.42 c 0,-0.5 -0.33,-0.75 -1.02,-0.75 -0.39,0 -0.85,0.11 -1.449,0.36 l -0.56,-1.129 c 0.85,-0.38 1.609,-0.56 2.368,-0.56 1.43,0 2.259,0.71 2.259,1.939 v 3.298 h -1.599 v -0.45 c -0.45,0.38 -0.88,0.53 -1.429,0.53 -1.049,0 -1.779,-0.64 -1.779,-1.559 z m 2.279,0.489 c 0.34,0 0.649,-0.09 0.93,-0.26 v -0.66 c -0.3,-0.07 -0.59,-0.11 -0.89,-0.11 -0.53,0 -0.83,0.18 -0.83,0.51 0,0.33 0.29,0.52 0.79,0.52 z" id="path16"></path>
    <path class="uuid-e15b26b3-951f-42d8-a6aa-49dd73b3fd87" d="m 303.062,40.729 h 1.619 v 0.839 c 0.399,-0.6 0.959,-0.919 1.629,-0.919 1,0 1.709,0.73 1.709,1.759 v 3.478 H 306.4 v -3.008 c 0,-0.58 -0.34,-0.959 -0.859,-0.959 -0.35,0 -0.63,0.14 -0.859,0.43 v 3.538 h -1.619 V 40.73 Z" id="path17"></path>
  </g>
  <g id="g28" transform="translate(-9.7690001,-11.748001)">
    <rect class="uuid-c4cb6c92-67bb-4640-96ae-2a5fc1a62a02" x="188.94901" y="139.338" width="96.494003" height="35.914001" id="rect17"></rect>
    <g id="g27">
      <path class="uuid-e15b26b3-951f-42d8-a6aa-49dd73b3fd87" d="m 205.936,153.068 h 1.619 l 3.108,4.238 -0.03,-4.238 h 1.619 v 6.996 h -1.519 l -3.208,-4.377 0.03,4.377 h -1.619 z" id="path18"></path>
      <path class="uuid-e15b26b3-951f-42d8-a6aa-49dd73b3fd87" d="m 213.436,157.496 c 0,-1.509 1.119,-2.669 2.599,-2.669 1.489,0 2.539,1.129 2.539,2.729 v 0.35 h -3.548 c 0.15,0.58 0.62,0.969 1.209,0.969 0.43,0 0.79,-0.15 1.02,-0.43 l 1.069,0.89 c -0.669,0.589 -1.299,0.83 -2.169,0.83 -1.519,0 -2.718,-1.169 -2.718,-2.668 z m 3.638,-0.51 c -0.14,-0.55 -0.529,-0.9 -1.049,-0.9 -0.51,0 -0.87,0.33 -1,0.9 z" id="path19"></path>
      <path class="uuid-e15b26b3-951f-42d8-a6aa-49dd73b3fd87" d="m 220.115,158.505 v -2.349 h -0.999 v -1.25 h 0.999 v -1.429 l 1.619,-0.33 v 1.759 h 1.379 v 1.25 h -1.379 v 2.029 c 0,0.459 0.18,0.62 0.68,0.62 0.19,0 0.34,-0.02 0.66,-0.11 v 1.309 c -0.3,0.09 -0.779,0.16 -1.109,0.16 -1.219,0 -1.849,-0.56 -1.849,-1.659 z" id="path20"></path>
      <path class="uuid-e15b26b3-951f-42d8-a6aa-49dd73b3fd87" d="m 223.646,154.907 h 1.529 l 0.72,3.079 0.87,-3.079 h 1.329 l 0.859,3.068 0.71,-3.068 h 1.489 l -1.37,5.157 h -1.539 l -0.839,-3.039 -0.82,3.039 h -1.559 z" id="path21"></path>
      <path class="uuid-e15b26b3-951f-42d8-a6aa-49dd73b3fd87" d="m 231.616,157.496 c 0,-1.52 1.159,-2.669 2.688,-2.669 1.529,0 2.688,1.149 2.688,2.669 0,1.52 -1.159,2.668 -2.688,2.668 -1.529,0 -2.688,-1.149 -2.688,-2.668 z m 3.798,0 c 0,-0.77 -0.46,-1.319 -1.109,-1.319 -0.649,0 -1.109,0.549 -1.109,1.319 0,0.77 0.459,1.319 1.109,1.319 0.65,0 1.109,-0.549 1.109,-1.319 z" id="path22"></path>
      <path class="uuid-e15b26b3-951f-42d8-a6aa-49dd73b3fd87" d="m 238.026,154.907 h 1.619 v 1.169 c 0.33,-0.859 0.79,-1.27 1.399,-1.27 0.23,0.01 0.34,0.03 0.54,0.13 v 1.389 c -0.2,-0.1 -0.479,-0.16 -0.759,-0.16 -0.48,0 -0.919,0.25 -1.18,0.64 v 3.258 h -1.619 v -5.157 z" id="path23"></path>
      <path class="uuid-e15b26b3-951f-42d8-a6aa-49dd73b3fd87" d="m 242.446,152.918 1.619,-0.25 v 4.288 l 1.799,-2.049 h 1.789 l -2.099,2.309 2.249,2.849 h -2.019 l -1.719,-2.279 v 2.279 h -1.619 v -7.146 z" id="path24"></path>
      <path class="uuid-e15b26b3-951f-42d8-a6aa-49dd73b3fd87" d="m 248.635,153.068 h 2.159 l 1.689,3.358 1.679,-3.358 h 2.159 v 6.996 h -1.619 v -4.748 l -2.239,4.248 -2.249,-4.288 v 4.788 h -1.579 z" id="path25"></path>
      <path class="uuid-e15b26b3-951f-42d8-a6aa-49dd73b3fd87" d="m 257.396,158.585 c 0,-0.95 0.74,-1.5 2.009,-1.5 0.37,0 0.74,0.07 1.2,0.24 v -0.42 c 0,-0.5 -0.33,-0.75 -1.02,-0.75 -0.39,0 -0.85,0.11 -1.449,0.36 l -0.56,-1.129 c 0.85,-0.38 1.609,-0.56 2.369,-0.56 1.429,0 2.259,0.71 2.259,1.939 v 3.298 h -1.599 v -0.45 c -0.45,0.38 -0.879,0.53 -1.429,0.53 -1.05,0 -1.779,-0.64 -1.779,-1.559 z m 2.278,0.49 c 0.34,0 0.65,-0.09 0.93,-0.26 v -0.66 c -0.3,-0.07 -0.59,-0.11 -0.89,-0.11 -0.53,0 -0.83,0.18 -0.83,0.51 0,0.33 0.29,0.52 0.79,0.52 z" id="path26"></path>
      <path class="uuid-e15b26b3-951f-42d8-a6aa-49dd73b3fd87" d="m 263.425,154.907 h 1.599 v 0.72 c 0.339,-0.46 0.909,-0.75 1.529,-0.75 1.27,0 2.279,1.169 2.279,2.619 0,1.45 -1.06,2.598 -2.398,2.598 -0.56,0 -1.05,-0.209 -1.39,-0.6 v 2.659 h -1.619 z m 3.818,2.579 c 0,-0.729 -0.53,-1.269 -1.229,-1.269 -0.4,0 -0.709,0.14 -0.97,0.419 v 1.719 c 0.25,0.26 0.59,0.41 0.97,0.41 0.709,0 1.229,-0.54 1.229,-1.279 z" id="path27"></path>
    </g>
  </g>
  <g id="g35" transform="translate(-9.7690001,-11.748001)">
    <path class="uuid-e15b26b3-951f-42d8-a6aa-49dd73b3fd87" d="m 388.406,38.891 h 3.128 c 1.42,0 2.339,0.89 2.339,2.179 0,1.259 -0.919,2.149 -2.339,2.149 h -1.929 v 2.668 h -1.199 z m 2.939,3.348 c 0.85,0 1.319,-0.47 1.319,-1.179 0,-0.69 -0.47,-1.16 -1.31,-1.16 h -1.749 v 2.339 h 1.739 z" id="path28"></path>
    <path class="uuid-e15b26b3-951f-42d8-a6aa-49dd73b3fd87" d="m 395.026,40.879 h 1.129 v 1.08 c 0.28,-0.76 0.76,-1.169 1.379,-1.169 0.19,0.01 0.32,0.03 0.49,0.1 v 0.989 c -0.18,-0.07 -0.41,-0.12 -0.62,-0.12 -0.549,0 -0.999,0.31 -1.249,0.83 v 3.298 h -1.129 V 40.88 Z" id="path29"></path>
    <path class="uuid-e15b26b3-951f-42d8-a6aa-49dd73b3fd87" d="m 398.496,43.388 c 0,-1.479 1.08,-2.589 2.519,-2.589 1.43,0 2.509,1.109 2.509,2.589 0,1.48 -1.079,2.588 -2.509,2.588 -1.438,0 -2.519,-1.109 -2.519,-2.588 z m 3.918,0 c 0,-0.93 -0.59,-1.629 -1.399,-1.629 -0.819,0 -1.409,0.7 -1.409,1.629 0,0.939 0.59,1.629 1.409,1.629 0.81,0 1.399,-0.689 1.399,-1.629 z" id="path30"></path>
    <path class="uuid-e15b26b3-951f-42d8-a6aa-49dd73b3fd87" d="m 403.956,40.879 h 1.229 l 1.399,3.638 1.39,-3.638 h 1.179 l -2.059,5.007 h -1.1 l -2.039,-5.007 z" id="path31"></path>
    <path class="uuid-e15b26b3-951f-42d8-a6aa-49dd73b3fd87" d="m 409.826,39.17 c 0,-0.38 0.31,-0.7 0.699,-0.7 0.38,0 0.7,0.32 0.7,0.7 0,0.38 -0.32,0.689 -0.7,0.689 -0.39,0 -0.699,-0.31 -0.699,-0.689 z m 0.13,1.709 h 1.129 v 5.007 h -1.129 z" id="path32"></path>
    <path class="uuid-e15b26b3-951f-42d8-a6aa-49dd73b3fd87" d="m 412.256,43.388 c 0,-1.429 1.029,-2.549 2.339,-2.549 0.569,0 1.09,0.23 1.459,0.65 V 38.72 l 1.13,-0.2 v 7.366 h -1.119 v -0.66 c -0.36,0.45 -0.92,0.709 -1.55,0.709 -1.27,0 -2.259,-1.129 -2.259,-2.548 z m 3.798,1.05 v -2.109 c -0.289,-0.34 -0.72,-0.54 -1.189,-0.54 -0.859,0 -1.499,0.68 -1.499,1.599 0,0.909 0.64,1.599 1.499,1.599 0.49,0 0.9,-0.19 1.189,-0.55 z" id="path33"></path>
    <path class="uuid-e15b26b3-951f-42d8-a6aa-49dd73b3fd87" d="m 418.355,43.388 c 0,-1.469 1.06,-2.589 2.438,-2.589 1.37,0 2.369,1.09 2.369,2.589 v 0.27 h -3.698 c 0.11,0.81 0.72,1.399 1.499,1.399 0.47,0 0.91,-0.18 1.189,-0.47 l 0.74,0.669 c -0.61,0.51 -1.22,0.73 -1.979,0.73 -1.438,0 -2.559,-1.129 -2.559,-2.599 z m 3.739,-0.43 c -0.12,-0.73 -0.64,-1.239 -1.31,-1.239 -0.68,0 -1.179,0.489 -1.309,1.239 h 2.618 z" id="path34"></path>
    <path class="uuid-e15b26b3-951f-42d8-a6aa-49dd73b3fd87" d="m 424.315,40.879 h 1.13 v 1.08 c 0.279,-0.76 0.759,-1.169 1.379,-1.169 0.189,0.01 0.319,0.03 0.489,0.1 v 0.989 c -0.18,-0.07 -0.409,-0.12 -0.619,-0.12 -0.55,0 -1,0.31 -1.249,0.83 v 3.298 h -1.13 V 40.88 Z" id="path35"></path>
  </g>
  <g id="g45" transform="translate(-9.7690001,-11.748001)">
    <path class="uuid-e15b26b3-951f-42d8-a6aa-49dd73b3fd87" d="m 267.358,248.293 0.879,-1.269 c 0.97,0.68 1.579,0.93 2.269,0.93 0.739,0 1.189,-0.3 1.189,-0.74 0,-0.41 -0.24,-0.61 -0.919,-0.729 l -1.489,-0.26 c -1.109,-0.189 -1.719,-0.889 -1.719,-1.879 0,-1.359 1.039,-2.208 2.778,-2.208 1.08,0 2.149,0.35 2.869,0.919 l -0.87,1.249 c -0.68,-0.52 -1.349,-0.77 -2.089,-0.77 -0.68,0 -1.069,0.28 -1.069,0.66 0,0.36 0.229,0.54 0.79,0.64 l 1.399,0.24 c 1.31,0.22 1.999,0.909 1.999,1.979 0,1.37 -1.159,2.299 -2.988,2.299 -1.109,0 -2.099,-0.37 -3.028,-1.06 z" id="path36"></path>
    <path class="uuid-e15b26b3-951f-42d8-a6aa-49dd73b3fd87" d="m 274.877,247.684 v -2.349 h -0.999 v -1.25 h 0.999 v -1.429 l 1.619,-0.33 v 1.759 h 1.379 v 1.25 h -1.379 v 2.029 c 0,0.459 0.18,0.62 0.68,0.62 0.19,0 0.34,-0.02 0.66,-0.11 v 1.309 c -0.3,0.09 -0.779,0.16 -1.109,0.16 -1.219,0 -1.849,-0.56 -1.849,-1.659 z" id="path37"></path>
    <path class="uuid-e15b26b3-951f-42d8-a6aa-49dd73b3fd87" d="m 278.498,246.675 c 0,-1.52 1.159,-2.669 2.688,-2.669 1.529,0 2.688,1.149 2.688,2.669 0,1.52 -1.159,2.668 -2.688,2.668 -1.529,0 -2.688,-1.149 -2.688,-2.668 z m 3.798,0 c 0,-0.77 -0.46,-1.319 -1.109,-1.319 -0.649,0 -1.109,0.549 -1.109,1.319 0,0.77 0.459,1.319 1.109,1.319 0.65,0 1.109,-0.549 1.109,-1.319 z" id="path38"></path>
    <path class="uuid-e15b26b3-951f-42d8-a6aa-49dd73b3fd87" d="m 284.908,244.086 h 1.619 v 1.169 c 0.33,-0.859 0.79,-1.27 1.399,-1.27 0.23,0.01 0.34,0.03 0.54,0.13 v 1.389 c -0.2,-0.1 -0.479,-0.16 -0.759,-0.16 -0.48,0 -0.919,0.25 -1.18,0.64 v 3.258 h -1.619 v -5.157 z" id="path39"></path>
    <path class="uuid-e15b26b3-951f-42d8-a6aa-49dd73b3fd87" d="m 288.987,247.764 c 0,-0.95 0.74,-1.5 2.009,-1.5 0.37,0 0.739,0.07 1.199,0.24 v -0.42 c 0,-0.5 -0.33,-0.75 -1.02,-0.75 -0.39,0 -0.85,0.11 -1.449,0.36 l -0.56,-1.129 c 0.85,-0.38 1.609,-0.56 2.369,-0.56 1.429,0 2.259,0.71 2.259,1.939 v 3.298 h -1.599 v -0.45 c -0.45,0.38 -0.88,0.53 -1.429,0.53 -1.049,0 -1.779,-0.64 -1.779,-1.559 z m 2.279,0.49 c 0.34,0 0.65,-0.09 0.93,-0.26 v -0.66 c -0.3,-0.07 -0.59,-0.11 -0.89,-0.11 -0.53,0 -0.83,0.18 -0.83,0.51 0,0.33 0.29,0.52 0.79,0.52 z" id="path40"></path>
    <path class="uuid-e15b26b3-951f-42d8-a6aa-49dd73b3fd87" d="m 295.317,250.972 0.5,-1.169 c 0.57,0.27 1.08,0.4 1.579,0.4 0.77,0 1.169,-0.32 1.169,-0.95 v -0.699 c -0.34,0.419 -0.899,0.68 -1.499,0.68 -1.27,0 -2.279,-1.16 -2.279,-2.599 0,-1.439 1.059,-2.579 2.398,-2.579 0.55,0 1.049,0.229 1.399,0.649 v -0.62 h 1.589 v 5.187 c 0,1.39 -0.96,2.159 -2.719,2.159 -0.78,0 -1.519,-0.16 -2.139,-0.46 z m 3.248,-3.468 v -1.719 c -0.25,-0.26 -0.59,-0.4 -0.959,-0.4 -0.709,0 -1.229,0.53 -1.229,1.259 0,0.729 0.53,1.27 1.229,1.27 0.39,0 0.709,-0.14 0.959,-0.41 z" id="path41"></path>
    <path class="uuid-e15b26b3-951f-42d8-a6aa-49dd73b3fd87" d="m 301.208,246.675 c 0,-1.509 1.119,-2.669 2.599,-2.669 1.488,0 2.538,1.129 2.538,2.729 v 0.35 h -3.548 c 0.149,0.58 0.619,0.969 1.209,0.969 0.43,0 0.79,-0.15 1.02,-0.43 l 1.069,0.89 c -0.669,0.589 -1.299,0.83 -2.169,0.83 -1.519,0 -2.718,-1.169 -2.718,-2.668 z m 3.638,-0.51 c -0.14,-0.55 -0.529,-0.9 -1.05,-0.9 -0.51,0 -0.869,0.33 -0.999,0.9 z" id="path42"></path>
    <path class="uuid-e15b26b3-951f-42d8-a6aa-49dd73b3fd87" d="m 307.508,242.247 h 2.158 l 1.689,3.358 1.679,-3.358 h 2.159 v 6.996 h -1.619 v -4.748 l -2.239,4.248 -2.248,-4.288 v 4.788 h -1.579 z" id="path43"></path>
    <path class="uuid-e15b26b3-951f-42d8-a6aa-49dd73b3fd87" d="m 316.268,247.764 c 0,-0.95 0.739,-1.5 2.009,-1.5 0.37,0 0.739,0.07 1.199,0.24 v -0.42 c 0,-0.5 -0.33,-0.75 -1.02,-0.75 -0.39,0 -0.85,0.11 -1.449,0.36 l -0.56,-1.129 c 0.85,-0.38 1.609,-0.56 2.369,-0.56 1.429,0 2.259,0.71 2.259,1.939 v 3.298 h -1.6 v -0.45 c -0.449,0.38 -0.879,0.53 -1.429,0.53 -1.05,0 -1.779,-0.64 -1.779,-1.559 z m 2.278,0.49 c 0.34,0 0.65,-0.09 0.93,-0.26 v -0.66 c -0.3,-0.07 -0.59,-0.11 -0.89,-0.11 -0.529,0 -0.829,0.18 -0.829,0.51 0,0.33 0.29,0.52 0.789,0.52 z" id="path44"></path>
    <path class="uuid-e15b26b3-951f-42d8-a6aa-49dd73b3fd87" d="m 322.298,244.086 h 1.599 v 0.72 c 0.34,-0.46 0.909,-0.75 1.529,-0.75 1.27,0 2.278,1.169 2.278,2.619 0,1.45 -1.06,2.598 -2.398,2.598 -0.56,0 -1.05,-0.209 -1.39,-0.6 v 2.659 h -1.618 z m 3.817,2.579 c 0,-0.729 -0.529,-1.269 -1.229,-1.269 -0.399,0 -0.709,0.14 -0.97,0.419 v 1.719 c 0.25,0.26 0.59,0.41 0.97,0.41 0.71,0 1.229,-0.54 1.229,-1.279 z" id="path45"></path>
  </g>
  <rect class="uuid-1180e904-a7df-4983-9203-b77b4723b47d" x="459.45999" y="-6.970896e-07" width="116.277" height="282.91199" id="rect45"></rect>
  <g id="g54" transform="translate(-9.7690001,-11.748001)">
    <path class="uuid-e15b26b3-951f-42d8-a6aa-49dd73b3fd87" d="m 385.856,85.98 h 1.559 l 2.05,4.248 2.038,-4.248 h 1.56 v 6.996 h -1.13 v -5.477 l -2.479,4.978 -2.488,-5.007 v 5.507 h -1.109 v -6.996 z" id="path46"></path>
    <path class="uuid-e15b26b3-951f-42d8-a6aa-49dd73b3fd87" d="m 394.467,86.26 c 0,-0.38 0.31,-0.7 0.699,-0.7 0.38,0 0.7,0.32 0.7,0.7 0,0.38 -0.32,0.689 -0.7,0.689 -0.39,0 -0.699,-0.31 -0.699,-0.689 z m 0.13,1.709 h 1.129 v 5.007 h -1.129 z" id="path47"></path>
    <path class="uuid-e15b26b3-951f-42d8-a6aa-49dd73b3fd87" d="m 397.456,94.675 0.391,-0.83 c 0.589,0.29 1.069,0.419 1.568,0.419 0.84,0 1.279,-0.379 1.279,-1.109 v -0.849 c -0.359,0.439 -0.909,0.699 -1.539,0.699 -1.27,0 -2.259,-1.129 -2.259,-2.548 0,-1.419 1.029,-2.529 2.339,-2.529 0.58,0 1.1,0.23 1.47,0.67 v -0.63 h 1.119 v 5.187 c 0,1.29 -0.84,2.009 -2.359,2.009 -0.719,0 -1.419,-0.18 -2.009,-0.49 z m 3.238,-3.158 v -2.099 c -0.289,-0.34 -0.72,-0.54 -1.189,-0.54 -0.859,0 -1.499,0.669 -1.499,1.589 0,0.91 0.64,1.599 1.499,1.599 0.49,0 0.9,-0.2 1.189,-0.549 z" id="path48"></path>
    <path class="uuid-e15b26b3-951f-42d8-a6aa-49dd73b3fd87" d="m 403.217,87.969 h 1.129 v 1.08 c 0.28,-0.76 0.76,-1.169 1.379,-1.169 0.19,0.01 0.32,0.03 0.49,0.1 v 0.989 c -0.18,-0.07 -0.41,-0.12 -0.62,-0.12 -0.549,0 -0.999,0.31 -1.249,0.83 v 3.298 h -1.129 V 87.97 Z" id="path49"></path>
    <path class="uuid-e15b26b3-951f-42d8-a6aa-49dd73b3fd87" d="m 406.736,91.537 c 0,-0.9 0.739,-1.469 1.919,-1.469 0.47,0 0.909,0.1 1.35,0.32 v -0.56 c 0,-0.66 -0.38,-1 -1.149,-1 -0.42,0 -0.88,0.12 -1.459,0.39 l -0.4,-0.82 c 0.75,-0.34 1.409,-0.51 2.079,-0.51 1.31,0 2.049,0.66 2.049,1.819 v 3.268 h -1.119 v -0.52 c -0.43,0.419 -0.91,0.609 -1.489,0.609 -1.05,0 -1.779,-0.629 -1.779,-1.529 z m 2.089,0.73 c 0.45,0 0.84,-0.13 1.18,-0.42 v -0.81 c -0.36,-0.17 -0.72,-0.24 -1.149,-0.24 -0.649,0 -1.06,0.27 -1.06,0.72 0,0.459 0.399,0.75 1.029,0.75 z" id="path50"></path>
    <path class="uuid-e15b26b3-951f-42d8-a6aa-49dd73b3fd87" d="m 412.966,91.677 v -2.809 h -0.999 v -0.899 h 0.999 V 86.59 l 1.13,-0.24 v 1.619 h 1.389 v 0.899 h -1.389 v 2.559 c 0,0.49 0.189,0.68 0.699,0.68 0.22,0 0.38,-0.03 0.68,-0.12 v 0.949 c -0.29,0.09 -0.67,0.14 -0.97,0.14 -1.009,0 -1.539,-0.48 -1.539,-1.399 z" id="path51"></path>
    <path class="uuid-e15b26b3-951f-42d8-a6aa-49dd73b3fd87" d="m 416.346,86.26 c 0,-0.38 0.311,-0.7 0.7,-0.7 0.38,0 0.699,0.32 0.699,0.7 0,0.38 -0.319,0.689 -0.699,0.689 -0.39,0 -0.7,-0.31 -0.7,-0.689 z m 0.13,1.709 h 1.13 v 5.007 h -1.13 z" id="path52"></path>
    <path class="uuid-e15b26b3-951f-42d8-a6aa-49dd73b3fd87" d="m 418.776,90.478 c 0,-1.479 1.079,-2.589 2.519,-2.589 1.429,0 2.509,1.109 2.509,2.589 0,1.48 -1.08,2.588 -2.509,2.588 -1.439,0 -2.519,-1.109 -2.519,-2.588 z m 3.918,0 c 0,-0.93 -0.59,-1.629 -1.399,-1.629 -0.819,0 -1.409,0.7 -1.409,1.629 0,0.939 0.59,1.629 1.409,1.629 0.81,0 1.399,-0.689 1.399,-1.629 z" id="path53"></path>
    <path class="uuid-e15b26b3-951f-42d8-a6aa-49dd73b3fd87" d="m 424.976,87.969 h 1.13 v 0.82 c 0.38,-0.59 0.929,-0.9 1.579,-0.9 1.029,0 1.749,0.73 1.749,1.789 v 3.298 h -1.14 v -2.979 c 0,-0.729 -0.43,-1.199 -1.1,-1.199 -0.46,0 -0.829,0.21 -1.089,0.61 v 3.568 h -1.13 v -5.007 z" id="path54"></path>
  </g>
  <g id="g77" transform="translate(-9.7690001,-11.748001)">
    <path class="uuid-e15b26b3-951f-42d8-a6aa-49dd73b3fd87" d="m 478.151,24.885 c 0,-2.019 1.59,-3.608 3.618,-3.608 2.028,0 3.618,1.589 3.618,3.608 0,2.019 -1.589,3.608 -3.618,3.608 -2.029,0 -3.618,-1.589 -3.618,-3.608 z m 5.467,0 c 0,-1.189 -0.799,-2.079 -1.849,-2.079 -1.05,0 -1.849,0.89 -1.849,2.079 0,1.189 0.8,2.079 1.849,2.079 1.049,0 1.849,-0.889 1.849,-2.079 z" id="path55"></path>
    <path class="uuid-e15b26b3-951f-42d8-a6aa-49dd73b3fd87" d="m 486.472,23.226 h 1.6 v 0.72 c 0.339,-0.46 0.909,-0.75 1.528,-0.75 1.27,0 2.279,1.169 2.279,2.619 0,1.45 -1.06,2.598 -2.398,2.598 -0.561,0 -1.05,-0.209 -1.39,-0.6 v 2.659 h -1.619 z m 3.818,2.579 c 0,-0.729 -0.53,-1.269 -1.229,-1.269 -0.4,0 -0.71,0.14 -0.97,0.419 v 1.719 c 0.25,0.26 0.59,0.41 0.97,0.41 0.709,0 1.229,-0.54 1.229,-1.279 z" id="path56"></path>
    <path class="uuid-e15b26b3-951f-42d8-a6aa-49dd73b3fd87" d="m 492.682,25.815 c 0,-1.509 1.119,-2.669 2.599,-2.669 1.489,0 2.539,1.129 2.539,2.729 v 0.35 h -3.549 c 0.15,0.58 0.62,0.969 1.21,0.969 0.43,0 0.789,-0.15 1.02,-0.43 l 1.069,0.89 c -0.67,0.589 -1.3,0.83 -2.169,0.83 -1.52,0 -2.719,-1.169 -2.719,-2.668 z m 3.637,-0.51 c -0.14,-0.55 -0.529,-0.9 -1.049,-0.9 -0.51,0 -0.87,0.33 -1,0.9 z" id="path57"></path>
    <path class="uuid-e15b26b3-951f-42d8-a6aa-49dd73b3fd87" d="m 498.832,23.226 h 1.618 v 0.839 c 0.4,-0.6 0.96,-0.919 1.63,-0.919 0.999,0 1.709,0.73 1.709,1.759 v 3.478 h -1.619 v -3.008 c 0,-0.58 -0.34,-0.959 -0.859,-0.959 -0.351,0 -0.63,0.14 -0.86,0.43 v 3.538 h -1.618 v -5.157 z" id="path58"></path>
    <path class="uuid-e15b26b3-951f-42d8-a6aa-49dd73b3fd87" d="m 504.571,27.434 0.88,-1.269 c 0.97,0.68 1.579,0.93 2.269,0.93 0.739,0 1.189,-0.3 1.189,-0.74 0,-0.41 -0.24,-0.61 -0.92,-0.729 l -1.489,-0.26 c -1.109,-0.189 -1.719,-0.889 -1.719,-1.879 0,-1.359 1.039,-2.208 2.778,-2.208 1.08,0 2.149,0.35 2.869,0.919 l -0.87,1.249 c -0.68,-0.52 -1.349,-0.77 -2.089,-0.77 -0.68,0 -1.069,0.28 -1.069,0.66 0,0.36 0.229,0.54 0.79,0.64 l 1.398,0.24 c 1.31,0.22 1.999,0.909 1.999,1.979 0,1.37 -1.159,2.299 -2.988,2.299 -1.109,0 -2.099,-0.37 -3.028,-1.06 z" id="path59"></path>
    <path class="uuid-e15b26b3-951f-42d8-a6aa-49dd73b3fd87" d="m 511.562,21.267 1.619,-0.25 v 3.048 c 0.399,-0.6 0.959,-0.919 1.629,-0.919 1,0 1.709,0.73 1.709,1.759 v 3.478 H 514.9 v -3.008 c 0,-0.58 -0.34,-0.959 -0.859,-0.959 -0.35,0 -0.63,0.14 -0.859,0.43 v 3.538 h -1.619 v -7.116 z" id="path60"></path>
    <path class="uuid-e15b26b3-951f-42d8-a6aa-49dd73b3fd87" d="m 517.642,21.527 c 0,-0.5 0.409,-0.909 0.909,-0.909 0.5,0 0.909,0.41 0.909,0.909 0,0.499 -0.409,0.91 -0.909,0.91 -0.5,0 -0.909,-0.41 -0.909,-0.91 z m 0.099,1.699 h 1.619 v 5.157 h -1.619 z" id="path61"></path>
    <path class="uuid-e15b26b3-951f-42d8-a6aa-49dd73b3fd87" d="m 521.381,24.476 h -1.069 v -1.25 h 1.069 v -0.68 c 0,-1.229 0.729,-1.899 2.059,-1.899 0.28,0 0.649,0.04 0.859,0.1 v 1.329 c -0.29,-0.05 -0.439,-0.06 -0.619,-0.06 -0.46,0 -0.68,0.18 -0.68,0.56 v 0.649 h 1.299 v 1.25 H 523 v 3.908 h -1.619 v -3.908 z" id="path62"></path>
    <path class="uuid-e15b26b3-951f-42d8-a6aa-49dd73b3fd87" d="m 525.9,26.824 v -2.349 h -0.999 v -1.25 h 0.999 v -1.429 l 1.619,-0.33 v 1.759 h 1.38 v 1.25 h -1.38 v 2.029 c 0,0.459 0.181,0.62 0.68,0.62 0.19,0 0.34,-0.02 0.66,-0.11 v 1.309 c -0.3,0.09 -0.779,0.16 -1.109,0.16 -1.22,0 -1.85,-0.56 -1.85,-1.659 z" id="path63"></path>
    <path class="uuid-e15b26b3-951f-42d8-a6aa-49dd73b3fd87" d="m 477.722,33.387 h 1.859 l 1.849,5.207 1.879,-5.207 h 1.789 l -2.729,6.996 h -1.959 z" id="path64"></path>
    <path class="uuid-e15b26b3-951f-42d8-a6aa-49dd73b3fd87" d="m 485.651,33.527 c 0,-0.5 0.41,-0.909 0.909,-0.909 0.499,0 0.91,0.41 0.91,0.909 0,0.499 -0.41,0.91 -0.91,0.91 -0.5,0 -0.909,-0.41 -0.909,-0.91 z m 0.101,1.699 h 1.618 v 5.157 h -1.618 z" id="path65"></path>
    <path class="uuid-e15b26b3-951f-42d8-a6aa-49dd73b3fd87" d="m 488.632,35.226 h 1.618 v 1.169 c 0.33,-0.859 0.79,-1.27 1.399,-1.27 0.23,0.01 0.34,0.03 0.54,0.13 v 1.389 c -0.2,-0.1 -0.479,-0.16 -0.76,-0.16 -0.479,0 -0.919,0.25 -1.18,0.64 v 3.258 h -1.618 v -5.157 z" id="path66"></path>
    <path class="uuid-e15b26b3-951f-42d8-a6aa-49dd73b3fd87" d="m 493.73,38.824 v -2.349 h -0.999 v -1.25 h 0.999 v -1.429 l 1.619,-0.33 v 1.759 h 1.38 v 1.25 h -1.38 v 2.029 c 0,0.459 0.181,0.62 0.68,0.62 0.19,0 0.34,-0.02 0.66,-0.11 v 1.309 c -0.3,0.09 -0.779,0.16 -1.109,0.16 -1.22,0 -1.85,-0.56 -1.85,-1.659 z" id="path67"></path>
    <path class="uuid-e15b26b3-951f-42d8-a6aa-49dd73b3fd87" d="m 497.592,38.704 v -3.478 h 1.619 v 3.008 c 0,0.58 0.34,0.959 0.859,0.959 0.35,0 0.629,-0.14 0.859,-0.43 v -3.538 h 1.619 v 5.157 h -1.619 v -0.839 c -0.4,0.6 -0.96,0.919 -1.629,0.919 -1,0 -1.709,-0.729 -1.709,-1.759 z" id="path68"></path>
    <path class="uuid-e15b26b3-951f-42d8-a6aa-49dd73b3fd87" d="m 503.571,38.904 c 0,-0.95 0.739,-1.5 2.009,-1.5 0.37,0 0.739,0.07 1.199,0.24 v -0.42 c 0,-0.5 -0.33,-0.75 -1.02,-0.75 -0.39,0 -0.85,0.11 -1.449,0.36 l -0.56,-1.129 c 0.85,-0.38 1.609,-0.56 2.369,-0.56 1.429,0 2.259,0.71 2.259,1.939 v 3.298 h -1.6 v -0.45 c -0.449,0.38 -0.88,0.53 -1.429,0.53 -1.05,0 -1.779,-0.64 -1.779,-1.559 z m 2.279,0.49 c 0.34,0 0.65,-0.09 0.93,-0.26 v -0.66 c -0.3,-0.07 -0.59,-0.11 -0.89,-0.11 -0.529,0 -0.829,0.18 -0.829,0.51 0,0.33 0.29,0.52 0.789,0.52 z" id="path69"></path>
    <path class="uuid-e15b26b3-951f-42d8-a6aa-49dd73b3fd87" d="m 509.602,33.267 1.618,-0.25 v 7.366 h -1.618 z" id="path70"></path>
    <path class="uuid-e15b26b3-951f-42d8-a6aa-49dd73b3fd87" d="m 512.381,33.527 c 0,-0.5 0.41,-0.909 0.909,-0.909 0.499,0 0.91,0.41 0.91,0.909 0,0.499 -0.41,0.91 -0.91,0.91 -0.5,0 -0.909,-0.41 -0.909,-0.91 z m 0.1,1.699 h 1.618 v 5.157 h -1.618 z" id="path71"></path>
    <path class="uuid-e15b26b3-951f-42d8-a6aa-49dd73b3fd87" d="m 515.091,39.254 2.309,-2.688 -2.288,0.02 v -1.359 h 4.277 v 1.129 l -2.318,2.699 2.398,-0.02 v 1.349 h -4.378 v -1.129 z" id="path72"></path>
    <path class="uuid-e15b26b3-951f-42d8-a6aa-49dd73b3fd87" d="m 520.221,38.904 c 0,-0.95 0.74,-1.5 2.009,-1.5 0.37,0 0.74,0.07 1.2,0.24 v -0.42 c 0,-0.5 -0.33,-0.75 -1.02,-0.75 -0.39,0 -0.85,0.11 -1.449,0.36 l -0.56,-1.129 c 0.85,-0.38 1.608,-0.56 2.368,-0.56 1.43,0 2.259,0.71 2.259,1.939 v 3.298 h -1.599 v -0.45 c -0.45,0.38 -0.88,0.53 -1.43,0.53 -1.05,0 -1.779,-0.64 -1.779,-1.559 z m 2.279,0.49 c 0.34,0 0.649,-0.09 0.93,-0.26 v -0.66 c -0.3,-0.07 -0.59,-0.11 -0.89,-0.11 -0.53,0 -0.83,0.18 -0.83,0.51 0,0.33 0.29,0.52 0.79,0.52 z" id="path73"></path>
    <path class="uuid-e15b26b3-951f-42d8-a6aa-49dd73b3fd87" d="m 526.78,38.824 v -2.349 h -0.999 v -1.25 h 0.999 v -1.429 l 1.619,-0.33 v 1.759 h 1.38 v 1.25 h -1.38 v 2.029 c 0,0.459 0.181,0.62 0.68,0.62 0.19,0 0.34,-0.02 0.66,-0.11 v 1.309 c -0.3,0.09 -0.779,0.16 -1.109,0.16 -1.22,0 -1.85,-0.56 -1.85,-1.659 z" id="path74"></path>
    <path class="uuid-e15b26b3-951f-42d8-a6aa-49dd73b3fd87" d="m 530.581,33.527 c 0,-0.5 0.409,-0.909 0.909,-0.909 0.5,0 0.909,0.41 0.909,0.909 0,0.499 -0.409,0.91 -0.909,0.91 -0.5,0 -0.909,-0.41 -0.909,-0.91 z m 0.1,1.699 h 1.619 v 5.157 h -1.619 z" id="path75"></path>
    <path class="uuid-e15b26b3-951f-42d8-a6aa-49dd73b3fd87" d="m 533.331,37.815 c 0,-1.52 1.159,-2.669 2.688,-2.669 1.529,0 2.688,1.149 2.688,2.669 0,1.52 -1.159,2.668 -2.688,2.668 -1.529,0 -2.688,-1.149 -2.688,-2.668 z m 3.798,0 c 0,-0.77 -0.46,-1.319 -1.109,-1.319 -0.649,0 -1.109,0.549 -1.109,1.319 0,0.77 0.459,1.319 1.109,1.319 0.65,0 1.109,-0.549 1.109,-1.319 z" id="path76"></path>
    <path class="uuid-e15b26b3-951f-42d8-a6aa-49dd73b3fd87" d="m 539.741,35.226 h 1.618 v 0.839 c 0.4,-0.6 0.96,-0.919 1.63,-0.919 0.999,0 1.709,0.73 1.709,1.759 v 3.478 h -1.619 v -3.008 c 0,-0.58 -0.34,-0.959 -0.859,-0.959 -0.351,0 -0.63,0.14 -0.86,0.43 v 3.538 h -1.618 v -5.157 z" id="path77"></path>
  </g>
  <g id="g97" transform="translate(-9.7690001,-11.748001)">
    <path class="uuid-e15b26b3-951f-42d8-a6aa-49dd73b3fd87" d="m 18.692,24.885 c 0,-2.039 1.609,-3.608 3.688,-3.608 1.12,0 2.229,0.53 2.838,1.359 l -1.159,1.1 c -0.46,-0.62 -1.02,-0.93 -1.679,-0.93 -1.089,0 -1.909,0.89 -1.909,2.079 0,1.189 0.819,2.079 1.909,2.079 0.66,0 1.219,-0.31 1.679,-0.929 l 1.159,1.099 c -0.609,0.83 -1.719,1.359 -2.838,1.359 -2.079,0 -3.688,-1.569 -3.688,-3.608 z" id="path78"></path>
    <path class="uuid-e15b26b3-951f-42d8-a6aa-49dd73b3fd87" d="m 25.692,25.815 c 0,-1.52 1.159,-2.669 2.688,-2.669 1.529,0 2.688,1.149 2.688,2.669 0,1.52 -1.159,2.668 -2.688,2.668 -1.529,0 -2.688,-1.149 -2.688,-2.668 z m 3.798,0 c 0,-0.77 -0.46,-1.319 -1.109,-1.319 -0.649,0 -1.109,0.549 -1.109,1.319 0,0.77 0.459,1.319 1.109,1.319 0.65,0 1.109,-0.549 1.109,-1.319 z" id="path79"></path>
    <path class="uuid-e15b26b3-951f-42d8-a6aa-49dd73b3fd87" d="m 32.102,23.226 h 1.619 v 0.82 c 0.38,-0.59 0.9,-0.9 1.529,-0.9 0.67,0 1.199,0.37 1.449,0.959 0.4,-0.62 0.979,-0.959 1.689,-0.959 0.95,0 1.619,0.75 1.619,1.809 v 3.428 h -1.619 v -3.108 c 0,-0.52 -0.31,-0.859 -0.77,-0.859 -0.3,0 -0.54,0.12 -0.75,0.39 v 3.578 h -1.619 v -3.108 c 0,-0.52 -0.31,-0.859 -0.77,-0.859 -0.3,0 -0.55,0.13 -0.76,0.4 v 3.568 H 32.1 v -5.157 z" id="path80"></path>
    <path class="uuid-e15b26b3-951f-42d8-a6aa-49dd73b3fd87" d="m 41.232,23.226 h 1.599 v 0.72 c 0.339,-0.46 0.909,-0.75 1.529,-0.75 1.27,0 2.279,1.169 2.279,2.619 0,1.45 -1.06,2.598 -2.398,2.598 -0.56,0 -1.05,-0.209 -1.39,-0.6 v 2.659 h -1.619 z m 3.818,2.579 c 0,-0.729 -0.53,-1.269 -1.229,-1.269 -0.4,0 -0.709,0.14 -0.97,0.419 v 1.719 c 0.25,0.26 0.59,0.41 0.97,0.41 0.709,0 1.229,-0.54 1.229,-1.279 z" id="path81"></path>
    <path class="uuid-e15b26b3-951f-42d8-a6aa-49dd73b3fd87" d="m 47.481,26.904 c 0,-0.95 0.74,-1.5 2.009,-1.5 0.37,0 0.739,0.07 1.199,0.24 v -0.42 c 0,-0.5 -0.33,-0.75 -1.02,-0.75 -0.39,0 -0.85,0.11 -1.449,0.36 l -0.56,-1.129 c 0.85,-0.38 1.609,-0.56 2.369,-0.56 1.429,0 2.259,0.71 2.259,1.939 v 3.298 h -1.599 v -0.45 c -0.45,0.38 -0.88,0.53 -1.429,0.53 -1.049,0 -1.779,-0.64 -1.779,-1.559 z m 2.279,0.49 c 0.34,0 0.65,-0.09 0.93,-0.26 v -0.66 c -0.3,-0.07 -0.59,-0.11 -0.89,-0.11 -0.53,0 -0.83,0.18 -0.83,0.51 0,0.33 0.29,0.52 0.79,0.52 z" id="path82"></path>
    <path class="uuid-e15b26b3-951f-42d8-a6aa-49dd73b3fd87" d="m 54.041,26.824 v -2.349 h -0.999 v -1.25 h 0.999 v -1.429 l 1.619,-0.33 v 1.759 h 1.379 v 1.25 H 55.66 v 2.029 c 0,0.459 0.18,0.62 0.68,0.62 0.19,0 0.34,-0.02 0.66,-0.11 v 1.309 c -0.3,0.09 -0.779,0.16 -1.109,0.16 -1.219,0 -1.849,-0.56 -1.849,-1.659 z" id="path83"></path>
    <path class="uuid-e15b26b3-951f-42d8-a6aa-49dd73b3fd87" d="m 57.841,21.527 c 0,-0.5 0.41,-0.909 0.909,-0.909 0.499,0 0.91,0.41 0.91,0.909 0,0.499 -0.41,0.91 -0.91,0.91 -0.5,0 -0.909,-0.41 -0.909,-0.91 z m 0.1,1.699 h 1.619 v 5.157 h -1.619 z" id="path84"></path>
    <path class="uuid-e15b26b3-951f-42d8-a6aa-49dd73b3fd87" d="m 60.822,21.267 1.619,-0.25 v 2.868 c 0.34,-0.42 0.9,-0.689 1.509,-0.689 1.27,0 2.279,1.169 2.279,2.619 0,1.45 -1.06,2.598 -2.398,2.598 -0.56,0 -1.06,-0.24 -1.409,-0.66 v 0.63 h -1.599 v -7.116 z m 3.818,4.538 c 0,-0.729 -0.53,-1.269 -1.229,-1.269 -0.4,0 -0.709,0.14 -0.97,0.419 v 1.719 c 0.25,0.26 0.59,0.41 0.97,0.41 0.709,0 1.229,-0.54 1.229,-1.279 z" id="path85"></path>
    <path class="uuid-e15b26b3-951f-42d8-a6aa-49dd73b3fd87" d="m 67.262,21.267 1.619,-0.25 v 7.366 h -1.619 z" id="path86"></path>
    <path class="uuid-e15b26b3-951f-42d8-a6aa-49dd73b3fd87" d="m 69.912,25.815 c 0,-1.509 1.119,-2.669 2.599,-2.669 1.489,0 2.539,1.129 2.539,2.729 v 0.35 h -3.548 c 0.15,0.58 0.62,0.969 1.209,0.969 0.43,0 0.79,-0.15 1.02,-0.43 l 1.069,0.89 c -0.669,0.589 -1.299,0.83 -2.169,0.83 -1.519,0 -2.718,-1.169 -2.718,-2.668 z m 3.637,-0.51 c -0.14,-0.55 -0.529,-0.9 -1.049,-0.9 -0.51,0 -0.87,0.33 -1,0.9 z" id="path87"></path>
    <path class="uuid-e15b26b3-951f-42d8-a6aa-49dd73b3fd87" d="m 18.872,33.267 1.619,-0.25 v 3.048 c 0.4,-0.6 0.959,-0.919 1.629,-0.919 1,0 1.709,0.73 1.709,1.759 v 3.478 H 22.21 v -3.008 c 0,-0.58 -0.34,-0.959 -0.859,-0.959 -0.35,0 -0.63,0.14 -0.86,0.43 v 3.538 h -1.619 v -7.116 z" id="path88"></path>
    <path class="uuid-e15b26b3-951f-42d8-a6aa-49dd73b3fd87" d="m 24.842,42.492 v -1.359 c 0.12,0.02 0.29,0.04 0.48,0.04 0.439,0 0.68,-0.18 0.839,-0.52 l 0.08,-0.17 -1.899,-5.257 h 1.789 l 1.029,3.328 1.179,-3.328 h 1.749 l -2.318,5.737 c -0.48,1.18 -1.069,1.609 -2.259,1.609 -0.19,0 -0.45,-0.03 -0.67,-0.08 z" id="path89"></path>
    <path class="uuid-e15b26b3-951f-42d8-a6aa-49dd73b3fd87" d="m 30.792,35.226 h 1.599 v 0.72 c 0.339,-0.46 0.909,-0.75 1.529,-0.75 1.27,0 2.279,1.169 2.279,2.619 0,1.45 -1.06,2.598 -2.398,2.598 -0.56,0 -1.05,-0.209 -1.39,-0.6 v 2.659 h -1.619 z m 3.818,2.579 c 0,-0.729 -0.53,-1.269 -1.229,-1.269 -0.4,0 -0.709,0.14 -0.97,0.419 v 1.719 c 0.25,0.26 0.59,0.41 0.97,0.41 0.709,0 1.229,-0.54 1.229,-1.279 z" id="path90"></path>
    <path class="uuid-e15b26b3-951f-42d8-a6aa-49dd73b3fd87" d="m 37.002,37.815 c 0,-1.509 1.119,-2.669 2.599,-2.669 1.489,0 2.539,1.129 2.539,2.729 v 0.35 h -3.548 c 0.15,0.58 0.62,0.969 1.209,0.969 0.43,0 0.79,-0.15 1.02,-0.43 l 1.069,0.89 c -0.669,0.589 -1.299,0.83 -2.169,0.83 -1.519,0 -2.718,-1.169 -2.718,-2.668 z m 3.638,-0.51 c -0.14,-0.55 -0.529,-0.9 -1.049,-0.9 -0.51,0 -0.87,0.33 -1,0.9 z" id="path91"></path>
    <path class="uuid-e15b26b3-951f-42d8-a6aa-49dd73b3fd87" d="m 43.152,35.226 h 1.619 v 1.169 c 0.33,-0.859 0.79,-1.27 1.399,-1.27 0.23,0.01 0.34,0.03 0.54,0.13 v 1.389 c -0.2,-0.1 -0.479,-0.16 -0.759,-0.16 -0.48,0 -0.919,0.25 -1.18,0.64 v 3.258 h -1.619 v -5.157 z" id="path92"></path>
    <path class="uuid-e15b26b3-951f-42d8-a6aa-49dd73b3fd87" d="m 47.162,35.226 h 1.759 l 1.169,3.238 1.179,-3.238 h 1.669 l -2.109,5.157 H 49.25 l -2.089,-5.157 z" id="path93"></path>
    <path class="uuid-e15b26b3-951f-42d8-a6aa-49dd73b3fd87" d="m 53.542,33.527 c 0,-0.5 0.41,-0.909 0.909,-0.909 0.499,0 0.91,0.41 0.91,0.909 0,0.499 -0.41,0.91 -0.91,0.91 -0.5,0 -0.909,-0.41 -0.909,-0.91 z m 0.1,1.699 h 1.619 v 5.157 h -1.619 z" id="path94"></path>
    <path class="uuid-e15b26b3-951f-42d8-a6aa-49dd73b3fd87" d="m 56.102,39.854 0.709,-1.079 c 0.74,0.39 1.16,0.52 1.659,0.52 0.459,0 0.74,-0.16 0.74,-0.42 0,-0.2 -0.15,-0.31 -0.48,-0.37 l -0.989,-0.18 c -1,-0.189 -1.52,-0.699 -1.52,-1.499 0,-1.049 0.81,-1.679 2.159,-1.679 0.719,0 1.429,0.2 2.099,0.59 l -0.74,1.029 c -0.52,-0.3 -0.999,-0.439 -1.479,-0.439 -0.39,0 -0.62,0.13 -0.62,0.35 0,0.21 0.13,0.3 0.53,0.37 l 0.969,0.18 c 1.02,0.19 1.549,0.709 1.549,1.489 0,1.009 -0.95,1.769 -2.219,1.769 -0.939,0 -1.769,-0.22 -2.369,-0.63 z" id="path95"></path>
    <path class="uuid-e15b26b3-951f-42d8-a6aa-49dd73b3fd87" d="m 61.452,37.815 c 0,-1.52 1.159,-2.669 2.688,-2.669 1.529,0 2.688,1.149 2.688,2.669 0,1.52 -1.159,2.668 -2.688,2.668 -1.529,0 -2.688,-1.149 -2.688,-2.668 z m 3.798,0 c 0,-0.77 -0.46,-1.319 -1.109,-1.319 -0.649,0 -1.109,0.549 -1.109,1.319 0,0.77 0.459,1.319 1.109,1.319 0.65,0 1.109,-0.549 1.109,-1.319 z" id="path96"></path>
    <path class="uuid-e15b26b3-951f-42d8-a6aa-49dd73b3fd87" d="m 67.861,35.226 h 1.619 v 1.169 c 0.33,-0.859 0.79,-1.27 1.399,-1.27 0.23,0.01 0.34,0.03 0.54,0.13 v 1.389 c -0.2,-0.1 -0.479,-0.16 -0.759,-0.16 -0.48,0 -0.919,0.25 -1.18,0.64 v 3.258 h -1.619 v -5.157 z" id="path97"></path>
  </g>
  <line class="uuid-ff1fbbd2-899a-4e83-b92a-cf6c3e7f989f" x1="226.19701" y1="31.368999" x2="239.15401" y2="31.368999" id="line97"></line>
  <line class="uuid-ff1fbbd2-899a-4e83-b92a-cf6c3e7f989f" x1="336.116" y1="31.368999" x2="349.54099" y2="31.368999" id="line98"></line>
  <polyline class="uuid-ff1fbbd2-899a-4e83-b92a-cf6c3e7f989f" points="309.817 61.074 309.817 90.206 359.31 90.206" id="polyline98" transform="translate(-9.7690001,-11.748001)"></polyline>
  <polyline class="uuid-ff1fbbd2-899a-4e83-b92a-cf6c3e7f989f" points="285.443 61.074 285.443 90.206 237.196 90.206 237.196 139.13" id="polyline99" transform="translate(-9.7690001,-11.748001)"></polyline>
  <line class="uuid-ff1fbbd2-899a-4e83-b92a-cf6c3e7f989f" x1="446.03497" y1="31.368999" x2="459.45999" y2="31.368999" id="line99"></line>
  <line class="uuid-ff1fbbd2-899a-4e83-b92a-cf6c3e7f989f" x1="116.278" y1="31.368999" x2="129.703" y2="31.368999" id="line100"></line>
  <g id="g101" transform="translate(-9.7690001,-11.748001)">
    <line class="uuid-ff1fbbd2-899a-4e83-b92a-cf6c3e7f989f" x1="455.80399" y1="90.206001" x2="494.00101" y2="90.206001" id="line101"></line>
    <polygon class="uuid-e15b26b3-951f-42d8-a6aa-49dd73b3fd87" points="499.383,90.206 492.906,86.466 492.906,93.946" id="polygon101"></polygon>
  </g>
  <g id="g102" transform="translate(-9.7690001,-11.748001)">
    <line class="uuid-ff1fbbd2-899a-4e83-b92a-cf6c3e7f989f" x1="285.44299" y1="157.295" x2="494.00101" y2="157.295" id="line102"></line>
    <polygon class="uuid-e15b26b3-951f-42d8-a6aa-49dd73b3fd87" points="499.383,157.295 492.906,153.555 492.906,161.035" id="polygon102"></polygon>
  </g>
  <g id="g103" transform="translate(-9.7690001,-11.748001)">
    <line class="uuid-ff1fbbd2-899a-4e83-b92a-cf6c3e7f989f" x1="345.88501" y1="246.47301" x2="494.00101" y2="246.47301" id="line103"></line>
    <polygon class="uuid-e15b26b3-951f-42d8-a6aa-49dd73b3fd87" points="499.383,246.473 492.906,242.733 492.906,250.213" id="polygon103"></polygon>
  </g>
  <line class="uuid-ff1fbbd2-899a-4e83-b92a-cf6c3e7f989f" x1="86.124001" y1="145.547" x2="179.18001" y2="145.547" id="line104"></line>
  <line class="uuid-ff1fbbd2-899a-4e83-b92a-cf6c3e7f989f" x1="86.124001" y1="234.72501" x2="239.62201" y2="234.72501" id="line105"></line>
  <g id="g134" transform="translate(-9.7690001,-11.748001)">
    <g id="g119">
      <path class="uuid-04167577-47f9-4cad-a697-658790db4288" d="m 488.518,116.189 h 1.289 l 2.149,5.777 2.169,-5.777 h 1.239 l -2.739,6.996 h -1.389 l -2.719,-6.996 z" id="path105"></path>
      <path class="uuid-04167577-47f9-4cad-a697-658790db4288" d="m 495.987,116.469 c 0,-0.38 0.31,-0.7 0.699,-0.7 0.38,0 0.7,0.32 0.7,0.7 0,0.38 -0.32,0.689 -0.7,0.689 -0.39,0 -0.699,-0.31 -0.699,-0.689 z m 0.13,1.709 h 1.129 v 5.007 h -1.129 z" id="path106"></path>
      <path class="uuid-04167577-47f9-4cad-a697-658790db4288" d="m 498.647,118.178 h 1.129 v 1.08 c 0.28,-0.76 0.76,-1.169 1.379,-1.169 0.19,0.01 0.32,0.03 0.49,0.1 v 0.989 c -0.18,-0.07 -0.41,-0.12 -0.62,-0.12 -0.549,0 -0.999,0.31 -1.249,0.83 v 3.298 h -1.129 v -5.007 z" id="path107"></path>
      <path class="uuid-04167577-47f9-4cad-a697-658790db4288" d="m 503.197,121.886 v -2.809 h -1 v -0.899 h 1 v -1.379 l 1.129,-0.24 v 1.619 h 1.39 v 0.899 h -1.39 v 2.559 c 0,0.49 0.19,0.68 0.7,0.68 0.22,0 0.379,-0.03 0.68,-0.12 v 0.949 c -0.29,0.09 -0.67,0.14 -0.97,0.14 -1.01,0 -1.539,-0.48 -1.539,-1.399 z" id="path108"></path>
      <path class="uuid-04167577-47f9-4cad-a697-658790db4288" d="m 506.677,121.476 v -3.298 h 1.14 v 2.968 c 0,0.74 0.43,1.209 1.1,1.209 0.449,0 0.829,-0.2 1.089,-0.6 v -3.578 h 1.13 v 5.007 h -1.13 v -0.81 c -0.38,0.59 -0.919,0.89 -1.589,0.89 -1.02,0 -1.739,-0.74 -1.739,-1.789 z" id="path109"></path>
      <path class="uuid-04167577-47f9-4cad-a697-658790db4288" d="m 512.277,121.746 c 0,-0.899 0.739,-1.469 1.919,-1.469 0.47,0 0.909,0.1 1.349,0.32 v -0.56 c 0,-0.66 -0.38,-1 -1.149,-1 -0.42,0 -0.879,0.12 -1.459,0.39 l -0.399,-0.82 c 0.749,-0.34 1.409,-0.51 2.078,-0.51 1.31,0 2.049,0.66 2.049,1.819 v 3.268 h -1.119 v -0.52 c -0.43,0.419 -0.909,0.609 -1.489,0.609 -1.049,0 -1.778,-0.629 -1.778,-1.529 z m 2.089,0.73 c 0.449,0 0.839,-0.13 1.179,-0.42 v -0.81 c -0.359,-0.17 -0.72,-0.24 -1.149,-0.24 -0.649,0 -1.06,0.27 -1.06,0.72 0,0.459 0.4,0.75 1.03,0.75 z" id="path110"></path>
      <path class="uuid-04167577-47f9-4cad-a697-658790db4288" d="m 518.037,116.019 1.129,-0.2 v 7.366 h -1.129 z" id="path111"></path>
      <path class="uuid-04167577-47f9-4cad-a697-658790db4288" d="m 522.807,118.178 h 1.13 v 0.79 c 0.369,-0.57 0.869,-0.87 1.479,-0.87 0.689,0 1.22,0.37 1.479,0.959 0.39,-0.629 0.949,-0.959 1.659,-0.959 0.97,0 1.639,0.75 1.639,1.809 v 3.278 h -1.129 v -3.028 c 0,-0.7 -0.39,-1.149 -1.01,-1.149 -0.409,0 -0.749,0.19 -0.999,0.6 0.01,0.1 0.02,0.2 0.02,0.3 v 3.278 h -1.139 v -3.028 c 0,-0.7 -0.391,-1.149 -1.01,-1.149 -0.41,0 -0.74,0.19 -0.989,0.58 v 3.598 h -1.13 v -5.007 z" id="path112"></path>
      <path class="uuid-04167577-47f9-4cad-a697-658790db4288" d="m 531.307,121.746 c 0,-0.899 0.739,-1.469 1.919,-1.469 0.47,0 0.909,0.1 1.35,0.32 v -0.56 c 0,-0.66 -0.38,-1 -1.149,-1 -0.42,0 -0.88,0.12 -1.459,0.39 l -0.4,-0.82 c 0.75,-0.34 1.409,-0.51 2.079,-0.51 1.31,0 2.049,0.66 2.049,1.819 v 3.268 h -1.119 v -0.52 c -0.43,0.419 -0.91,0.609 -1.489,0.609 -1.05,0 -1.779,-0.629 -1.779,-1.529 z m 2.089,0.73 c 0.45,0 0.84,-0.13 1.18,-0.42 v -0.81 c -0.36,-0.17 -0.72,-0.24 -1.149,-0.24 -0.649,0 -1.06,0.27 -1.06,0.72 0,0.459 0.399,0.75 1.029,0.75 z" id="path113"></path>
      <path class="uuid-04167577-47f9-4cad-a697-658790db4288" d="m 536.837,120.687 c 0,-1.449 1.1,-2.589 2.528,-2.589 0.779,0 1.499,0.31 1.999,0.85 l -0.699,0.729 c -0.351,-0.39 -0.78,-0.589 -1.26,-0.589 -0.81,0 -1.439,0.7 -1.439,1.599 0,0.909 0.63,1.599 1.439,1.599 0.479,0 0.909,-0.2 1.26,-0.58 l 0.699,0.719 c -0.5,0.54 -1.22,0.85 -1.999,0.85 -1.429,0 -2.528,-1.129 -2.528,-2.588 z" id="path114"></path>
      <path class="uuid-04167577-47f9-4cad-a697-658790db4288" d="m 542.297,116.019 1.129,-0.2 v 3.178 c 0.38,-0.59 0.93,-0.9 1.579,-0.9 1.029,0 1.749,0.73 1.749,1.789 v 3.298 h -1.14 v -2.979 c 0,-0.729 -0.43,-1.199 -1.099,-1.199 -0.46,0 -0.83,0.21 -1.09,0.61 v 3.568 h -1.129 v -7.166 z" id="path115"></path>
      <path class="uuid-04167577-47f9-4cad-a697-658790db4288" d="m 547.977,116.469 c 0,-0.38 0.31,-0.7 0.699,-0.7 0.38,0 0.7,0.32 0.7,0.7 0,0.38 -0.32,0.689 -0.7,0.689 -0.39,0 -0.699,-0.31 -0.699,-0.689 z m 0.129,1.709 h 1.129 v 5.007 h -1.129 z" id="path116"></path>
      <path class="uuid-04167577-47f9-4cad-a697-658790db4288" d="m 550.637,118.178 h 1.129 v 0.82 c 0.38,-0.59 0.93,-0.9 1.579,-0.9 1.029,0 1.749,0.73 1.749,1.789 v 3.298 h -1.14 v -2.979 c 0,-0.729 -0.43,-1.199 -1.099,-1.199 -0.46,0 -0.83,0.21 -1.09,0.61 v 3.568 h -1.129 v -5.007 z" id="path117"></path>
      <path class="uuid-04167577-47f9-4cad-a697-658790db4288" d="m 556.227,120.687 c 0,-1.469 1.06,-2.589 2.438,-2.589 1.369,0 2.368,1.089 2.368,2.589 v 0.27 h -3.697 c 0.109,0.81 0.72,1.399 1.499,1.399 0.47,0 0.909,-0.18 1.189,-0.47 l 0.739,0.669 c -0.609,0.51 -1.219,0.73 -1.979,0.73 -1.439,0 -2.559,-1.129 -2.559,-2.599 z m 3.737,-0.43 c -0.119,-0.73 -0.64,-1.239 -1.309,-1.239 -0.68,0 -1.18,0.49 -1.31,1.239 h 2.618 z" id="path118"></path>
      <path class="uuid-04167577-47f9-4cad-a697-658790db4288" d="m 561.736,122.605 0.53,-0.75 c 0.659,0.41 1.099,0.569 1.608,0.569 0.6,0 1.01,-0.28 1.01,-0.68 0,-0.31 -0.21,-0.47 -0.699,-0.569 l -0.88,-0.15 c -0.979,-0.18 -1.449,-0.63 -1.449,-1.379 0,-0.939 0.77,-1.549 1.938,-1.549 0.7,0 1.33,0.2 1.97,0.6 l -0.53,0.75 c -0.51,-0.33 -0.999,-0.48 -1.509,-0.48 -0.52,0 -0.859,0.22 -0.859,0.58 0,0.32 0.18,0.46 0.699,0.55 l 0.89,0.17 c 0.999,0.18 1.479,0.64 1.479,1.389 0,0.919 -0.88,1.629 -2.05,1.629 -0.859,0 -1.618,-0.24 -2.148,-0.68 z" id="path119"></path>
    </g>
    <g id="g133">
      <g id="g126">
        <line class="uuid-f3ebc513-33c1-4536-a367-3283b9c4bff6" x1="550.41101" y1="110.289" x2="550.41101" y2="110.289" id="line119"></line>
        <line class="uuid-fd71e55c-b369-4458-9602-36dbbcf62643" x1="545.29102" y1="110.289" x2="506.884" y2="110.289" id="line120"></line>
        <line class="uuid-f3ebc513-33c1-4536-a367-3283b9c4bff6" x1="504.32401" y1="110.289" x2="504.32401" y2="110.289" id="line121"></line>
        <line class="uuid-326a11e6-3042-4af9-95cd-c711c863ce19" x1="504.32401" y1="105.417" x2="504.32401" y2="68.873001" id="line122"></line>
        <line class="uuid-f3ebc513-33c1-4536-a367-3283b9c4bff6" x1="504.32401" y1="66.436996" x2="504.32401" y2="66.436996" id="line123"></line>
        <line class="uuid-fd71e55c-b369-4458-9602-36dbbcf62643" x1="509.44501" y1="66.436996" x2="547.85101" y2="66.436996" id="line124"></line>
        <line class="uuid-f3ebc513-33c1-4536-a367-3283b9c4bff6" x1="550.41101" y1="66.436996" x2="550.41101" y2="66.436996" id="line125"></line>
        <line class="uuid-326a11e6-3042-4af9-95cd-c711c863ce19" x1="550.41101" y1="71.309998" x2="550.41101" y2="107.853" id="line126"></line>
      </g>
      <g id="g128">
        <rect class="uuid-11253acd-8134-4892-addf-7dda1a6a3a4c" x="508.45099" y="96.689003" width="37.833" height="9.4580002" id="rect126"></rect>
        <line class="uuid-c495c4a1-84c0-4332-a436-0e3098090131" x1="542.23999" y1="101.418" x2="542.23999" y2="101.418" id="line127"></line>
        <line class="uuid-c495c4a1-84c0-4332-a436-0e3098090131" x1="513.08398" y1="101.418" x2="518.75897" y2="101.418" id="line128"></line>
      </g>
      <g id="g130">
        <rect class="uuid-11253acd-8134-4892-addf-7dda1a6a3a4c" x="508.45099" y="83.619003" width="37.833" height="9.4580002" id="rect128"></rect>
        <line class="uuid-c495c4a1-84c0-4332-a436-0e3098090131" x1="542.23999" y1="88.348999" x2="542.23999" y2="88.348999" id="line129"></line>
        <line class="uuid-c495c4a1-84c0-4332-a436-0e3098090131" x1="513.08398" y1="88.348999" x2="518.75897" y2="88.348999" id="line130"></line>
      </g>
      <g id="g132">
        <rect class="uuid-11253acd-8134-4892-addf-7dda1a6a3a4c" x="508.45099" y="70.550003" width="37.833" height="9.4580002" id="rect130"></rect>
        <line class="uuid-c495c4a1-84c0-4332-a436-0e3098090131" x1="542.23999" y1="75.278999" x2="542.23999" y2="75.278999" id="line131"></line>
        <line class="uuid-c495c4a1-84c0-4332-a436-0e3098090131" x1="513.08398" y1="75.278999" x2="518.75897" y2="75.278999" id="line132"></line>
      </g>
    </g>
  </g>
  <g id="g163" transform="translate(-9.7690001,-11.748001)">
    <g id="g148">
      <path class="uuid-04167577-47f9-4cad-a697-658790db4288" d="m 29.059,116.189 h 1.289 l 2.149,5.777 2.169,-5.777 h 1.239 l -2.739,6.996 h -1.389 z" id="path134"></path>
      <path class="uuid-04167577-47f9-4cad-a697-658790db4288" d="m 36.528,116.469 c 0,-0.38 0.31,-0.7 0.7,-0.7 0.38,0 0.7,0.32 0.7,0.7 0,0.38 -0.32,0.689 -0.7,0.689 -0.39,0 -0.7,-0.31 -0.7,-0.689 z m 0.13,1.709 h 1.129 v 5.007 h -1.129 z" id="path135"></path>
      <path class="uuid-04167577-47f9-4cad-a697-658790db4288" d="m 39.188,118.178 h 1.129 v 1.08 c 0.28,-0.76 0.759,-1.169 1.379,-1.169 0.19,0.01 0.32,0.03 0.49,0.1 v 0.989 c -0.18,-0.07 -0.41,-0.12 -0.62,-0.12 -0.549,0 -0.999,0.31 -1.249,0.83 v 3.298 h -1.129 v -5.007 z" id="path136"></path>
      <path class="uuid-04167577-47f9-4cad-a697-658790db4288" d="m 43.738,121.886 v -2.809 h -1 v -0.899 h 1 v -1.379 l 1.129,-0.24 v 1.619 h 1.389 v 0.899 h -1.389 v 2.559 c 0,0.49 0.19,0.68 0.7,0.68 0.22,0 0.379,-0.03 0.68,-0.12 v 0.949 c -0.29,0.09 -0.67,0.14 -0.97,0.14 -1.009,0 -1.539,-0.48 -1.539,-1.399 z" id="path137"></path>
      <path class="uuid-04167577-47f9-4cad-a697-658790db4288" d="m 47.218,121.476 v -3.298 h 1.139 v 2.968 c 0,0.74 0.43,1.209 1.1,1.209 0.45,0 0.83,-0.2 1.089,-0.6 v -3.578 h 1.129 v 5.007 h -1.129 v -0.81 c -0.38,0.59 -0.919,0.89 -1.589,0.89 -1.02,0 -1.739,-0.74 -1.739,-1.789 z" id="path138"></path>
      <path class="uuid-04167577-47f9-4cad-a697-658790db4288" d="m 52.818,121.746 c 0,-0.899 0.739,-1.469 1.919,-1.469 0.47,0 0.909,0.1 1.349,0.32 v -0.56 c 0,-0.66 -0.38,-1 -1.149,-1 -0.42,0 -0.879,0.12 -1.459,0.39 l -0.4,-0.82 c 0.75,-0.34 1.409,-0.51 2.079,-0.51 1.31,0 2.049,0.66 2.049,1.819 v 3.268 h -1.119 v -0.52 c -0.43,0.419 -0.91,0.609 -1.489,0.609 -1.049,0 -1.779,-0.629 -1.779,-1.529 z m 2.089,0.73 c 0.45,0 0.839,-0.13 1.179,-0.42 v -0.81 c -0.36,-0.17 -0.72,-0.24 -1.149,-0.24 -0.649,0 -1.06,0.27 -1.06,0.72 0,0.459 0.4,0.75 1.03,0.75 z" id="path139"></path>
      <path class="uuid-04167577-47f9-4cad-a697-658790db4288" d="m 58.578,116.019 1.129,-0.2 v 7.366 h -1.129 z" id="path140"></path>
      <path class="uuid-04167577-47f9-4cad-a697-658790db4288" d="m 63.348,118.178 h 1.129 v 0.79 c 0.37,-0.57 0.87,-0.87 1.479,-0.87 0.689,0 1.219,0.37 1.479,0.959 0.39,-0.629 0.949,-0.959 1.659,-0.959 0.97,0 1.639,0.75 1.639,1.809 v 3.278 h -1.129 v -3.028 c 0,-0.7 -0.39,-1.149 -1.009,-1.149 -0.41,0 -0.75,0.19 -1,0.6 0.01,0.1 0.02,0.2 0.02,0.3 v 3.278 h -1.139 v -3.028 c 0,-0.7 -0.39,-1.149 -1.01,-1.149 -0.41,0 -0.74,0.19 -0.989,0.58 v 3.598 h -1.129 v -5.007 z" id="path141"></path>
      <path class="uuid-04167577-47f9-4cad-a697-658790db4288" d="m 71.848,121.746 c 0,-0.899 0.739,-1.469 1.919,-1.469 0.47,0 0.909,0.1 1.349,0.32 v -0.56 c 0,-0.66 -0.38,-1 -1.149,-1 -0.42,0 -0.879,0.12 -1.459,0.39 l -0.4,-0.82 c 0.75,-0.34 1.409,-0.51 2.079,-0.51 1.31,0 2.049,0.66 2.049,1.819 v 3.268 h -1.119 v -0.52 c -0.43,0.419 -0.91,0.609 -1.489,0.609 -1.049,0 -1.779,-0.629 -1.779,-1.529 z m 2.089,0.73 c 0.45,0 0.839,-0.13 1.179,-0.42 v -0.81 c -0.36,-0.17 -0.72,-0.24 -1.149,-0.24 -0.649,0 -1.06,0.27 -1.06,0.72 0,0.459 0.4,0.75 1.03,0.75 z" id="path142"></path>
      <path class="uuid-04167577-47f9-4cad-a697-658790db4288" d="m 77.377,120.687 c 0,-1.449 1.1,-2.589 2.529,-2.589 0.779,0 1.499,0.31 1.999,0.85 l -0.699,0.729 c -0.35,-0.39 -0.78,-0.589 -1.259,-0.589 -0.81,0 -1.439,0.7 -1.439,1.599 0,0.909 0.63,1.599 1.439,1.599 0.479,0 0.909,-0.2 1.259,-0.58 l 0.699,0.719 c -0.5,0.54 -1.219,0.85 -1.999,0.85 -1.429,0 -2.529,-1.129 -2.529,-2.588 z" id="path143"></path>
      <path class="uuid-04167577-47f9-4cad-a697-658790db4288" d="m 82.837,116.019 1.129,-0.2 v 3.178 c 0.38,-0.59 0.929,-0.9 1.579,-0.9 1.029,0 1.749,0.73 1.749,1.789 v 3.298 h -1.14 v -2.979 c 0,-0.729 -0.43,-1.199 -1.099,-1.199 -0.46,0 -0.83,0.21 -1.089,0.61 v 3.568 h -1.129 v -7.166 z" id="path144"></path>
      <path class="uuid-04167577-47f9-4cad-a697-658790db4288" d="m 88.517,116.469 c 0,-0.38 0.31,-0.7 0.7,-0.7 0.38,0 0.7,0.32 0.7,0.7 0,0.38 -0.32,0.689 -0.7,0.689 -0.39,0 -0.7,-0.31 -0.7,-0.689 z m 0.13,1.709 h 1.129 v 5.007 h -1.129 z" id="path145"></path>
      <path class="uuid-04167577-47f9-4cad-a697-658790db4288" d="m 91.177,118.178 h 1.129 v 0.82 c 0.38,-0.59 0.929,-0.9 1.579,-0.9 1.029,0 1.749,0.73 1.749,1.789 v 3.298 h -1.14 v -2.979 c 0,-0.729 -0.43,-1.199 -1.099,-1.199 -0.46,0 -0.83,0.21 -1.089,0.61 v 3.568 h -1.129 z" id="path146"></path>
      <path class="uuid-04167577-47f9-4cad-a697-658790db4288" d="m 96.767,120.687 c 0,-1.469 1.06,-2.589 2.438,-2.589 1.37,0 2.369,1.089 2.369,2.589 v 0.27 h -3.698 c 0.11,0.81 0.72,1.399 1.499,1.399 0.47,0 0.91,-0.18 1.189,-0.47 l 0.74,0.669 c -0.61,0.51 -1.219,0.73 -1.979,0.73 -1.439,0 -2.559,-1.129 -2.559,-2.599 z m 3.738,-0.43 c -0.12,-0.73 -0.64,-1.239 -1.309,-1.239 -0.68,0 -1.179,0.49 -1.309,1.239 z" id="path147"></path>
      <path class="uuid-04167577-47f9-4cad-a697-658790db4288" d="m 102.277,122.605 0.53,-0.75 c 0.66,0.41 1.099,0.569 1.609,0.569 0.6,0 1.009,-0.28 1.009,-0.68 0,-0.31 -0.209,-0.47 -0.699,-0.569 l -0.88,-0.15 c -0.979,-0.18 -1.449,-0.63 -1.449,-1.379 0,-0.939 0.77,-1.549 1.939,-1.549 0.7,0 1.33,0.2 1.969,0.6 l -0.53,0.75 c -0.51,-0.33 -1,-0.48 -1.509,-0.48 -0.52,0 -0.859,0.22 -0.859,0.58 0,0.32 0.18,0.46 0.7,0.55 l 0.889,0.17 c 1,0.18 1.479,0.64 1.479,1.389 0,0.919 -0.88,1.629 -2.049,1.629 -0.859,0 -1.619,-0.24 -2.148,-0.68 z" id="path148"></path>
    </g>
    <g id="g162">
      <g id="g155">
        <line class="uuid-f3ebc513-33c1-4536-a367-3283b9c4bff6" x1="90.952003" y1="110.289" x2="90.952003" y2="110.289" id="line148"></line>
        <line class="uuid-fd71e55c-b369-4458-9602-36dbbcf62643" x1="85.831001" y1="110.289" x2="47.424999" y2="110.289" id="line149"></line>
        <line class="uuid-f3ebc513-33c1-4536-a367-3283b9c4bff6" x1="44.863998" y1="110.289" x2="44.863998" y2="110.289" id="line150"></line>
        <line class="uuid-326a11e6-3042-4af9-95cd-c711c863ce19" x1="44.863998" y1="105.417" x2="44.863998" y2="68.873001" id="line151"></line>
        <line class="uuid-f3ebc513-33c1-4536-a367-3283b9c4bff6" x1="44.863998" y1="66.436996" x2="44.863998" y2="66.436996" id="line152"></line>
        <line class="uuid-fd71e55c-b369-4458-9602-36dbbcf62643" x1="49.985001" y1="66.436996" x2="88.390999" y2="66.436996" id="line153"></line>
        <line class="uuid-f3ebc513-33c1-4536-a367-3283b9c4bff6" x1="90.952003" y1="66.436996" x2="90.952003" y2="66.436996" id="line154"></line>
        <line class="uuid-326a11e6-3042-4af9-95cd-c711c863ce19" x1="90.952003" y1="71.309998" x2="90.952003" y2="107.853" id="line155"></line>
      </g>
      <g id="g157">
        <rect class="uuid-11253acd-8134-4892-addf-7dda1a6a3a4c" x="48.991001" y="96.689003" width="37.833" height="9.4580002" id="rect155"></rect>
        <line class="uuid-c495c4a1-84c0-4332-a436-0e3098090131" x1="82.779999" y1="101.418" x2="82.779999" y2="101.418" id="line156"></line>
        <line class="uuid-c495c4a1-84c0-4332-a436-0e3098090131" x1="53.625" y1="101.418" x2="59.299" y2="101.418" id="line157"></line>
      </g>
      <g id="g159">
        <rect class="uuid-11253acd-8134-4892-addf-7dda1a6a3a4c" x="48.991001" y="83.619003" width="37.833" height="9.4580002" id="rect157"></rect>
        <line class="uuid-c495c4a1-84c0-4332-a436-0e3098090131" x1="82.779999" y1="88.348999" x2="82.779999" y2="88.348999" id="line158"></line>
        <line class="uuid-c495c4a1-84c0-4332-a436-0e3098090131" x1="53.625" y1="88.348999" x2="59.299" y2="88.348999" id="line159"></line>
      </g>
      <g id="g161">
        <rect class="uuid-11253acd-8134-4892-addf-7dda1a6a3a4c" x="48.991001" y="70.550003" width="37.833" height="9.4580002" id="rect159"></rect>
        <line class="uuid-c495c4a1-84c0-4332-a436-0e3098090131" x1="82.779999" y1="75.278999" x2="82.779999" y2="75.278999" id="line160"></line>
        <line class="uuid-c495c4a1-84c0-4332-a436-0e3098090131" x1="53.625" y1="75.278999" x2="59.299" y2="75.278999" id="line161"></line>
      </g>
    </g>
  </g>
  <g id="g175" transform="translate(-9.7690001,-11.748001)">
    <path class="uuid-04167577-47f9-4cad-a697-658790db4288" d="m 30.884,270.434 h 1.289 l 2.149,5.777 2.169,-5.777 h 1.239 l -2.739,6.996 h -1.389 z" id="path163"></path>
    <path class="uuid-04167577-47f9-4cad-a697-658790db4288" d="m 38.263,274.931 c 0,-1.479 1.08,-2.589 2.519,-2.589 1.429,0 2.509,1.109 2.509,2.589 0,1.48 -1.08,2.588 -2.509,2.588 -1.439,0 -2.519,-1.109 -2.519,-2.588 z m 3.918,0 c 0,-0.93 -0.59,-1.629 -1.399,-1.629 -0.819,0 -1.409,0.7 -1.409,1.629 0,0.939 0.59,1.629 1.409,1.629 0.81,0 1.399,-0.689 1.399,-1.629 z" id="path164"></path>
    <path class="uuid-04167577-47f9-4cad-a697-658790db4288" d="m 44.463,270.264 1.129,-0.2 v 7.366 h -1.129 z" id="path165"></path>
    <path class="uuid-04167577-47f9-4cad-a697-658790db4288" d="m 46.943,275.721 v -3.298 h 1.139 v 2.968 c 0,0.74 0.43,1.209 1.1,1.209 0.45,0 0.83,-0.2 1.089,-0.6 v -3.578 H 51.4 v 5.007 h -1.129 v -0.81 c -0.38,0.59 -0.919,0.89 -1.589,0.89 -1.02,0 -1.739,-0.74 -1.739,-1.789 z" id="path166"></path>
    <path class="uuid-04167577-47f9-4cad-a697-658790db4288" d="m 52.803,272.422 h 1.129 v 0.79 c 0.37,-0.57 0.87,-0.87 1.479,-0.87 0.69,0 1.219,0.37 1.479,0.959 0.39,-0.629 0.949,-0.959 1.659,-0.959 0.97,0 1.639,0.75 1.639,1.809 v 3.278 h -1.129 v -3.028 c 0,-0.7 -0.39,-1.149 -1.009,-1.149 -0.41,0 -0.75,0.19 -1,0.6 0.01,0.1 0.02,0.2 0.02,0.3 v 3.278 h -1.139 v -3.028 c 0,-0.7 -0.39,-1.149 -1.01,-1.149 -0.41,0 -0.739,0.19 -0.989,0.58 v 3.598 h -1.129 v -5.007 z" id="path167"></path>
    <path class="uuid-04167577-47f9-4cad-a697-658790db4288" d="m 61.333,274.931 c 0,-1.469 1.06,-2.589 2.438,-2.589 1.37,0 2.369,1.089 2.369,2.589 v 0.27 h -3.698 c 0.11,0.81 0.72,1.399 1.499,1.399 0.47,0 0.91,-0.18 1.189,-0.47 l 0.74,0.669 c -0.61,0.51 -1.219,0.73 -1.979,0.73 -1.439,0 -2.559,-1.129 -2.559,-2.599 z m 3.738,-0.43 c -0.12,-0.73 -0.64,-1.239 -1.309,-1.239 -0.68,0 -1.179,0.49 -1.309,1.239 z" id="path168"></path>
    <path class="uuid-04167577-47f9-4cad-a697-658790db4288" d="m 69.093,276.85 0.53,-0.75 c 0.659,0.41 1.099,0.569 1.609,0.569 0.6,0 1.009,-0.28 1.009,-0.68 0,-0.31 -0.209,-0.47 -0.699,-0.569 l -0.88,-0.15 c -0.979,-0.18 -1.449,-0.63 -1.449,-1.379 0,-0.939 0.77,-1.549 1.939,-1.549 0.7,0 1.33,0.2 1.969,0.6 l -0.53,0.75 c -0.51,-0.33 -1,-0.48 -1.509,-0.48 -0.52,0 -0.859,0.22 -0.859,0.58 0,0.32 0.18,0.46 0.699,0.55 l 0.89,0.17 c 1,0.18 1.479,0.64 1.479,1.389 0,0.919 -0.88,1.629 -2.049,1.629 -0.86,0 -1.619,-0.24 -2.149,-0.68 z" id="path169"></path>
    <path class="uuid-04167577-47f9-4cad-a697-658790db4288" d="m 74.952,276.13 v -2.809 h -1 v -0.899 h 1 v -1.379 l 1.129,-0.24 v 1.619 h 1.389 v 0.899 h -1.389 v 2.559 c 0,0.49 0.19,0.68 0.7,0.68 0.22,0 0.379,-0.03 0.68,-0.12 v 0.949 c -0.29,0.09 -0.67,0.14 -0.97,0.14 -1.009,0 -1.539,-0.48 -1.539,-1.399 z" id="path170"></path>
    <path class="uuid-04167577-47f9-4cad-a697-658790db4288" d="m 78.243,274.931 c 0,-1.479 1.08,-2.589 2.519,-2.589 1.429,0 2.509,1.109 2.509,2.589 0,1.48 -1.08,2.588 -2.509,2.588 -1.439,0 -2.519,-1.109 -2.519,-2.588 z m 3.918,0 c 0,-0.93 -0.59,-1.629 -1.399,-1.629 -0.819,0 -1.409,0.7 -1.409,1.629 0,0.939 0.59,1.629 1.409,1.629 0.81,0 1.399,-0.689 1.399,-1.629 z" id="path171"></path>
    <path class="uuid-04167577-47f9-4cad-a697-658790db4288" d="m 84.442,272.422 h 1.129 v 1.08 c 0.28,-0.76 0.759,-1.169 1.379,-1.169 0.19,0.01 0.32,0.03 0.49,0.1 v 0.989 c -0.18,-0.07 -0.41,-0.12 -0.62,-0.12 -0.549,0 -1,0.31 -1.249,0.83 v 3.298 h -1.129 v -5.007 z" id="path172"></path>
    <path class="uuid-04167577-47f9-4cad-a697-658790db4288" d="m 88.113,275.99 c 0,-0.899 0.739,-1.469 1.919,-1.469 0.47,0 0.909,0.1 1.349,0.32 v -0.56 c 0,-0.66 -0.38,-1 -1.149,-1 -0.42,0 -0.879,0.12 -1.459,0.39 l -0.4,-0.82 c 0.75,-0.34 1.409,-0.51 2.079,-0.51 1.31,0 2.049,0.66 2.049,1.819 v 3.268 h -1.119 v -0.52 c -0.43,0.419 -0.91,0.609 -1.489,0.609 -1.049,0 -1.779,-0.629 -1.779,-1.529 z m 2.089,0.73 c 0.45,0 0.839,-0.13 1.179,-0.42 v -0.81 c -0.36,-0.17 -0.72,-0.24 -1.149,-0.24 -0.649,0 -1.06,0.27 -1.06,0.72 0,0.459 0.4,0.75 1.03,0.75 z" id="path173"></path>
    <path class="uuid-04167577-47f9-4cad-a697-658790db4288" d="m 94.202,279.129 0.39,-0.83 c 0.589,0.29 1.069,0.419 1.569,0.419 0.84,0 1.279,-0.379 1.279,-1.109 v -0.849 c -0.36,0.439 -0.91,0.699 -1.539,0.699 -1.27,0 -2.259,-1.129 -2.259,-2.548 0,-1.419 1.029,-2.529 2.339,-2.529 0.58,0 1.099,0.23 1.469,0.67 v -0.63 h 1.119 v 5.187 c 0,1.29 -0.839,2.009 -2.358,2.009 -0.72,0 -1.419,-0.18 -2.009,-0.49 z m 3.238,-3.158 v -2.099 c -0.29,-0.34 -0.72,-0.54 -1.189,-0.54 -0.859,0 -1.499,0.669 -1.499,1.589 0,0.91 0.64,1.599 1.499,1.599 0.49,0 0.9,-0.2 1.189,-0.549 z" id="path174"></path>
    <path class="uuid-04167577-47f9-4cad-a697-658790db4288" d="m 99.732,274.931 c 0,-1.469 1.06,-2.589 2.438,-2.589 1.37,0 2.369,1.089 2.369,2.589 v 0.27 h -3.698 c 0.11,0.81 0.72,1.399 1.499,1.399 0.47,0 0.91,-0.18 1.189,-0.47 l 0.74,0.669 c -0.61,0.51 -1.219,0.73 -1.979,0.73 -1.439,0 -2.559,-1.129 -2.559,-2.599 z m 3.738,-0.43 c -0.12,-0.73 -0.64,-1.239 -1.309,-1.239 -0.68,0 -1.179,0.49 -1.309,1.239 z" id="path175"></path>
  </g>
  <g id="g183" transform="translate(-9.7690001,-11.748001)">
    <path class="uuid-04167577-47f9-4cad-a697-658790db4288" d="m 46.278,179.316 h 1.169 l 3.648,5.087 -0.02,-5.087 h 1.129 v 6.996 h -1.069 l -3.748,-5.227 0.02,5.227 h -1.129 z" id="path176"></path>
    <path class="uuid-04167577-47f9-4cad-a697-658790db4288" d="m 53.518,183.813 c 0,-1.469 1.06,-2.589 2.438,-2.589 1.37,0 2.369,1.089 2.369,2.589 v 0.27 h -3.698 c 0.11,0.81 0.72,1.399 1.499,1.399 0.47,0 0.91,-0.18 1.189,-0.47 l 0.74,0.669 c -0.61,0.51 -1.219,0.73 -1.979,0.73 -1.439,0 -2.559,-1.129 -2.559,-2.599 z m 3.738,-0.429 c -0.12,-0.73 -0.64,-1.239 -1.309,-1.239 -0.68,0 -1.179,0.49 -1.309,1.239 z" id="path177"></path>
    <path class="uuid-04167577-47f9-4cad-a697-658790db4288" d="m 60.098,185.013 v -2.809 h -1 v -0.899 h 1 v -1.379 l 1.129,-0.24 v 1.619 h 1.389 v 0.899 h -1.389 v 2.559 c 0,0.49 0.19,0.68 0.7,0.68 0.22,0 0.379,-0.03 0.68,-0.12 v 0.949 c -0.29,0.09 -0.67,0.14 -0.97,0.14 -1.009,0 -1.539,-0.48 -1.539,-1.399 z" id="path178"></path>
    <path class="uuid-04167577-47f9-4cad-a697-658790db4288" d="m 63.148,181.305 h 1.079 l 0.88,3.528 1.039,-3.528 h 0.95 l 1.029,3.528 0.879,-3.528 h 1.05 l -1.35,5.007 h -1.079 l -1.02,-3.528 -1.009,3.528 h -1.1 l -1.349,-5.007 z" id="path179"></path>
    <path class="uuid-04167577-47f9-4cad-a697-658790db4288" d="m 70.748,183.813 c 0,-1.479 1.08,-2.589 2.519,-2.589 1.429,0 2.509,1.109 2.509,2.589 0,1.48 -1.08,2.588 -2.509,2.588 -1.439,0 -2.519,-1.109 -2.519,-2.588 z m 3.918,0 c 0,-0.93 -0.59,-1.629 -1.399,-1.629 -0.819,0 -1.409,0.7 -1.409,1.629 0,0.939 0.59,1.629 1.409,1.629 0.81,0 1.399,-0.689 1.399,-1.629 z" id="path180"></path>
    <path class="uuid-04167577-47f9-4cad-a697-658790db4288" d="m 76.948,181.305 h 1.129 v 1.08 c 0.28,-0.76 0.759,-1.169 1.379,-1.169 0.19,0.01 0.32,0.03 0.49,0.1 v 0.989 c -0.18,-0.07 -0.41,-0.12 -0.62,-0.12 -0.549,0 -0.999,0.31 -1.249,0.83 v 3.298 h -1.129 v -5.007 z" id="path181"></path>
    <path class="uuid-04167577-47f9-4cad-a697-658790db4288" d="m 80.877,179.126 1.129,-0.19 v 4.498 l 2.079,-2.129 h 1.299 l -2.309,2.319 2.429,2.688 h -1.439 l -2.059,-2.309 v 2.309 h -1.129 z" id="path182"></path>
    <path class="uuid-04167577-47f9-4cad-a697-658790db4288" d="m 85.838,185.732 0.53,-0.75 c 0.66,0.41 1.099,0.569 1.609,0.569 0.6,0 1.009,-0.28 1.009,-0.68 0,-0.31 -0.209,-0.47 -0.699,-0.569 l -0.88,-0.15 c -0.979,-0.18 -1.449,-0.63 -1.449,-1.379 0,-0.939 0.77,-1.549 1.939,-1.549 0.7,0 1.33,0.2 1.969,0.6 l -0.53,0.75 c -0.51,-0.33 -1,-0.48 -1.509,-0.48 -0.52,0 -0.859,0.22 -0.859,0.58 0,0.32 0.18,0.46 0.7,0.55 l 0.889,0.17 c 1,0.18 1.479,0.64 1.479,1.389 0,0.919 -0.88,1.629 -2.049,1.629 -0.859,0 -1.619,-0.24 -2.148,-0.68 z" id="path183"></path>
  </g>
  <g id="g185" transform="translate(-9.7690001,-11.748001)">
    <path class="uuid-11253acd-8134-4892-addf-7dda1a6a3a4c" d="m 54.498,248.054 v 7.409 c 0,4.092 6.004,7.409 13.41,7.409 7.406,0 13.41,-3.317 13.41,-7.409 v -7.409" id="path184"></path>
    <path class="uuid-11253acd-8134-4892-addf-7dda1a6a3a4c" d="m 54.498,240.646 v 7.409 c 0,4.092 6.004,7.409 13.41,7.409 7.406,0 13.41,-3.317 13.41,-7.409 v -7.409" id="path185"></path>
    <ellipse class="uuid-11253acd-8134-4892-addf-7dda1a6a3a4c" cx="67.907997" cy="240.646" rx="13.41" ry="7.4089999" id="ellipse185"></ellipse>
  </g>
  <g id="g188" transform="translate(-9.7690001,-11.748001)">
    <path class="uuid-11253acd-8134-4892-addf-7dda1a6a3a4c" d="m 513.765,248.054 v 7.515 c 0,4.15 6.09,7.515 13.603,7.515 7.513,0 13.603,-3.365 13.603,-7.515 v -7.515" id="path186"></path>
    <path class="uuid-11253acd-8134-4892-addf-7dda1a6a3a4c" d="m 513.765,240.54 v 7.515 c 0,4.15 6.09,7.515 13.603,7.515 7.513,0 13.603,-3.365 13.603,-7.515 v -7.515" id="path187"></path>
    <ellipse class="uuid-11253acd-8134-4892-addf-7dda1a6a3a4c" cx="527.36798" cy="240.53999" rx="13.603" ry="7.5149999" id="ellipse187"></ellipse>
    <path class="uuid-120089e1-6f69-4133-8c1f-3e04778fcd45" d="m 527.368,267.593 c -10.339,0 -18.137,-5.169 -18.137,-12.024 v -15.03 c 0,-6.854 7.798,-12.024 18.137,-12.024 10.339,0 18.137,5.169 18.137,12.024 v 15.03 c 0,6.854 -7.798,12.024 -18.137,12.024 z" id="path188"></path>
  </g>
  <g id="g202" transform="translate(-9.7690001,-11.748001)">
    <path class="uuid-04167577-47f9-4cad-a697-658790db4288" d="m 490.943,276.41 0.649,-0.879 c 0.899,0.74 1.549,1.02 2.358,1.02 0.92,0 1.56,-0.47 1.56,-1.12 0,-0.569 -0.34,-0.839 -1.27,-1 l -1.289,-0.22 c -1.209,-0.22 -1.799,-0.819 -1.799,-1.779 0,-1.27 1.009,-2.109 2.578,-2.109 1.05,0 2.009,0.31 2.809,0.899 l -0.609,0.899 c -0.7,-0.53 -1.449,-0.81 -2.239,-0.81 -0.839,0 -1.398,0.43 -1.398,1 0,0.51 0.319,0.77 1.079,0.89 l 1.249,0.21 c 1.409,0.25 2.069,0.869 2.069,1.929 0,1.289 -1.14,2.199 -2.809,2.199 -1.1,0 -2.049,-0.38 -2.938,-1.129 z" id="path189"></path>
    <path class="uuid-04167577-47f9-4cad-a697-658790db4288" d="m 498.393,276.13 v -2.809 h -0.999 v -0.899 h 0.999 v -1.379 l 1.13,-0.24 v 1.619 h 1.389 v 0.899 h -1.389 v 2.559 c 0,0.49 0.189,0.68 0.699,0.68 0.22,0 0.38,-0.03 0.68,-0.12 v 0.949 c -0.29,0.09 -0.67,0.14 -0.97,0.14 -1.009,0 -1.539,-0.48 -1.539,-1.399 z" id="path190"></path>
    <path class="uuid-04167577-47f9-4cad-a697-658790db4288" d="m 501.683,274.931 c 0,-1.479 1.08,-2.589 2.519,-2.589 1.43,0 2.509,1.109 2.509,2.589 0,1.48 -1.079,2.588 -2.509,2.588 -1.438,0 -2.519,-1.109 -2.519,-2.588 z m 3.918,0 c 0,-0.93 -0.59,-1.629 -1.399,-1.629 -0.819,0 -1.409,0.7 -1.409,1.629 0,0.939 0.59,1.629 1.409,1.629 0.81,0 1.399,-0.689 1.399,-1.629 z" id="path191"></path>
    <path class="uuid-04167577-47f9-4cad-a697-658790db4288" d="m 507.883,272.422 h 1.129 v 1.08 c 0.28,-0.76 0.76,-1.169 1.379,-1.169 0.19,0.01 0.32,0.03 0.49,0.1 v 0.989 c -0.18,-0.07 -0.41,-0.12 -0.62,-0.12 -0.549,0 -0.999,0.31 -1.249,0.83 v 3.298 h -1.129 v -5.007 z" id="path192"></path>
    <path class="uuid-04167577-47f9-4cad-a697-658790db4288" d="m 511.553,275.99 c 0,-0.899 0.739,-1.469 1.919,-1.469 0.47,0 0.909,0.1 1.35,0.32 v -0.56 c 0,-0.66 -0.38,-1 -1.149,-1 -0.42,0 -0.88,0.12 -1.459,0.39 l -0.4,-0.82 c 0.75,-0.34 1.409,-0.51 2.079,-0.51 1.31,0 2.049,0.66 2.049,1.819 v 3.268 h -1.119 v -0.52 c -0.43,0.419 -0.91,0.609 -1.489,0.609 -1.05,0 -1.779,-0.629 -1.779,-1.529 z m 2.089,0.73 c 0.45,0 0.84,-0.13 1.18,-0.42 v -0.81 c -0.36,-0.17 -0.72,-0.24 -1.149,-0.24 -0.649,0 -1.06,0.27 -1.06,0.72 0,0.459 0.399,0.75 1.029,0.75 z" id="path193"></path>
    <path class="uuid-04167577-47f9-4cad-a697-658790db4288" d="m 517.643,279.129 0.39,-0.83 c 0.59,0.29 1.069,0.419 1.569,0.419 0.84,0 1.279,-0.379 1.279,-1.109 v -0.849 c -0.36,0.439 -0.909,0.699 -1.539,0.699 -1.27,0 -2.259,-1.129 -2.259,-2.548 0,-1.419 1.029,-2.529 2.339,-2.529 0.579,0 1.099,0.23 1.469,0.67 v -0.63 h 1.119 v 5.187 c 0,1.29 -0.839,2.009 -2.358,2.009 -0.72,0 -1.419,-0.18 -2.009,-0.49 z m 3.238,-3.158 v -2.099 c -0.29,-0.34 -0.72,-0.54 -1.189,-0.54 -0.859,0 -1.499,0.669 -1.499,1.589 0,0.91 0.64,1.599 1.499,1.599 0.489,0 0.899,-0.2 1.189,-0.549 z" id="path194"></path>
    <path class="uuid-04167577-47f9-4cad-a697-658790db4288" d="m 523.173,274.931 c 0,-1.469 1.06,-2.589 2.438,-2.589 1.369,0 2.369,1.089 2.369,2.589 v 0.27 h -3.698 c 0.109,0.81 0.72,1.399 1.499,1.399 0.47,0 0.909,-0.18 1.189,-0.47 l 0.739,0.669 c -0.609,0.51 -1.219,0.73 -1.979,0.73 -1.439,0 -2.559,-1.129 -2.559,-2.599 z m 3.737,-0.43 c -0.119,-0.73 -0.64,-1.239 -1.309,-1.239 -0.68,0 -1.18,0.49 -1.31,1.239 h 2.618 z" id="path195"></path>
    <path class="uuid-04167577-47f9-4cad-a697-658790db4288" d="m 531.152,274.931 c 0,-1.449 1.1,-2.589 2.528,-2.589 0.779,0 1.499,0.31 1.999,0.85 l -0.699,0.729 c -0.351,-0.39 -0.78,-0.589 -1.26,-0.589 -0.81,0 -1.439,0.7 -1.439,1.599 0,0.909 0.63,1.599 1.439,1.599 0.479,0 0.909,-0.2 1.26,-0.58 l 0.699,0.719 c -0.5,0.54 -1.22,0.85 -1.999,0.85 -1.429,0 -2.528,-1.129 -2.528,-2.588 z" id="path196"></path>
    <path class="uuid-04167577-47f9-4cad-a697-658790db4288" d="m 536.612,270.264 1.129,-0.2 v 7.366 h -1.129 z" id="path197"></path>
    <path class="uuid-04167577-47f9-4cad-a697-658790db4288" d="m 538.872,275.99 c 0,-0.899 0.739,-1.469 1.919,-1.469 0.47,0 0.909,0.1 1.35,0.32 v -0.56 c 0,-0.66 -0.38,-1 -1.149,-1 -0.42,0 -0.88,0.12 -1.459,0.39 l -0.4,-0.82 c 0.75,-0.34 1.409,-0.51 2.079,-0.51 1.31,0 2.049,0.66 2.049,1.819 v 3.268 h -1.119 v -0.52 c -0.43,0.419 -0.91,0.609 -1.489,0.609 -1.05,0 -1.779,-0.629 -1.779,-1.529 z m 2.089,0.73 c 0.45,0 0.84,-0.13 1.18,-0.42 v -0.81 c -0.36,-0.17 -0.72,-0.24 -1.149,-0.24 -0.649,0 -1.06,0.27 -1.06,0.72 0,0.459 0.399,0.75 1.029,0.75 z" id="path198"></path>
    <path class="uuid-04167577-47f9-4cad-a697-658790db4288" d="m 544.183,276.85 0.529,-0.75 c 0.66,0.41 1.1,0.569 1.609,0.569 0.6,0 1.009,-0.28 1.009,-0.68 0,-0.31 -0.209,-0.47 -0.699,-0.569 l -0.88,-0.15 c -0.979,-0.18 -1.449,-0.63 -1.449,-1.379 0,-0.939 0.77,-1.549 1.939,-1.549 0.699,0 1.329,0.2 1.969,0.6 l -0.529,0.75 c -0.51,-0.33 -1,-0.48 -1.51,-0.48 -0.52,0 -0.859,0.22 -0.859,0.58 0,0.32 0.18,0.46 0.7,0.55 l 0.889,0.17 c 1,0.18 1.479,0.64 1.479,1.389 0,0.919 -0.88,1.629 -2.049,1.629 -0.859,0 -1.619,-0.24 -2.148,-0.68 z" id="path199"></path>
    <path class="uuid-04167577-47f9-4cad-a697-658790db4288" d="m 548.973,276.85 0.529,-0.75 c 0.66,0.41 1.1,0.569 1.609,0.569 0.6,0 1.009,-0.28 1.009,-0.68 0,-0.31 -0.209,-0.47 -0.699,-0.569 l -0.88,-0.15 c -0.979,-0.18 -1.449,-0.63 -1.449,-1.379 0,-0.939 0.77,-1.549 1.939,-1.549 0.699,0 1.329,0.2 1.969,0.6 l -0.529,0.75 c -0.51,-0.33 -1,-0.48 -1.51,-0.48 -0.52,0 -0.859,0.22 -0.859,0.58 0,0.32 0.18,0.46 0.7,0.55 l 0.889,0.17 c 1,0.18 1.479,0.64 1.479,1.389 0,0.919 -0.88,1.629 -2.049,1.629 -0.859,0 -1.619,-0.24 -2.148,-0.68 z" id="path200"></path>
    <path class="uuid-04167577-47f9-4cad-a697-658790db4288" d="m 553.982,274.931 c 0,-1.469 1.06,-2.589 2.438,-2.589 1.369,0 2.369,1.089 2.369,2.589 v 0.27 h -3.698 c 0.109,0.81 0.72,1.399 1.499,1.399 0.47,0 0.909,-0.18 1.189,-0.47 l 0.739,0.669 c -0.609,0.51 -1.219,0.73 -1.979,0.73 -1.439,0 -2.559,-1.129 -2.559,-2.599 z m 3.738,-0.43 c -0.119,-0.73 -0.64,-1.239 -1.309,-1.239 -0.68,0 -1.18,0.49 -1.31,1.239 h 2.618 z" id="path201"></path>
    <path class="uuid-04167577-47f9-4cad-a697-658790db4288" d="m 559.492,276.85 0.529,-0.75 c 0.66,0.41 1.1,0.569 1.609,0.569 0.6,0 1.009,-0.28 1.009,-0.68 0,-0.31 -0.209,-0.47 -0.699,-0.569 l -0.88,-0.15 c -0.979,-0.18 -1.449,-0.63 -1.449,-1.379 0,-0.939 0.77,-1.549 1.939,-1.549 0.699,0 1.329,0.2 1.969,0.6 l -0.529,0.75 c -0.51,-0.33 -1,-0.48 -1.51,-0.48 -0.52,0 -0.859,0.22 -0.859,0.58 0,0.32 0.18,0.46 0.7,0.55 l 0.889,0.17 c 1,0.18 1.479,0.64 1.479,1.389 0,0.919 -0.88,1.629 -2.049,1.629 -0.859,0 -1.619,-0.24 -2.148,-0.68 z" id="path202"></path>
  </g>
  <g id="g206" transform="translate(-9.7690001,-11.748001)">
    <circle class="uuid-5f205065-be4c-4eb4-bf5e-0be7343e9d0e" cx="67.957001" cy="143.92101" r="3.7639999" id="circle202"></circle>
    <path class="uuid-5f205065-be4c-4eb4-bf5e-0be7343e9d0e" d="m 48.727,170.388 c 0,2.075 1.689,3.764 3.765,3.764 2.076,0 3.764,-1.689 3.764,-3.764 0,-2.075 -1.689,-3.764 -3.764,-3.764 -2.075,0 -3.765,1.688 -3.765,3.764 z" id="path203"></path>
    <path class="uuid-5f205065-be4c-4eb4-bf5e-0be7343e9d0e" d="m 64.192,170.388 c 0,2.075 1.689,3.764 3.764,3.764 2.075,0 3.764,-1.689 3.764,-3.764 0,-2.075 -1.689,-3.764 -3.764,-3.764 -2.075,0 -3.764,1.688 -3.764,3.764 z" id="path204"></path>
    <path class="uuid-5f205065-be4c-4eb4-bf5e-0be7343e9d0e" d="m 83.325,166.624 c -2.076,0 -3.764,1.688 -3.764,3.764 0,2.076 1.689,3.764 3.764,3.764 2.075,0 3.764,-1.689 3.764,-3.764 0,-2.075 -1.689,-3.764 -3.764,-3.764 z" id="path205"></path>
    <path class="uuid-e15b26b3-951f-42d8-a6aa-49dd73b3fd87" d="m 83.86,165.629 v -11.182 c 0,-0.284 -0.229,-0.513 -0.513,-0.513 H 68.448 v -5.247 c 2.412,-0.247 4.3,-2.29 4.3,-4.766 0,-2.642 -2.15,-4.791 -4.791,-4.791 -2.641,0 -4.791,2.15 -4.791,4.791 0,2.461 1.865,4.492 4.256,4.759 v 5.254 H 52.523 c -0.284,0 -0.513,0.229 -0.513,0.513 v 11.175 c -2.416,0.243 -4.309,2.287 -4.309,4.766 0,2.642 2.149,4.791 4.792,4.791 2.643,0 4.791,-2.149 4.791,-4.791 0,-2.458 -1.861,-4.487 -4.247,-4.758 v -10.669 h 14.386 v 10.668 c -2.391,0.267 -4.256,2.298 -4.256,4.759 0,2.642 2.149,4.791 4.791,4.791 2.642,0 4.791,-2.149 4.791,-4.791 0,-2.476 -1.888,-4.52 -4.3,-4.766 v -10.661 h 14.386 v 10.662 c -2.412,0.246 -4.3,2.29 -4.3,4.766 0,2.642 2.149,4.791 4.791,4.791 2.642,0 4.791,-2.149 4.791,-4.791 0,-2.461 -1.866,-4.492 -4.256,-4.759 z m -27.604,4.759 c 0,2.075 -1.689,3.764 -3.764,3.764 -2.075,0 -3.765,-1.689 -3.765,-3.764 0,-2.075 1.689,-3.764 3.765,-3.764 2.076,0 3.764,1.688 3.764,3.764 z m 15.465,0 c 0,2.075 -1.689,3.764 -3.764,3.764 -2.075,0 -3.764,-1.689 -3.764,-3.764 0,-2.075 1.689,-3.764 3.764,-3.764 2.075,0 3.764,1.688 3.764,3.764 z m -3.764,-22.703 c -2.075,0 -3.764,-1.689 -3.764,-3.764 0,-2.075 1.689,-3.764 3.764,-3.764 2.075,0 3.764,1.689 3.764,3.764 0,2.075 -1.689,3.764 -3.764,3.764 z m 15.368,26.467 c -2.076,0 -3.764,-1.689 -3.764,-3.764 0,-2.075 1.689,-3.764 3.764,-3.764 2.075,0 3.764,1.688 3.764,3.764 0,2.076 -1.689,3.764 -3.764,3.764 z" id="path206"></path>
  </g>
  <g id="g210" transform="translate(-9.7690001,-11.748001)">
    <circle class="uuid-5f205065-be4c-4eb4-bf5e-0be7343e9d0e" cx="527.41602" cy="143.92101" r="3.7639999" id="circle206"></circle>
    <path class="uuid-5f205065-be4c-4eb4-bf5e-0be7343e9d0e" d="m 508.187,170.388 c 0,2.075 1.689,3.764 3.765,3.764 2.076,0 3.764,-1.689 3.764,-3.764 0,-2.075 -1.689,-3.764 -3.764,-3.764 -2.075,0 -3.765,1.688 -3.765,3.764 z" id="path207"></path>
    <path class="uuid-5f205065-be4c-4eb4-bf5e-0be7343e9d0e" d="m 523.652,170.388 c 0,2.075 1.689,3.764 3.764,3.764 2.075,0 3.764,-1.689 3.764,-3.764 0,-2.075 -1.689,-3.764 -3.764,-3.764 -2.075,0 -3.764,1.688 -3.764,3.764 z" id="path208"></path>
    <path class="uuid-5f205065-be4c-4eb4-bf5e-0be7343e9d0e" d="m 542.785,166.624 c -2.076,0 -3.764,1.688 -3.764,3.764 0,2.076 1.689,3.764 3.764,3.764 2.075,0 3.764,-1.689 3.764,-3.764 0,-2.075 -1.689,-3.764 -3.764,-3.764 z" id="path209"></path>
    <path class="uuid-e15b26b3-951f-42d8-a6aa-49dd73b3fd87" d="m 543.32,165.629 v -11.182 c 0,-0.284 -0.229,-0.513 -0.513,-0.513 h -14.899 v -5.247 c 2.412,-0.247 4.3,-2.29 4.3,-4.766 0,-2.642 -2.15,-4.791 -4.791,-4.791 -2.641,0 -4.791,2.15 -4.791,4.791 0,2.461 1.865,4.492 4.256,4.759 v 5.254 h -14.899 c -0.284,0 -0.513,0.229 -0.513,0.513 v 11.175 c -2.416,0.243 -4.309,2.287 -4.309,4.766 0,2.642 2.149,4.791 4.792,4.791 2.643,0 4.791,-2.149 4.791,-4.791 0,-2.458 -1.861,-4.487 -4.247,-4.758 v -10.669 h 14.386 v 10.668 c -2.391,0.267 -4.256,2.298 -4.256,4.759 0,2.642 2.149,4.791 4.791,4.791 2.642,0 4.791,-2.149 4.791,-4.791 0,-2.476 -1.888,-4.52 -4.3,-4.766 v -10.661 h 14.386 v 10.662 c -2.412,0.246 -4.3,2.29 -4.3,4.766 0,2.642 2.149,4.791 4.791,4.791 2.642,0 4.791,-2.149 4.791,-4.791 0,-2.461 -1.866,-4.492 -4.256,-4.759 z m -27.604,4.759 c 0,2.075 -1.689,3.764 -3.764,3.764 -2.075,0 -3.765,-1.689 -3.765,-3.764 0,-2.075 1.689,-3.764 3.765,-3.764 2.076,0 3.764,1.688 3.764,3.764 z m 15.465,0 c 0,2.075 -1.689,3.764 -3.764,3.764 -2.075,0 -3.764,-1.689 -3.764,-3.764 0,-2.075 1.689,-3.764 3.764,-3.764 2.075,0 3.764,1.688 3.764,3.764 z m -3.765,-22.703 c -2.075,0 -3.764,-1.689 -3.764,-3.764 0,-2.075 1.689,-3.764 3.764,-3.764 2.075,0 3.764,1.689 3.764,3.764 0,2.075 -1.689,3.764 -3.764,3.764 z m 15.369,26.467 c -2.076,0 -3.764,-1.689 -3.764,-3.764 0,-2.075 1.689,-3.764 3.764,-3.764 2.075,0 3.764,1.688 3.764,3.764 0,2.076 -1.689,3.764 -3.764,3.764 z" id="path210"></path>
  </g>
  <g id="g237" transform="translate(-9.7690001,-11.748001)">
    <path class="uuid-04167577-47f9-4cad-a697-658790db4288" d="m 508.133,179.316 h 1.169 l 3.648,5.087 -0.021,-5.087 h 1.13 v 6.996 h -1.069 l -3.748,-5.227 0.02,5.227 h -1.129 z" id="path211"></path>
    <path class="uuid-04167577-47f9-4cad-a697-658790db4288" d="m 515.373,183.813 c 0,-1.469 1.06,-2.589 2.438,-2.589 1.369,0 2.369,1.089 2.369,2.589 v 0.27 h -3.698 c 0.109,0.81 0.72,1.399 1.499,1.399 0.47,0 0.909,-0.18 1.189,-0.47 l 0.739,0.669 c -0.609,0.51 -1.219,0.73 -1.979,0.73 -1.439,0 -2.559,-1.129 -2.559,-2.599 z m 3.737,-0.429 c -0.119,-0.73 -0.64,-1.239 -1.309,-1.239 -0.68,0 -1.18,0.49 -1.31,1.239 h 2.618 z" id="path212"></path>
    <path class="uuid-04167577-47f9-4cad-a697-658790db4288" d="m 521.952,185.013 v -2.809 h -0.999 v -0.899 h 0.999 v -1.379 l 1.13,-0.24 v 1.619 h 1.389 v 0.899 h -1.389 v 2.559 c 0,0.49 0.189,0.68 0.699,0.68 0.22,0 0.38,-0.03 0.68,-0.12 v 0.949 c -0.29,0.09 -0.67,0.14 -0.97,0.14 -1.009,0 -1.539,-0.48 -1.539,-1.399 z" id="path213"></path>
    <path class="uuid-04167577-47f9-4cad-a697-658790db4288" d="m 525.003,181.305 h 1.079 l 0.88,3.528 1.039,-3.528 h 0.949 l 1.029,3.528 0.88,-3.528 h 1.05 l -1.35,5.007 h -1.079 l -1.02,-3.528 -1.01,3.528 h -1.1 l -1.349,-5.007 z" id="path214"></path>
    <path class="uuid-04167577-47f9-4cad-a697-658790db4288" d="m 532.603,183.813 c 0,-1.479 1.08,-2.589 2.519,-2.589 1.43,0 2.509,1.109 2.509,2.589 0,1.48 -1.079,2.588 -2.509,2.588 -1.438,0 -2.519,-1.109 -2.519,-2.588 z m 3.918,0 c 0,-0.93 -0.59,-1.629 -1.399,-1.629 -0.819,0 -1.409,0.7 -1.409,1.629 0,0.939 0.59,1.629 1.409,1.629 0.81,0 1.399,-0.689 1.399,-1.629 z" id="path215"></path>
    <path class="uuid-04167577-47f9-4cad-a697-658790db4288" d="m 538.803,181.305 h 1.129 v 1.08 c 0.28,-0.76 0.76,-1.169 1.379,-1.169 0.19,0.01 0.32,0.03 0.49,0.1 v 0.989 c -0.18,-0.07 -0.41,-0.12 -0.62,-0.12 -0.549,0 -0.999,0.31 -1.249,0.83 v 3.298 h -1.129 v -5.007 z" id="path216"></path>
    <path class="uuid-04167577-47f9-4cad-a697-658790db4288" d="m 542.732,179.126 1.129,-0.19 v 4.498 l 2.079,-2.129 h 1.299 l -2.309,2.319 2.429,2.688 h -1.439 l -2.059,-2.309 v 2.309 h -1.129 z" id="path217"></path>
    <path class="uuid-04167577-47f9-4cad-a697-658790db4288" d="m 500.418,195.873 c 0,-0.899 0.739,-1.469 1.919,-1.469 0.47,0 0.909,0.1 1.35,0.32 v -0.56 c 0,-0.66 -0.38,-1 -1.149,-1 -0.42,0 -0.88,0.12 -1.459,0.39 l -0.4,-0.82 c 0.75,-0.34 1.409,-0.51 2.079,-0.51 1.31,0 2.049,0.66 2.049,1.819 v 3.268 h -1.119 v -0.52 c -0.43,0.419 -0.91,0.609 -1.489,0.609 -1.05,0 -1.779,-0.629 -1.779,-1.529 z m 2.089,0.73 c 0.45,0 0.84,-0.13 1.18,-0.42 v -0.81 c -0.36,-0.17 -0.72,-0.24 -1.149,-0.24 -0.649,0 -1.06,0.27 -1.06,0.72 0,0.459 0.399,0.75 1.029,0.75 z" id="path218"></path>
    <path class="uuid-04167577-47f9-4cad-a697-658790db4288" d="m 506.798,196.013 v -2.809 h -1 v -0.899 h 1 v -1.379 l 1.129,-0.24 v 1.619 h 1.39 v 0.899 h -1.39 v 2.559 c 0,0.49 0.19,0.68 0.7,0.68 0.22,0 0.379,-0.03 0.68,-0.12 v 0.949 c -0.29,0.09 -0.67,0.14 -0.97,0.14 -1.01,0 -1.539,-0.48 -1.539,-1.399 z" id="path219"></path>
    <path class="uuid-04167577-47f9-4cad-a697-658790db4288" d="m 510.938,196.013 v -2.809 h -1 v -0.899 h 1 v -1.379 l 1.129,-0.24 v 1.619 h 1.39 v 0.899 h -1.39 v 2.559 c 0,0.49 0.19,0.68 0.7,0.68 0.22,0 0.379,-0.03 0.68,-0.12 v 0.949 c -0.29,0.09 -0.67,0.14 -0.97,0.14 -1.01,0 -1.539,-0.48 -1.539,-1.399 z" id="path220"></path>
    <path class="uuid-04167577-47f9-4cad-a697-658790db4288" d="m 514.198,195.873 c 0,-0.899 0.739,-1.469 1.919,-1.469 0.47,0 0.909,0.1 1.349,0.32 v -0.56 c 0,-0.66 -0.38,-1 -1.149,-1 -0.42,0 -0.879,0.12 -1.459,0.39 l -0.399,-0.82 c 0.749,-0.34 1.409,-0.51 2.078,-0.51 1.31,0 2.049,0.66 2.049,1.819 v 3.268 h -1.119 v -0.52 c -0.43,0.419 -0.909,0.609 -1.489,0.609 -1.049,0 -1.778,-0.629 -1.778,-1.529 z m 2.089,0.73 c 0.449,0 0.839,-0.13 1.179,-0.42 v -0.81 c -0.359,-0.17 -0.72,-0.24 -1.149,-0.24 -0.649,0 -1.06,0.27 -1.06,0.72 0,0.459 0.4,0.75 1.03,0.75 z" id="path221"></path>
    <path class="uuid-04167577-47f9-4cad-a697-658790db4288" d="m 519.728,194.813 c 0,-1.449 1.1,-2.589 2.528,-2.589 0.779,0 1.499,0.31 1.999,0.85 l -0.699,0.729 c -0.351,-0.39 -0.78,-0.589 -1.26,-0.589 -0.81,0 -1.439,0.7 -1.439,1.599 0,0.909 0.63,1.599 1.439,1.599 0.479,0 0.909,-0.2 1.26,-0.58 l 0.699,0.719 c -0.5,0.54 -1.22,0.85 -1.999,0.85 -1.429,0 -2.528,-1.129 -2.528,-2.588 z" id="path222"></path>
    <path class="uuid-04167577-47f9-4cad-a697-658790db4288" d="m 525.188,190.146 1.129,-0.2 v 3.178 c 0.38,-0.59 0.93,-0.9 1.579,-0.9 1.029,0 1.749,0.73 1.749,1.789 v 3.298 h -1.14 v -2.979 c 0,-0.729 -0.43,-1.199 -1.099,-1.199 -0.46,0 -0.83,0.21 -1.09,0.61 v 3.568 h -1.129 v -7.166 z" id="path223"></path>
    <path class="uuid-04167577-47f9-4cad-a697-658790db4288" d="m 531.007,192.305 h 1.13 v 0.79 c 0.369,-0.57 0.869,-0.87 1.479,-0.87 0.69,0 1.22,0.37 1.479,0.959 0.39,-0.629 0.949,-0.959 1.659,-0.959 0.97,0 1.639,0.75 1.639,1.809 v 3.278 h -1.129 v -3.028 c 0,-0.7 -0.39,-1.149 -1.01,-1.149 -0.409,0 -0.749,0.19 -0.999,0.6 0.01,0.1 0.02,0.2 0.02,0.3 v 3.278 h -1.139 v -3.028 c 0,-0.7 -0.391,-1.149 -1.01,-1.149 -0.41,0 -0.739,0.19 -0.989,0.58 v 3.598 h -1.13 v -5.007 z" id="path224"></path>
    <path class="uuid-04167577-47f9-4cad-a697-658790db4288" d="m 539.537,194.813 c 0,-1.469 1.06,-2.589 2.438,-2.589 1.37,0 2.369,1.089 2.369,2.589 v 0.27 h -3.698 c 0.11,0.81 0.72,1.399 1.499,1.399 0.47,0 0.91,-0.18 1.189,-0.47 l 0.74,0.669 c -0.61,0.51 -1.22,0.73 -1.979,0.73 -1.438,0 -2.559,-1.129 -2.559,-2.599 z m 3.738,-0.429 c -0.12,-0.73 -0.64,-1.239 -1.31,-1.239 -0.68,0 -1.179,0.49 -1.309,1.239 h 2.618 z" id="path225"></path>
    <path class="uuid-04167577-47f9-4cad-a697-658790db4288" d="m 545.497,192.305 h 1.13 v 0.82 c 0.38,-0.59 0.929,-0.9 1.579,-0.9 1.029,0 1.749,0.73 1.749,1.789 v 3.298 h -1.14 v -2.979 c 0,-0.729 -0.43,-1.199 -1.1,-1.199 -0.46,0 -0.829,0.21 -1.089,0.61 v 3.568 h -1.13 v -5.007 z" id="path226"></path>
    <path class="uuid-04167577-47f9-4cad-a697-658790db4288" d="m 551.937,196.013 v -2.809 h -0.999 v -0.899 h 0.999 v -1.379 l 1.13,-0.24 v 1.619 h 1.389 v 0.899 h -1.389 v 2.559 c 0,0.49 0.189,0.68 0.699,0.68 0.22,0 0.38,-0.03 0.68,-0.12 v 0.949 c -0.29,0.09 -0.67,0.14 -0.97,0.14 -1.009,0 -1.539,-0.48 -1.539,-1.399 z" id="path227"></path>
    <path class="uuid-04167577-47f9-4cad-a697-658790db4288" d="m 505.213,205.813 c 0,-1.429 1.029,-2.549 2.339,-2.549 0.569,0 1.09,0.23 1.459,0.65 v -2.769 l 1.13,-0.2 v 7.366 h -1.119 v -0.66 c -0.36,0.45 -0.92,0.709 -1.55,0.709 -1.27,0 -2.259,-1.129 -2.259,-2.548 z m 3.798,1.05 v -2.109 c -0.289,-0.34 -0.72,-0.54 -1.189,-0.54 -0.859,0 -1.499,0.68 -1.499,1.599 0,0.909 0.64,1.599 1.499,1.599 0.49,0 0.9,-0.19 1.189,-0.55 z" id="path228"></path>
    <path class="uuid-04167577-47f9-4cad-a697-658790db4288" d="m 511.313,205.813 c 0,-1.469 1.06,-2.589 2.438,-2.589 1.369,0 2.369,1.089 2.369,2.589 v 0.27 h -3.698 c 0.109,0.81 0.72,1.399 1.499,1.399 0.47,0 0.909,-0.18 1.189,-0.47 l 0.739,0.669 c -0.609,0.51 -1.219,0.73 -1.979,0.73 -1.439,0 -2.559,-1.129 -2.559,-2.599 z m 3.738,-0.429 c -0.119,-0.73 -0.64,-1.239 -1.309,-1.239 -0.68,0 -1.18,0.49 -1.31,1.239 h 2.618 z" id="path229"></path>
    <path class="uuid-04167577-47f9-4cad-a697-658790db4288" d="m 517.952,204.204 h -1.079 v -0.899 h 1.079 v -0.859 c 0,-1.089 0.609,-1.679 1.729,-1.679 0.279,0 0.56,0.03 0.749,0.09 v 0.959 c -0.25,-0.05 -0.399,-0.07 -0.6,-0.07 -0.52,0 -0.749,0.23 -0.749,0.72 v 0.839 h 1.349 v 0.899 h -1.349 v 4.108 h -1.13 v -4.108 z" id="path230"></path>
    <path class="uuid-04167577-47f9-4cad-a697-658790db4288" d="m 521.243,201.596 c 0,-0.38 0.31,-0.7 0.699,-0.7 0.38,0 0.7,0.32 0.7,0.7 0,0.38 -0.32,0.689 -0.7,0.689 -0.39,0 -0.699,-0.31 -0.699,-0.689 z m 0.13,1.709 h 1.129 v 5.007 h -1.129 z" id="path231"></path>
    <path class="uuid-04167577-47f9-4cad-a697-658790db4288" d="m 523.903,203.305 h 1.129 v 0.82 c 0.38,-0.59 0.93,-0.9 1.579,-0.9 1.029,0 1.749,0.73 1.749,1.789 v 3.298 h -1.14 v -2.979 c 0,-0.729 -0.43,-1.199 -1.099,-1.199 -0.46,0 -0.83,0.21 -1.09,0.61 v 3.568 h -1.129 v -5.007 z" id="path232"></path>
    <path class="uuid-04167577-47f9-4cad-a697-658790db4288" d="m 529.583,201.596 c 0,-0.38 0.31,-0.7 0.699,-0.7 0.38,0 0.7,0.32 0.7,0.7 0,0.38 -0.32,0.689 -0.7,0.689 -0.39,0 -0.699,-0.31 -0.699,-0.689 z m 0.13,1.709 h 1.129 v 5.007 h -1.129 z" id="path233"></path>
    <path class="uuid-04167577-47f9-4cad-a697-658790db4288" d="m 532.862,207.013 v -2.809 h -0.999 v -0.899 h 0.999 v -1.379 l 1.13,-0.24 v 1.619 h 1.389 v 0.899 h -1.389 v 2.559 c 0,0.49 0.189,0.68 0.699,0.68 0.22,0 0.38,-0.03 0.68,-0.12 v 0.949 c -0.29,0.09 -0.67,0.14 -0.97,0.14 -1.009,0 -1.539,-0.48 -1.539,-1.399 z" id="path234"></path>
    <path class="uuid-04167577-47f9-4cad-a697-658790db4288" d="m 536.242,201.596 c 0,-0.38 0.311,-0.7 0.7,-0.7 0.38,0 0.699,0.32 0.699,0.7 0,0.38 -0.319,0.689 -0.699,0.689 -0.39,0 -0.7,-0.31 -0.7,-0.689 z m 0.13,1.709 h 1.13 v 5.007 h -1.13 z" id="path235"></path>
    <path class="uuid-04167577-47f9-4cad-a697-658790db4288" d="m 538.673,205.813 c 0,-1.479 1.079,-2.589 2.519,-2.589 1.429,0 2.509,1.109 2.509,2.589 0,1.48 -1.08,2.588 -2.509,2.588 -1.439,0 -2.519,-1.109 -2.519,-2.588 z m 3.918,0 c 0,-0.93 -0.59,-1.629 -1.399,-1.629 -0.819,0 -1.409,0.7 -1.409,1.629 0,0.939 0.59,1.629 1.409,1.629 0.81,0 1.399,-0.689 1.399,-1.629 z" id="path236"></path>
    <path class="uuid-04167577-47f9-4cad-a697-658790db4288" d="m 544.872,203.305 h 1.13 v 0.82 c 0.38,-0.59 0.929,-0.9 1.579,-0.9 1.029,0 1.749,0.73 1.749,1.789 v 3.298 h -1.14 v -2.979 c 0,-0.729 -0.43,-1.199 -1.1,-1.199 -0.46,0 -0.829,0.21 -1.089,0.61 v 3.568 h -1.13 v -5.007 z" id="path237"></path>
  </g>
  <rect class="uuid-5f205065-be4c-4eb4-bf5e-0be7343e9d0e" x="285.98099" y="141.86501" width="3.569" height="5.7649999" id="rect237"></rect>
  <line class="uuid-ff1fbbd2-899a-4e83-b92a-cf6c3e7f989f" x1="287.86899" y1="49.326" x2="287.86899" y2="216.767" id="line237"></line>
  <metadata id="metadata237">
    
      
        
          
            openshift
            mtv
            virtualization
          
        
      
    
  </metadata>
</svg>
