<svg id="uuid-fb39b683-a435-4713-a4ef-f0ea8892ba3e" data-name="Layer 1" width="595.276" height="259.126" viewBox="0 0 595.276 259.126" version="1.1" xmlns="http://www.w3.org/2000/svg">
  
  <defs id="defs1">
    <style id="style1">
      .uuid-8c7f4421-f8f1-449a-9416-bc252e0b7154 {
        fill: none;
        stroke: #000;
        stroke-linecap: round;
        stroke-linejoin: round;
      }

      .uuid-dc441c32-d9ff-4eef-aaac-6ff5dfd60620 {
        stroke: #06c;
        stroke-miterlimit: 10;
      }

      .uuid-dc441c32-d9ff-4eef-aaac-6ff5dfd60620, .uuid-9a949e7e-c7ca-4f60-ae9a-c0edc2104427 {
        fill: #fff;
      }

      .uuid-d836aca3-e9fa-4a49-a49a-a0b398fd9657 {
        fill: #000;
      }

      .uuid-d836aca3-e9fa-4a49-a49a-a0b398fd9657, .uuid-441e20d0-e76a-4aa2-9ff8-bb7251a4014e, .uuid-9a949e7e-c7ca-4f60-ae9a-c0edc2104427, .uuid-791bc555-d575-4159-8f84-ebb69c60db3f {
        stroke-width: 0px;
      }

      .uuid-441e20d0-e76a-4aa2-9ff8-bb7251a4014e {
        fill: #dbe8f5;
      }

      .uuid-791bc555-d575-4159-8f84-ebb69c60db3f {
        fill: #e6e6e6;
      }
    </style>
  </defs>
  <rect class="uuid-791bc555-d575-4159-8f84-ebb69c60db3f" x="14.697" y="18.353" width="568.997" height="174.402" id="rect1"></rect>
  <rect class="uuid-9a949e7e-c7ca-4f60-ae9a-c0edc2104427" x="24.743" y="54.444" width="548.905" height="77.6" id="rect2"></rect>
  <rect class="uuid-441e20d0-e76a-4aa2-9ff8-bb7251a4014e" x="32.654" y="88.546" width="100.111" height="34.319" id="rect3"></rect>
  <g id="g5">
    <path class="uuid-d836aca3-e9fa-4a49-a49a-a0b398fd9657" d="M33.59,66.406h4.102c1.787,0,2.962,1.164,2.962,2.771,0,1.523-1.175,2.699-2.962,2.699h-2.039v2.926h-2.063v-8.396ZM37.32,70.232c.839,0,1.247-.456,1.247-1.067,0-.6-.408-1.056-1.235-1.056h-1.679v2.123h1.667Z" id="path3"></path>
    <path class="uuid-d836aca3-e9fa-4a49-a49a-a0b398fd9657" d="M41.174,71.719c0-1.823,1.392-3.202,3.227-3.202s3.226,1.379,3.226,3.202-1.391,3.203-3.226,3.203-3.227-1.379-3.227-3.203ZM45.731,71.719c0-.923-.552-1.583-1.331-1.583s-1.332.66-1.332,1.583.552,1.583,1.332,1.583,1.331-.66,1.331-1.583Z" id="path4"></path>
    <path class="uuid-d836aca3-e9fa-4a49-a49a-a0b398fd9657" d="M48.59,71.695c0-1.739,1.271-3.118,2.879-3.118.647,0,1.235.264,1.655.744v-3.058l1.943-.3v8.839h-1.919v-.804c-.408.516-1.091.84-1.823.84-1.523,0-2.735-1.403-2.735-3.143ZM53.124,72.738v-2.087c-.3-.312-.708-.479-1.151-.479-.852,0-1.475.647-1.475,1.535,0,.875.636,1.523,1.475,1.523.468,0,.852-.168,1.151-.492Z" id="path5"></path>
  </g>
  <g id="g15">
    <path class="uuid-d836aca3-e9fa-4a49-a49a-a0b398fd9657" d="M57.205,104.978c0-2.029,1.579-3.608,3.618-3.608,1.069,0,2.089.459,2.729,1.249l-.8.78c-.5-.62-1.189-.95-1.929-.95-1.359,0-2.389,1.089-2.389,2.529s1.029,2.529,2.389,2.529c.739,0,1.429-.33,1.929-.95l.8.78c-.64.79-1.659,1.249-2.729,1.249-2.039,0-3.618-1.579-3.618-3.608Z" id="path6"></path>
    <path class="uuid-d836aca3-e9fa-4a49-a49a-a0b398fd9657" d="M64.245,105.977c0-1.479,1.08-2.589,2.519-2.589,1.429,0,2.509,1.109,2.509,2.589s-1.08,2.588-2.509,2.588c-1.439,0-2.519-1.109-2.519-2.588ZM68.163,105.977c0-.93-.59-1.629-1.399-1.629-.819,0-1.409.7-1.409,1.629,0,.939.59,1.629,1.409,1.629.81,0,1.399-.689,1.399-1.629Z" id="path7"></path>
    <path class="uuid-d836aca3-e9fa-4a49-a49a-a0b398fd9657" d="M70.445,103.468h1.129v.82c.38-.59.929-.9,1.579-.9,1.029,0,1.749.73,1.749,1.789v3.298h-1.14v-2.979c0-.729-.43-1.199-1.099-1.199-.46,0-.83.21-1.089.61v3.568h-1.129v-5.007Z" id="path8"></path>
    <path class="uuid-d836aca3-e9fa-4a49-a49a-a0b398fd9657" d="M76.734,107.176v-2.809h-1v-.899h1v-1.379l1.129-.24v1.619h1.389v.899h-1.389v2.559c0,.49.19.68.7.68.22,0,.379-.03.68-.12v.949c-.29.09-.67.14-.97.14-1.009,0-1.539-.48-1.539-1.399Z" id="path9"></path>
    <path class="uuid-d836aca3-e9fa-4a49-a49a-a0b398fd9657" d="M79.995,107.036c0-.899.739-1.469,1.919-1.469.47,0,.909.1,1.349.32v-.56c0-.66-.38-1-1.149-1-.42,0-.879.12-1.459.39l-.4-.82c.75-.34,1.409-.51,2.079-.51,1.31,0,2.049.66,2.049,1.819v3.268h-1.119v-.52c-.43.419-.91.609-1.489.609-1.049,0-1.779-.629-1.779-1.529ZM82.083,107.766c.45,0,.839-.13,1.179-.42v-.81c-.36-.17-.72-.24-1.149-.24-.649,0-1.06.27-1.06.72,0,.459.4.75,1.03.75Z" id="path10"></path>
    <path class="uuid-d836aca3-e9fa-4a49-a49a-a0b398fd9657" d="M85.614,101.759c0-.38.31-.7.7-.7.38,0,.7.32.7.7s-.32.689-.7.689c-.39,0-.7-.31-.7-.689ZM85.744,103.468h1.129v5.007h-1.129v-5.007Z" id="path11"></path>
    <path class="uuid-d836aca3-e9fa-4a49-a49a-a0b398fd9657" d="M88.274,103.468h1.129v.82c.38-.59.929-.9,1.579-.9,1.029,0,1.749.73,1.749,1.789v3.298h-1.14v-2.979c0-.729-.43-1.199-1.099-1.199-.46,0-.83.21-1.089.61v3.568h-1.129v-5.007Z" id="path12"></path>
    <path class="uuid-d836aca3-e9fa-4a49-a49a-a0b398fd9657" d="M93.864,105.977c0-1.469,1.06-2.589,2.438-2.589,1.37,0,2.369,1.089,2.369,2.589v.27h-3.698c.11.81.72,1.399,1.499,1.399.47,0,.91-.18,1.189-.47l.74.669c-.61.51-1.219.73-1.979.73-1.439,0-2.559-1.129-2.559-2.599ZM97.602,105.547c-.12-.73-.64-1.239-1.309-1.239-.68,0-1.179.49-1.309,1.239h2.618Z" id="path13"></path>
    <path class="uuid-d836aca3-e9fa-4a49-a49a-a0b398fd9657" d="M99.824,103.468h1.129v1.08c.28-.76.759-1.169,1.379-1.169.19.01.32.03.49.1v.989c-.18-.07-.41-.12-.62-.12-.549,0-1,.31-1.249.83v3.298h-1.129v-5.007Z" id="path14"></path>
    <path class="uuid-d836aca3-e9fa-4a49-a49a-a0b398fd9657" d="M106.913,102.629l-1.239.53v-.97l1.639-.709h.69v6.996h-1.09v-5.847Z" id="path15"></path>
  </g>
  <g id="g19">
    <path class="uuid-d836aca3-e9fa-4a49-a49a-a0b398fd9657" d="M25.678,31.827h1.943l3.73,5.085-.036-5.085h1.943v8.396h-1.823l-3.85-5.253.036,5.253h-1.943v-8.396Z" id="path16"></path>
    <path class="uuid-d836aca3-e9fa-4a49-a49a-a0b398fd9657" d="M34.678,37.14c0-1.823,1.392-3.202,3.227-3.202s3.226,1.379,3.226,3.202-1.391,3.203-3.226,3.203-3.227-1.379-3.227-3.203ZM39.236,37.14c0-.923-.552-1.583-1.331-1.583s-1.332.66-1.332,1.583.552,1.583,1.332,1.583,1.331-.66,1.331-1.583Z" id="path17"></path>
    <path class="uuid-d836aca3-e9fa-4a49-a49a-a0b398fd9657" d="M42.094,37.116c0-1.739,1.271-3.118,2.879-3.118.647,0,1.235.264,1.655.744v-3.058l1.943-.3v8.839h-1.919v-.804c-.408.516-1.091.84-1.823.84-1.523,0-2.735-1.403-2.735-3.143ZM46.628,38.16v-2.087c-.3-.312-.708-.479-1.151-.479-.852,0-1.475.647-1.475,1.535,0,.875.636,1.523,1.475,1.523.468,0,.852-.168,1.151-.492Z" id="path18"></path>
    <path class="uuid-d836aca3-e9fa-4a49-a49a-a0b398fd9657" d="M49.81,37.14c0-1.811,1.344-3.202,3.119-3.202,1.787,0,3.046,1.355,3.046,3.274v.419h-4.258c.18.696.744,1.164,1.451,1.164.516,0,.947-.18,1.223-.516l1.284,1.067c-.804.708-1.56.996-2.603.996-1.823,0-3.263-1.403-3.263-3.203ZM54.176,36.529c-.168-.66-.636-1.08-1.259-1.08-.611,0-1.043.396-1.199,1.08h2.458Z" id="path19"></path>
  </g>
  <rect class="uuid-441e20d0-e76a-4aa2-9ff8-bb7251a4014e" x="140.726" y="88.546" width="100.111" height="34.319" id="rect19"></rect>
  <rect class="uuid-441e20d0-e76a-4aa2-9ff8-bb7251a4014e" x="248.799" y="88.546" width="100.111" height="34.319" id="rect20"></rect>
  <rect class="uuid-441e20d0-e76a-4aa2-9ff8-bb7251a4014e" x="356.871" y="88.546" width="100.111" height="34.319" id="rect21"></rect>
  <rect class="uuid-441e20d0-e76a-4aa2-9ff8-bb7251a4014e" x="464.943" y="88.546" width="100.111" height="34.319" id="rect22"></rect>
  <g id="g31">
    <path class="uuid-d836aca3-e9fa-4a49-a49a-a0b398fd9657" d="M164.132,104.978c0-2.029,1.579-3.608,3.618-3.608,1.069,0,2.089.459,2.729,1.249l-.8.78c-.5-.62-1.189-.95-1.929-.95-1.359,0-2.389,1.089-2.389,2.529s1.029,2.529,2.389,2.529c.739,0,1.429-.33,1.929-.95l.8.78c-.64.79-1.659,1.249-2.729,1.249-2.039,0-3.618-1.579-3.618-3.608Z" id="path22"></path>
    <path class="uuid-d836aca3-e9fa-4a49-a49a-a0b398fd9657" d="M171.172,105.977c0-1.479,1.08-2.589,2.519-2.589,1.429,0,2.509,1.109,2.509,2.589s-1.08,2.588-2.509,2.588c-1.439,0-2.519-1.109-2.519-2.588ZM175.09,105.977c0-.93-.59-1.629-1.399-1.629-.819,0-1.409.7-1.409,1.629,0,.939.59,1.629,1.409,1.629.81,0,1.399-.689,1.399-1.629Z" id="path23"></path>
    <path class="uuid-d836aca3-e9fa-4a49-a49a-a0b398fd9657" d="M177.372,103.468h1.129v.82c.38-.59.929-.9,1.579-.9,1.029,0,1.749.73,1.749,1.789v3.298h-1.14v-2.979c0-.729-.43-1.199-1.099-1.199-.46,0-.83.21-1.089.61v3.568h-1.129v-5.007Z" id="path24"></path>
    <path class="uuid-d836aca3-e9fa-4a49-a49a-a0b398fd9657" d="M183.662,107.176v-2.809h-1v-.899h1v-1.379l1.129-.24v1.619h1.389v.899h-1.389v2.559c0,.49.19.68.7.68.22,0,.379-.03.68-.12v.949c-.29.09-.67.14-.97.14-1.009,0-1.539-.48-1.539-1.399Z" id="path25"></path>
    <path class="uuid-d836aca3-e9fa-4a49-a49a-a0b398fd9657" d="M186.922,107.036c0-.899.739-1.469,1.919-1.469.47,0,.909.1,1.349.32v-.56c0-.66-.38-1-1.149-1-.42,0-.879.12-1.459.39l-.4-.82c.75-.34,1.409-.51,2.079-.51,1.31,0,2.049.66,2.049,1.819v3.268h-1.119v-.52c-.43.419-.91.609-1.489.609-1.049,0-1.779-.629-1.779-1.529ZM189.011,107.766c.45,0,.839-.13,1.179-.42v-.81c-.36-.17-.72-.24-1.149-.24-.649,0-1.06.27-1.06.72,0,.459.4.75,1.03.75Z" id="path26"></path>
    <path class="uuid-d836aca3-e9fa-4a49-a49a-a0b398fd9657" d="M192.542,101.759c0-.38.31-.7.7-.7.38,0,.7.32.7.7s-.32.689-.7.689c-.39,0-.7-.31-.7-.689ZM192.671,103.468h1.129v5.007h-1.129v-5.007Z" id="path27"></path>
    <path class="uuid-d836aca3-e9fa-4a49-a49a-a0b398fd9657" d="M195.202,103.468h1.129v.82c.38-.59.929-.9,1.579-.9,1.029,0,1.749.73,1.749,1.789v3.298h-1.14v-2.979c0-.729-.43-1.199-1.099-1.199-.46,0-.83.21-1.089.61v3.568h-1.129v-5.007Z" id="path28"></path>
    <path class="uuid-d836aca3-e9fa-4a49-a49a-a0b398fd9657" d="M200.792,105.977c0-1.469,1.06-2.589,2.438-2.589,1.37,0,2.369,1.089,2.369,2.589v.27h-3.698c.11.81.72,1.399,1.499,1.399.47,0,.91-.18,1.189-.47l.74.669c-.61.51-1.219.73-1.979.73-1.439,0-2.559-1.129-2.559-2.599ZM204.529,105.547c-.12-.73-.64-1.239-1.309-1.239-.68,0-1.179.49-1.309,1.239h2.618Z" id="path29"></path>
    <path class="uuid-d836aca3-e9fa-4a49-a49a-a0b398fd9657" d="M206.751,103.468h1.129v1.08c.28-.76.759-1.169,1.379-1.169.19.01.32.03.49.1v.989c-.18-.07-.41-.12-.62-.12-.549,0-.999.31-1.249.83v3.298h-1.129v-5.007Z" id="path30"></path>
    <path class="uuid-d836aca3-e9fa-4a49-a49a-a0b398fd9657" d="M213.461,103.468h1.109l-.16.75c.46-.53,1-.81,1.609-.81,1.069,0,1.649.79,1.399,1.899l-.68,3.168h-1.109l.63-2.898c.17-.76-.18-1.279-.87-1.279-.41,0-.79.19-1.109.55l-.79,3.628h-1.119l1.089-5.007Z" id="path31"></path>
  </g>
  <g id="g35">
    <path class="uuid-d836aca3-e9fa-4a49-a49a-a0b398fd9657" d="M290.074,103.468h1.129v.82c.38-.59.929-.9,1.579-.9,1.029,0,1.749.73,1.749,1.789v3.298h-1.14v-2.979c0-.729-.43-1.199-1.099-1.199-.46,0-.83.21-1.089.61v3.568h-1.129v-5.007Z" id="path32"></path>
    <path class="uuid-d836aca3-e9fa-4a49-a49a-a0b398fd9657" d="M295.664,105.977c0-1.469,1.06-2.589,2.438-2.589,1.37,0,2.369,1.089,2.369,2.589v.27h-3.698c.11.81.72,1.399,1.499,1.399.47,0,.91-.18,1.189-.47l.74.669c-.61.51-1.22.73-1.979.73-1.439,0-2.559-1.129-2.559-2.599ZM299.402,105.547c-.12-.73-.64-1.239-1.31-1.239-.68,0-1.179.49-1.309,1.239h2.619Z" id="path33"></path>
    <path class="uuid-d836aca3-e9fa-4a49-a49a-a0b398fd9657" d="M302.094,107.176v-2.809h-.999v-.899h.999v-1.379l1.13-.24v1.619h1.389v.899h-1.389v2.559c0,.49.189.68.699.68.22,0,.38-.03.68-.12v.949c-.29.09-.67.14-.97.14-1.009,0-1.539-.48-1.539-1.399Z" id="path34"></path>
    <path class="uuid-d836aca3-e9fa-4a49-a49a-a0b398fd9657" d="M306.523,102.629l-1.239.53v-.97l1.639-.709h.69v6.996h-1.09v-5.847Z" id="path35"></path>
  </g>
  <rect class="uuid-dc441c32-d9ff-4eef-aaac-6ff5dfd60620" x="248.799" y="205.754" width="100.111" height="34.319" id="rect35"></rect>
  <g id="g51">
    <path class="uuid-d836aca3-e9fa-4a49-a49a-a0b398fd9657" d="M257.05,218.688h5.007v1.02h-3.808v1.949h2.658v1h-2.658v2.009h3.848v1.02h-5.047v-6.996Z" id="path36"></path>
    <path class="uuid-d836aca3-e9fa-4a49-a49a-a0b398fd9657" d="M264.579,223.105l-1.809-2.429h1.33l1.169,1.649,1.169-1.649h1.27l-1.829,2.458,1.909,2.549h-1.319l-1.259-1.749-1.259,1.749h-1.259l1.889-2.579Z" id="path37"></path>
    <path class="uuid-d836aca3-e9fa-4a49-a49a-a0b398fd9657" d="M269.13,224.384v-2.809h-1v-.899h1v-1.379l1.129-.24v1.619h1.389v.899h-1.389v2.559c0,.49.19.68.7.68.22,0,.379-.03.68-.12v.949c-.29.09-.67.14-.97.14-1.009,0-1.539-.48-1.539-1.399Z" id="path38"></path>
    <path class="uuid-d836aca3-e9fa-4a49-a49a-a0b398fd9657" d="M272.34,223.185c0-1.469,1.06-2.589,2.438-2.589,1.37,0,2.369,1.089,2.369,2.589v.27h-3.698c.11.81.72,1.399,1.499,1.399.47,0,.91-.18,1.189-.47l.74.669c-.61.51-1.219.73-1.979.73-1.439,0-2.559-1.129-2.559-2.599ZM276.078,222.755c-.12-.73-.64-1.239-1.309-1.239-.68,0-1.179.49-1.309,1.239h2.618Z" id="path39"></path>
    <path class="uuid-d836aca3-e9fa-4a49-a49a-a0b398fd9657" d="M278.3,220.676h1.129v1.08c.28-.76.759-1.169,1.379-1.169.19.01.32.03.49.1v.989c-.18-.07-.41-.12-.62-.12-.549,0-.999.31-1.249.83v3.298h-1.129v-5.007Z" id="path40"></path>
    <path class="uuid-d836aca3-e9fa-4a49-a49a-a0b398fd9657" d="M282.23,220.676h1.129v.82c.38-.59.929-.9,1.579-.9,1.029,0,1.749.73,1.749,1.789v3.298h-1.14v-2.979c0-.729-.43-1.199-1.099-1.199-.46,0-.83.21-1.089.61v3.568h-1.129v-5.007Z" id="path41"></path>
    <path class="uuid-d836aca3-e9fa-4a49-a49a-a0b398fd9657" d="M287.79,224.244c0-.899.739-1.469,1.919-1.469.47,0,.909.1,1.349.32v-.56c0-.66-.38-1-1.149-1-.42,0-.879.12-1.459.39l-.4-.82c.75-.34,1.409-.51,2.079-.51,1.31,0,2.049.66,2.049,1.819v3.268h-1.119v-.52c-.43.419-.91.609-1.489.609-1.049,0-1.779-.629-1.779-1.529ZM289.879,224.974c.45,0,.839-.13,1.179-.42v-.81c-.36-.17-.72-.24-1.149-.24-.649,0-1.06.27-1.06.72,0,.459.4.75,1.03.75Z" id="path42"></path>
    <path class="uuid-d836aca3-e9fa-4a49-a49a-a0b398fd9657" d="M293.55,218.518l1.129-.2v7.366h-1.129v-7.166Z" id="path43"></path>
    <path class="uuid-d836aca3-e9fa-4a49-a49a-a0b398fd9657" d="M298.32,220.676h1.129v.82c.38-.59.93-.9,1.579-.9,1.029,0,1.749.73,1.749,1.789v3.298h-1.14v-2.979c0-.729-.43-1.199-1.099-1.199-.46,0-.83.21-1.09.61v3.568h-1.129v-5.007Z" id="path44"></path>
    <path class="uuid-d836aca3-e9fa-4a49-a49a-a0b398fd9657" d="M303.91,223.185c0-1.469,1.06-2.589,2.438-2.589,1.369,0,2.368,1.089,2.368,2.589v.27h-3.697c.109.81.72,1.399,1.499,1.399.47,0,.909-.18,1.189-.47l.739.669c-.609.51-1.219.73-1.979.73-1.439,0-2.559-1.129-2.559-2.599ZM307.647,222.755c-.119-.73-.64-1.239-1.309-1.239-.68,0-1.18.49-1.31,1.239h2.618Z" id="path45"></path>
    <path class="uuid-d836aca3-e9fa-4a49-a49a-a0b398fd9657" d="M310.339,224.384v-2.809h-.999v-.899h.999v-1.379l1.13-.24v1.619h1.389v.899h-1.389v2.559c0,.49.189.68.699.68.22,0,.38-.03.68-.12v.949c-.29.09-.67.14-.97.14-1.009,0-1.539-.48-1.539-1.399Z" id="path46"></path>
    <path class="uuid-d836aca3-e9fa-4a49-a49a-a0b398fd9657" d="M313.49,220.676h1.079l.88,3.528,1.039-3.528h.949l1.029,3.528.88-3.528h1.05l-1.35,5.007h-1.079l-1.02-3.528-1.01,3.528h-1.1l-1.349-5.007Z" id="path47"></path>
    <path class="uuid-d836aca3-e9fa-4a49-a49a-a0b398fd9657" d="M320.989,223.185c0-1.479,1.08-2.589,2.519-2.589,1.43,0,2.509,1.109,2.509,2.589s-1.079,2.588-2.509,2.588c-1.438,0-2.519-1.109-2.519-2.588ZM324.907,223.185c0-.93-.59-1.629-1.399-1.629-.819,0-1.409.7-1.409,1.629,0,.939.59,1.629,1.409,1.629.81,0,1.399-.689,1.399-1.629Z" id="path48"></path>
    <path class="uuid-d836aca3-e9fa-4a49-a49a-a0b398fd9657" d="M327.189,220.676h1.129v1.08c.28-.76.76-1.169,1.379-1.169.19.01.32.03.49.1v.989c-.18-.07-.41-.12-.62-.12-.549,0-.999.31-1.249.83v3.298h-1.129v-5.007Z" id="path49"></path>
    <path class="uuid-d836aca3-e9fa-4a49-a49a-a0b398fd9657" d="M331.119,218.498l1.13-.19v4.498l2.078-2.129h1.3l-2.309,2.319,2.429,2.688h-1.439l-2.059-2.309v2.309h-1.13v-7.186Z" id="path50"></path>
    <path class="uuid-d836aca3-e9fa-4a49-a49a-a0b398fd9657" d="M339.688,219.837l-1.239.53v-.97l1.639-.709h.69v6.996h-1.09v-5.847Z" id="path51"></path>
  </g>
  <g id="g55">
    <path class="uuid-d836aca3-e9fa-4a49-a49a-a0b398fd9657" d="M397.007,103.468h1.129v.82c.38-.59.93-.9,1.579-.9,1.029,0,1.749.73,1.749,1.789v3.298h-1.14v-2.979c0-.729-.43-1.199-1.099-1.199-.46,0-.83.21-1.09.61v3.568h-1.129v-5.007Z" id="path52"></path>
    <path class="uuid-d836aca3-e9fa-4a49-a49a-a0b398fd9657" d="M402.597,105.977c0-1.469,1.06-2.589,2.438-2.589,1.369,0,2.369,1.089,2.369,2.589v.27h-3.698c.109.81.72,1.399,1.499,1.399.47,0,.909-.18,1.189-.47l.739.669c-.609.51-1.219.73-1.979.73-1.439,0-2.559-1.129-2.559-2.599ZM406.334,105.547c-.119-.73-.64-1.239-1.309-1.239-.68,0-1.18.49-1.31,1.239h2.618Z" id="path53"></path>
    <path class="uuid-d836aca3-e9fa-4a49-a49a-a0b398fd9657" d="M409.026,107.176v-2.809h-1v-.899h1v-1.379l1.129-.24v1.619h1.39v.899h-1.39v2.559c0,.49.19.68.7.68.22,0,.379-.03.68-.12v.949c-.29.09-.67.14-.97.14-1.01,0-1.539-.48-1.539-1.399Z" id="path54"></path>
    <path class="uuid-d836aca3-e9fa-4a49-a49a-a0b398fd9657" d="M412.356,107.686l2.868-2.999c.51-.54.68-.889.68-1.339,0-.58-.54-1.02-1.27-1.02-.649,0-1.149.229-1.819.85l-.619-.75c.77-.709,1.579-1.059,2.459-1.059,1.369,0,2.309.779,2.309,1.919,0,.68-.24,1.169-.989,1.959l-2.229,2.298,3.349-.01v.939h-4.737v-.79Z" id="path55"></path>
  </g>
  <rect class="uuid-dc441c32-d9ff-4eef-aaac-6ff5dfd60620" x="356.871" y="148.714" width="100.111" height="34.319" id="rect55"></rect>
  <g id="g63">
    <path class="uuid-d836aca3-e9fa-4a49-a49a-a0b398fd9657" d="M383.791,161.648h1.17l3.647,5.087-.02-5.087h1.129v6.996h-1.069l-3.748-5.227.021,5.227h-1.13v-6.996Z" id="path56"></path>
    <path class="uuid-d836aca3-e9fa-4a49-a49a-a0b398fd9657" d="M391.031,166.146c0-1.469,1.06-2.589,2.438-2.589,1.37,0,2.369,1.089,2.369,2.589v.27h-3.698c.11.81.72,1.399,1.499,1.399.47,0,.91-.18,1.189-.47l.74.669c-.61.51-1.22.73-1.979.73-1.438,0-2.559-1.129-2.559-2.599ZM394.77,165.716c-.12-.73-.64-1.239-1.31-1.239-.68,0-1.179.49-1.309,1.239h2.618Z" id="path57"></path>
    <path class="uuid-d836aca3-e9fa-4a49-a49a-a0b398fd9657" d="M397.461,167.345v-2.809h-.999v-.899h.999v-1.379l1.13-.24v1.619h1.389v.899h-1.389v2.559c0,.49.189.68.699.68.22,0,.38-.03.68-.12v.949c-.29.09-.67.14-.97.14-1.009,0-1.539-.48-1.539-1.399Z" id="path58"></path>
    <path class="uuid-d836aca3-e9fa-4a49-a49a-a0b398fd9657" d="M400.611,163.637h1.079l.88,3.528,1.039-3.528h.95l1.029,3.528.879-3.528h1.05l-1.35,5.007h-1.079l-1.02-3.528-1.009,3.528h-1.1l-1.35-5.007Z" id="path59"></path>
    <path class="uuid-d836aca3-e9fa-4a49-a49a-a0b398fd9657" d="M408.111,166.146c0-1.479,1.079-2.589,2.519-2.589,1.429,0,2.509,1.109,2.509,2.589s-1.08,2.588-2.509,2.588c-1.439,0-2.519-1.109-2.519-2.588ZM412.029,166.146c0-.93-.59-1.629-1.399-1.629-.819,0-1.409.7-1.409,1.629,0,.939.59,1.629,1.409,1.629.81,0,1.399-.689,1.399-1.629Z" id="path60"></path>
    <path class="uuid-d836aca3-e9fa-4a49-a49a-a0b398fd9657" d="M414.312,163.637h1.129v1.08c.28-.76.76-1.169,1.379-1.169.19.01.32.03.49.1v.989c-.18-.07-.41-.12-.62-.12-.549,0-.999.31-1.249.83v3.298h-1.129v-5.007Z" id="path61"></path>
    <path class="uuid-d836aca3-e9fa-4a49-a49a-a0b398fd9657" d="M418.241,161.458l1.129-.19v4.498l2.079-2.129h1.299l-2.309,2.319,2.429,2.688h-1.439l-2.059-2.309v2.309h-1.129v-7.186Z" id="path62"></path>
    <path class="uuid-d836aca3-e9fa-4a49-a49a-a0b398fd9657" d="M425.711,167.854l2.868-2.999c.51-.54.68-.889.68-1.339,0-.58-.54-1.02-1.27-1.02-.649,0-1.149.229-1.819.85l-.619-.75c.77-.709,1.579-1.059,2.459-1.059,1.369,0,2.309.779,2.309,1.919,0,.68-.24,1.169-.989,1.959l-2.229,2.298,3.349-.01v.939h-4.737v-.79Z" id="path63"></path>
  </g>
  <rect class="uuid-dc441c32-d9ff-4eef-aaac-6ff5dfd60620" x="464.943" y="148.714" width="100.111" height="34.319" id="rect63"></rect>
  <g id="g73">
    <path class="uuid-d836aca3-e9fa-4a49-a49a-a0b398fd9657" d="M486.403,161.648h3.128c1.42,0,2.34.89,2.34,2.179,0,1.259-.92,2.149-2.34,2.149h-1.928v2.668h-1.2v-6.996ZM489.342,164.996c.85,0,1.319-.47,1.319-1.179,0-.69-.47-1.16-1.31-1.16h-1.748v2.339h1.738Z" id="path64"></path>
    <path class="uuid-d836aca3-e9fa-4a49-a49a-a0b398fd9657" d="M492.373,166.146c0-1.479,1.08-2.589,2.52-2.589,1.429,0,2.508,1.109,2.508,2.589s-1.079,2.588-2.508,2.588c-1.439,0-2.52-1.109-2.52-2.588ZM496.291,166.146c0-.93-.59-1.629-1.398-1.629-.82,0-1.41.7-1.41,1.629,0,.939.59,1.629,1.41,1.629.809,0,1.398-.689,1.398-1.629Z" id="path65"></path>
    <path class="uuid-d836aca3-e9fa-4a49-a49a-a0b398fd9657" d="M498.344,166.146c0-1.429,1.029-2.549,2.338-2.549.57,0,1.09.23,1.459.65v-2.769l1.13-.2v7.366h-1.119v-.66c-.36.45-.919.709-1.55.709-1.27,0-2.258-1.129-2.258-2.548ZM502.141,167.195v-2.109c-.289-.34-.719-.54-1.189-.54-.859,0-1.498.68-1.498,1.599,0,.909.639,1.599,1.498,1.599.49,0,.9-.19,1.189-.55Z" id="path66"></path>
    <path class="uuid-d836aca3-e9fa-4a49-a49a-a0b398fd9657" d="M506.924,163.637h1.129v.82c.38-.59.93-.9,1.579-.9,1.029,0,1.749.73,1.749,1.789v3.298h-1.14v-2.979c0-.729-.43-1.199-1.099-1.199-.461,0-.83.21-1.09.61v3.568h-1.129v-5.007Z" id="path67"></path>
    <path class="uuid-d836aca3-e9fa-4a49-a49a-a0b398fd9657" d="M512.514,166.146c0-1.469,1.059-2.589,2.438-2.589,1.37,0,2.369,1.089,2.369,2.589v.27h-3.697c.109.81.719,1.399,1.498,1.399.471,0,.91-.18,1.189-.47l.74.669c-.609.51-1.219.73-1.979.73-1.439,0-2.559-1.129-2.559-2.599ZM516.251,165.716c-.12-.73-.64-1.239-1.31-1.239-.68,0-1.179.49-1.309,1.239h2.618Z" id="path68"></path>
    <path class="uuid-d836aca3-e9fa-4a49-a49a-a0b398fd9657" d="M518.943,167.345v-2.809h-1v-.899h1v-1.379l1.129-.24v1.619h1.389v.899h-1.389v2.559c0,.49.189.68.699.68.221,0,.38-.03.68-.12v.949c-.289.09-.67.14-.969.14-1.01,0-1.539-.48-1.539-1.399Z" id="path69"></path>
    <path class="uuid-d836aca3-e9fa-4a49-a49a-a0b398fd9657" d="M522.094,163.637h1.078l.881,3.528,1.039-3.528h.949l1.029,3.528.879-3.528h1.051l-1.35,5.007h-1.08l-1.02-3.528-1.009,3.528h-1.1l-1.349-5.007Z" id="path70"></path>
    <path class="uuid-d836aca3-e9fa-4a49-a49a-a0b398fd9657" d="M529.593,166.146c0-1.479,1.079-2.589,2.519-2.589,1.43,0,2.509,1.109,2.509,2.589s-1.079,2.588-2.509,2.588c-1.439,0-2.519-1.109-2.519-2.588ZM533.511,166.146c0-.93-.59-1.629-1.399-1.629-.819,0-1.409.7-1.409,1.629,0,.939.59,1.629,1.409,1.629.81,0,1.399-.689,1.399-1.629Z" id="path71"></path>
    <path class="uuid-d836aca3-e9fa-4a49-a49a-a0b398fd9657" d="M535.793,163.637h1.129v1.08c.279-.76.76-1.169,1.379-1.169.189.01.32.03.49.1v.989c-.18-.07-.41-.12-.62-.12-.55,0-.999.31-1.249.83v3.298h-1.129v-5.007Z" id="path72"></path>
    <path class="uuid-d836aca3-e9fa-4a49-a49a-a0b398fd9657" d="M539.723,161.458l1.129-.19v4.498l2.079-2.129h1.3l-2.309,2.319,2.428,2.688h-1.439l-2.059-2.309v2.309h-1.129v-7.186Z" id="path73"></path>
  </g>
  <g id="g77">
    <path class="uuid-d836aca3-e9fa-4a49-a49a-a0b398fd9657" d="M504.329,105.977c0-1.469,1.06-2.589,2.438-2.589,1.369,0,2.369,1.089,2.369,2.589v.27h-3.698c.109.81.72,1.399,1.499,1.399.47,0,.909-.18,1.189-.47l.739.669c-.609.51-1.219.73-1.979.73-1.439,0-2.559-1.129-2.559-2.599ZM508.066,105.547c-.119-.73-.64-1.239-1.309-1.239-.68,0-1.18.49-1.31,1.239h2.618Z" id="path74"></path>
    <path class="uuid-d836aca3-e9fa-4a49-a49a-a0b398fd9657" d="M510.759,107.176v-2.809h-1v-.899h1v-1.379l1.129-.24v1.619h1.39v.899h-1.39v2.559c0,.49.19.68.7.68.22,0,.379-.03.68-.12v.949c-.29.09-.67.14-.97.14-1.01,0-1.539-.48-1.539-1.399Z" id="path75"></path>
    <path class="uuid-d836aca3-e9fa-4a49-a49a-a0b398fd9657" d="M514.278,101.31l1.13-.2v3.178c.38-.59.929-.9,1.579-.9,1.029,0,1.749.73,1.749,1.789v3.298h-1.14v-2.979c0-.729-.43-1.199-1.1-1.199-.46,0-.829.21-1.089.61v3.568h-1.13v-7.166Z" id="path76"></path>
    <path class="uuid-d836aca3-e9fa-4a49-a49a-a0b398fd9657" d="M519.898,104.978c0-2.149,1.169-3.608,2.868-3.608s2.858,1.459,2.858,3.608-1.159,3.598-2.858,3.598-2.868-1.459-2.868-3.598ZM524.536,104.978c0-1.609-.689-2.639-1.77-2.639s-1.778,1.029-1.778,2.639c0,1.599.699,2.628,1.778,2.628s1.77-1.029,1.77-2.628Z" id="path77"></path>
  </g>
  <g id="g78">
    <line class="uuid-8c7f4421-f8f1-449a-9416-bc252e0b7154" x1="406.926" y1="128.247" x2="406.926" y2="143.332" id="line77"></line>
    <polygon class="uuid-d836aca3-e9fa-4a49-a49a-a0b398fd9657" points="403.187 129.341 406.926 122.865 410.666 129.341 403.187 129.341" id="polygon77"></polygon>
    <polygon class="uuid-d836aca3-e9fa-4a49-a49a-a0b398fd9657" points="403.187 142.238 406.926 148.714 410.666 142.238 403.187 142.238" id="polygon78"></polygon>
  </g>
  <g id="g80">
    <line class="uuid-8c7f4421-f8f1-449a-9416-bc252e0b7154" x1="299.195" y1="128.247" x2="299.195" y2="200.372" id="line78"></line>
    <polygon class="uuid-d836aca3-e9fa-4a49-a49a-a0b398fd9657" points="295.456 129.341 299.195 122.865 302.935 129.341 295.456 129.341" id="polygon79"></polygon>
    <polygon class="uuid-d836aca3-e9fa-4a49-a49a-a0b398fd9657" points="295.456 199.278 299.195 205.754 302.935 199.278 295.456 199.278" id="polygon80"></polygon>
  </g>
  <g id="g82">
    <line class="uuid-8c7f4421-f8f1-449a-9416-bc252e0b7154" x1="514.999" y1="128.247" x2="514.999" y2="143.332" id="line80"></line>
    <polygon class="uuid-d836aca3-e9fa-4a49-a49a-a0b398fd9657" points="511.259 129.341 514.999 122.865 518.738 129.341 511.259 129.341" id="polygon81"></polygon>
    <polygon class="uuid-d836aca3-e9fa-4a49-a49a-a0b398fd9657" points="511.259 142.238 514.999 148.714 518.738 142.238 511.259 142.238" id="polygon82"></polygon>
  </g>
  <metadata id="metadata82">
    
      
        
          
            multus
          
        
      
    
  </metadata>
</svg>
