<svg id="uuid-ea64faa9-23d5-406d-a9b9-78e958a917fd" data-name="Layer 1" width="595.276" height="494.811" viewBox="0 0 595.276 494.811" version="1.1" xmlns="http://www.w3.org/2000/svg">
  
  <defs id="defs1">
    <style id="style1">
      .uuid-4facbcc8-201b-4783-a851-a6799dec25e1 {
        fill: #a1c2e7;
      }

      .uuid-4facbcc8-201b-4783-a851-a6799dec25e1, .uuid-40190977-2dd7-4d16-9037-83b174099852 {
        stroke: #a1c2e7;
      }

      .uuid-4facbcc8-201b-4783-a851-a6799dec25e1, .uuid-40190977-2dd7-4d16-9037-83b174099852, .uuid-cb3b8a9a-d814-4f12-8227-a5c9a1fd6a85, .uuid-8d5149ac-474d-48e4-ae91-328c49c6750d, .uuid-45daf19f-d031-41b0-9aae-6d685759b9f6, .uuid-536887be-a746-40ea-a811-c8b52f87a38b {
        stroke-miterlimit: 10;
      }

      .uuid-40190977-2dd7-4d16-9037-83b174099852, .uuid-45daf19f-d031-41b0-9aae-6d685759b9f6, .uuid-536887be-a746-40ea-a811-c8b52f87a38b {
        fill: #fff;
      }

      .uuid-cb3b8a9a-d814-4f12-8227-a5c9a1fd6a85, .uuid-8d5149ac-474d-48e4-ae91-328c49c6750d {
        fill: none;
      }

      .uuid-cb3b8a9a-d814-4f12-8227-a5c9a1fd6a85, .uuid-45daf19f-d031-41b0-9aae-6d685759b9f6 {
        stroke: #06c;
      }

      .uuid-8d5149ac-474d-48e4-ae91-328c49c6750d {
        stroke: #231f20;
      }

      .uuid-250985ab-ed81-41be-add2-0a79625ba840 {
        fill: #f0f0f0;
      }

      .uuid-250985ab-ed81-41be-add2-0a79625ba840, .uuid-0fa3e123-031f-4dca-9ddb-698de3be5fa5, .uuid-f8473b72-4071-4784-8a65-f77be3b75ed7, .uuid-d37e7bcb-3d82-40dc-98be-cf8ba409092c, .uuid-1cd35805-a3ff-4293-9a1d-1611282ee1df {
        stroke-width: 0px;
      }

      .uuid-0fa3e123-031f-4dca-9ddb-698de3be5fa5 {
        fill: #dbe8f5;
      }

      .uuid-f8473b72-4071-4784-8a65-f77be3b75ed7 {
        fill: #c8c8c8;
      }

      .uuid-d37e7bcb-3d82-40dc-98be-cf8ba409092c {
        fill: #06c;
      }

      .uuid-536887be-a746-40ea-a811-c8b52f87a38b {
        stroke: #c8c8c8;
      }

      .uuid-1cd35805-a3ff-4293-9a1d-1611282ee1df {
        fill: #231f20;
      }
    </style>
  </defs>
  <rect class="uuid-250985ab-ed81-41be-add2-0a79625ba840" x="14.598" y="27.018" width="454.865" height="398.624" id="rect1"></rect>
  <rect class="uuid-536887be-a746-40ea-a811-c8b52f87a38b" x="37.604" y="56.614" width="408.853" height="118.972" id="rect2"></rect>
  <rect class="uuid-0fa3e123-031f-4dca-9ddb-698de3be5fa5" x="52.762" y="82.899" width="377.663" height="56.228" id="rect3"></rect>
  <rect class="uuid-f8473b72-4071-4784-8a65-f77be3b75ed7" x="52.762" y="115.882" width="52.084" height="23.245" id="rect4"></rect>
  <rect class="uuid-f8473b72-4071-4784-8a65-f77be3b75ed7" x="52.762" y="152.341" width="52.084" height="23.245" id="rect5"></rect>
  <rect class="uuid-f8473b72-4071-4784-8a65-f77be3b75ed7" x="378.341" y="152.341" width="52.084" height="23.245" id="rect6"></rect>
  <rect class="uuid-f8473b72-4071-4784-8a65-f77be3b75ed7" x="378.341" y="115.882" width="52.084" height="23.245" id="rect7"></rect>
  <rect class="uuid-40190977-2dd7-4d16-9037-83b174099852" x="37.604" y="226.329" width="144.524" height="29.23" id="rect8"></rect>
  <rect class="uuid-4facbcc8-201b-4783-a851-a6799dec25e1" x="37.604" y="255.559" width="408.853" height="39.657" id="rect9"></rect>
  <rect class="uuid-40190977-2dd7-4d16-9037-83b174099852" x="37.604" y="314.275" width="144.524" height="29.23" id="rect10"></rect>
  <rect class="uuid-40190977-2dd7-4d16-9037-83b174099852" x="37.604" y="343.505" width="144.524" height="29.23" id="rect11"></rect>
  <rect class="uuid-40190977-2dd7-4d16-9037-83b174099852" x="37.604" y="372.735" width="72.262" height="29.23" id="rect12"></rect>
  <rect class="uuid-40190977-2dd7-4d16-9037-83b174099852" x="109.866" y="372.735" width="72.262" height="29.23" id="rect13"></rect>
  <rect class="uuid-40190977-2dd7-4d16-9037-83b174099852" x="37.604" y="197.099" width="72.262" height="29.23" id="rect14"></rect>
  <rect class="uuid-40190977-2dd7-4d16-9037-83b174099852" x="109.866" y="197.099" width="72.262" height="29.23" id="rect15"></rect>
  <rect class="uuid-40190977-2dd7-4d16-9037-83b174099852" x="301.933" y="314.275" width="144.524" height="29.23" id="rect16"></rect>
  <rect class="uuid-45daf19f-d031-41b0-9aae-6d685759b9f6" x="301.933" y="449.024" width="144.524" height="29.23" id="rect17"></rect>
  <rect class="uuid-40190977-2dd7-4d16-9037-83b174099852" x="301.933" y="343.505" width="144.524" height="29.23" id="rect18"></rect>
  <rect class="uuid-40190977-2dd7-4d16-9037-83b174099852" x="374.195" y="372.735" width="72.262" height="29.23" id="rect19"></rect>
  <rect class="uuid-40190977-2dd7-4d16-9037-83b174099852" x="301.933" y="372.735" width="72.262" height="29.23" id="rect20"></rect>
  <line class="uuid-8d5149ac-474d-48e4-ae91-328c49c6750d" x1="404.383" y1="175.586" x2="404.383" y2="255.559" id="line20"></line>
  <line class="uuid-8d5149ac-474d-48e4-ae91-328c49c6750d" x1="404.383" y1="295.217" x2="404.383" y2="313.676" id="line21"></line>
  <line class="uuid-8d5149ac-474d-48e4-ae91-328c49c6750d" x1="374.195" y1="401.965" x2="374.195" y2="449.024" id="line22"></line>
  <line class="uuid-8d5149ac-474d-48e4-ae91-328c49c6750d" x1="109.866" y1="401.965" x2="109.866" y2="449.024" id="line23"></line>
  <line class="uuid-8d5149ac-474d-48e4-ae91-328c49c6750d" x1="109.866" y1="295.217" x2="109.866" y2="313.676" id="line24"></line>
  <line class="uuid-8d5149ac-474d-48e4-ae91-328c49c6750d" x1="78.804" y1="175.586" x2="78.804" y2="196.896" id="line25"></line>
  <line class="uuid-8d5149ac-474d-48e4-ae91-328c49c6750d" x1="404.383" y1="139.127" x2="404.383" y2="152.341" id="line26"></line>
  <line class="uuid-8d5149ac-474d-48e4-ae91-328c49c6750d" x1="78.804" y1="139.127" x2="78.804" y2="152.093" id="line27"></line>
  <g id="g42">
    <path class="uuid-1cd35805-a3ff-4293-9a1d-1611282ee1df" d="M52.832,67.79h1.759l1.169,3.238,1.179-3.238h1.669l-2.109,5.157h-1.579l-2.089-5.157Z" id="path27"></path>
    <path class="uuid-1cd35805-a3ff-4293-9a1d-1611282ee1df" d="M59.212,66.091c0-.5.41-.909.91-.909s.909.41.909.909-.41.91-.909.91-.91-.41-.91-.91ZM59.312,67.79h1.619v5.157h-1.619v-5.157Z" id="path28"></path>
    <path class="uuid-1cd35805-a3ff-4293-9a1d-1611282ee1df" d="M62.192,67.79h1.619v1.169c.33-.859.79-1.27,1.399-1.27.23.01.34.03.54.13v1.389c-.2-.1-.479-.16-.759-.16-.48,0-.919.25-1.18.64v3.258h-1.619v-5.157Z" id="path29"></path>
    <path class="uuid-1cd35805-a3ff-4293-9a1d-1611282ee1df" d="M67.291,71.388v-2.349h-.999v-1.25h.999v-1.429l1.619-.33v1.759h1.379v1.25h-1.379v2.029c0,.459.18.62.68.62.19,0,.34-.02.66-.11v1.309c-.3.09-.779.16-1.109.16-1.219,0-1.849-.56-1.849-1.659Z" id="path30"></path>
    <path class="uuid-1cd35805-a3ff-4293-9a1d-1611282ee1df" d="M71.072,69.409h3.678v1.349h-3.678v-1.349Z" id="path31"></path>
    <path class="uuid-1cd35805-a3ff-4293-9a1d-1611282ee1df" d="M75.892,65.831l1.619-.25v7.366h-1.619v-7.116Z" id="path32"></path>
    <path class="uuid-1cd35805-a3ff-4293-9a1d-1611282ee1df" d="M78.531,71.468c0-.95.74-1.5,2.009-1.5.37,0,.739.07,1.199.24v-.42c0-.5-.33-.75-1.02-.75-.39,0-.85.11-1.449.36l-.56-1.129c.85-.38,1.609-.56,2.369-.56,1.429,0,2.259.71,2.259,1.939v3.298h-1.599v-.45c-.45.38-.88.53-1.429.53-1.049,0-1.779-.64-1.779-1.559ZM80.81,71.958c.34,0,.65-.09.93-.26v-.66c-.3-.07-.59-.11-.89-.11-.53,0-.83.18-.83.51s.29.52.79.52Z" id="path33"></path>
    <path class="uuid-1cd35805-a3ff-4293-9a1d-1611282ee1df" d="M84.472,71.268v-3.478h1.619v3.008c0,.58.34.959.859.959.35,0,.629-.14.859-.43v-3.538h1.619v5.157h-1.619v-.839c-.4.6-.959.919-1.629.919-1,0-1.709-.729-1.709-1.759Z" id="path34"></path>
    <path class="uuid-1cd35805-a3ff-4293-9a1d-1611282ee1df" d="M90.691,67.79h1.619v.84c.4-.6.959-.92,1.629-.92,1,0,1.709.73,1.709,1.759v3.478h-1.619v-3.008c0-.58-.34-.959-.859-.959-.35,0-.63.14-.86.43v3.538h-1.619v-5.157Z" id="path35"></path>
    <path class="uuid-1cd35805-a3ff-4293-9a1d-1611282ee1df" d="M96.642,70.379c0-1.509,1.159-2.669,2.668-2.669.85,0,1.629.34,2.149.95l-.99.989c-.33-.39-.66-.56-1.099-.56-.64,0-1.12.55-1.12,1.29s.48,1.289,1.12,1.289c.439,0,.77-.17,1.099-.56l.99.989c-.52.61-1.299.95-2.149.95-1.509,0-2.668-1.16-2.668-2.668Z" id="path36"></path>
    <path class="uuid-1cd35805-a3ff-4293-9a1d-1611282ee1df" d="M102.261,65.831l1.619-.25v3.048c.4-.6.959-.92,1.629-.92,1,0,1.709.73,1.709,1.759v3.478h-1.619v-3.008c0-.58-.34-.959-.859-.959-.35,0-.63.14-.86.43v3.538h-1.619v-7.116Z" id="path37"></path>
    <path class="uuid-1cd35805-a3ff-4293-9a1d-1611282ee1df" d="M108.211,70.379c0-1.509,1.119-2.669,2.599-2.669,1.489,0,2.539,1.129,2.539,2.729v.35h-3.548c.15.58.62.969,1.209.969.43,0,.79-.15,1.02-.43l1.069.89c-.669.589-1.299.83-2.169.83-1.519,0-2.718-1.169-2.718-2.668ZM111.849,69.869c-.14-.55-.529-.9-1.049-.9-.51,0-.87.33-1,.9h2.049Z" id="path38"></path>
    <path class="uuid-1cd35805-a3ff-4293-9a1d-1611282ee1df" d="M114.361,67.79h1.619v1.169c.33-.859.79-1.27,1.399-1.27.23.01.34.03.54.13v1.389c-.2-.1-.479-.16-.759-.16-.48,0-.919.25-1.18.64v3.258h-1.619v-5.157Z" id="path39"></path>
    <path class="uuid-1cd35805-a3ff-4293-9a1d-1611282ee1df" d="M120.931,67.79h1.599v.72c.339-.46.909-.75,1.529-.75,1.27,0,2.279,1.169,2.279,2.619s-1.06,2.598-2.398,2.598c-.56,0-1.05-.209-1.39-.6v2.659h-1.619v-7.246ZM124.749,70.369c0-.729-.53-1.269-1.229-1.269-.4,0-.709.14-.97.419v1.719c.25.26.59.41.97.41.709,0,1.229-.54,1.229-1.279Z" id="path40"></path>
    <path class="uuid-1cd35805-a3ff-4293-9a1d-1611282ee1df" d="M127.141,70.379c0-1.52,1.159-2.669,2.688-2.669s2.688,1.149,2.688,2.669-1.159,2.668-2.688,2.668-2.688-1.149-2.688-2.668ZM130.939,70.379c0-.77-.46-1.319-1.109-1.319s-1.109.549-1.109,1.319.459,1.319,1.109,1.319,1.109-.549,1.109-1.319Z" id="path41"></path>
    <path class="uuid-1cd35805-a3ff-4293-9a1d-1611282ee1df" d="M133.321,70.359c0-1.449,1.059-2.599,2.398-2.599.54,0,1.03.22,1.379.62v-2.549l1.619-.25v7.366h-1.599v-.669c-.34.43-.91.699-1.519.699-1.27,0-2.279-1.169-2.279-2.618ZM137.099,71.228v-1.739c-.25-.26-.59-.4-.959-.4-.709,0-1.229.54-1.229,1.279,0,.729.53,1.27,1.229,1.27.39,0,.709-.14.959-.41Z" id="path42"></path>
  </g>
  <g id="g46">
    <path class="uuid-1cd35805-a3ff-4293-9a1d-1611282ee1df" d="M38.383,39.158h1.619l3.108,4.238-.03-4.238h1.619v6.996h-1.519l-3.208-4.377.03,4.377h-1.619v-6.996Z" id="path43"></path>
    <path class="uuid-1cd35805-a3ff-4293-9a1d-1611282ee1df" d="M45.883,43.585c0-1.52,1.159-2.669,2.688-2.669s2.688,1.149,2.688,2.669-1.159,2.668-2.688,2.668-2.688-1.149-2.688-2.668ZM49.681,43.585c0-.77-.46-1.319-1.109-1.319s-1.109.549-1.109,1.319.459,1.319,1.109,1.319,1.109-.549,1.109-1.319Z" id="path44"></path>
    <path class="uuid-1cd35805-a3ff-4293-9a1d-1611282ee1df" d="M52.063,43.565c0-1.449,1.059-2.599,2.398-2.599.54,0,1.03.22,1.379.62v-2.549l1.619-.25v7.366h-1.599v-.669c-.34.43-.91.699-1.519.699-1.27,0-2.279-1.169-2.279-2.618ZM55.841,44.435v-1.739c-.25-.26-.59-.4-.959-.4-.709,0-1.229.54-1.229,1.279,0,.729.53,1.27,1.229,1.27.39,0,.709-.14.959-.41Z" id="path45"></path>
    <path class="uuid-1cd35805-a3ff-4293-9a1d-1611282ee1df" d="M58.493,43.585c0-1.509,1.119-2.669,2.599-2.669,1.489,0,2.539,1.129,2.539,2.729v.35h-3.548c.15.58.62.969,1.209.969.43,0,.79-.15,1.02-.43l1.069.89c-.669.589-1.299.83-2.169.83-1.519,0-2.718-1.169-2.718-2.668ZM62.131,43.076c-.14-.55-.529-.9-1.049-.9-.51,0-.87.33-1,.9h2.049Z" id="path46"></path>
  </g>
  <g id="g50">
    <path class="uuid-d37e7bcb-3d82-40dc-98be-cf8ba409092c" d="M227.553,459.327h1.619l3.108,4.237-.03-4.237h1.619v6.996h-1.519l-3.208-4.378.03,4.378h-1.619v-6.996Z" id="path47"></path>
    <path class="uuid-d37e7bcb-3d82-40dc-98be-cf8ba409092c" d="M235.433,459.327h1.619l3.108,4.237-.03-4.237h1.619v6.996h-1.519l-3.208-4.378.03,4.378h-1.619v-6.996Z" id="path48"></path>
    <path class="uuid-d37e7bcb-3d82-40dc-98be-cf8ba409092c" d="M242.983,462.825c0-2.039,1.609-3.608,3.688-3.608,1.12,0,2.229.53,2.838,1.359l-1.159,1.1c-.46-.62-1.02-.93-1.679-.93-1.089,0-1.909.89-1.909,2.079s.819,2.079,1.909,2.079c.66,0,1.219-.311,1.679-.93l1.159,1.1c-.609.829-1.719,1.359-2.838,1.359-2.079,0-3.688-1.569-3.688-3.608Z" id="path49"></path>
    <path class="uuid-d37e7bcb-3d82-40dc-98be-cf8ba409092c" d="M250.513,459.327h5.287v1.439h-3.568v1.329h2.519v1.399h-2.519v1.389h3.608v1.439h-5.327v-6.996Z" id="path50"></path>
  </g>
  <g id="g54">
    <path class="uuid-d37e7bcb-3d82-40dc-98be-cf8ba409092c" d="M520.309,324.579h1.619l3.108,4.237-.03-4.237h1.619v6.996h-1.519l-3.209-4.378.03,4.378h-1.619v-6.996Z" id="path51"></path>
    <path class="uuid-d37e7bcb-3d82-40dc-98be-cf8ba409092c" d="M528.188,324.579h1.619l3.108,4.237-.03-4.237h1.619v6.996h-1.519l-3.209-4.378.03,4.378h-1.619v-6.996Z" id="path52"></path>
    <path class="uuid-d37e7bcb-3d82-40dc-98be-cf8ba409092c" d="M535.738,328.077c0-2.039,1.609-3.608,3.688-3.608,1.119,0,2.229.53,2.838,1.359l-1.159,1.1c-.46-.62-1.02-.93-1.679-.93-1.09,0-1.909.89-1.909,2.079s.819,2.079,1.909,2.079c.659,0,1.219-.311,1.679-.93l1.159,1.1c-.609.829-1.719,1.359-2.838,1.359-2.079,0-3.688-1.569-3.688-3.608Z" id="path53"></path>
    <path class="uuid-d37e7bcb-3d82-40dc-98be-cf8ba409092c" d="M543.269,324.579h3.418c1.489,0,2.469.97,2.469,2.309,0,1.27-.979,2.249-2.469,2.249h-1.699v2.438h-1.719v-6.996ZM546.377,327.767c.699,0,1.039-.38,1.039-.89,0-.5-.34-.88-1.029-.88h-1.399v1.77h1.39Z" id="path54"></path>
  </g>
  <g id="g68">
    <path class="uuid-1cd35805-a3ff-4293-9a1d-1611282ee1df" d="M83.451,322.967c0-2.019,1.56-3.608,3.538-3.608s3.538,1.589,3.538,3.608-1.559,3.608-3.538,3.608-3.538-1.589-3.538-3.608ZM89.297,322.967c0-1.439-.999-2.529-2.309-2.529s-2.318,1.089-2.318,2.529,1.009,2.529,2.318,2.529,2.309-1.09,2.309-2.529Z" id="path55"></path>
    <path class="uuid-1cd35805-a3ff-4293-9a1d-1611282ee1df" d="M90.791,319.469h1.29l2.148,5.777,2.169-5.777h1.239l-2.738,6.996h-1.39l-2.719-6.996Z" id="path56"></path>
    <path class="uuid-1cd35805-a3ff-4293-9a1d-1611282ee1df" d="M97.941,325.445l.649-.879c.899.74,1.549,1.02,2.358,1.02.92,0,1.56-.47,1.56-1.12,0-.569-.34-.839-1.27-1l-1.289-.22c-1.21-.22-1.799-.819-1.799-1.779,0-1.27,1.009-2.109,2.578-2.109,1.05,0,2.009.31,2.809.899l-.609.899c-.7-.53-1.449-.81-2.239-.81-.84,0-1.399.43-1.399,1,0,.51.32.77,1.08.89l1.249.21c1.409.25,2.068.869,2.068,1.929,0,1.289-1.139,2.199-2.808,2.199-1.1,0-2.05-.38-2.938-1.129Z" id="path57"></path>
    <path class="uuid-1cd35805-a3ff-4293-9a1d-1611282ee1df" d="M107.02,319.329l1.13-.19v2.989c.35-.44.909-.71,1.539-.71,1.27,0,2.259,1.129,2.259,2.549,0,1.429-1.02,2.548-2.329,2.548-.589,0-1.109-.24-1.489-.689v.64h-1.109v-7.136ZM110.838,323.966c0-.91-.64-1.599-1.489-1.599-.5,0-.909.2-1.199.56v2.089c.29.35.72.56,1.199.56.859,0,1.489-.689,1.489-1.609Z" id="path58"></path>
    <path class="uuid-1cd35805-a3ff-4293-9a1d-1611282ee1df" d="M113.13,321.458h1.13v1.08c.279-.76.76-1.169,1.379-1.169.19.01.32.03.49.1v.989c-.181-.07-.41-.12-.62-.12-.55,0-.999.31-1.249.83v3.298h-1.13v-5.007Z" id="path59"></path>
    <path class="uuid-1cd35805-a3ff-4293-9a1d-1611282ee1df" d="M116.92,319.749c0-.38.31-.7.7-.7.379,0,.699.32.699.7s-.32.689-.699.689c-.391,0-.7-.31-.7-.689ZM117.05,321.458h1.13v5.007h-1.13v-5.007Z" id="path60"></path>
    <path class="uuid-1cd35805-a3ff-4293-9a1d-1611282ee1df" d="M119.35,323.966c0-1.429,1.029-2.549,2.339-2.549.569,0,1.089.23,1.459.65v-2.769l1.13-.2v7.366h-1.12v-.66c-.359.45-.919.709-1.549.709-1.27,0-2.259-1.129-2.259-2.548ZM123.148,325.016v-2.109c-.29-.34-.72-.54-1.189-.54-.859,0-1.499.68-1.499,1.599,0,.909.64,1.599,1.499,1.599.49,0,.899-.19,1.189-.55Z" id="path61"></path>
    <path class="uuid-1cd35805-a3ff-4293-9a1d-1611282ee1df" d="M126.01,328.164l.39-.83c.59.29,1.069.419,1.569.419.84,0,1.279-.379,1.279-1.109v-.849c-.359.439-.909.699-1.539.699-1.27,0-2.259-1.129-2.259-2.548s1.029-2.529,2.339-2.529c.579,0,1.1.23,1.469.67v-.63h1.12v5.187c0,1.29-.84,2.009-2.359,2.009-.72,0-1.419-.18-2.009-.49ZM129.249,325.006v-2.099c-.29-.34-.72-.54-1.189-.54-.859,0-1.499.669-1.499,1.589,0,.91.64,1.599,1.499,1.599.49,0,.899-.2,1.189-.549Z" id="path62"></path>
    <path class="uuid-1cd35805-a3ff-4293-9a1d-1611282ee1df" d="M131.541,323.966c0-1.469,1.06-2.589,2.438-2.589,1.369,0,2.369,1.089,2.369,2.589v.27h-3.698c.11.81.72,1.399,1.499,1.399.47,0,.91-.18,1.189-.47l.739.669c-.609.51-1.219.73-1.979.73-1.439,0-2.559-1.129-2.559-2.599ZM135.279,323.537c-.12-.73-.64-1.239-1.31-1.239-.68,0-1.18.49-1.31,1.239h2.619Z" id="path63"></path>
    <path class="uuid-1cd35805-a3ff-4293-9a1d-1611282ee1df" d="M97.885,331.29l1.13-.19v2.989c.35-.44.909-.71,1.539-.71,1.27,0,2.259,1.129,2.259,2.549,0,1.429-1.02,2.548-2.329,2.548-.589,0-1.109-.24-1.489-.689v.64h-1.109v-7.136ZM101.704,335.928c0-.91-.64-1.599-1.489-1.599-.5,0-.909.2-1.199.56v2.089c.29.35.72.56,1.199.56.859,0,1.489-.689,1.489-1.609Z" id="path64"></path>
    <path class="uuid-1cd35805-a3ff-4293-9a1d-1611282ee1df" d="M103.996,333.419h1.13v1.08c.279-.76.76-1.169,1.379-1.169.19.01.32.03.49.1v.989c-.181-.07-.41-.12-.62-.12-.55,0-.999.31-1.249.83v3.298h-1.13v-5.007Z" id="path65"></path>
    <path class="uuid-1cd35805-a3ff-4293-9a1d-1611282ee1df" d="M107.635,335.108h3.488v.959h-3.488v-.959Z" id="path66"></path>
    <path class="uuid-1cd35805-a3ff-4293-9a1d-1611282ee1df" d="M112.265,335.928c0-1.469,1.06-2.589,2.438-2.589,1.369,0,2.369,1.09,2.369,2.589v.27h-3.698c.11.81.72,1.399,1.499,1.399.47,0,.91-.18,1.189-.47l.739.669c-.609.51-1.219.73-1.979.73-1.439,0-2.559-1.129-2.559-2.599ZM116.003,335.498c-.12-.73-.64-1.239-1.31-1.239-.68,0-1.18.489-1.31,1.239h2.619Z" id="path67"></path>
    <path class="uuid-1cd35805-a3ff-4293-9a1d-1611282ee1df" d="M119.214,335.848l-1.809-2.429h1.329l1.169,1.649,1.17-1.649h1.269l-1.828,2.458,1.908,2.549h-1.319l-1.259-1.749-1.26,1.749h-1.259l1.889-2.579Z" id="path68"></path>
  </g>
  <g id="g80">
    <path class="uuid-1cd35805-a3ff-4293-9a1d-1611282ee1df" d="M340.615,462.928c0-2.019,1.56-3.608,3.538-3.608s3.538,1.59,3.538,3.608-1.559,3.608-3.538,3.608-3.538-1.59-3.538-3.608ZM346.462,462.928c0-1.439-.999-2.528-2.309-2.528s-2.318,1.089-2.318,2.528,1.009,2.528,2.318,2.528,2.309-1.089,2.309-2.528Z" id="path69"></path>
    <path class="uuid-1cd35805-a3ff-4293-9a1d-1611282ee1df" d="M349.535,465.127v-2.809h-.999v-.899h.999v-1.38l1.129-.239v1.619h1.39v.899h-1.39v2.559c0,.489.19.68.7.68.22,0,.38-.03.68-.12v.949c-.29.09-.67.14-.97.14-1.01,0-1.539-.479-1.539-1.398Z" id="path70"></path>
    <path class="uuid-1cd35805-a3ff-4293-9a1d-1611282ee1df" d="M353.055,459.26l1.13-.2v3.179c.38-.59.93-.899,1.579-.899,1.029,0,1.749.729,1.749,1.789v3.298h-1.14v-2.979c0-.729-.43-1.199-1.1-1.199-.459,0-.829.21-1.089.609v3.568h-1.13v-7.166Z" id="path71"></path>
    <path class="uuid-1cd35805-a3ff-4293-9a1d-1611282ee1df" d="M358.646,463.927c0-1.469,1.06-2.588,2.438-2.588,1.369,0,2.369,1.089,2.369,2.588v.271h-3.698c.11.81.72,1.399,1.499,1.399.47,0,.91-.181,1.189-.47l.739.669c-.609.51-1.219.729-1.979.729-1.439,0-2.559-1.129-2.559-2.599ZM362.384,463.497c-.12-.729-.64-1.239-1.31-1.239-.68,0-1.18.49-1.31,1.239h2.619Z" id="path72"></path>
    <path class="uuid-1cd35805-a3ff-4293-9a1d-1611282ee1df" d="M364.604,461.419h1.13v1.079c.279-.76.76-1.17,1.379-1.17.19.011.32.03.49.101v.989c-.181-.07-.41-.12-.62-.12-.55,0-.999.31-1.249.83v3.298h-1.13v-5.007Z" id="path73"></path>
    <path class="uuid-1cd35805-a3ff-4293-9a1d-1611282ee1df" d="M370.784,461.419h1.13v.819c.38-.59.93-.899,1.579-.899,1.029,0,1.749.729,1.749,1.789v3.298h-1.14v-2.979c0-.729-.43-1.199-1.1-1.199-.459,0-.829.21-1.089.609v3.568h-1.13v-5.007Z" id="path74"></path>
    <path class="uuid-1cd35805-a3ff-4293-9a1d-1611282ee1df" d="M376.375,463.927c0-1.469,1.06-2.588,2.438-2.588,1.369,0,2.369,1.089,2.369,2.588v.271h-3.698c.11.81.72,1.399,1.499,1.399.47,0,.91-.181,1.189-.47l.739.669c-.609.51-1.219.729-1.979.729-1.439,0-2.559-1.129-2.559-2.599ZM380.113,463.497c-.12-.729-.64-1.239-1.31-1.239-.68,0-1.18.49-1.31,1.239h2.619Z" id="path75"></path>
    <path class="uuid-1cd35805-a3ff-4293-9a1d-1611282ee1df" d="M382.805,465.127v-2.809h-.999v-.899h.999v-1.38l1.129-.239v1.619h1.39v.899h-1.39v2.559c0,.489.19.68.7.68.22,0,.38-.03.68-.12v.949c-.29.09-.67.14-.97.14-1.01,0-1.539-.479-1.539-1.398Z" id="path76"></path>
    <path class="uuid-1cd35805-a3ff-4293-9a1d-1611282ee1df" d="M385.954,461.419h1.08l.879,3.527,1.04-3.527h.949l1.029,3.527.88-3.527h1.049l-1.349,5.007h-1.08l-1.02-3.528-1.009,3.528h-1.1l-1.35-5.007Z" id="path77"></path>
    <path class="uuid-1cd35805-a3ff-4293-9a1d-1611282ee1df" d="M393.454,463.927c0-1.479,1.079-2.588,2.519-2.588,1.43,0,2.509,1.109,2.509,2.588s-1.079,2.589-2.509,2.589c-1.439,0-2.519-1.109-2.519-2.589ZM397.372,463.927c0-.929-.59-1.629-1.399-1.629-.819,0-1.409.7-1.409,1.629,0,.939.59,1.63,1.409,1.63.81,0,1.399-.69,1.399-1.63Z" id="path78"></path>
    <path class="uuid-1cd35805-a3ff-4293-9a1d-1611282ee1df" d="M399.654,461.419h1.13v1.079c.279-.76.76-1.17,1.379-1.17.19.011.32.03.49.101v.989c-.18-.07-.41-.12-.62-.12-.55,0-.999.31-1.249.83v3.298h-1.13v-5.007Z" id="path79"></path>
    <path class="uuid-1cd35805-a3ff-4293-9a1d-1611282ee1df" d="M403.584,459.239l1.13-.189v4.497l2.079-2.128h1.299l-2.309,2.318,2.429,2.688h-1.439l-2.059-2.309v2.309h-1.13v-7.187Z" id="path80"></path>
  </g>
  <rect class="uuid-45daf19f-d031-41b0-9aae-6d685759b9f6" x="37.604" y="449.024" width="144.524" height="29.23" id="rect80"></rect>
  <g id="g94">
    <path class="uuid-1cd35805-a3ff-4293-9a1d-1611282ee1df" d="M73.042,459.43h2.559c2.009,0,3.508,1.529,3.508,3.498s-1.499,3.498-3.508,3.498h-2.559v-6.996ZM75.629,465.387c1.26,0,2.249-1.069,2.249-2.459s-.989-2.459-2.249-2.459h-1.389v4.918h1.389Z" id="path81"></path>
    <path class="uuid-1cd35805-a3ff-4293-9a1d-1611282ee1df" d="M80.091,463.927c0-1.469,1.06-2.588,2.438-2.588,1.369,0,2.369,1.089,2.369,2.588v.271h-3.698c.11.81.72,1.399,1.499,1.399.47,0,.91-.181,1.189-.47l.739.669c-.609.51-1.219.729-1.979.729-1.439,0-2.559-1.129-2.559-2.599ZM83.83,463.497c-.12-.729-.64-1.239-1.31-1.239-.68,0-1.18.49-1.31,1.239h2.619Z" id="path82"></path>
    <path class="uuid-1cd35805-a3ff-4293-9a1d-1611282ee1df" d="M86.581,462.318h-1.079v-.899h1.079v-.86c0-1.089.61-1.679,1.729-1.679.279,0,.56.03.749.09v.96c-.249-.051-.399-.07-.6-.07-.52,0-.749.229-.749.72v.84h1.349v.899h-1.349v4.107h-1.13v-4.107Z" id="path83"></path>
    <path class="uuid-1cd35805-a3ff-4293-9a1d-1611282ee1df" d="M89.581,464.986c0-.899.74-1.469,1.919-1.469.47,0,.91.1,1.35.319v-.56c0-.659-.38-.999-1.149-.999-.42,0-.88.12-1.459.39l-.4-.819c.75-.34,1.409-.51,2.079-.51,1.31,0,2.049.659,2.049,1.818v3.269h-1.119v-.52c-.43.42-.909.609-1.489.609-1.05,0-1.779-.63-1.779-1.529ZM91.669,465.716c.45,0,.84-.13,1.18-.419v-.81c-.359-.17-.72-.24-1.149-.24-.649,0-1.06.27-1.06.72,0,.46.4.749,1.029.749Z" id="path84"></path>
    <path class="uuid-1cd35805-a3ff-4293-9a1d-1611282ee1df" d="M95.25,464.717v-3.298h1.14v2.968c0,.74.43,1.21,1.1,1.21.45,0,.829-.2,1.09-.601v-3.577h1.129v5.007h-1.129v-.81c-.38.59-.92.89-1.59.89-1.02,0-1.739-.739-1.739-1.789Z" id="path85"></path>
    <path class="uuid-1cd35805-a3ff-4293-9a1d-1611282ee1df" d="M101.111,459.26l1.13-.2v7.366h-1.13v-7.166Z" id="path86"></path>
    <path class="uuid-1cd35805-a3ff-4293-9a1d-1611282ee1df" d="M104.25,465.127v-2.809h-.999v-.899h.999v-1.38l1.129-.239v1.619h1.39v.899h-1.39v2.559c0,.489.19.68.7.68.22,0,.38-.03.68-.12v.949c-.29.09-.67.14-.97.14-1.01,0-1.539-.479-1.539-1.398Z" id="path87"></path>
    <path class="uuid-1cd35805-a3ff-4293-9a1d-1611282ee1df" d="M110.02,461.419h1.13v.819c.38-.59.93-.899,1.579-.899,1.029,0,1.749.729,1.749,1.789v3.298h-1.14v-2.979c0-.729-.43-1.199-1.1-1.199-.459,0-.829.21-1.089.609v3.568h-1.13v-5.007Z" id="path88"></path>
    <path class="uuid-1cd35805-a3ff-4293-9a1d-1611282ee1df" d="M115.611,463.927c0-1.469,1.06-2.588,2.438-2.588,1.369,0,2.369,1.089,2.369,2.588v.271h-3.698c.11.81.72,1.399,1.499,1.399.47,0,.91-.181,1.189-.47l.739.669c-.609.51-1.219.729-1.979.729-1.439,0-2.559-1.129-2.559-2.599ZM119.349,463.497c-.12-.729-.64-1.239-1.31-1.239-.68,0-1.18.49-1.31,1.239h2.619Z" id="path89"></path>
    <path class="uuid-1cd35805-a3ff-4293-9a1d-1611282ee1df" d="M122.041,465.127v-2.809h-1v-.899h1v-1.38l1.129-.239v1.619h1.39v.899h-1.39v2.559c0,.489.19.68.7.68.22,0,.38-.03.68-.12v.949c-.29.09-.67.14-.97.14-1.01,0-1.539-.479-1.539-1.398Z" id="path90"></path>
    <path class="uuid-1cd35805-a3ff-4293-9a1d-1611282ee1df" d="M125.19,461.419h1.08l.879,3.527,1.04-3.527h.949l1.029,3.527.88-3.527h1.049l-1.349,5.007h-1.08l-1.02-3.528-1.009,3.528h-1.1l-1.35-5.007Z" id="path91"></path>
    <path class="uuid-1cd35805-a3ff-4293-9a1d-1611282ee1df" d="M132.691,463.927c0-1.479,1.079-2.588,2.519-2.588,1.43,0,2.509,1.109,2.509,2.588s-1.079,2.589-2.509,2.589c-1.439,0-2.519-1.109-2.519-2.589ZM136.609,463.927c0-.929-.59-1.629-1.399-1.629-.819,0-1.409.7-1.409,1.629,0,.939.59,1.63,1.409,1.63.81,0,1.399-.69,1.399-1.63Z" id="path92"></path>
    <path class="uuid-1cd35805-a3ff-4293-9a1d-1611282ee1df" d="M138.89,461.419h1.13v1.079c.279-.76.76-1.17,1.379-1.17.19.011.32.03.49.101v.989c-.181-.07-.41-.12-.62-.12-.55,0-.999.31-1.249.83v3.298h-1.13v-5.007Z" id="path93"></path>
    <path class="uuid-1cd35805-a3ff-4293-9a1d-1611282ee1df" d="M142.82,459.239l1.13-.189v4.497l2.079-2.128h1.299l-2.309,2.318,2.429,2.688h-1.439l-2.059-2.309v2.309h-1.13v-7.187Z" id="path94"></path>
  </g>
  <g id="g108">
    <path class="uuid-1cd35805-a3ff-4293-9a1d-1611282ee1df" d="M345.814,319.469h1.2v5.957h3.728v1.04h-4.928v-6.996Z" id="path95"></path>
    <path class="uuid-1cd35805-a3ff-4293-9a1d-1611282ee1df" d="M351.795,319.749c0-.38.31-.7.699-.7.38,0,.7.32.7.7s-.32.689-.7.689c-.39,0-.699-.31-.699-.689ZM351.925,321.458h1.129v5.007h-1.129v-5.007Z" id="path96"></path>
    <path class="uuid-1cd35805-a3ff-4293-9a1d-1611282ee1df" d="M354.455,321.458h1.129v.82c.38-.59.93-.9,1.579-.9,1.029,0,1.749.73,1.749,1.789v3.298h-1.14v-2.979c0-.729-.43-1.199-1.099-1.199-.46,0-.83.21-1.09.61v3.568h-1.129v-5.007Z" id="path97"></path>
    <path class="uuid-1cd35805-a3ff-4293-9a1d-1611282ee1df" d="M360.185,324.756v-3.298h1.14v2.968c0,.74.43,1.209,1.1,1.209.449,0,.829-.2,1.089-.6v-3.578h1.13v5.007h-1.13v-.81c-.38.59-.919.89-1.589.89-1.02,0-1.739-.74-1.739-1.789Z" id="path98"></path>
    <path class="uuid-1cd35805-a3ff-4293-9a1d-1611282ee1df" d="M367.354,323.886l-1.809-2.429h1.329l1.17,1.649,1.169-1.649h1.27l-1.829,2.458,1.909,2.549h-1.319l-1.26-1.749-1.259,1.749h-1.26l1.889-2.579Z" id="path99"></path>
    <path class="uuid-1cd35805-a3ff-4293-9a1d-1611282ee1df" d="M373.635,319.329l1.129-.19v2.989c.35-.44.909-.71,1.539-.71,1.27,0,2.259,1.129,2.259,2.549,0,1.429-1.02,2.548-2.328,2.548-.59,0-1.109-.24-1.489-.689v.64h-1.109v-7.136ZM377.452,323.966c0-.91-.64-1.599-1.489-1.599-.499,0-.909.2-1.199.56v2.089c.29.35.72.56,1.199.56.859,0,1.489-.689,1.489-1.609Z" id="path100"></path>
    <path class="uuid-1cd35805-a3ff-4293-9a1d-1611282ee1df" d="M379.744,321.458h1.13v1.08c.279-.76.759-1.169,1.379-1.169.189.01.319.03.489.1v.989c-.18-.07-.409-.12-.619-.12-.55,0-.999.31-1.249.83v3.298h-1.13v-5.007Z" id="path101"></path>
    <path class="uuid-1cd35805-a3ff-4293-9a1d-1611282ee1df" d="M383.534,319.749c0-.38.311-.7.7-.7.38,0,.699.32.699.7s-.319.689-.699.689c-.39,0-.7-.31-.7-.689ZM383.664,321.458h1.13v5.007h-1.13v-5.007Z" id="path102"></path>
    <path class="uuid-1cd35805-a3ff-4293-9a1d-1611282ee1df" d="M385.965,323.966c0-1.429,1.029-2.549,2.339-2.549.569,0,1.089.23,1.459.65v-2.769l1.129-.2v7.366h-1.119v-.66c-.359.45-.919.709-1.549.709-1.27,0-2.259-1.129-2.259-2.548ZM389.763,325.016v-2.109c-.29-.34-.72-.54-1.189-.54-.859,0-1.499.68-1.499,1.599,0,.909.64,1.599,1.499,1.599.489,0,.899-.19,1.189-.55Z" id="path103"></path>
    <path class="uuid-1cd35805-a3ff-4293-9a1d-1611282ee1df" d="M392.624,328.164l.39-.83c.59.29,1.069.419,1.569.419.84,0,1.279-.379,1.279-1.109v-.849c-.36.439-.909.699-1.539.699-1.27,0-2.259-1.129-2.259-2.548s1.029-2.529,2.339-2.529c.579,0,1.099.23,1.469.67v-.63h1.119v5.187c0,1.29-.839,2.009-2.358,2.009-.72,0-1.419-.18-2.009-.49ZM395.862,325.006v-2.099c-.29-.34-.72-.54-1.189-.54-.859,0-1.499.669-1.499,1.589,0,.91.64,1.599,1.499,1.599.489,0,.899-.2,1.189-.549Z" id="path104"></path>
    <path class="uuid-1cd35805-a3ff-4293-9a1d-1611282ee1df" d="M398.154,323.966c0-1.469,1.06-2.589,2.438-2.589,1.369,0,2.369,1.089,2.369,2.589v.27h-3.698c.109.81.72,1.399,1.499,1.399.47,0,.909-.18,1.189-.47l.739.669c-.609.51-1.219.73-1.979.73-1.439,0-2.559-1.129-2.559-2.599ZM401.892,323.537c-.119-.73-.64-1.239-1.309-1.239-.68,0-1.18.49-1.31,1.239h2.618Z" id="path105"></path>
    <path class="uuid-1cd35805-a3ff-4293-9a1d-1611282ee1df" d="M366.505,331.29l1.13-.19v2.989c.35-.44.909-.71,1.539-.71,1.27,0,2.259,1.129,2.259,2.549,0,1.429-1.02,2.548-2.329,2.548-.59,0-1.109-.24-1.489-.689v.64h-1.109v-7.136ZM370.323,335.928c0-.91-.64-1.599-1.489-1.599-.5,0-.91.2-1.199.56v2.089c.289.35.72.56,1.199.56.859,0,1.489-.689,1.489-1.609Z" id="path106"></path>
    <path class="uuid-1cd35805-a3ff-4293-9a1d-1611282ee1df" d="M372.615,333.419h1.129v1.08c.28-.76.76-1.169,1.379-1.169.19.01.32.03.49.1v.989c-.18-.07-.41-.12-.62-.12-.549,0-.999.31-1.249.83v3.298h-1.129v-5.007Z" id="path107"></path>
    <path class="uuid-1cd35805-a3ff-4293-9a1d-1611282ee1df" d="M376.345,334.928c0-2.149,1.17-3.608,2.869-3.608s2.858,1.459,2.858,3.608-1.159,3.598-2.858,3.598-2.869-1.459-2.869-3.598ZM380.982,334.928c0-1.609-.689-2.639-1.769-2.639s-1.779,1.029-1.779,2.639c0,1.599.699,2.628,1.779,2.628s1.769-1.029,1.769-2.628Z" id="path108"></path>
  </g>
  <g id="g113">
    <path class="uuid-1cd35805-a3ff-4293-9a1d-1611282ee1df" d="M95.196,353.753l1.129-.19v2.989c.35-.44.909-.71,1.539-.71,1.269,0,2.259,1.129,2.259,2.549,0,1.429-1.02,2.548-2.329,2.548-.59,0-1.109-.24-1.489-.689v.64h-1.109v-7.136ZM99.014,358.391c0-.91-.64-1.599-1.489-1.599-.5,0-.91.2-1.199.56v2.089c.29.35.72.56,1.199.56.859,0,1.489-.689,1.489-1.609Z" id="path109"></path>
    <path class="uuid-1cd35805-a3ff-4293-9a1d-1611282ee1df" d="M101.076,358.391c0-1.479,1.08-2.589,2.519-2.589,1.429,0,2.509,1.109,2.509,2.589s-1.08,2.588-2.509,2.588c-1.439,0-2.519-1.109-2.519-2.588ZM104.994,358.391c0-.93-.59-1.629-1.399-1.629-.819,0-1.409.7-1.409,1.629,0,.939.59,1.629,1.409,1.629.81,0,1.399-.689,1.399-1.629Z" id="path110"></path>
    <path class="uuid-1cd35805-a3ff-4293-9a1d-1611282ee1df" d="M107.275,355.882h1.129v.82c.38-.59.929-.9,1.579-.9,1.029,0,1.749.73,1.749,1.789v3.298h-1.14v-2.979c0-.729-.43-1.199-1.099-1.199-.46,0-.83.21-1.089.61v3.568h-1.129v-5.007Z" id="path111"></path>
    <path class="uuid-1cd35805-a3ff-4293-9a1d-1611282ee1df" d="M112.865,358.391c0-1.429,1.029-2.549,2.339-2.549.569,0,1.089.23,1.459.65v-2.769l1.129-.2v7.366h-1.119v-.66c-.36.45-.92.709-1.549.709-1.27,0-2.259-1.129-2.259-2.548ZM116.663,359.44v-2.109c-.29-.34-.72-.54-1.189-.54-.859,0-1.499.68-1.499,1.599,0,.909.64,1.599,1.499,1.599.49,0,.9-.19,1.189-.55Z" id="path112"></path>
    <path class="uuid-1cd35805-a3ff-4293-9a1d-1611282ee1df" d="M118.995,357.392c0-2.149,1.169-3.608,2.869-3.608s2.858,1.459,2.858,3.608-1.159,3.598-2.858,3.598-2.869-1.459-2.869-3.598ZM123.633,357.392c0-1.609-.689-2.639-1.769-2.639s-1.779,1.029-1.779,2.639c0,1.599.699,2.628,1.779,2.628s1.769-1.029,1.769-2.628Z" id="path113"></path>
  </g>
  <g id="g118">
    <path class="uuid-1cd35805-a3ff-4293-9a1d-1611282ee1df" d="M361.185,353.753l1.13-.19v2.989c.35-.44.909-.71,1.539-.71,1.27,0,2.259,1.129,2.259,2.549,0,1.429-1.02,2.548-2.329,2.548-.59,0-1.109-.24-1.489-.689v.64h-1.109v-7.136ZM365.003,358.391c0-.91-.64-1.599-1.489-1.599-.5,0-.91.2-1.199.56v2.089c.289.35.72.56,1.199.56.859,0,1.489-.689,1.489-1.609Z" id="path114"></path>
    <path class="uuid-1cd35805-a3ff-4293-9a1d-1611282ee1df" d="M367.064,358.391c0-1.479,1.08-2.589,2.519-2.589,1.43,0,2.509,1.109,2.509,2.589s-1.079,2.588-2.509,2.588c-1.438,0-2.519-1.109-2.519-2.588ZM370.982,358.391c0-.93-.59-1.629-1.399-1.629-.819,0-1.409.7-1.409,1.629,0,.939.59,1.629,1.409,1.629.81,0,1.399-.689,1.399-1.629Z" id="path115"></path>
    <path class="uuid-1cd35805-a3ff-4293-9a1d-1611282ee1df" d="M373.265,355.882h1.129v.82c.38-.59.93-.9,1.579-.9,1.029,0,1.749.73,1.749,1.789v3.298h-1.14v-2.979c0-.729-.43-1.199-1.099-1.199-.46,0-.83.21-1.09.61v3.568h-1.129v-5.007Z" id="path116"></path>
    <path class="uuid-1cd35805-a3ff-4293-9a1d-1611282ee1df" d="M378.854,358.391c0-1.429,1.029-2.549,2.339-2.549.569,0,1.089.23,1.459.65v-2.769l1.129-.2v7.366h-1.119v-.66c-.359.45-.919.709-1.549.709-1.27,0-2.259-1.129-2.259-2.548ZM382.652,359.44v-2.109c-.29-.34-.72-.54-1.189-.54-.859,0-1.499.68-1.499,1.599,0,.909.64,1.599,1.499,1.599.489,0,.899-.19,1.189-.55Z" id="path117"></path>
    <path class="uuid-1cd35805-a3ff-4293-9a1d-1611282ee1df" d="M386.094,355.043l-1.239.53v-.97l1.639-.709h.69v6.996h-1.09v-5.847Z" id="path118"></path>
  </g>
  <g id="g121">
    <path class="uuid-1cd35805-a3ff-4293-9a1d-1611282ee1df" d="M67.65,385.112h1.129v.82c.38-.59.929-.9,1.579-.9,1.029,0,1.749.73,1.749,1.789v3.298h-1.14v-2.979c0-.729-.43-1.199-1.099-1.199-.46,0-.83.21-1.089.61v3.568h-1.129v-5.007Z" id="path119"></path>
    <path class="uuid-1cd35805-a3ff-4293-9a1d-1611282ee1df" d="M73.33,383.403c0-.38.31-.7.7-.7.38,0,.7.32.7.7s-.32.689-.7.689c-.39,0-.7-.31-.7-.689ZM73.459,385.112h1.129v5.007h-1.129v-5.007Z" id="path120"></path>
    <path class="uuid-1cd35805-a3ff-4293-9a1d-1611282ee1df" d="M75.76,387.621c0-1.449,1.1-2.589,2.529-2.589.779,0,1.499.31,1.999.85l-.699.729c-.35-.39-.78-.589-1.259-.589-.81,0-1.439.7-1.439,1.599,0,.909.63,1.599,1.439,1.599.479,0,.909-.2,1.259-.58l.699.719c-.5.54-1.219.85-1.999.85-1.429,0-2.529-1.129-2.529-2.588Z" id="path121"></path>
  </g>
  <g id="g124">
    <path class="uuid-1cd35805-a3ff-4293-9a1d-1611282ee1df" d="M139.911,385.112h1.13v.82c.38-.59.929-.9,1.579-.9,1.029,0,1.749.73,1.749,1.789v3.298h-1.14v-2.979c0-.729-.43-1.199-1.1-1.199-.46,0-.829.21-1.089.61v3.568h-1.13v-5.007Z" id="path122"></path>
    <path class="uuid-1cd35805-a3ff-4293-9a1d-1611282ee1df" d="M145.591,383.403c0-.38.311-.7.7-.7.38,0,.699.32.699.7s-.319.689-.699.689c-.39,0-.7-.31-.7-.689ZM145.721,385.112h1.13v5.007h-1.13v-5.007Z" id="path123"></path>
    <path class="uuid-1cd35805-a3ff-4293-9a1d-1611282ee1df" d="M148.021,387.621c0-1.449,1.1-2.589,2.528-2.589.779,0,1.499.31,1.999.85l-.699.729c-.351-.39-.78-.589-1.26-.589-.81,0-1.439.7-1.439,1.599,0,.909.63,1.599,1.439,1.599.479,0,.909-.2,1.26-.58l.699.719c-.5.54-1.22.85-1.999.85-1.429,0-2.528-1.129-2.528-2.588Z" id="path124"></path>
  </g>
  <g id="g127">
    <path class="uuid-1cd35805-a3ff-4293-9a1d-1611282ee1df" d="M331.979,385.112h1.13v.82c.38-.59.929-.9,1.579-.9,1.029,0,1.749.73,1.749,1.789v3.298h-1.14v-2.979c0-.729-.43-1.199-1.1-1.199-.46,0-.829.21-1.089.61v3.568h-1.13v-5.007Z" id="path125"></path>
    <path class="uuid-1cd35805-a3ff-4293-9a1d-1611282ee1df" d="M337.658,383.403c0-.38.311-.7.7-.7.38,0,.699.32.699.7s-.319.689-.699.689c-.39,0-.7-.31-.7-.689ZM337.788,385.112h1.13v5.007h-1.13v-5.007Z" id="path126"></path>
    <path class="uuid-1cd35805-a3ff-4293-9a1d-1611282ee1df" d="M340.089,387.621c0-1.449,1.1-2.589,2.528-2.589.779,0,1.499.31,1.999.85l-.699.729c-.351-.39-.78-.589-1.26-.589-.81,0-1.439.7-1.439,1.599,0,.909.63,1.599,1.439,1.599.479,0,.909-.2,1.26-.58l.699.719c-.5.54-1.22.85-1.999.85-1.429,0-2.528-1.129-2.528-2.588Z" id="path127"></path>
  </g>
  <g id="g130">
    <path class="uuid-1cd35805-a3ff-4293-9a1d-1611282ee1df" d="M404.241,385.112h1.129v.82c.38-.59.93-.9,1.579-.9,1.029,0,1.749.73,1.749,1.789v3.298h-1.14v-2.979c0-.729-.43-1.199-1.099-1.199-.46,0-.83.21-1.09.61v3.568h-1.129v-5.007Z" id="path128"></path>
    <path class="uuid-1cd35805-a3ff-4293-9a1d-1611282ee1df" d="M409.921,383.403c0-.38.31-.7.699-.7.38,0,.7.32.7.7s-.32.689-.7.689c-.39,0-.699-.31-.699-.689ZM410.051,385.112h1.129v5.007h-1.129v-5.007Z" id="path129"></path>
    <path class="uuid-1cd35805-a3ff-4293-9a1d-1611282ee1df" d="M412.351,387.621c0-1.449,1.1-2.589,2.529-2.589.779,0,1.499.31,1.998.85l-.699.729c-.35-.39-.779-.589-1.259-.589-.81,0-1.439.7-1.439,1.599,0,.909.63,1.599,1.439,1.599.479,0,.909-.2,1.259-.58l.699.719c-.499.54-1.219.85-1.998.85-1.43,0-2.529-1.129-2.529-2.588Z" id="path130"></path>
  </g>
  <g id="g136">
    <path class="uuid-1cd35805-a3ff-4293-9a1d-1611282ee1df" d="M225.721,271.705h2.159l1.689,3.358,1.679-3.358h2.159v6.996h-1.619v-4.748l-2.239,4.248-2.249-4.288v4.788h-1.579v-6.996Z" id="path131"></path>
    <path class="uuid-1cd35805-a3ff-4293-9a1d-1611282ee1df" d="M234.781,277.022v-3.478h1.619v3.008c0,.58.34.959.859.959.35,0,.629-.14.859-.43v-3.538h1.619v5.157h-1.619v-.839c-.4.6-.959.919-1.629.919-1,0-1.709-.729-1.709-1.759Z" id="path132"></path>
    <path class="uuid-1cd35805-a3ff-4293-9a1d-1611282ee1df" d="M241,271.585l1.619-.25v7.366h-1.619v-7.116Z" id="path133"></path>
    <path class="uuid-1cd35805-a3ff-4293-9a1d-1611282ee1df" d="M244.56,277.142v-2.349h-.999v-1.25h.999v-1.429l1.619-.33v1.759h1.379v1.25h-1.379v2.029c0,.459.18.62.68.62.19,0,.34-.02.66-.11v1.309c-.3.09-.779.16-1.109.16-1.219,0-1.849-.56-1.849-1.659Z" id="path134"></path>
    <path class="uuid-1cd35805-a3ff-4293-9a1d-1611282ee1df" d="M248.42,277.022v-3.478h1.619v3.008c0,.58.34.959.859.959.35,0,.629-.14.859-.43v-3.538h1.619v5.157h-1.619v-.839c-.4.6-.959.919-1.629.919-1,0-1.709-.729-1.709-1.759Z" id="path135"></path>
    <path class="uuid-1cd35805-a3ff-4293-9a1d-1611282ee1df" d="M254.221,278.171l.709-1.079c.74.39,1.159.52,1.659.52.46,0,.74-.16.74-.42,0-.2-.15-.31-.48-.37l-.989-.18c-1-.189-1.52-.699-1.52-1.499,0-1.049.81-1.679,2.159-1.679.719,0,1.429.2,2.099.59l-.74,1.029c-.52-.3-.999-.439-1.479-.439-.39,0-.62.13-.62.35,0,.21.13.3.53.37l.969.18c1.02.19,1.549.709,1.549,1.489,0,1.009-.95,1.769-2.219,1.769-.939,0-1.769-.22-2.369-.63Z" id="path136"></path>
  </g>
  <g id="g138">
    <path class="uuid-1cd35805-a3ff-4293-9a1d-1611282ee1df" d="M233.716,106.937h1.859l1.849,5.207,1.879-5.207h1.789l-2.729,6.996h-1.959l-2.688-6.996Z" id="path137"></path>
    <path class="uuid-1cd35805-a3ff-4293-9a1d-1611282ee1df" d="M241.896,106.937h2.159l1.689,3.358,1.679-3.358h2.159v6.996h-1.619v-4.748l-2.239,4.248-2.249-4.288v4.788h-1.579v-6.996Z" id="path138"></path>
  </g>
  <g id="g142">
    <path class="uuid-1cd35805-a3ff-4293-9a1d-1611282ee1df" d="M68.134,128.319c0-1.469,1.06-2.589,2.438-2.589,1.37,0,2.369,1.089,2.369,2.589v.27h-3.698c.11.81.72,1.399,1.499,1.399.47,0,.91-.18,1.189-.47l.74.669c-.61.51-1.219.73-1.979.73-1.439,0-2.559-1.129-2.559-2.599ZM71.872,127.889c-.12-.73-.64-1.239-1.309-1.239-.68,0-1.179.49-1.309,1.239h2.618Z" id="path139"></path>
    <path class="uuid-1cd35805-a3ff-4293-9a1d-1611282ee1df" d="M74.564,129.518v-2.809h-1v-.899h1v-1.379l1.129-.24v1.619h1.389v.899h-1.389v2.559c0,.49.19.68.7.68.22,0,.379-.03.68-.12v.949c-.29.09-.67.14-.97.14-1.009,0-1.539-.48-1.539-1.399Z" id="path140"></path>
    <path class="uuid-1cd35805-a3ff-4293-9a1d-1611282ee1df" d="M78.084,123.651l1.129-.2v3.178c.38-.59.929-.9,1.579-.9,1.029,0,1.749.73,1.749,1.789v3.298h-1.14v-2.979c0-.729-.43-1.199-1.099-1.199-.46,0-.83.21-1.089.61v3.568h-1.129v-7.166Z" id="path141"></path>
    <path class="uuid-1cd35805-a3ff-4293-9a1d-1611282ee1df" d="M83.704,127.319c0-2.149,1.169-3.608,2.869-3.608s2.858,1.459,2.858,3.608-1.159,3.598-2.858,3.598-2.869-1.459-2.869-3.598ZM88.341,127.319c0-1.609-.689-2.639-1.769-2.639s-1.779,1.029-1.779,2.639c0,1.599.699,2.628,1.779,2.628s1.769-1.029,1.769-2.628Z" id="path142"></path>
  </g>
  <g id="g146">
    <path class="uuid-1cd35805-a3ff-4293-9a1d-1611282ee1df" d="M395.373,128.319c0-1.469,1.06-2.589,2.438-2.589,1.369,0,2.369,1.089,2.369,2.589v.27h-3.698c.11.81.72,1.399,1.499,1.399.47,0,.91-.18,1.189-.47l.739.669c-.609.51-1.219.73-1.979.73-1.439,0-2.559-1.129-2.559-2.599ZM399.111,127.889c-.12-.73-.64-1.239-1.31-1.239-.68,0-1.18.49-1.31,1.239h2.619Z" id="path143"></path>
    <path class="uuid-1cd35805-a3ff-4293-9a1d-1611282ee1df" d="M401.803,129.518v-2.809h-.999v-.899h.999v-1.379l1.129-.24v1.619h1.39v.899h-1.39v2.559c0,.49.19.68.7.68.22,0,.38-.03.68-.12v.949c-.29.09-.67.14-.97.14-1.01,0-1.539-.48-1.539-1.399Z" id="path144"></path>
    <path class="uuid-1cd35805-a3ff-4293-9a1d-1611282ee1df" d="M405.322,123.651l1.13-.2v3.178c.38-.59.93-.9,1.579-.9,1.029,0,1.749.73,1.749,1.789v3.298h-1.14v-2.979c0-.729-.43-1.199-1.1-1.199-.459,0-.829.21-1.089.61v3.568h-1.13v-7.166Z" id="path145"></path>
    <path class="uuid-1cd35805-a3ff-4293-9a1d-1611282ee1df" d="M412.053,124.971l-1.239.53v-.97l1.639-.709h.689v6.996h-1.089v-5.847Z" id="path146"></path>
  </g>
  <g id="g150">
    <path class="uuid-1cd35805-a3ff-4293-9a1d-1611282ee1df" d="M394.478,162.269h1.13v.82c.38-.59.93-.9,1.579-.9,1.029,0,1.749.73,1.749,1.789v3.298h-1.14v-2.979c0-.729-.43-1.199-1.1-1.199-.459,0-.829.21-1.089.61v3.568h-1.13v-5.007Z" id="path147"></path>
    <path class="uuid-1cd35805-a3ff-4293-9a1d-1611282ee1df" d="M400.068,164.778c0-1.469,1.06-2.589,2.438-2.589,1.369,0,2.369,1.089,2.369,2.589v.27h-3.698c.11.81.72,1.399,1.499,1.399.47,0,.91-.18,1.189-.47l.739.669c-.609.51-1.219.73-1.979.73-1.439,0-2.559-1.129-2.559-2.599ZM403.807,164.348c-.12-.73-.64-1.239-1.31-1.239-.68,0-1.18.49-1.31,1.239h2.619Z" id="path148"></path>
    <path class="uuid-1cd35805-a3ff-4293-9a1d-1611282ee1df" d="M406.497,165.977v-2.809h-1v-.899h1v-1.379l1.129-.24v1.619h1.39v.899h-1.39v2.559c0,.49.19.68.7.68.22,0,.38-.03.68-.12v.949c-.29.09-.67.14-.97.14-1.01,0-1.539-.48-1.539-1.399Z" id="path149"></path>
    <path class="uuid-1cd35805-a3ff-4293-9a1d-1611282ee1df" d="M413.178,161.43l-1.239.53v-.97l1.639-.709h.689v6.996h-1.089v-5.847Z" id="path150"></path>
  </g>
  <g id="g154">
    <path class="uuid-1cd35805-a3ff-4293-9a1d-1611282ee1df" d="M68.134,164.778c0-1.469,1.06-2.589,2.438-2.589,1.37,0,2.369,1.089,2.369,2.589v.27h-3.698c.11.81.72,1.399,1.499,1.399.47,0,.91-.18,1.189-.47l.74.669c-.61.51-1.219.73-1.979.73-1.439,0-2.559-1.129-2.559-2.599ZM71.872,164.348c-.12-.73-.64-1.239-1.309-1.239-.68,0-1.179.49-1.309,1.239h2.618Z" id="path151"></path>
    <path class="uuid-1cd35805-a3ff-4293-9a1d-1611282ee1df" d="M74.564,165.977v-2.809h-1v-.899h1v-1.379l1.129-.24v1.619h1.389v.899h-1.389v2.559c0,.49.19.68.7.68.22,0,.379-.03.68-.12v.949c-.29.09-.67.14-.97.14-1.009,0-1.539-.48-1.539-1.399Z" id="path152"></path>
    <path class="uuid-1cd35805-a3ff-4293-9a1d-1611282ee1df" d="M78.084,160.11l1.129-.2v3.178c.38-.59.929-.9,1.579-.9,1.029,0,1.749.73,1.749,1.789v3.298h-1.14v-2.979c0-.729-.43-1.199-1.099-1.199-.46,0-.83.21-1.089.61v3.568h-1.129v-7.166Z" id="path153"></path>
    <path class="uuid-1cd35805-a3ff-4293-9a1d-1611282ee1df" d="M83.704,163.778c0-2.149,1.169-3.608,2.869-3.608s2.858,1.459,2.858,3.608-1.159,3.598-2.858,3.598-2.869-1.459-2.869-3.598ZM88.341,163.778c0-1.609-.689-2.639-1.769-2.639s-1.779,1.029-1.779,2.639c0,1.599.699,2.628,1.779,2.628s1.769-1.029,1.769-2.628Z" id="path154"></path>
  </g>
  <g id="g157">
    <path class="uuid-1cd35805-a3ff-4293-9a1d-1611282ee1df" d="M99.407,242.695l.65-.879c.899.74,1.549,1.02,2.358,1.02.919,0,1.559-.47,1.559-1.12,0-.569-.339-.839-1.269-1l-1.29-.22c-1.209-.22-1.799-.819-1.799-1.779,0-1.27,1.009-2.109,2.579-2.109,1.049,0,2.009.31,2.809.899l-.61.899c-.7-.53-1.449-.81-2.239-.81-.839,0-1.399.43-1.399,1,0,.51.32.77,1.079.89l1.25.21c1.409.25,2.069.869,2.069,1.929,0,1.289-1.14,2.199-2.809,2.199-1.1,0-2.049-.38-2.938-1.129Z" id="path155"></path>
    <path class="uuid-1cd35805-a3ff-4293-9a1d-1611282ee1df" d="M106.376,236.718h2.559c2.009,0,3.508,1.529,3.508,3.498s-1.499,3.498-3.508,3.498h-2.559v-6.996ZM108.965,242.675c1.259,0,2.249-1.069,2.249-2.458s-.989-2.458-2.249-2.458h-1.389v4.917h1.389Z" id="path156"></path>
    <path class="uuid-1cd35805-a3ff-4293-9a1d-1611282ee1df" d="M113.796,236.718h1.169l3.648,5.087-.02-5.087h1.129v6.996h-1.069l-3.748-5.227.02,5.227h-1.129v-6.996Z" id="path157"></path>
  </g>
  <g id="g163">
    <path class="uuid-1cd35805-a3ff-4293-9a1d-1611282ee1df" d="M56.475,208.032h3.128c1.419,0,2.339.89,2.339,2.179,0,1.259-.919,2.149-2.339,2.149h-1.929v2.668h-1.2v-6.996ZM59.413,211.38c.85,0,1.319-.47,1.319-1.179,0-.69-.47-1.16-1.309-1.16h-1.749v2.339h1.739Z" id="path158"></path>
    <path class="uuid-1cd35805-a3ff-4293-9a1d-1611282ee1df" d="M62.445,212.53c0-1.479,1.08-2.589,2.519-2.589,1.429,0,2.509,1.109,2.509,2.589s-1.08,2.588-2.509,2.588c-1.439,0-2.519-1.109-2.519-2.588ZM66.363,212.53c0-.93-.59-1.629-1.399-1.629-.819,0-1.409.7-1.409,1.629,0,.939.59,1.629,1.409,1.629.81,0,1.399-.689,1.399-1.629Z" id="path159"></path>
    <path class="uuid-1cd35805-a3ff-4293-9a1d-1611282ee1df" d="M68.415,212.53c0-1.429,1.029-2.549,2.339-2.549.569,0,1.089.23,1.459.65v-2.769l1.129-.2v7.366h-1.119v-.66c-.36.45-.919.709-1.549.709-1.27,0-2.259-1.129-2.259-2.548ZM72.212,213.579v-2.109c-.29-.34-.72-.54-1.189-.54-.859,0-1.499.68-1.499,1.599,0,.909.64,1.599,1.499,1.599.49,0,.9-.19,1.189-.55Z" id="path160"></path>
    <path class="uuid-1cd35805-a3ff-4293-9a1d-1611282ee1df" d="M76.995,210.021h1.129v.82c.38-.59.929-.9,1.579-.9,1.029,0,1.749.73,1.749,1.789v3.298h-1.14v-2.979c0-.729-.43-1.199-1.099-1.199-.46,0-.83.21-1.089.61v3.568h-1.129v-5.007Z" id="path161"></path>
    <path class="uuid-1cd35805-a3ff-4293-9a1d-1611282ee1df" d="M82.584,212.53c0-1.469,1.06-2.589,2.438-2.589,1.37,0,2.369,1.089,2.369,2.589v.27h-3.698c.11.81.72,1.399,1.499,1.399.47,0,.91-.18,1.189-.47l.74.669c-.61.51-1.219.73-1.979.73-1.439,0-2.559-1.129-2.559-2.599ZM86.322,212.1c-.12-.73-.64-1.239-1.309-1.239-.68,0-1.179.49-1.309,1.239h2.618Z" id="path162"></path>
    <path class="uuid-1cd35805-a3ff-4293-9a1d-1611282ee1df" d="M89.014,213.729v-2.809h-1v-.899h1v-1.379l1.129-.24v1.619h1.389v.899h-1.389v2.559c0,.49.19.68.7.68.22,0,.379-.03.68-.12v.949c-.29.09-.67.14-.97.14-1.009,0-1.539-.48-1.539-1.399Z" id="path163"></path>
  </g>
  <g id="g173">
    <path class="uuid-1cd35805-a3ff-4293-9a1d-1611282ee1df" d="M119.827,214.009l.65-.879c.899.74,1.549,1.02,2.358,1.02.919,0,1.559-.47,1.559-1.12,0-.569-.339-.839-1.269-1l-1.29-.22c-1.209-.22-1.799-.819-1.799-1.779,0-1.27,1.009-2.109,2.579-2.109,1.049,0,2.009.31,2.809.899l-.61.899c-.7-.53-1.449-.81-2.239-.81-.839,0-1.399.43-1.399,1,0,.51.32.77,1.079.89l1.25.21c1.409.25,2.069.869,2.069,1.929,0,1.289-1.14,2.199-2.809,2.199-1.1,0-2.049-.38-2.938-1.129Z" id="path164"></path>
    <path class="uuid-1cd35805-a3ff-4293-9a1d-1611282ee1df" d="M126.526,212.53c0-1.469,1.06-2.589,2.438-2.589,1.37,0,2.369,1.089,2.369,2.589v.27h-3.698c.11.81.72,1.399,1.499,1.399.47,0,.91-.18,1.189-.47l.74.669c-.61.51-1.219.73-1.979.73-1.439,0-2.559-1.129-2.559-2.599ZM130.264,212.1c-.12-.73-.64-1.239-1.309-1.239-.68,0-1.179.49-1.309,1.239h2.618Z" id="path165"></path>
    <path class="uuid-1cd35805-a3ff-4293-9a1d-1611282ee1df" d="M132.486,210.021h1.129v1.08c.28-.76.759-1.169,1.379-1.169.19.01.32.03.49.1v.989c-.18-.07-.41-.12-.62-.12-.549,0-.999.31-1.249.83v3.298h-1.129v-5.007Z" id="path166"></path>
    <path class="uuid-1cd35805-a3ff-4293-9a1d-1611282ee1df" d="M135.977,210.021h1.229l1.399,3.638,1.39-3.638h1.179l-2.059,5.007h-1.099l-2.039-5.007Z" id="path167"></path>
    <path class="uuid-1cd35805-a3ff-4293-9a1d-1611282ee1df" d="M141.846,208.312c0-.38.31-.7.7-.7.38,0,.7.32.7.7s-.32.689-.7.689c-.39,0-.7-.31-.7-.689ZM141.976,210.021h1.129v5.007h-1.129v-5.007Z" id="path168"></path>
    <path class="uuid-1cd35805-a3ff-4293-9a1d-1611282ee1df" d="M144.276,212.53c0-1.449,1.1-2.589,2.529-2.589.779,0,1.499.31,1.999.85l-.699.729c-.35-.39-.78-.589-1.259-.589-.81,0-1.439.7-1.439,1.599,0,.909.63,1.599,1.439,1.599.479,0,.909-.2,1.259-.58l.699.719c-.5.54-1.219.85-1.999.85-1.429,0-2.529-1.129-2.529-2.588Z" id="path169"></path>
    <path class="uuid-1cd35805-a3ff-4293-9a1d-1611282ee1df" d="M149.356,212.53c0-1.469,1.06-2.589,2.438-2.589,1.37,0,2.369,1.089,2.369,2.589v.27h-3.698c.11.81.72,1.399,1.499,1.399.47,0,.91-.18,1.189-.47l.74.669c-.61.51-1.219.73-1.979.73-1.439,0-2.559-1.129-2.559-2.599ZM153.094,212.1c-.12-.73-.64-1.239-1.309-1.239-.68,0-1.179.49-1.309,1.239h2.618Z" id="path170"></path>
    <path class="uuid-1cd35805-a3ff-4293-9a1d-1611282ee1df" d="M157.566,210.021h1.129v.82c.38-.59.929-.9,1.579-.9,1.029,0,1.749.73,1.749,1.789v3.298h-1.14v-2.979c0-.729-.43-1.199-1.099-1.199-.46,0-.83.21-1.089.61v3.568h-1.129v-5.007Z" id="path171"></path>
    <path class="uuid-1cd35805-a3ff-4293-9a1d-1611282ee1df" d="M163.156,212.53c0-1.469,1.06-2.589,2.438-2.589,1.37,0,2.369,1.089,2.369,2.589v.27h-3.698c.11.81.72,1.399,1.499,1.399.47,0,.91-.18,1.189-.47l.74.669c-.61.51-1.219.73-1.979.73-1.439,0-2.559-1.129-2.559-2.599ZM166.894,212.1c-.12-.73-.64-1.239-1.309-1.239-.68,0-1.179.49-1.309,1.239h2.618Z" id="path172"></path>
    <path class="uuid-1cd35805-a3ff-4293-9a1d-1611282ee1df" d="M169.585,213.729v-2.809h-1v-.899h1v-1.379l1.129-.24v1.619h1.389v.899h-1.389v2.559c0,.49.19.68.7.68.22,0,.379-.03.68-.12v.949c-.29.09-.67.14-.97.14-1.009,0-1.539-.48-1.539-1.399Z" id="path173"></path>
  </g>
  <g id="g188">
    <path class="uuid-1cd35805-a3ff-4293-9a1d-1611282ee1df" d="M218.812,316.792h1.12l-.22.99c.42-.71.92-1.07,1.489-1.07.2,0,.41.05.56.12l-.22.989c-.12-.09-.42-.15-.66-.15-.49,0-.969.27-1.309.75l-.74,3.378h-1.109l1.089-5.007Z" id="path174"></path>
    <path class="uuid-1cd35805-a3ff-4293-9a1d-1611282ee1df" d="M221.833,319.56c0-1.559,1.189-2.849,2.639-2.849,1.229,0,2.089.92,2.089,2.229,0,.23-.01.43-.04.629h-3.608c.01.8.589,1.399,1.369,1.399.43,0,.85-.14,1.149-.4l.6.73c-.61.419-1.179.6-1.839.6-1.389,0-2.359-.959-2.359-2.339ZM225.561,318.871c-.03-.71-.5-1.229-1.159-1.229s-1.2.5-1.41,1.229h2.569Z" id="path175"></path>
    <path class="uuid-1cd35805-a3ff-4293-9a1d-1611282ee1df" d="M228.233,316.792h1.099l-.11.52c.37-.35.839-.55,1.359-.55,1.099,0,1.939.979,1.939,2.279,0,1.549-1.149,2.818-2.559,2.818-.67,0-1.199-.29-1.52-.82l-.629,2.849h-1.109l1.529-7.096ZM229.062,318.131l-.46,2.129c.24.38.7.64,1.189.64.929,0,1.639-.77,1.639-1.769,0-.85-.54-1.429-1.31-1.429-.39,0-.75.15-1.059.43Z" id="path176"></path>
    <path class="uuid-1cd35805-a3ff-4293-9a1d-1611282ee1df" d="M233.443,319.56c0-1.579,1.209-2.858,2.708-2.858,1.309,0,2.249.979,2.249,2.339,0,1.569-1.229,2.858-2.708,2.858-1.299,0-2.249-.979-2.249-2.339ZM237.301,319.061c0-.84-.48-1.399-1.22-1.399-.859,0-1.549.83-1.549,1.859,0,.839.49,1.399,1.219,1.399.87,0,1.549-.81,1.549-1.859Z" id="path177"></path>
    <path class="uuid-1cd35805-a3ff-4293-9a1d-1611282ee1df" d="M240.083,316.792h1.12l-.22.99c.42-.71.919-1.07,1.489-1.07.2,0,.41.05.56.12l-.22.989c-.12-.09-.42-.15-.66-.15-.49,0-.969.27-1.309.75l-.74,3.378h-1.109l1.089-5.007Z" id="path178"></path>
    <path class="uuid-1cd35805-a3ff-4293-9a1d-1611282ee1df" d="M243.812,320.399l.58-2.708h-.979l.2-.899h.959l.3-1.379,1.169-.24-.35,1.619h1.369l-.2.899h-1.37l-.54,2.509c-.11.52.07.72.64.72.16,0,.26-.01.57-.09l-.2.949c-.24.06-.549.1-.849.1-1.04,0-1.5-.53-1.299-1.479Z" id="path179"></path>
    <path class="uuid-1cd35805-a3ff-4293-9a1d-1611282ee1df" d="M246.993,321.069l.62-.72c.63.51,1.06.689,1.609.689.529,0,.929-.3.929-.68,0-.27-.17-.43-.589-.54l-.85-.22c-.78-.22-1.169-.66-1.169-1.31,0-.969.729-1.589,1.879-1.589.75,0,1.439.26,2.039.75l-.62.709c-.49-.39-1.02-.6-1.479-.6-.52,0-.83.23-.83.59,0,.28.15.43.58.55l.85.229c.83.23,1.229.64,1.229,1.26,0,.979-.85,1.709-1.999,1.709-.859,0-1.659-.3-2.199-.83Z" id="path180"></path>
    <path class="uuid-1cd35805-a3ff-4293-9a1d-1611282ee1df" d="M253.953,321.069l.62-.72c.63.51,1.06.689,1.609.689.529,0,.929-.3.929-.68,0-.27-.17-.43-.589-.54l-.85-.22c-.78-.22-1.169-.66-1.169-1.31,0-.969.729-1.589,1.879-1.589.75,0,1.439.26,2.039.75l-.62.709c-.49-.39-1.02-.6-1.479-.6-.52,0-.83.23-.83.59,0,.28.15.43.58.55l.85.229c.83.23,1.229.64,1.229,1.26,0,.979-.85,1.709-1.999,1.709-.859,0-1.659-.3-2.199-.83Z" id="path181"></path>
    <path class="uuid-1cd35805-a3ff-4293-9a1d-1611282ee1df" d="M259.522,320.399l.58-2.708h-.979l.2-.899h.959l.3-1.379,1.169-.24-.35,1.619h1.369l-.2.899h-1.37l-.54,2.509c-.11.52.07.72.64.72.16,0,.26-.01.57-.09l-.2.949c-.24.06-.549.1-.849.1-1.04,0-1.5-.53-1.299-1.479Z" id="path182"></path>
    <path class="uuid-1cd35805-a3ff-4293-9a1d-1611282ee1df" d="M262.762,320.479c0-.979.77-1.609,1.969-1.609.54,0,1.059.13,1.469.36l.1-.43c.17-.77-.19-1.159-1.069-1.159-.37,0-.79.1-1.359.32l-.27-.819c.719-.28,1.329-.42,1.899-.42,1.459,0,2.188.77,1.909,2.039l-.669,3.038h-1.1l.1-.45c-.48.35-.899.51-1.369.51-.979,0-1.609-.54-1.609-1.379ZM265.871,320.709l.19-.839c-.32-.19-.72-.28-1.199-.28-.65,0-1.069.32-1.069.78,0,.45.359.709.979.709.4,0,.75-.11,1.1-.37Z" id="path183"></path>
    <path class="uuid-1cd35805-a3ff-4293-9a1d-1611282ee1df" d="M268.832,320.399l.58-2.708h-.979l.2-.899h.959l.3-1.379,1.169-.24-.35,1.619h1.369l-.2.899h-1.37l-.54,2.509c-.11.52.07.72.64.72.16,0,.26-.01.57-.09l-.2.949c-.24.06-.549.1-.849.1-1.04,0-1.5-.53-1.299-1.479Z" id="path184"></path>
    <path class="uuid-1cd35805-a3ff-4293-9a1d-1611282ee1df" d="M272.342,319.96l.68-3.168h1.109l-.63,2.909c-.17.759.19,1.269.87,1.269.41,0,.79-.18,1.109-.55l.79-3.628h1.12l-1.089,5.007h-1.11l.15-.75c-.45.54-1,.819-1.599.819-1.05,0-1.639-.81-1.399-1.909Z" id="path185"></path>
    <path class="uuid-1cd35805-a3ff-4293-9a1d-1611282ee1df" d="M277.512,321.069l.62-.72c.63.51,1.06.689,1.609.689.529,0,.929-.3.929-.68,0-.27-.17-.43-.589-.54l-.85-.22c-.78-.22-1.169-.66-1.169-1.31,0-.969.729-1.589,1.879-1.589.75,0,1.439.26,2.039.75l-.62.709c-.49-.39-1.02-.6-1.479-.6-.52,0-.83.23-.83.59,0,.28.15.43.58.55l.85.229c.83.23,1.229.64,1.229,1.26,0,.979-.85,1.709-1.999,1.709-.859,0-1.659-.3-2.199-.83Z" id="path186"></path>
    <path class="uuid-1cd35805-a3ff-4293-9a1d-1611282ee1df" d="M284.952,319.56c0-1.579,1.209-2.858,2.708-2.858,1.309,0,2.249.979,2.249,2.339,0,1.569-1.229,2.858-2.708,2.858-1.299,0-2.249-.979-2.249-2.339ZM288.81,319.061c0-.84-.479-1.399-1.219-1.399-.859,0-1.549.83-1.549,1.859,0,.839.49,1.399,1.219,1.399.87,0,1.549-.81,1.549-1.859Z" id="path187"></path>
    <path class="uuid-1cd35805-a3ff-4293-9a1d-1611282ee1df" d="M291.731,317.691h-1.029l.209-.899h1l.22-1.009c.22-1.01.869-1.559,1.839-1.559.33,0,.68.06.899.15l-.2.959c-.22-.08-.43-.12-.66-.12-.45,0-.69.2-.78.669l-.2.91h1.369l-.21.899h-1.349l-.859,4.108h-1.109l.859-4.108Z" id="path188"></path>
  </g>
  <g id="g195">
    <path class="uuid-1cd35805-a3ff-4293-9a1d-1611282ee1df" d="M475.17,319.57c0-1.549,1.148-2.818,2.568-2.818.64,0,1.169.28,1.499.77l.609-2.888,1.14-.2-1.539,7.366h-1.1l.1-.47c-.359.33-.819.52-1.339.52-1.1,0-1.938-.989-1.938-2.279ZM478.617,320.49l.45-2.189c-.24-.36-.68-.59-1.169-.59-.92,0-1.63.77-1.63,1.769,0,.84.54,1.429,1.3,1.429.399,0,.739-.14,1.049-.419Z" id="path189"></path>
    <path class="uuid-1cd35805-a3ff-4293-9a1d-1611282ee1df" d="M481.14,319.56c0-1.559,1.189-2.849,2.639-2.849,1.229,0,2.089.92,2.089,2.229,0,.23-.011.43-.04.629h-3.608c.01.8.59,1.399,1.369,1.399.43,0,.85-.14,1.149-.4l.6.73c-.609.419-1.179.6-1.839.6-1.389,0-2.358-.959-2.358-2.339ZM484.867,318.871c-.029-.71-.5-1.229-1.159-1.229s-1.199.5-1.409,1.229h2.568Z" id="path190"></path>
    <path class="uuid-1cd35805-a3ff-4293-9a1d-1611282ee1df" d="M487.769,317.691h-1.029l.21-.899h.999l.221-1.009c.22-1.01.869-1.559,1.839-1.559.329,0,.68.06.899.15l-.2.959c-.22-.08-.43-.12-.659-.12-.45,0-.69.2-.78.669l-.199.91h1.369l-.21.899h-1.35l-.859,4.108h-1.109l.859-4.108Z" id="path191"></path>
    <path class="uuid-1cd35805-a3ff-4293-9a1d-1611282ee1df" d="M491.359,316.792h1.109l-1.08,5.007h-1.119l1.09-5.007ZM491.529,315.163c0-.41.359-.78.77-.78.34,0,.619.27.619.62,0,.42-.35.77-.77.77-.359,0-.619-.26-.619-.609Z" id="path192"></path>
    <path class="uuid-1cd35805-a3ff-4293-9a1d-1611282ee1df" d="M493.849,316.792h1.109l-.16.75c.46-.53,1-.81,1.609-.81,1.069,0,1.649.79,1.399,1.899l-.68,3.168h-1.109l.63-2.898c.17-.76-.181-1.279-.87-1.279-.409,0-.789.19-1.109.55l-.789,3.628h-1.119l1.089-5.007Z" id="path193"></path>
    <path class="uuid-1cd35805-a3ff-4293-9a1d-1611282ee1df" d="M498.779,319.56c0-1.559,1.189-2.849,2.639-2.849,1.229,0,2.089.92,2.089,2.229,0,.23-.011.43-.04.629h-3.608c.01.8.59,1.399,1.369,1.399.43,0,.85-.14,1.149-.4l.6.73c-.609.419-1.179.6-1.839.6-1.389,0-2.358-.959-2.358-2.339ZM502.507,318.871c-.029-.71-.5-1.229-1.159-1.229s-1.199.5-1.409,1.229h2.568Z" id="path194"></path>
    <path class="uuid-1cd35805-a3ff-4293-9a1d-1611282ee1df" d="M503.959,321.069l.62-.72c.63.51,1.06.689,1.609.689.529,0,.929-.3.929-.68,0-.27-.17-.43-.589-.54l-.85-.22c-.78-.22-1.17-.66-1.17-1.31,0-.969.729-1.589,1.879-1.589.75,0,1.439.26,2.039.75l-.619.709c-.49-.39-1.02-.6-1.479-.6-.52,0-.83.23-.83.59,0,.28.15.43.58.55l.85.229c.829.23,1.229.64,1.229,1.26,0,.979-.85,1.709-1.999,1.709-.859,0-1.659-.3-2.199-.83Z" id="path195"></path>
  </g>
  <g id="g196">
    <polyline class="uuid-cb3b8a9a-d814-4f12-8227-a5c9a1fd6a85" points="295.678 328.89 241.594 328.89 241.594 454.024" id="polyline195"></polyline>
    <polygon class="uuid-d37e7bcb-3d82-40dc-98be-cf8ba409092c" points="294.583 325.15 301.06 328.89 294.583 332.63 294.583 325.15" id="polygon195"></polygon>
  </g>
  <g id="g197">
    <line class="uuid-cb3b8a9a-d814-4f12-8227-a5c9a1fd6a85" x1="516.499" y1="328.655" x2="452.735" y2="328.655" id="line196"></line>
    <polygon class="uuid-d37e7bcb-3d82-40dc-98be-cf8ba409092c" points="453.829 324.915 447.353 328.655 453.829 332.395 453.829 324.915" id="polygon196"></polygon>
  </g>
  <g id="g203">
    <path class="uuid-1cd35805-a3ff-4293-9a1d-1611282ee1df" d="M475.17,155.047c0-1.549,1.148-2.818,2.568-2.818.64,0,1.169.28,1.499.77l.609-2.888,1.14-.2-1.539,7.366h-1.1l.1-.47c-.359.33-.819.52-1.339.52-1.1,0-1.938-.989-1.938-2.279ZM478.617,155.967l.45-2.189c-.24-.36-.68-.59-1.169-.59-.92,0-1.63.77-1.63,1.769,0,.84.54,1.429,1.3,1.429.399,0,.739-.14,1.049-.419Z" id="path197"></path>
    <path class="uuid-1cd35805-a3ff-4293-9a1d-1611282ee1df" d="M481.14,155.038c0-1.559,1.189-2.849,2.639-2.849,1.229,0,2.089.92,2.089,2.229,0,.23-.011.43-.04.629h-3.608c.01.8.59,1.399,1.369,1.399.43,0,.85-.14,1.149-.4l.6.73c-.609.419-1.179.6-1.839.6-1.389,0-2.358-.959-2.358-2.339ZM484.867,154.348c-.029-.71-.5-1.229-1.159-1.229s-1.199.5-1.409,1.229h2.568Z" id="path198"></path>
    <path class="uuid-1cd35805-a3ff-4293-9a1d-1611282ee1df" d="M487.769,153.168h-1.029l.21-.899h.999l.221-1.009c.22-1.01.869-1.559,1.839-1.559.329,0,.68.06.899.15l-.2.959c-.22-.08-.43-.12-.659-.12-.45,0-.69.2-.78.669l-.199.91h1.369l-.21.899h-1.35l-.859,4.108h-1.109l.859-4.108Z" id="path199"></path>
    <path class="uuid-1cd35805-a3ff-4293-9a1d-1611282ee1df" d="M491.359,152.269h1.109l-1.08,5.007h-1.119l1.09-5.007ZM491.529,150.64c0-.41.359-.78.77-.78.34,0,.619.27.619.62,0,.42-.35.77-.77.77-.359,0-.619-.26-.619-.609Z" id="path200"></path>
    <path class="uuid-1cd35805-a3ff-4293-9a1d-1611282ee1df" d="M493.849,152.269h1.109l-.16.75c.46-.53,1-.81,1.609-.81,1.069,0,1.649.79,1.399,1.899l-.68,3.168h-1.109l.63-2.898c.17-.76-.181-1.279-.87-1.279-.409,0-.789.19-1.109.55l-.789,3.628h-1.119l1.089-5.007Z" id="path201"></path>
    <path class="uuid-1cd35805-a3ff-4293-9a1d-1611282ee1df" d="M498.779,155.038c0-1.559,1.189-2.849,2.639-2.849,1.229,0,2.089.92,2.089,2.229,0,.23-.011.43-.04.629h-3.608c.01.8.59,1.399,1.369,1.399.43,0,.85-.14,1.149-.4l.6.73c-.609.419-1.179.6-1.839.6-1.389,0-2.358-.959-2.358-2.339ZM502.507,154.348c-.029-.71-.5-1.229-1.159-1.229s-1.199.5-1.409,1.229h2.568Z" id="path202"></path>
    <path class="uuid-1cd35805-a3ff-4293-9a1d-1611282ee1df" d="M503.959,156.547l.62-.72c.63.51,1.06.689,1.609.689.529,0,.929-.3.929-.68,0-.27-.17-.43-.589-.54l-.85-.22c-.78-.22-1.17-.66-1.17-1.31,0-.969.729-1.589,1.879-1.589.75,0,1.439.26,2.039.75l-.619.709c-.49-.39-1.02-.6-1.479-.6-.52,0-.83.23-.83.59,0,.28.15.43.58.55l.85.229c.829.23,1.229.64,1.229,1.26,0,.979-.85,1.709-1.999,1.709-.859,0-1.659-.3-2.199-.83Z" id="path203"></path>
  </g>
  <g id="g204">
    <line class="uuid-cb3b8a9a-d814-4f12-8227-a5c9a1fd6a85" x1="516.499" y1="163.834" x2="435.807" y2="163.834" id="line203"></line>
    <polygon class="uuid-d37e7bcb-3d82-40dc-98be-cf8ba409092c" points="436.902 160.094 430.425 163.834 436.902 167.574 436.902 160.094" id="polygon203"></polygon>
  </g>
  <g id="g230">
    <path class="uuid-d37e7bcb-3d82-40dc-98be-cf8ba409092c" d="M520.309,146.982h1.618l3.108,4.237-.029-4.237h1.619v6.996h-1.52l-3.208-4.378.029,4.378h-1.618v-6.996Z" id="path204"></path>
    <path class="uuid-d37e7bcb-3d82-40dc-98be-cf8ba409092c" d="M527.809,151.41c0-1.51,1.119-2.669,2.599-2.669,1.488,0,2.538,1.13,2.538,2.729v.35h-3.548c.149.58.619.97,1.209.97.43,0,.79-.149,1.02-.43l1.069.89c-.669.59-1.299.829-2.169.829-1.519,0-2.718-1.169-2.718-2.668ZM531.446,150.9c-.14-.55-.529-.899-1.05-.899-.51,0-.869.329-.999.899h2.049Z" id="path205"></path>
    <path class="uuid-d37e7bcb-3d82-40dc-98be-cf8ba409092c" d="M534.487,152.418v-2.349h-.999v-1.249h.999v-1.429l1.619-.33v1.759h1.38v1.249h-1.38v2.029c0,.46.181.619.68.619.19,0,.34-.02.66-.109v1.31c-.3.09-.779.159-1.109.159-1.22,0-1.85-.56-1.85-1.659Z" id="path206"></path>
    <path class="uuid-d37e7bcb-3d82-40dc-98be-cf8ba409092c" d="M538.018,148.821h1.529l.72,3.078.87-3.078h1.329l.859,3.068.71-3.068h1.489l-1.37,5.157h-1.539l-.839-3.038-.82,3.038h-1.559l-1.38-5.157Z" id="path207"></path>
    <path class="uuid-d37e7bcb-3d82-40dc-98be-cf8ba409092c" d="M545.988,151.41c0-1.52,1.159-2.669,2.688-2.669s2.688,1.149,2.688,2.669-1.159,2.668-2.688,2.668-2.688-1.149-2.688-2.668ZM549.786,151.41c0-.77-.46-1.319-1.109-1.319s-1.109.55-1.109,1.319.459,1.319,1.109,1.319,1.109-.55,1.109-1.319Z" id="path208"></path>
    <path class="uuid-d37e7bcb-3d82-40dc-98be-cf8ba409092c" d="M552.398,148.821h1.618v1.169c.33-.859.79-1.269,1.399-1.269.23.01.34.029.54.13v1.389c-.2-.1-.479-.159-.76-.159-.479,0-.919.249-1.18.64v3.258h-1.618v-5.157Z" id="path209"></path>
    <path class="uuid-d37e7bcb-3d82-40dc-98be-cf8ba409092c" d="M556.818,146.832l1.618-.249v4.287l1.8-2.049h1.789l-2.1,2.309,2.249,2.849h-2.019l-1.72-2.278v2.278h-1.618v-7.146Z" id="path210"></path>
    <path class="uuid-d37e7bcb-3d82-40dc-98be-cf8ba409092c" d="M519.918,164.499c0-.949.74-1.499,2.009-1.499.37,0,.74.07,1.2.24v-.42c0-.5-.33-.75-1.02-.75-.39,0-.85.11-1.449.36l-.56-1.13c.85-.38,1.608-.56,2.368-.56,1.43,0,2.259.71,2.259,1.939v3.298h-1.599v-.45c-.45.38-.88.53-1.43.53-1.05,0-1.779-.64-1.779-1.56ZM522.197,164.989c.34,0,.649-.09.93-.26v-.66c-.3-.069-.59-.109-.89-.109-.53,0-.83.18-.83.51s.29.52.79.52Z" id="path211"></path>
    <path class="uuid-d37e7bcb-3d82-40dc-98be-cf8ba409092c" d="M526.478,164.418v-2.349h-.999v-1.249h.999v-1.429l1.619-.33v1.759h1.38v1.249h-1.38v2.029c0,.46.181.619.68.619.19,0,.34-.02.66-.109v1.31c-.3.09-.779.159-1.109.159-1.22,0-1.85-.56-1.85-1.659Z" id="path212"></path>
    <path class="uuid-d37e7bcb-3d82-40dc-98be-cf8ba409092c" d="M531.157,164.418v-2.349h-.999v-1.249h.999v-1.429l1.619-.33v1.759h1.38v1.249h-1.38v2.029c0,.46.181.619.68.619.19,0,.34-.02.66-.109v1.31c-.3.09-.779.159-1.109.159-1.22,0-1.85-.56-1.85-1.659Z" id="path213"></path>
    <path class="uuid-d37e7bcb-3d82-40dc-98be-cf8ba409092c" d="M534.818,164.499c0-.949.739-1.499,2.009-1.499.37,0,.739.07,1.199.24v-.42c0-.5-.33-.75-1.02-.75-.39,0-.85.11-1.449.36l-.56-1.13c.85-.38,1.609-.56,2.369-.56,1.429,0,2.259.71,2.259,1.939v3.298h-1.6v-.45c-.449.38-.88.53-1.429.53-1.05,0-1.779-.64-1.779-1.56ZM537.097,164.989c.34,0,.65-.09.93-.26v-.66c-.3-.069-.59-.109-.89-.109-.529,0-.829.18-.829.51s.29.52.789.52Z" id="path214"></path>
    <path class="uuid-d37e7bcb-3d82-40dc-98be-cf8ba409092c" d="M540.618,163.41c0-1.51,1.159-2.669,2.668-2.669.85,0,1.629.34,2.149.949l-.99.99c-.329-.39-.659-.56-1.099-.56-.64,0-1.12.549-1.12,1.289s.48,1.289,1.12,1.289c.439,0,.77-.17,1.099-.56l.99.989c-.521.609-1.3.949-2.149.949-1.509,0-2.668-1.159-2.668-2.668Z" id="path215"></path>
    <path class="uuid-d37e7bcb-3d82-40dc-98be-cf8ba409092c" d="M546.238,158.862l1.618-.25v3.049c.4-.6.96-.92,1.63-.92.999,0,1.709.729,1.709,1.759v3.479h-1.619v-3.009c0-.579-.34-.959-.859-.959-.351,0-.63.14-.86.43v3.538h-1.618v-7.116Z" id="path216"></path>
    <path class="uuid-d37e7bcb-3d82-40dc-98be-cf8ba409092c" d="M552.418,160.821h1.619v.819c.38-.59.899-.899,1.529-.899.67,0,1.199.37,1.449.96.399-.62.979-.96,1.688-.96.95,0,1.619.75,1.619,1.81v3.428h-1.619v-3.108c0-.52-.31-.859-.77-.859-.3,0-.539.12-.749.39v3.578h-1.619v-3.108c0-.52-.31-.859-.77-.859-.3,0-.55.13-.76.399v3.568h-1.619v-5.157Z" id="path217"></path>
    <path class="uuid-d37e7bcb-3d82-40dc-98be-cf8ba409092c" d="M561.318,163.41c0-1.51,1.119-2.669,2.599-2.669,1.488,0,2.538,1.13,2.538,2.729v.35h-3.548c.149.58.619.97,1.209.97.43,0,.79-.149,1.02-.43l1.069.89c-.67.59-1.299.829-2.169.829-1.519,0-2.718-1.169-2.718-2.668ZM564.956,162.9c-.141-.55-.529-.899-1.05-.899-.51,0-.869.329-.999.899h2.049Z" id="path218"></path>
    <path class="uuid-d37e7bcb-3d82-40dc-98be-cf8ba409092c" d="M567.468,160.821h1.619v.84c.399-.6.959-.92,1.629-.92.999,0,1.709.729,1.709,1.759v3.479h-1.619v-3.009c0-.579-.34-.959-.859-.959-.35,0-.63.14-.859.43v3.538h-1.619v-5.157Z" id="path219"></path>
    <path class="uuid-d37e7bcb-3d82-40dc-98be-cf8ba409092c" d="M574.178,164.418v-2.349h-1v-1.249h1v-1.429l1.619-.33v1.759h1.379v1.249h-1.379v2.029c0,.46.18.619.68.619.189,0,.34-.02.659-.109v1.31c-.3.09-.779.159-1.109.159-1.22,0-1.849-.56-1.849-1.659Z" id="path220"></path>
    <path class="uuid-d37e7bcb-3d82-40dc-98be-cf8ba409092c" d="M519.929,175.389c0-1.449,1.059-2.599,2.398-2.599.54,0,1.029.221,1.379.62v-2.549l1.619-.25v7.366h-1.599v-.67c-.34.43-.91.7-1.52.7-1.27,0-2.278-1.17-2.278-2.619ZM523.706,176.259v-1.739c-.25-.26-.59-.399-.959-.399-.71,0-1.229.539-1.229,1.279,0,.729.529,1.269,1.229,1.269.39,0,.709-.14.959-.409Z" id="path221"></path>
    <path class="uuid-d37e7bcb-3d82-40dc-98be-cf8ba409092c" d="M526.358,175.41c0-1.51,1.119-2.669,2.599-2.669,1.488,0,2.538,1.13,2.538,2.729v.35h-3.548c.149.58.619.97,1.209.97.43,0,.79-.149,1.02-.43l1.069.89c-.669.59-1.299.829-2.169.829-1.519,0-2.718-1.169-2.718-2.668ZM529.996,174.9c-.14-.55-.529-.899-1.05-.899-.51,0-.869.329-.999.899h2.049Z" id="path222"></path>
    <path class="uuid-d37e7bcb-3d82-40dc-98be-cf8ba409092c" d="M533.117,174.07h-1.069v-1.249h1.069v-.68c0-1.229.729-1.898,2.06-1.898.279,0,.649.04.859.1v1.329c-.29-.05-.44-.06-.62-.06-.46,0-.68.18-.68.56v.649h1.3v1.249h-1.3v3.908h-1.619v-3.908Z" id="path223"></path>
    <path class="uuid-d37e7bcb-3d82-40dc-98be-cf8ba409092c" d="M536.858,171.122c0-.5.409-.909.909-.909s.909.409.909.909-.409.91-.909.91-.909-.41-.909-.91ZM536.958,172.821h1.619v5.157h-1.619v-5.157Z" id="path224"></path>
    <path class="uuid-d37e7bcb-3d82-40dc-98be-cf8ba409092c" d="M539.838,172.821h1.619v.84c.399-.6.959-.92,1.629-.92,1,0,1.709.729,1.709,1.759v3.479h-1.619v-3.009c0-.579-.34-.959-.859-.959-.35,0-.63.14-.859.43v3.538h-1.619v-5.157Z" id="path225"></path>
    <path class="uuid-d37e7bcb-3d82-40dc-98be-cf8ba409092c" d="M545.918,171.122c0-.5.41-.909.909-.909s.91.409.91.909-.41.91-.91.91-.909-.41-.909-.91ZM546.019,172.821h1.618v5.157h-1.618v-5.157Z" id="path226"></path>
    <path class="uuid-d37e7bcb-3d82-40dc-98be-cf8ba409092c" d="M549.577,176.418v-2.349h-.999v-1.249h.999v-1.429l1.619-.33v1.759h1.38v1.249h-1.38v2.029c0,.46.181.619.68.619.19,0,.34-.02.66-.109v1.31c-.3.09-.779.159-1.109.159-1.22,0-1.85-.56-1.85-1.659Z" id="path227"></path>
    <path class="uuid-d37e7bcb-3d82-40dc-98be-cf8ba409092c" d="M553.378,171.122c0-.5.409-.909.909-.909s.909.409.909.909-.409.91-.909.91-.909-.41-.909-.91ZM553.478,172.821h1.619v5.157h-1.619v-5.157Z" id="path228"></path>
    <path class="uuid-d37e7bcb-3d82-40dc-98be-cf8ba409092c" d="M556.128,175.41c0-1.52,1.159-2.669,2.688-2.669s2.688,1.149,2.688,2.669-1.159,2.668-2.688,2.668-2.688-1.149-2.688-2.668ZM559.926,175.41c0-.77-.46-1.319-1.109-1.319s-1.109.55-1.109,1.319.46,1.319,1.109,1.319,1.109-.55,1.109-1.319Z" id="path229"></path>
    <path class="uuid-d37e7bcb-3d82-40dc-98be-cf8ba409092c" d="M562.538,172.821h1.618v.84c.4-.6.96-.92,1.629-.92,1,0,1.71.729,1.71,1.759v3.479h-1.619v-3.009c0-.579-.34-.959-.86-.959-.35,0-.629.14-.859.43v3.538h-1.618v-5.157Z" id="path230"></path>
  </g>
  <metadata id="metadata230">
    
      
        
          
            multus
            nmstate
            network
          
        
      
    
  </metadata>
</svg>
