<svg id="svg516" version="1.1" viewBox="0 0 754.426 306.074" height="107.976mm" width="266.145mm" xmlns="http://www.w3.org/2000/svg">
  <metadata id="metadata520">
    
      
        image/svg+xml
        
        
        
          
            nodeport
            loadbalancer
            route
          
        
      
    
  </metadata>
  
  <defs id="defs12">
    <style id="style10">
      .cls-1 {
        fill: #d9e8f7;
      }

      .cls-2 {
        fill: #161616;
      }

      .cls-3, .cls-7 {
        fill: #fff;
      }

      .cls-4 {
        fill: #e8e8e8;
        stroke: #a2a2a2;
      }

      .cls-10, .cls-11, .cls-12, .cls-15, .cls-16, .cls-17, .cls-18, .cls-19, .cls-20, .cls-4, .cls-6 {
        stroke-miterlimit: 10;
      }

      .cls-5 {
        fill: #06c;
      }

      .cls-10, .cls-11, .cls-12, .cls-14, .cls-15, .cls-16, .cls-17, .cls-18, .cls-19, .cls-20, .cls-6, .cls-8, .cls-9 {
        fill: none;
      }

      .cls-6 {
        stroke: #06c;
      }

      .cls-7, .cls-8, .cls-9 {
        stroke: #5c5c5c;
        stroke-linecap: round;
      }

      .cls-14, .cls-7, .cls-8, .cls-9 {
        stroke-linejoin: round;
      }

      .cls-7, .cls-9 {
        stroke-width: 1.5px;
      }

      .cls-8 {
        stroke-width: 2px;
      }

      .cls-10, .cls-11, .cls-12, .cls-15, .cls-16, .cls-17, .cls-18, .cls-19, .cls-20 {
        stroke: #e00;
      }

      .cls-10 {
        stroke-dasharray: 3 3 3 3 3 3;
      }

      .cls-12 {
        stroke-dasharray: 2.317 2.317 2.317 2.317;
      }

      .cls-13 {
        fill: #e00;
      }

      .cls-14 {
        stroke: #d9e8f7;
        stroke-width: 10px;
      }

      .cls-15 {
        stroke-dasharray: 3.716 3.716 3.716 3.716;
      }

      .cls-16 {
        stroke-dasharray: 3.716 3.716 3.716 3.716 3.716 3.716;
      }

      .cls-17 {
        stroke-dasharray: 2.898 2.898 2.898 2.898;
      }

      .cls-18 {
        stroke-dasharray: 2.898 2.898 2.898 2.898 2.898 2.898;
      }

      .cls-19 {
        stroke-dasharray: 1.644 1.644 1.644 1.644;
      }

      .cls-20 {
        stroke-dasharray: 1.644 1.644 1.644 1.644 1.644 1.644;
      }
    </style>
  </defs>
  <rect id="rect1" height="306.02304" width="754.35748" class="cls-1" x="0" y="0" style="stroke-width:2.11533;fill:#ffffff"></rect>
  <g data-name="Layer 1" id="Layer_1">
    <rect id="rect14" height="213.165" width="242.007" y="0.016" x="256.224" class="cls-1"></rect>
    <g id="g26">
      <path id="path16" transform="translate(-43.718 -43.62)" d="M314.9,54.157h1.619l3.109,4.237-.031-4.237h1.62v7H319.7l-3.209-4.378.03,4.378H314.9Z" class="cls-2"></path>
      <path id="path18" transform="translate(-43.718 -43.62)" d="M322.4,58.584a2.689,2.689,0,1,1,2.689,2.668A2.624,2.624,0,0,1,322.4,58.584Zm3.8,0a1.126,1.126,0,1,0-1.109,1.319A1.18,1.18,0,0,0,326.2,58.584Z" class="cls-2"></path>
      <path id="path20" transform="translate(-43.718 -43.62)" d="M328.585,58.564a2.486,2.486,0,0,1,2.4-2.6,1.8,1.8,0,0,1,1.379.62V54.036l1.619-.25v7.367h-1.6v-.67a1.949,1.949,0,0,1-1.52.7A2.457,2.457,0,0,1,328.585,58.564Zm3.777.869V57.7a1.314,1.314,0,0,0-.959-.4,1.275,1.275,0,0,0,0,2.549A1.252,1.252,0,0,0,332.362,59.433Z" class="cls-2"></path>
      <path id="path22" transform="translate(-43.718 -43.62)" d="M335.015,58.584a2.585,2.585,0,0,1,2.6-2.669,2.532,2.532,0,0,1,2.538,2.729v.349H336.6a1.237,1.237,0,0,0,1.209.97,1.277,1.277,0,0,0,1.02-.43l1.069.89a3.006,3.006,0,0,1-2.169.829A2.666,2.666,0,0,1,335.015,58.584Zm3.637-.509a1.082,1.082,0,0,0-1.05-.9,1.015,1.015,0,0,0-1,.9Z" class="cls-2"></path>
      <path id="path24" transform="translate(-43.718 -43.62)" d="M343.194,60.053l2.958-2.929a1.289,1.289,0,0,0,.47-.949c0-.45-.439-.789-1.029-.789a2.411,2.411,0,0,0-1.77.859l-.859-1.049a3.84,3.84,0,0,1,2.679-1.15c1.489,0,2.478.81,2.478,2.029a2.468,2.468,0,0,1-.909,1.83l-2.019,1.948,3.029-.01v1.31h-5.028Z" class="cls-2"></path>
    </g>
    <g id="g64">
      <path id="path28" transform="translate(-43.718 -43.62)" d="M314.125,71.966h99.7v71.449h-99.7Z" class="cls-3"></path>
      <g id="g38">
        <path id="path30" transform="translate(-43.718 -43.62)" d="M329.563,82.479h3.418a2.286,2.286,0,1,1,0,4.557h-1.7v2.439h-1.719Zm3.108,3.188c.7,0,1.04-.38,1.04-.889s-.34-.88-1.029-.88h-1.4v1.769Z" class="cls-2"></path>
        <path id="path32" transform="translate(-43.718 -43.62)" d="M336.283,86.907a2.689,2.689,0,1,1,2.689,2.668A2.623,2.623,0,0,1,336.283,86.907Zm3.8,0a1.126,1.126,0,1,0-1.109,1.319A1.181,1.181,0,0,0,340.081,86.907Z" class="cls-2"></path>
        <path id="path34" transform="translate(-43.718 -43.62)" d="M342.463,86.887a2.487,2.487,0,0,1,2.4-2.6,1.8,1.8,0,0,1,1.38.62V82.359l1.619-.249v7.365h-1.6v-.669a1.945,1.945,0,0,1-1.519.7A2.457,2.457,0,0,1,342.463,86.887Zm3.778.869V86.017a1.314,1.314,0,0,0-.96-.4,1.275,1.275,0,0,0,0,2.549A1.254,1.254,0,0,0,346.241,87.756Z" class="cls-2"></path>
        <path id="path36" transform="translate(-43.718 -43.62)" d="M351.153,88.375l2.958-2.927a1.3,1.3,0,0,0,.47-.95c0-.45-.439-.79-1.029-.79a2.416,2.416,0,0,0-1.77.86l-.859-1.049a3.84,3.84,0,0,1,2.678-1.15c1.49,0,2.479.81,2.479,2.029a2.465,2.465,0,0,1-.909,1.829l-2.019,1.949,3.029-.01v1.309h-5.028Z" class="cls-2"></path>
      </g>
      <g id="g62">
        <path id="path40" transform="translate(-43.718 -43.62)" d="M328.783,100.346h70.866v28.347H328.783Z" class="cls-4"></path>
        <g id="g60">
          <path id="path42" transform="translate(-43.718 -43.62)" d="M342.354,114.789a2.527,2.527,0,0,1,2.53-2.589,2.7,2.7,0,0,1,2,.85l-.7.73a1.655,1.655,0,0,0-1.259-.59,1.608,1.608,0,0,0,0,3.2,1.681,1.681,0,0,0,1.259-.579l.7.719a2.7,2.7,0,0,1-2,.849A2.521,2.521,0,0,1,342.354,114.789Z" class="cls-2"></path>
          <path id="path44" transform="translate(-43.718 -43.62)" d="M347.585,114.789a2.515,2.515,0,1,1,2.518,2.588A2.494,2.494,0,0,1,347.585,114.789Zm3.918,0a1.42,1.42,0,1,0-1.4,1.629A1.487,1.487,0,0,0,351.5,114.789Z" class="cls-2"></path>
          <path id="path46" transform="translate(-43.718 -43.62)" d="M353.784,112.281h1.13v.819a1.824,1.824,0,0,1,1.579-.9,1.69,1.69,0,0,1,1.749,1.79v3.3H357.1v-2.978a1.077,1.077,0,0,0-1.1-1.2,1.246,1.246,0,0,0-1.089.61v3.567h-1.13Z" class="cls-2"></path>
          <path id="path48" transform="translate(-43.718 -43.62)" d="M360.224,115.989V113.18h-1v-.9h1V110.9l1.129-.24v1.62h1.389v.9h-1.389v2.559c0,.489.19.679.7.679a2.113,2.113,0,0,0,.679-.12v.949a3.554,3.554,0,0,1-.969.141C360.754,117.388,360.224,116.908,360.224,115.989Z" class="cls-2"></path>
          <path id="path50" transform="translate(-43.718 -43.62)" d="M363.484,115.849c0-.9.74-1.47,1.919-1.47a2.936,2.936,0,0,1,1.35.321v-.561c0-.659-.38-1-1.15-1a3.466,3.466,0,0,0-1.459.39l-.4-.82a4.953,4.953,0,0,1,2.079-.51c1.31,0,2.049.66,2.049,1.82v3.267h-1.119v-.519a2.021,2.021,0,0,1-1.489.609A1.6,1.6,0,0,1,363.484,115.849Zm2.089.729a1.74,1.74,0,0,0,1.18-.42v-.809a2.578,2.578,0,0,0-1.15-.24c-.649,0-1.059.269-1.059.719S364.943,116.578,365.573,116.578Z" class="cls-2"></path>
          <path id="path52" transform="translate(-43.718 -43.62)" d="M369.1,110.572a.7.7,0,1,1,.7.689A.694.694,0,0,1,369.1,110.572Zm.13,1.709h1.13v5.006h-1.13Z" class="cls-2"></path>
          <path id="path54" transform="translate(-43.718 -43.62)" d="M371.764,112.281h1.129v.819a1.824,1.824,0,0,1,1.58-.9,1.69,1.69,0,0,1,1.749,1.79v3.3h-1.14v-2.978a1.078,1.078,0,0,0-1.1-1.2,1.246,1.246,0,0,0-1.089.61v3.567h-1.129Z" class="cls-2"></path>
          <path id="path56" transform="translate(-43.718 -43.62)" d="M377.353,114.789a2.473,2.473,0,0,1,2.439-2.589,2.407,2.407,0,0,1,2.369,2.589v.27h-3.7a1.533,1.533,0,0,0,1.5,1.4,1.663,1.663,0,0,0,1.189-.469l.741.669a2.9,2.9,0,0,1-1.98.73A2.543,2.543,0,0,1,377.353,114.789Zm3.739-.429a1.362,1.362,0,0,0-1.31-1.24,1.344,1.344,0,0,0-1.308,1.24Z" class="cls-2"></path>
          <path id="path58" transform="translate(-43.718 -43.62)" d="M383.313,112.281h1.13v1.079a1.5,1.5,0,0,1,1.379-1.169,1.309,1.309,0,0,1,.489.1v.99a1.79,1.79,0,0,0-.619-.121,1.365,1.365,0,0,0-1.249.831v3.3h-1.13Z" class="cls-2"></path>
        </g>
      </g>
    </g>
    <g id="g102">
      <path id="path66" transform="translate(-43.718 -43.62)" d="M428.078,71.966h99.7v71.449h-99.7Z" class="cls-3"></path>
      <g id="g76">
        <path id="path68" transform="translate(-43.718 -43.62)" d="M443.517,82.479h3.418a2.286,2.286,0,1,1,0,4.557h-1.7v2.439h-1.718Zm3.108,3.188c.7,0,1.039-.38,1.039-.889s-.34-.88-1.029-.88h-1.4v1.769Z" class="cls-2"></path>
        <path id="path70" transform="translate(-43.718 -43.62)" d="M450.237,86.907a2.689,2.689,0,1,1,2.689,2.668A2.623,2.623,0,0,1,450.237,86.907Zm3.8,0a1.126,1.126,0,1,0-1.109,1.319A1.181,1.181,0,0,0,454.035,86.907Z" class="cls-2"></path>
        <path id="path72" transform="translate(-43.718 -43.62)" d="M456.417,86.887a2.487,2.487,0,0,1,2.4-2.6,1.8,1.8,0,0,1,1.379.62V82.359l1.619-.249v7.365h-1.6v-.669a1.946,1.946,0,0,1-1.52.7A2.457,2.457,0,0,1,456.417,86.887Zm3.777.869V86.017a1.313,1.313,0,0,0-.959-.4,1.275,1.275,0,0,0,0,2.549A1.252,1.252,0,0,0,460.194,87.756Z" class="cls-2"></path>
        <path id="path74" transform="translate(-43.718 -43.62)" d="M464.907,88.455l1.039-.959a1.983,1.983,0,0,0,1.7.74c.76,0,1.259-.34,1.259-.86,0-.45-.359-.729-.919-.729h-.9v-1.27h.739c.569,0,.909-.29.909-.779s-.469-.859-1.1-.859a1.95,1.95,0,0,0-1.63.8l-1.049-.949a3.668,3.668,0,0,1,2.738-1.219c1.53,0,2.589.83,2.589,2.019a1.7,1.7,0,0,1-1.33,1.6c.92.18,1.51.75,1.51,1.519,0,1.209-1.17,2.079-2.8,2.079A3.649,3.649,0,0,1,464.907,88.455Z" class="cls-2"></path>
      </g>
      <g id="g100">
        <path id="path78" transform="translate(-43.718 -43.62)" d="M442.736,100.346H513.6v28.347H442.736Z" class="cls-4"></path>
        <g id="g98">
          <path id="path80" transform="translate(-43.718 -43.62)" d="M456.309,114.789a2.526,2.526,0,0,1,2.528-2.589,2.708,2.708,0,0,1,2,.85l-.7.73a1.659,1.659,0,0,0-1.26-.59,1.608,1.608,0,0,0,0,3.2,1.685,1.685,0,0,0,1.26-.579l.7.719a2.707,2.707,0,0,1-2,.849A2.52,2.52,0,0,1,456.309,114.789Z" class="cls-2"></path>
          <path id="path82" transform="translate(-43.718 -43.62)" d="M461.538,114.789a2.515,2.515,0,1,1,2.519,2.588A2.5,2.5,0,0,1,461.538,114.789Zm3.918,0a1.42,1.42,0,1,0-1.4,1.629A1.487,1.487,0,0,0,465.456,114.789Z" class="cls-2"></path>
          <path id="path84" transform="translate(-43.718 -43.62)" d="M467.738,112.281h1.129v.819a1.825,1.825,0,0,1,1.579-.9,1.69,1.69,0,0,1,1.749,1.79v3.3h-1.139v-2.978a1.078,1.078,0,0,0-1.1-1.2,1.248,1.248,0,0,0-1.09.61v3.567h-1.129Z" class="cls-2"></path>
          <path id="path86" transform="translate(-43.718 -43.62)" d="M474.178,115.989V113.18h-1v-.9h1V110.9l1.129-.24v1.62H476.7v.9h-1.389v2.559c0,.489.19.679.7.679a2.118,2.118,0,0,0,.679-.12v.949a3.549,3.549,0,0,1-.969.141C474.707,117.388,474.178,116.908,474.178,115.989Z" class="cls-2"></path>
          <path id="path88" transform="translate(-43.718 -43.62)" d="M477.438,115.849c0-.9.74-1.47,1.919-1.47a2.926,2.926,0,0,1,1.349.321v-.561c0-.659-.38-1-1.149-1a3.462,3.462,0,0,0-1.459.39l-.4-.82a4.948,4.948,0,0,1,2.078-.51c1.31,0,2.049.66,2.049,1.82v3.267h-1.119v-.519a2.02,2.02,0,0,1-1.489.609A1.594,1.594,0,0,1,477.438,115.849Zm2.089.729a1.739,1.739,0,0,0,1.179-.42v-.809a2.574,2.574,0,0,0-1.149-.24c-.65,0-1.06.269-1.06.719S478.9,116.578,479.527,116.578Z" class="cls-2"></path>
          <path id="path90" transform="translate(-43.718 -43.62)" d="M483.058,110.572a.7.7,0,0,1,.7-.7.709.709,0,0,1,.7.7.7.7,0,0,1-.7.689A.693.693,0,0,1,483.058,110.572Zm.129,1.709h1.129v5.006h-1.129Z" class="cls-2"></path>
          <path id="path92" transform="translate(-43.718 -43.62)" d="M485.718,112.281h1.129v.819a1.823,1.823,0,0,1,1.579-.9,1.69,1.69,0,0,1,1.749,1.79v3.3h-1.14v-2.978a1.078,1.078,0,0,0-1.1-1.2,1.245,1.245,0,0,0-1.089.61v3.567h-1.129Z" class="cls-2"></path>
          <path id="path94" transform="translate(-43.718 -43.62)" d="M491.308,114.789a2.472,2.472,0,0,1,2.438-2.589,2.407,2.407,0,0,1,2.368,2.589v.27h-3.7a1.533,1.533,0,0,0,1.5,1.4,1.665,1.665,0,0,0,1.189-.469l.74.669a2.9,2.9,0,0,1-1.979.73A2.541,2.541,0,0,1,491.308,114.789Zm3.737-.429a1.361,1.361,0,0,0-1.309-1.24,1.346,1.346,0,0,0-1.309,1.24Z" class="cls-2"></path>
          <path id="path96" transform="translate(-43.718 -43.62)" d="M497.268,112.281H498.4v1.079a1.5,1.5,0,0,1,1.379-1.169,1.32,1.32,0,0,1,.491.1v.99a1.806,1.806,0,0,0-.621-.121,1.366,1.366,0,0,0-1.249.831v3.3h-1.128Z" class="cls-2"></path>
        </g>
      </g>
    </g>
    <rect id="rect104" height="213.181" width="242.007" class="cls-1"></rect>
    <g id="g116">
      <path id="path106" transform="translate(-43.718 -43.62)" d="M58.68,54.157H60.3l3.108,4.237-.03-4.237H65v7H63.477l-3.209-4.378.031,4.378H58.68Z" class="cls-2"></path>
      <path id="path108" transform="translate(-43.718 -43.62)" d="M66.18,58.584a2.689,2.689,0,1,1,2.688,2.668A2.623,2.623,0,0,1,66.18,58.584Zm3.8,0A1.126,1.126,0,1,0,68.868,59.9,1.179,1.179,0,0,0,69.977,58.584Z" class="cls-2"></path>
      <path id="path110" transform="translate(-43.718 -43.62)" d="M72.36,58.564a2.487,2.487,0,0,1,2.4-2.6,1.8,1.8,0,0,1,1.379.62V54.036l1.619-.25v7.367h-1.6v-.67a1.949,1.949,0,0,1-1.519.7A2.457,2.457,0,0,1,72.36,58.564Zm3.778.869V57.7a1.314,1.314,0,0,0-.959-.4,1.275,1.275,0,0,0,0,2.549A1.254,1.254,0,0,0,76.138,59.433Z" class="cls-2"></path>
      <path id="path112" transform="translate(-43.718 -43.62)" d="M78.79,58.584a2.585,2.585,0,0,1,2.6-2.669,2.532,2.532,0,0,1,2.538,2.729v.349H80.379a1.235,1.235,0,0,0,1.209.97,1.273,1.273,0,0,0,1.019-.43l1.07.89a3.006,3.006,0,0,1-2.169.829A2.666,2.666,0,0,1,78.79,58.584Zm3.638-.509a1.083,1.083,0,0,0-1.05-.9,1.014,1.014,0,0,0-1,.9Z" class="cls-2"></path>
      <path id="path114" transform="translate(-43.718 -43.62)" d="M88.159,55.755l-1.38.57V54.966l1.949-.809h.97v7H88.159Z" class="cls-2"></path>
    </g>
    <g id="g148">
      <path id="path118" transform="translate(-43.718 -43.62)" d="M57.9,71.966h99.7v71.449H57.9Z" class="cls-3"></path>
      <g id="g132">
        <path id="path120" transform="translate(-43.718 -43.62)" d="M72.579,82.479h1.858l1.85,5.207,1.879-5.207h1.789l-2.729,7H75.268Z" class="cls-2"></path>
        <path id="path122" transform="translate(-43.718 -43.62)" d="M80.759,82.479h2.158l1.689,3.358,1.679-3.358h2.159v7H86.825V84.728l-2.239,4.248-2.248-4.288v4.787H80.759Z" class="cls-2"></path>
        <path id="path124" transform="translate(-43.718 -43.62)" d="M92.158,82.479h3.418a2.286,2.286,0,1,1,0,4.557h-1.7v2.439H92.158Zm3.109,3.188c.7,0,1.039-.38,1.039-.889s-.34-.88-1.03-.88h-1.4v1.769Z" class="cls-2"></path>
        <path id="path126" transform="translate(-43.718 -43.62)" d="M98.878,86.907a2.689,2.689,0,1,1,2.688,2.668A2.623,2.623,0,0,1,98.878,86.907Zm3.8,0a1.126,1.126,0,1,0-1.11,1.319A1.181,1.181,0,0,0,102.676,86.907Z" class="cls-2"></path>
        <path id="path128" transform="translate(-43.718 -43.62)" d="M105.059,86.887a2.486,2.486,0,0,1,2.4-2.6,1.8,1.8,0,0,1,1.379.62V82.359l1.619-.249v7.365h-1.6v-.669a1.944,1.944,0,0,1-1.519.7A2.456,2.456,0,0,1,105.059,86.887Zm3.777.869V86.017a1.313,1.313,0,0,0-.959-.4,1.275,1.275,0,0,0,0,2.549A1.252,1.252,0,0,0,108.836,87.756Z" class="cls-2"></path>
        <path id="path130" transform="translate(-43.718 -43.62)" d="M114.937,84.078l-1.378.57v-1.36l1.948-.809h.969v7h-1.539Z" class="cls-2"></path>
      </g>
      <g id="g146">
        <g id="g138">
          <rect id="rect134" height="27.347" width="69.866" y="57.226" x="29.342" class="cls-1"></rect>
          <path id="path136" transform="translate(-43.718 -43.62)" d="M142.426,101.346v26.347H73.56V101.346h68.866m1-1H72.56v28.347h70.866V100.346Z" class="cls-5"></path>
        </g>
        <g id="g144">
          <path id="path140" transform="translate(-43.718 -43.62)" d="M100.12,110.291h1.289l2.15,5.778,2.168-5.778h1.24l-2.74,7h-1.388Z" class="cls-2"></path>
          <path id="path142" transform="translate(-43.718 -43.62)" d="M107.869,110.291h1.56l2.048,4.248,2.04-4.248h1.558v7h-1.129v-5.476l-2.478,4.977-2.49-5.007v5.506h-1.109Z" class="cls-2"></path>
        </g>
      </g>
    </g>
    <g id="g186">
      <path id="path150" transform="translate(-43.718 -43.62)" d="M171.854,71.966h99.7v71.449h-99.7Z" class="cls-3"></path>
      <g id="g160">
        <path id="path152" transform="translate(-43.718 -43.62)" d="M187.292,82.479h3.418a2.286,2.286,0,1,1,0,4.557h-1.7v2.439h-1.719Zm3.108,3.188c.7,0,1.039-.38,1.039-.889s-.339-.88-1.029-.88h-1.4v1.769Z" class="cls-2"></path>
        <path id="path154" transform="translate(-43.718 -43.62)" d="M194.013,86.907a2.689,2.689,0,1,1,2.688,2.668A2.623,2.623,0,0,1,194.013,86.907Zm3.8,0a1.126,1.126,0,1,0-1.109,1.319A1.18,1.18,0,0,0,197.81,86.907Z" class="cls-2"></path>
        <path id="path156" transform="translate(-43.718 -43.62)" d="M200.192,86.887a2.487,2.487,0,0,1,2.4-2.6,1.8,1.8,0,0,1,1.379.62V82.359l1.619-.249v7.365h-1.6v-.669a1.945,1.945,0,0,1-1.519.7A2.457,2.457,0,0,1,200.192,86.887Zm3.778.869V86.017a1.313,1.313,0,0,0-.959-.4,1.275,1.275,0,0,0,0,2.549A1.254,1.254,0,0,0,203.97,87.756Z" class="cls-2"></path>
        <path id="path158" transform="translate(-43.718 -43.62)" d="M210.071,84.078l-1.379.57v-1.36l1.949-.809h.969v7h-1.539Z" class="cls-2"></path>
      </g>
      <g id="g184">
        <path id="path162" transform="translate(-43.718 -43.62)" d="M186.512,100.346h70.866v28.347H186.512Z" class="cls-4"></path>
        <g id="g182">
          <path id="path164" transform="translate(-43.718 -43.62)" d="M200.084,114.789a2.527,2.527,0,0,1,2.528-2.589,2.706,2.706,0,0,1,2,.85l-.7.73a1.657,1.657,0,0,0-1.26-.59,1.608,1.608,0,0,0,0,3.2,1.683,1.683,0,0,0,1.26-.579l.7.719a2.706,2.706,0,0,1-2,.849A2.52,2.52,0,0,1,200.084,114.789Z" class="cls-2"></path>
          <path id="path166" transform="translate(-43.718 -43.62)" d="M205.313,114.789a2.515,2.515,0,1,1,2.519,2.588A2.5,2.5,0,0,1,205.313,114.789Zm3.918,0a1.42,1.42,0,1,0-1.4,1.629A1.486,1.486,0,0,0,209.231,114.789Z" class="cls-2"></path>
          <path id="path168" transform="translate(-43.718 -43.62)" d="M211.514,112.281h1.129v.819a1.823,1.823,0,0,1,1.579-.9,1.69,1.69,0,0,1,1.749,1.79v3.3h-1.14v-2.978a1.078,1.078,0,0,0-1.1-1.2,1.245,1.245,0,0,0-1.089.61v3.567h-1.129Z" class="cls-2"></path>
          <path id="path170" transform="translate(-43.718 -43.62)" d="M217.953,115.989V113.18h-1v-.9h1V110.9l1.129-.24v1.62h1.39v.9h-1.39v2.559c0,.489.19.679.7.679a2.123,2.123,0,0,0,.68-.12v.949a3.556,3.556,0,0,1-.97.141C218.482,117.388,217.953,116.908,217.953,115.989Z" class="cls-2"></path>
          <path id="path172" transform="translate(-43.718 -43.62)" d="M221.214,115.849c0-.9.739-1.47,1.919-1.47a2.925,2.925,0,0,1,1.348.321v-.561c0-.659-.38-1-1.149-1a3.462,3.462,0,0,0-1.459.39l-.4-.82a4.948,4.948,0,0,1,2.078-.51c1.309,0,2.049.66,2.049,1.82v3.267h-1.12v-.519a2.018,2.018,0,0,1-1.489.609A1.594,1.594,0,0,1,221.214,115.849Zm2.089.729a1.734,1.734,0,0,0,1.178-.42v-.809a2.571,2.571,0,0,0-1.149-.24c-.649,0-1.06.269-1.06.719S222.673,116.578,223.3,116.578Z" class="cls-2"></path>
          <path id="path174" transform="translate(-43.718 -43.62)" d="M226.833,110.572a.7.7,0,1,1,.7.689A.693.693,0,0,1,226.833,110.572Zm.13,1.709h1.129v5.006h-1.129Z" class="cls-2"></path>
          <path id="path176" transform="translate(-43.718 -43.62)" d="M229.493,112.281h1.129v.819a1.825,1.825,0,0,1,1.579-.9,1.69,1.69,0,0,1,1.749,1.79v3.3h-1.14v-2.978a1.077,1.077,0,0,0-1.1-1.2,1.248,1.248,0,0,0-1.09.61v3.567h-1.129Z" class="cls-2"></path>
          <path id="path178" transform="translate(-43.718 -43.62)" d="M235.083,114.789a2.473,2.473,0,0,1,2.438-2.589,2.407,2.407,0,0,1,2.369,2.589v.27h-3.7a1.533,1.533,0,0,0,1.5,1.4,1.668,1.668,0,0,0,1.19-.469l.739.669a2.9,2.9,0,0,1-1.978.73A2.542,2.542,0,0,1,235.083,114.789Zm3.737-.429a1.36,1.36,0,0,0-1.308-1.24,1.346,1.346,0,0,0-1.31,1.24Z" class="cls-2"></path>
          <path id="path180" transform="translate(-43.718 -43.62)" d="M241.043,112.281h1.129v1.079a1.5,1.5,0,0,1,1.379-1.169,1.318,1.318,0,0,1,.49.1v.99a1.8,1.8,0,0,0-.62-.121,1.365,1.365,0,0,0-1.249.831v3.3h-1.129Z" class="cls-2"></path>
        </g>
      </g>
    </g>
    <rect id="rect188" height="213.165" width="242.007" y="0.016" x="512.419" class="cls-1"></rect>
    <g id="g200">
      <path id="path190" transform="translate(-43.718 -43.62)" d="M571.1,54.157h1.619l3.108,4.237-.03-4.237h1.619v7H575.9l-3.209-4.378.031,4.378H571.1Z" class="cls-2"></path>
      <path id="path192" transform="translate(-43.718 -43.62)" d="M578.6,58.584a2.688,2.688,0,1,1,2.688,2.668A2.623,2.623,0,0,1,578.6,58.584Zm3.8,0a1.126,1.126,0,1,0-1.109,1.319A1.18,1.18,0,0,0,582.4,58.584Z" class="cls-2"></path>
      <path id="path194" transform="translate(-43.718 -43.62)" d="M584.781,58.564a2.487,2.487,0,0,1,2.4-2.6,1.8,1.8,0,0,1,1.379.62V54.036l1.619-.25v7.367h-1.6v-.67a1.949,1.949,0,0,1-1.519.7A2.457,2.457,0,0,1,584.781,58.564Zm3.778.869V57.7a1.314,1.314,0,0,0-.959-.4,1.275,1.275,0,0,0,0,2.549A1.254,1.254,0,0,0,588.559,59.433Z" class="cls-2"></path>
      <path id="path196" transform="translate(-43.718 -43.62)" d="M591.211,58.584a2.585,2.585,0,0,1,2.6-2.669,2.532,2.532,0,0,1,2.538,2.729v.349H592.8a1.235,1.235,0,0,0,1.209.97,1.275,1.275,0,0,0,1.019-.43l1.07.89a3.006,3.006,0,0,1-2.169.829A2.666,2.666,0,0,1,591.211,58.584Zm3.638-.509a1.083,1.083,0,0,0-1.05-.9,1.014,1.014,0,0,0-1,.9Z" class="cls-2"></path>
      <path id="path198" transform="translate(-43.718 -43.62)" d="M601.669,57.514l-2.528-3.357h2.048l1.509,2.118,1.5-2.118h1.97l-2.519,3.418,2.678,3.578h-2.049l-1.659-2.36-1.669,2.36H598.98Z" class="cls-2"></path>
    </g>
    <g id="g232">
      <path id="path202" transform="translate(-43.718 -43.62)" d="M570.32,71.966h99.7v71.449h-99.7Z" class="cls-3"></path>
      <g id="g216">
        <path id="path204" transform="translate(-43.718 -43.62)" d="M585,82.479h1.859l1.85,5.207,1.879-5.207h1.789l-2.729,7h-1.959Z" class="cls-2"></path>
        <path id="path206" transform="translate(-43.718 -43.62)" d="M593.179,82.479h2.159l1.688,3.358,1.68-3.358h2.158v7h-1.619V84.728l-2.238,4.248-2.248-4.288v4.787h-1.58Z" class="cls-2"></path>
        <path id="path208" transform="translate(-43.718 -43.62)" d="M604.579,82.479H608a2.286,2.286,0,1,1,0,4.557h-1.7v2.439h-1.719Zm3.107,3.188c.7,0,1.04-.38,1.04-.889s-.339-.88-1.029-.88h-1.4v1.769Z" class="cls-2"></path>
        <path id="path210" transform="translate(-43.718 -43.62)" d="M611.3,86.907a2.689,2.689,0,1,1,2.688,2.668A2.623,2.623,0,0,1,611.3,86.907Zm3.8,0a1.126,1.126,0,1,0-1.11,1.319A1.181,1.181,0,0,0,615.1,86.907Z" class="cls-2"></path>
        <path id="path212" transform="translate(-43.718 -43.62)" d="M617.479,86.887a2.487,2.487,0,0,1,2.4-2.6,1.806,1.806,0,0,1,1.379.62V82.359l1.619-.249v7.365h-1.6v-.669a1.943,1.943,0,0,1-1.518.7A2.457,2.457,0,0,1,617.479,86.887Zm3.778.869V86.017a1.313,1.313,0,0,0-.959-.4,1.275,1.275,0,0,0,0,2.549A1.255,1.255,0,0,0,621.257,87.756Z" class="cls-2"></path>
        <path id="path214" transform="translate(-43.718 -43.62)" d="M626.169,88.375l2.959-2.927a1.3,1.3,0,0,0,.469-.95c0-.45-.44-.79-1.03-.79a2.416,2.416,0,0,0-1.769.86l-.86-1.049a3.843,3.843,0,0,1,2.68-1.15c1.488,0,2.479.81,2.479,2.029a2.468,2.468,0,0,1-.911,1.829l-2.018,1.949,3.028-.01v1.309h-5.027Z" class="cls-2"></path>
      </g>
      <g id="g230">
        <g id="g222">
          <rect id="rect218" height="27.347" width="69.866" y="57.226" x="541.761" class="cls-1"></rect>
          <path id="path220" transform="translate(-43.718 -43.62)" d="M654.845,101.346v26.347H585.978V101.346h68.867m1-1H584.978v28.347h70.867V100.346Z" class="cls-5"></path>
        </g>
        <g id="g228">
          <path id="path224" transform="translate(-43.718 -43.62)" d="M612.541,110.291h1.289l2.149,5.778,2.168-5.778h1.241l-2.74,7h-1.389Z" class="cls-2"></path>
          <path id="path226" transform="translate(-43.718 -43.62)" d="M620.29,110.291h1.559l2.049,4.248,2.038-4.248h1.56v7h-1.13v-5.476l-2.478,4.977-2.489-5.007v5.506H620.29Z" class="cls-2"></path>
        </g>
      </g>
    </g>
    <g id="g264">
      <path id="path234" transform="translate(-43.718 -43.62)" d="M684.273,71.966h99.7v71.449h-99.7Z" class="cls-3"></path>
      <g id="g248">
        <path id="path236" transform="translate(-43.718 -43.62)" d="M698.952,82.479h1.858l1.85,5.207,1.879-5.207h1.789l-2.728,7h-1.959Z" class="cls-2"></path>
        <path id="path238" transform="translate(-43.718 -43.62)" d="M707.132,82.479h2.158l1.689,3.358,1.679-3.358h2.159v7H713.2V84.728l-2.239,4.248-2.248-4.288v4.787h-1.579Z" class="cls-2"></path>
        <path id="path240" transform="translate(-43.718 -43.62)" d="M718.531,82.479h3.418a2.286,2.286,0,1,1,0,4.557h-1.7v2.439h-1.719Zm3.109,3.188c.7,0,1.039-.38,1.039-.889s-.34-.88-1.03-.88h-1.4v1.769Z" class="cls-2"></path>
        <path id="path242" transform="translate(-43.718 -43.62)" d="M725.251,86.907a2.689,2.689,0,1,1,2.688,2.668A2.623,2.623,0,0,1,725.251,86.907Zm3.8,0a1.126,1.126,0,1,0-1.11,1.319A1.181,1.181,0,0,0,729.049,86.907Z" class="cls-2"></path>
        <path id="path244" transform="translate(-43.718 -43.62)" d="M731.432,86.887a2.486,2.486,0,0,1,2.4-2.6,1.8,1.8,0,0,1,1.379.62V82.359l1.619-.249v7.365h-1.6v-.669a1.944,1.944,0,0,1-1.519.7A2.456,2.456,0,0,1,731.432,86.887Zm3.777.869V86.017a1.313,1.313,0,0,0-.959-.4,1.275,1.275,0,0,0,0,2.549A1.252,1.252,0,0,0,735.209,87.756Z" class="cls-2"></path>
        <path id="path246" transform="translate(-43.718 -43.62)" d="M739.922,88.455l1.039-.959a1.982,1.982,0,0,0,1.7.74c.76,0,1.259-.34,1.259-.86,0-.45-.359-.729-.919-.729h-.9v-1.27h.739c.569,0,.909-.29.909-.779s-.47-.859-1.1-.859a1.951,1.951,0,0,0-1.629.8l-1.048-.949a3.668,3.668,0,0,1,2.738-1.219c1.529,0,2.589.83,2.589,2.019a1.7,1.7,0,0,1-1.33,1.6c.92.18,1.509.75,1.509,1.519,0,1.209-1.169,2.079-2.8,2.079A3.647,3.647,0,0,1,739.922,88.455Z" class="cls-2"></path>
      </g>
      <g id="g262">
        <g id="g254">
          <rect id="rect250" height="27.347" width="69.866" y="57.226" x="655.714" class="cls-1"></rect>
          <path id="path252" transform="translate(-43.718 -43.62)" d="M768.8,101.346v26.347H699.931V101.346H768.8m1-1H698.931v28.347H769.8V100.346Z" class="cls-5"></path>
        </g>
        <g id="g260">
          <path id="path256" transform="translate(-43.718 -43.62)" d="M726.492,110.291h1.289l2.15,5.778,2.169-5.778h1.239l-2.739,7h-1.389Z" class="cls-2"></path>
          <path id="path258" transform="translate(-43.718 -43.62)" d="M734.241,110.291h1.56l2.049,4.248,2.039-4.248h1.558v7h-1.129v-5.476l-2.478,4.977-2.489-5.007v5.506h-1.11Z" class="cls-2"></path>
        </g>
      </g>
    </g>
  </g>
  <g data-name="Layer 6" id="Layer_6">
    <g id="g271">
      <line id="line267" y2="127.559" x2="320.256" y1="105.162" x1="320.256" class="cls-6"></line>
      <polygon id="polygon269" points="316.516 106.256 320.256 99.78 323.996 106.256 316.516 106.256" class="cls-5"></polygon>
    </g>
    <g id="g277">
      <line id="line273" y2="127.559" x2="426.968" y1="105.162" x1="426.968" class="cls-6"></line>
      <polygon id="polygon275" points="423.228 106.256 426.968 99.78 430.708 106.256 423.228 106.256" class="cls-5"></polygon>
    </g>
    <g id="g283">
      <line id="line279" y2="127.559" x2="177.966" y1="105.162" x1="177.966" class="cls-6"></line>
      <polygon id="polygon281" points="174.226 106.256 177.966 99.78 181.706 106.256 174.226 106.256" class="cls-5"></polygon>
    </g>
  </g>
  <g data-name="Layer 5" id="Layer_5">
    <path id="path286" transform="translate(-43.718 -43.62)" d="M57.9,171.179h726.07v63.693H57.9Z" class="cls-5"></path>
    <g id="g304">
      <path id="path288" transform="translate(-43.718 -43.62)" d="M72.749,187.737l.879-1.269a3.84,3.84,0,0,0,2.269.93c.74,0,1.189-.3,1.189-.74,0-.41-.239-.61-.919-.73l-1.489-.26a1.842,1.842,0,0,1-1.719-1.879c0-1.359,1.039-2.209,2.778-2.209a4.747,4.747,0,0,1,2.868.92l-.869,1.249a3.341,3.341,0,0,0-2.089-.769c-.679,0-1.069.279-1.069.659,0,.36.23.54.789.64l1.4.24c1.309.22,2,.909,2,1.978,0,1.37-1.16,2.3-2.989,2.3A4.959,4.959,0,0,1,72.749,187.737Z" class="cls-3"></path>
      <path id="path290" transform="translate(-43.718 -43.62)" d="M79.509,186.118a2.584,2.584,0,0,1,2.6-2.668,2.53,2.53,0,0,1,2.538,2.728v.35H81.1a1.235,1.235,0,0,0,1.209.969,1.277,1.277,0,0,0,1.019-.429l1.069.889a3,3,0,0,1-2.169.829A2.666,2.666,0,0,1,79.509,186.118Zm3.637-.509a1.082,1.082,0,0,0-1.049-.9,1.014,1.014,0,0,0-1,.9Z" class="cls-3"></path>
      <path id="path292" transform="translate(-43.718 -43.62)" d="M85.658,183.53h1.619V184.7c.33-.86.789-1.27,1.4-1.27a1.1,1.1,0,0,1,.539.131v1.389a1.77,1.77,0,0,0-.759-.161,1.424,1.424,0,0,0-1.18.64v3.259H85.658Z" class="cls-3"></path>
      <path id="path294" transform="translate(-43.718 -43.62)" d="M89.518,183.53h1.759l1.17,3.238,1.179-3.238H95.3l-2.109,5.157H91.607Z" class="cls-3"></path>
      <path id="path296" transform="translate(-43.718 -43.62)" d="M95.9,181.83a.91.91,0,1,1,.91.91A.912.912,0,0,1,95.9,181.83Zm.1,1.7h1.619v5.157H96Z" class="cls-3"></path>
      <path id="path298" transform="translate(-43.718 -43.62)" d="M98.648,186.118a2.624,2.624,0,0,1,2.668-2.668,2.793,2.793,0,0,1,2.15.949l-.99.989a1.349,1.349,0,0,0-1.1-.56,1.3,1.3,0,0,0,0,2.58,1.349,1.349,0,0,0,1.1-.56l.99.989a2.793,2.793,0,0,1-2.15.949A2.624,2.624,0,0,1,98.648,186.118Z" class="cls-3"></path>
      <path id="path300" transform="translate(-43.718 -43.62)" d="M104.038,186.118a2.584,2.584,0,0,1,2.6-2.668,2.531,2.531,0,0,1,2.539,2.728v.35h-3.549a1.237,1.237,0,0,0,1.21.969,1.277,1.277,0,0,0,1.019-.429l1.07.889a3.009,3.009,0,0,1-2.169.829A2.666,2.666,0,0,1,104.038,186.118Zm3.638-.509a1.083,1.083,0,0,0-1.049-.9,1.015,1.015,0,0,0-1,.9Z" class="cls-3"></path>
      <path id="path302" transform="translate(-43.718 -43.62)" d="M113.407,183.289l-1.379.571V182.5l1.948-.809h.97v7h-1.539Z" class="cls-3"></path>
    </g>
    <g id="g340">
      <g id="g310">
        <path id="path306" transform="translate(-43.718 -43.62)" d="M129.753,256.3V227.906a13.689,13.689,0,0,1,13.673-13.673h42.519a13.689,13.689,0,0,1,13.674,13.673V256.3Z" class="cls-3"></path>
        <path id="path308" transform="translate(-43.718 -43.62)" d="M185.945,214.732a13.189,13.189,0,0,1,13.174,13.174V255.8H130.252V227.906a13.189,13.189,0,0,1,13.174-13.174h42.519m0-1H143.426a14.174,14.174,0,0,0-14.174,14.174V256.8h70.867V227.906a14.174,14.174,0,0,0-14.174-14.174Z" class="cls-5"></path>
      </g>
      <g id="g338">
        <path id="path312" transform="translate(-43.718 -43.62)" d="M142.4,227.875h1.169l3.649,5.087-.021-5.087h1.13v7h-1.069l-3.748-5.227.019,5.227H142.4Z" class="cls-2"></path>
        <path id="path314" transform="translate(-43.718 -43.62)" d="M149.643,232.372a2.515,2.515,0,1,1,2.519,2.589A2.495,2.495,0,0,1,149.643,232.372Zm3.918,0a1.42,1.42,0,1,0-1.4,1.629A1.485,1.485,0,0,0,153.561,232.372Z" class="cls-2"></path>
        <path id="path316" transform="translate(-43.718 -43.62)" d="M155.613,232.372a2.426,2.426,0,0,1,2.339-2.548,1.917,1.917,0,0,1,1.459.65v-2.769l1.129-.2v7.366h-1.119v-.659a1.955,1.955,0,0,1-1.549.709A2.4,2.4,0,0,1,155.613,232.372Zm3.8,1.05v-2.108a1.554,1.554,0,0,0-1.189-.54,1.6,1.6,0,0,0,0,3.2A1.468,1.468,0,0,0,159.411,233.422Z" class="cls-2"></path>
        <path id="path318" transform="translate(-43.718 -43.62)" d="M161.713,232.372a2.472,2.472,0,0,1,2.438-2.588,2.406,2.406,0,0,1,2.369,2.588v.27h-3.7a1.534,1.534,0,0,0,1.5,1.4,1.664,1.664,0,0,0,1.19-.47l.74.67a2.9,2.9,0,0,1-1.98.73A2.542,2.542,0,0,1,161.713,232.372Zm3.738-.429a1.362,1.362,0,0,0-1.309-1.239,1.344,1.344,0,0,0-1.309,1.239Z" class="cls-2"></path>
        <path id="path320" transform="translate(-43.718 -43.62)" d="M167.812,227.875h3.129a2.17,2.17,0,1,1,0,4.327h-1.928v2.669h-1.2Zm2.939,3.349a1.178,1.178,0,1,0,.011-2.34h-1.749v2.34Z" class="cls-2"></path>
        <path id="path322" transform="translate(-43.718 -43.62)" d="M174.232,232.372a2.515,2.515,0,1,1,2.519,2.589A2.495,2.495,0,0,1,174.232,232.372Zm3.918,0a1.42,1.42,0,1,0-1.4,1.629A1.486,1.486,0,0,0,178.15,232.372Z" class="cls-2"></path>
        <path id="path324" transform="translate(-43.718 -43.62)" d="M180.433,229.865h1.129v1.079a1.5,1.5,0,0,1,1.379-1.169,1.318,1.318,0,0,1,.49.1v.99a1.8,1.8,0,0,0-.62-.121,1.365,1.365,0,0,0-1.249.831v3.3h-1.129Z" class="cls-2"></path>
        <path id="path326" transform="translate(-43.718 -43.62)" d="M184.982,233.572v-2.809h-1v-.9h1v-1.38l1.129-.24v1.62h1.39v.9h-1.39v2.559c0,.49.191.679.7.679a2.118,2.118,0,0,0,.68-.119v.949a3.556,3.556,0,0,1-.97.141C185.512,234.972,184.982,234.492,184.982,233.572Z" class="cls-2"></path>
        <path id="path328" transform="translate(-43.718 -43.62)" d="M149.153,245.932l.73-.7a2.269,2.269,0,0,0,1.839.79c.91,0,1.529-.47,1.529-1.159A1.11,1.11,0,0,0,152,243.8h-.859v-.919h.769a1.014,1.014,0,0,0,1.119-1.04,1.213,1.213,0,0,0-1.329-1.109,2.146,2.146,0,0,0-1.739.829l-.739-.69a3.366,3.366,0,0,1,2.507-1.109,2.128,2.128,0,0,1,2.389,1.969,1.7,1.7,0,0,1-1.318,1.59,1.738,1.738,0,0,1,1.549,1.609c0,1.189-1.1,2.049-2.609,2.049A3.521,3.521,0,0,1,149.153,245.932Z" class="cls-2"></path>
        <path id="path330" transform="translate(-43.718 -43.62)" d="M155.373,243.373c0-2.149,1.169-3.608,2.868-3.608s2.859,1.459,2.859,3.608-1.16,3.6-2.859,3.6S155.373,245.512,155.373,243.373Zm4.638,0c0-1.609-.69-2.638-1.77-2.638s-1.778,1.029-1.778,2.638.7,2.628,1.778,2.628S160.011,244.972,160.011,243.373Z" class="cls-2"></path>
        <path id="path332" transform="translate(-43.718 -43.62)" d="M162.113,243.373c0-2.149,1.169-3.608,2.868-3.608s2.859,1.459,2.859,3.608-1.159,3.6-2.859,3.6S162.113,245.512,162.113,243.373Zm4.638,0c0-1.609-.69-2.638-1.77-2.638s-1.778,1.029-1.778,2.638.7,2.628,1.778,2.628S166.751,244.972,166.751,243.373Z" class="cls-2"></path>
        <path id="path334" transform="translate(-43.718 -43.62)" d="M172.52,245.142h-3.767v-.889l3.638-4.378h1.189V244.2h.93v.94h-.93v1.729h-1.06Zm0-.94v-3.127l-2.578,3.127Z" class="cls-2"></path>
        <path id="path336" transform="translate(-43.718 -43.62)" d="M175.373,246.081l2.868-3a1.85,1.85,0,0,0,.68-1.339,1.136,1.136,0,0,0-1.27-1.019,2.506,2.506,0,0,0-1.819.85l-.619-.75a3.557,3.557,0,0,1,2.459-1.06c1.369,0,2.308.779,2.308,1.92a2.657,2.657,0,0,1-.989,1.959l-2.229,2.3,3.348-.01v.939h-4.737Z" class="cls-2"></path>
      </g>
    </g>
    <g id="g376">
      <g id="g346">
        <path id="path342" transform="translate(-43.718 -43.62)" d="M386.005,256.3V227.906a13.689,13.689,0,0,1,13.673-13.673H442.2a13.689,13.689,0,0,1,13.674,13.673V256.3Z" class="cls-3"></path>
        <path id="path344" transform="translate(-43.718 -43.62)" d="M442.2,214.732a13.189,13.189,0,0,1,13.174,13.174V255.8H386.5V227.906a13.189,13.189,0,0,1,13.174-13.174H442.2m0-1H399.678A14.174,14.174,0,0,0,385.5,227.906V256.8h70.867V227.906A14.174,14.174,0,0,0,442.2,213.732Z" class="cls-5"></path>
      </g>
      <g id="g374">
        <path id="path348" transform="translate(-43.718 -43.62)" d="M398.655,227.875h1.17l3.648,5.087-.02-5.087h1.129v7h-1.069l-3.748-5.227.02,5.227h-1.13Z" class="cls-2"></path>
        <path id="path350" transform="translate(-43.718 -43.62)" d="M405.9,232.372a2.515,2.515,0,1,1,2.519,2.589A2.5,2.5,0,0,1,405.9,232.372Zm3.918,0a1.42,1.42,0,1,0-1.4,1.629A1.485,1.485,0,0,0,409.813,232.372Z" class="cls-2"></path>
        <path id="path352" transform="translate(-43.718 -43.62)" d="M411.865,232.372a2.426,2.426,0,0,1,2.339-2.548,1.916,1.916,0,0,1,1.459.65v-2.769l1.13-.2v7.366h-1.119v-.659a1.958,1.958,0,0,1-1.55.709A2.4,2.4,0,0,1,411.865,232.372Zm3.8,1.05v-2.108a1.552,1.552,0,0,0-1.189-.54,1.6,1.6,0,0,0,0,3.2A1.465,1.465,0,0,0,415.663,233.422Z" class="cls-2"></path>
        <path id="path354" transform="translate(-43.718 -43.62)" d="M417.966,232.372a2.472,2.472,0,0,1,2.438-2.588,2.406,2.406,0,0,1,2.368,2.588v.27h-3.7a1.533,1.533,0,0,0,1.5,1.4,1.666,1.666,0,0,0,1.19-.47l.739.67a2.9,2.9,0,0,1-1.979.73A2.542,2.542,0,0,1,417.966,232.372Zm3.737-.429a1.361,1.361,0,0,0-1.309-1.239,1.345,1.345,0,0,0-1.309,1.239Z" class="cls-2"></path>
        <path id="path356" transform="translate(-43.718 -43.62)" d="M424.065,227.875h3.128a2.17,2.17,0,1,1,0,4.327h-1.928v2.669h-1.2ZM427,231.224a1.178,1.178,0,1,0,.01-2.34h-1.749v2.34Z" class="cls-2"></path>
        <path id="path358" transform="translate(-43.718 -43.62)" d="M430.485,232.372A2.515,2.515,0,1,1,433,234.961,2.494,2.494,0,0,1,430.485,232.372Zm3.918,0A1.42,1.42,0,1,0,433,234,1.486,1.486,0,0,0,434.4,232.372Z" class="cls-2"></path>
        <path id="path360" transform="translate(-43.718 -43.62)" d="M436.685,229.865h1.129v1.079a1.5,1.5,0,0,1,1.379-1.169,1.32,1.32,0,0,1,.491.1v.99a1.806,1.806,0,0,0-.621-.121,1.366,1.366,0,0,0-1.249.831v3.3h-1.129Z" class="cls-2"></path>
        <path id="path362" transform="translate(-43.718 -43.62)" d="M441.234,233.572v-2.809h-1v-.9h1v-1.38l1.13-.24v1.62h1.389v.9h-1.389v2.559c0,.49.19.679.7.679a2.114,2.114,0,0,0,.68-.119v.949a3.556,3.556,0,0,1-.97.141C441.765,234.972,441.234,234.492,441.234,233.572Z" class="cls-2"></path>
        <path id="path364" transform="translate(-43.718 -43.62)" d="M405.405,245.932l.731-.7a2.268,2.268,0,0,0,1.839.79c.909,0,1.529-.47,1.529-1.159a1.11,1.11,0,0,0-1.25-1.06h-.86v-.919h.77a1.014,1.014,0,0,0,1.119-1.04,1.213,1.213,0,0,0-1.329-1.109,2.149,2.149,0,0,0-1.739.829l-.739-.69a3.367,3.367,0,0,1,2.508-1.109,2.128,2.128,0,0,1,2.389,1.969,1.7,1.7,0,0,1-1.319,1.59,1.736,1.736,0,0,1,1.548,1.609c0,1.189-1.1,2.049-2.608,2.049A3.521,3.521,0,0,1,405.405,245.932Z" class="cls-2"></path>
        <path id="path366" transform="translate(-43.718 -43.62)" d="M411.625,243.373c0-2.149,1.17-3.608,2.869-3.608s2.858,1.459,2.858,3.608-1.159,3.6-2.858,3.6S411.625,245.512,411.625,243.373Zm4.638,0c0-1.609-.69-2.638-1.769-2.638s-1.779,1.029-1.779,2.638.7,2.628,1.779,2.628S416.263,244.972,416.263,243.373Z" class="cls-2"></path>
        <path id="path368" transform="translate(-43.718 -43.62)" d="M418.365,243.373c0-2.149,1.17-3.608,2.869-3.608s2.859,1.459,2.859,3.608-1.159,3.6-2.859,3.6S418.365,245.512,418.365,243.373Zm4.638,0c0-1.609-.69-2.638-1.769-2.638s-1.779,1.029-1.779,2.638.7,2.628,1.779,2.628S423,244.972,423,243.373Z" class="cls-2"></path>
        <path id="path370" transform="translate(-43.718 -43.62)" d="M428.773,245.142h-3.767v-.889l3.637-4.378h1.19V244.2h.93v.94h-.93v1.729h-1.06Zm0-.94v-3.127L426.2,244.2Z" class="cls-2"></path>
        <path id="path372" transform="translate(-43.718 -43.62)" d="M431.625,246.081l2.868-3a1.85,1.85,0,0,0,.68-1.339,1.135,1.135,0,0,0-1.269-1.019,2.5,2.5,0,0,0-1.819.85l-.62-.75a3.557,3.557,0,0,1,2.459-1.06c1.369,0,2.308.779,2.308,1.92a2.653,2.653,0,0,1-.989,1.959l-2.228,2.3,3.347-.01v.939h-4.737Z" class="cls-2"></path>
      </g>
    </g>
    <g id="g412">
      <g id="g382">
        <path id="path378" transform="translate(-43.718 -43.62)" d="M641.973,256.3V227.906a13.688,13.688,0,0,1,13.673-13.673h42.52a13.689,13.689,0,0,1,13.673,13.673V256.3Z" class="cls-3"></path>
        <path id="path380" transform="translate(-43.718 -43.62)" d="M698.166,214.732a13.188,13.188,0,0,1,13.173,13.174V255.8H642.473V227.906a13.188,13.188,0,0,1,13.173-13.174h42.52m0-1h-42.52a14.174,14.174,0,0,0-14.173,14.174V256.8h70.866V227.906a14.173,14.173,0,0,0-14.173-14.174Z" class="cls-5"></path>
      </g>
      <g id="g410">
        <path id="path384" transform="translate(-43.718 -43.62)" d="M654.624,227.875h1.17l3.647,5.087-.019-5.087h1.129v7h-1.07l-3.748-5.227.021,5.227h-1.13Z" class="cls-2"></path>
        <path id="path386" transform="translate(-43.718 -43.62)" d="M661.864,232.372a2.515,2.515,0,1,1,2.519,2.589A2.495,2.495,0,0,1,661.864,232.372Zm3.918,0a1.42,1.42,0,1,0-1.4,1.629A1.486,1.486,0,0,0,665.782,232.372Z" class="cls-2"></path>
        <path id="path388" transform="translate(-43.718 -43.62)" d="M667.834,232.372a2.426,2.426,0,0,1,2.339-2.548,1.916,1.916,0,0,1,1.459.65v-2.769l1.13-.2v7.366h-1.119v-.659a1.958,1.958,0,0,1-1.55.709A2.4,2.4,0,0,1,667.834,232.372Zm3.8,1.05v-2.108a1.553,1.553,0,0,0-1.19-.54,1.6,1.6,0,0,0,0,3.2A1.466,1.466,0,0,0,671.632,233.422Z" class="cls-2"></path>
        <path id="path390" transform="translate(-43.718 -43.62)" d="M673.935,232.372a2.472,2.472,0,0,1,2.438-2.588,2.406,2.406,0,0,1,2.368,2.588v.27h-3.7a1.533,1.533,0,0,0,1.5,1.4,1.662,1.662,0,0,0,1.189-.47l.74.67a2.9,2.9,0,0,1-1.979.73A2.542,2.542,0,0,1,673.935,232.372Zm3.737-.429a1.361,1.361,0,0,0-1.309-1.239,1.345,1.345,0,0,0-1.309,1.239Z" class="cls-2"></path>
        <path id="path392" transform="translate(-43.718 -43.62)" d="M680.034,227.875h3.128a2.17,2.17,0,1,1,0,4.327h-1.929v2.669h-1.2Zm2.939,3.349a1.178,1.178,0,1,0,.009-2.34h-1.749v2.34Z" class="cls-2"></path>
        <path id="path394" transform="translate(-43.718 -43.62)" d="M686.454,232.372a2.515,2.515,0,1,1,2.519,2.589A2.494,2.494,0,0,1,686.454,232.372Zm3.918,0a1.42,1.42,0,1,0-1.4,1.629A1.486,1.486,0,0,0,690.372,232.372Z" class="cls-2"></path>
        <path id="path396" transform="translate(-43.718 -43.62)" d="M692.654,229.865h1.129v1.079a1.5,1.5,0,0,1,1.379-1.169,1.318,1.318,0,0,1,.49.1v.99a1.8,1.8,0,0,0-.62-.121,1.365,1.365,0,0,0-1.249.831v3.3h-1.129Z" class="cls-2"></path>
        <path id="path398" transform="translate(-43.718 -43.62)" d="M697.2,233.572v-2.809h-1v-.9h1v-1.38l1.13-.24v1.62h1.389v.9h-1.389v2.559c0,.49.189.679.7.679a2.114,2.114,0,0,0,.68-.119v.949a3.556,3.556,0,0,1-.97.141C697.733,234.972,697.2,234.492,697.2,233.572Z" class="cls-2"></path>
        <path id="path400" transform="translate(-43.718 -43.62)" d="M661.374,245.932l.73-.7a2.271,2.271,0,0,0,1.839.79c.909,0,1.53-.47,1.53-1.159a1.11,1.11,0,0,0-1.25-1.06h-.86v-.919h.77a1.015,1.015,0,0,0,1.119-1.04,1.213,1.213,0,0,0-1.329-1.109,2.149,2.149,0,0,0-1.739.829l-.74-.69a3.371,3.371,0,0,1,2.509-1.109,2.128,2.128,0,0,1,2.389,1.969,1.7,1.7,0,0,1-1.32,1.59,1.736,1.736,0,0,1,1.549,1.609c0,1.189-1.1,2.049-2.608,2.049A3.521,3.521,0,0,1,661.374,245.932Z" class="cls-2"></path>
        <path id="path402" transform="translate(-43.718 -43.62)" d="M667.594,243.373c0-2.149,1.17-3.608,2.869-3.608s2.858,1.459,2.858,3.608-1.159,3.6-2.858,3.6S667.594,245.512,667.594,243.373Zm4.637,0c0-1.609-.689-2.638-1.768-2.638s-1.779,1.029-1.779,2.638.7,2.628,1.779,2.628S672.231,244.972,672.231,243.373Z" class="cls-2"></path>
        <path id="path404" transform="translate(-43.718 -43.62)" d="M674.334,243.373c0-2.149,1.17-3.608,2.869-3.608s2.858,1.459,2.858,3.608-1.159,3.6-2.858,3.6S674.334,245.512,674.334,243.373Zm4.638,0c0-1.609-.69-2.638-1.769-2.638s-1.779,1.029-1.779,2.638.7,2.628,1.779,2.628S678.972,244.972,678.972,243.373Z" class="cls-2"></path>
        <path id="path406" transform="translate(-43.718 -43.62)" d="M684.742,245.142h-3.767v-.889l3.637-4.378h1.19V244.2h.929v.94H685.8v1.729h-1.06Zm0-.94v-3.127l-2.578,3.127Z" class="cls-2"></path>
        <path id="path408" transform="translate(-43.718 -43.62)" d="M687.594,246.081l2.868-3a1.85,1.85,0,0,0,.68-1.339,1.136,1.136,0,0,0-1.269-1.019,2.5,2.5,0,0,0-1.819.85l-.62-.75a3.557,3.557,0,0,1,2.459-1.06c1.369,0,2.308.779,2.308,1.92a2.653,2.653,0,0,1-.989,1.959l-2.229,2.3,3.348-.01v.939h-4.737Z" class="cls-2"></path>
      </g>
    </g>
  </g>
  <g data-name="Layer 4" id="Layer_4">
    <g id="g441">
      <g id="g427">
        <path id="path415" transform="translate(-43.718 -43.62)" d="M663.435,338.338a3.564,3.564,0,0,1,3.617-3.608,3.51,3.51,0,0,1,2.728,1.25l-.8.779a2.449,2.449,0,0,0-1.929-.949,2.533,2.533,0,0,0,0,5.057,2.451,2.451,0,0,0,1.929-.95l.8.78a3.51,3.51,0,0,1-2.728,1.25A3.565,3.565,0,0,1,663.435,338.338Z" class="cls-2"></path>
        <path id="path417" transform="translate(-43.718 -43.62)" d="M670.854,334.67l1.129-.2v7.366h-1.129Z" class="cls-2"></path>
        <path id="path419" transform="translate(-43.718 -43.62)" d="M673.233,335.119a.7.7,0,1,1,.7.691A.7.7,0,0,1,673.233,335.119Zm.131,1.71h1.129v5.007h-1.129Z" class="cls-2"></path>
        <path id="path421" transform="translate(-43.718 -43.62)" d="M675.664,339.337a2.472,2.472,0,0,1,2.438-2.588,2.407,2.407,0,0,1,2.37,2.588v.271h-3.7a1.534,1.534,0,0,0,1.5,1.4,1.671,1.671,0,0,0,1.19-.47l.74.669a2.9,2.9,0,0,1-1.979.73A2.542,2.542,0,0,1,675.664,339.337Zm3.737-.429a1.36,1.36,0,0,0-1.308-1.24,1.345,1.345,0,0,0-1.309,1.24Z" class="cls-2"></path>
        <path id="path423" transform="translate(-43.718 -43.62)" d="M681.624,336.829h1.129v.82a1.827,1.827,0,0,1,1.58-.9,1.689,1.689,0,0,1,1.748,1.789v3.3h-1.139v-2.978a1.078,1.078,0,0,0-1.1-1.2,1.248,1.248,0,0,0-1.09.61v3.568h-1.129Z" class="cls-2"></path>
        <path id="path425" transform="translate(-43.718 -43.62)" d="M688.063,340.537v-2.808h-1v-.9h1V335.45l1.129-.24v1.619h1.39v.9h-1.39v2.558c0,.49.191.68.7.68a2.118,2.118,0,0,0,.679-.12v.949a3.554,3.554,0,0,1-.97.14C688.593,341.936,688.063,341.456,688.063,340.537Z" class="cls-2"></path>
      </g>
      <g id="g439">
        <rect id="rect429" height="37.18" width="48.5" y="244.441" x="608.937" class="cls-7"></rect>
        <line id="line431" y2="250.022" x2="651.841" y1="250.022" x1="651.841" class="cls-8"></line>
        <line id="line433" y2="250.022" x2="648.11" y1="250.022" x1="648.11" class="cls-8"></line>
        <line id="line435" y2="250.022" x2="644.379" y1="250.022" x1="644.379" class="cls-8"></line>
        <line id="line437" y2="250.022" x2="629.456" y1="250.022" x1="614.533" class="cls-9"></line>
      </g>
    </g>
    <line id="line443" y2="240.961" x2="633.423" y1="213.181" x1="633.423" class="cls-10"></line>
  </g>
  <g data-name="Layer 3" id="Layer_3">
    <g id="g476">
      <path id="path446" transform="translate(-43.718 -43.62)" d="M68.729,340.509h1.2v7h-1.2Z" class="cls-2"></path>
      <path id="path448" transform="translate(-43.718 -43.62)" d="M71.42,342.5h1.129v.82a1.824,1.824,0,0,1,1.579-.9,1.69,1.69,0,0,1,1.749,1.789v3.3h-1.14v-2.978a1.078,1.078,0,0,0-1.1-1.2,1.248,1.248,0,0,0-1.09.61v3.568H71.42Z" class="cls-2"></path>
      <path id="path450" transform="translate(-43.718 -43.62)" d="M77.01,345.006a2.526,2.526,0,0,1,2.529-2.588,2.7,2.7,0,0,1,2,.85l-.7.729a1.657,1.657,0,0,0-1.26-.589,1.608,1.608,0,0,0,0,3.2,1.678,1.678,0,0,0,1.26-.58l.7.719a2.7,2.7,0,0,1-2,.85A2.52,2.52,0,0,1,77.01,345.006Z" class="cls-2"></path>
      <path id="path452" transform="translate(-43.718 -43.62)" d="M82.239,345.006a2.515,2.515,0,1,1,2.519,2.589A2.495,2.495,0,0,1,82.239,345.006Zm3.918,0a1.42,1.42,0,1,0-1.4,1.63A1.486,1.486,0,0,0,86.157,345.006Z" class="cls-2"></path>
      <path id="path454" transform="translate(-43.718 -43.62)" d="M88.439,342.5h1.13v.789a1.714,1.714,0,0,1,1.479-.869,1.557,1.557,0,0,1,1.479.959,1.867,1.867,0,0,1,1.659-.959,1.655,1.655,0,0,1,1.639,1.809v3.278H94.7v-3.028a1.014,1.014,0,0,0-1.01-1.15,1.124,1.124,0,0,0-1,.6c.01.1.02.2.02.3v3.278H91.568v-3.028a1.014,1.014,0,0,0-1.009-1.15,1.125,1.125,0,0,0-.99.581v3.6h-1.13Z" class="cls-2"></path>
      <path id="path456" transform="translate(-43.718 -43.62)" d="M97.06,340.788a.7.7,0,0,1,.7-.7.708.708,0,0,1,.7.7.7.7,0,0,1-.7.691A.694.694,0,0,1,97.06,340.788Zm.129,1.71h1.129v5.007H97.189Z" class="cls-2"></path>
      <path id="path458" transform="translate(-43.718 -43.62)" d="M99.72,342.5h1.129v.82a1.823,1.823,0,0,1,1.579-.9,1.69,1.69,0,0,1,1.749,1.789v3.3h-1.14v-2.978a1.079,1.079,0,0,0-1.1-1.2,1.245,1.245,0,0,0-1.089.61v3.568H99.72Z" class="cls-2"></path>
      <path id="path460" transform="translate(-43.718 -43.62)" d="M105.869,349.2l.39-.83a3.453,3.453,0,0,0,1.569.42c.84,0,1.279-.38,1.279-1.109v-.85a1.953,1.953,0,0,1-1.539.7,2.551,2.551,0,0,1,.08-5.077,1.878,1.878,0,0,1,1.469.669V342.5h1.119v5.187c0,1.289-.839,2.009-2.358,2.009A4.354,4.354,0,0,1,105.869,349.2Zm3.238-3.158v-2.1a1.552,1.552,0,0,0-1.189-.54,1.5,1.5,0,0,0-1.5,1.588,1.516,1.516,0,0,0,1.5,1.6A1.5,1.5,0,0,0,109.107,346.046Z" class="cls-2"></path>
      <path id="path462" transform="translate(-43.718 -43.62)" d="M114.5,346.206V343.4h-1v-.9h1v-1.38l1.129-.239V342.5h1.39v.9h-1.39v2.558c0,.49.19.68.7.68a2.123,2.123,0,0,0,.68-.12v.949a3.554,3.554,0,0,1-.97.14C115.028,347.605,114.5,347.125,114.5,346.206Z" class="cls-2"></path>
      <path id="path464" transform="translate(-43.718 -43.62)" d="M118.018,342.5h1.13v1.079a1.5,1.5,0,0,1,1.379-1.169,1.339,1.339,0,0,1,.49.1v.989a1.8,1.8,0,0,0-.62-.12,1.363,1.363,0,0,0-1.249.83v3.3h-1.13Z" class="cls-2"></path>
      <path id="path466" transform="translate(-43.718 -43.62)" d="M121.689,346.066c0-.9.74-1.469,1.919-1.469a2.949,2.949,0,0,1,1.349.319v-.559c0-.659-.38-1-1.149-1a3.474,3.474,0,0,0-1.459.389l-.4-.819a4.948,4.948,0,0,1,2.078-.51c1.31,0,2.049.659,2.049,1.819v3.268h-1.119v-.519a2.02,2.02,0,0,1-1.489.609A1.6,1.6,0,0,1,121.689,346.066Zm2.089.729a1.748,1.748,0,0,0,1.179-.419v-.809a2.575,2.575,0,0,0-1.149-.241c-.65,0-1.06.27-1.06.72S123.148,346.8,123.778,346.8Z" class="cls-2"></path>
      <path id="path468" transform="translate(-43.718 -43.62)" d="M128.129,343.4h-1.08v-.9h1.08v-.86a1.532,1.532,0,0,1,1.728-1.679,2.734,2.734,0,0,1,.75.09v.96a2.705,2.705,0,0,0-.6-.07c-.521,0-.75.229-.75.719v.84h1.349v.9h-1.349v4.107h-1.129Z" class="cls-2"></path>
      <path id="path470" transform="translate(-43.718 -43.62)" d="M132.238,343.4h-1.079v-.9h1.079v-.86a1.533,1.533,0,0,1,1.73-1.679,2.737,2.737,0,0,1,.749.09v.96a2.707,2.707,0,0,0-.6-.07c-.519,0-.749.229-.749.719v.84h1.349v.9h-1.349v4.107h-1.13Z" class="cls-2"></path>
      <path id="path472" transform="translate(-43.718 -43.62)" d="M135.528,340.788a.7.7,0,1,1,.7.691A.7.7,0,0,1,135.528,340.788Zm.13,1.71h1.13v5.007h-1.13Z" class="cls-2"></path>
      <path id="path474" transform="translate(-43.718 -43.62)" d="M137.959,345.006a2.526,2.526,0,0,1,2.528-2.588,2.706,2.706,0,0,1,2,.85l-.7.729a1.66,1.66,0,0,0-1.26-.589,1.608,1.608,0,0,0,0,3.2,1.681,1.681,0,0,0,1.26-.58l.7.719a2.706,2.706,0,0,1-2,.85A2.52,2.52,0,0,1,137.959,345.006Z" class="cls-2"></path>
    </g>
    <g id="g486">
      <line id="line478" y2="301.096" x2="1.5" y1="301.096" class="cls-11"></line>
      <line id="line480" y2="301.096" x2="11.927" y1="301.096" x1="3.817" class="cls-12"></line>
      <line id="line482" y2="301.096" x2="14.585" y1="301.096" x1="13.085" class="cls-11"></line>
      <polygon id="polygon484" points="13.491 304.836 19.967 301.096 13.491 297.356 13.491 304.836" class="cls-13"></polygon>
    </g>
  </g>
  <g data-name="Layer 2" id="Layer_2">
    <polyline id="polyline489" points="442.024 127.559 442.024 149.033 633.423 149.033 633.423 170.112" class="cls-14"></polyline>
    <g id="g513">
      <line id="line491" y2="106.662" x2="442.024" y1="105.162" x1="442.024" class="cls-11"></line>
      <line id="line493" y2="123.382" x2="442.024" y1="110.377" x1="442.024" class="cls-15"></line>
      <line id="line495" y2="145.675" x2="442.024" y1="125.239" x1="442.024" class="cls-16"></line>
      <polyline id="polyline497" points="442.024 147.533 442.024 149.033 443.524 149.033" class="cls-11"></polyline>
      <line id="line499" y2="149.033" x2="456.567" y1="149.033" x1="446.423" class="cls-17"></line>
      <line id="line501" y2="149.033" x2="630.473" y1="149.033" x1="458.016" class="cls-18"></line>
      <polyline id="polyline503" points="631.923 149.033 633.423 149.033 633.423 150.533" class="cls-11"></polyline>
      <line id="line505" y2="157.929" x2="633.423" y1="152.176" x1="633.423" class="cls-19"></line>
      <line id="line507" y2="167.791" x2="633.423" y1="158.751" x1="633.423" class="cls-20"></line>
      <line id="line509" y2="170.112" x2="633.423" y1="168.612" x1="633.423" class="cls-11"></line>
      <polygon id="polygon511" points="438.285 106.256 442.024 99.78 445.764 106.256 438.285 106.256" class="cls-13"></polygon>
    </g>
  </g>
</svg>
