<svg xmlns="http://www.w3.org/2000/svg" version="1.1" viewBox="0 0 595.276 641.671" height="226.367mm" width="210mm" data-name="Layer 1" id="Layer_1">
  <metadata id="metadata599">
    
      
        image/svg+xml
        
        
        
          
            prep
            install
            OCP
            OpenShift
            process
            install
          
        
      
    
  </metadata>
  
  <defs id="defs12">
    <style id="style10">
      .cls-1 {
        fill: #f0f0f0;
      }

      .cls-10, .cls-15, .cls-2, .cls-4 {
        fill: #fff;
      }

      .cls-3 {
        fill: #dbe8f5;
      }

      .cls-4 {
        stroke: #a1c2e7;
      }

      .cls-10, .cls-12, .cls-13, .cls-14, .cls-15, .cls-4, .cls-8 {
        stroke-miterlimit: 10;
      }

      .cls-5 {
        fill: #06c;
      }

      .cls-6 {
        fill: #e31714;
      }

      .cls-7 {
        fill: #1d1d1b;
      }

      .cls-12, .cls-13, .cls-14, .cls-16, .cls-18, .cls-19, .cls-8 {
        fill: none;
      }

      .cls-8 {
        stroke: #151515;
      }

      .cls-9 {
        fill: #151515;
      }

      .cls-10, .cls-15 {
        stroke: #dcdcdc;
      }

      .cls-10 {
        stroke-width: 0.75px;
      }

      .cls-11 {
        fill: #5b5b5b;
      }

      .cls-12, .cls-19 {
        stroke: #3f9c35;
      }

      .cls-12, .cls-13, .cls-14 {
        stroke-width: 0.5px;
      }

      .cls-13, .cls-18 {
        stroke: #06c;
      }

      .cls-14, .cls-16 {
        stroke: #be1818;
      }

      .cls-16, .cls-18, .cls-19 {
        stroke-linecap: round;
        stroke-linejoin: round;
        stroke-dasharray: 3 0 0 3 0 0;
      }

      .cls-17 {
        fill: #be1818;
      }

      .cls-20 {
        fill: #3f9c35;
      }
    </style>
  </defs>
  <rect id="rect14" height="519.861" width="493.743" y="79.859" x="50.766" class="cls-1"></rect>
  <rect id="rect16" height="114.147" width="113.275" y="91.908" x="241" class="cls-2"></rect>
  <rect id="rect18" height="89.095" width="101.49" y="110.617" x="246.893" class="cls-3"></rect>
  <rect id="rect20" height="16.285" width="91.168" y="156.821" x="252.054" class="cls-4"></rect>
  <rect id="rect22" height="16.285" width="91.168" y="178.087" x="252.054" class="cls-4"></rect>
  <rect id="rect24" height="46.185" width="115.271" y="20.015" x="240.002" class="cls-5"></rect>
  <g id="g62">
    <path id="path26" d="M266.841,45.309a2.76,2.76,0,1,1,2.76-2.76A2.736,2.736,0,0,1,266.841,45.309Zm-.007-4.35a1.6,1.6,0,1,0,1.407,1.59A1.471,1.471,0,0,0,266.834,40.959Z" class="cls-2"></path>
    <path id="path28" d="M270.425,41.28h1.224v.551a1.454,1.454,0,0,1,1.169-.574,1.879,1.879,0,0,1,1.743,2,1.9,1.9,0,0,1-1.835,1.988,1.373,1.373,0,0,1-1.062-.459v2.079h-1.239Zm1.239,1.323v1.315a1.014,1.014,0,0,0,.742.313.975.975,0,0,0,0-1.949A.957.957,0,0,0,271.664,42.6Z" class="cls-2"></path>
    <path id="path30" d="M277.289,45.3a2.04,2.04,0,0,1-2.079-2.042,1.979,1.979,0,0,1,1.987-2.049,1.939,1.939,0,0,1,1.942,2.095v.268h-2.714a.947.947,0,0,0,.925.741.976.976,0,0,0,.779-.328l.819.68A2.3,2.3,0,0,1,277.289,45.3Zm-.864-2.432h1.568a.822.822,0,0,0-.8-.7A.782.782,0,0,0,276.425,42.87Z" class="cls-2"></path>
    <path id="path32" d="M279.911,41.28h1.238v.642a1.457,1.457,0,0,1,1.246-.7,1.275,1.275,0,0,1,1.308,1.346v2.66h-1.239v-2.3a.656.656,0,0,0-.657-.734.8.8,0,0,0-.658.329v2.706h-1.238Z" class="cls-2"></path>
    <path id="path34" d="M284.971,43.52a2.933,2.933,0,0,0,1.736.711c.565,0,.909-.229.909-.558,0-.313-.184-.459-.7-.558l-1.139-.2a1.417,1.417,0,0,1-1.315-1.429c0-1.04.794-1.69,2.125-1.69a3.639,3.639,0,0,1,2.194.7l-.665.956a2.552,2.552,0,0,0-1.6-.589c-.519,0-.818.214-.818.505,0,.267.176.413.6.482l1.071.183c1,.176,1.528.7,1.528,1.514,0,1.04-.887,1.751-2.285,1.751a3.8,3.8,0,0,1-2.317-.811Z" class="cls-2"></path>
    <path id="path36" d="M289.64,39.759l1.238-.191v2.354a1.459,1.459,0,0,1,1.247-.7,1.275,1.275,0,0,1,1.307,1.346v2.66h-1.238v-2.3a.657.657,0,0,0-.657-.734.8.8,0,0,0-.659.329v2.706H289.64Z" class="cls-2"></path>
    <path id="path38" d="M294.288,39.981a.7.7,0,0,1,1.4,0,.7.7,0,0,1-1.4,0Zm1.314,5.244h-1.238V41.28H295.6Z" class="cls-2"></path>
    <path id="path40" d="M297.146,41.28v-.519c0-.941.559-1.453,1.575-1.453a2.808,2.808,0,0,1,.657.077V40.4a2.493,2.493,0,0,0-.473-.046c-.353,0-.521.138-.521.429v.5h.994v.956h-.994v2.989h-1.238V42.236h-.818V41.28Z" class="cls-2"></path>
    <path id="path42" d="M300.676,42.236h-.763V41.28h.763V40.187l1.24-.252V41.28h1.054v.956h-1.054v1.529c0,.352.137.474.519.474a1.685,1.685,0,0,0,.5-.084v1a3.447,3.447,0,0,1-.849.123c-.932,0-1.415-.429-1.415-1.269Z" class="cls-2"></path>
    <path id="path44" d="M305.339,39.874h1.316v5.351h-1.316Z" class="cls-2"></path>
    <path id="path46" d="M307.655,41.28h1.238v.642a1.457,1.457,0,0,1,1.246-.7,1.275,1.275,0,0,1,1.308,1.346v2.66h-1.238v-2.3a.657.657,0,0,0-.658-.734.8.8,0,0,0-.658.329v2.706h-1.238Z" class="cls-2"></path>
    <path id="path48" d="M312.6,43.994a2.556,2.556,0,0,0,1.27.4c.351,0,.565-.122.565-.32,0-.153-.114-.237-.367-.283l-.757-.138c-.765-.145-1.162-.535-1.162-1.147,0-.81.619-1.292,1.651-1.292a3.183,3.183,0,0,1,1.606.451l-.566.788a2.231,2.231,0,0,0-1.131-.336c-.3,0-.474.1-.474.275,0,.16.1.229.4.283l.741.137c.781.145,1.193.543,1.185,1.139.008.773-.726,1.354-1.7,1.354a3.232,3.232,0,0,1-1.813-.482Z" class="cls-2"></path>
    <path id="path50" d="M316.727,42.236h-.764V41.28h.764V40.187l1.239-.252V41.28h1.055v.956h-1.055v1.529c0,.352.138.474.52.474a1.689,1.689,0,0,0,.5-.084v1a3.447,3.447,0,0,1-.849.123c-.932,0-1.415-.429-1.415-1.269Z" class="cls-2"></path>
    <path id="path52" d="M319.525,44.094c0-.727.566-1.147,1.537-1.147a2.568,2.568,0,0,1,.917.183v-.321c0-.382-.252-.573-.779-.573a2.935,2.935,0,0,0-1.109.275l-.428-.864a4.375,4.375,0,0,1,1.811-.428c1.094,0,1.729.543,1.729,1.483v2.523h-1.224v-.344a1.573,1.573,0,0,1-1.093.405A1.228,1.228,0,0,1,319.525,44.094Zm1.743.374a1.346,1.346,0,0,0,.711-.2v-.5a2.933,2.933,0,0,0-.681-.085c-.4,0-.633.138-.633.391S320.886,44.468,321.268,44.468Z" class="cls-2"></path>
    <path id="path54" d="M325.372,45.225h-1.239V39.759l1.239-.191Z" class="cls-2"></path>
    <path id="path56" d="M327.573,45.225h-1.238V39.759l1.238-.191Z" class="cls-2"></path>
    <path id="path58" d="M330.44,45.3a2.041,2.041,0,0,1-2.079-2.042,1.979,1.979,0,0,1,1.987-2.049,1.939,1.939,0,0,1,1.943,2.095v.268h-2.714a.945.945,0,0,0,.925.741.977.977,0,0,0,.779-.328l.818.68A2.3,2.3,0,0,1,330.44,45.3Zm-.863-2.432h1.567a.821.821,0,0,0-.8-.7A.782.782,0,0,0,329.577,42.87Z" class="cls-2"></path>
    <path id="path60" d="M333.061,41.28H334.3v.895c.253-.658.605-.971,1.071-.971a.849.849,0,0,1,.413.1v1.063a1.352,1.352,0,0,0-.581-.123,1.092,1.092,0,0,0-.9.49v2.492h-1.238Z" class="cls-2"></path>
  </g>
  <g id="g112">
    <path id="path64" d="M283.973,122.726h2.8v.5h-2.227v1.137h1.463v.488h-1.463v1.172h2.249v.5h-2.818Z"></path>
    <path id="path66" d="M287.311,123.761h.541v.276a1.14,1.14,0,0,1,.828-.33,1.029,1.029,0,0,1,1.078,1.078v1.734h-.542v-1.643a.642.642,0,0,0-.682-.7.782.782,0,0,0-.683.358v1.983h-.542Z"></path>
    <path id="path68" d="M290.632,124.216h-.585v-.455h.585v-.7l.536-.13v.833h.813v.455h-.813v1.495c0,.281.114.384.407.384a1.048,1.048,0,0,0,.4-.065v.455a1.765,1.765,0,0,1-.515.081c-.536,0-.823-.254-.823-.729Z"></path>
    <path id="path70" d="M293.644,126.568a1.421,1.421,0,0,1-1.446-1.43,1.385,1.385,0,0,1,1.381-1.42,1.365,1.365,0,0,1,1.333,1.441v.156h-2.178a.929.929,0,0,0,.932.791,1.076,1.076,0,0,0,.7-.24l.347.341A1.65,1.65,0,0,1,293.644,126.568Zm-.905-1.658h1.637a.823.823,0,0,0-1.637,0Z"></path>
    <path id="path72" d="M295.426,123.761h.542v.352a.863.863,0,0,1,.759-.412.7.7,0,0,1,.276.044v.488a.917.917,0,0,0-.32-.06.754.754,0,0,0-.715.5v1.842h-.542Z"></path>
    <path id="path74" d="M297.437,123.761h.536v.265a1.259,1.259,0,0,1,.845-.308,1.422,1.422,0,1,1-.84,2.573v1.35h-.541Zm.541.759v1.246a1.025,1.025,0,0,0,.77.325.951.951,0,0,0,0-1.9A.988.988,0,0,0,297.978,124.52Z"></path>
    <path id="path76" d="M300.725,123.761h.542v.352a.863.863,0,0,1,.759-.412.7.7,0,0,1,.276.044v.488a.922.922,0,0,0-.32-.06.754.754,0,0,0-.715.5v1.842h-.542Z"></path>
    <path id="path78" d="M302.675,122.981a.334.334,0,0,1,.331-.336h0a.336.336,0,0,1,0,.672h0a.333.333,0,0,1-.331-.335Zm.6,3.538h-.542v-2.758h.542Z"></path>
    <path id="path80" d="M303.948,125.8a1.45,1.45,0,0,0,.9.346c.39,0,.661-.167.661-.411,0-.2-.141-.309-.444-.352l-.5-.071c-.548-.081-.824-.336-.824-.764,0-.5.434-.834,1.079-.834a1.889,1.889,0,0,1,1.11.353l-.276.357a1.528,1.528,0,0,0-.872-.287c-.331,0-.553.152-.553.374,0,.2.13.3.455.346l.5.071c.548.081.834.342.834.769,0,.494-.5.867-1.154.867a1.824,1.824,0,0,1-1.209-.406Z"></path>
    <path id="path82" d="M307.784,126.568a1.421,1.421,0,0,1-1.446-1.43,1.385,1.385,0,0,1,1.381-1.42,1.365,1.365,0,0,1,1.333,1.441v.156h-2.178a.932.932,0,0,0,.932.791,1.076,1.076,0,0,0,.7-.24l.347.341A1.65,1.65,0,0,1,307.784,126.568Zm-.9-1.658h1.637a.823.823,0,0,0-1.637,0Z"></path>
    <path id="path84" d="M310.764,122.726h.569v3.289h2.184v.5h-2.753Z"></path>
    <path id="path86" d="M313.966,122.981a.334.334,0,0,1,.33-.336h0a.336.336,0,1,1-.331.336Zm.6,3.538h-.541v-2.758h.541Z"></path>
    <path id="path88" d="M315.207,123.761h.541v.276a1.137,1.137,0,0,1,.829-.33,1.03,1.03,0,0,1,1.079,1.078v1.734h-.542v-1.643a.642.642,0,0,0-.683-.7.783.783,0,0,0-.683.358v1.983h-.541Z"></path>
    <path id="path90" d="M318.782,125.4a.646.646,0,0,0,.683.7.778.778,0,0,0,.678-.364v-1.98h.541v2.758h-.539v-.277a1.122,1.122,0,0,1-.833.335,1.029,1.029,0,0,1-1.073-1.083v-1.729h.542Z"></path>
    <path id="path92" d="M322.087,125.105l-1.029-1.344h.634l.709.948.71-.948h.613l-1.019,1.339,1.087,1.419h-.637L322.4,125.5l-.769,1.019h-.612Z"></path>
    <path id="path94" d="M286.942,131.17l.374.379a2.088,2.088,0,0,1-1.517.656,1.956,1.956,0,1,1,0-3.912,2.059,2.059,0,0,1,1.528.655l-.379.39a1.51,1.51,0,0,0-1.149-.521,1.431,1.431,0,0,0,.019,2.861A1.469,1.469,0,0,0,286.942,131.17Z"></path>
    <path id="path96" d="M289.012,129.333a1.433,1.433,0,1,1-1.436,1.431h0a1.416,1.416,0,0,1,1.4-1.43Zm.9,1.43a.9.9,0,1,0-.9.958A.92.92,0,0,0,289.911,130.763Z"></path>
    <path id="path98" d="M290.957,129.387h.542v.353a.861.861,0,0,1,.758-.413.7.7,0,0,1,.277.044v.488a.926.926,0,0,0-.32-.06.753.753,0,0,0-.715.5v1.842h-.542Z"></path>
    <path id="path100" d="M294.121,132.194a1.42,1.42,0,0,1-1.447-1.43,1.386,1.386,0,0,1,1.382-1.42,1.366,1.366,0,0,1,1.333,1.441v.156h-2.177a.931.931,0,0,0,.932.791,1.068,1.068,0,0,0,.7-.24l.347.341A1.646,1.646,0,0,1,294.121,132.194Zm-.9-1.658h1.636a.822.822,0,0,0-1.636,0Z"></path>
    <path id="path102" d="M297.778,132.205a1.956,1.956,0,1,1,1.98-1.956A1.945,1.945,0,0,1,297.778,132.205Zm0-3.386a1.43,1.43,0,1,0,1.4,1.43A1.387,1.387,0,0,0,297.778,128.819Z"></path>
    <path id="path104" d="M300.368,131.116a1.827,1.827,0,0,0,1.306.6c.547,0,.921-.261.921-.634,0-.336-.217-.5-.77-.6l-.634-.1c-.693-.114-1.035-.439-1.035-.986,0-.662.553-1.089,1.4-1.089a2.545,2.545,0,0,1,1.528.514l-.312.434a2.023,2.023,0,0,0-1.241-.466c-.493,0-.823.227-.823.563,0,.309.189.456.677.537l.61.1c.8.131,1.165.461,1.165,1.052,0,.7-.607,1.164-1.511,1.164a2.277,2.277,0,0,1-1.626-.683Z"></path>
    <path id="path106" d="M278.782,119.51c.652,0,1.6-.134,1.6-.909a.757.757,0,0,0-.016-.178l-.388-1.686c-.09-.371-.169-.539-.82-.865a7.613,7.613,0,0,0-1.934-.686c-.3,0-.393.393-.752.393s-.607-.291-.932-.291-.517.213-.674.651c0,0-.438,1.235-.494,1.415a.312.312,0,0,0-.013.1c0,.48,1.893,2.055,4.428,2.055m1.7-.595a2.6,2.6,0,0,1,.09.528c0,.729-.82,1.134-1.9,1.134-2.44,0-4.572-1.426-4.572-2.369a.968.968,0,0,1,.079-.382c-.877.044-2.011.2-2.011,1.2,0,1.64,3.886,3.661,6.963,3.661,2.358,0,2.953-1.067,2.953-1.909a2.316,2.316,0,0,0-1.606-1.864" class="cls-6"></path>
    <path id="path108" d="M280.476,118.915a2.592,2.592,0,0,1,.09.528c0,.729-.82,1.134-1.9,1.134-2.439,0-4.571-1.426-4.571-2.369a.968.968,0,0,1,.079-.382l.19-.472a.346.346,0,0,0-.013.1c0,.48,1.893,2.055,4.428,2.055.652,0,1.6-.134,1.6-.909a.757.757,0,0,0-.016-.178Z"></path>
    <path id="path110" d="M302.341,120c0,.619.373.92,1.052.92a2.71,2.71,0,0,0,.62-.087v-.718a1.3,1.3,0,0,1-.4.06c-.279,0-.383-.087-.383-.35v-1.1h.811v-.739h-.811v-.938l-.886.192v.746h-.587v.739h.586Zm-2.761.016c0-.191.193-.285.483-.285a2.331,2.331,0,0,1,.526.066v.373a1.13,1.13,0,0,1-.552.137c-.285,0-.455-.11-.455-.291m.271.915a1.355,1.355,0,0,0,.8-.224v.175h.876V119.02c0-.707-.476-1.094-1.27-1.094a3.244,3.244,0,0,0-1.355.317l.318.653a2.364,2.364,0,0,1,.877-.231c.364,0,.553.143.553.433v.142a2.605,2.605,0,0,0-.657-.082c-.746,0-1.195.313-1.195.872a.937.937,0,0,0,1.052.9m-4.816-.049h.943v-1.5h1.578v1.5h.942v-3.835h-.94v1.474h-1.578v-1.474h-.943Zm-3.589-1.454a.734.734,0,0,1,.762-.734.894.894,0,0,1,.614.225v1.011a.852.852,0,0,1-.614.23.737.737,0,0,1-.762-.734m1.387,1.452h.876V116.85l-.885.192v1.09a1.494,1.494,0,1,0-.8,2.785h.026a1.312,1.312,0,0,0,.778-.252Zm-4.022-2.224a.641.641,0,0,1,.608.46h-1.209a.6.6,0,0,1,.6-.46m-1.5.78a1.521,1.521,0,0,0,1.577,1.5,1.739,1.739,0,0,0,1.211-.439l-.586-.521a.783.783,0,0,1-.58.22.751.751,0,0,1-.713-.46h2.065v-.219a1.488,1.488,0,1,0-2.973-.118v.036m-1.53-1.584a.436.436,0,1,1,0,.866h-.931v-.866Zm-1.875,3.03h.942v-1.4h.718l.723,1.4h1.052l-.844-1.534a1.159,1.159,0,0,0,.723-1.079,1.245,1.245,0,0,0-1.354-1.222h-1.958Z"></path>
  </g>
  <g id="g140">
    <path id="path114" d="M272.052,98.763c1.009,0,1.69.566,1.69,1.407a1.282,1.282,0,0,1-.857,1.185,1.339,1.339,0,0,1,1.04,1.269,1.56,1.56,0,0,1-1.765,1.491h-2.485V98.763Zm-1.46.75v1.5h1.368c.528,0,.865-.29.865-.749s-.337-.749-.865-.749ZM273,102.54a.835.835,0,0,0-.949-.818h-1.46v1.644h1.46A.841.841,0,0,0,273,102.54Z" class="cls-7"></path>
    <path id="path116" d="M276.638,100.223a1.985,1.985,0,1,1-1.927,1.98A1.912,1.912,0,0,1,276.638,100.223Zm1.071,1.988a1.083,1.083,0,1,0-2.141,0,1.081,1.081,0,1,0,2.141,0Z" class="cls-7"></path>
    <path id="path118" d="M281.232,100.223a1.985,1.985,0,1,1-1.927,1.98A1.912,1.912,0,0,1,281.232,100.223Zm1.07,1.988a1.082,1.082,0,1,0-2.14,0,1.081,1.081,0,1,0,2.14,0Z" class="cls-7"></path>
    <path id="path120" d="M284.342,100.972h-.771v-.688h.771V99.23l.865-.184v1.238h1.07v.688h-1.07v1.942c0,.375.145.52.535.52a1.6,1.6,0,0,0,.519-.091v.726a2.7,2.7,0,0,1-.741.107c-.772,0-1.178-.367-1.178-1.071Z" class="cls-7"></path>
    <path id="path122" d="M287.17,103.09a2.2,2.2,0,0,0,1.231.436c.459,0,.772-.206.772-.512,0-.237-.161-.367-.528-.436l-.68-.115c-.742-.138-1.108-.481-1.108-1.054,0-.719.588-1.186,1.482-1.186a2.688,2.688,0,0,1,1.506.459l-.4.566a2.09,2.09,0,0,0-1.154-.367c-.4,0-.659.168-.659.451,0,.244.138.351.543.42l.673.123c.765.145,1.132.5,1.132,1.07a1.4,1.4,0,0,1-1.559,1.246,2.568,2.568,0,0,1-1.652-.52Z" class="cls-7"></path>
    <path id="path124" d="M291.168,100.972H290.4v-.688h.772V99.23l.864-.184v1.238h1.07v.688h-1.07v1.942c0,.375.145.52.535.52a1.6,1.6,0,0,0,.519-.091v.726a2.7,2.7,0,0,1-.741.107c-.772,0-1.177-.367-1.177-1.071Z" class="cls-7"></path>
    <path id="path126" d="M293.858,100.284h.864v.834a1.135,1.135,0,0,1,1.055-.9,1.019,1.019,0,0,1,.374.076v.757a1.225,1.225,0,0,0-.474-.092,1.05,1.05,0,0,0-.955.635v2.523h-.864Z" class="cls-7"></path>
    <path id="path128" d="M296.541,103.014c0-.689.558-1.124,1.46-1.124a2.375,2.375,0,0,1,1.032.237v-.421c0-.5-.29-.764-.879-.764a2.654,2.654,0,0,0-1.116.3l-.306-.627a3.684,3.684,0,0,1,1.59-.39c.994,0,1.567.5,1.567,1.392v2.5h-.856v-.39a1.6,1.6,0,0,1-1.139.451A1.207,1.207,0,0,1,296.541,103.014Zm1.59.558a1.367,1.367,0,0,0,.9-.314v-.626a1.983,1.983,0,0,0-.887-.184c-.489,0-.8.214-.8.55C297.351,103.35,297.657,103.572,298.131,103.572Z" class="cls-7"></path>
    <path id="path130" d="M300.935,100.284h.849v.551a1.441,1.441,0,0,1,1.192-.581,1.838,1.838,0,0,1,1.735,1.949,1.856,1.856,0,0,1-1.8,1.95,1.432,1.432,0,0,1-1.116-.5v2.079h-.864Zm.864,1.125v1.6a1.173,1.173,0,0,0,.917.421,1.227,1.227,0,0,0,0-2.447A1.122,1.122,0,0,0,301.8,101.409Z" class="cls-7"></path>
    <path id="path132" d="M308.326,98.763l2.791,3.884-.016-3.884h.864v5.352h-.818l-2.867-3.991.015,3.991h-.863V98.763Z" class="cls-7"></path>
    <path id="path134" d="M314.892,100.223a1.985,1.985,0,1,1-1.927,1.98A1.912,1.912,0,0,1,314.892,100.223Zm1.07,1.988a1.082,1.082,0,1,0-2.14,0,1.081,1.081,0,1,0,2.14,0Z" class="cls-7"></path>
    <path id="path136" d="M320.471,103.6a1.47,1.47,0,0,1-1.177.551,1.96,1.96,0,0,1,.054-3.9,1.458,1.458,0,0,1,1.116.5v-2.11l.864-.146v5.612h-.857Zm-.917-.175a1.147,1.147,0,0,0,.91-.421v-1.613a1.186,1.186,0,0,0-.91-.413,1.227,1.227,0,0,0,0,2.447Z" class="cls-7"></path>
    <path id="path138" d="M324.17,104.191a1.947,1.947,0,0,1-1.949-1.988,1.886,1.886,0,0,1,1.865-1.98A1.839,1.839,0,0,1,325.9,102.2v.214H323.07a1.168,1.168,0,0,0,1.146,1.047,1.249,1.249,0,0,0,.911-.359l.565.527A2.216,2.216,0,0,1,324.17,104.191Zm-1.085-2.309h2a1.05,1.05,0,0,0-1-.955A1.028,1.028,0,0,0,323.085,101.882Z" class="cls-7"></path>
  </g>
  <g id="g150">
    <path id="path142" d="M291.987,188.424a1.947,1.947,0,0,1-1.949-1.988,1.886,1.886,0,0,1,1.865-1.98,1.838,1.838,0,0,1,1.811,1.972v.214h-2.828a1.17,1.17,0,0,0,1.147,1.048,1.249,1.249,0,0,0,.91-.36l.565.528A2.217,2.217,0,0,1,291.987,188.424Zm-1.085-2.309h2a1.049,1.049,0,0,0-1-.956A1.028,1.028,0,0,0,290.9,186.115Z" class="cls-7"></path>
    <path id="path144" d="M294.952,185.205h-.772v-.688h.772v-1.055l.864-.183v1.238h1.07v.688h-1.07v1.942c0,.374.145.52.535.52a1.586,1.586,0,0,0,.52-.092v.726a2.711,2.711,0,0,1-.742.107c-.772,0-1.177-.367-1.177-1.07Z" class="cls-7"></path>
    <path id="path146" d="M300.326,187.239l.52.519a1.993,1.993,0,0,1-1.5.666,1.981,1.981,0,0,1,0-3.96,2.064,2.064,0,0,1,1.53.642l-.536.558a1.263,1.263,0,0,0-.963-.451,1.229,1.229,0,0,0,.023,2.446A1.18,1.18,0,0,0,300.326,187.239Z" class="cls-7"></path>
    <path id="path148" d="M304.209,187.835a1.475,1.475,0,0,1-1.177.55,1.959,1.959,0,0,1,.053-3.9,1.464,1.464,0,0,1,1.117.5v-2.11l.863-.145v5.611h-.856Zm-.917-.176a1.151,1.151,0,0,0,.91-.42v-1.614a1.192,1.192,0,0,0-.91-.412,1.226,1.226,0,0,0,0,2.446Z" class="cls-7"></path>
  </g>
  <g id="g158">
    <path id="path152" d="M290.492,162.884v4.2h-.848v-5.351h1.192l1.568,3.242,1.558-3.242h1.194v5.351h-.864v-4.173l-1.9,3.791Z" class="cls-7"></path>
    <path id="path154" d="M300.421,165.636l.605.581a2.747,2.747,0,1,1,.022-3.624l-.619.611a1.883,1.883,0,1,0-1.437,3.127A1.812,1.812,0,0,0,300.421,165.636Z" class="cls-7"></path>
    <path id="path156" d="M302.087,165.62a2.677,2.677,0,0,0,1.8.78c.711,0,1.2-.359,1.2-.848,0-.436-.26-.635-.971-.765l-.986-.168c-.925-.169-1.376-.627-1.376-1.361,0-.963.772-1.605,1.972-1.605a3.578,3.578,0,0,1,2.149.7l-.467.688a2.774,2.774,0,0,0-1.712-.619c-.643,0-1.063.321-1.063.757,0,.382.237.581.826.672l.948.169c1.077.184,1.582.657,1.582,1.468,0,.978-.871,1.674-2.149,1.674a3.369,3.369,0,0,1-2.247-.864Z" class="cls-7"></path>
  </g>
  <rect id="rect160" height="6.318" width="4.574" y="515.243" x="221.676" class="cls-1"></rect>
  <g id="g166">
    <line id="line162" y2="85.686" x2="297.979" y1="66.2" x1="297.979" class="cls-8"></line>
    <polygon id="polygon164" points="294.24 84.592 297.979 91.068 301.718 84.592 294.24 84.592" class="cls-9"></polygon>
  </g>
  <g id="g242">
    <rect id="rect168" height="50.839" width="115.271" y="535.053" x="240.002" class="cls-10"></rect>
    <g id="g220">
      <path id="path170" d="M268.943,556.238l.864.817a2.74,2.74,0,1,1,.038-3.447l-.886.841a1.559,1.559,0,0,0-1.285-.711,1.583,1.583,0,1,0,1.269,2.5Z"></path>
      <path id="path172" d="M272.26,554a2.041,2.041,0,1,1-2.056,2.041A2.008,2.008,0,0,1,272.26,554Zm.857,2.041a.864.864,0,1,0-1.705,0,.863.863,0,1,0,1.705,0Z"></path>
      <path id="path174" d="M275.11,554.059h1.238v.641a1.458,1.458,0,0,1,1.246-.7,1.276,1.276,0,0,1,1.308,1.346V558h-1.238v-2.3a.657.657,0,0,0-.658-.734.8.8,0,0,0-.658.329V558H275.11Z"></path>
      <path id="path176" d="M280.239,555.014h-.764v-.955h.764v-1.094l1.239-.252v1.346h1.055v.955h-1.055v1.529c0,.352.138.474.52.474a1.652,1.652,0,0,0,.5-.084v1a3.479,3.479,0,0,1-.848.122c-.933,0-1.415-.429-1.415-1.27Z"></path>
      <path id="path178" d="M283.036,556.871c0-.725.566-1.146,1.537-1.146a2.572,2.572,0,0,1,.917.184v-.322c0-.382-.252-.573-.78-.573a2.935,2.935,0,0,0-1.108.275l-.429-.864a4.383,4.383,0,0,1,1.812-.428c1.094,0,1.728.543,1.728,1.484V558H285.49v-.344a1.57,1.57,0,0,1-1.093.406A1.228,1.228,0,0,1,283.036,556.871Zm1.743.375a1.337,1.337,0,0,0,.711-.2v-.5a2.993,2.993,0,0,0-.681-.084c-.4,0-.634.138-.634.39S284.4,557.246,284.779,557.246Z"></path>
      <path id="path180" d="M287.569,552.759a.7.7,0,0,1,1.4,0,.7.7,0,0,1-1.4,0ZM288.883,558h-1.238v-3.944h1.238Z"></path>
      <path id="path182" d="M289.846,554.059h1.239v.641a1.456,1.456,0,0,1,1.246-.7,1.276,1.276,0,0,1,1.307,1.346V558H292.4v-2.3a.657.657,0,0,0-.657-.734.8.8,0,0,0-.658.329V558h-1.239Z"></path>
      <path id="path184" d="M296.473,558.079a2.04,2.04,0,0,1-2.079-2.041,1.979,1.979,0,0,1,1.987-2.048,1.939,1.939,0,0,1,1.943,2.094v.268H295.61a.946.946,0,0,0,.925.741.974.974,0,0,0,.779-.328l.818.681A2.3,2.3,0,0,1,296.473,558.079Zm-.863-2.43h1.567a.821.821,0,0,0-.8-.7A.783.783,0,0,0,295.61,555.649Z"></path>
      <path id="path186" d="M299.094,554.059h1.239v.894c.252-.658.6-.971,1.07-.971a.854.854,0,0,1,.413.1v1.063a1.364,1.364,0,0,0-.581-.122,1.09,1.09,0,0,0-.9.489V558h-1.239Z"></path>
      <path id="path188" d="M304.154,552.652h1.315V558h-1.315Z"></path>
      <path id="path190" d="M306.47,554.059h1.239v.627a1.355,1.355,0,0,1,1.169-.689,1.17,1.17,0,0,1,1.109.735,1.489,1.489,0,0,1,1.292-.735,1.264,1.264,0,0,1,1.238,1.384V558h-1.238v-2.378a.59.59,0,0,0-.589-.657.676.676,0,0,0-.573.306V558h-1.239v-2.378a.59.59,0,0,0-.588-.657.71.71,0,0,0-.581.306V558H306.47Z"></path>
      <path id="path192" d="M313.265,556.871c0-.725.567-1.146,1.537-1.146a2.564,2.564,0,0,1,.917.184v-.322c0-.382-.252-.573-.779-.573a2.931,2.931,0,0,0-1.108.275l-.429-.864a4.375,4.375,0,0,1,1.811-.428c1.094,0,1.729.543,1.729,1.484V558h-1.224v-.344a1.568,1.568,0,0,1-1.092.406A1.229,1.229,0,0,1,313.265,556.871Zm1.743.375a1.337,1.337,0,0,0,.711-.2v-.5a2.985,2.985,0,0,0-.68-.084c-.4,0-.634.138-.634.39S314.627,557.246,315.008,557.246Z"></path>
      <path id="path194" d="M317.7,556.008a1.894,1.894,0,0,1,1.835-1.973,1.371,1.371,0,0,1,1.07.5v-.474h1.215v4c0,1.062-.733,1.651-2.079,1.651a3.8,3.8,0,0,1-1.636-.351l.382-.895a2.8,2.8,0,0,0,1.208.306c.589,0,.894-.245.894-.727v-.565a1.476,1.476,0,0,1-1.146.519A1.869,1.869,0,0,1,317.7,556.008Zm2.156.979a.959.959,0,0,0,.733-.314v-1.315a1,1,0,0,0-.733-.306.922.922,0,0,0-.94.964A.933.933,0,0,0,319.854,556.987Z"></path>
      <path id="path196" d="M324.684,558.079a2.04,2.04,0,0,1-2.079-2.041,1.978,1.978,0,0,1,1.987-2.048,1.939,1.939,0,0,1,1.943,2.094v.268h-2.714a.945.945,0,0,0,.925.741.974.974,0,0,0,.779-.328l.818.681A2.3,2.3,0,0,1,324.684,558.079Zm-.863-2.43h1.567a.821.821,0,0,0-.8-.7A.782.782,0,0,0,323.821,555.649Z"></path>
      <path id="path198" d="M327.565,556.773a2.553,2.553,0,0,0,1.27.4c.351,0,.565-.123.565-.321,0-.153-.114-.237-.367-.283l-.757-.138c-.765-.144-1.162-.535-1.162-1.146,0-.811.619-1.292,1.651-1.292a3.173,3.173,0,0,1,1.606.451l-.566.787a2.232,2.232,0,0,0-1.132-.336c-.3,0-.473.1-.473.275,0,.16.1.23.405.283l.741.137c.781.146,1.193.543,1.185,1.14.008.771-.726,1.352-1.7,1.352a3.231,3.231,0,0,1-1.813-.481Z"></path>
      <path id="path200" d="M281.921,561.74l.458.55a3.733,3.733,0,0,0,0,6.024l-.458.558a4.362,4.362,0,0,1,0-7.132Z"></path>
      <path id="path202" d="M283.35,561.824h2.377a1.631,1.631,0,0,1,1.789,1.621,1.521,1.521,0,0,1-1.055,1.467l1.124,2.263h-1.017l-1.032-2.141h-1.269v2.141h-.917Zm.917.772V564.3h1.384a.857.857,0,1,0,0-1.705Z"></path>
      <path id="path204" d="M289.961,567.251a1.947,1.947,0,0,1-1.949-1.987,1.886,1.886,0,0,1,1.865-1.98,1.838,1.838,0,0,1,1.812,1.972v.214h-2.828a1.168,1.168,0,0,0,1.146,1.048,1.249,1.249,0,0,0,.911-.359l.565.527A2.22,2.22,0,0,1,289.961,567.251Zm-1.084-2.308h2a1.049,1.049,0,0,0-1-.955A1.027,1.027,0,0,0,288.877,564.943Z"></path>
      <path id="path206" d="M292.415,565.256a1.848,1.848,0,0,1,1.789-1.941,1.441,1.441,0,0,1,1.123.519v-.489h.856v3.96c0,.986-.641,1.529-1.8,1.529a3.33,3.33,0,0,1-1.537-.367l.306-.642a2.618,2.618,0,0,0,1.193.329c.642,0,.979-.29.979-.849v-.649a1.488,1.488,0,0,1-1.17.542A1.835,1.835,0,0,1,292.415,565.256Zm2,1.224a1.149,1.149,0,0,0,.91-.421v-1.606a1.193,1.193,0,0,0-.91-.413,1.143,1.143,0,0,0-1.139,1.216A1.159,1.159,0,0,0,294.41,566.48Z"></path>
      <path id="path208" d="M297.138,562.037a.539.539,0,0,1,1.078,0,.539.539,0,0,1-1.078,0Zm.972,5.138h-.864v-3.83h.864Z"></path>
      <path id="path210" d="M299.233,566.151a2.207,2.207,0,0,0,1.23.435c.459,0,.773-.206.773-.511,0-.238-.161-.368-.528-.436l-.68-.115c-.742-.138-1.109-.482-1.109-1.055,0-.719.588-1.185,1.483-1.185a2.7,2.7,0,0,1,1.506.458l-.405.566a2.094,2.094,0,0,0-1.154-.366c-.4,0-.658.168-.658.451,0,.244.138.351.543.42l.673.122c.764.145,1.132.5,1.132,1.07a1.4,1.4,0,0,1-1.56,1.246,2.57,2.57,0,0,1-1.651-.519Z"></path>
      <path id="path212" d="M303.23,564.034h-.771v-.689h.771V562.29l.864-.183v1.238h1.071v.689h-1.071v1.941c0,.375.146.519.535.519a1.581,1.581,0,0,0,.52-.091v.726a2.711,2.711,0,0,1-.741.108c-.773,0-1.178-.368-1.178-1.071Z"></path>
      <path id="path214" d="M305.92,563.345h.865v.833a1.135,1.135,0,0,1,1.054-.9.991.991,0,0,1,.374.076v.757a1.2,1.2,0,0,0-.473-.092,1.049,1.049,0,0,0-.955.635v2.522h-.865Z"></path>
      <path id="path216" d="M309.979,567.2l-1.445-3.853h.964l.97,2.844,1.071-2.844h.94L310.66,567.8a1.3,1.3,0,0,1-1.362,1.009,1.788,1.788,0,0,1-.435-.054v-.741a3.059,3.059,0,0,0,.336.03.611.611,0,0,0,.62-.443Z"></path>
      <path id="path218" d="M313.357,568.872l-.458-.55a3.733,3.733,0,0,0,0-6.024l.458-.558a4.36,4.36,0,0,1,0,7.132Z"></path>
    </g>
    <g id="g240">
      <g id="g226">
        <polygon id="polygon222" points="348.393 549.733 342.469 549.733 342.469 543.063 343.95 541.581 348.393 541.581 348.393 549.733" class="cls-2"></polygon>
        <path id="path224" d="M348.393,549.884h-5.924a.151.151,0,0,1-.15-.151v-6.67a.146.146,0,0,1,.044-.106l1.481-1.483a.15.15,0,0,1,.106-.044h4.443a.152.152,0,0,1,.151.151v8.152A.152.152,0,0,1,348.393,549.884Zm-5.774-.3h5.624v-7.852h-4.231l-1.393,1.394Z" class="cls-11"></path>
      </g>
      <path id="path228" d="M343.95,543.213h-1.481a.15.15,0,0,1-.106-.256l1.481-1.483a.151.151,0,0,1,.257.107v1.482A.151.151,0,0,1,343.95,543.213Zm-1.118-.3h.968v-.969Z" class="cls-11"></path>
      <path id="path230" d="M345.431,544.325H343.58a.151.151,0,1,1,0-.3h1.851a.151.151,0,1,1,0,.3Z" class="cls-11"></path>
      <path id="path232" d="M347.283,545.437h-3.7a.151.151,0,1,1,0-.3h3.7a.151.151,0,0,1,0,.3Z" class="cls-11"></path>
      <path id="path234" d="M347.283,546.548h-3.7a.15.15,0,1,1,0-.3h3.7a.15.15,0,0,1,0,.3Z" class="cls-11"></path>
      <path id="path236" d="M347.283,547.66h-3.7a.151.151,0,1,1,0-.3h3.7a.151.151,0,0,1,0,.3Z" class="cls-11"></path>
      <rect id="rect238" height="12.815" width="11.04" y="539.249" x="339.911" class="cls-12"></rect>
    </g>
  </g>
  <g id="g400">
    <g id="g266">
      <path id="path244" d="M67.241,610.357h2.377a1.632,1.632,0,0,1,1.789,1.621,1.523,1.523,0,0,1-1.055,1.468l1.123,2.262H70.459l-1.033-2.14H68.158v2.14h-.917Zm.917.772v1.7h1.384a.857.857,0,1,0,0-1.7Z" class="cls-7"></path>
      <path id="path246" d="M72.338,610.357h.918v2.256h2.661v-2.256h.917v5.351h-.917v-2.293H73.256v2.293h-.918Z" class="cls-7"></path>
      <path id="path248" d="M82.053,614.263l.605.581a2.747,2.747,0,1,1,.022-3.623l-.619.611a1.883,1.883,0,1,0-1.437,3.127A1.813,1.813,0,0,0,82.053,614.263Z" class="cls-7"></path>
      <path id="path250" d="M85.951,615.792a2.76,2.76,0,1,1,2.706-2.759A2.708,2.708,0,0,1,85.951,615.792Zm.008-4.7a1.946,1.946,0,0,0,0,3.876,1.947,1.947,0,0,0,0-3.876Z" class="cls-7"></path>
      <path id="path252" d="M89.727,614.248a2.677,2.677,0,0,0,1.8.78c.711,0,1.2-.36,1.2-.849,0-.436-.26-.634-.971-.764l-.986-.169c-.925-.168-1.376-.627-1.376-1.36,0-.963.773-1.605,1.973-1.605a3.58,3.58,0,0,1,2.148.7l-.467.688a2.773,2.773,0,0,0-1.711-.619c-.643,0-1.063.322-1.063.757,0,.382.236.581.825.673l.948.168c1.078.183,1.583.657,1.583,1.468,0,.978-.872,1.673-2.149,1.673a3.371,3.371,0,0,1-2.247-.863Z" class="cls-7"></path>
      <path id="path254" d="M96.231,610.357h.917v5.351h-.917Z" class="cls-7"></path>
      <path id="path256" d="M98.287,611.878h.864v.612a1.3,1.3,0,0,1,1.139-.673,1.207,1.207,0,0,1,1.124.742,1.411,1.411,0,0,1,1.268-.742,1.27,1.27,0,0,1,1.254,1.391v2.5h-.864v-2.316a.775.775,0,0,0-.772-.879.91.91,0,0,0-.772.451c.008.084.015.16.015.244v2.5h-.864v-2.316a.775.775,0,0,0-.771-.879.888.888,0,0,0-.757.436v2.759h-.864Z" class="cls-7"></path>
      <path id="path258" d="M104.791,614.608c0-.689.558-1.124,1.46-1.124a2.361,2.361,0,0,1,1.032.237V613.3c0-.5-.29-.765-.879-.765a2.642,2.642,0,0,0-1.116.3l-.306-.627a3.684,3.684,0,0,1,1.59-.39c.994,0,1.567.5,1.567,1.391v2.5h-.856v-.389a1.6,1.6,0,0,1-1.139.451A1.208,1.208,0,0,1,104.791,614.608Zm1.59.557a1.366,1.366,0,0,0,.9-.313v-.627a1.983,1.983,0,0,0-.887-.184c-.489,0-.8.215-.8.551C105.6,614.944,105.907,615.165,106.381,615.165Z" class="cls-7"></path>
      <path id="path260" d="M109.01,613.789a1.848,1.848,0,0,1,1.789-1.941,1.441,1.441,0,0,1,1.123.519v-.489h.857v3.96c0,.987-.642,1.529-1.8,1.529a3.314,3.314,0,0,1-1.537-.367l.306-.642a2.614,2.614,0,0,0,1.193.329c.642,0,.979-.29.979-.849v-.649a1.49,1.49,0,0,1-1.17.542A1.836,1.836,0,0,1,109.01,613.789Zm1.995,1.224a1.149,1.149,0,0,0,.911-.421v-1.605a1.19,1.19,0,0,0-.911-.413,1.142,1.142,0,0,0-1.138,1.215A1.158,1.158,0,0,0,111.005,615.013Z" class="cls-7"></path>
      <path id="path262" d="M115.614,615.784a1.946,1.946,0,0,1-1.949-1.987,1.886,1.886,0,0,1,1.865-1.98,1.838,1.838,0,0,1,1.811,1.972V614h-2.828a1.169,1.169,0,0,0,1.147,1.048,1.248,1.248,0,0,0,.91-.359l.565.527A2.215,2.215,0,0,1,115.614,615.784Zm-1.086-2.308h2a1.048,1.048,0,0,0-1-.955A1.028,1.028,0,0,0,114.528,613.476Z" class="cls-7"></path>
      <path id="path264" d="M118.32,614.684a2.207,2.207,0,0,0,1.23.435c.459,0,.773-.206.773-.511,0-.238-.161-.367-.529-.436l-.679-.115c-.742-.138-1.109-.482-1.109-1.055,0-.718.588-1.185,1.483-1.185a2.693,2.693,0,0,1,1.506.459l-.405.565a2.094,2.094,0,0,0-1.154-.366c-.4,0-.658.168-.658.451,0,.244.138.352.543.42l.673.122c.764.146,1.132.5,1.132,1.07a1.4,1.4,0,0,1-1.56,1.246,2.57,2.57,0,0,1-1.651-.519Z" class="cls-7"></path>
    </g>
    <g id="g306">
      <path id="path268" d="M159.034,610.357h.917v5.351h-.917Z" class="cls-7"></path>
      <path id="path270" d="M160.914,613.789a1.848,1.848,0,0,1,1.789-1.941,1.444,1.444,0,0,1,1.123.519v-.489h.856v3.96c0,.987-.641,1.529-1.8,1.529a3.32,3.32,0,0,1-1.537-.367l.306-.642a2.618,2.618,0,0,0,1.193.329c.642,0,.979-.29.979-.849v-.649a1.488,1.488,0,0,1-1.17.542A1.835,1.835,0,0,1,160.914,613.789Zm2,1.224a1.149,1.149,0,0,0,.91-.421v-1.605a1.19,1.19,0,0,0-.91-.413,1.142,1.142,0,0,0-1.139,1.215A1.158,1.158,0,0,0,162.909,615.013Z" class="cls-7"></path>
      <path id="path272" d="M165.744,611.878h.864v.627a1.389,1.389,0,0,1,1.215-.688,1.289,1.289,0,0,1,1.322,1.369v2.522h-.863V613.43a.825.825,0,0,0-.841-.917.979.979,0,0,0-.833.459v2.736h-.864Z" class="cls-7"></path>
      <path id="path274" d="M170.085,610.571a.539.539,0,0,1,1.078,0,.539.539,0,0,1-1.078,0Zm.971,5.137h-.864v-3.83h.864Z" class="cls-7"></path>
      <path id="path276" d="M172.592,612.567h-.771v-.689h.771v-1.054l.865-.184v1.238h1.07v.689h-1.07v1.941c0,.375.145.52.535.52a1.576,1.576,0,0,0,.519-.092v.726a2.7,2.7,0,0,1-.741.108c-.772,0-1.178-.367-1.178-1.07Z" class="cls-7"></path>
      <path id="path278" d="M175.175,610.571a.539.539,0,0,1,1.078,0,.539.539,0,0,1-1.078,0Zm.972,5.137h-.864v-3.83h.864Z" class="cls-7"></path>
      <path id="path280" d="M178.96,611.817a1.984,1.984,0,1,1-1.927,1.98A1.912,1.912,0,0,1,178.96,611.817Zm1.07,1.988a1.083,1.083,0,1,0-2.141,0,1.081,1.081,0,1,0,2.141,0Z" class="cls-7"></path>
      <path id="path282" d="M181.779,611.878h.864v.627a1.389,1.389,0,0,1,1.215-.688,1.289,1.289,0,0,1,1.322,1.369v2.522h-.863V613.43a.825.825,0,0,0-.841-.917.979.979,0,0,0-.833.459v2.736h-.864Z" class="cls-7"></path>
      <path id="path284" d="M190.683,614.6l.521.519a1.991,1.991,0,0,1-1.5.665,1.98,1.98,0,0,1,0-3.959,2.064,2.064,0,0,1,1.529.642l-.535.558a1.268,1.268,0,0,0-.963-.451,1.229,1.229,0,0,0,.022,2.446A1.174,1.174,0,0,0,190.683,614.6Z" class="cls-7"></path>
      <path id="path286" d="M193.581,611.817a1.984,1.984,0,1,1-1.927,1.98A1.912,1.912,0,0,1,193.581,611.817Zm1.07,1.988a1.083,1.083,0,1,0-2.141,0,1.081,1.081,0,1,0,2.141,0Z" class="cls-7"></path>
      <path id="path288" d="M196.4,611.878h.864v.627a1.389,1.389,0,0,1,1.215-.688,1.289,1.289,0,0,1,1.322,1.369v2.522h-.863V613.43a.825.825,0,0,0-.841-.917.979.979,0,0,0-.833.459v2.736H196.4Z" class="cls-7"></path>
      <path id="path290" d="M201.253,611.878v-.68a1.177,1.177,0,0,1,1.324-1.285,2.077,2.077,0,0,1,.573.078v.733a1.764,1.764,0,0,0-.459-.062c-.4,0-.573.176-.573.551v.665h1.032v.689h-1.032v3.141h-.865v-3.141h-.825v-.689Z" class="cls-7"></path>
      <path id="path292" d="M203.768,610.571a.539.539,0,0,1,1.078,0,.539.539,0,0,1-1.078,0Zm.972,5.137h-.864v-3.83h.864Z" class="cls-7"></path>
      <path id="path294" d="M205.626,613.789a1.848,1.848,0,0,1,1.789-1.941,1.444,1.444,0,0,1,1.123.519v-.489h.856v3.96c0,.987-.642,1.529-1.8,1.529a3.317,3.317,0,0,1-1.537-.367l.306-.642a2.614,2.614,0,0,0,1.193.329c.642,0,.979-.29.979-.849v-.649a1.488,1.488,0,0,1-1.17.542A1.835,1.835,0,0,1,205.626,613.789Zm2,1.224a1.149,1.149,0,0,0,.91-.421v-1.605a1.19,1.19,0,0,0-.91-.413,1.142,1.142,0,0,0-1.139,1.215A1.158,1.158,0,0,0,207.621,615.013Z" class="cls-7"></path>
      <path id="path296" d="M212.7,611.878v-.68a1.176,1.176,0,0,1,1.323-1.285,2.072,2.072,0,0,1,.573.078v.733a1.759,1.759,0,0,0-.459-.062c-.4,0-.573.176-.573.551v.665h1.032v.689H213.56v3.141H212.7v-3.141h-.825v-.689Z" class="cls-7"></path>
      <path id="path298" d="M215.21,610.571a.539.539,0,0,1,1.078,0,.539.539,0,0,1-1.078,0Zm.971,5.137h-.864v-3.83h.864Z" class="cls-7"></path>
      <path id="path300" d="M218.108,615.708h-.864v-5.466l.864-.145Z" class="cls-7"></path>
      <path id="path302" d="M220.943,615.784a1.946,1.946,0,0,1-1.949-1.987,1.886,1.886,0,0,1,1.865-1.98,1.838,1.838,0,0,1,1.811,1.972V614h-2.828a1.169,1.169,0,0,0,1.147,1.048,1.248,1.248,0,0,0,.91-.359l.565.527A2.211,2.211,0,0,1,220.943,615.784Zm-1.085-2.308h2a1.048,1.048,0,0,0-1-.955A1.027,1.027,0,0,0,219.858,613.476Z" class="cls-7"></path>
      <path id="path304" d="M223.649,614.684a2.207,2.207,0,0,0,1.23.435c.459,0,.773-.206.773-.511,0-.238-.161-.367-.528-.436l-.68-.115c-.742-.138-1.109-.482-1.109-1.055,0-.718.588-1.185,1.483-1.185a2.691,2.691,0,0,1,1.506.459l-.405.565a2.1,2.1,0,0,0-1.155-.366c-.4,0-.657.168-.657.451,0,.244.138.352.543.42l.673.122c.764.146,1.132.5,1.132,1.07a1.4,1.4,0,0,1-1.56,1.246,2.57,2.57,0,0,1-1.651-.519Z" class="cls-7"></path>
    </g>
    <g id="g338">
      <path id="path308" d="M265.14,614.263l.605.581a2.747,2.747,0,1,1,.022-3.623l-.619.611a1.883,1.883,0,1,0-1.438,3.127A1.814,1.814,0,0,0,265.14,614.263Z" class="cls-7"></path>
      <path id="path310" d="M268.22,611.817a1.984,1.984,0,1,1-1.927,1.98A1.912,1.912,0,0,1,268.22,611.817Zm1.071,1.988a1.083,1.083,0,1,0-2.141,0,1.081,1.081,0,1,0,2.141,0Z" class="cls-7"></path>
      <path id="path312" d="M271.041,611.878h.864v.627a1.389,1.389,0,0,1,1.215-.688,1.289,1.289,0,0,1,1.322,1.369v2.522h-.863V613.43a.825.825,0,0,0-.841-.917.979.979,0,0,0-.833.459v2.736h-.864Z" class="cls-7"></path>
      <path id="path314" d="M275.847,612.567h-.771v-.689h.771v-1.054l.864-.184v1.238h1.071v.689h-1.071v1.941c0,.375.146.52.536.52a1.58,1.58,0,0,0,.519-.092v.726a2.711,2.711,0,0,1-.741.108c-.773,0-1.178-.367-1.178-1.07Z" class="cls-7"></path>
      <path id="path316" d="M278.346,614.608c0-.689.559-1.124,1.46-1.124a2.355,2.355,0,0,1,1.032.237V613.3c0-.5-.29-.765-.878-.765a2.646,2.646,0,0,0-1.117.3l-.305-.627a3.684,3.684,0,0,1,1.589-.39c1,0,1.568.5,1.568,1.391v2.5h-.857v-.389a1.6,1.6,0,0,1-1.138.451A1.209,1.209,0,0,1,278.346,614.608Zm1.591.557a1.361,1.361,0,0,0,.9-.313v-.627a1.976,1.976,0,0,0-.886-.184c-.49,0-.8.215-.8.551C279.157,614.944,279.462,615.165,279.937,615.165Z" class="cls-7"></path>
      <path id="path318" d="M282.634,610.571a.539.539,0,0,1,1.078,0,.539.539,0,0,1-1.078,0Zm.972,5.137h-.864v-3.83h.864Z" class="cls-7"></path>
      <path id="path320" d="M284.668,611.878h.864v.627a1.389,1.389,0,0,1,1.215-.688,1.289,1.289,0,0,1,1.322,1.369v2.522h-.863V613.43a.825.825,0,0,0-.841-.917.979.979,0,0,0-.833.459v2.736h-.864Z" class="cls-7"></path>
      <path id="path322" d="M290.889,615.784a1.946,1.946,0,0,1-1.949-1.987,1.886,1.886,0,0,1,1.865-1.98,1.839,1.839,0,0,1,1.812,1.972V614h-2.828a1.168,1.168,0,0,0,1.146,1.048,1.248,1.248,0,0,0,.91-.359l.566.527A2.215,2.215,0,0,1,290.889,615.784Zm-1.086-2.308h2a1.047,1.047,0,0,0-1-.955A1.03,1.03,0,0,0,289.8,613.476Z" class="cls-7"></path>
      <path id="path324" d="M293.5,611.878h.864v.833a1.135,1.135,0,0,1,1.055-.9,1,1,0,0,1,.374.076v.757a1.206,1.206,0,0,0-.474-.092,1.049,1.049,0,0,0-.955.635v2.522H293.5Z" class="cls-7"></path>
      <path id="path326" d="M298.112,610.571a.539.539,0,0,1,1.078,0,.539.539,0,0,1-1.078,0Zm.972,5.137h-.865v-3.83h.865Z" class="cls-7"></path>
      <path id="path328" d="M300.145,611.878h.864v.612a1.306,1.306,0,0,1,1.139-.673,1.2,1.2,0,0,1,1.124.742,1.413,1.413,0,0,1,1.269-.742,1.269,1.269,0,0,1,1.253,1.391v2.5h-.864v-2.316a.775.775,0,0,0-.771-.879.911.911,0,0,0-.773.451c.008.084.016.16.016.244v2.5h-.864v-2.316a.775.775,0,0,0-.772-.879.891.891,0,0,0-.757.436v2.759h-.864Z" class="cls-7"></path>
      <path id="path330" d="M306.649,614.608c0-.689.559-1.124,1.46-1.124a2.361,2.361,0,0,1,1.032.237V613.3c0-.5-.29-.765-.879-.765a2.642,2.642,0,0,0-1.116.3l-.306-.627a3.688,3.688,0,0,1,1.59-.39c.994,0,1.568.5,1.568,1.391v2.5h-.857v-.389a1.6,1.6,0,0,1-1.139.451A1.208,1.208,0,0,1,306.649,614.608Zm1.591.557a1.363,1.363,0,0,0,.9-.313v-.627a1.98,1.98,0,0,0-.887-.184c-.489,0-.794.215-.794.551C307.46,614.944,307.765,615.165,308.24,615.165Z" class="cls-7"></path>
      <path id="path332" d="M310.869,613.789a1.848,1.848,0,0,1,1.789-1.941,1.442,1.442,0,0,1,1.123.519v-.489h.856v3.96c0,.987-.641,1.529-1.8,1.529A3.321,3.321,0,0,1,311.3,617l.306-.642a2.618,2.618,0,0,0,1.193.329c.642,0,.979-.29.979-.849v-.649a1.488,1.488,0,0,1-1.17.542A1.835,1.835,0,0,1,310.869,613.789Zm1.995,1.224a1.149,1.149,0,0,0,.91-.421v-1.605a1.19,1.19,0,0,0-.91-.413,1.142,1.142,0,0,0-1.139,1.215A1.158,1.158,0,0,0,312.864,615.013Z" class="cls-7"></path>
      <path id="path334" d="M317.472,615.784a1.946,1.946,0,0,1-1.949-1.987,1.886,1.886,0,0,1,1.865-1.98,1.839,1.839,0,0,1,1.812,1.972V614h-2.828a1.168,1.168,0,0,0,1.146,1.048,1.248,1.248,0,0,0,.91-.359l.566.527A2.215,2.215,0,0,1,317.472,615.784Zm-1.085-2.308h2a1.047,1.047,0,0,0-1-.955A1.028,1.028,0,0,0,316.387,613.476Z" class="cls-7"></path>
      <path id="path336" d="M320.178,614.684a2.207,2.207,0,0,0,1.231.435c.459,0,.772-.206.772-.511,0-.238-.161-.367-.528-.436l-.68-.115c-.742-.138-1.108-.482-1.108-1.055,0-.718.588-1.185,1.482-1.185a2.691,2.691,0,0,1,1.506.459l-.4.565a2.1,2.1,0,0,0-1.156-.366c-.4,0-.657.168-.657.451,0,.244.138.352.543.42l.673.122c.765.146,1.132.5,1.132,1.07a1.4,1.4,0,0,1-1.56,1.246,2.57,2.57,0,0,1-1.651-.519Z" class="cls-7"></path>
    </g>
    <g id="g358">
      <g id="g344">
        <polygon id="polygon340" points="59.248 617.667 53.324 617.667 53.324 610.997 54.805 609.515 59.248 609.515 59.248 617.667" class="cls-2"></polygon>
        <path id="path342" d="M59.248,617.818H53.324a.151.151,0,0,1-.15-.151V611a.15.15,0,0,1,.044-.106l1.481-1.482a.146.146,0,0,1,.106-.044h4.443a.151.151,0,0,1,.151.15v8.152A.152.152,0,0,1,59.248,617.818Zm-5.774-.3H59.1v-7.852H54.867l-1.393,1.395Z" class="cls-11"></path>
      </g>
      <path id="path346" d="M54.805,611.148H53.324a.15.15,0,0,1-.106-.257l1.481-1.482a.15.15,0,0,1,.257.106V611A.152.152,0,0,1,54.805,611.148Zm-1.118-.3h.968v-.969Z" class="cls-11"></path>
      <path id="path348" d="M56.286,612.259H54.435a.15.15,0,1,1,0-.3h1.851a.15.15,0,1,1,0,.3Z" class="cls-11"></path>
      <path id="path350" d="M58.138,613.371h-3.7a.151.151,0,1,1,0-.3h3.7a.151.151,0,0,1,0,.3Z" class="cls-11"></path>
      <path id="path352" d="M58.138,614.483h-3.7a.151.151,0,1,1,0-.3h3.7a.151.151,0,0,1,0,.3Z" class="cls-11"></path>
      <path id="path354" d="M58.138,615.594h-3.7a.15.15,0,1,1,0-.3h3.7a.15.15,0,0,1,0,.3Z" class="cls-11"></path>
      <rect id="rect356" height="12.815" width="11.04" y="607.183" x="50.766" class="cls-13"></rect>
    </g>
    <g id="g378">
      <g id="g364">
        <polygon id="polygon360" points="150.467 617.667 144.543 617.667 144.543 610.997 146.024 609.515 150.467 609.515 150.467 617.667" class="cls-2"></polygon>
        <path id="path362" d="M150.467,617.818h-5.924a.151.151,0,0,1-.15-.151V611a.146.146,0,0,1,.044-.106l1.481-1.482a.146.146,0,0,1,.106-.044h4.443a.151.151,0,0,1,.151.15v8.152A.152.152,0,0,1,150.467,617.818Zm-5.774-.3h5.624v-7.852h-4.231l-1.393,1.395Z" class="cls-11"></path>
      </g>
      <path id="path366" d="M146.024,611.148h-1.481a.15.15,0,0,1-.106-.257l1.481-1.482a.15.15,0,0,1,.257.106V611A.152.152,0,0,1,146.024,611.148Zm-1.118-.3h.968v-.969Z" class="cls-11"></path>
      <path id="path368" d="M147.505,612.259h-1.851a.15.15,0,1,1,0-.3h1.851a.15.15,0,1,1,0,.3Z" class="cls-11"></path>
      <path id="path370" d="M149.357,613.371h-3.7a.151.151,0,1,1,0-.3h3.7a.151.151,0,0,1,0,.3Z" class="cls-11"></path>
      <path id="path372" d="M149.357,614.483h-3.7a.151.151,0,1,1,0-.3h3.7a.151.151,0,0,1,0,.3Z" class="cls-11"></path>
      <path id="path374" d="M149.357,615.594h-3.7a.15.15,0,1,1,0-.3h3.7a.15.15,0,0,1,0,.3Z" class="cls-11"></path>
      <rect id="rect376" height="12.815" width="11.04" y="607.183" x="141.985" class="cls-14"></rect>
    </g>
    <g id="g398">
      <g id="g384">
        <polygon id="polygon380" points="252.026 617.667 246.101 617.667 246.101 610.997 247.582 609.515 252.026 609.515 252.026 617.667" class="cls-2"></polygon>
        <path id="path382" d="M252.026,617.818H246.1a.151.151,0,0,1-.15-.151V611a.15.15,0,0,1,.044-.106l1.481-1.482a.148.148,0,0,1,.107-.044h4.443a.15.15,0,0,1,.15.15v8.152A.151.151,0,0,1,252.026,617.818Zm-5.774-.3h5.623v-7.852h-4.23l-1.393,1.395Z" class="cls-11"></path>
      </g>
      <path id="path386" d="M247.583,611.148H246.1a.151.151,0,0,1-.106-.257l1.481-1.482a.15.15,0,0,1,.257.106V611A.151.151,0,0,1,247.583,611.148Zm-1.119-.3h.968v-.969Z" class="cls-11"></path>
      <path id="path388" d="M249.063,612.259h-1.851a.15.15,0,1,1,0-.3h1.851a.15.15,0,1,1,0,.3Z" class="cls-11"></path>
      <path id="path390" d="M250.915,613.371h-3.7a.151.151,0,0,1,0-.3h3.7a.151.151,0,0,1,0,.3Z" class="cls-11"></path>
      <path id="path392" d="M250.915,614.483h-3.7a.151.151,0,0,1,0-.3h3.7a.151.151,0,0,1,0,.3Z" class="cls-11"></path>
      <path id="path394" d="M250.915,615.594h-3.7a.15.15,0,0,1,0-.3h3.7a.15.15,0,0,1,0,.3Z" class="cls-11"></path>
      <rect id="rect396" height="12.815" width="11.04" y="607.183" x="243.544" class="cls-12"></rect>
    </g>
  </g>
  <g id="g572">
    <rect id="rect402" height="50.839" width="115.271" y="135.554" x="92.462" class="cls-15"></rect>
    <rect id="rect404" height="50.839" width="115.271" y="135.554" x="387.543" class="cls-15"></rect>
    <g id="g468">
      <path id="path406" d="M126.931,153.153h1.316V158.5h-1.316Z"></path>
      <path id="path408" d="M129.072,156.509a1.893,1.893,0,0,1,1.835-1.973,1.369,1.369,0,0,1,1.07.5v-.475h1.215v4c0,1.062-.733,1.651-2.079,1.651a3.769,3.769,0,0,1-1.636-.352l.382-.894a2.8,2.8,0,0,0,1.208.306c.589,0,.894-.245.894-.727v-.565a1.476,1.476,0,0,1-1.146.519A1.869,1.869,0,0,1,129.072,156.509Zm2.156.979a.955.955,0,0,0,.733-.314v-1.315a1,1,0,0,0-.733-.305.921.921,0,0,0-.94.962A.933.933,0,0,0,131.228,157.488Z"></path>
      <path id="path410" d="M134.154,154.559h1.238v.642a1.458,1.458,0,0,1,1.246-.7,1.275,1.275,0,0,1,1.308,1.346v2.66h-1.238v-2.3a.657.657,0,0,0-.658-.734.8.8,0,0,0-.658.329V158.5h-1.238Z"></path>
      <path id="path412" d="M138.8,153.26a.7.7,0,0,1,1.4,0,.7.7,0,0,1-1.4,0Zm1.315,5.244h-1.239v-3.945h1.239Z"></path>
      <path id="path414" d="M141.6,155.515h-.763v-.956h.763v-1.092l1.239-.253v1.345h1.055v.956h-1.055v1.529c0,.352.138.474.52.474a1.657,1.657,0,0,0,.5-.084v1a3.447,3.447,0,0,1-.849.123c-.932,0-1.415-.428-1.415-1.269Z"></path>
      <path id="path416" d="M144.5,153.26a.7.7,0,0,1,1.4,0,.7.7,0,0,1-1.4,0Zm1.315,5.244H144.58v-3.945h1.238Z"></path>
      <path id="path418" d="M148.662,154.5a2.042,2.042,0,1,1-2.057,2.041A2.009,2.009,0,0,1,148.662,154.5Zm.856,2.041a.864.864,0,1,0-1.705,0,.863.863,0,1,0,1.705,0Z"></path>
      <path id="path420" d="M151.511,154.559h1.239v.642a1.456,1.456,0,0,1,1.246-.7,1.275,1.275,0,0,1,1.307,1.346v2.66h-1.238v-2.3a.657.657,0,0,0-.657-.734.8.8,0,0,0-.658.329V158.5h-1.239Z"></path>
      <path id="path422" d="M158.46,154.559v-.519c0-.941.558-1.453,1.575-1.453a2.808,2.808,0,0,1,.657.077v1.016a2.493,2.493,0,0,0-.474-.045c-.352,0-.52.137-.52.428v.5h.994v.956H159.7V158.5H158.46v-2.989h-.818v-.956Z"></path>
      <path id="path424" d="M161.318,153.26a.7.7,0,0,1,1.4,0,.7.7,0,0,1-1.4,0Zm1.314,5.244h-1.238v-3.945h1.238Z"></path>
      <path id="path426" d="M164.834,158.5H163.6v-5.466l1.239-.191Z"></path>
      <path id="path428" d="M167.7,158.581a2.041,2.041,0,0,1-2.079-2.042,1.979,1.979,0,0,1,1.987-2.048,1.938,1.938,0,0,1,1.942,2.094v.268h-2.714a.947.947,0,0,0,.925.742.977.977,0,0,0,.78-.329l.818.68A2.3,2.3,0,0,1,167.7,158.581Zm-.864-2.431H168.4a.821.821,0,0,0-.8-.7A.783.783,0,0,0,166.836,156.15Z"></path>
      <path id="path430" d="M170.582,157.273a2.543,2.543,0,0,0,1.269.4c.352,0,.566-.122.566-.321,0-.153-.115-.237-.368-.283l-.756-.138c-.765-.145-1.163-.535-1.163-1.146,0-.811.62-1.292,1.652-1.292a3.167,3.167,0,0,1,1.6.451l-.565.787a2.238,2.238,0,0,0-1.132-.336c-.3,0-.474.1-.474.275,0,.16.1.229.406.283l.741.138c.78.145,1.192.542,1.185,1.138.007.773-.726,1.354-1.7,1.354a3.228,3.228,0,0,1-1.812-.482Z"></path>
      <path id="path432" d="M112.05,162.241l.458.55a3.733,3.733,0,0,0,0,6.024l-.458.558a4.362,4.362,0,0,1,0-7.132Z"></path>
      <path id="path434" d="M113.44,162.325h.918v2.255h2.66v-2.255h.917v5.351h-.917v-2.293h-2.66v2.293h-.918Z"></path>
      <path id="path436" d="M118.73,162.325h4.495v.8h-1.781v4.556h-.918V163.12h-1.8Z"></path>
      <path id="path438" d="M123.69,162.325h4.5v.8H126.4v4.556h-.918V163.12h-1.8Z"></path>
      <path id="path440" d="M129.025,162.325h2.393a1.66,1.66,0,1,1,0,3.31h-1.476v2.041h-.917Zm.917.772v1.789h1.33a.9.9,0,1,0,.008-1.789Z"></path>
      <path id="path442" d="M134.215,162.325h1.957a2.676,2.676,0,1,1,0,5.351h-1.957Zm.917.8v3.761H136.2a1.889,1.889,0,0,0,0-3.761Z"></path>
      <path id="path444" d="M140.459,166.927l-.749,2.018h-.635l.512-2.018Z"></path>
      <path id="path446" d="M144.7,162.325h1.062l2.071,5.351h-.986l-.542-1.5h-2.2l-.551,1.5H142.6Zm1.338,3.134-.827-2.278-.84,2.278Z"></path>
      <path id="path448" d="M148.959,167.676l-1.169-5.351h.932l.795,3.921,1.147-3.921h.871l1.147,3.921.8-3.921h.9l-1.168,5.351h-.957l-1.168-4.059-1.17,4.059Z"></path>
      <path id="path450" d="M155.264,166.216a2.677,2.677,0,0,0,1.8.78c.711,0,1.2-.359,1.2-.849,0-.436-.259-.634-.97-.764l-.987-.168c-.925-.169-1.376-.627-1.376-1.361,0-.964.773-1.606,1.973-1.606a3.574,3.574,0,0,1,2.148.7l-.466.688a2.778,2.778,0,0,0-1.712-.619c-.643,0-1.064.321-1.064.757,0,.382.237.581.826.672l.949.169c1.077.183,1.582.657,1.582,1.467,0,.979-.871,1.675-2.149,1.675a3.368,3.368,0,0,1-2.247-.865Z"></path>
      <path id="path452" d="M161.852,166.216a2.677,2.677,0,0,0,1.8.78c.711,0,1.2-.359,1.2-.849,0-.436-.26-.634-.971-.764l-.986-.168c-.925-.169-1.376-.627-1.376-1.361,0-.964.773-1.606,1.973-1.606a3.574,3.574,0,0,1,2.148.7l-.467.688a2.773,2.773,0,0,0-1.711-.619c-.643,0-1.064.321-1.064.757,0,.382.237.581.826.672l.948.169c1.078.183,1.583.657,1.583,1.467,0,.979-.872,1.675-2.149,1.675a3.368,3.368,0,0,1-2.247-.865Z"></path>
      <path id="path454" d="M168.273,167.753a2.691,2.691,0,0,1-1.98-.8l.566-.528a1.752,1.752,0,0,0,1.406.6c.689,0,1.162-.36,1.162-.887a.845.845,0,0,0-.948-.8h-.665v-.7h.6a.776.776,0,0,0,.848-.8.924.924,0,0,0-1.017-.849,1.656,1.656,0,0,0-1.33.635l-.566-.528a2.6,2.6,0,0,1,1.927-.848,1.631,1.631,0,0,1,1.827,1.5,1.286,1.286,0,0,1-1.04,1.223,1.325,1.325,0,0,1,1.208,1.223C170.268,167.1,169.435,167.753,168.273,167.753Z"></path>
      <path id="path456" d="M172.048,166.927l-.749,2.018h-.634l.512-2.018Z"></path>
      <path id="path458" d="M176.451,167.753a1.947,1.947,0,0,1-1.949-1.988,1.886,1.886,0,0,1,1.865-1.98,1.838,1.838,0,0,1,1.811,1.972v.214H175.35a1.17,1.17,0,0,0,1.147,1.048,1.249,1.249,0,0,0,.91-.36l.565.528A2.22,2.22,0,0,1,176.451,167.753Zm-1.086-2.309h2a1.049,1.049,0,0,0-1-.956A1.029,1.029,0,0,0,175.365,165.444Z"></path>
      <path id="path460" d="M179.416,164.534h-.772v-.688h.772v-1.055l.864-.183v1.238h1.07v.688h-1.07v1.942c0,.374.145.52.535.52a1.586,1.586,0,0,0,.52-.092v.726a2.711,2.711,0,0,1-.742.107c-.772,0-1.177-.367-1.177-1.07Z"></path>
      <path id="path462" d="M184.79,166.568l.52.519a1.993,1.993,0,0,1-1.5.666,1.981,1.981,0,0,1,0-3.96,2.06,2.06,0,0,1,1.529.642l-.535.558a1.265,1.265,0,0,0-.963-.451,1.229,1.229,0,0,0,.023,2.446A1.176,1.176,0,0,0,184.79,166.568Z"></path>
      <path id="path464" d="M186.953,167.187a.536.536,0,1,1-.535-.558A.547.547,0,0,1,186.953,167.187Z"></path>
      <path id="path466" d="M188.144,169.373l-.458-.55a3.733,3.733,0,0,0,0-6.024l.458-.558a4.36,4.36,0,0,1,0,7.132Z"></path>
    </g>
    <g id="g530">
      <path id="path470" d="M417.48,153.153h2.6a1.737,1.737,0,0,1,1.888,1.705,1.61,1.61,0,0,1-.994,1.5L422.1,158.5h-1.468l-.97-1.965h-.865V158.5H417.48Zm1.314,1.086v1.269h1.163a.636.636,0,1,0,0-1.269Z"></path>
      <path id="path472" d="M422.776,153.153h1.315v2.079h2.163v-2.079h1.316V158.5h-1.316v-2.117h-2.163V158.5h-1.315Z"></path>
      <path id="path474" d="M432.522,156.738l.864.818a2.74,2.74,0,1,1,.038-3.447l-.886.841a1.558,1.558,0,0,0-1.285-.711,1.583,1.583,0,1,0,1.269,2.5Z"></path>
      <path id="path476" d="M436.587,158.588a2.76,2.76,0,1,1,2.76-2.76A2.736,2.736,0,0,1,436.587,158.588Zm-.007-4.349a1.6,1.6,0,1,0,1.407,1.589A1.471,1.471,0,0,0,436.58,154.239Z"></path>
      <path id="path478" d="M440.508,156.8a2.942,2.942,0,0,0,1.736.711c.565,0,.909-.23.909-.559,0-.313-.184-.459-.7-.558l-1.139-.2a1.419,1.419,0,0,1-1.315-1.43c0-1.04.8-1.69,2.125-1.69a3.633,3.633,0,0,1,2.194.7l-.665.955a2.557,2.557,0,0,0-1.6-.588c-.519,0-.818.214-.818.5,0,.268.176.413.6.482l1.071.183c1,.176,1.528.7,1.528,1.514,0,1.04-.887,1.751-2.285,1.751a3.794,3.794,0,0,1-2.317-.811Z"></path>
      <path id="path480" d="M446.86,153.153h1.315V158.5H446.86Z"></path>
      <path id="path482" d="M449.175,154.559h1.239v.627a1.354,1.354,0,0,1,1.17-.688,1.168,1.168,0,0,1,1.108.734,1.49,1.49,0,0,1,1.292-.734,1.264,1.264,0,0,1,1.238,1.384V158.5h-1.238v-2.377a.591.591,0,0,0-.589-.658.677.677,0,0,0-.573.306V158.5h-1.238v-2.377a.591.591,0,0,0-.589-.658.71.71,0,0,0-.581.306V158.5h-1.239Z"></path>
      <path id="path484" d="M455.97,157.373c0-.726.567-1.147,1.537-1.147a2.582,2.582,0,0,1,.917.183v-.32c0-.383-.252-.574-.779-.574a2.931,2.931,0,0,0-1.108.275l-.429-.863a4.361,4.361,0,0,1,1.811-.429c1.094,0,1.729.543,1.729,1.483V158.5h-1.224v-.344a1.569,1.569,0,0,1-1.092.405A1.228,1.228,0,0,1,455.97,157.373Zm1.743.374a1.346,1.346,0,0,0,.711-.2v-.5a2.985,2.985,0,0,0-.68-.084c-.405,0-.634.137-.634.39S457.332,157.747,457.713,157.747Z"></path>
      <path id="path486" d="M460.4,156.509a1.893,1.893,0,0,1,1.835-1.973,1.369,1.369,0,0,1,1.07.5v-.475h1.215v4c0,1.062-.733,1.651-2.079,1.651a3.769,3.769,0,0,1-1.636-.352l.382-.894a2.8,2.8,0,0,0,1.208.306c.589,0,.894-.245.894-.727v-.565a1.476,1.476,0,0,1-1.146.519A1.869,1.869,0,0,1,460.4,156.509Zm2.156.979a.955.955,0,0,0,.733-.314v-1.315a1,1,0,0,0-.733-.305.921.921,0,0,0-.94.962A.933.933,0,0,0,462.56,157.488Z"></path>
      <path id="path488" d="M467.389,158.581a2.041,2.041,0,0,1-2.079-2.042,1.979,1.979,0,0,1,1.987-2.048,1.939,1.939,0,0,1,1.943,2.094v.268h-2.714a.947.947,0,0,0,.925.742.975.975,0,0,0,.779-.329l.818.68A2.3,2.3,0,0,1,467.389,158.581Zm-.863-2.431h1.567a.82.82,0,0,0-.8-.7A.783.783,0,0,0,466.526,156.15Z"></path>
      <path id="path490" d="M470.271,157.273a2.546,2.546,0,0,0,1.27.4c.351,0,.565-.122.565-.321,0-.153-.114-.237-.367-.283l-.757-.138c-.765-.145-1.162-.535-1.162-1.146,0-.811.619-1.292,1.651-1.292a3.173,3.173,0,0,1,1.606.451l-.566.787a2.232,2.232,0,0,0-1.132-.336c-.3,0-.473.1-.473.275,0,.16.1.229.4.283l.741.138c.781.145,1.193.542,1.186,1.138.007.773-.727,1.354-1.7,1.354a3.232,3.232,0,0,1-1.813-.482Z"></path>
      <path id="path492" d="M404.7,162.241l.458.55a3.733,3.733,0,0,0,0,6.024l-.458.558a4.36,4.36,0,0,1,0-7.132Z"></path>
      <path id="path494" d="M406.086,162.325H407v2.255h2.661v-2.255h.917v5.351h-.917v-2.293H407v2.293h-.918Z"></path>
      <path id="path496" d="M411.377,162.325h4.5v.8H414.09v4.556h-.918V163.12h-1.8Z"></path>
      <path id="path498" d="M416.336,162.325h4.5v.8H419.05v4.556h-.918V163.12h-1.8Z"></path>
      <path id="path500" d="M421.671,162.325h2.393a1.66,1.66,0,1,1,0,3.31h-1.476v2.041h-.917Zm.917.772v1.789h1.33a.9.9,0,1,0,.008-1.789Z"></path>
      <path id="path502" d="M426.862,162.325h1.957a2.676,2.676,0,1,1,0,5.351h-1.957Zm.917.8v3.761h1.062a1.889,1.889,0,0,0,0-3.761Z"></path>
      <path id="path504" d="M433.105,166.927l-.749,2.018h-.635l.513-2.018Z"></path>
      <path id="path506" d="M437.348,162.325h1.063l2.071,5.351H439.5l-.542-1.5h-2.2l-.551,1.5h-.955Zm1.338,3.134-.826-2.278-.841,2.278Z"></path>
      <path id="path508" d="M441.605,167.676l-1.169-5.351h.933l.795,3.921,1.146-3.921h.871l1.148,3.921.8-3.921h.9l-1.169,5.351H444.9l-1.169-4.059-1.17,4.059Z"></path>
      <path id="path510" d="M447.911,166.216a2.673,2.673,0,0,0,1.8.78c.711,0,1.2-.359,1.2-.849,0-.436-.26-.634-.971-.764l-.986-.168c-.925-.169-1.376-.627-1.376-1.361,0-.964.772-1.606,1.972-1.606a3.577,3.577,0,0,1,2.149.7l-.467.688a2.774,2.774,0,0,0-1.712-.619c-.642,0-1.063.321-1.063.757,0,.382.237.581.826.672l.948.169c1.077.183,1.582.657,1.582,1.467,0,.979-.871,1.675-2.148,1.675a3.366,3.366,0,0,1-2.247-.865Z"></path>
      <path id="path512" d="M455.966,162.325h1.063l2.071,5.351h-.986l-.542-1.5h-2.2l-.551,1.5h-.955Zm1.338,3.134-.826-2.278-.841,2.278Z"></path>
      <path id="path514" d="M460.636,163.479v4.2h-.847v-5.351h1.192l1.567,3.241,1.559-3.241H465.3v5.351h-.864V163.5l-1.895,3.792Z"></path>
      <path id="path516" d="M466.544,162.325h.917v5.351h-.917Z"></path>
      <path id="path518" d="M469.563,166.927l-.749,2.018h-.635l.513-2.018Z"></path>
      <path id="path520" d="M473.966,167.753a1.948,1.948,0,0,1-1.949-1.988,1.886,1.886,0,0,1,1.865-1.98,1.838,1.838,0,0,1,1.812,1.972v.214h-2.828a1.169,1.169,0,0,0,1.146,1.048,1.245,1.245,0,0,0,.91-.36l.566.528A2.221,2.221,0,0,1,473.966,167.753Zm-1.086-2.309h2a1.05,1.05,0,0,0-1-.956A1.031,1.031,0,0,0,472.88,165.444Z"></path>
      <path id="path522" d="M476.931,164.534h-.771v-.688h.771v-1.055l.864-.183v1.238h1.071v.688H477.8v1.942c0,.374.146.52.536.52a1.58,1.58,0,0,0,.519-.092v.726a2.709,2.709,0,0,1-.741.107c-.773,0-1.178-.367-1.178-1.07Z"></path>
      <path id="path524" d="M482.3,166.568l.521.519a1.994,1.994,0,0,1-1.5.666,1.981,1.981,0,0,1,0-3.96,2.064,2.064,0,0,1,1.529.642l-.535.558a1.266,1.266,0,0,0-.963-.451,1.228,1.228,0,0,0,.022,2.446A1.174,1.174,0,0,0,482.3,166.568Z"></path>
      <path id="path526" d="M484.467,167.187a.535.535,0,1,1-.535-.558A.547.547,0,0,1,484.467,167.187Z"></path>
      <path id="path528" d="M485.66,169.373l-.458-.55a3.733,3.733,0,0,0,0-6.024l.458-.558a4.362,4.362,0,0,1,0,7.132Z"></path>
    </g>
    <g id="g550">
      <g id="g536">
        <polygon id="polygon532" points="200.455 150.839 194.531 150.839 194.531 144.169 196.012 142.687 200.455 142.687 200.455 150.839" class="cls-2"></polygon>
        <path id="path534" d="M200.456,150.99h-5.925a.151.151,0,0,1-.15-.151v-6.67a.15.15,0,0,1,.044-.106l1.481-1.482a.146.146,0,0,1,.106-.044h4.444a.15.15,0,0,1,.15.15v8.152A.151.151,0,0,1,200.456,150.99Zm-5.774-.3h5.623v-7.852h-4.23l-1.393,1.4Z" class="cls-11"></path>
      </g>
      <path id="path538" d="M196.012,144.32h-1.481a.15.15,0,0,1-.106-.257l1.481-1.482a.15.15,0,0,1,.257.106v1.482A.152.152,0,0,1,196.012,144.32Zm-1.118-.3h.968v-.969Z" class="cls-11"></path>
      <path id="path540" d="M197.493,145.431h-1.851a.15.15,0,0,1,0-.3h1.851a.15.15,0,1,1,0,.3Z" class="cls-11"></path>
      <path id="path542" d="M199.345,146.543h-3.7a.151.151,0,0,1,0-.3h3.7a.151.151,0,0,1,0,.3Z" class="cls-11"></path>
      <path id="path544" d="M199.345,147.655h-3.7a.151.151,0,0,1,0-.3h3.7a.151.151,0,0,1,0,.3Z" class="cls-11"></path>
      <path id="path546" d="M199.345,148.766h-3.7a.15.15,0,0,1,0-.3h3.7a.15.15,0,0,1,0,.3Z" class="cls-11"></path>
      <rect id="rect548" height="12.815" width="11.04" y="140.355" x="191.973" class="cls-14"></rect>
    </g>
    <g id="g570">
      <g id="g556">
        <polygon id="polygon552" points="495.537 150.839 489.612 150.839 489.612 144.169 491.093 142.687 495.537 142.687 495.537 150.839" class="cls-2"></polygon>
        <path id="path554" d="M495.537,150.99h-5.925a.151.151,0,0,1-.15-.151v-6.67a.15.15,0,0,1,.044-.106l1.481-1.482a.146.146,0,0,1,.106-.044h4.444a.15.15,0,0,1,.15.15v8.152A.151.151,0,0,1,495.537,150.99Zm-5.774-.3h5.623v-7.852h-4.23l-1.393,1.4Z" class="cls-11"></path>
      </g>
      <path id="path558" d="M491.093,144.32h-1.481a.15.15,0,0,1-.106-.257l1.481-1.482a.15.15,0,0,1,.257.106v1.482A.152.152,0,0,1,491.093,144.32Zm-1.118-.3h.968v-.969Z" class="cls-11"></path>
      <path id="path560" d="M492.574,145.431h-1.851a.15.15,0,1,1,0-.3h1.851a.15.15,0,1,1,0,.3Z" class="cls-11"></path>
      <path id="path562" d="M494.426,146.543h-3.7a.151.151,0,0,1,0-.3h3.7a.151.151,0,0,1,0,.3Z" class="cls-11"></path>
      <path id="path564" d="M494.426,147.655h-3.7a.151.151,0,0,1,0-.3h3.7a.151.151,0,0,1,0,.3Z" class="cls-11"></path>
      <path id="path566" d="M494.426,148.766h-3.7a.15.15,0,0,1,0-.3h3.7a.15.15,0,0,1,0,.3Z" class="cls-11"></path>
      <rect id="rect568" height="12.815" width="11.04" y="140.355" x="487.055" class="cls-13"></rect>
    </g>
  </g>
  <circle id="circle574" r="5.58" cy="76.365" cx="307.516" class="cls-9"></circle>
  <path id="path576" d="M308.842,76.593h.543v.857h-.543v1.028h-1.007V77.45h-2.449v-.831l2.279-2.723h1.177Zm-1.007,0V74.9l-1.4,1.689Z" class="cls-2"></path>
  <g id="g582">
    <line id="line578" y2="160.973" x2="235.619" y1="160.973" x1="207.497" class="cls-16"></line>
    <polygon id="polygon580" points="234.524 164.713 241 160.973 234.524 157.234 234.524 164.713" class="cls-17"></polygon>
  </g>
  <g id="g588">
    <line id="line584" y2="160.973" x2="359.657" y1="160.973" x1="387.778" class="cls-18"></line>
    <polygon id="polygon586" points="360.751 157.234 354.275 160.973 360.751 164.713 360.751 157.234" class="cls-5"></polygon>
  </g>
  <g id="g594">
    <polyline id="polyline590" points="297.638 535.053 297.638 500.606 297.638 211.437" class="cls-19"></polyline>
    <polygon id="polygon592" points="301.377 212.531 297.638 206.055 293.898 212.531 301.377 212.531" class="cls-20"></polygon>
  </g>
</svg>
