<svg id="Layer_1" data-name="Layer 1" xmlns="http://www.w3.org/2000/svg" width="210mm" height="226.367mm" viewBox="0 0 595.276 641.671">
  <defs>
    <style>
      .cls-1 {
        fill: #f0f0f0;
      }

      .cls-2 {
        fill: #06c;
      }

      .cls-12, .cls-3, .cls-6 {
        fill: #fff;
      }

      .cls-10, .cls-11, .cls-4, .cls-8 {
        fill: none;
      }

      .cls-4 {
        stroke: #151515;
      }

      .cls-10, .cls-11, .cls-12, .cls-4, .cls-6, .cls-8 {
        stroke-miterlimit: 10;
      }

      .cls-5 {
        fill: #151515;
      }

      .cls-12, .cls-6 {
        stroke: #dcdcdc;
      }

      .cls-6 {
        stroke-width: 0.75px;
      }

      .cls-7 {
        fill: #5b5b5b;
      }

      .cls-8 {
        stroke: #3f9c35;
      }

      .cls-10, .cls-11, .cls-8 {
        stroke-width: 0.5px;
      }

      .cls-9 {
        fill: #1d1d1b;
      }

      .cls-10 {
        stroke: #06c;
      }

      .cls-11 {
        stroke: #be1818;
      }
    </style>
  </defs>
  <rect class="cls-1" x="50.766" y="79.859" width="493.743" height="519.861"></rect>
  <rect class="cls-2" x="240.002" y="20.015" width="115.271" height="46.185"></rect>
  <g>
    <path class="cls-3" d="M266.841,45.309a2.76,2.76,0,1,1,2.76-2.76A2.736,2.736,0,0,1,266.841,45.309Zm-.007-4.35a1.6,1.6,0,1,0,1.407,1.59A1.471,1.471,0,0,0,266.834,40.959Z"></path>
    <path class="cls-3" d="M270.425,41.28h1.224v.551a1.454,1.454,0,0,1,1.169-.574,1.879,1.879,0,0,1,1.743,2,1.9,1.9,0,0,1-1.835,1.988,1.373,1.373,0,0,1-1.062-.459v2.079h-1.239Zm1.239,1.323v1.315a1.014,1.014,0,0,0,.742.313.975.975,0,0,0,0-1.949A.957.957,0,0,0,271.664,42.6Z"></path>
    <path class="cls-3" d="M277.289,45.3a2.04,2.04,0,0,1-2.079-2.042,1.979,1.979,0,0,1,1.987-2.049,1.939,1.939,0,0,1,1.942,2.095v.268h-2.714a.947.947,0,0,0,.925.741.976.976,0,0,0,.779-.328l.819.68A2.3,2.3,0,0,1,277.289,45.3Zm-.864-2.432h1.568a.822.822,0,0,0-.8-.7A.782.782,0,0,0,276.425,42.87Z"></path>
    <path class="cls-3" d="M279.911,41.28h1.238v.642a1.457,1.457,0,0,1,1.246-.7,1.275,1.275,0,0,1,1.308,1.346v2.66h-1.239v-2.3a.656.656,0,0,0-.657-.734.8.8,0,0,0-.658.329v2.706h-1.238Z"></path>
    <path class="cls-3" d="M284.971,43.52a2.933,2.933,0,0,0,1.736.711c.565,0,.909-.229.909-.558,0-.313-.184-.459-.7-.558l-1.139-.2a1.417,1.417,0,0,1-1.315-1.429c0-1.04.794-1.69,2.125-1.69a3.639,3.639,0,0,1,2.194.7l-.665.956a2.552,2.552,0,0,0-1.6-.589c-.519,0-.818.214-.818.505,0,.267.176.413.6.482l1.071.183c1,.176,1.528.7,1.528,1.514,0,1.04-.887,1.751-2.285,1.751a3.8,3.8,0,0,1-2.317-.811Z"></path>
    <path class="cls-3" d="M289.64,39.759l1.238-.191v2.354a1.459,1.459,0,0,1,1.247-.7,1.275,1.275,0,0,1,1.307,1.346v2.66h-1.238v-2.3a.657.657,0,0,0-.657-.734.8.8,0,0,0-.659.329v2.706H289.64Z"></path>
    <path class="cls-3" d="M294.288,39.981a.7.7,0,0,1,1.4,0,.7.7,0,0,1-1.4,0Zm1.314,5.244h-1.238V41.28H295.6Z"></path>
    <path class="cls-3" d="M297.146,41.28v-.519c0-.941.559-1.453,1.575-1.453a2.808,2.808,0,0,1,.657.077V40.4a2.493,2.493,0,0,0-.473-.046c-.353,0-.521.138-.521.429v.5h.994v.956h-.994v2.989h-1.238V42.236h-.818V41.28Z"></path>
    <path class="cls-3" d="M300.676,42.236h-.763V41.28h.763V40.187l1.24-.252V41.28h1.054v.956h-1.054v1.529c0,.352.137.474.519.474a1.685,1.685,0,0,0,.5-.084v1a3.447,3.447,0,0,1-.849.123c-.932,0-1.415-.429-1.415-1.269Z"></path>
    <path class="cls-3" d="M305.339,39.874h1.316v5.351h-1.316Z"></path>
    <path class="cls-3" d="M307.655,41.28h1.238v.642a1.457,1.457,0,0,1,1.246-.7,1.275,1.275,0,0,1,1.308,1.346v2.66h-1.238v-2.3a.657.657,0,0,0-.658-.734.8.8,0,0,0-.658.329v2.706h-1.238Z"></path>
    <path class="cls-3" d="M312.6,43.994a2.556,2.556,0,0,0,1.27.4c.351,0,.565-.122.565-.32,0-.153-.114-.237-.367-.283l-.757-.138c-.765-.145-1.162-.535-1.162-1.147,0-.81.619-1.292,1.651-1.292a3.183,3.183,0,0,1,1.606.451l-.566.788a2.231,2.231,0,0,0-1.131-.336c-.3,0-.474.1-.474.275,0,.16.1.229.4.283l.741.137c.781.145,1.193.543,1.185,1.139.008.773-.726,1.354-1.7,1.354a3.232,3.232,0,0,1-1.813-.482Z"></path>
    <path class="cls-3" d="M316.727,42.236h-.764V41.28h.764V40.187l1.239-.252V41.28h1.055v.956h-1.055v1.529c0,.352.138.474.52.474a1.689,1.689,0,0,0,.5-.084v1a3.447,3.447,0,0,1-.849.123c-.932,0-1.415-.429-1.415-1.269Z"></path>
    <path class="cls-3" d="M319.525,44.094c0-.727.566-1.147,1.537-1.147a2.568,2.568,0,0,1,.917.183v-.321c0-.382-.252-.573-.779-.573a2.935,2.935,0,0,0-1.109.275l-.428-.864a4.375,4.375,0,0,1,1.811-.428c1.094,0,1.729.543,1.729,1.483v2.523h-1.224v-.344a1.573,1.573,0,0,1-1.093.405A1.228,1.228,0,0,1,319.525,44.094Zm1.743.374a1.346,1.346,0,0,0,.711-.2v-.5a2.933,2.933,0,0,0-.681-.085c-.4,0-.633.138-.633.391S320.886,44.468,321.268,44.468Z"></path>
    <path class="cls-3" d="M325.372,45.225h-1.239V39.759l1.239-.191Z"></path>
    <path class="cls-3" d="M327.573,45.225h-1.238V39.759l1.238-.191Z"></path>
    <path class="cls-3" d="M330.44,45.3a2.041,2.041,0,0,1-2.079-2.042,1.979,1.979,0,0,1,1.987-2.049,1.939,1.939,0,0,1,1.943,2.095v.268h-2.714a.945.945,0,0,0,.925.741.977.977,0,0,0,.779-.328l.818.68A2.3,2.3,0,0,1,330.44,45.3Zm-.863-2.432h1.567a.821.821,0,0,0-.8-.7A.782.782,0,0,0,329.577,42.87Z"></path>
    <path class="cls-3" d="M333.061,41.28H334.3v.895c.253-.658.605-.971,1.071-.971a.849.849,0,0,1,.413.1v1.063a1.352,1.352,0,0,0-.581-.123,1.092,1.092,0,0,0-.9.49v2.492h-1.238Z"></path>
  </g>
  <rect class="cls-1" x="221.676" y="515.243" width="4.574" height="6.318"></rect>
  <g>
    <polyline class="cls-4" points="297.979 66.2 297.979 271.788 213.114 271.788"></polyline>
    <polygon class="cls-5" points="214.209 268.049 207.733 271.788 214.209 275.528 214.209 268.049"></polygon>
  </g>
  <g>
    <rect class="cls-6" x="240.002" y="535.053" width="115.271" height="50.839"></rect>
    <g>
      <path d="M268.943,556.238l.864.817a2.74,2.74,0,1,1,.038-3.447l-.886.841a1.559,1.559,0,0,0-1.285-.711,1.583,1.583,0,1,0,1.269,2.5Z"></path>
      <path d="M272.26,554a2.041,2.041,0,1,1-2.056,2.041A2.008,2.008,0,0,1,272.26,554Zm.857,2.041a.864.864,0,1,0-1.705,0,.863.863,0,1,0,1.705,0Z"></path>
      <path d="M275.11,554.059h1.238v.641a1.458,1.458,0,0,1,1.246-.7,1.276,1.276,0,0,1,1.308,1.346V558h-1.238v-2.3a.657.657,0,0,0-.658-.734.8.8,0,0,0-.658.329V558H275.11Z"></path>
      <path d="M280.239,555.014h-.764v-.955h.764v-1.094l1.239-.252v1.346h1.055v.955h-1.055v1.529c0,.352.138.474.52.474a1.652,1.652,0,0,0,.5-.084v1a3.479,3.479,0,0,1-.848.122c-.933,0-1.415-.429-1.415-1.27Z"></path>
      <path d="M283.036,556.871c0-.725.566-1.146,1.537-1.146a2.572,2.572,0,0,1,.917.184v-.322c0-.382-.252-.573-.78-.573a2.935,2.935,0,0,0-1.108.275l-.429-.864a4.383,4.383,0,0,1,1.812-.428c1.094,0,1.728.543,1.728,1.484V558H285.49v-.344a1.57,1.57,0,0,1-1.093.406A1.228,1.228,0,0,1,283.036,556.871Zm1.743.375a1.337,1.337,0,0,0,.711-.2v-.5a2.993,2.993,0,0,0-.681-.084c-.4,0-.634.138-.634.39S284.4,557.246,284.779,557.246Z"></path>
      <path d="M287.569,552.759a.7.7,0,0,1,1.4,0,.7.7,0,0,1-1.4,0ZM288.883,558h-1.238v-3.944h1.238Z"></path>
      <path d="M289.846,554.059h1.239v.641a1.456,1.456,0,0,1,1.246-.7,1.276,1.276,0,0,1,1.307,1.346V558H292.4v-2.3a.657.657,0,0,0-.657-.734.8.8,0,0,0-.658.329V558h-1.239Z"></path>
      <path d="M296.473,558.079a2.04,2.04,0,0,1-2.079-2.041,1.979,1.979,0,0,1,1.987-2.048,1.939,1.939,0,0,1,1.943,2.094v.268H295.61a.946.946,0,0,0,.925.741.974.974,0,0,0,.779-.328l.818.681A2.3,2.3,0,0,1,296.473,558.079Zm-.863-2.43h1.567a.821.821,0,0,0-.8-.7A.783.783,0,0,0,295.61,555.649Z"></path>
      <path d="M299.094,554.059h1.239v.894c.252-.658.6-.971,1.07-.971a.854.854,0,0,1,.413.1v1.063a1.364,1.364,0,0,0-.581-.122,1.09,1.09,0,0,0-.9.489V558h-1.239Z"></path>
      <path d="M304.154,552.652h1.315V558h-1.315Z"></path>
      <path d="M306.47,554.059h1.239v.627a1.355,1.355,0,0,1,1.169-.689,1.17,1.17,0,0,1,1.109.735,1.489,1.489,0,0,1,1.292-.735,1.264,1.264,0,0,1,1.238,1.384V558h-1.238v-2.378a.59.59,0,0,0-.589-.657.676.676,0,0,0-.573.306V558h-1.239v-2.378a.59.59,0,0,0-.588-.657.71.71,0,0,0-.581.306V558H306.47Z"></path>
      <path d="M313.265,556.871c0-.725.567-1.146,1.537-1.146a2.564,2.564,0,0,1,.917.184v-.322c0-.382-.252-.573-.779-.573a2.931,2.931,0,0,0-1.108.275l-.429-.864a4.375,4.375,0,0,1,1.811-.428c1.094,0,1.729.543,1.729,1.484V558h-1.224v-.344a1.568,1.568,0,0,1-1.092.406A1.229,1.229,0,0,1,313.265,556.871Zm1.743.375a1.337,1.337,0,0,0,.711-.2v-.5a2.985,2.985,0,0,0-.68-.084c-.4,0-.634.138-.634.39S314.627,557.246,315.008,557.246Z"></path>
      <path d="M317.7,556.008a1.894,1.894,0,0,1,1.835-1.973,1.371,1.371,0,0,1,1.07.5v-.474h1.215v4c0,1.062-.733,1.651-2.079,1.651a3.8,3.8,0,0,1-1.636-.351l.382-.895a2.8,2.8,0,0,0,1.208.306c.589,0,.894-.245.894-.727v-.565a1.476,1.476,0,0,1-1.146.519A1.869,1.869,0,0,1,317.7,556.008Zm2.156.979a.959.959,0,0,0,.733-.314v-1.315a1,1,0,0,0-.733-.306.922.922,0,0,0-.94.964A.933.933,0,0,0,319.854,556.987Z"></path>
      <path d="M324.684,558.079a2.04,2.04,0,0,1-2.079-2.041,1.978,1.978,0,0,1,1.987-2.048,1.939,1.939,0,0,1,1.943,2.094v.268h-2.714a.945.945,0,0,0,.925.741.974.974,0,0,0,.779-.328l.818.681A2.3,2.3,0,0,1,324.684,558.079Zm-.863-2.43h1.567a.821.821,0,0,0-.8-.7A.782.782,0,0,0,323.821,555.649Z"></path>
      <path d="M327.565,556.773a2.553,2.553,0,0,0,1.27.4c.351,0,.565-.123.565-.321,0-.153-.114-.237-.367-.283l-.757-.138c-.765-.144-1.162-.535-1.162-1.146,0-.811.619-1.292,1.651-1.292a3.173,3.173,0,0,1,1.606.451l-.566.787a2.232,2.232,0,0,0-1.132-.336c-.3,0-.473.1-.473.275,0,.16.1.23.405.283l.741.137c.781.146,1.193.543,1.185,1.14.008.771-.726,1.352-1.7,1.352a3.231,3.231,0,0,1-1.813-.481Z"></path>
      <path d="M281.921,561.74l.458.55a3.733,3.733,0,0,0,0,6.024l-.458.558a4.362,4.362,0,0,1,0-7.132Z"></path>
      <path d="M283.35,561.824h2.377a1.631,1.631,0,0,1,1.789,1.621,1.521,1.521,0,0,1-1.055,1.467l1.124,2.263h-1.017l-1.032-2.141h-1.269v2.141h-.917Zm.917.772V564.3h1.384a.857.857,0,1,0,0-1.705Z"></path>
      <path d="M289.961,567.251a1.947,1.947,0,0,1-1.949-1.987,1.886,1.886,0,0,1,1.865-1.98,1.838,1.838,0,0,1,1.812,1.972v.214h-2.828a1.168,1.168,0,0,0,1.146,1.048,1.249,1.249,0,0,0,.911-.359l.565.527A2.22,2.22,0,0,1,289.961,567.251Zm-1.084-2.308h2a1.049,1.049,0,0,0-1-.955A1.027,1.027,0,0,0,288.877,564.943Z"></path>
      <path d="M292.415,565.256a1.848,1.848,0,0,1,1.789-1.941,1.441,1.441,0,0,1,1.123.519v-.489h.856v3.96c0,.986-.641,1.529-1.8,1.529a3.33,3.33,0,0,1-1.537-.367l.306-.642a2.618,2.618,0,0,0,1.193.329c.642,0,.979-.29.979-.849v-.649a1.488,1.488,0,0,1-1.17.542A1.835,1.835,0,0,1,292.415,565.256Zm2,1.224a1.149,1.149,0,0,0,.91-.421v-1.606a1.193,1.193,0,0,0-.91-.413,1.143,1.143,0,0,0-1.139,1.216A1.159,1.159,0,0,0,294.41,566.48Z"></path>
      <path d="M297.138,562.037a.539.539,0,0,1,1.078,0,.539.539,0,0,1-1.078,0Zm.972,5.138h-.864v-3.83h.864Z"></path>
      <path d="M299.233,566.151a2.207,2.207,0,0,0,1.23.435c.459,0,.773-.206.773-.511,0-.238-.161-.368-.528-.436l-.68-.115c-.742-.138-1.109-.482-1.109-1.055,0-.719.588-1.185,1.483-1.185a2.7,2.7,0,0,1,1.506.458l-.405.566a2.094,2.094,0,0,0-1.154-.366c-.4,0-.658.168-.658.451,0,.244.138.351.543.42l.673.122c.764.145,1.132.5,1.132,1.07a1.4,1.4,0,0,1-1.56,1.246,2.57,2.57,0,0,1-1.651-.519Z"></path>
      <path d="M303.23,564.034h-.771v-.689h.771V562.29l.864-.183v1.238h1.071v.689h-1.071v1.941c0,.375.146.519.535.519a1.581,1.581,0,0,0,.52-.091v.726a2.711,2.711,0,0,1-.741.108c-.773,0-1.178-.368-1.178-1.071Z"></path>
      <path d="M305.92,563.345h.865v.833a1.135,1.135,0,0,1,1.054-.9.991.991,0,0,1,.374.076v.757a1.2,1.2,0,0,0-.473-.092,1.049,1.049,0,0,0-.955.635v2.522h-.865Z"></path>
      <path d="M309.979,567.2l-1.445-3.853h.964l.97,2.844,1.071-2.844h.94L310.66,567.8a1.3,1.3,0,0,1-1.362,1.009,1.788,1.788,0,0,1-.435-.054v-.741a3.059,3.059,0,0,0,.336.03.611.611,0,0,0,.62-.443Z"></path>
      <path d="M313.357,568.872l-.458-.55a3.733,3.733,0,0,0,0-6.024l.458-.558a4.36,4.36,0,0,1,0,7.132Z"></path>
    </g>
    <g>
      <g>
        <polygon class="cls-3" points="348.393 549.733 342.469 549.733 342.469 543.063 343.95 541.581 348.393 541.581 348.393 549.733"></polygon>
        <path class="cls-7" d="M348.393,549.884h-5.924a.151.151,0,0,1-.15-.151v-6.67a.146.146,0,0,1,.044-.106l1.481-1.483a.15.15,0,0,1,.106-.044h4.443a.152.152,0,0,1,.151.151v8.152A.152.152,0,0,1,348.393,549.884Zm-5.774-.3h5.624v-7.852h-4.231l-1.393,1.394Z"></path>
      </g>
      <path class="cls-7" d="M343.95,543.213h-1.481a.15.15,0,0,1-.106-.256l1.481-1.483a.151.151,0,0,1,.257.107v1.482A.151.151,0,0,1,343.95,543.213Zm-1.118-.3h.968v-.969Z"></path>
      <path class="cls-7" d="M345.431,544.325H343.58a.151.151,0,1,1,0-.3h1.851a.151.151,0,1,1,0,.3Z"></path>
      <path class="cls-7" d="M347.283,545.437h-3.7a.151.151,0,1,1,0-.3h3.7a.151.151,0,0,1,0,.3Z"></path>
      <path class="cls-7" d="M347.283,546.548h-3.7a.15.15,0,1,1,0-.3h3.7a.15.15,0,0,1,0,.3Z"></path>
      <path class="cls-7" d="M347.283,547.66h-3.7a.151.151,0,1,1,0-.3h3.7a.151.151,0,0,1,0,.3Z"></path>
      <rect class="cls-8" x="339.911" y="539.249" width="11.04" height="12.815"></rect>
    </g>
  </g>
  <g>
    <g>
      <path class="cls-9" d="M67.241,610.357h2.377a1.632,1.632,0,0,1,1.789,1.621,1.523,1.523,0,0,1-1.055,1.468l1.123,2.262H70.459l-1.033-2.14H68.158v2.14h-.917Zm.917.772v1.7h1.384a.857.857,0,1,0,0-1.7Z"></path>
      <path class="cls-9" d="M72.338,610.357h.918v2.256h2.661v-2.256h.917v5.351h-.917v-2.293H73.256v2.293h-.918Z"></path>
      <path class="cls-9" d="M82.053,614.263l.605.581a2.747,2.747,0,1,1,.022-3.623l-.619.611a1.883,1.883,0,1,0-1.437,3.127A1.813,1.813,0,0,0,82.053,614.263Z"></path>
      <path class="cls-9" d="M85.951,615.792a2.76,2.76,0,1,1,2.706-2.759A2.708,2.708,0,0,1,85.951,615.792Zm.008-4.7a1.946,1.946,0,0,0,0,3.876,1.947,1.947,0,0,0,0-3.876Z"></path>
      <path class="cls-9" d="M89.727,614.248a2.677,2.677,0,0,0,1.8.78c.711,0,1.2-.36,1.2-.849,0-.436-.26-.634-.971-.764l-.986-.169c-.925-.168-1.376-.627-1.376-1.36,0-.963.773-1.605,1.973-1.605a3.58,3.58,0,0,1,2.148.7l-.467.688a2.773,2.773,0,0,0-1.711-.619c-.643,0-1.063.322-1.063.757,0,.382.236.581.825.673l.948.168c1.078.183,1.583.657,1.583,1.468,0,.978-.872,1.673-2.149,1.673a3.371,3.371,0,0,1-2.247-.863Z"></path>
      <path class="cls-9" d="M96.231,610.357h.917v5.351h-.917Z"></path>
      <path class="cls-9" d="M98.287,611.878h.864v.612a1.3,1.3,0,0,1,1.139-.673,1.207,1.207,0,0,1,1.124.742,1.411,1.411,0,0,1,1.268-.742,1.27,1.27,0,0,1,1.254,1.391v2.5h-.864v-2.316a.775.775,0,0,0-.772-.879.91.91,0,0,0-.772.451c.008.084.015.16.015.244v2.5h-.864v-2.316a.775.775,0,0,0-.771-.879.888.888,0,0,0-.757.436v2.759h-.864Z"></path>
      <path class="cls-9" d="M104.791,614.608c0-.689.558-1.124,1.46-1.124a2.361,2.361,0,0,1,1.032.237V613.3c0-.5-.29-.765-.879-.765a2.642,2.642,0,0,0-1.116.3l-.306-.627a3.684,3.684,0,0,1,1.59-.39c.994,0,1.567.5,1.567,1.391v2.5h-.856v-.389a1.6,1.6,0,0,1-1.139.451A1.208,1.208,0,0,1,104.791,614.608Zm1.59.557a1.366,1.366,0,0,0,.9-.313v-.627a1.983,1.983,0,0,0-.887-.184c-.489,0-.8.215-.8.551C105.6,614.944,105.907,615.165,106.381,615.165Z"></path>
      <path class="cls-9" d="M109.01,613.789a1.848,1.848,0,0,1,1.789-1.941,1.441,1.441,0,0,1,1.123.519v-.489h.857v3.96c0,.987-.642,1.529-1.8,1.529a3.314,3.314,0,0,1-1.537-.367l.306-.642a2.614,2.614,0,0,0,1.193.329c.642,0,.979-.29.979-.849v-.649a1.49,1.49,0,0,1-1.17.542A1.836,1.836,0,0,1,109.01,613.789Zm1.995,1.224a1.149,1.149,0,0,0,.911-.421v-1.605a1.19,1.19,0,0,0-.911-.413,1.142,1.142,0,0,0-1.138,1.215A1.158,1.158,0,0,0,111.005,615.013Z"></path>
      <path class="cls-9" d="M115.614,615.784a1.946,1.946,0,0,1-1.949-1.987,1.886,1.886,0,0,1,1.865-1.98,1.838,1.838,0,0,1,1.811,1.972V614h-2.828a1.169,1.169,0,0,0,1.147,1.048,1.248,1.248,0,0,0,.91-.359l.565.527A2.215,2.215,0,0,1,115.614,615.784Zm-1.086-2.308h2a1.048,1.048,0,0,0-1-.955A1.028,1.028,0,0,0,114.528,613.476Z"></path>
      <path class="cls-9" d="M118.32,614.684a2.207,2.207,0,0,0,1.23.435c.459,0,.773-.206.773-.511,0-.238-.161-.367-.529-.436l-.679-.115c-.742-.138-1.109-.482-1.109-1.055,0-.718.588-1.185,1.483-1.185a2.693,2.693,0,0,1,1.506.459l-.405.565a2.094,2.094,0,0,0-1.154-.366c-.4,0-.658.168-.658.451,0,.244.138.352.543.42l.673.122c.764.146,1.132.5,1.132,1.07a1.4,1.4,0,0,1-1.56,1.246,2.57,2.57,0,0,1-1.651-.519Z"></path>
    </g>
    <g>
      <path class="cls-9" d="M159.034,610.357h.917v5.351h-.917Z"></path>
      <path class="cls-9" d="M160.914,613.789a1.848,1.848,0,0,1,1.789-1.941,1.444,1.444,0,0,1,1.123.519v-.489h.856v3.96c0,.987-.641,1.529-1.8,1.529a3.32,3.32,0,0,1-1.537-.367l.306-.642a2.618,2.618,0,0,0,1.193.329c.642,0,.979-.29.979-.849v-.649a1.488,1.488,0,0,1-1.17.542A1.835,1.835,0,0,1,160.914,613.789Zm2,1.224a1.149,1.149,0,0,0,.91-.421v-1.605a1.19,1.19,0,0,0-.91-.413,1.142,1.142,0,0,0-1.139,1.215A1.158,1.158,0,0,0,162.909,615.013Z"></path>
      <path class="cls-9" d="M165.744,611.878h.864v.627a1.389,1.389,0,0,1,1.215-.688,1.289,1.289,0,0,1,1.322,1.369v2.522h-.863V613.43a.825.825,0,0,0-.841-.917.979.979,0,0,0-.833.459v2.736h-.864Z"></path>
      <path class="cls-9" d="M170.085,610.571a.539.539,0,0,1,1.078,0,.539.539,0,0,1-1.078,0Zm.971,5.137h-.864v-3.83h.864Z"></path>
      <path class="cls-9" d="M172.592,612.567h-.771v-.689h.771v-1.054l.865-.184v1.238h1.07v.689h-1.07v1.941c0,.375.145.52.535.52a1.576,1.576,0,0,0,.519-.092v.726a2.7,2.7,0,0,1-.741.108c-.772,0-1.178-.367-1.178-1.07Z"></path>
      <path class="cls-9" d="M175.175,610.571a.539.539,0,0,1,1.078,0,.539.539,0,0,1-1.078,0Zm.972,5.137h-.864v-3.83h.864Z"></path>
      <path class="cls-9" d="M178.96,611.817a1.984,1.984,0,1,1-1.927,1.98A1.912,1.912,0,0,1,178.96,611.817Zm1.07,1.988a1.083,1.083,0,1,0-2.141,0,1.081,1.081,0,1,0,2.141,0Z"></path>
      <path class="cls-9" d="M181.779,611.878h.864v.627a1.389,1.389,0,0,1,1.215-.688,1.289,1.289,0,0,1,1.322,1.369v2.522h-.863V613.43a.825.825,0,0,0-.841-.917.979.979,0,0,0-.833.459v2.736h-.864Z"></path>
      <path class="cls-9" d="M190.683,614.6l.521.519a1.991,1.991,0,0,1-1.5.665,1.98,1.98,0,0,1,0-3.959,2.064,2.064,0,0,1,1.529.642l-.535.558a1.268,1.268,0,0,0-.963-.451,1.229,1.229,0,0,0,.022,2.446A1.174,1.174,0,0,0,190.683,614.6Z"></path>
      <path class="cls-9" d="M193.581,611.817a1.984,1.984,0,1,1-1.927,1.98A1.912,1.912,0,0,1,193.581,611.817Zm1.07,1.988a1.083,1.083,0,1,0-2.141,0,1.081,1.081,0,1,0,2.141,0Z"></path>
      <path class="cls-9" d="M196.4,611.878h.864v.627a1.389,1.389,0,0,1,1.215-.688,1.289,1.289,0,0,1,1.322,1.369v2.522h-.863V613.43a.825.825,0,0,0-.841-.917.979.979,0,0,0-.833.459v2.736H196.4Z"></path>
      <path class="cls-9" d="M201.253,611.878v-.68a1.177,1.177,0,0,1,1.324-1.285,2.077,2.077,0,0,1,.573.078v.733a1.764,1.764,0,0,0-.459-.062c-.4,0-.573.176-.573.551v.665h1.032v.689h-1.032v3.141h-.865v-3.141h-.825v-.689Z"></path>
      <path class="cls-9" d="M203.768,610.571a.539.539,0,0,1,1.078,0,.539.539,0,0,1-1.078,0Zm.972,5.137h-.864v-3.83h.864Z"></path>
      <path class="cls-9" d="M205.626,613.789a1.848,1.848,0,0,1,1.789-1.941,1.444,1.444,0,0,1,1.123.519v-.489h.856v3.96c0,.987-.642,1.529-1.8,1.529a3.317,3.317,0,0,1-1.537-.367l.306-.642a2.614,2.614,0,0,0,1.193.329c.642,0,.979-.29.979-.849v-.649a1.488,1.488,0,0,1-1.17.542A1.835,1.835,0,0,1,205.626,613.789Zm2,1.224a1.149,1.149,0,0,0,.91-.421v-1.605a1.19,1.19,0,0,0-.91-.413,1.142,1.142,0,0,0-1.139,1.215A1.158,1.158,0,0,0,207.621,615.013Z"></path>
      <path class="cls-9" d="M212.7,611.878v-.68a1.176,1.176,0,0,1,1.323-1.285,2.072,2.072,0,0,1,.573.078v.733a1.759,1.759,0,0,0-.459-.062c-.4,0-.573.176-.573.551v.665h1.032v.689H213.56v3.141H212.7v-3.141h-.825v-.689Z"></path>
      <path class="cls-9" d="M215.21,610.571a.539.539,0,0,1,1.078,0,.539.539,0,0,1-1.078,0Zm.971,5.137h-.864v-3.83h.864Z"></path>
      <path class="cls-9" d="M218.108,615.708h-.864v-5.466l.864-.145Z"></path>
      <path class="cls-9" d="M220.943,615.784a1.946,1.946,0,0,1-1.949-1.987,1.886,1.886,0,0,1,1.865-1.98,1.838,1.838,0,0,1,1.811,1.972V614h-2.828a1.169,1.169,0,0,0,1.147,1.048,1.248,1.248,0,0,0,.91-.359l.565.527A2.211,2.211,0,0,1,220.943,615.784Zm-1.085-2.308h2a1.048,1.048,0,0,0-1-.955A1.027,1.027,0,0,0,219.858,613.476Z"></path>
      <path class="cls-9" d="M223.649,614.684a2.207,2.207,0,0,0,1.23.435c.459,0,.773-.206.773-.511,0-.238-.161-.367-.528-.436l-.68-.115c-.742-.138-1.109-.482-1.109-1.055,0-.718.588-1.185,1.483-1.185a2.691,2.691,0,0,1,1.506.459l-.405.565a2.1,2.1,0,0,0-1.155-.366c-.4,0-.657.168-.657.451,0,.244.138.352.543.42l.673.122c.764.146,1.132.5,1.132,1.07a1.4,1.4,0,0,1-1.56,1.246,2.57,2.57,0,0,1-1.651-.519Z"></path>
    </g>
    <g>
      <path class="cls-9" d="M265.14,614.263l.605.581a2.747,2.747,0,1,1,.022-3.623l-.619.611a1.883,1.883,0,1,0-1.438,3.127A1.814,1.814,0,0,0,265.14,614.263Z"></path>
      <path class="cls-9" d="M268.22,611.817a1.984,1.984,0,1,1-1.927,1.98A1.912,1.912,0,0,1,268.22,611.817Zm1.071,1.988a1.083,1.083,0,1,0-2.141,0,1.081,1.081,0,1,0,2.141,0Z"></path>
      <path class="cls-9" d="M271.041,611.878h.864v.627a1.389,1.389,0,0,1,1.215-.688,1.289,1.289,0,0,1,1.322,1.369v2.522h-.863V613.43a.825.825,0,0,0-.841-.917.979.979,0,0,0-.833.459v2.736h-.864Z"></path>
      <path class="cls-9" d="M275.847,612.567h-.771v-.689h.771v-1.054l.864-.184v1.238h1.071v.689h-1.071v1.941c0,.375.146.52.536.52a1.58,1.58,0,0,0,.519-.092v.726a2.711,2.711,0,0,1-.741.108c-.773,0-1.178-.367-1.178-1.07Z"></path>
      <path class="cls-9" d="M278.346,614.608c0-.689.559-1.124,1.46-1.124a2.355,2.355,0,0,1,1.032.237V613.3c0-.5-.29-.765-.878-.765a2.646,2.646,0,0,0-1.117.3l-.305-.627a3.684,3.684,0,0,1,1.589-.39c1,0,1.568.5,1.568,1.391v2.5h-.857v-.389a1.6,1.6,0,0,1-1.138.451A1.209,1.209,0,0,1,278.346,614.608Zm1.591.557a1.361,1.361,0,0,0,.9-.313v-.627a1.976,1.976,0,0,0-.886-.184c-.49,0-.8.215-.8.551C279.157,614.944,279.462,615.165,279.937,615.165Z"></path>
      <path class="cls-9" d="M282.634,610.571a.539.539,0,0,1,1.078,0,.539.539,0,0,1-1.078,0Zm.972,5.137h-.864v-3.83h.864Z"></path>
      <path class="cls-9" d="M284.668,611.878h.864v.627a1.389,1.389,0,0,1,1.215-.688,1.289,1.289,0,0,1,1.322,1.369v2.522h-.863V613.43a.825.825,0,0,0-.841-.917.979.979,0,0,0-.833.459v2.736h-.864Z"></path>
      <path class="cls-9" d="M290.889,615.784a1.946,1.946,0,0,1-1.949-1.987,1.886,1.886,0,0,1,1.865-1.98,1.839,1.839,0,0,1,1.812,1.972V614h-2.828a1.168,1.168,0,0,0,1.146,1.048,1.248,1.248,0,0,0,.91-.359l.566.527A2.215,2.215,0,0,1,290.889,615.784Zm-1.086-2.308h2a1.047,1.047,0,0,0-1-.955A1.03,1.03,0,0,0,289.8,613.476Z"></path>
      <path class="cls-9" d="M293.5,611.878h.864v.833a1.135,1.135,0,0,1,1.055-.9,1,1,0,0,1,.374.076v.757a1.206,1.206,0,0,0-.474-.092,1.049,1.049,0,0,0-.955.635v2.522H293.5Z"></path>
      <path class="cls-9" d="M298.112,610.571a.539.539,0,0,1,1.078,0,.539.539,0,0,1-1.078,0Zm.972,5.137h-.865v-3.83h.865Z"></path>
      <path class="cls-9" d="M300.145,611.878h.864v.612a1.306,1.306,0,0,1,1.139-.673,1.2,1.2,0,0,1,1.124.742,1.413,1.413,0,0,1,1.269-.742,1.269,1.269,0,0,1,1.253,1.391v2.5h-.864v-2.316a.775.775,0,0,0-.771-.879.911.911,0,0,0-.773.451c.008.084.016.16.016.244v2.5h-.864v-2.316a.775.775,0,0,0-.772-.879.891.891,0,0,0-.757.436v2.759h-.864Z"></path>
      <path class="cls-9" d="M306.649,614.608c0-.689.559-1.124,1.46-1.124a2.361,2.361,0,0,1,1.032.237V613.3c0-.5-.29-.765-.879-.765a2.642,2.642,0,0,0-1.116.3l-.306-.627a3.688,3.688,0,0,1,1.59-.39c.994,0,1.568.5,1.568,1.391v2.5h-.857v-.389a1.6,1.6,0,0,1-1.139.451A1.208,1.208,0,0,1,306.649,614.608Zm1.591.557a1.363,1.363,0,0,0,.9-.313v-.627a1.98,1.98,0,0,0-.887-.184c-.489,0-.794.215-.794.551C307.46,614.944,307.765,615.165,308.24,615.165Z"></path>
      <path class="cls-9" d="M310.869,613.789a1.848,1.848,0,0,1,1.789-1.941,1.442,1.442,0,0,1,1.123.519v-.489h.856v3.96c0,.987-.641,1.529-1.8,1.529A3.321,3.321,0,0,1,311.3,617l.306-.642a2.618,2.618,0,0,0,1.193.329c.642,0,.979-.29.979-.849v-.649a1.488,1.488,0,0,1-1.17.542A1.835,1.835,0,0,1,310.869,613.789Zm1.995,1.224a1.149,1.149,0,0,0,.91-.421v-1.605a1.19,1.19,0,0,0-.91-.413,1.142,1.142,0,0,0-1.139,1.215A1.158,1.158,0,0,0,312.864,615.013Z"></path>
      <path class="cls-9" d="M317.472,615.784a1.946,1.946,0,0,1-1.949-1.987,1.886,1.886,0,0,1,1.865-1.98,1.839,1.839,0,0,1,1.812,1.972V614h-2.828a1.168,1.168,0,0,0,1.146,1.048,1.248,1.248,0,0,0,.91-.359l.566.527A2.215,2.215,0,0,1,317.472,615.784Zm-1.085-2.308h2a1.047,1.047,0,0,0-1-.955A1.028,1.028,0,0,0,316.387,613.476Z"></path>
      <path class="cls-9" d="M320.178,614.684a2.207,2.207,0,0,0,1.231.435c.459,0,.772-.206.772-.511,0-.238-.161-.367-.528-.436l-.68-.115c-.742-.138-1.108-.482-1.108-1.055,0-.718.588-1.185,1.482-1.185a2.691,2.691,0,0,1,1.506.459l-.4.565a2.1,2.1,0,0,0-1.156-.366c-.4,0-.657.168-.657.451,0,.244.138.352.543.42l.673.122c.765.146,1.132.5,1.132,1.07a1.4,1.4,0,0,1-1.56,1.246,2.57,2.57,0,0,1-1.651-.519Z"></path>
    </g>
    <g>
      <g>
        <polygon class="cls-3" points="59.248 617.667 53.324 617.667 53.324 610.997 54.805 609.515 59.248 609.515 59.248 617.667"></polygon>
        <path class="cls-7" d="M59.248,617.818H53.324a.151.151,0,0,1-.15-.151V611a.15.15,0,0,1,.044-.106l1.481-1.482a.146.146,0,0,1,.106-.044h4.443a.151.151,0,0,1,.151.15v8.152A.152.152,0,0,1,59.248,617.818Zm-5.774-.3H59.1v-7.852H54.867l-1.393,1.395Z"></path>
      </g>
      <path class="cls-7" d="M54.805,611.148H53.324a.15.15,0,0,1-.106-.257l1.481-1.482a.15.15,0,0,1,.257.106V611A.152.152,0,0,1,54.805,611.148Zm-1.118-.3h.968v-.969Z"></path>
      <path class="cls-7" d="M56.286,612.259H54.435a.15.15,0,1,1,0-.3h1.851a.15.15,0,1,1,0,.3Z"></path>
      <path class="cls-7" d="M58.138,613.371h-3.7a.151.151,0,1,1,0-.3h3.7a.151.151,0,0,1,0,.3Z"></path>
      <path class="cls-7" d="M58.138,614.483h-3.7a.151.151,0,1,1,0-.3h3.7a.151.151,0,0,1,0,.3Z"></path>
      <path class="cls-7" d="M58.138,615.594h-3.7a.15.15,0,1,1,0-.3h3.7a.15.15,0,0,1,0,.3Z"></path>
      <rect class="cls-10" x="50.766" y="607.183" width="11.04" height="12.815"></rect>
    </g>
    <g>
      <g>
        <polygon class="cls-3" points="150.467 617.667 144.543 617.667 144.543 610.997 146.024 609.515 150.467 609.515 150.467 617.667"></polygon>
        <path class="cls-7" d="M150.467,617.818h-5.924a.151.151,0,0,1-.15-.151V611a.146.146,0,0,1,.044-.106l1.481-1.482a.146.146,0,0,1,.106-.044h4.443a.151.151,0,0,1,.151.15v8.152A.152.152,0,0,1,150.467,617.818Zm-5.774-.3h5.624v-7.852h-4.231l-1.393,1.395Z"></path>
      </g>
      <path class="cls-7" d="M146.024,611.148h-1.481a.15.15,0,0,1-.106-.257l1.481-1.482a.15.15,0,0,1,.257.106V611A.152.152,0,0,1,146.024,611.148Zm-1.118-.3h.968v-.969Z"></path>
      <path class="cls-7" d="M147.505,612.259h-1.851a.15.15,0,1,1,0-.3h1.851a.15.15,0,1,1,0,.3Z"></path>
      <path class="cls-7" d="M149.357,613.371h-3.7a.151.151,0,1,1,0-.3h3.7a.151.151,0,0,1,0,.3Z"></path>
      <path class="cls-7" d="M149.357,614.483h-3.7a.151.151,0,1,1,0-.3h3.7a.151.151,0,0,1,0,.3Z"></path>
      <path class="cls-7" d="M149.357,615.594h-3.7a.15.15,0,1,1,0-.3h3.7a.15.15,0,0,1,0,.3Z"></path>
      <rect class="cls-11" x="141.985" y="607.183" width="11.04" height="12.815"></rect>
    </g>
    <g>
      <g>
        <polygon class="cls-3" points="252.026 617.667 246.101 617.667 246.101 610.997 247.582 609.515 252.026 609.515 252.026 617.667"></polygon>
        <path class="cls-7" d="M252.026,617.818H246.1a.151.151,0,0,1-.15-.151V611a.15.15,0,0,1,.044-.106l1.481-1.482a.148.148,0,0,1,.107-.044h4.443a.15.15,0,0,1,.15.15v8.152A.151.151,0,0,1,252.026,617.818Zm-5.774-.3h5.623v-7.852h-4.23l-1.393,1.395Z"></path>
      </g>
      <path class="cls-7" d="M247.583,611.148H246.1a.151.151,0,0,1-.106-.257l1.481-1.482a.15.15,0,0,1,.257.106V611A.151.151,0,0,1,247.583,611.148Zm-1.119-.3h.968v-.969Z"></path>
      <path class="cls-7" d="M249.063,612.259h-1.851a.15.15,0,1,1,0-.3h1.851a.15.15,0,1,1,0,.3Z"></path>
      <path class="cls-7" d="M250.915,613.371h-3.7a.151.151,0,0,1,0-.3h3.7a.151.151,0,0,1,0,.3Z"></path>
      <path class="cls-7" d="M250.915,614.483h-3.7a.151.151,0,0,1,0-.3h3.7a.151.151,0,0,1,0,.3Z"></path>
      <path class="cls-7" d="M250.915,615.594h-3.7a.15.15,0,0,1,0-.3h3.7a.15.15,0,0,1,0,.3Z"></path>
      <rect class="cls-8" x="243.544" y="607.183" width="11.04" height="12.815"></rect>
    </g>
  </g>
  <rect class="cls-12" x="387.543" y="135.554" width="115.271" height="50.839"></rect>
  <rect class="cls-12" x="92.462" y="135.554" width="115.271" height="50.839"></rect>
  <rect class="cls-12" x="92.462" y="190.961" width="115.271" height="50.839"></rect>
  <g>
    <path d="M417.48,153.153h2.6a1.737,1.737,0,0,1,1.888,1.705,1.61,1.61,0,0,1-.994,1.5L422.1,158.5h-1.468l-.97-1.965h-.865V158.5H417.48Zm1.314,1.086v1.269h1.163a.636.636,0,1,0,0-1.269Z"></path>
    <path d="M422.776,153.153h1.315v2.079h2.163v-2.079h1.316V158.5h-1.316v-2.117h-2.163V158.5h-1.315Z"></path>
    <path d="M432.522,156.738l.864.818a2.74,2.74,0,1,1,.038-3.447l-.886.841a1.558,1.558,0,0,0-1.285-.711,1.583,1.583,0,1,0,1.269,2.5Z"></path>
    <path d="M436.587,158.588a2.76,2.76,0,1,1,2.76-2.76A2.736,2.736,0,0,1,436.587,158.588Zm-.007-4.349a1.6,1.6,0,1,0,1.407,1.589A1.471,1.471,0,0,0,436.58,154.239Z"></path>
    <path d="M440.508,156.8a2.942,2.942,0,0,0,1.736.711c.565,0,.909-.23.909-.559,0-.313-.184-.459-.7-.558l-1.139-.2a1.419,1.419,0,0,1-1.315-1.43c0-1.04.8-1.69,2.125-1.69a3.633,3.633,0,0,1,2.194.7l-.665.955a2.557,2.557,0,0,0-1.6-.588c-.519,0-.818.214-.818.5,0,.268.176.413.6.482l1.071.183c1,.176,1.528.7,1.528,1.514,0,1.04-.887,1.751-2.285,1.751a3.794,3.794,0,0,1-2.317-.811Z"></path>
    <path d="M446.86,153.153h1.315V158.5H446.86Z"></path>
    <path d="M449.175,154.559h1.239v.627a1.354,1.354,0,0,1,1.17-.688,1.168,1.168,0,0,1,1.108.734,1.49,1.49,0,0,1,1.292-.734,1.264,1.264,0,0,1,1.238,1.384V158.5h-1.238v-2.377a.591.591,0,0,0-.589-.658.677.677,0,0,0-.573.306V158.5h-1.238v-2.377a.591.591,0,0,0-.589-.658.71.71,0,0,0-.581.306V158.5h-1.239Z"></path>
    <path d="M455.97,157.373c0-.726.567-1.147,1.537-1.147a2.582,2.582,0,0,1,.917.183v-.32c0-.383-.252-.574-.779-.574a2.931,2.931,0,0,0-1.108.275l-.429-.863a4.361,4.361,0,0,1,1.811-.429c1.094,0,1.729.543,1.729,1.483V158.5h-1.224v-.344a1.569,1.569,0,0,1-1.092.405A1.228,1.228,0,0,1,455.97,157.373Zm1.743.374a1.346,1.346,0,0,0,.711-.2v-.5a2.985,2.985,0,0,0-.68-.084c-.405,0-.634.137-.634.39S457.332,157.747,457.713,157.747Z"></path>
    <path d="M460.4,156.509a1.893,1.893,0,0,1,1.835-1.973,1.369,1.369,0,0,1,1.07.5v-.475h1.215v4c0,1.062-.733,1.651-2.079,1.651a3.769,3.769,0,0,1-1.636-.352l.382-.894a2.8,2.8,0,0,0,1.208.306c.589,0,.894-.245.894-.727v-.565a1.476,1.476,0,0,1-1.146.519A1.869,1.869,0,0,1,460.4,156.509Zm2.156.979a.955.955,0,0,0,.733-.314v-1.315a1,1,0,0,0-.733-.305.921.921,0,0,0-.94.962A.933.933,0,0,0,462.56,157.488Z"></path>
    <path d="M467.389,158.581a2.041,2.041,0,0,1-2.079-2.042,1.979,1.979,0,0,1,1.987-2.048,1.939,1.939,0,0,1,1.943,2.094v.268h-2.714a.947.947,0,0,0,.925.742.975.975,0,0,0,.779-.329l.818.68A2.3,2.3,0,0,1,467.389,158.581Zm-.863-2.431h1.567a.82.82,0,0,0-.8-.7A.783.783,0,0,0,466.526,156.15Z"></path>
    <path d="M470.271,157.273a2.546,2.546,0,0,0,1.27.4c.351,0,.565-.122.565-.321,0-.153-.114-.237-.367-.283l-.757-.138c-.765-.145-1.162-.535-1.162-1.146,0-.811.619-1.292,1.651-1.292a3.173,3.173,0,0,1,1.606.451l-.566.787a2.232,2.232,0,0,0-1.132-.336c-.3,0-.473.1-.473.275,0,.16.1.229.4.283l.741.138c.781.145,1.193.542,1.186,1.138.007.773-.727,1.354-1.7,1.354a3.232,3.232,0,0,1-1.813-.482Z"></path>
    <path d="M404.7,162.241l.458.55a3.733,3.733,0,0,0,0,6.024l-.458.558a4.36,4.36,0,0,1,0-7.132Z"></path>
    <path d="M406.086,162.325H407v2.255h2.661v-2.255h.917v5.351h-.917v-2.293H407v2.293h-.918Z"></path>
    <path d="M411.377,162.325h4.5v.8H414.09v4.556h-.918V163.12h-1.8Z"></path>
    <path d="M416.336,162.325h4.5v.8H419.05v4.556h-.918V163.12h-1.8Z"></path>
    <path d="M421.671,162.325h2.393a1.66,1.66,0,1,1,0,3.31h-1.476v2.041h-.917Zm.917.772v1.789h1.33a.9.9,0,1,0,.008-1.789Z"></path>
    <path d="M426.862,162.325h1.957a2.676,2.676,0,1,1,0,5.351h-1.957Zm.917.8v3.761h1.062a1.889,1.889,0,0,0,0-3.761Z"></path>
    <path d="M433.105,166.927l-.749,2.018h-.635l.513-2.018Z"></path>
    <path d="M437.348,162.325h1.063l2.071,5.351H439.5l-.542-1.5h-2.2l-.551,1.5h-.955Zm1.338,3.134-.826-2.278-.841,2.278Z"></path>
    <path d="M441.605,167.676l-1.169-5.351h.933l.795,3.921,1.146-3.921h.871l1.148,3.921.8-3.921h.9l-1.169,5.351H444.9l-1.169-4.059-1.17,4.059Z"></path>
    <path d="M447.911,166.216a2.673,2.673,0,0,0,1.8.78c.711,0,1.2-.359,1.2-.849,0-.436-.26-.634-.971-.764l-.986-.168c-.925-.169-1.376-.627-1.376-1.361,0-.964.772-1.606,1.972-1.606a3.577,3.577,0,0,1,2.149.7l-.467.688a2.774,2.774,0,0,0-1.712-.619c-.642,0-1.063.321-1.063.757,0,.382.237.581.826.672l.948.169c1.077.183,1.582.657,1.582,1.467,0,.979-.871,1.675-2.148,1.675a3.366,3.366,0,0,1-2.247-.865Z"></path>
    <path d="M455.966,162.325h1.063l2.071,5.351h-.986l-.542-1.5h-2.2l-.551,1.5h-.955Zm1.338,3.134-.826-2.278-.841,2.278Z"></path>
    <path d="M460.636,163.479v4.2h-.847v-5.351h1.192l1.567,3.241,1.559-3.241H465.3v5.351h-.864V163.5l-1.895,3.792Z"></path>
    <path d="M466.544,162.325h.917v5.351h-.917Z"></path>
    <path d="M469.563,166.927l-.749,2.018h-.635l.513-2.018Z"></path>
    <path d="M473.966,167.753a1.948,1.948,0,0,1-1.949-1.988,1.886,1.886,0,0,1,1.865-1.98,1.838,1.838,0,0,1,1.812,1.972v.214h-2.828a1.169,1.169,0,0,0,1.146,1.048,1.245,1.245,0,0,0,.91-.36l.566.528A2.221,2.221,0,0,1,473.966,167.753Zm-1.086-2.309h2a1.05,1.05,0,0,0-1-.956A1.031,1.031,0,0,0,472.88,165.444Z"></path>
    <path d="M476.931,164.534h-.771v-.688h.771v-1.055l.864-.183v1.238h1.071v.688H477.8v1.942c0,.374.146.52.536.52a1.58,1.58,0,0,0,.519-.092v.726a2.709,2.709,0,0,1-.741.107c-.773,0-1.178-.367-1.178-1.07Z"></path>
    <path d="M482.3,166.568l.521.519a1.994,1.994,0,0,1-1.5.666,1.981,1.981,0,0,1,0-3.96,2.064,2.064,0,0,1,1.529.642l-.535.558a1.266,1.266,0,0,0-.963-.451,1.228,1.228,0,0,0,.022,2.446A1.174,1.174,0,0,0,482.3,166.568Z"></path>
    <path d="M484.467,167.187a.535.535,0,1,1-.535-.558A.547.547,0,0,1,484.467,167.187Z"></path>
    <path d="M485.66,169.373l-.458-.55a3.733,3.733,0,0,0,0-6.024l.458-.558a4.362,4.362,0,0,1,0,7.132Z"></path>
  </g>
  <g>
    <g>
      <polygon class="cls-3" points="495.537 150.839 489.612 150.839 489.612 144.169 491.093 142.687 495.537 142.687 495.537 150.839"></polygon>
      <path class="cls-7" d="M495.537,150.99h-5.925a.151.151,0,0,1-.15-.151v-6.67a.15.15,0,0,1,.044-.106l1.481-1.482a.146.146,0,0,1,.106-.044h4.444a.15.15,0,0,1,.15.15v8.152A.151.151,0,0,1,495.537,150.99Zm-5.774-.3h5.623v-7.852h-4.23l-1.393,1.4Z"></path>
    </g>
    <path class="cls-7" d="M491.093,144.32h-1.481a.15.15,0,0,1-.106-.257l1.481-1.482a.15.15,0,0,1,.257.106v1.482A.152.152,0,0,1,491.093,144.32Zm-1.118-.3h.968v-.969Z"></path>
    <path class="cls-7" d="M492.574,145.431h-1.851a.15.15,0,1,1,0-.3h1.851a.15.15,0,1,1,0,.3Z"></path>
    <path class="cls-7" d="M494.426,146.543h-3.7a.151.151,0,0,1,0-.3h3.7a.151.151,0,0,1,0,.3Z"></path>
    <path class="cls-7" d="M494.426,147.655h-3.7a.151.151,0,0,1,0-.3h3.7a.151.151,0,0,1,0,.3Z"></path>
    <path class="cls-7" d="M494.426,148.766h-3.7a.15.15,0,0,1,0-.3h3.7a.15.15,0,0,1,0,.3Z"></path>
    <rect class="cls-10" x="487.055" y="140.355" width="11.04" height="12.815"></rect>
  </g>
  <g>
    <circle class="cls-5" cx="307.516" cy="266.208" r="5.58"></circle>
    <path class="cls-3" d="M307.307,268.387a2.39,2.39,0,0,1-1.806-.74l.68-.629a1.3,1.3,0,0,0,1.113.485c.5,0,.825-.223.825-.563,0-.288-.236-.471-.6-.471h-.59v-.832h.485c.373,0,.6-.189.6-.51s-.307-.563-.719-.563a1.28,1.28,0,0,0-1.068.523l-.686-.621a2.4,2.4,0,0,1,1.793-.8c1,0,1.695.543,1.695,1.322a1.106,1.106,0,0,1-.863,1.047,1.064,1.064,0,0,1,.981.989C309.14,267.817,308.375,268.387,307.307,268.387Z"></path>
  </g>
  <g>
    <circle class="cls-5" cx="307.516" cy="147.489" r="5.58"></circle>
    <path class="cls-3" d="M308.238,149.6H307.23v-3.535l-.9.373v-.89l1.277-.53h.635Z"></path>
  </g>
  <g>
    <circle class="cls-5" cx="307.516" cy="203.51" r="5.58"></circle>
    <path class="cls-3" d="M305.756,204.9l1.938-1.918a.859.859,0,0,0,.308-.609c0-.3-.289-.517-.674-.517a1.58,1.58,0,0,0-1.16.563l-.562-.687a2.511,2.511,0,0,1,1.754-.753c.975,0,1.624.53,1.624,1.328a1.6,1.6,0,0,1-.6,1.185l-1.323,1.277,1.984-.007v.858h-3.293Z"></path>
  </g>
  <g>
    <path d="M133.072,214.771v3.662h-1.207v-5.351h1.65l1.292,2.568,1.285-2.568h1.651v5.351H136.5V214.8l-1.711,3.249Z"></path>
    <path d="M138.559,217.3c0-.727.567-1.147,1.537-1.147a2.564,2.564,0,0,1,.917.183v-.321c0-.382-.252-.573-.779-.573a2.931,2.931,0,0,0-1.108.275l-.429-.864a4.375,4.375,0,0,1,1.811-.428c1.094,0,1.729.543,1.729,1.483v2.523h-1.224v-.344a1.573,1.573,0,0,1-1.093.405A1.228,1.228,0,0,1,138.559,217.3Zm1.743.374a1.346,1.346,0,0,0,.711-.2v-.5a2.931,2.931,0,0,0-.68-.085c-.405,0-.634.138-.634.391S139.92,217.676,140.3,217.676Z"></path>
    <path d="M143.168,214.488h1.239v.642a1.456,1.456,0,0,1,1.246-.7,1.275,1.275,0,0,1,1.307,1.346v2.66h-1.238v-2.3a.657.657,0,0,0-.657-.734.8.8,0,0,0-.658.329v2.706h-1.239Z"></path>
    <path d="M147.816,213.189a.7.7,0,0,1,1.4,0,.7.7,0,0,1-1.4,0Zm1.314,5.244h-1.238v-3.945h1.238Z"></path>
    <path d="M150.674,214.488v-.519c0-.941.559-1.453,1.576-1.453a2.814,2.814,0,0,1,.657.077v1.016a2.509,2.509,0,0,0-.474-.046c-.352,0-.52.138-.52.429v.5h.994v.956h-.994v2.989h-1.239v-2.989h-.818v-.956Z"></path>
    <path d="M155.436,218.51a2.04,2.04,0,0,1-2.079-2.042,1.979,1.979,0,0,1,1.987-2.049,1.94,1.94,0,0,1,1.943,2.095v.268h-2.714a.945.945,0,0,0,.925.741.974.974,0,0,0,.779-.328l.818.68A2.3,2.3,0,0,1,155.436,218.51Zm-.863-2.432h1.567a.821.821,0,0,0-.8-.695A.782.782,0,0,0,154.573,216.078Z"></path>
    <path d="M158.317,217.2a2.553,2.553,0,0,0,1.269.4c.352,0,.566-.122.566-.32,0-.153-.114-.237-.367-.283l-.757-.138c-.765-.145-1.162-.535-1.162-1.147,0-.81.619-1.292,1.651-1.292a3.183,3.183,0,0,1,1.606.451l-.566.788a2.232,2.232,0,0,0-1.132-.336c-.3,0-.473.1-.473.275,0,.16.1.229.405.283l.741.137c.78.145,1.193.543,1.186,1.139.007.773-.727,1.354-1.7,1.354a3.23,3.23,0,0,1-1.812-.482Z"></path>
    <path d="M162.444,215.444h-.764v-.956h.764V213.4l1.239-.252v1.345h1.055v.956h-1.055v1.529c0,.352.138.474.52.474a1.694,1.694,0,0,0,.5-.084v1a3.447,3.447,0,0,1-.849.123c-.933,0-1.415-.429-1.415-1.269Z"></path>
    <path d="M165.723,217.2a2.556,2.556,0,0,0,1.27.4c.351,0,.565-.122.565-.32,0-.153-.114-.237-.367-.283l-.757-.138c-.765-.145-1.162-.535-1.162-1.147,0-.81.619-1.292,1.651-1.292a3.183,3.183,0,0,1,1.606.451l-.566.788a2.231,2.231,0,0,0-1.131-.336c-.3,0-.474.1-.474.275,0,.16.1.229.405.283l.741.137c.781.145,1.193.543,1.186,1.139.007.773-.727,1.354-1.7,1.354a3.232,3.232,0,0,1-1.813-.482Z"></path>
  </g>
  <rect class="cls-12" x="92.462" y="246.369" width="115.271" height="50.839"></rect>
  <g>
    <path d="M126.93,268.49h1.316v5.351H126.93Z"></path>
    <path d="M129.071,271.846a1.893,1.893,0,0,1,1.835-1.973,1.371,1.371,0,0,1,1.07.5V269.9h1.215v4c0,1.063-.733,1.651-2.079,1.651a3.784,3.784,0,0,1-1.636-.351l.382-.9a2.787,2.787,0,0,0,1.208.306c.589,0,.894-.244.894-.726v-.566a1.477,1.477,0,0,1-1.146.52A1.87,1.87,0,0,1,129.071,271.846Zm2.156.978a.958.958,0,0,0,.733-.313V271.2a1,1,0,0,0-.733-.306.921.921,0,0,0-.94.963A.933.933,0,0,0,131.227,272.824Z"></path>
    <path d="M134.153,269.9h1.238v.642a1.456,1.456,0,0,1,1.246-.7,1.275,1.275,0,0,1,1.308,1.345v2.661h-1.238v-2.3a.657.657,0,0,0-.658-.734.8.8,0,0,0-.658.33v2.706h-1.238Z"></path>
    <path d="M138.8,268.6a.7.7,0,0,1,1.4,0,.7.7,0,0,1-1.4,0Zm1.315,5.245h-1.238V269.9h1.238Z"></path>
    <path d="M141.6,270.851h-.763V269.9h.763V268.8l1.239-.252V269.9h1.055v.955h-1.055v1.53c0,.351.138.473.52.473a1.653,1.653,0,0,0,.5-.084v1a3.446,3.446,0,0,1-.849.122c-.932,0-1.415-.428-1.415-1.269Z"></path>
    <path d="M144.5,268.6a.7.7,0,0,1,1.4,0,.7.7,0,0,1-1.4,0Zm1.315,5.245h-1.238V269.9h1.238Z"></path>
    <path d="M148.661,269.835a2.041,2.041,0,1,1-2.057,2.041A2.008,2.008,0,0,1,148.661,269.835Zm.856,2.041a.865.865,0,1,0-1.7,0,.863.863,0,1,0,1.7,0Z"></path>
    <path d="M151.51,269.9h1.239v.642a1.454,1.454,0,0,1,1.246-.7,1.275,1.275,0,0,1,1.307,1.345v2.661h-1.238v-2.3a.657.657,0,0,0-.657-.734.8.8,0,0,0-.658.33v2.706H151.51Z"></path>
    <path d="M158.459,269.9v-.52c0-.94.558-1.452,1.575-1.452a2.811,2.811,0,0,1,.657.076v1.017a2.509,2.509,0,0,0-.474-.046c-.352,0-.52.138-.52.428v.5h.994v.955H159.7v2.99h-1.238v-2.99h-.818V269.9Z"></path>
    <path d="M161.317,268.6a.7.7,0,0,1,1.4,0,.7.7,0,0,1-1.4,0Zm1.314,5.245h-1.238V269.9h1.238Z"></path>
    <path d="M164.833,273.841h-1.239v-5.466l1.239-.192Z"></path>
    <path d="M167.7,273.917a2.04,2.04,0,0,1-2.079-2.041,1.979,1.979,0,0,1,1.987-2.049,1.938,1.938,0,0,1,1.942,2.1v.267h-2.714a.946.946,0,0,0,.925.742.977.977,0,0,0,.78-.329l.818.681A2.3,2.3,0,0,1,167.7,273.917Zm-.864-2.431H168.4a.822.822,0,0,0-.8-.7A.784.784,0,0,0,166.835,271.486Z"></path>
    <path d="M170.581,272.61a2.55,2.55,0,0,0,1.269.4c.352,0,.566-.122.566-.321,0-.152-.115-.236-.368-.282l-.756-.138c-.765-.146-1.163-.535-1.163-1.147,0-.81.62-1.292,1.652-1.292a3.167,3.167,0,0,1,1.6.451l-.565.788a2.23,2.23,0,0,0-1.132-.337c-.3,0-.474.1-.474.276,0,.16.1.229.406.282l.741.138c.78.145,1.192.543,1.185,1.139.007.772-.726,1.353-1.7,1.353a3.22,3.22,0,0,1-1.812-.482Z"></path>
  </g>
  <g>
    <path d="M117.538,157.781a.7.7,0,0,1,1.4,0,.7.7,0,0,1-1.4,0Zm1.314,5.244h-1.238V159.08h1.238Z"></path>
    <path d="M119.815,159.08h1.238v.642a1.458,1.458,0,0,1,1.246-.7,1.275,1.275,0,0,1,1.308,1.346v2.66h-1.238v-2.3a.657.657,0,0,0-.658-.734.8.8,0,0,0-.658.329v2.706h-1.238Z"></path>
    <path d="M124.76,161.794a2.549,2.549,0,0,0,1.27.4c.351,0,.565-.122.565-.321,0-.153-.114-.237-.367-.283l-.757-.138c-.764-.145-1.162-.535-1.162-1.146,0-.811.619-1.292,1.651-1.292a3.173,3.173,0,0,1,1.606.451l-.565.787a2.238,2.238,0,0,0-1.132-.336c-.3,0-.474.1-.474.275,0,.16.1.229.405.283l.742.138c.78.145,1.192.542,1.185,1.138.007.773-.726,1.354-1.7,1.354a3.232,3.232,0,0,1-1.813-.482Z"></path>
    <path d="M128.887,160.036h-.763v-.956h.763v-1.092l1.24-.253v1.345h1.054v.956h-1.054v1.529c0,.352.137.474.519.474a1.653,1.653,0,0,0,.505-.084v1a3.447,3.447,0,0,1-.849.123c-.932,0-1.415-.428-1.415-1.269Z"></path>
    <path d="M131.685,161.894c0-.726.567-1.147,1.537-1.147a2.586,2.586,0,0,1,.917.183v-.32c0-.383-.252-.574-.779-.574a2.931,2.931,0,0,0-1.108.275l-.429-.863a4.361,4.361,0,0,1,1.811-.429c1.094,0,1.729.543,1.729,1.483v2.523h-1.224v-.344a1.573,1.573,0,0,1-1.093.405A1.228,1.228,0,0,1,131.685,161.894Zm1.743.374a1.346,1.346,0,0,0,.711-.2v-.5a2.985,2.985,0,0,0-.68-.084c-.405,0-.634.137-.634.39S133.046,162.268,133.428,162.268Z"></path>
    <path d="M137.532,163.025h-1.239v-5.466l1.239-.191Z"></path>
    <path d="M139.733,163.025H138.5v-5.466l1.238-.191Z"></path>
    <path d="M143.418,160.319v1.032H140.6v-1.032Z"></path>
    <path d="M147.1,161.641l.733.727a2.075,2.075,0,0,1-1.605.734,2.042,2.042,0,0,1,0-4.083,2.137,2.137,0,0,1,1.644.726l-.757.757a1.03,1.03,0,0,0-.841-.427.985.985,0,0,0,.031,1.957A.953.953,0,0,0,147.1,161.641Z"></path>
    <path d="M150.251,159.019a2.042,2.042,0,1,1-2.057,2.041A2.009,2.009,0,0,1,150.251,159.019Zm.856,2.041a.864.864,0,1,0-1.705,0,.863.863,0,1,0,1.705,0Z"></path>
    <path d="M153.1,159.08h1.238v.642a1.458,1.458,0,0,1,1.246-.7,1.275,1.275,0,0,1,1.308,1.346v2.66h-1.238v-2.3a.657.657,0,0,0-.657-.734.8.8,0,0,0-.659.329v2.706H153.1Z"></path>
    <path d="M158.291,159.08v-.519c0-.941.558-1.453,1.575-1.453a2.808,2.808,0,0,1,.657.077V158.2a2.493,2.493,0,0,0-.474-.045c-.352,0-.52.137-.52.428v.5h.994v.956h-.994v2.989h-1.238v-2.989h-.818v-.956Z"></path>
    <path d="M161.149,157.781a.7.7,0,0,1,1.4,0,.7.7,0,0,1-1.4,0Zm1.314,5.244h-1.238V159.08h1.238Z"></path>
    <path d="M163.251,161.03a1.893,1.893,0,0,1,1.834-1.973,1.375,1.375,0,0,1,1.071.5v-.474h1.215v4c0,1.062-.734,1.651-2.079,1.651a3.766,3.766,0,0,1-1.636-.352l.382-.894a2.8,2.8,0,0,0,1.208.306c.589,0,.894-.245.894-.727V162.5a1.478,1.478,0,0,1-1.146.519A1.869,1.869,0,0,1,163.251,161.03Zm2.156.979a.955.955,0,0,0,.733-.314V160.38a1,1,0,0,0-.733-.305.921.921,0,0,0-.941.962A.934.934,0,0,0,165.407,162.009Z"></path>
    <path d="M169.6,162.383a.693.693,0,1,1-.688-.726A.713.713,0,0,1,169.6,162.383Z"></path>
    <path d="M170.887,163.1l-1.452-4.022H170.8l.787,2.546.9-2.546h1.338l-1.774,4.4a1.625,1.625,0,0,1-1.727,1.231,2.535,2.535,0,0,1-.513-.061v-1.04a2.67,2.67,0,0,0,.367.03.6.6,0,0,0,.642-.4Z"></path>
    <path d="M174.364,159.08H175.6v.627a1.355,1.355,0,0,1,1.17-.688,1.167,1.167,0,0,1,1.108.734,1.49,1.49,0,0,1,1.292-.734,1.264,1.264,0,0,1,1.239,1.384v2.622h-1.239v-2.377a.59.59,0,0,0-.588-.658.678.678,0,0,0-.574.306v2.729h-1.238v-2.377a.591.591,0,0,0-.589-.658.711.711,0,0,0-.581.306v2.729h-1.238Z"></path>
    <path d="M182.581,163.025h-1.239v-5.466l1.239-.191Z"></path>
  </g>
  <g>
    <g>
      <line class="cls-4" x1="292.597" y1="168.263" x2="207.733" y2="168.263"></line>
      <polygon class="cls-5" points="291.503 164.524 297.979 168.263 291.503 172.003 291.503 164.524"></polygon>
    </g>
    <g>
      <line class="cls-4" x1="297.979" y1="153.683" x2="213.114" y2="153.683"></line>
      <polygon class="cls-5" points="214.209 149.943 207.733 153.682 214.209 157.422 214.209 149.943"></polygon>
    </g>
  </g>
  <g>
    <g>
      <line class="cls-4" x1="292.597" y1="223.671" x2="207.733" y2="223.671"></line>
      <polygon class="cls-5" points="291.503 219.932 297.979 223.671 291.503 227.41 291.503 219.932"></polygon>
    </g>
    <g>
      <line class="cls-4" x1="297.979" y1="209.091" x2="213.114" y2="209.091"></line>
      <polygon class="cls-5" points="214.209 205.351 207.733 209.09 214.209 212.83 214.209 205.351"></polygon>
    </g>
  </g>
</svg>
