<svg xmlns="http://www.w3.org/2000/svg" width="372.517" height="329.826" viewBox="0 0 372.517 329.826">
  <defs>
    <style>
      .cls-1 {
        fill: #dbe8f5;
      }

      .cls-2 {
        fill: #fff;
      }

      .cls-3, .cls-7 {
        fill: none;
        stroke: #231f20;
      }

      .cls-3 {
        stroke-miterlimit: 10;
      }

      .cls-4 {
        fill: #231f20;
      }

      .cls-5 {
        fill: #bd2026;
      }

      .cls-6 {
        fill: #a1c2e7;
      }

      .cls-7 {
        stroke-linecap: round;
        stroke-linejoin: round;
      }
    </style>
  </defs>
  <g id="ScanSettings">
    <g>
      <rect class="cls-1" x="211.21" y="96.627" width="160.629" height="42.029"></rect>
      <g>
        <line class="cls-2" x1="162.343" y1="117.642" x2="211.757" y2="117.642"></line>
        <g>
          <line class="cls-3" x1="167.725" y1="117.642" x2="211.757" y2="117.642"></line>
          <polygon class="cls-4" points="168.82 121.381 162.343 117.642 168.82 113.902 168.82 121.381"></polygon>
        </g>
      </g>
      <g>
        <path class="cls-4" d="M380.172,143.99l.65-.879a3.5,3.5,0,0,0,2.359,1.019c.919,0,1.558-.469,1.558-1.119,0-.57-.338-.84-1.268-1l-1.29-.219c-1.209-.22-1.8-.82-1.8-1.779,0-1.27,1.01-2.109,2.579-2.109a4.665,4.665,0,0,1,2.809.9l-.611.9a3.666,3.666,0,0,0-2.238-.81c-.84,0-1.4.43-1.4,1,0,.509.32.769,1.079.889l1.25.21c1.409.25,2.068.869,2.068,1.929,0,1.289-1.14,2.2-2.809,2.2A4.406,4.406,0,0,1,380.172,143.99Z" transform="translate(-119.741 -24.044)"></path>
        <path class="cls-4" d="M386.872,142.511a2.527,2.527,0,0,1,2.529-2.589,2.708,2.708,0,0,1,2,.85l-.7.729a1.658,1.658,0,0,0-1.259-.589,1.608,1.608,0,0,0,0,3.2,1.681,1.681,0,0,0,1.259-.579l.7.719a2.708,2.708,0,0,1-2,.85A2.521,2.521,0,0,1,386.872,142.511Z" transform="translate(-119.741 -24.044)"></path>
        <path class="cls-4" d="M392.072,143.571c0-.9.74-1.469,1.919-1.469a2.936,2.936,0,0,1,1.349.319v-.56c0-.659-.38-1-1.149-1a3.462,3.462,0,0,0-1.459.39l-.4-.82a4.948,4.948,0,0,1,2.078-.51c1.31,0,2.049.66,2.049,1.82v3.268H395.34v-.52a2.021,2.021,0,0,1-1.489.61A1.6,1.6,0,0,1,392.072,143.571Zm2.089.729a1.744,1.744,0,0,0,1.179-.42v-.809a2.574,2.574,0,0,0-1.149-.24c-.65,0-1.06.27-1.06.72S393.531,144.3,394.161,144.3Z" transform="translate(-119.741 -24.044)"></path>
        <path class="cls-4" d="M397.832,140h1.129v.82a1.825,1.825,0,0,1,1.579-.9,1.69,1.69,0,0,1,1.749,1.789v3.3H401.15v-2.979a1.078,1.078,0,0,0-1.1-1.2,1.248,1.248,0,0,0-1.09.61v3.568h-1.129Z" transform="translate(-119.741 -24.044)"></path>
        <path class="cls-4" d="M403.192,143.99l.65-.879a3.5,3.5,0,0,0,2.358,1.019c.919,0,1.559-.469,1.559-1.119,0-.57-.339-.84-1.269-1l-1.29-.219c-1.209-.22-1.8-.82-1.8-1.779,0-1.27,1.01-2.109,2.58-2.109a4.664,4.664,0,0,1,2.808.9l-.61.9a3.666,3.666,0,0,0-2.238-.81c-.84,0-1.4.43-1.4,1,0,.509.32.769,1.079.889l1.25.21c1.409.25,2.069.869,2.069,1.929,0,1.289-1.14,2.2-2.809,2.2A4.4,4.4,0,0,1,403.192,143.99Z" transform="translate(-119.741 -24.044)"></path>
        <path class="cls-4" d="M409.892,142.511a2.472,2.472,0,0,1,2.438-2.589,2.407,2.407,0,0,1,2.368,2.589v.27H411a1.533,1.533,0,0,0,1.5,1.4,1.67,1.67,0,0,0,1.19-.47l.739.67a2.9,2.9,0,0,1-1.979.73A2.541,2.541,0,0,1,409.892,142.511Zm3.737-.429a1.362,1.362,0,0,0-1.309-1.24,1.346,1.346,0,0,0-1.309,1.24Z" transform="translate(-119.741 -24.044)"></path>
        <path class="cls-4" d="M416.321,143.71V140.9h-1V140h1v-1.379l1.129-.24V140h1.39v.9h-1.39v2.558c0,.49.191.68.7.68a2.145,2.145,0,0,0,.679-.119v.949a3.554,3.554,0,0,1-.97.14C416.851,145.11,416.321,144.63,416.321,143.71Z" transform="translate(-119.741 -24.044)"></path>
        <path class="cls-4" d="M420.561,143.71V140.9h-1V140h1v-1.379l1.13-.24V140h1.388v.9h-1.388v2.558c0,.49.189.68.7.68a2.132,2.132,0,0,0,.679-.119v.949a3.547,3.547,0,0,1-.969.14C421.091,145.11,420.561,144.63,420.561,143.71Z" transform="translate(-119.741 -24.044)"></path>
        <path class="cls-4" d="M423.942,138.293a.7.7,0,0,1,.7-.7.708.708,0,0,1,.7.7.7.7,0,0,1-.7.69A.693.693,0,0,1,423.942,138.293Zm.129,1.709H425.2v5.008h-1.129Z" transform="translate(-119.741 -24.044)"></path>
        <path class="cls-4" d="M426.6,140h1.129v.82a1.823,1.823,0,0,1,1.579-.9,1.69,1.69,0,0,1,1.749,1.789v3.3h-1.14v-2.979a1.078,1.078,0,0,0-1.1-1.2,1.245,1.245,0,0,0-1.089.61v3.568H426.6Z" transform="translate(-119.741 -24.044)"></path>
        <path class="cls-4" d="M432.751,146.709l.39-.83a3.453,3.453,0,0,0,1.569.42c.84,0,1.279-.38,1.279-1.11v-.849a1.956,1.956,0,0,1-1.539.7,2.552,2.552,0,0,1,.08-5.078,1.874,1.874,0,0,1,1.469.67V140h1.119v5.187c0,1.29-.839,2.01-2.358,2.01A4.354,4.354,0,0,1,432.751,146.709Zm3.238-3.158v-2.1a1.552,1.552,0,0,0-1.189-.54,1.594,1.594,0,1,0,1.189,2.639Z" transform="translate(-119.741 -24.044)"></path>
        <path class="cls-4" d="M438.062,144.43l.529-.749a2.915,2.915,0,0,0,1.609.569c.6,0,1.009-.28,1.009-.679,0-.31-.209-.47-.7-.57l-.88-.15c-.979-.18-1.449-.63-1.449-1.379,0-.94.769-1.55,1.939-1.55a3.614,3.614,0,0,1,1.969.6l-.53.75a2.709,2.709,0,0,0-1.509-.48c-.52,0-.859.22-.859.58,0,.319.179.46.7.549l.889.17c1,.18,1.48.64,1.48,1.389a1.839,1.839,0,0,1-2.049,1.63A3.346,3.346,0,0,1,438.062,144.43Z" transform="translate(-119.741 -24.044)"></path>
      </g>
    </g>
  </g>
  <g id="Select">
    <g>
      <g>
        <rect class="cls-1" x="1.168" y="21.105" width="161.307" height="42.029"></rect>
        <g>
          <line class="cls-3" x1="81.821" y1="63.11" x2="81.821" y2="91.245"></line>
          <polygon class="cls-4" points="78.081 90.151 81.821 96.627 85.561 90.151 78.081 90.151"></polygon>
        </g>
      </g>
      <g>
        <path class="cls-4" d="M157.863,66.577a3.566,3.566,0,0,1,3.619-3.608,3.513,3.513,0,0,1,2.728,1.249l-.8.78a2.45,2.45,0,0,0-1.928-.95,2.533,2.533,0,0,0,0,5.057,2.452,2.452,0,0,0,1.928-.949l.8.78a3.516,3.516,0,0,1-2.728,1.249A3.566,3.566,0,0,1,157.863,66.577Z" transform="translate(-119.741 -24.044)"></path>
        <path class="cls-4" d="M164.9,67.576a2.515,2.515,0,1,1,2.519,2.589A2.5,2.5,0,0,1,164.9,67.576Zm3.918,0a1.42,1.42,0,1,0-1.4,1.629A1.485,1.485,0,0,0,168.821,67.576Z" transform="translate(-119.741 -24.044)"></path>
        <path class="cls-4" d="M171.1,65.067h1.13v.79a1.713,1.713,0,0,1,1.478-.87,1.559,1.559,0,0,1,1.48.96,1.867,1.867,0,0,1,1.659-.96,1.655,1.655,0,0,1,1.638,1.809v3.279H177.36V67.046a1.013,1.013,0,0,0-1.01-1.149,1.124,1.124,0,0,0-1,.6c.009.1.019.2.019.3v3.279h-1.138V67.046a1.014,1.014,0,0,0-1.01-1.149,1.126,1.126,0,0,0-.989.58v3.6H171.1Z" transform="translate(-119.741 -24.044)"></path>
        <path class="cls-4" d="M179.862,65.067h1.11v.71a1.934,1.934,0,0,1,1.559-.75,2.563,2.563,0,0,1-.07,5.1,1.883,1.883,0,0,1-1.469-.64v2.679h-1.13Zm3.819,2.509a1.514,1.514,0,0,0-1.489-1.6,1.484,1.484,0,0,0-1.2.56v2.088a1.543,1.543,0,0,0,1.2.56A1.511,1.511,0,0,0,183.681,67.576Z" transform="translate(-119.741 -24.044)"></path>
        <path class="cls-4" d="M185.973,62.909l1.129-.2v7.366h-1.129Z" transform="translate(-119.741 -24.044)"></path>
        <path class="cls-4" d="M188.353,63.358a.7.7,0,0,1,.7-.7.708.708,0,0,1,.7.7.7.7,0,0,1-.7.69A.693.693,0,0,1,188.353,63.358Zm.13,1.709h1.128v5.008h-1.128Z" transform="translate(-119.741 -24.044)"></path>
        <path class="cls-4" d="M190.753,68.636c0-.9.739-1.469,1.919-1.469a2.939,2.939,0,0,1,1.349.319v-.56c0-.659-.38-1-1.15-1a3.462,3.462,0,0,0-1.459.39l-.4-.82a4.948,4.948,0,0,1,2.078-.51c1.31,0,2.049.66,2.049,1.82v3.268h-1.119v-.52a2.023,2.023,0,0,1-1.49.61A1.6,1.6,0,0,1,190.753,68.636Zm2.089.729a1.744,1.744,0,0,0,1.179-.42v-.809a2.578,2.578,0,0,0-1.15-.24c-.649,0-1.059.27-1.059.72S192.212,69.365,192.842,69.365Z" transform="translate(-119.741 -24.044)"></path>
        <path class="cls-4" d="M196.513,65.067h1.129v.82a1.824,1.824,0,0,1,1.579-.9,1.69,1.69,0,0,1,1.749,1.789v3.3h-1.14V67.1a1.078,1.078,0,0,0-1.1-1.2,1.247,1.247,0,0,0-1.09.61v3.568h-1.129Z" transform="translate(-119.741 -24.044)"></path>
        <path class="cls-4" d="M202.1,67.576a2.526,2.526,0,0,1,2.528-2.589,2.708,2.708,0,0,1,2,.85l-.7.729a1.66,1.66,0,0,0-1.26-.589,1.608,1.608,0,0,0,0,3.2,1.683,1.683,0,0,0,1.26-.579l.7.719a2.708,2.708,0,0,1-2,.85A2.52,2.52,0,0,1,202.1,67.576Z" transform="translate(-119.741 -24.044)"></path>
        <path class="cls-4" d="M207.183,67.576a2.472,2.472,0,0,1,2.438-2.589,2.407,2.407,0,0,1,2.368,2.589v.27h-3.7a1.533,1.533,0,0,0,1.5,1.4,1.67,1.67,0,0,0,1.19-.47l.739.67a2.9,2.9,0,0,1-1.979.73A2.541,2.541,0,0,1,207.183,67.576Zm3.737-.43a1.362,1.362,0,0,0-1.309-1.239,1.345,1.345,0,0,0-1.309,1.239Z" transform="translate(-119.741 -24.044)"></path>
        <path class="cls-4" d="M215.532,63.079h3.128a2.17,2.17,0,1,1,0,4.327h-1.928v2.669h-1.2Zm2.939,3.348a1.177,1.177,0,1,0,.01-2.339h-1.749v2.339Z" transform="translate(-119.741 -24.044)"></path>
        <path class="cls-4" d="M222.152,65.067h1.129v1.08a1.5,1.5,0,0,1,1.379-1.169,1.3,1.3,0,0,1,.491.1v.989a1.805,1.805,0,0,0-.621-.12,1.366,1.366,0,0,0-1.249.829v3.3h-1.129Z" transform="translate(-119.741 -24.044)"></path>
        <path class="cls-4" d="M225.622,67.576a2.515,2.515,0,1,1,2.519,2.589A2.5,2.5,0,0,1,225.622,67.576Zm3.918,0a1.42,1.42,0,1,0-1.4,1.629A1.485,1.485,0,0,0,229.54,67.576Z" transform="translate(-119.741 -24.044)"></path>
        <path class="cls-4" d="M232.272,65.967h-1.079v-.9h1.079v-.859A1.532,1.532,0,0,1,234,62.529a2.7,2.7,0,0,1,.75.09v.959a2.759,2.759,0,0,0-.6-.07c-.52,0-.75.23-.75.72v.839h1.349v.9H233.4v4.108h-1.129Z" transform="translate(-119.741 -24.044)"></path>
        <path class="cls-4" d="M235.562,63.358a.7.7,0,1,1,.7.69A.693.693,0,0,1,235.562,63.358Zm.13,1.709h1.129v5.008h-1.129Z" transform="translate(-119.741 -24.044)"></path>
        <path class="cls-4" d="M238.221,62.909l1.13-.2v7.366h-1.13Z" transform="translate(-119.741 -24.044)"></path>
        <path class="cls-4" d="M240.512,67.576a2.472,2.472,0,0,1,2.438-2.589,2.407,2.407,0,0,1,2.369,2.589v.27h-3.7a1.534,1.534,0,0,0,1.5,1.4,1.668,1.668,0,0,0,1.19-.47l.739.67a2.894,2.894,0,0,1-1.979.73A2.541,2.541,0,0,1,240.512,67.576Zm3.738-.43a1.363,1.363,0,0,0-1.309-1.239,1.345,1.345,0,0,0-1.31,1.239Z" transform="translate(-119.741 -24.044)"></path>
      </g>
      <circle class="cls-5" cx="7.5" cy="7.5" r="7.5"></circle>
      <g>
        <path class="cls-4" d="M142.886,34.365l.879-1.269a3.844,3.844,0,0,0,2.269.929c.74,0,1.189-.3,1.189-.739,0-.41-.239-.61-.919-.73l-1.489-.26a1.843,1.843,0,0,1-1.719-1.879c0-1.359,1.039-2.209,2.778-2.209a4.747,4.747,0,0,1,2.868.92l-.869,1.249a3.338,3.338,0,0,0-2.089-.77c-.679,0-1.069.28-1.069.66,0,.36.229.54.789.64l1.4.24c1.31.22,2,.909,2,1.978,0,1.37-1.159,2.3-2.988,2.3A4.959,4.959,0,0,1,142.886,34.365Z" transform="translate(-119.741 -24.044)"></path>
        <path class="cls-4" d="M149.745,32.746a2.585,2.585,0,0,1,2.6-2.669,2.532,2.532,0,0,1,2.539,2.729v.35h-3.549a1.239,1.239,0,0,0,1.21.969,1.278,1.278,0,0,0,1.02-.43l1.069.89a3.01,3.01,0,0,1-2.169.83A2.667,2.667,0,0,1,149.745,32.746Zm3.638-.51a1.082,1.082,0,0,0-1.049-.9,1.016,1.016,0,0,0-1,.9Z" transform="translate(-119.741 -24.044)"></path>
        <path class="cls-4" d="M155.9,28.2l1.618-.249v7.365H155.9Z" transform="translate(-119.741 -24.044)"></path>
        <path class="cls-4" d="M158.545,32.746a2.585,2.585,0,0,1,2.6-2.669,2.532,2.532,0,0,1,2.539,2.729v.35h-3.549a1.238,1.238,0,0,0,1.21.969,1.275,1.275,0,0,0,1.019-.43l1.07.89a3.01,3.01,0,0,1-2.169.83A2.667,2.667,0,0,1,158.545,32.746Zm3.638-.51a1.083,1.083,0,0,0-1.049-.9,1.016,1.016,0,0,0-1,.9Z" transform="translate(-119.741 -24.044)"></path>
        <path class="cls-4" d="M164.516,32.746a2.625,2.625,0,0,1,2.668-2.669,2.792,2.792,0,0,1,2.149.95l-.99.989a1.346,1.346,0,0,0-1.1-.559,1.3,1.3,0,0,0,0,2.578,1.348,1.348,0,0,0,1.1-.559l.99.989a2.792,2.792,0,0,1-2.149.95A2.625,2.625,0,0,1,164.516,32.746Z" transform="translate(-119.741 -24.044)"></path>
        <path class="cls-4" d="M170.914,33.755V31.407h-1v-1.25h1V28.728l1.619-.33v1.759h1.38v1.25h-1.38v2.029c0,.459.18.619.68.619a2.17,2.17,0,0,0,.66-.11v1.309a4.507,4.507,0,0,1-1.109.161C171.544,35.415,170.914,34.854,170.914,33.755Z" transform="translate(-119.741 -24.044)"></path>
      </g>
      <path class="cls-2" d="M127.151,28.963l-1.116.477v-.873l1.477-.639h.621v6.3h-.982Z" transform="translate(-119.741 -24.044)"></path>
    </g>
  </g>
  <g id="Specify">
    <g>
      <rect class="cls-1" x="1.168" y="96.627" width="161.307" height="42.029"></rect>
      <g>
        <line class="cls-3" x1="81.821" y1="138.656" x2="81.821" y2="166.791"></line>
        <polygon class="cls-4" points="78.081 165.697 81.821 172.174 85.561 165.697 78.081 165.697"></polygon>
      </g>
      <g>
        <path class="cls-4" d="M154.948,143.99l.651-.879a3.5,3.5,0,0,0,2.358,1.019c.919,0,1.559-.469,1.559-1.119,0-.57-.339-.84-1.269-1l-1.29-.219c-1.209-.22-1.8-.82-1.8-1.779,0-1.27,1.01-2.109,2.579-2.109a4.665,4.665,0,0,1,2.809.9l-.61.9a3.671,3.671,0,0,0-2.239-.81c-.839,0-1.4.43-1.4,1,0,.509.32.769,1.079.889l1.25.21c1.409.25,2.068.869,2.068,1.929,0,1.289-1.139,2.2-2.808,2.2A4.406,4.406,0,0,1,154.948,143.99Z" transform="translate(-119.741 -24.044)"></path>
        <path class="cls-4" d="M161.649,142.511a2.526,2.526,0,0,1,2.528-2.589,2.708,2.708,0,0,1,2,.85l-.7.729a1.661,1.661,0,0,0-1.26-.589,1.608,1.608,0,0,0,0,3.2,1.685,1.685,0,0,0,1.26-.579l.7.719a2.708,2.708,0,0,1-2,.85A2.52,2.52,0,0,1,161.649,142.511Z" transform="translate(-119.741 -24.044)"></path>
        <path class="cls-4" d="M166.849,143.571c0-.9.739-1.469,1.919-1.469a2.935,2.935,0,0,1,1.348.319v-.56c0-.659-.38-1-1.149-1a3.462,3.462,0,0,0-1.459.39l-.4-.82a4.948,4.948,0,0,1,2.078-.51c1.309,0,2.048.66,2.048,1.82v3.268h-1.119v-.52a2.019,2.019,0,0,1-1.489.61A1.594,1.594,0,0,1,166.849,143.571Zm2.089.729a1.741,1.741,0,0,0,1.178-.42v-.809a2.571,2.571,0,0,0-1.149-.24c-.649,0-1.06.27-1.06.72S168.308,144.3,168.938,144.3Z" transform="translate(-119.741 -24.044)"></path>
        <path class="cls-4" d="M172.609,140h1.128v.82a1.826,1.826,0,0,1,1.58-.9,1.69,1.69,0,0,1,1.749,1.789v3.3h-1.14v-2.979a1.078,1.078,0,0,0-1.1-1.2,1.248,1.248,0,0,0-1.09.61v3.568h-1.128Z" transform="translate(-119.741 -24.044)"></path>
        <path class="cls-4" d="M177.968,143.99l.65-.879a3.5,3.5,0,0,0,2.359,1.019c.919,0,1.558-.469,1.558-1.119,0-.57-.339-.84-1.268-1l-1.29-.219c-1.209-.22-1.8-.82-1.8-1.779,0-1.27,1.01-2.109,2.579-2.109a4.665,4.665,0,0,1,2.809.9l-.611.9a3.666,3.666,0,0,0-2.238-.81c-.84,0-1.4.43-1.4,1,0,.509.32.769,1.079.889l1.25.21c1.409.25,2.068.869,2.068,1.929,0,1.289-1.14,2.2-2.809,2.2A4.406,4.406,0,0,1,177.968,143.99Z" transform="translate(-119.741 -24.044)"></path>
        <path class="cls-4" d="M184.668,142.511a2.473,2.473,0,0,1,2.439-2.589,2.407,2.407,0,0,1,2.368,2.589v.27h-3.7a1.533,1.533,0,0,0,1.5,1.4,1.668,1.668,0,0,0,1.19-.47l.739.67a2.893,2.893,0,0,1-1.978.73A2.542,2.542,0,0,1,184.668,142.511Zm3.737-.429a1.361,1.361,0,0,0-1.308-1.24,1.346,1.346,0,0,0-1.31,1.24Z" transform="translate(-119.741 -24.044)"></path>
        <path class="cls-4" d="M191.1,143.71V140.9h-1V140h1v-1.379l1.129-.24V140h1.389v.9h-1.389v2.558c0,.49.19.68.7.68a2.146,2.146,0,0,0,.68-.119v.949a3.554,3.554,0,0,1-.97.14C191.627,145.11,191.1,144.63,191.1,143.71Z" transform="translate(-119.741 -24.044)"></path>
        <path class="cls-4" d="M195.337,143.71V140.9h-1V140h1v-1.379l1.13-.24V140h1.389v.9h-1.389v2.558c0,.49.189.68.7.68a2.142,2.142,0,0,0,.68-.119v.949a3.554,3.554,0,0,1-.97.14C195.867,145.11,195.337,144.63,195.337,143.71Z" transform="translate(-119.741 -24.044)"></path>
        <path class="cls-4" d="M198.718,138.293a.7.7,0,0,1,.7-.7.708.708,0,0,1,.7.7.7.7,0,0,1-.7.69A.693.693,0,0,1,198.718,138.293Zm.13,1.709h1.129v5.008h-1.129Z" transform="translate(-119.741 -24.044)"></path>
        <path class="cls-4" d="M201.378,140h1.129v.82a1.825,1.825,0,0,1,1.579-.9,1.69,1.69,0,0,1,1.749,1.789v3.3H204.7v-2.979a1.078,1.078,0,0,0-1.1-1.2,1.248,1.248,0,0,0-1.09.61v3.568h-1.129Z" transform="translate(-119.741 -24.044)"></path>
        <path class="cls-4" d="M207.527,146.709l.39-.83a3.453,3.453,0,0,0,1.569.42c.84,0,1.28-.38,1.28-1.11v-.849a1.958,1.958,0,0,1-1.539.7,2.552,2.552,0,0,1,.08-5.078,1.877,1.877,0,0,1,1.469.67V140H211.9v5.187c0,1.29-.839,2.01-2.359,2.01A4.357,4.357,0,0,1,207.527,146.709Zm3.239-3.158v-2.1a1.554,1.554,0,0,0-1.19-.54,1.594,1.594,0,1,0,1.19,2.639Z" transform="translate(-119.741 -24.044)"></path>
        <path class="cls-4" d="M213.427,138.014h3.119c1.309,0,2.2.749,2.2,1.839a1.649,1.649,0,0,1-1.139,1.549,1.742,1.742,0,0,1,1.38,1.659,2.041,2.041,0,0,1-2.309,1.949h-3.249Zm2.989,2.948a.994.994,0,1,0,0-1.969h-1.789v1.969Zm.11,3.068a1.1,1.1,0,0,0,1.249-1.079c0-.65-.48-1.07-1.249-1.07h-1.9v2.149Z" transform="translate(-119.741 -24.044)"></path>
        <path class="cls-4" d="M220.108,138.293a.7.7,0,0,1,.7-.7.708.708,0,0,1,.7.7.7.7,0,0,1-.7.69A.693.693,0,0,1,220.108,138.293Zm.129,1.709h1.129v5.008h-1.129Z" transform="translate(-119.741 -24.044)"></path>
        <path class="cls-4" d="M222.768,140H223.9v.82a1.823,1.823,0,0,1,1.579-.9,1.69,1.69,0,0,1,1.749,1.789v3.3h-1.14v-2.979a1.078,1.078,0,0,0-1.1-1.2,1.245,1.245,0,0,0-1.089.61v3.568h-1.129Z" transform="translate(-119.741 -24.044)"></path>
        <path class="cls-4" d="M228.358,142.511a2.426,2.426,0,0,1,2.338-2.549,1.916,1.916,0,0,1,1.459.65v-2.768l1.129-.2v7.366h-1.119v-.66a1.954,1.954,0,0,1-1.549.71A2.4,2.4,0,0,1,228.358,142.511Zm3.8,1.05v-2.109a1.552,1.552,0,0,0-1.189-.54,1.6,1.6,0,0,0,0,3.2A1.473,1.473,0,0,0,232.155,143.561Z" transform="translate(-119.741 -24.044)"></path>
        <path class="cls-4" d="M234.547,138.293a.7.7,0,1,1,.7.69A.694.694,0,0,1,234.547,138.293Zm.13,1.709h1.13v5.008h-1.13Z" transform="translate(-119.741 -24.044)"></path>
        <path class="cls-4" d="M237.206,140h1.13v.82a1.825,1.825,0,0,1,1.579-.9,1.69,1.69,0,0,1,1.749,1.789v3.3h-1.139v-2.979a1.079,1.079,0,0,0-1.1-1.2,1.247,1.247,0,0,0-1.089.61v3.568h-1.13Z" transform="translate(-119.741 -24.044)"></path>
        <path class="cls-4" d="M243.357,146.709l.389-.83a3.457,3.457,0,0,0,1.57.42c.839,0,1.279-.38,1.279-1.11v-.849a1.955,1.955,0,0,1-1.539.7,2.552,2.552,0,0,1,.08-5.078,1.875,1.875,0,0,1,1.469.67V140h1.12v5.187c0,1.29-.84,2.01-2.36,2.01A4.35,4.35,0,0,1,243.357,146.709Zm3.238-3.158v-2.1a1.554,1.554,0,0,0-1.19-.54,1.594,1.594,0,1,0,1.19,2.639Z" transform="translate(-119.741 -24.044)"></path>
      </g>
      <circle class="cls-5" cx="7.5" cy="83.706" r="7.5"></circle>
      <g>
        <path class="cls-4" d="M142.886,110.571l.879-1.269a3.844,3.844,0,0,0,2.269.929c.74,0,1.189-.3,1.189-.739,0-.41-.239-.61-.919-.73l-1.489-.26a1.843,1.843,0,0,1-1.719-1.879c0-1.359,1.039-2.208,2.778-2.208a4.747,4.747,0,0,1,2.868.919l-.869,1.249a3.338,3.338,0,0,0-2.089-.77c-.679,0-1.069.28-1.069.66,0,.36.229.54.789.64l1.4.24c1.31.22,2,.909,2,1.979,0,1.369-1.159,2.3-2.988,2.3A4.959,4.959,0,0,1,142.886,110.571Z" transform="translate(-119.741 -24.044)"></path>
        <path class="cls-4" d="M149.875,106.363h1.6v.72a1.9,1.9,0,0,1,1.528-.75,2.458,2.458,0,0,1,2.279,2.619,2.486,2.486,0,0,1-2.4,2.6,1.8,1.8,0,0,1-1.39-.6v2.658h-1.619Zm3.818,2.579a1.219,1.219,0,0,0-1.229-1.269,1.249,1.249,0,0,0-.97.419v1.72a1.331,1.331,0,0,0,.97.409A1.216,1.216,0,0,0,153.693,108.942Z" transform="translate(-119.741 -24.044)"></path>
        <path class="cls-4" d="M156.085,108.952a2.585,2.585,0,0,1,2.6-2.669,2.532,2.532,0,0,1,2.539,2.729v.35h-3.549a1.238,1.238,0,0,0,1.21.969,1.275,1.275,0,0,0,1.019-.43l1.07.89a3.01,3.01,0,0,1-2.169.83A2.667,2.667,0,0,1,156.085,108.952Zm3.638-.51a1.083,1.083,0,0,0-1.049-.9,1.016,1.016,0,0,0-1,.9Z" transform="translate(-119.741 -24.044)"></path>
        <path class="cls-4" d="M162.056,108.952a2.625,2.625,0,0,1,2.668-2.669,2.792,2.792,0,0,1,2.149.95l-.99.989a1.348,1.348,0,0,0-1.1-.559,1.3,1.3,0,0,0,0,2.578,1.348,1.348,0,0,0,1.1-.559l.99.989a2.792,2.792,0,0,1-2.149.95A2.625,2.625,0,0,1,162.056,108.952Z" transform="translate(-119.741 -24.044)"></path>
        <path class="cls-4" d="M167.575,104.664a.91.91,0,1,1,.91.91A.913.913,0,0,1,167.575,104.664Zm.1,1.7h1.619v5.158h-1.619Z" transform="translate(-119.741 -24.044)"></path>
        <path class="cls-4" d="M171.315,107.613h-1.07v-1.25h1.07v-.679c0-1.229.729-1.9,2.058-1.9a3.7,3.7,0,0,1,.86.1v1.329a3.249,3.249,0,0,0-.621-.06c-.459,0-.678.18-.678.56v.649h1.3v1.25h-1.3v3.908h-1.619Z" transform="translate(-119.741 -24.044)"></path>
        <path class="cls-4" d="M175.145,113.629V112.27a2.972,2.972,0,0,0,.479.04.826.826,0,0,0,.84-.519l.08-.17-1.9-5.258h1.789l1.03,3.328,1.179-3.328h1.749l-2.319,5.737a2.123,2.123,0,0,1-2.258,1.609A3.28,3.28,0,0,1,175.145,113.629Z" transform="translate(-119.741 -24.044)"></path>
      </g>
      <path class="cls-2" d="M125.136,110.061l2.584-2.7a1.67,1.67,0,0,0,.612-1.206,1.023,1.023,0,0,0-1.143-.919,2.261,2.261,0,0,0-1.639.765l-.559-.675a3.209,3.209,0,0,1,2.215-.954c1.234,0,2.08.7,2.08,1.729a2.4,2.4,0,0,1-.891,1.764l-2.008,2.071,3.016-.009v.846h-4.267Z" transform="translate(-119.741 -24.044)"></path>
    </g>
  </g>
  <g id="Scan">
    <g>
      <rect class="cls-6" x="1.168" y="172.711" width="371.35" height="77.769"></rect>
      <polyline class="cls-7" points="171.797 218.082 187.05 218.082 187.05 308.895"></polyline>
      <rect class="cls-1" x="11.168" y="199.068" width="160.629" height="42.029"></rect>
      <rect class="cls-1" x="201.21" y="199.068" width="161.307" height="42.029"></rect>
      <g>
        <path class="cls-4" d="M131.43,209.39a3.565,3.565,0,0,1,3.618-3.608,3.515,3.515,0,0,1,2.728,1.249l-.8.78a2.452,2.452,0,0,0-1.929-.95,2.533,2.533,0,0,0,0,5.058,2.452,2.452,0,0,0,1.929-.95l.8.78A3.512,3.512,0,0,1,135.048,213,3.565,3.565,0,0,1,131.43,209.39Z" transform="translate(-119.741 -24.044)"></path>
        <path class="cls-4" d="M138.47,210.39a2.515,2.515,0,1,1,2.518,2.588A2.494,2.494,0,0,1,138.47,210.39Zm3.918,0a1.42,1.42,0,1,0-1.4,1.629A1.486,1.486,0,0,0,142.388,210.39Z" transform="translate(-119.741 -24.044)"></path>
        <path class="cls-4" d="M144.669,207.881h1.13v.789a1.714,1.714,0,0,1,1.478-.869,1.56,1.56,0,0,1,1.48.959,1.869,1.869,0,0,1,1.659-.959,1.656,1.656,0,0,1,1.639,1.809v3.278h-1.129V209.86a1.014,1.014,0,0,0-1.01-1.15,1.124,1.124,0,0,0-1,.6c.01.1.02.2.02.3v3.278H147.8V209.86a1.014,1.014,0,0,0-1.01-1.15,1.126,1.126,0,0,0-.989.58v3.6h-1.13Z" transform="translate(-119.741 -24.044)"></path>
        <path class="cls-4" d="M153.429,207.881h1.109v.709a1.938,1.938,0,0,1,1.56-.749,2.563,2.563,0,0,1-.071,5.1,1.881,1.881,0,0,1-1.468-.64v2.679h-1.13Zm3.818,2.509a1.513,1.513,0,0,0-1.489-1.6,1.481,1.481,0,0,0-1.2.559v2.089a1.541,1.541,0,0,0,1.2.56A1.511,1.511,0,0,0,157.247,210.39Z" transform="translate(-119.741 -24.044)"></path>
        <path class="cls-4" d="M159.539,205.722l1.129-.2v7.366h-1.129Z" transform="translate(-119.741 -24.044)"></path>
        <path class="cls-4" d="M161.919,206.172a.7.7,0,1,1,.7.689A.693.693,0,0,1,161.919,206.172Zm.13,1.709h1.129v5.007h-1.129Z" transform="translate(-119.741 -24.044)"></path>
        <path class="cls-4" d="M164.319,211.449c0-.9.74-1.469,1.919-1.469a2.938,2.938,0,0,1,1.349.32v-.56c0-.66-.38-1-1.149-1a3.462,3.462,0,0,0-1.459.39l-.4-.819a4.948,4.948,0,0,1,2.078-.51c1.31,0,2.049.659,2.049,1.819v3.268h-1.119v-.519a2.024,2.024,0,0,1-1.489.609A1.6,1.6,0,0,1,164.319,211.449Zm2.089.73a1.742,1.742,0,0,0,1.179-.42v-.81a2.574,2.574,0,0,0-1.149-.24c-.65,0-1.06.27-1.06.72S165.778,212.179,166.408,212.179Z" transform="translate(-119.741 -24.044)"></path>
        <path class="cls-4" d="M170.079,207.881h1.129v.82a1.825,1.825,0,0,1,1.579-.9,1.69,1.69,0,0,1,1.749,1.789v3.3H173.4V209.91a1.079,1.079,0,0,0-1.1-1.2,1.248,1.248,0,0,0-1.09.61v3.568h-1.129Z" transform="translate(-119.741 -24.044)"></path>
        <path class="cls-4" d="M175.669,210.39A2.526,2.526,0,0,1,178.2,207.8a2.709,2.709,0,0,1,2,.849l-.7.73a1.655,1.655,0,0,0-1.26-.589,1.608,1.608,0,0,0,0,3.2,1.679,1.679,0,0,0,1.26-.58l.7.719a2.706,2.706,0,0,1-2,.85A2.52,2.52,0,0,1,175.669,210.39Z" transform="translate(-119.741 -24.044)"></path>
        <path class="cls-4" d="M180.749,210.39a2.473,2.473,0,0,1,2.439-2.589,2.407,2.407,0,0,1,2.368,2.589v.269h-3.7a1.532,1.532,0,0,0,1.5,1.4,1.668,1.668,0,0,0,1.189-.47l.739.669a2.891,2.891,0,0,1-1.978.73A2.541,2.541,0,0,1,180.749,210.39Zm3.737-.43a1.36,1.36,0,0,0-1.308-1.239,1.345,1.345,0,0,0-1.31,1.239Z" transform="translate(-119.741 -24.044)"></path>
        <path class="cls-4" d="M186.249,211.869l.65-.88a3.5,3.5,0,0,0,2.358,1.02c.92,0,1.56-.47,1.56-1.12,0-.569-.34-.839-1.27-1l-1.289-.22c-1.209-.22-1.8-.819-1.8-1.779,0-1.269,1.009-2.109,2.578-2.109a4.663,4.663,0,0,1,2.809.9l-.61.9a3.668,3.668,0,0,0-2.239-.81c-.839,0-1.4.43-1.4,1,0,.51.319.77,1.079.89l1.249.21c1.409.249,2.069.869,2.069,1.928,0,1.29-1.139,2.2-2.808,2.2A4.41,4.41,0,0,1,186.249,211.869Z" transform="translate(-119.741 -24.044)"></path>
        <path class="cls-4" d="M193.038,211.179v-3.3h1.14v2.968a1.082,1.082,0,0,0,1.1,1.21,1.247,1.247,0,0,0,1.089-.6v-3.578h1.13v5.007h-1.13v-.809a1.808,1.808,0,0,1-1.589.889A1.693,1.693,0,0,1,193.038,211.179Z" transform="translate(-119.741 -24.044)"></path>
        <path class="cls-4" d="M198.758,206.172a.7.7,0,1,1,.7.689A.693.693,0,0,1,198.758,206.172Zm.13,1.709h1.13v5.007h-1.13Z" transform="translate(-119.741 -24.044)"></path>
        <path class="cls-4" d="M202.038,211.589V208.78h-1v-.9h1V206.5l1.129-.239v1.619h1.39v.9h-1.39v2.559c0,.49.191.68.7.68a2.119,2.119,0,0,0,.68-.12v.949a3.554,3.554,0,0,1-.97.14C202.568,212.988,202.038,212.508,202.038,211.589Z" transform="translate(-119.741 -24.044)"></path>
        <path class="cls-4" d="M205.248,210.39a2.473,2.473,0,0,1,2.439-2.589,2.407,2.407,0,0,1,2.369,2.589v.269h-3.7a1.533,1.533,0,0,0,1.5,1.4,1.666,1.666,0,0,0,1.189-.47l.739.669a2.891,2.891,0,0,1-1.978.73A2.541,2.541,0,0,1,205.248,210.39Zm3.738-.43a1.361,1.361,0,0,0-1.309-1.239,1.345,1.345,0,0,0-1.31,1.239Z" transform="translate(-119.741 -24.044)"></path>
      </g>
      <g>
        <path class="cls-4" d="M172.68,243.953a3.565,3.565,0,0,1,3.618-3.608,3.512,3.512,0,0,1,2.728,1.249l-.8.78a2.452,2.452,0,0,0-1.929-.95,2.533,2.533,0,0,0,0,5.057,2.454,2.454,0,0,0,1.929-.949l.8.78a3.515,3.515,0,0,1-2.728,1.249A3.565,3.565,0,0,1,172.68,243.953Z" transform="translate(-119.741 -24.044)"></path>
        <path class="cls-4" d="M179.72,244.952a2.515,2.515,0,1,1,2.518,2.589A2.494,2.494,0,0,1,179.72,244.952Zm3.918,0a1.42,1.42,0,1,0-1.4,1.629A1.486,1.486,0,0,0,183.638,244.952Z" transform="translate(-119.741 -24.044)"></path>
        <path class="cls-4" d="M185.919,242.443h1.13v.79a1.713,1.713,0,0,1,1.478-.87,1.559,1.559,0,0,1,1.48.96,1.868,1.868,0,0,1,1.659-.96,1.656,1.656,0,0,1,1.639,1.809v3.279h-1.129v-3.029a1.013,1.013,0,0,0-1.01-1.149,1.124,1.124,0,0,0-1,.6c.01.1.02.2.02.3v3.279h-1.139v-3.029a1.014,1.014,0,0,0-1.01-1.149,1.126,1.126,0,0,0-.989.58v3.6h-1.13Z" transform="translate(-119.741 -24.044)"></path>
        <path class="cls-4" d="M194.679,242.443h1.109v.71a1.936,1.936,0,0,1,1.56-.75,2.563,2.563,0,0,1-.071,5.1,1.88,1.88,0,0,1-1.468-.639v2.679h-1.13Zm3.818,2.509a1.513,1.513,0,0,0-1.489-1.6,1.482,1.482,0,0,0-1.2.56V246a1.541,1.541,0,0,0,1.2.56A1.511,1.511,0,0,0,198.5,244.952Z" transform="translate(-119.741 -24.044)"></path>
        <path class="cls-4" d="M200.789,240.285l1.129-.2v7.366h-1.129Z" transform="translate(-119.741 -24.044)"></path>
        <path class="cls-4" d="M203.169,240.734a.7.7,0,1,1,.7.69A.693.693,0,0,1,203.169,240.734Zm.13,1.709h1.129v5.008H203.3Z" transform="translate(-119.741 -24.044)"></path>
        <path class="cls-4" d="M205.569,246.012c0-.9.74-1.47,1.919-1.47a2.938,2.938,0,0,1,1.349.32v-.56c0-.659-.38-1-1.149-1a3.462,3.462,0,0,0-1.459.39l-.4-.82a4.948,4.948,0,0,1,2.078-.51c1.31,0,2.049.66,2.049,1.82v3.268h-1.119v-.52a2.021,2.021,0,0,1-1.489.61A1.6,1.6,0,0,1,205.569,246.012Zm2.089.729a1.742,1.742,0,0,0,1.179-.42v-.809a2.574,2.574,0,0,0-1.149-.24c-.65,0-1.06.27-1.06.72S207.028,246.741,207.658,246.741Z" transform="translate(-119.741 -24.044)"></path>
        <path class="cls-4" d="M211.329,242.443h1.129v.82a1.825,1.825,0,0,1,1.579-.9,1.69,1.69,0,0,1,1.749,1.789v3.3h-1.139v-2.979a1.078,1.078,0,0,0-1.1-1.2,1.248,1.248,0,0,0-1.09.61v3.568h-1.129Z" transform="translate(-119.741 -24.044)"></path>
        <path class="cls-4" d="M216.919,244.952a2.527,2.527,0,0,1,2.528-2.589,2.706,2.706,0,0,1,2,.85l-.7.729a1.658,1.658,0,0,0-1.26-.589,1.608,1.608,0,0,0,0,3.2,1.682,1.682,0,0,0,1.26-.579l.7.719a2.706,2.706,0,0,1-2,.85A2.521,2.521,0,0,1,216.919,244.952Z" transform="translate(-119.741 -24.044)"></path>
        <path class="cls-4" d="M222,244.952a2.473,2.473,0,0,1,2.439-2.589,2.407,2.407,0,0,1,2.368,2.589v.27h-3.7a1.532,1.532,0,0,0,1.5,1.4,1.668,1.668,0,0,0,1.189-.47l.739.67a2.891,2.891,0,0,1-1.978.73A2.542,2.542,0,0,1,222,244.952Zm3.737-.43a1.36,1.36,0,0,0-1.308-1.239,1.345,1.345,0,0,0-1.31,1.239Z" transform="translate(-119.741 -24.044)"></path>
        <path class="cls-4" d="M227.5,246.431l.65-.879a3.5,3.5,0,0,0,2.358,1.019c.92,0,1.56-.469,1.56-1.119,0-.57-.34-.84-1.27-1l-1.289-.22c-1.209-.219-1.8-.819-1.8-1.778,0-1.27,1.009-2.109,2.578-2.109a4.663,4.663,0,0,1,2.809.9l-.61.9a3.668,3.668,0,0,0-2.239-.81c-.839,0-1.4.43-1.4,1,0,.51.319.77,1.079.89l1.249.21c1.409.25,2.069.869,2.069,1.929,0,1.289-1.139,2.2-2.808,2.2A4.406,4.406,0,0,1,227.5,246.431Z" transform="translate(-119.741 -24.044)"></path>
        <path class="cls-4" d="M234.2,244.952a2.527,2.527,0,0,1,2.53-2.589,2.7,2.7,0,0,1,2,.85l-.7.729a1.655,1.655,0,0,0-1.259-.589,1.608,1.608,0,0,0,0,3.2,1.678,1.678,0,0,0,1.259-.579l.7.719a2.7,2.7,0,0,1-2,.85A2.521,2.521,0,0,1,234.2,244.952Z" transform="translate(-119.741 -24.044)"></path>
        <path class="cls-4" d="M239.4,246.012c0-.9.739-1.47,1.919-1.47a2.936,2.936,0,0,1,1.348.32v-.56c0-.659-.379-1-1.149-1a3.459,3.459,0,0,0-1.458.39l-.4-.82a4.956,4.956,0,0,1,2.079-.51c1.309,0,2.049.66,2.049,1.82v3.268h-1.12v-.52a2.02,2.02,0,0,1-1.488.61A1.6,1.6,0,0,1,239.4,246.012Zm2.088.729a1.742,1.742,0,0,0,1.179-.42v-.809a2.571,2.571,0,0,0-1.149-.24c-.649,0-1.059.27-1.059.72S240.858,246.741,241.487,246.741Z" transform="translate(-119.741 -24.044)"></path>
        <path class="cls-4" d="M245.157,242.443h1.13v.82a1.825,1.825,0,0,1,1.579-.9,1.69,1.69,0,0,1,1.749,1.789v3.3h-1.139v-2.979a1.079,1.079,0,0,0-1.1-1.2,1.247,1.247,0,0,0-1.089.61v3.568h-1.13Z" transform="translate(-119.741 -24.044)"></path>
      </g>
      <g>
        <path class="cls-4" d="M363.061,243.953a3.565,3.565,0,0,1,3.618-3.608,3.512,3.512,0,0,1,2.728,1.249l-.8.78a2.451,2.451,0,0,0-1.929-.95,2.533,2.533,0,0,0,0,5.057,2.452,2.452,0,0,0,1.929-.949l.8.78a3.515,3.515,0,0,1-2.728,1.249A3.565,3.565,0,0,1,363.061,243.953Z" transform="translate(-119.741 -24.044)"></path>
        <path class="cls-4" d="M370.1,244.952a2.515,2.515,0,1,1,2.518,2.589A2.495,2.495,0,0,1,370.1,244.952Zm3.918,0a1.42,1.42,0,1,0-1.4,1.629A1.486,1.486,0,0,0,374.019,244.952Z" transform="translate(-119.741 -24.044)"></path>
        <path class="cls-4" d="M376.3,242.443h1.129v.79a1.715,1.715,0,0,1,1.479-.87,1.56,1.56,0,0,1,1.48.96,1.866,1.866,0,0,1,1.658-.96,1.656,1.656,0,0,1,1.64,1.809v3.279h-1.13v-3.029a1.013,1.013,0,0,0-1.009-1.149,1.124,1.124,0,0,0-1,.6,2.746,2.746,0,0,1,.02.3v3.279h-1.139v-3.029a1.013,1.013,0,0,0-1.01-1.149,1.128,1.128,0,0,0-.989.58v3.6H376.3Z" transform="translate(-119.741 -24.044)"></path>
        <path class="cls-4" d="M385.061,242.443h1.109v.71a1.931,1.931,0,0,1,1.559-.75,2.563,2.563,0,0,1-.07,5.1,1.883,1.883,0,0,1-1.469-.639v2.679h-1.129Zm3.817,2.509a1.514,1.514,0,0,0-1.489-1.6,1.485,1.485,0,0,0-1.2.56V246a1.543,1.543,0,0,0,1.2.56A1.511,1.511,0,0,0,388.878,244.952Z" transform="translate(-119.741 -24.044)"></path>
        <path class="cls-4" d="M391.17,240.285l1.13-.2v7.366h-1.13Z" transform="translate(-119.741 -24.044)"></path>
        <path class="cls-4" d="M393.55,240.734a.7.7,0,1,1,.7.69A.694.694,0,0,1,393.55,240.734Zm.13,1.709h1.13v5.008h-1.13Z" transform="translate(-119.741 -24.044)"></path>
        <path class="cls-4" d="M395.95,246.012c0-.9.74-1.47,1.919-1.47a2.947,2.947,0,0,1,1.35.32v-.56c0-.659-.38-1-1.15-1a3.466,3.466,0,0,0-1.459.39l-.4-.82a4.953,4.953,0,0,1,2.079-.51c1.31,0,2.049.66,2.049,1.82v3.268h-1.119v-.52a2.022,2.022,0,0,1-1.489.61A1.6,1.6,0,0,1,395.95,246.012Zm2.089.729a1.744,1.744,0,0,0,1.18-.42v-.809a2.578,2.578,0,0,0-1.15-.24c-.649,0-1.059.27-1.059.72S397.409,246.741,398.039,246.741Z" transform="translate(-119.741 -24.044)"></path>
        <path class="cls-4" d="M401.71,242.443h1.13v.82a1.824,1.824,0,0,1,1.579-.9,1.69,1.69,0,0,1,1.749,1.789v3.3h-1.14v-2.979a1.078,1.078,0,0,0-1.1-1.2,1.246,1.246,0,0,0-1.089.61v3.568h-1.13Z" transform="translate(-119.741 -24.044)"></path>
        <path class="cls-4" d="M407.3,244.952a2.527,2.527,0,0,1,2.529-2.589,2.7,2.7,0,0,1,2,.85l-.7.729a1.656,1.656,0,0,0-1.259-.589,1.608,1.608,0,0,0,0,3.2,1.68,1.68,0,0,0,1.259-.579l.7.719a2.7,2.7,0,0,1-2,.85A2.521,2.521,0,0,1,407.3,244.952Z" transform="translate(-119.741 -24.044)"></path>
        <path class="cls-4" d="M412.38,244.952a2.473,2.473,0,0,1,2.438-2.589,2.407,2.407,0,0,1,2.37,2.589v.27h-3.7a1.534,1.534,0,0,0,1.5,1.4,1.667,1.667,0,0,0,1.19-.47l.74.67a2.9,2.9,0,0,1-1.979.73A2.542,2.542,0,0,1,412.38,244.952Zm3.738-.43a1.361,1.361,0,0,0-1.309-1.239,1.344,1.344,0,0,0-1.309,1.239Z" transform="translate(-119.741 -24.044)"></path>
        <path class="cls-4" d="M417.88,246.431l.65-.879a3.5,3.5,0,0,0,2.359,1.019c.919,0,1.558-.469,1.558-1.119,0-.57-.338-.84-1.268-1l-1.29-.22c-1.209-.219-1.8-.819-1.8-1.778,0-1.27,1.01-2.109,2.579-2.109a4.665,4.665,0,0,1,2.809.9l-.611.9a3.666,3.666,0,0,0-2.238-.81c-.84,0-1.4.43-1.4,1,0,.51.32.77,1.079.89l1.25.21c1.409.25,2.068.869,2.068,1.929,0,1.289-1.14,2.2-2.809,2.2A4.408,4.408,0,0,1,417.88,246.431Z" transform="translate(-119.741 -24.044)"></path>
        <path class="cls-4" d="M424.58,244.952a2.527,2.527,0,0,1,2.529-2.589,2.708,2.708,0,0,1,2,.85l-.7.729a1.658,1.658,0,0,0-1.259-.589,1.608,1.608,0,0,0,0,3.2,1.681,1.681,0,0,0,1.259-.579l.7.719a2.708,2.708,0,0,1-2,.85A2.521,2.521,0,0,1,424.58,244.952Z" transform="translate(-119.741 -24.044)"></path>
        <path class="cls-4" d="M429.78,246.012c0-.9.74-1.47,1.919-1.47a2.938,2.938,0,0,1,1.349.32v-.56c0-.659-.379-1-1.149-1a3.466,3.466,0,0,0-1.459.39l-.4-.82a4.949,4.949,0,0,1,2.079-.51c1.309,0,2.049.66,2.049,1.82v3.268h-1.12v-.52a2.02,2.02,0,0,1-1.488.61A1.6,1.6,0,0,1,429.78,246.012Zm2.089.729a1.744,1.744,0,0,0,1.179-.42v-.809a2.571,2.571,0,0,0-1.149-.24c-.65,0-1.06.27-1.06.72S431.239,246.741,431.869,246.741Z" transform="translate(-119.741 -24.044)"></path>
        <path class="cls-4" d="M435.539,242.443h1.13v.82a1.825,1.825,0,0,1,1.579-.9A1.69,1.69,0,0,1,440,244.152v3.3h-1.139v-2.979a1.079,1.079,0,0,0-1.1-1.2,1.247,1.247,0,0,0-1.089.61v3.568h-1.13Z" transform="translate(-119.741 -24.044)"></path>
      </g>
      <circle class="cls-5" cx="7.5" cy="158.645" r="7.5"></circle>
      <g>
        <path class="cls-4" d="M142.886,185.51l.879-1.269a3.844,3.844,0,0,0,2.269.929c.74,0,1.189-.3,1.189-.739,0-.41-.239-.61-.919-.73l-1.489-.26a1.843,1.843,0,0,1-1.719-1.879c0-1.359,1.039-2.208,2.778-2.208a4.747,4.747,0,0,1,2.868.919l-.869,1.249a3.338,3.338,0,0,0-2.089-.77c-.679,0-1.069.28-1.069.66,0,.36.229.54.789.64l1.4.24c1.31.22,2,.909,2,1.979,0,1.369-1.159,2.3-2.988,2.3A4.959,4.959,0,0,1,142.886,185.51Z" transform="translate(-119.741 -24.044)"></path>
        <path class="cls-4" d="M149.745,183.891a2.625,2.625,0,0,1,2.669-2.669,2.791,2.791,0,0,1,2.149.95l-.99.989a1.348,1.348,0,0,0-1.1-.559,1.3,1.3,0,0,0,0,2.578,1.351,1.351,0,0,0,1.1-.559l.99.989a2.791,2.791,0,0,1-2.149.95A2.625,2.625,0,0,1,149.745,183.891Z" transform="translate(-119.741 -24.044)"></path>
        <path class="cls-4" d="M155.125,184.98c0-.949.74-1.5,2.009-1.5a3.359,3.359,0,0,1,1.2.24v-.42c0-.5-.33-.749-1.019-.749a3.844,3.844,0,0,0-1.45.36l-.559-1.13a5.7,5.7,0,0,1,2.368-.56c1.43,0,2.259.71,2.259,1.939v3.3h-1.6v-.449a2.055,2.055,0,0,1-1.43.53A1.605,1.605,0,0,1,155.125,184.98Zm2.279.49a1.762,1.762,0,0,0,.93-.26v-.66a3.871,3.871,0,0,0-.89-.11c-.53,0-.83.181-.83.51S156.9,185.47,157.4,185.47Z" transform="translate(-119.741 -24.044)"></path>
        <path class="cls-4" d="M161.155,181.3h1.619v.84a1.9,1.9,0,0,1,1.629-.92,1.667,1.667,0,0,1,1.709,1.759v3.478h-1.619v-3.008a.859.859,0,0,0-.859-.959,1.041,1.041,0,0,0-.86.429v3.538h-1.619Z" transform="translate(-119.741 -24.044)"></path>
      </g>
      <path class="cls-2" d="M124.825,184.613l.658-.63a2.044,2.044,0,0,0,1.656.711c.819,0,1.378-.423,1.378-1.044a1,1,0,0,0-1.126-.954h-.775v-.829h.694a.914.914,0,0,0,1.008-.936,1.093,1.093,0,0,0-1.2-1,1.934,1.934,0,0,0-1.566.747l-.667-.621a3.03,3.03,0,0,1,2.26-1,1.916,1.916,0,0,1,2.152,1.773,1.53,1.53,0,0,1-1.189,1.432,1.565,1.565,0,0,1,1.4,1.449c0,1.071-.99,1.846-2.35,1.846A3.17,3.17,0,0,1,124.825,184.613Z" transform="translate(-119.741 -24.044)"></path>
    </g>
  </g>
  <g id="Result">
    <g>
      <rect class="cls-1" x="1.168" y="287.964" width="160.629" height="41.862"></rect>
      <g>
        <path class="cls-4" d="M144.71,332.765a3.565,3.565,0,0,1,3.618-3.608,3.517,3.517,0,0,1,2.729,1.249l-.8.78a2.451,2.451,0,0,0-1.929-.95,2.533,2.533,0,0,0,0,5.058,2.451,2.451,0,0,0,1.929-.95l.8.78a3.514,3.514,0,0,1-2.729,1.249A3.565,3.565,0,0,1,144.71,332.765Z" transform="translate(-119.741 -24.044)"></path>
        <path class="cls-4" d="M151.75,333.765a2.515,2.515,0,1,1,2.519,2.588A2.494,2.494,0,0,1,151.75,333.765Zm3.918,0a1.42,1.42,0,1,0-1.4,1.629A1.486,1.486,0,0,0,155.668,333.765Z" transform="translate(-119.741 -24.044)"></path>
        <path class="cls-4" d="M157.949,331.256h1.13v.789a1.714,1.714,0,0,1,1.479-.869,1.56,1.56,0,0,1,1.479.959,1.869,1.869,0,0,1,1.659-.959,1.656,1.656,0,0,1,1.639,1.809v3.278h-1.129v-3.028a1.013,1.013,0,0,0-1.01-1.15,1.124,1.124,0,0,0-1,.6c.01.1.02.2.02.3v3.278h-1.139v-3.028a1.014,1.014,0,0,0-1.01-1.15,1.126,1.126,0,0,0-.989.58v3.6h-1.13Z" transform="translate(-119.741 -24.044)"></path>
        <path class="cls-4" d="M166.709,331.256h1.109v.709a1.938,1.938,0,0,1,1.56-.749,2.563,2.563,0,0,1-.07,5.1,1.882,1.882,0,0,1-1.469-.64v2.679h-1.13Zm3.818,2.509a1.513,1.513,0,0,0-1.489-1.6,1.481,1.481,0,0,0-1.2.559v2.089a1.543,1.543,0,0,0,1.2.56A1.511,1.511,0,0,0,170.527,333.765Z" transform="translate(-119.741 -24.044)"></path>
        <path class="cls-4" d="M172.819,329.1l1.129-.2v7.366h-1.129Z" transform="translate(-119.741 -24.044)"></path>
        <path class="cls-4" d="M175.2,329.547a.7.7,0,0,1,.7-.7.709.709,0,0,1,.7.7.7.7,0,0,1-.7.689A.693.693,0,0,1,175.2,329.547Zm.13,1.709h1.129v5.007h-1.129Z" transform="translate(-119.741 -24.044)"></path>
        <path class="cls-4" d="M177.6,334.824c0-.9.739-1.469,1.919-1.469a2.936,2.936,0,0,1,1.348.32v-.56c0-.66-.38-1-1.149-1a3.462,3.462,0,0,0-1.459.39l-.4-.819a4.948,4.948,0,0,1,2.078-.51c1.309,0,2.048.659,2.048,1.819v3.268h-1.119v-.519a2.022,2.022,0,0,1-1.489.609A1.594,1.594,0,0,1,177.6,334.824Zm2.089.73a1.741,1.741,0,0,0,1.178-.42v-.81a2.571,2.571,0,0,0-1.149-.24c-.65,0-1.06.27-1.06.72S179.059,335.554,179.689,335.554Z" transform="translate(-119.741 -24.044)"></path>
        <path class="cls-4" d="M183.36,331.256h1.128v.82a1.826,1.826,0,0,1,1.58-.9,1.69,1.69,0,0,1,1.749,1.789v3.3h-1.14v-2.978a1.079,1.079,0,0,0-1.1-1.2,1.248,1.248,0,0,0-1.09.61v3.568H183.36Z" transform="translate(-119.741 -24.044)"></path>
        <path class="cls-4" d="M188.949,333.765a2.527,2.527,0,0,1,2.529-2.589,2.711,2.711,0,0,1,2,.849l-.7.73a1.654,1.654,0,0,0-1.259-.589,1.608,1.608,0,0,0,0,3.2,1.679,1.679,0,0,0,1.259-.58l.7.719a2.708,2.708,0,0,1-2,.85A2.52,2.52,0,0,1,188.949,333.765Z" transform="translate(-119.741 -24.044)"></path>
        <path class="cls-4" d="M194.029,333.765a2.473,2.473,0,0,1,2.439-2.589,2.407,2.407,0,0,1,2.368,2.589v.269h-3.7a1.533,1.533,0,0,0,1.5,1.4,1.666,1.666,0,0,0,1.189-.47l.74.669a2.9,2.9,0,0,1-1.979.73A2.541,2.541,0,0,1,194.029,333.765Zm3.738-.43a1.361,1.361,0,0,0-1.309-1.239,1.344,1.344,0,0,0-1.309,1.239Z" transform="translate(-119.741 -24.044)"></path>
        <path class="cls-4" d="M199.8,332.765a3.565,3.565,0,0,1,3.618-3.608,3.518,3.518,0,0,1,2.729,1.249l-.8.78a2.451,2.451,0,0,0-1.929-.95,2.533,2.533,0,0,0,0,5.058,2.451,2.451,0,0,0,1.929-.95l.8.78a3.515,3.515,0,0,1-2.729,1.249A3.565,3.565,0,0,1,199.8,332.765Z" transform="translate(-119.741 -24.044)"></path>
        <path class="cls-4" d="M207.219,329.1l1.13-.2v3.179a1.823,1.823,0,0,1,1.579-.9,1.69,1.69,0,0,1,1.749,1.789v3.3h-1.14v-2.978a1.078,1.078,0,0,0-1.1-1.2,1.246,1.246,0,0,0-1.089.61v3.568h-1.13Z" transform="translate(-119.741 -24.044)"></path>
        <path class="cls-4" d="M212.809,333.765a2.472,2.472,0,0,1,2.438-2.589,2.407,2.407,0,0,1,2.369,2.589v.269h-3.7a1.533,1.533,0,0,0,1.5,1.4,1.668,1.668,0,0,0,1.19-.47l.74.669a2.9,2.9,0,0,1-1.98.73A2.541,2.541,0,0,1,212.809,333.765Zm3.738-.43a1.362,1.362,0,0,0-1.31-1.239,1.344,1.344,0,0,0-1.308,1.239Z" transform="translate(-119.741 -24.044)"></path>
        <path class="cls-4" d="M218.559,333.765a2.526,2.526,0,0,1,2.529-2.589,2.707,2.707,0,0,1,2,.849l-.7.73a1.653,1.653,0,0,0-1.26-.589,1.608,1.608,0,0,0,0,3.2,1.678,1.678,0,0,0,1.26-.58l.7.719a2.7,2.7,0,0,1-2,.85A2.52,2.52,0,0,1,218.559,333.765Z" transform="translate(-119.741 -24.044)"></path>
        <path class="cls-4" d="M224.019,329.077l1.13-.19v4.5l2.078-2.129h1.3l-2.308,2.319,2.429,2.688h-1.44l-2.058-2.308v2.308h-1.13Z" transform="translate(-119.741 -24.044)"></path>
        <path class="cls-4" d="M229.568,329.267h3.109a2.126,2.126,0,0,1,2.338,2.119,1.985,1.985,0,0,1-1.389,1.919l1.48,2.958h-1.33l-1.349-2.8h-1.659v2.8h-1.2Zm3,3.238a1.121,1.121,0,1,0,0-2.229h-1.8v2.229Z" transform="translate(-119.741 -24.044)"></path>
        <path class="cls-4" d="M235.668,333.765a2.473,2.473,0,0,1,2.439-2.589,2.407,2.407,0,0,1,2.369,2.589v.269h-3.7a1.534,1.534,0,0,0,1.5,1.4,1.667,1.667,0,0,0,1.19-.47l.739.669a2.893,2.893,0,0,1-1.978.73A2.541,2.541,0,0,1,235.668,333.765Zm3.738-.43A1.361,1.361,0,0,0,238.1,332.1a1.345,1.345,0,0,0-1.31,1.239Z" transform="translate(-119.741 -24.044)"></path>
        <path class="cls-4" d="M241.229,335.684l.529-.75a2.909,2.909,0,0,0,1.609.569c.6,0,1.01-.279,1.01-.679,0-.31-.21-.47-.7-.57l-.879-.15c-.98-.18-1.449-.629-1.449-1.379,0-.939.769-1.549,1.938-1.549a3.6,3.6,0,0,1,1.969.6l-.529.749a2.714,2.714,0,0,0-1.509-.48c-.521,0-.86.221-.86.58,0,.32.18.46.7.55l.889.17c1,.18,1.479.639,1.479,1.389a1.839,1.839,0,0,1-2.049,1.629A3.351,3.351,0,0,1,241.229,335.684Z" transform="translate(-119.741 -24.044)"></path>
        <path class="cls-4" d="M246.428,334.554v-3.3h1.14v2.968a1.082,1.082,0,0,0,1.1,1.21,1.251,1.251,0,0,0,1.09-.6v-3.578h1.129v5.007h-1.129v-.809a1.81,1.81,0,0,1-1.59.889A1.693,1.693,0,0,1,246.428,334.554Z" transform="translate(-119.741 -24.044)"></path>
        <path class="cls-4" d="M252.287,329.1l1.13-.2v7.366h-1.13Z" transform="translate(-119.741 -24.044)"></path>
        <path class="cls-4" d="M255.428,334.964v-2.809h-1v-.9h1v-1.38l1.129-.239v1.619h1.389v.9h-1.389v2.559c0,.49.19.68.7.68a2.119,2.119,0,0,0,.68-.12v.949a3.554,3.554,0,0,1-.97.14C255.957,336.363,255.428,335.883,255.428,334.964Z" transform="translate(-119.741 -24.044)"></path>
      </g>
      <circle class="cls-5" cx="7.5" cy="272.519" r="7.5"></circle>
      <g>
        <path class="cls-4" d="M143.476,293.337h3.4a2.271,2.271,0,0,1,2.469,2.229,2.106,2.106,0,0,1-1.3,1.959l1.469,2.808h-1.919l-1.27-2.568h-1.129v2.568h-1.718Zm3.237,3.079a.832.832,0,1,0,0-1.66h-1.519v1.66Z" transform="translate(-119.741 -24.044)"></path>
        <path class="cls-4" d="M149.875,297.765a2.585,2.585,0,0,1,2.6-2.669,2.532,2.532,0,0,1,2.539,2.729v.35h-3.549a1.238,1.238,0,0,0,1.21.969,1.275,1.275,0,0,0,1.019-.43l1.07.89a3.01,3.01,0,0,1-2.169.83A2.667,2.667,0,0,1,149.875,297.765Zm3.638-.51a1.082,1.082,0,0,0-1.049-.9,1.016,1.016,0,0,0-1,.9Z" transform="translate(-119.741 -24.044)"></path>
        <path class="cls-4" d="M155.655,299.8l.71-1.079a3.349,3.349,0,0,0,1.66.519c.459,0,.739-.16.739-.42,0-.2-.15-.309-.48-.369l-.989-.181c-1-.189-1.519-.7-1.519-1.5,0-1.049.809-1.679,2.159-1.679a4.147,4.147,0,0,1,2.1.59l-.74,1.029a2.921,2.921,0,0,0-1.478-.439c-.39,0-.621.13-.621.349s.13.3.531.37l.968.18c1.02.19,1.55.71,1.55,1.49a1.984,1.984,0,0,1-2.218,1.769A4.225,4.225,0,0,1,155.655,299.8Z" transform="translate(-119.741 -24.044)"></path>
        <path class="cls-4" d="M161.146,298.654v-3.478h1.619v3.009a.859.859,0,0,0,.859.959,1.044,1.044,0,0,0,.86-.43v-3.538H166.1v5.157h-1.619v-.839a1.905,1.905,0,0,1-1.629.92A1.667,1.667,0,0,1,161.146,298.654Z" transform="translate(-119.741 -24.044)"></path>
        <path class="cls-4" d="M167.365,293.217l1.619-.249v7.365h-1.619Z" transform="translate(-119.741 -24.044)"></path>
        <path class="cls-4" d="M170.924,298.774v-2.348h-1v-1.25h1v-1.429l1.619-.33v1.759h1.38v1.25h-1.38v2.029c0,.459.18.619.68.619a2.17,2.17,0,0,0,.66-.11v1.309a4.507,4.507,0,0,1-1.109.161C171.554,300.434,170.924,299.874,170.924,298.774Z" transform="translate(-119.741 -24.044)"></path>
      </g>
      <path class="cls-2" d="M128.067,297.777h-3.4v-.8l3.277-3.943h1.072v3.9h.837v.846h-.837v1.557h-.954Zm0-.846v-2.818l-2.323,2.818Z" transform="translate(-119.741 -24.044)"></path>
    </g>
  </g>
  <g id="Remediation">
    <g>
      <g>
        <line class="cls-3" x1="167.179" y1="308.895" x2="205.828" y2="308.895"></line>
        <polygon class="cls-4" points="168.273 312.635 161.797 308.895 168.273 305.155 168.273 312.635"></polygon>
        <polygon class="cls-4" points="204.734 312.635 211.21 308.895 204.734 305.155 204.734 312.635"></polygon>
      </g>
      <rect class="cls-1" x="211.21" y="287.964" width="161.307" height="41.862"></rect>
      <g>
        <path class="cls-4" d="M355.006,332.765a3.565,3.565,0,0,1,3.618-3.608,3.518,3.518,0,0,1,2.729,1.249l-.8.78a2.452,2.452,0,0,0-1.929-.95,2.533,2.533,0,0,0,0,5.058,2.452,2.452,0,0,0,1.929-.95l.8.78a3.515,3.515,0,0,1-2.729,1.249A3.565,3.565,0,0,1,355.006,332.765Z" transform="translate(-119.741 -24.044)"></path>
        <path class="cls-4" d="M362.046,333.765a2.515,2.515,0,1,1,2.519,2.588A2.494,2.494,0,0,1,362.046,333.765Zm3.918,0a1.42,1.42,0,1,0-1.4,1.629A1.486,1.486,0,0,0,365.964,333.765Z" transform="translate(-119.741 -24.044)"></path>
        <path class="cls-4" d="M368.245,331.256h1.13v.789a1.714,1.714,0,0,1,1.479-.869,1.559,1.559,0,0,1,1.479.959,1.869,1.869,0,0,1,1.659-.959,1.656,1.656,0,0,1,1.639,1.809v3.278H374.5v-3.028a1.014,1.014,0,0,0-1.01-1.15,1.124,1.124,0,0,0-1,.6c.01.1.02.2.02.3v3.278h-1.139v-3.028a1.014,1.014,0,0,0-1.01-1.15,1.127,1.127,0,0,0-.989.58v3.6h-1.13Z" transform="translate(-119.741 -24.044)"></path>
        <path class="cls-4" d="M377.005,331.256h1.109v.709a1.938,1.938,0,0,1,1.56-.749,2.563,2.563,0,0,1-.07,5.1,1.882,1.882,0,0,1-1.469-.64v2.679h-1.13Zm3.818,2.509a1.513,1.513,0,0,0-1.489-1.6,1.481,1.481,0,0,0-1.2.559v2.089a1.543,1.543,0,0,0,1.2.56A1.511,1.511,0,0,0,380.823,333.765Z" transform="translate(-119.741 -24.044)"></path>
        <path class="cls-4" d="M383.115,329.1l1.129-.2v7.366h-1.129Z" transform="translate(-119.741 -24.044)"></path>
        <path class="cls-4" d="M385.5,329.547a.7.7,0,0,1,.7-.7.709.709,0,0,1,.7.7.7.7,0,0,1-.7.689A.693.693,0,0,1,385.5,329.547Zm.13,1.709h1.129v5.007h-1.129Z" transform="translate(-119.741 -24.044)"></path>
        <path class="cls-4" d="M387.9,334.824c0-.9.739-1.469,1.919-1.469a2.936,2.936,0,0,1,1.348.32v-.56c0-.66-.38-1-1.149-1a3.462,3.462,0,0,0-1.459.39l-.4-.819a4.953,4.953,0,0,1,2.079-.51c1.309,0,2.048.659,2.048,1.819v3.268h-1.119v-.519a2.022,2.022,0,0,1-1.489.609A1.594,1.594,0,0,1,387.9,334.824Zm2.089.73a1.741,1.741,0,0,0,1.178-.42v-.81a2.574,2.574,0,0,0-1.149-.24c-.65,0-1.06.27-1.06.72S389.355,335.554,389.985,335.554Z" transform="translate(-119.741 -24.044)"></path>
        <path class="cls-4" d="M393.655,331.256h1.129v.82a1.825,1.825,0,0,1,1.579-.9,1.69,1.69,0,0,1,1.749,1.789v3.3h-1.139v-2.978a1.079,1.079,0,0,0-1.1-1.2,1.248,1.248,0,0,0-1.09.61v3.568h-1.129Z" transform="translate(-119.741 -24.044)"></path>
        <path class="cls-4" d="M399.245,333.765a2.527,2.527,0,0,1,2.529-2.589,2.711,2.711,0,0,1,2,.849l-.7.73a1.654,1.654,0,0,0-1.259-.589,1.608,1.608,0,0,0,0,3.2,1.679,1.679,0,0,0,1.259-.58l.7.719a2.708,2.708,0,0,1-2,.85A2.52,2.52,0,0,1,399.245,333.765Z" transform="translate(-119.741 -24.044)"></path>
        <path class="cls-4" d="M404.325,333.765a2.473,2.473,0,0,1,2.439-2.589,2.407,2.407,0,0,1,2.369,2.589v.269h-3.7a1.532,1.532,0,0,0,1.5,1.4,1.668,1.668,0,0,0,1.189-.47l.739.669a2.891,2.891,0,0,1-1.978.73A2.541,2.541,0,0,1,404.325,333.765Zm3.738-.43a1.362,1.362,0,0,0-1.309-1.239,1.345,1.345,0,0,0-1.31,1.239Z" transform="translate(-119.741 -24.044)"></path>
        <path class="cls-4" d="M410.425,329.267h3.108a2.127,2.127,0,0,1,2.339,2.119,1.986,1.986,0,0,1-1.389,1.919l1.479,2.958h-1.329l-1.35-2.8h-1.659v2.8h-1.2Zm3,3.238a1.121,1.121,0,1,0,0-2.229h-1.8v2.229Z" transform="translate(-119.741 -24.044)"></path>
        <path class="cls-4" d="M416.525,333.765a2.472,2.472,0,0,1,2.438-2.589,2.407,2.407,0,0,1,2.369,2.589v.269h-3.7a1.533,1.533,0,0,0,1.5,1.4,1.664,1.664,0,0,0,1.189-.47l.741.669a2.9,2.9,0,0,1-1.98.73A2.541,2.541,0,0,1,416.525,333.765Zm3.738-.43a1.362,1.362,0,0,0-1.31-1.239,1.344,1.344,0,0,0-1.308,1.239Z" transform="translate(-119.741 -24.044)"></path>
        <path class="cls-4" d="M422.485,331.256h1.129v.789a1.717,1.717,0,0,1,1.479-.869,1.558,1.558,0,0,1,1.479.959,1.87,1.87,0,0,1,1.66-.959,1.655,1.655,0,0,1,1.638,1.809v3.278h-1.129v-3.028a1.013,1.013,0,0,0-1.009-1.15,1.123,1.123,0,0,0-1,.6c.009.1.019.2.019.3v3.278h-1.139v-3.028a1.014,1.014,0,0,0-1.009-1.15,1.127,1.127,0,0,0-.99.58v3.6h-1.129Z" transform="translate(-119.741 -24.044)"></path>
        <path class="cls-4" d="M431.015,333.765a2.472,2.472,0,0,1,2.438-2.589,2.407,2.407,0,0,1,2.369,2.589v.269h-3.7a1.534,1.534,0,0,0,1.5,1.4,1.668,1.668,0,0,0,1.19-.47l.74.669a2.9,2.9,0,0,1-1.98.73A2.541,2.541,0,0,1,431.015,333.765Zm3.738-.43a1.362,1.362,0,0,0-1.31-1.239,1.344,1.344,0,0,0-1.308,1.239Z" transform="translate(-119.741 -24.044)"></path>
        <path class="cls-4" d="M436.765,333.765a2.425,2.425,0,0,1,2.339-2.549,1.917,1.917,0,0,1,1.459.65V329.1l1.13-.2v7.366h-1.12V335.6a1.956,1.956,0,0,1-1.549.709A2.4,2.4,0,0,1,436.765,333.765Zm3.8,1.049v-2.109a1.552,1.552,0,0,0-1.19-.539,1.6,1.6,0,0,0,0,3.2A1.47,1.47,0,0,0,440.563,334.814Z" transform="translate(-119.741 -24.044)"></path>
        <path class="cls-4" d="M442.955,329.547a.7.7,0,0,1,.7-.7.709.709,0,0,1,.7.7.7.7,0,0,1-.7.689A.693.693,0,0,1,442.955,329.547Zm.13,1.709h1.13v5.007h-1.13Z" transform="translate(-119.741 -24.044)"></path>
        <path class="cls-4" d="M445.355,334.824c0-.9.74-1.469,1.919-1.469a2.941,2.941,0,0,1,1.349.32v-.56c0-.66-.38-1-1.149-1a3.459,3.459,0,0,0-1.459.39l-.4-.819a4.956,4.956,0,0,1,2.079-.51c1.31,0,2.049.659,2.049,1.819v3.268h-1.119v-.519a2.024,2.024,0,0,1-1.489.609A1.594,1.594,0,0,1,445.355,334.824Zm2.088.73a1.743,1.743,0,0,0,1.18-.42v-.81a2.574,2.574,0,0,0-1.149-.24c-.65,0-1.06.27-1.06.72S446.815,335.554,447.443,335.554Z" transform="translate(-119.741 -24.044)"></path>
        <path class="cls-4" d="M451.584,334.964v-2.809h-1v-.9h1v-1.38l1.129-.239v1.619h1.39v.9h-1.39v2.559c0,.49.19.68.7.68a2.119,2.119,0,0,0,.68-.12v.949a3.554,3.554,0,0,1-.97.14C452.113,336.363,451.584,335.883,451.584,334.964Z" transform="translate(-119.741 -24.044)"></path>
        <path class="cls-4" d="M454.965,329.547a.7.7,0,1,1,.7.689A.693.693,0,0,1,454.965,329.547Zm.13,1.709h1.13v5.007H455.1Z" transform="translate(-119.741 -24.044)"></path>
        <path class="cls-4" d="M457.4,333.765a2.515,2.515,0,1,1,2.518,2.588A2.494,2.494,0,0,1,457.4,333.765Zm3.918,0a1.42,1.42,0,1,0-1.4,1.629A1.486,1.486,0,0,0,461.313,333.765Z" transform="translate(-119.741 -24.044)"></path>
        <path class="cls-4" d="M463.594,331.256h1.13v.82a1.824,1.824,0,0,1,1.579-.9,1.69,1.69,0,0,1,1.749,1.789v3.3h-1.14v-2.978a1.078,1.078,0,0,0-1.1-1.2,1.247,1.247,0,0,0-1.089.61v3.568h-1.13Z" transform="translate(-119.741 -24.044)"></path>
      </g>
      <g>
        <path class="cls-4" d="M354.686,293.337h3.4a2.271,2.271,0,0,1,2.469,2.229,2.105,2.105,0,0,1-1.3,1.959l1.47,2.808H358.8l-1.27-2.568H356.4v2.568h-1.718Zm3.238,3.079a.832.832,0,1,0,0-1.66H356.4v1.66Z" transform="translate(-119.741 -24.044)"></path>
        <path class="cls-4" d="M361.086,297.765a2.585,2.585,0,0,1,2.6-2.669,2.532,2.532,0,0,1,2.538,2.729v.35h-3.548a1.236,1.236,0,0,0,1.209.969,1.273,1.273,0,0,0,1.019-.43l1.07.89a3.007,3.007,0,0,1-2.169.83A2.667,2.667,0,0,1,361.086,297.765Zm3.638-.51a1.083,1.083,0,0,0-1.05-.9,1.015,1.015,0,0,0-1,.9Z" transform="translate(-119.741 -24.044)"></path>
        <path class="cls-4" d="M367.235,295.176h1.62V296a1.769,1.769,0,0,1,1.529-.9,1.527,1.527,0,0,1,1.449.96,1.948,1.948,0,0,1,1.689-.96,1.652,1.652,0,0,1,1.619,1.809v3.428h-1.619v-3.108a.772.772,0,0,0-.77-.859.9.9,0,0,0-.749.389v3.578h-1.619v-3.108a.772.772,0,0,0-.77-.859.926.926,0,0,0-.759.4v3.567h-1.62Z" transform="translate(-119.741 -24.044)"></path>
        <path class="cls-4" d="M376.136,297.765a2.585,2.585,0,0,1,2.6-2.669,2.532,2.532,0,0,1,2.539,2.729v.35h-3.549a1.238,1.238,0,0,0,1.21.969,1.276,1.276,0,0,0,1.019-.43l1.07.89a3.01,3.01,0,0,1-2.169.83A2.667,2.667,0,0,1,376.136,297.765Zm3.638-.51a1.083,1.083,0,0,0-1.049-.9,1.016,1.016,0,0,0-1,.9Z" transform="translate(-119.741 -24.044)"></path>
        <path class="cls-4" d="M382.106,297.745a2.487,2.487,0,0,1,2.4-2.6,1.806,1.806,0,0,1,1.379.62v-2.549l1.619-.249v7.365h-1.6v-.669a1.942,1.942,0,0,1-1.518.7A2.457,2.457,0,0,1,382.106,297.745Zm3.778.869v-1.739a1.317,1.317,0,0,0-.96-.4,1.275,1.275,0,0,0,0,2.548A1.253,1.253,0,0,0,385.884,298.614Z" transform="translate(-119.741 -24.044)"></path>
        <path class="cls-4" d="M388.665,293.477a.91.91,0,1,1,.91.91A.913.913,0,0,1,388.665,293.477Zm.1,1.7h1.619v5.157h-1.619Z" transform="translate(-119.741 -24.044)"></path>
        <path class="cls-4" d="M391.405,298.854c0-.949.74-1.5,2.009-1.5a3.35,3.35,0,0,1,1.2.24v-.42c0-.5-.329-.749-1.019-.749a3.84,3.84,0,0,0-1.449.36l-.56-1.13a5.707,5.707,0,0,1,2.369-.56c1.429,0,2.259.71,2.259,1.939v3.3h-1.6v-.449a2.049,2.049,0,0,1-1.428.53A1.606,1.606,0,0,1,391.405,298.854Zm2.28.49a1.752,1.752,0,0,0,.928-.26v-.66a3.848,3.848,0,0,0-.888-.11c-.531,0-.83.181-.83.51S393.185,299.344,393.685,299.344Z" transform="translate(-119.741 -24.044)"></path>
        <path class="cls-4" d="M397.965,298.774v-2.348h-1v-1.25h1v-1.429l1.619-.33v1.759h1.379v1.25h-1.379v2.029c0,.459.18.619.68.619a2.165,2.165,0,0,0,.659-.11v1.309a4.5,4.5,0,0,1-1.109.161C398.594,300.434,397.965,299.874,397.965,298.774Z" transform="translate(-119.741 -24.044)"></path>
        <path class="cls-4" d="M401.765,293.477a.91.91,0,1,1,.91.91A.913.913,0,0,1,401.765,293.477Zm.1,1.7h1.62v5.157h-1.62Z" transform="translate(-119.741 -24.044)"></path>
        <path class="cls-4" d="M404.515,297.765a2.689,2.689,0,1,1,2.688,2.669A2.624,2.624,0,0,1,404.515,297.765Zm3.8,0a1.126,1.126,0,1,0-1.11,1.319A1.179,1.179,0,0,0,408.313,297.765Z" transform="translate(-119.741 -24.044)"></path>
        <path class="cls-4" d="M410.926,295.176h1.619v.84a1.9,1.9,0,0,1,1.629-.92,1.667,1.667,0,0,1,1.709,1.759v3.478h-1.619v-3.008a.859.859,0,0,0-.86-.959,1.041,1.041,0,0,0-.859.429v3.538h-1.619Z" transform="translate(-119.741 -24.044)"></path>
      </g>
      <g>
        <circle class="cls-5" cx="218.71" cy="272.519" r="7.5"></circle>
        <path class="cls-2" d="M336.108,298.578l.593-.675a2.3,2.3,0,0,0,1.658.684,1.218,1.218,0,1,0-.028-2.421,2.622,2.622,0,0,0-1.251.333l-.684-.207.143-3.259h3.826v.846h-2.988l-.09,1.828a2.97,2.97,0,0,1,1.323-.307,1.894,1.894,0,0,1,2.088,1.9,2.142,2.142,0,0,1-2.376,2.134A3.173,3.173,0,0,1,336.108,298.578Z" transform="translate(-119.741 -24.044)"></path>
      </g>
    </g>
  </g>
</svg>
