<svg xmlns="http://www.w3.org/2000/svg" version="1.1" viewBox="0 0 841.89 393.297" height="138.747mm" width="297mm" data-name="Layer 1" id="Layer_1">
  <metadata id="metadata563">
    
      
        image/svg+xml
        
        
        
          
            prep
            install
            OCP
            OpenShift
            process
            install
          
        
      
    
  </metadata>
  
  <defs id="defs12">
    <style id="style10">
      .cls-1 {
        fill: #f0f0f0;
      }

      .cls-2 {
        fill: #fff;
      }

      .cls-3 {
        fill: #a1c2e7;
      }

      .cls-4 {
        fill: #dbe8f5;
      }

      .cls-5 {
        fill: none;
        stroke: #06c;
        stroke-miterlimit: 10;
      }

      .cls-6 {
        fill: #06c;
      }
    </style>
  </defs>
  <rect id="rect14" height="325.406" width="122.807" y="22.285" x="24.64" class="cls-1"></rect>
  <rect id="rect16" height="325.406" width="258.316" y="22.285" x="557.685" class="cls-1"></rect>
  <rect id="rect18" height="325.406" width="389.885" y="22.285" x="157.768" class="cls-1"></rect>
  <g id="g24">
    <rect id="rect20" height="43.737" width="101.632" y="62.893" x="35.228" class="cls-2"></rect>
    <path id="path22" d="M136.36,63.393v42.736H35.728V63.393H136.36m1-1H34.728v44.736H137.36V62.393Z" class="cls-3"></path>
  </g>
  <g id="g30">
    <rect id="rect26" height="43.737" width="101.632" y="137.524" x="35.228" class="cls-2"></rect>
    <path id="path28" d="M136.36,138.024v42.737H35.728V138.024H136.36m1-1H34.728v44.737H137.36V137.024Z" class="cls-3"></path>
  </g>
  <g id="g36">
    <rect id="rect32" height="43.737" width="101.631" y="137.524" x="301.895" class="cls-2"></rect>
    <path id="path34" d="M403.026,138.024v42.737H302.4V138.024H403.026m1-1H301.4v44.737H404.026V137.024Z" class="cls-3"></path>
  </g>
  <g id="g42">
    <rect id="rect38" height="12.345" width="18.339" y="364.581" x="25.141" class="cls-2"></rect>
    <path id="path40" d="M42.979,365.081v11.345H25.64V365.081H42.979m1-1H24.64v13.345H43.979V364.081Z" class="cls-3"></path>
  </g>
  <g id="g48">
    <rect id="rect44" height="43.737" width="101.631" y="137.524" x="435.228" class="cls-4"></rect>
    <path id="path46" d="M536.36,138.024v42.737H435.728V138.024H536.36m1-1H434.728v44.737H537.36V137.024Z" class="cls-3"></path>
  </g>
  <g id="g54">
    <rect id="rect50" height="43.737" width="101.632" y="212.963" x="435.228" class="cls-2"></rect>
    <path id="path52" d="M536.36,213.463V256.2H435.728V213.463H536.36m1-1H434.728V257.2H537.36V212.463Z" class="cls-3"></path>
  </g>
  <g id="g60">
    <rect id="rect56" height="43.737" width="101.632" y="212.963" x="569.561" class="cls-2"></rect>
    <path id="path58" d="M670.693,213.463V256.2H570.062V213.463H670.693m1-1H569.062V257.2H671.693V212.463Z" class="cls-3"></path>
  </g>
  <g id="g66">
    <rect id="rect62" height="43.737" width="101.632" y="212.963" x="702.895" class="cls-2"></rect>
    <path id="path64" d="M804.026,213.463V256.2H703.4V213.463H804.026m1-1H702.4V257.2H805.026V212.463Z" class="cls-3"></path>
  </g>
  <g id="g72">
    <line id="line68" y2="159.393" x2="162.68" y1="159.393" x1="137.36" class="cls-5"></line>
    <polygon id="polygon70" points="161.585 163.132 168.062 159.393 161.585 155.653 161.585 163.132" class="cls-6"></polygon>
  </g>
  <g id="g78">
    <line id="line74" y2="159.393" x2="296.013" y1="159.393" x1="270.693" class="cls-5"></line>
    <polygon id="polygon76" points="294.919 163.132 301.395 159.393 294.919 155.653 294.919 163.132" class="cls-6"></polygon>
  </g>
  <g id="g84">
    <line id="line80" y2="159.393" x2="429.346" y1="159.393" x1="404.026" class="cls-5"></line>
    <polygon id="polygon82" points="428.252 163.132 434.728 159.393 428.252 155.653 428.252 163.132" class="cls-6"></polygon>
  </g>
  <g id="g90">
    <line id="line86" y2="181.761" x2="486.044" y1="207.081" x1="486.044" class="cls-5"></line>
    <polygon id="polygon88" points="489.783 205.987 486.044 212.463 482.305 205.987 489.783 205.987" class="cls-6"></polygon>
  </g>
  <g id="g96">
    <line id="line92" y2="106.754" x2="86.044" y1="132.074" x1="86.044" class="cls-5"></line>
    <polygon id="polygon94" points="89.783 130.979 86.044 137.455 82.305 130.979 89.783 130.979" class="cls-6"></polygon>
  </g>
  <g id="g102">
    <line id="line98" y2="234.831" x2="563.18" y1="234.831" x1="537.86" class="cls-5"></line>
    <polygon id="polygon100" points="562.085 238.571 568.562 234.832 562.085 231.092 562.085 238.571" class="cls-6"></polygon>
  </g>
  <g id="g108">
    <line id="line104" y2="234.831" x2="696.813" y1="234.831" x1="671.493" class="cls-5"></line>
    <polygon id="polygon106" points="695.718 238.571 702.194 234.832 695.718 231.092 695.718 238.571" class="cls-6"></polygon>
  </g>
  <g id="g142">
    <path id="path110" d="M36.519,37.669h3.418a2.286,2.286,0,1,1,0,4.558h-1.7v2.439H36.519Zm1.718,1.419v1.77h1.389c.7,0,1.04-.38,1.04-.89s-.34-.88-1.029-.88Z"></path>
    <path id="path112" d="M43.619,37.669h3.4A2.271,2.271,0,0,1,49.485,39.9a2.1,2.1,0,0,1-1.3,1.959l1.469,2.809H47.736L46.467,42.1h-1.13v2.569H43.619Zm1.718,1.419v1.66h1.519a.832.832,0,1,0,0-1.66Z"></path>
    <path id="path114" d="M50.648,37.669h5.288v1.44H52.367v1.329h2.519v1.4H52.367v1.389h3.608v1.44H50.648Z"></path>
    <path id="path116" d="M60.586,41.127v1.35H56.908v-1.35Z"></path>
    <path id="path118" d="M61.778,37.669H63.5v7H61.778Z"></path>
    <path id="path120" d="M66.577,37.669l3.108,4.238-.03-4.238h1.619v7H69.755l-3.208-4.378.03,4.378H64.958v-7Z"></path>
    <path id="path122" d="M73.128,42.437a3.84,3.84,0,0,0,2.269.93c.739,0,1.189-.3,1.189-.731,0-.409-.24-.6-.919-.729l-1.49-.26a1.855,1.855,0,0,1-1.719-1.869c0-1.359,1.04-2.208,2.779-2.208a4.747,4.747,0,0,1,2.868.919l-.869,1.249a3.338,3.338,0,0,0-2.089-.77c-.68,0-1.069.281-1.069.66,0,.35.229.54.789.63l1.4.24c1.31.23,2,.91,2,1.979,0,1.359-1.159,2.288-2.988,2.288a4.956,4.956,0,0,1-3.028-1.059Z"></path>
    <path id="path124" d="M78.668,37.669H84.9v1.469H82.646v5.528H80.927V39.138H78.668Z"></path>
    <path id="path126" d="M86.657,37.669h1.959l2.688,7H89.445L88.865,43H86.307l-.59,1.669H83.928Zm1.749,4-.81-2.319-.819,2.319Z"></path>
    <path id="path128" d="M92.108,37.669h1.719V43.2H97.3v1.469H92.108Z"></path>
    <path id="path130" d="M98.588,37.669h1.719V43.2h3.468v1.469H98.588Z"></path>
    <path id="path132" d="M107.137,37.669H109.1l2.688,7h-1.859L109.346,43h-2.559l-.59,1.669h-1.789Zm1.749,4-.81-2.319-.819,2.319Z"></path>
    <path id="path134" d="M110.818,37.669h6.226v1.469H114.8v5.528h-1.718V39.138h-2.259Z"></path>
    <path id="path136" d="M117.938,37.669h1.718v7h-1.718Z"></path>
    <path id="path138" d="M124.406,44.776a3.609,3.609,0,1,1,3.608-3.609A3.578,3.578,0,0,1,124.406,44.776Zm-.01-5.688a2.1,2.1,0,1,0,1.839,2.079A1.923,1.923,0,0,0,124.4,39.088Z"></path>
    <path id="path140" d="M130.866,37.669l3.109,4.238-.03-4.238h1.619v7h-1.519l-3.209-4.378.03,4.378h-1.618v-7Z"></path>
  </g>
  <g id="g194">
    <path id="path144" d="M52.579,74.289h2.559a3.5,3.5,0,1,1,0,7H52.579Zm1.2,1.039v4.918h1.389a2.47,2.47,0,0,0,0-4.918Z"></path>
    <path id="path146" d="M62.148,76.2a2.595,2.595,0,1,1-2.519,2.588A2.5,2.5,0,0,1,62.148,76.2Zm1.4,2.6a1.415,1.415,0,1,0-2.8,0,1.413,1.413,0,1,0,2.8,0Z"></path>
    <path id="path148" d="M66.619,81.285,65.27,76.278h1.079l.88,3.538,1.029-3.538h.959l1.03,3.548.869-3.548h1.06l-1.35,5.007H69.737l-1.009-3.528-1.01,3.528Z"></path>
    <path id="path150" d="M73.109,76.278h1.13v.82a1.817,1.817,0,0,1,1.589-.9,1.685,1.685,0,0,1,1.729,1.789v3.3h-1.13V78.307a1.078,1.078,0,0,0-1.1-1.2,1.281,1.281,0,0,0-1.089.6v3.578h-1.13Z"></path>
    <path id="path152" d="M80.059,81.285h-1.13V74.139l1.13-.19Z"></path>
    <path id="path154" d="M83.738,76.2a2.595,2.595,0,1,1-2.519,2.588A2.5,2.5,0,0,1,83.738,76.2Zm1.4,2.6a1.415,1.415,0,1,0-2.8,0,1.413,1.413,0,1,0,2.8,0Z"></path>
    <path id="path156" d="M87.229,79.846c0-.9.729-1.469,1.909-1.469a3.089,3.089,0,0,1,1.349.31v-.55c0-.659-.38-1-1.149-1a3.47,3.47,0,0,0-1.459.389l-.4-.819a4.792,4.792,0,0,1,2.079-.51c1.3,0,2.048.659,2.048,1.819v3.268H90.487v-.51a2.083,2.083,0,0,1-1.489.59A1.579,1.579,0,0,1,87.229,79.846Zm2.079.729a1.789,1.789,0,0,0,1.179-.409v-.819a2.589,2.589,0,0,0-1.159-.241c-.64,0-1.039.28-1.039.72C88.289,80.286,88.688,80.575,89.308,80.575Z"></path>
    <path id="path158" d="M96.557,80.615a1.927,1.927,0,0,1-1.539.72,2.562,2.562,0,0,1,.07-5.1,1.914,1.914,0,0,1,1.459.659V74.139l1.129-.19v7.336H96.557Zm-1.2-.229a1.5,1.5,0,0,0,1.19-.55V77.728a1.554,1.554,0,0,0-1.19-.54,1.6,1.6,0,0,0,0,3.2Z"></path>
    <path id="path160" d="M102.008,76.278v-.889a1.538,1.538,0,0,1,1.729-1.68,2.684,2.684,0,0,1,.75.1v.959a2.314,2.314,0,0,0-.6-.081c-.52,0-.749.231-.749.72v.87h1.349v.9h-1.349v4.107h-1.13V77.178h-1.079v-.9Z"></path>
    <path id="path162" d="M105.3,74.569a.705.705,0,0,1,1.41,0,.705.705,0,0,1-1.41,0Zm1.27,6.716h-1.13V76.278h1.13Z"></path>
    <path id="path164" d="M109.088,81.285h-1.13V74.139l1.13-.19Z"></path>
    <path id="path166" d="M112.8,81.385a2.545,2.545,0,0,1-2.548-2.6,2.465,2.465,0,0,1,2.438-2.588,2.4,2.4,0,0,1,2.369,2.578v.281h-3.7a1.529,1.529,0,0,0,1.5,1.369,1.624,1.624,0,0,0,1.189-.47l.74.69A2.9,2.9,0,0,1,112.8,81.385Zm-1.419-3.018h2.608a1.371,1.371,0,0,0-1.309-1.25A1.346,1.346,0,0,0,111.378,78.367Z"></path>
    <path id="path168" d="M116.338,79.946a2.9,2.9,0,0,0,1.609.57c.6,0,1.01-.27,1.01-.67,0-.31-.21-.48-.69-.57l-.89-.15c-.969-.18-1.449-.629-1.449-1.379,0-.939.77-1.549,1.939-1.549a3.52,3.52,0,0,1,1.969.6l-.529.739a2.737,2.737,0,0,0-1.51-.479c-.519,0-.859.219-.859.589,0,.32.18.459.709.55l.88.159c1,.191,1.479.651,1.479,1.4a1.835,1.835,0,0,1-2.039,1.629,3.35,3.35,0,0,1-2.158-.68Z"></path>
    <path id="path170" d="M52.544,91.846c0-.9.73-1.469,1.91-1.469a3.1,3.1,0,0,1,1.349.31v-.55c0-.659-.38-1-1.15-1a3.474,3.474,0,0,0-1.459.389l-.4-.819a4.8,4.8,0,0,1,2.079-.51c1.3,0,2.049.659,2.049,1.819v3.268H55.8v-.51a2.087,2.087,0,0,1-1.49.59A1.579,1.579,0,0,1,52.544,91.846Zm2.08.729a1.79,1.79,0,0,0,1.179-.409v-.819a2.592,2.592,0,0,0-1.159-.241c-.64,0-1.04.28-1.04.72C53.6,92.286,54,92.575,54.624,92.575Z"></path>
    <path id="path172" d="M58.294,88.278h1.13v.82a1.817,1.817,0,0,1,1.589-.9,1.685,1.685,0,0,1,1.729,1.789v3.3h-1.13V90.307a1.078,1.078,0,0,0-1.1-1.2,1.281,1.281,0,0,0-1.089.6v3.578h-1.13Z"></path>
    <path id="path174" d="M67.692,92.615a1.926,1.926,0,0,1-1.539.72,2.562,2.562,0,0,1,.07-5.1,1.912,1.912,0,0,1,1.459.659V86.139l1.13-.19v7.336h-1.12Zm-1.2-.229a1.5,1.5,0,0,0,1.189-.55V89.728a1.552,1.552,0,0,0-1.189-.54,1.6,1.6,0,0,0,0,3.2Z"></path>
    <path id="path176" d="M72.6,86.289h3.108a2.132,2.132,0,0,1,2.339,2.119,1.989,1.989,0,0,1-1.38,1.919l1.47,2.958H76.812l-1.35-2.8H73.8v2.8H72.6Zm1.2,1.01v2.228h1.809a1.119,1.119,0,1,0,0-2.228Z"></path>
    <path id="path178" d="M81.253,93.385a2.546,2.546,0,0,1-2.549-2.6A2.466,2.466,0,0,1,81.143,88.2a2.4,2.4,0,0,1,2.368,2.578v.281h-3.7a1.53,1.53,0,0,0,1.5,1.369,1.628,1.628,0,0,0,1.19-.47l.74.69A2.9,2.9,0,0,1,81.253,93.385Zm-1.42-3.018h2.609a1.371,1.371,0,0,0-1.309-1.25A1.346,1.346,0,0,0,79.833,90.367Z"></path>
    <path id="path180" d="M84.794,91.946a2.89,2.89,0,0,0,1.609.57c.6,0,1.009-.27,1.009-.67,0-.31-.209-.48-.689-.57l-.89-.15c-.969-.18-1.449-.629-1.449-1.379,0-.939.769-1.549,1.939-1.549a3.525,3.525,0,0,1,1.969.6l-.53.739a2.734,2.734,0,0,0-1.509-.479c-.52,0-.859.219-.859.589,0,.32.179.459.709.55l.879.159c1,.191,1.48.651,1.48,1.4a1.835,1.835,0,0,1-2.039,1.629,3.353,3.353,0,0,1-2.159-.68Z"></path>
    <path id="path182" d="M91.842,88.2a2.595,2.595,0,1,1-2.518,2.588A2.5,2.5,0,0,1,91.842,88.2Zm1.4,2.6a1.416,1.416,0,1,0-2.8,0,1.413,1.413,0,1,0,2.8,0Z"></path>
    <path id="path184" d="M96.633,91.256a1.079,1.079,0,0,0,1.1,1.2,1.264,1.264,0,0,0,1.1-.62V88.278h1.129v5.007H98.832v-.829a1.833,1.833,0,0,1-1.6.909,1.68,1.68,0,0,1-1.73-1.789v-3.3h1.13Z"></path>
    <path id="path186" d="M101.354,88.278h1.129v1.089a1.484,1.484,0,0,1,1.379-1.179,1.339,1.339,0,0,1,.49.1v.989a1.593,1.593,0,0,0-.62-.12,1.374,1.374,0,0,0-1.249.83v3.3h-1.129Z"></path>
    <path id="path188" d="M108.622,91.836l.679.68a2.6,2.6,0,0,1-1.959.869,2.589,2.589,0,0,1,0-5.177,2.7,2.7,0,0,1,2,.84l-.7.729a1.658,1.658,0,0,0-1.26-.589,1.606,1.606,0,0,0,.03,3.2A1.543,1.543,0,0,0,108.622,91.836Z"></path>
    <path id="path190" d="M112.442,93.385a2.545,2.545,0,0,1-2.548-2.6,2.465,2.465,0,0,1,2.438-2.588,2.4,2.4,0,0,1,2.369,2.578v.281H111a1.529,1.529,0,0,0,1.5,1.369,1.624,1.624,0,0,0,1.189-.47l.74.69A2.9,2.9,0,0,1,112.442,93.385Zm-1.419-3.018h2.608a1.371,1.371,0,0,0-1.309-1.25A1.346,1.346,0,0,0,111.023,90.367Z"></path>
    <path id="path192" d="M115.983,91.946a2.9,2.9,0,0,0,1.609.57c.6,0,1.01-.27,1.01-.67,0-.31-.21-.48-.69-.57l-.89-.15c-.969-.18-1.449-.629-1.449-1.379,0-.939.77-1.549,1.939-1.549a3.52,3.52,0,0,1,1.969.6l-.529.739a2.737,2.737,0,0,0-1.51-.479c-.519,0-.859.219-.859.589,0,.32.18.459.709.55l.88.159c1,.191,1.479.651,1.479,1.4a1.835,1.835,0,0,1-2.039,1.629,3.35,3.35,0,0,1-2.158-.68Z"></path>
  </g>
  <g id="g230">
    <path id="path196" d="M47.676,160.344l.79.76a3.591,3.591,0,1,1,.03-4.739l-.809.8a2.461,2.461,0,1,0-1.88,4.088A2.368,2.368,0,0,0,47.676,160.344Z"></path>
    <path id="path198" d="M51.708,157.146a2.594,2.594,0,1,1-2.519,2.587A2.5,2.5,0,0,1,51.708,157.146Zm1.4,2.6a1.415,1.415,0,1,0-2.8,0,1.413,1.413,0,1,0,2.8,0Z"></path>
    <path id="path200" d="M55.4,157.226h1.13v.819a1.816,1.816,0,0,1,1.589-.9,1.685,1.685,0,0,1,1.729,1.789v3.3h-1.13v-2.978a1.077,1.077,0,0,0-1.1-1.2,1.283,1.283,0,0,0-1.089.6v3.578H55.4Z"></path>
    <path id="path202" d="M61.749,157.226v-.89a1.537,1.537,0,0,1,1.729-1.68,2.682,2.682,0,0,1,.749.1v.959a2.309,2.309,0,0,0-.6-.08c-.52,0-.749.23-.749.719v.871h1.349v.9H62.878v4.107H61.749v-4.107h-1.08v-.9Z"></path>
    <path id="path204" d="M65.039,155.517a.7.7,0,0,1,1.409,0,.7.7,0,0,1-1.409,0Zm1.27,6.715h-1.13v-5.006h1.13Z"></path>
    <path id="path206" d="M67.469,159.724a2.417,2.417,0,0,1,2.339-2.538,1.882,1.882,0,0,1,1.469.679v-.639H72.4V162.4c0,1.289-.839,2-2.358,2a4.36,4.36,0,0,1-2.009-.479l.4-.84a3.4,3.4,0,0,0,1.559.43c.84,0,1.279-.38,1.279-1.11v-.849a1.945,1.945,0,0,1-1.529.71A2.4,2.4,0,0,1,67.469,159.724Zm2.609,1.6a1.5,1.5,0,0,0,1.189-.55v-2.1a1.552,1.552,0,0,0-1.189-.54,1.493,1.493,0,0,0-1.489,1.589A1.514,1.514,0,0,0,70.078,161.323Z"></path>
    <path id="path208" d="M74.888,160.2a1.078,1.078,0,0,0,1.1,1.2,1.262,1.262,0,0,0,1.1-.62v-3.557h1.129v5.006H77.087V161.4a1.831,1.831,0,0,1-1.6.909,1.679,1.679,0,0,1-1.729-1.789v-3.3h1.129Z"></path>
    <path id="path210" d="M79.609,157.226h1.129v1.088a1.486,1.486,0,0,1,1.379-1.179,1.36,1.36,0,0,1,.49.1v.99a1.594,1.594,0,0,0-.62-.121,1.374,1.374,0,0,0-1.249.831v3.3H79.609Z"></path>
    <path id="path212" d="M85.618,162.332a2.545,2.545,0,0,1-2.549-2.6,2.465,2.465,0,0,1,2.438-2.587,2.4,2.4,0,0,1,2.369,2.578V160h-3.7a1.53,1.53,0,0,0,1.5,1.369,1.628,1.628,0,0,0,1.19-.47l.739.69A2.891,2.891,0,0,1,85.618,162.332Zm-1.42-3.018h2.609a1.371,1.371,0,0,0-1.309-1.25A1.347,1.347,0,0,0,84.2,159.314Z"></path>
    <path id="path214" d="M91.469,160.323a3.5,3.5,0,0,0,2.348,1.02c.93,0,1.569-.47,1.569-1.11,0-.569-.339-.829-1.269-1l-1.289-.219c-1.209-.221-1.8-.821-1.8-1.78,0-1.259,1.009-2.1,2.578-2.1a4.671,4.671,0,0,1,2.809.909l-.61.9a3.627,3.627,0,0,0-2.239-.809c-.839,0-1.389.42-1.389.989,0,.5.31.76,1.08.88l1.239.22c1.409.24,2.069.859,2.069,1.919,0,1.279-1.14,2.188-2.809,2.188a4.408,4.408,0,0,1-2.938-1.129Z"></path>
    <path id="path216" d="M100.067,162.332a2.545,2.545,0,0,1-2.548-2.6,2.465,2.465,0,0,1,2.438-2.587,2.4,2.4,0,0,1,2.369,2.578V160h-3.7a1.529,1.529,0,0,0,1.5,1.369,1.624,1.624,0,0,0,1.189-.47l.74.69A2.894,2.894,0,0,1,100.067,162.332Zm-1.419-3.018h2.608a1.371,1.371,0,0,0-1.309-1.25A1.346,1.346,0,0,0,98.648,159.314Z"></path>
    <path id="path218" d="M103.479,157.226h1.129v1.088a1.484,1.484,0,0,1,1.379-1.179,1.36,1.36,0,0,1,.49.1v.99a1.594,1.594,0,0,0-.62-.121,1.373,1.373,0,0,0-1.249.831v3.3h-1.129Z"></path>
    <path id="path220" d="M106.969,157.226H108.2l1.389,3.657,1.39-3.657h1.189l-2.059,5.006h-1.089Z"></path>
    <path id="path222" d="M112.838,155.517a.705.705,0,0,1,1.41,0,.705.705,0,0,1-1.41,0Zm1.27,6.715h-1.129v-5.006h1.129Z"></path>
    <path id="path224" d="M119.077,160.783l.679.68a2.6,2.6,0,0,1-1.959.869,2.589,2.589,0,0,1,0-5.177,2.7,2.7,0,0,1,2,.84l-.7.73a1.656,1.656,0,0,0-1.26-.59,1.606,1.606,0,0,0,.03,3.2A1.539,1.539,0,0,0,119.077,160.783Z"></path>
    <path id="path226" d="M122.9,162.332a2.546,2.546,0,0,1-2.549-2.6,2.465,2.465,0,0,1,2.439-2.587,2.4,2.4,0,0,1,2.369,2.578V160h-3.7a1.528,1.528,0,0,0,1.5,1.369,1.627,1.627,0,0,0,1.189-.47l.74.69A2.9,2.9,0,0,1,122.9,162.332Zm-1.419-3.018h2.608a1.371,1.371,0,0,0-1.309-1.25A1.345,1.345,0,0,0,121.478,159.314Z"></path>
    <path id="path228" d="M126.438,160.894a2.893,2.893,0,0,0,1.609.569c.6,0,1.01-.27,1.01-.67,0-.31-.21-.48-.69-.569l-.889-.151c-.97-.179-1.45-.629-1.45-1.379,0-.939.77-1.548,1.939-1.548a3.524,3.524,0,0,1,1.97.6l-.53.739a2.737,2.737,0,0,0-1.51-.479c-.519,0-.859.22-.859.59,0,.319.18.459.71.55l.879.159c1,.19,1.479.65,1.479,1.4a1.834,1.834,0,0,1-2.039,1.629,3.35,3.35,0,0,1-2.158-.68Z"></path>
  </g>
  <g id="g274">
    <g id="g236">
      <rect id="rect232" height="43.737" width="101.631" y="137.524" x="168.562" class="cls-2"></rect>
      <path id="path234" d="M269.693,138.024v42.737H169.062V138.024H269.693m1-1H168.062v44.737H270.693V137.024Z" class="cls-3"></path>
    </g>
    <g id="g272">
      <path id="path238" d="M187.183,149.736h1.2v7h-1.2Z"></path>
      <path id="path240" d="M189.873,151.726H191v.819a1.816,1.816,0,0,1,1.589-.9,1.685,1.685,0,0,1,1.729,1.789v3.3h-1.13v-2.978a1.077,1.077,0,0,0-1.1-1.2,1.284,1.284,0,0,0-1.089.6v3.578h-1.129Z"></path>
      <path id="path242" d="M195.772,155.394a2.893,2.893,0,0,0,1.609.569c.6,0,1.01-.27,1.01-.67,0-.31-.21-.48-.69-.569l-.889-.151c-.97-.179-1.45-.629-1.45-1.379,0-.939.77-1.548,1.939-1.548a3.524,3.524,0,0,1,1.97.6l-.53.739a2.737,2.737,0,0,0-1.51-.479c-.519,0-.859.22-.859.59,0,.319.18.459.71.55l.879.159c1,.19,1.479.65,1.479,1.4a1.834,1.834,0,0,1-2.039,1.629,3.35,3.35,0,0,1-2.158-.68Z"></path>
      <path id="path244" d="M201,152.625h-1.009v-.9H201v-1.38l1.129-.24v1.62h1.4v.9h-1.4v2.538c0,.49.19.68.7.68a2.107,2.107,0,0,0,.68-.12v.95a3.553,3.553,0,0,1-.97.139c-1.009,0-1.539-.479-1.539-1.4Z"></path>
      <path id="path246" d="M204.272,155.293c0-.9.729-1.469,1.909-1.469a3.089,3.089,0,0,1,1.349.31v-.55c0-.659-.38-1-1.149-1a3.459,3.459,0,0,0-1.459.39l-.4-.82a4.8,4.8,0,0,1,2.079-.509c1.3,0,2.048.659,2.048,1.818v3.268H207.53v-.509a2.087,2.087,0,0,1-1.489.589A1.579,1.579,0,0,1,204.272,155.293Zm2.079.729a1.783,1.783,0,0,0,1.179-.409v-.819a2.588,2.588,0,0,0-1.159-.24c-.64,0-1.039.279-1.039.719C205.332,155.733,205.731,156.022,206.351,156.022Z"></path>
      <path id="path248" d="M211.151,156.732h-1.129v-7.146l1.129-.19Z"></path>
      <path id="path250" d="M213.671,156.732h-1.129v-7.146l1.129-.19Z"></path>
      <path id="path252" d="M217.452,149.736h3.108a2.133,2.133,0,0,1,2.339,2.119,1.988,1.988,0,0,1-1.379,1.919l1.469,2.958H221.66l-1.35-2.8h-1.659v2.8h-1.2Zm1.2,1.01v2.229h1.809a1.12,1.12,0,1,0,0-2.229Z"></path>
      <path id="path254" d="M224.122,149.736h1.2v2.949H228.8v-2.949H230v7h-1.2v-3h-3.478v3h-1.2Z"></path>
      <path id="path256" d="M236.829,154.844l.789.76a3.591,3.591,0,1,1,.03-4.739l-.809.8a2.461,2.461,0,1,0-1.88,4.088A2.372,2.372,0,0,0,236.829,154.844Z"></path>
      <path id="path258" d="M241.93,156.843a3.609,3.609,0,1,1,3.538-3.609A3.542,3.542,0,0,1,241.93,156.843Zm.01-6.148a2.544,2.544,0,0,0,0,5.068,2.546,2.546,0,0,0,0-5.068Z"></path>
      <path id="path260" d="M246.872,154.823a3.5,3.5,0,0,0,2.348,1.02c.929,0,1.569-.47,1.569-1.11,0-.569-.339-.829-1.269-1l-1.29-.219c-1.209-.221-1.8-.821-1.8-1.78,0-1.259,1.009-2.1,2.578-2.1a4.671,4.671,0,0,1,2.809.909l-.61.9a3.627,3.627,0,0,0-2.239-.809c-.839,0-1.389.42-1.389.989,0,.5.31.76,1.08.88l1.239.22c1.409.24,2.069.859,2.069,1.919,0,1.279-1.14,2.188-2.809,2.188a4.408,4.408,0,0,1-2.938-1.129Z"></path>
      <path id="path262" d="M206.587,160.736h1.2v2.949h3.478v-2.949h1.2v7h-1.2v-3h-3.478v3h-1.2Z"></path>
      <path id="path264" d="M216.246,162.646a2.594,2.594,0,1,1-2.518,2.587A2.5,2.5,0,0,1,216.246,162.646Zm1.4,2.6a1.416,1.416,0,1,0-2.8,0,1.413,1.413,0,1,0,2.8,0Z"></path>
      <path id="path266" d="M220.018,166.394a2.887,2.887,0,0,0,1.608.569c.6,0,1.01-.27,1.01-.67,0-.31-.21-.48-.69-.569l-.889-.151c-.97-.179-1.45-.629-1.45-1.379,0-.939.77-1.548,1.939-1.548a3.524,3.524,0,0,1,1.97.6l-.53.739a2.736,2.736,0,0,0-1.509-.479c-.52,0-.86.22-.86.59,0,.319.18.459.71.55l.879.159c1,.19,1.48.65,1.48,1.4a1.835,1.835,0,0,1-2.04,1.629,3.352,3.352,0,0,1-2.158-.68Z"></path>
      <path id="path268" d="M225.247,163.625h-1.009v-.9h1.009v-1.38l1.129-.24v1.62h1.4v.9h-1.4v2.538c0,.49.19.68.7.68a2.1,2.1,0,0,0,.68-.12v.95a3.553,3.553,0,0,1-.97.139c-1.009,0-1.539-.479-1.539-1.4Z"></path>
      <path id="path270" d="M228.947,166.394a2.89,2.89,0,0,0,1.609.569c.6,0,1.009-.27,1.009-.67,0-.31-.209-.48-.689-.569l-.89-.151c-.969-.179-1.449-.629-1.449-1.379,0-.939.77-1.548,1.939-1.548a3.519,3.519,0,0,1,1.969.6l-.529.739a2.737,2.737,0,0,0-1.51-.479c-.519,0-.859.22-.859.59,0,.319.18.459.709.55l.88.159c1,.19,1.479.65,1.479,1.4a1.835,1.835,0,0,1-2.039,1.629,3.355,3.355,0,0,1-2.159-.68Z"></path>
    </g>
  </g>
  <g id="g300">
    <path id="path276" d="M324.486,155.236h3.108a2.132,2.132,0,0,1,2.339,2.119,1.987,1.987,0,0,1-1.379,1.919l1.469,2.958h-1.329l-1.35-2.8h-1.658v2.8h-1.2Zm1.2,1.01v2.229h1.808a1.12,1.12,0,1,0,0-2.229Z"></path>
    <path id="path278" d="M332.065,160.2a1.079,1.079,0,0,0,1.1,1.2,1.261,1.261,0,0,0,1.1-.62v-3.557h1.13v5.006h-1.13V161.4a1.83,1.83,0,0,1-1.6.909,1.68,1.68,0,0,1-1.73-1.789v-3.3h1.129Z"></path>
    <path id="path280" d="M336.786,157.226h1.13v.819a1.814,1.814,0,0,1,1.588-.9,1.684,1.684,0,0,1,1.729,1.789v3.3H340.1v-2.978a1.078,1.078,0,0,0-1.1-1.2,1.283,1.283,0,0,0-1.089.6v3.578h-1.13Z"></path>
    <path id="path282" d="M344.936,155.236h1.2v7h-1.2Z"></path>
    <path id="path284" d="M347.626,157.226h1.129v.819a1.817,1.817,0,0,1,1.589-.9,1.684,1.684,0,0,1,1.729,1.789v3.3h-1.129v-2.978a1.078,1.078,0,0,0-1.1-1.2,1.286,1.286,0,0,0-1.09.6v3.578h-1.129Z"></path>
    <path id="path286" d="M353.526,160.894a2.888,2.888,0,0,0,1.609.569c.6,0,1.009-.27,1.009-.67,0-.31-.209-.48-.689-.569l-.89-.151c-.969-.179-1.449-.629-1.449-1.379,0-.939.769-1.548,1.939-1.548a3.524,3.524,0,0,1,1.969.6l-.53.739a2.734,2.734,0,0,0-1.509-.479c-.52,0-.86.22-.86.59,0,.319.18.459.71.55l.879.159c1,.19,1.48.65,1.48,1.4a1.835,1.835,0,0,1-2.039,1.629,3.353,3.353,0,0,1-2.159-.68Z"></path>
    <path id="path288" d="M358.755,158.125h-1.009v-.9h1.009v-1.38l1.13-.24v1.62h1.4v.9h-1.4v2.538c0,.49.19.68.7.68a2.1,2.1,0,0,0,.68-.12v.95a3.553,3.553,0,0,1-.97.139c-1.009,0-1.539-.479-1.539-1.4Z"></path>
    <path id="path290" d="M362.025,160.793c0-.9.73-1.469,1.91-1.469a3.1,3.1,0,0,1,1.349.31v-.55c0-.659-.38-1-1.15-1a3.462,3.462,0,0,0-1.459.39l-.4-.82a4.807,4.807,0,0,1,2.079-.509c1.3,0,2.049.659,2.049,1.818v3.268h-1.119v-.509a2.091,2.091,0,0,1-1.49.589A1.579,1.579,0,0,1,362.025,160.793Zm2.079.729a1.786,1.786,0,0,0,1.18-.409v-.819a2.591,2.591,0,0,0-1.159-.24c-.64,0-1.04.279-1.04.719C363.085,161.233,363.485,161.522,364.1,161.522Z"></path>
    <path id="path292" d="M368.905,162.232h-1.13v-7.146l1.13-.19Z"></path>
    <path id="path294" d="M371.425,162.232H370.3v-7.146l1.13-.19Z"></path>
    <path id="path296" d="M375.134,162.332a2.546,2.546,0,0,1-2.549-2.6,2.466,2.466,0,0,1,2.439-2.587,2.4,2.4,0,0,1,2.369,2.578V160h-3.7a1.529,1.529,0,0,0,1.5,1.369,1.624,1.624,0,0,0,1.189-.47l.74.69A2.894,2.894,0,0,1,375.134,162.332Zm-1.419-3.018h2.608a1.371,1.371,0,0,0-1.309-1.25A1.346,1.346,0,0,0,373.715,159.314Z"></path>
    <path id="path298" d="M378.545,157.226h1.13v1.088a1.484,1.484,0,0,1,1.379-1.179,1.351,1.351,0,0,1,.489.1v.99a1.585,1.585,0,0,0-.619-.121,1.372,1.372,0,0,0-1.249.831v3.3h-1.13Z"></path>
  </g>
  <g id="g328">
    <path id="path302" d="M56,366.6h2.559a3.5,3.5,0,1,1,0,7H56Zm1.2,1.039v4.918h1.389a2.47,2.47,0,0,0,0-4.918Z"></path>
    <path id="path304" d="M65.568,368.506a2.595,2.595,0,1,1-2.519,2.588A2.5,2.5,0,0,1,65.568,368.506Zm1.4,2.6a1.415,1.415,0,1,0-2.8,0,1.413,1.413,0,1,0,2.8,0Z"></path>
    <path id="path306" d="M69.259,368.586h1.13v.82a1.817,1.817,0,0,1,1.589-.9,1.685,1.685,0,0,1,1.729,1.789v3.3h-1.13v-2.978a1.078,1.078,0,0,0-1.1-1.2,1.28,1.28,0,0,0-1.089.6v3.578h-1.13Z"></path>
    <path id="path308" d="M77.4,373.693a2.546,2.546,0,0,1-2.549-2.6,2.466,2.466,0,0,1,2.439-2.588,2.4,2.4,0,0,1,2.368,2.578v.281h-3.7a1.53,1.53,0,0,0,1.5,1.369,1.627,1.627,0,0,0,1.189-.47l.74.69A2.9,2.9,0,0,1,77.4,373.693Zm-1.419-3.018h2.608a1.371,1.371,0,0,0-1.309-1.25A1.345,1.345,0,0,0,75.979,370.675Z"></path>
    <path id="path310" d="M85.647,373.643a1.865,1.865,0,0,1-1.479-.7v.649H83.059v-7.146l1.129-.19v3a1.952,1.952,0,0,1,1.54-.709A2.4,2.4,0,0,1,88,371.094,2.427,2.427,0,0,1,85.647,373.643Zm-1.459-3.588v2.089a1.536,1.536,0,0,0,1.2.55,1.6,1.6,0,0,0,0-3.2A1.47,1.47,0,0,0,84.188,370.055Z"></path>
    <path id="path312" d="M90.3,373.624l-1.889-5.038h1.259l1.27,3.718,1.4-3.718h1.229l-2.378,5.827a1.692,1.692,0,0,1-1.779,1.319,2.443,2.443,0,0,1-.57-.069v-.97a4.416,4.416,0,0,0,.44.04.8.8,0,0,0,.809-.58Z"></path>
    <path id="path314" d="M97.258,369.486H96.249v-.9h1.009v-1.379l1.13-.24v1.619h1.4v.9h-1.4v2.538c0,.49.19.68.7.68a2.08,2.08,0,0,0,.68-.121v.951a3.553,3.553,0,0,1-.97.139c-1.009,0-1.539-.479-1.539-1.4Z"></path>
    <path id="path316" d="M100.778,366.447l1.13-.19v3.149a1.817,1.817,0,0,1,1.589-.9,1.685,1.685,0,0,1,1.729,1.789v3.3H104.1v-2.978a1.077,1.077,0,0,0-1.1-1.2,1.28,1.28,0,0,0-1.089.6v3.578h-1.13Z"></path>
    <path id="path318" d="M108.917,373.693a2.546,2.546,0,0,1-2.549-2.6,2.466,2.466,0,0,1,2.439-2.588,2.4,2.4,0,0,1,2.369,2.578v.281h-3.7a1.528,1.528,0,0,0,1.5,1.369,1.627,1.627,0,0,0,1.189-.47l.74.69A2.9,2.9,0,0,1,108.917,373.693Zm-1.419-3.018h2.608a1.371,1.371,0,0,0-1.309-1.25A1.345,1.345,0,0,0,107.5,370.675Z"></path>
    <path id="path320" d="M115.677,371.564a1.079,1.079,0,0,0,1.1,1.2,1.263,1.263,0,0,0,1.1-.62v-3.558h1.129v5.007h-1.129v-.829a1.83,1.83,0,0,1-1.6.909,1.679,1.679,0,0,1-1.729-1.789v-3.3h1.129Z"></path>
    <path id="path322" d="M120.478,372.254a2.882,2.882,0,0,0,1.609.57c.6,0,1.009-.27,1.009-.67,0-.31-.209-.48-.689-.57l-.89-.15c-.969-.18-1.449-.629-1.449-1.379,0-.939.769-1.549,1.939-1.549a3.522,3.522,0,0,1,1.969.6l-.53.739a2.734,2.734,0,0,0-1.509-.479c-.52,0-.859.219-.859.59,0,.319.179.459.709.549l.88.16c1,.19,1.479.65,1.479,1.4a1.835,1.835,0,0,1-2.039,1.629,3.353,3.353,0,0,1-2.159-.68Z"></path>
    <path id="path324" d="M127.557,373.693a2.545,2.545,0,0,1-2.549-2.6,2.465,2.465,0,0,1,2.438-2.588,2.4,2.4,0,0,1,2.369,2.578v.281h-3.7a1.53,1.53,0,0,0,1.5,1.369,1.628,1.628,0,0,0,1.19-.47l.739.69A2.9,2.9,0,0,1,127.557,373.693Zm-1.42-3.018h2.609a1.371,1.371,0,0,0-1.309-1.25A1.347,1.347,0,0,0,126.137,370.675Z"></path>
    <path id="path326" d="M130.968,368.586H132.1v1.089a1.486,1.486,0,0,1,1.379-1.179,1.339,1.339,0,0,1,.49.1v.989a1.593,1.593,0,0,0-.62-.12,1.375,1.375,0,0,0-1.249.83v3.3h-1.129Z"></path>
  </g>
  <g id="g334">
    <rect id="rect330" height="12.345" width="18.339" y="364.581" x="153.009" class="cls-4"></rect>
    <path id="path332" d="M170.848,365.081v11.345H153.509V365.081h17.339m1-1H152.509v13.345h19.339V364.081Z" class="cls-3"></path>
  </g>
  <g id="g372">
    <path id="path336" d="M183.867,366.6h2.559a3.5,3.5,0,1,1,0,7h-2.559Zm1.2,1.039v4.918h1.389a2.47,2.47,0,0,0,0-4.918Z"></path>
    <path id="path338" d="M193.436,368.506a2.595,2.595,0,1,1-2.519,2.588A2.5,2.5,0,0,1,193.436,368.506Zm1.4,2.6a1.415,1.415,0,1,0-2.8,0,1.413,1.413,0,1,0,2.8,0Z"></path>
    <path id="path340" d="M197.127,368.586h1.13v.82a1.817,1.817,0,0,1,1.589-.9,1.685,1.685,0,0,1,1.729,1.789v3.3h-1.13v-2.978a1.077,1.077,0,0,0-1.1-1.2,1.28,1.28,0,0,0-1.089.6v3.578h-1.13Z"></path>
    <path id="path342" d="M205.266,373.693a2.546,2.546,0,0,1-2.549-2.6,2.466,2.466,0,0,1,2.439-2.588,2.4,2.4,0,0,1,2.368,2.578v.281h-3.7a1.529,1.529,0,0,0,1.5,1.369,1.627,1.627,0,0,0,1.189-.47l.74.69A2.9,2.9,0,0,1,205.266,373.693Zm-1.419-3.018h2.608a1.371,1.371,0,0,0-1.309-1.25A1.346,1.346,0,0,0,203.847,370.675Z"></path>
    <path id="path344" d="M213.516,373.643a1.862,1.862,0,0,1-1.479-.7v.649h-1.11v-7.146l1.13-.19v3a1.949,1.949,0,0,1,1.539-.709,2.4,2.4,0,0,1,2.268,2.548A2.427,2.427,0,0,1,213.516,373.643Zm-1.459-3.588v2.089a1.532,1.532,0,0,0,1.2.55,1.6,1.6,0,0,0,0-3.2A1.467,1.467,0,0,0,212.057,370.055Z"></path>
    <path id="path346" d="M218.167,373.624l-1.89-5.038h1.26l1.269,3.718,1.4-3.718h1.23l-2.379,5.827a1.692,1.692,0,0,1-1.779,1.319,2.443,2.443,0,0,1-.57-.069v-.97a4.416,4.416,0,0,0,.44.04.8.8,0,0,0,.81-.58Z"></path>
    <path id="path348" d="M225.126,369.486h-1.009v-.9h1.009v-1.379l1.13-.24v1.619h1.4v.9h-1.4v2.538c0,.49.19.68.7.68a2.079,2.079,0,0,0,.679-.121v.951a3.552,3.552,0,0,1-.969.139c-1.01,0-1.54-.479-1.54-1.4Z"></path>
    <path id="path350" d="M228.646,366.447l1.13-.19v3.149a1.817,1.817,0,0,1,1.589-.9,1.685,1.685,0,0,1,1.729,1.789v3.3h-1.13v-2.978a1.077,1.077,0,0,0-1.1-1.2,1.282,1.282,0,0,0-1.089.6v3.578h-1.13Z"></path>
    <path id="path352" d="M236.785,373.693a2.546,2.546,0,0,1-2.549-2.6,2.466,2.466,0,0,1,2.439-2.588,2.4,2.4,0,0,1,2.369,2.578v.281h-3.7a1.529,1.529,0,0,0,1.5,1.369,1.627,1.627,0,0,0,1.189-.47l.74.69A2.9,2.9,0,0,1,236.785,373.693Zm-1.419-3.018h2.608a1.371,1.371,0,0,0-1.309-1.25A1.346,1.346,0,0,0,235.366,370.675Z"></path>
    <path id="path354" d="M242.306,366.877a.7.7,0,0,1,1.409,0,.7.7,0,0,1-1.409,0Zm1.27,6.716h-1.13v-5.007h1.13Z"></path>
    <path id="path356" d="M244.966,368.586h1.13v.82a1.817,1.817,0,0,1,1.589-.9,1.685,1.685,0,0,1,1.729,1.789v3.3h-1.13v-2.978a1.078,1.078,0,0,0-1.1-1.2,1.28,1.28,0,0,0-1.089.6v3.578h-1.13Z"></path>
    <path id="path358" d="M250.866,372.254a2.885,2.885,0,0,0,1.609.57c.6,0,1.009-.27,1.009-.67,0-.31-.209-.48-.689-.57l-.89-.15c-.969-.18-1.449-.629-1.449-1.379,0-.939.77-1.549,1.939-1.549a3.52,3.52,0,0,1,1.969.6l-.53.739a2.734,2.734,0,0,0-1.509-.479c-.519,0-.859.219-.859.59,0,.319.18.459.709.549l.88.16c1,.19,1.479.65,1.479,1.4a1.835,1.835,0,0,1-2.039,1.629,3.353,3.353,0,0,1-2.159-.68Z"></path>
    <path id="path360" d="M256.1,369.486h-1.01v-.9h1.01v-1.379l1.129-.24v1.619h1.4v.9h-1.4v2.538c0,.49.19.68.7.68a2.079,2.079,0,0,0,.679-.121v.951a3.546,3.546,0,0,1-.969.139c-1.01,0-1.539-.479-1.539-1.4Z"></path>
    <path id="path362" d="M259.366,372.154c0-.9.73-1.469,1.909-1.469a3.1,3.1,0,0,1,1.35.31v-.55c0-.659-.38-1-1.15-1a3.474,3.474,0,0,0-1.459.389l-.4-.819a4.806,4.806,0,0,1,2.079-.51c1.3,0,2.049.66,2.049,1.819v3.268h-1.119v-.51a2.087,2.087,0,0,1-1.49.59A1.579,1.579,0,0,1,259.366,372.154Zm2.079.729a1.791,1.791,0,0,0,1.18-.409v-.819a2.593,2.593,0,0,0-1.16-.24c-.639,0-1.039.279-1.039.719C260.426,372.594,260.826,372.883,261.445,372.883Z"></path>
    <path id="path364" d="M266.245,373.593h-1.129v-7.146l1.129-.19Z"></path>
    <path id="path366" d="M268.765,373.593h-1.129v-7.146l1.129-.19Z"></path>
    <path id="path368" d="M272.475,373.693a2.545,2.545,0,0,1-2.549-2.6,2.465,2.465,0,0,1,2.438-2.588,2.4,2.4,0,0,1,2.369,2.578v.281h-3.7a1.53,1.53,0,0,0,1.5,1.369,1.628,1.628,0,0,0,1.19-.47l.739.69A2.9,2.9,0,0,1,272.475,373.693Zm-1.42-3.018h2.609a1.371,1.371,0,0,0-1.31-1.25A1.346,1.346,0,0,0,271.055,370.675Z"></path>
    <path id="path370" d="M275.886,368.586h1.129v1.089a1.486,1.486,0,0,1,1.379-1.179,1.339,1.339,0,0,1,.49.1v.989a1.593,1.593,0,0,0-.62-.12,1.375,1.375,0,0,0-1.249.83v3.3h-1.129Z"></path>
  </g>
  <g id="g412">
    <path id="path374" d="M475.085,154.774l.79.76a3.591,3.591,0,1,1,.031-4.739l-.81.8a2.461,2.461,0,1,0-1.88,4.088A2.367,2.367,0,0,0,475.085,154.774Z"></path>
    <path id="path376" d="M478.108,156.663h-1.129v-7.147l1.129-.189Z"></path>
    <path id="path378" d="M480.6,154.633a1.078,1.078,0,0,0,1.1,1.2,1.26,1.26,0,0,0,1.1-.62v-3.557h1.129v5.007H482.8v-.83a1.834,1.834,0,0,1-1.6.91,1.68,1.68,0,0,1-1.73-1.789v-3.3h1.13Z"></path>
    <path id="path380" d="M485.4,155.324a2.887,2.887,0,0,0,1.608.569c.6,0,1.01-.269,1.01-.67,0-.309-.21-.479-.689-.569l-.89-.151c-.97-.179-1.449-.628-1.449-1.378,0-.94.769-1.549,1.938-1.549a3.524,3.524,0,0,1,1.97.6l-.53.74a2.727,2.727,0,0,0-1.509-.48c-.52,0-.859.22-.859.59,0,.319.179.459.709.55l.879.159c1,.19,1.48.65,1.48,1.4a1.835,1.835,0,0,1-2.039,1.629,3.358,3.358,0,0,1-2.159-.679Z"></path>
    <path id="path382" d="M490.628,152.555h-1.009v-.9h1.009v-1.38l1.129-.239v1.619h1.4v.9h-1.4v2.538c0,.49.191.68.7.68a2.079,2.079,0,0,0,.679-.12v.95a3.554,3.554,0,0,1-.97.14c-1.009,0-1.539-.48-1.539-1.4Z"></path>
    <path id="path384" d="M496.4,156.762a2.545,2.545,0,0,1-2.549-2.6,2.466,2.466,0,0,1,2.439-2.588,2.4,2.4,0,0,1,2.369,2.578v.28h-3.7a1.529,1.529,0,0,0,1.5,1.369,1.625,1.625,0,0,0,1.189-.47l.74.69A2.9,2.9,0,0,1,496.4,156.762Zm-1.419-3.017h2.608a1.369,1.369,0,0,0-1.309-1.25A1.346,1.346,0,0,0,494.978,153.745Z"></path>
    <path id="path386" d="M499.808,151.656h1.13v1.089a1.485,1.485,0,0,1,1.379-1.18,1.339,1.339,0,0,1,.489.1v.989a1.588,1.588,0,0,0-.619-.12,1.372,1.372,0,0,0-1.249.83v3.3h-1.13Z"></path>
    <path id="path388" d="M460.939,160.667h1.2v7h-1.2Z"></path>
    <path id="path390" d="M463.629,162.656h1.129v.819a1.817,1.817,0,0,1,1.589-.9,1.685,1.685,0,0,1,1.73,1.789v3.3h-1.13v-2.979a1.078,1.078,0,0,0-1.1-1.2,1.286,1.286,0,0,0-1.09.6v3.579h-1.129Z"></path>
    <path id="path392" d="M469.529,166.324a2.888,2.888,0,0,0,1.609.569c.6,0,1.009-.269,1.009-.67,0-.309-.209-.479-.689-.569l-.89-.151c-.969-.179-1.449-.628-1.449-1.378,0-.94.769-1.549,1.939-1.549a3.524,3.524,0,0,1,1.969.6l-.529.74a2.733,2.733,0,0,0-1.51-.48c-.52,0-.86.22-.86.59,0,.319.18.459.71.55l.879.159c1,.19,1.48.65,1.48,1.4a1.835,1.835,0,0,1-2.039,1.629,3.355,3.355,0,0,1-2.158-.679Z"></path>
    <path id="path394" d="M474.758,163.555H473.75v-.9h1.008v-1.38l1.13-.239v1.619h1.4v.9h-1.4v2.538c0,.49.19.68.7.68a2.076,2.076,0,0,0,.68-.12v.95a3.554,3.554,0,0,1-.97.14c-1.008,0-1.539-.48-1.539-1.4Z"></path>
    <path id="path396" d="M478.029,166.223c0-.9.729-1.469,1.909-1.469a3.092,3.092,0,0,1,1.349.31v-.55c0-.659-.38-1-1.15-1a3.462,3.462,0,0,0-1.459.39l-.4-.82a4.8,4.8,0,0,1,2.078-.509c1.3,0,2.049.659,2.049,1.818v3.269h-1.119v-.51a2.09,2.09,0,0,1-1.49.59A1.579,1.579,0,0,1,478.029,166.223Zm2.079.73a1.786,1.786,0,0,0,1.179-.41v-.819a2.593,2.593,0,0,0-1.16-.24c-.639,0-1.039.279-1.039.72C479.088,166.664,479.488,166.953,480.108,166.953Z"></path>
    <path id="path398" d="M484.908,167.663h-1.129v-7.147l1.129-.189Z"></path>
    <path id="path400" d="M487.428,167.663H486.3v-7.147l1.13-.189Z"></path>
    <path id="path402" d="M488.569,166.223c0-.9.729-1.469,1.909-1.469a3.092,3.092,0,0,1,1.349.31v-.55c0-.659-.38-1-1.15-1a3.462,3.462,0,0,0-1.459.39l-.4-.82a4.8,4.8,0,0,1,2.078-.509c1.3,0,2.049.659,2.049,1.818v3.269h-1.119v-.51a2.09,2.09,0,0,1-1.49.59A1.579,1.579,0,0,1,488.569,166.223Zm2.079.73a1.786,1.786,0,0,0,1.179-.41v-.819a2.593,2.593,0,0,0-1.16-.24c-.639,0-1.039.279-1.039.72C489.628,166.664,490.028,166.953,490.648,166.953Z"></path>
    <path id="path404" d="M494.789,163.555h-1.01v-.9h1.01v-1.38l1.128-.239v1.619h1.4v.9h-1.4v2.538c0,.49.191.68.7.68a2.074,2.074,0,0,0,.679-.12v.95a3.553,3.553,0,0,1-.969.14c-1.01,0-1.539-.48-1.539-1.4Z"></path>
    <path id="path406" d="M498.168,160.947a.705.705,0,0,1,1.41,0,.705.705,0,0,1-1.41,0Zm1.27,6.716h-1.13v-5.007h1.13Z"></path>
    <path id="path408" d="M503.117,162.576a2.594,2.594,0,1,1-2.519,2.588A2.5,2.5,0,0,1,503.117,162.576Zm1.4,2.6a1.415,1.415,0,1,0-2.8,0,1.413,1.413,0,1,0,2.8,0Z"></path>
    <path id="path410" d="M506.808,162.656h1.13v.819a1.816,1.816,0,0,1,1.589-.9,1.684,1.684,0,0,1,1.728,1.789v3.3h-1.129v-2.979a1.078,1.078,0,0,0-1.1-1.2,1.285,1.285,0,0,0-1.089.6v3.579h-1.13Z"></path>
  </g>
  <g id="g436">
    <path id="path414" d="M459.267,230.675c1.319,0,2.209.739,2.209,1.839a1.674,1.674,0,0,1-1.119,1.548,1.752,1.752,0,0,1,1.359,1.66,2.04,2.04,0,0,1-2.308,1.949h-3.249v-7Zm-1.908.979v1.959h1.789c.689,0,1.129-.38,1.129-.979s-.44-.98-1.129-.98Zm3.147,3.958a1.09,1.09,0,0,0-1.239-1.069h-1.908v2.148h1.908A1.1,1.1,0,0,0,460.506,235.612Z"></path>
    <path id="path416" d="M462.729,236.231c0-.9.729-1.468,1.909-1.468a3.1,3.1,0,0,1,1.35.309v-.55c0-.659-.38-1-1.15-1a3.474,3.474,0,0,0-1.459.39l-.4-.819a4.792,4.792,0,0,1,2.079-.51c1.3,0,2.049.659,2.049,1.818v3.269h-1.119v-.51a2.091,2.091,0,0,1-1.489.59A1.58,1.58,0,0,1,462.729,236.231Zm2.079.73a1.791,1.791,0,0,0,1.18-.409v-.82a2.594,2.594,0,0,0-1.159-.24c-.64,0-1.04.279-1.04.72C463.789,236.672,464.189,236.961,464.808,236.961Z"></path>
    <path id="path418" d="M468.559,236.332a2.89,2.89,0,0,0,1.609.569c.6,0,1.009-.269,1.009-.67,0-.309-.209-.479-.689-.569l-.89-.15c-.969-.18-1.449-.629-1.449-1.379,0-.94.769-1.549,1.939-1.549a3.515,3.515,0,0,1,1.969.6l-.529.739a2.741,2.741,0,0,0-1.51-.48c-.519,0-.859.22-.859.59,0,.32.179.459.71.55l.879.159c1,.191,1.479.651,1.479,1.4a1.835,1.835,0,0,1-2.039,1.629,3.355,3.355,0,0,1-2.158-.68Z"></path>
    <path id="path420" d="M473.128,230.955a.705.705,0,0,1,1.41,0,.705.705,0,0,1-1.41,0Zm1.27,6.716h-1.129v-5.007H474.4Z"></path>
    <path id="path422" d="M479.367,236.222l.679.679a2.6,2.6,0,0,1-1.959.87,2.589,2.589,0,0,1,0-5.177,2.7,2.7,0,0,1,2,.84l-.7.729a1.656,1.656,0,0,0-1.26-.59,1.606,1.606,0,0,0,.031,3.2A1.541,1.541,0,0,0,479.367,236.222Z"></path>
    <path id="path424" d="M488.606,235.782l.789.76a3.592,3.592,0,1,1,.03-4.738l-.809.8a2.461,2.461,0,1,0-1.879,4.087A2.371,2.371,0,0,0,488.606,235.782Z"></path>
    <path id="path426" d="M490.5,230.524l1.129-.189v3.148a1.818,1.818,0,0,1,1.589-.9,1.684,1.684,0,0,1,1.729,1.789v3.3h-1.129v-2.979a1.079,1.079,0,0,0-1.1-1.2,1.284,1.284,0,0,0-1.089.6v3.578H490.5Z"></path>
    <path id="path428" d="M498.637,237.771a2.546,2.546,0,0,1-2.549-2.6,2.466,2.466,0,0,1,2.439-2.588,2.4,2.4,0,0,1,2.369,2.578v.28h-3.7a1.53,1.53,0,0,0,1.5,1.37,1.624,1.624,0,0,0,1.189-.47l.74.689A2.9,2.9,0,0,1,498.637,237.771Zm-1.419-3.018h2.609a1.371,1.371,0,0,0-1.31-1.25A1.346,1.346,0,0,0,497.218,234.753Z"></path>
    <path id="path430" d="M505.657,236.222l.678.679a2.6,2.6,0,0,1-1.958.87,2.589,2.589,0,0,1,0-5.177,2.694,2.694,0,0,1,2,.84l-.7.729a1.652,1.652,0,0,0-1.259-.59,1.606,1.606,0,0,0,.03,3.2A1.543,1.543,0,0,0,505.657,236.222Z"></path>
    <path id="path432" d="M507.308,230.524l1.13-.189V234.8l2.078-2.139h1.29l-2.289,2.318,2.429,2.689H510.5l-2.059-2.309v2.309h-1.13Z"></path>
    <path id="path434" d="M512.758,236.332a2.893,2.893,0,0,0,1.61.569c.6,0,1.008-.269,1.008-.67,0-.309-.209-.479-.689-.569l-.89-.15c-.968-.18-1.449-.629-1.449-1.379,0-.94.77-1.549,1.94-1.549a3.511,3.511,0,0,1,1.968.6l-.529.739a2.738,2.738,0,0,0-1.51-.48c-.519,0-.859.22-.859.59,0,.32.18.459.71.55l.879.159c1,.191,1.479.651,1.479,1.4a1.835,1.835,0,0,1-2.039,1.629,3.355,3.355,0,0,1-2.158-.68Z"></path>
  </g>
  <g id="g466">
    <path id="path438" d="M609.337,225.175H611.9a3.5,3.5,0,1,1,0,7h-2.559Zm1.2,1.039v4.918h1.389a2.47,2.47,0,0,0,0-4.918Z"></path>
    <path id="path440" d="M616.267,230.732c0-.9.73-1.469,1.909-1.469a3.1,3.1,0,0,1,1.35.31v-.55c0-.659-.38-1-1.15-1a3.466,3.466,0,0,0-1.459.39l-.4-.82a4.806,4.806,0,0,1,2.079-.51c1.3,0,2.049.66,2.049,1.819v3.268h-1.119v-.509a2.09,2.09,0,0,1-1.489.589A1.58,1.58,0,0,1,616.267,230.732Zm2.079.729a1.786,1.786,0,0,0,1.18-.409v-.819a2.591,2.591,0,0,0-1.159-.24c-.64,0-1.04.279-1.04.719C617.327,231.172,617.727,231.461,618.346,231.461Z"></path>
    <path id="path442" d="M623.2,232.2l-1.89-5.037h1.26l1.269,3.717,1.4-3.717h1.229l-2.378,5.826a1.691,1.691,0,0,1-1.779,1.319,2.391,2.391,0,0,1-.57-.069v-.97a4.416,4.416,0,0,0,.44.04.8.8,0,0,0,.81-.58Z"></path>
    <path id="path444" d="M631.537,232.171h-1.09v-5.856l-1.239.539v-.969l1.638-.71h.691Z"></path>
    <path id="path446" d="M598.266,243.282a3.609,3.609,0,1,1,3.538-3.609A3.543,3.543,0,0,1,598.266,243.282Zm.01-6.148a2.546,2.546,0,1,0,2.3,2.539A2.394,2.394,0,0,0,598.276,237.134Z"></path>
    <path id="path448" d="M603.018,238.165h1.109v.718a1.888,1.888,0,0,1,1.559-.758,2.4,2.4,0,0,1,2.269,2.547,2.427,2.427,0,0,1-2.349,2.549,1.871,1.871,0,0,1-1.459-.649v2.719h-1.129Zm1.129,1.468v2.089a1.535,1.535,0,0,0,1.2.55,1.6,1.6,0,0,0,0-3.2A1.469,1.469,0,0,0,604.147,239.633Z"></path>
    <path id="path450" d="M611.476,243.271a2.546,2.546,0,0,1-2.549-2.6,2.467,2.467,0,0,1,2.439-2.588,2.4,2.4,0,0,1,2.369,2.579v.28h-3.7a1.529,1.529,0,0,0,1.5,1.369,1.625,1.625,0,0,0,1.189-.47l.74.69A2.9,2.9,0,0,1,611.476,243.271Zm-1.419-3.018h2.609a1.371,1.371,0,0,0-1.31-1.25A1.346,1.346,0,0,0,610.057,240.253Z"></path>
    <path id="path452" d="M614.887,238.165h1.13v1.088a1.485,1.485,0,0,1,1.379-1.179,1.338,1.338,0,0,1,.489.1v.99a1.567,1.567,0,0,0-.619-.121,1.373,1.373,0,0,0-1.249.831v3.3h-1.13Z"></path>
    <path id="path454" d="M618.4,241.732c0-.9.729-1.469,1.909-1.469a3.089,3.089,0,0,1,1.349.31v-.55c0-.659-.38-1-1.15-1a3.462,3.462,0,0,0-1.459.39l-.4-.82a4.8,4.8,0,0,1,2.078-.51c1.3,0,2.049.66,2.049,1.819v3.268h-1.119v-.509a2.087,2.087,0,0,1-1.489.589A1.579,1.579,0,0,1,618.4,241.732Zm2.079.729a1.785,1.785,0,0,0,1.179-.409v-.819a2.591,2.591,0,0,0-1.159-.24c-.64,0-1.039.279-1.039.719C619.458,242.172,619.857,242.461,620.477,242.461Z"></path>
    <path id="path456" d="M624.617,239.064h-1.009v-.9h1.009v-1.38l1.13-.24v1.62h1.4v.9h-1.4V241.6c0,.49.189.68.7.68a2.1,2.1,0,0,0,.679-.12v.95a3.546,3.546,0,0,1-.969.139c-1.009,0-1.539-.479-1.539-1.4Z"></path>
    <path id="path458" d="M628,236.456a.7.7,0,0,1,1.409,0,.7.7,0,0,1-1.409,0Zm1.269,6.715h-1.13v-5.006h1.13Z"></path>
    <path id="path460" d="M632.946,238.084a2.595,2.595,0,1,1-2.519,2.588A2.5,2.5,0,0,1,632.946,238.084Zm1.4,2.6a1.415,1.415,0,1,0-2.8,0,1.413,1.413,0,1,0,2.8,0Z"></path>
    <path id="path462" d="M636.637,238.165h1.13v.819a1.817,1.817,0,0,1,1.589-.9,1.685,1.685,0,0,1,1.728,1.79v3.3h-1.128v-2.978a1.078,1.078,0,0,0-1.1-1.2,1.285,1.285,0,0,0-1.089.6v3.578h-1.13Z"></path>
    <path id="path464" d="M642.538,241.833a2.885,2.885,0,0,0,1.608.569c.6,0,1.01-.27,1.01-.67,0-.31-.21-.48-.69-.569l-.889-.151c-.97-.179-1.45-.629-1.45-1.379,0-.939.77-1.549,1.939-1.549a3.526,3.526,0,0,1,1.97.6l-.531.739a2.731,2.731,0,0,0-1.508-.479c-.52,0-.86.22-.86.59,0,.319.18.459.709.549l.88.16c1,.19,1.48.65,1.48,1.4a1.835,1.835,0,0,1-2.039,1.629,3.355,3.355,0,0,1-2.16-.68Z"></path>
  </g>
  <g id="g496">
    <path id="path468" d="M741.531,225.175h2.558a3.5,3.5,0,1,1,0,7h-2.558Zm1.2,1.039v4.918h1.39a2.47,2.47,0,0,0,0-4.918Z"></path>
    <path id="path470" d="M748.46,230.732c0-.9.73-1.469,1.91-1.469a3.1,3.1,0,0,1,1.349.31v-.55c0-.659-.38-1-1.149-1a3.459,3.459,0,0,0-1.459.39l-.4-.82a4.81,4.81,0,0,1,2.08-.51c1.3,0,2.048.66,2.048,1.819v3.268h-1.119v-.509a2.09,2.09,0,0,1-1.489.589A1.58,1.58,0,0,1,748.46,230.732Zm2.08.729a1.783,1.783,0,0,0,1.179-.409v-.819a2.588,2.588,0,0,0-1.159-.24c-.64,0-1.04.279-1.04.719C749.52,231.172,749.92,231.461,750.54,231.461Z"></path>
    <path id="path472" d="M755.39,232.2l-1.89-5.037h1.26l1.27,3.717,1.4-3.717h1.23l-2.378,5.826a1.693,1.693,0,0,1-1.78,1.319,2.4,2.4,0,0,1-.57-.069v-.97a4.426,4.426,0,0,0,.441.04.8.8,0,0,0,.809-.58Z"></path>
    <path id="path474" d="M761.541,231.381l2.868-3a1.869,1.869,0,0,0,.679-1.319,1.14,1.14,0,0,0-1.279-1.029,2.522,2.522,0,0,0-1.809.859l-.62-.749a3.541,3.541,0,0,1,2.459-1.06c1.369,0,2.309.78,2.309,1.91a2.67,2.67,0,0,1-1,1.948l-2.239,2.308,3.368-.019v.939h-4.737Z"></path>
    <path id="path476" d="M731.6,243.282a3.609,3.609,0,1,1,3.538-3.609A3.543,3.543,0,0,1,731.6,243.282Zm.011-6.148a2.546,2.546,0,1,0,2.3,2.539A2.4,2.4,0,0,0,731.61,237.134Z"></path>
    <path id="path478" d="M736.351,238.165h1.109v.718a1.889,1.889,0,0,1,1.56-.758,2.4,2.4,0,0,1,2.269,2.547,2.427,2.427,0,0,1-2.349,2.549,1.869,1.869,0,0,1-1.459-.649v2.719h-1.13Zm1.13,1.468v2.089a1.534,1.534,0,0,0,1.2.55,1.6,1.6,0,0,0,0-3.2A1.468,1.468,0,0,0,737.481,239.633Z"></path>
    <path id="path480" d="M744.81,243.271a2.545,2.545,0,0,1-2.549-2.6,2.466,2.466,0,0,1,2.439-2.588,2.4,2.4,0,0,1,2.368,2.579v.28h-3.7a1.528,1.528,0,0,0,1.5,1.369,1.627,1.627,0,0,0,1.189-.47l.739.69A2.891,2.891,0,0,1,744.81,243.271Zm-1.42-3.018H746A1.371,1.371,0,0,0,744.69,239,1.347,1.347,0,0,0,743.39,240.253Z"></path>
    <path id="path482" d="M748.221,238.165h1.129v1.088a1.486,1.486,0,0,1,1.379-1.179,1.339,1.339,0,0,1,.49.1v.99a1.572,1.572,0,0,0-.62-.121,1.374,1.374,0,0,0-1.249.831v3.3h-1.129Z"></path>
    <path id="path484" d="M751.731,241.732c0-.9.729-1.469,1.909-1.469a3.1,3.1,0,0,1,1.35.31v-.55c0-.659-.38-1-1.15-1a3.459,3.459,0,0,0-1.459.39l-.4-.82a4.806,4.806,0,0,1,2.079-.51c1.3,0,2.049.66,2.049,1.819v3.268H754.99v-.509a2.091,2.091,0,0,1-1.49.589A1.579,1.579,0,0,1,751.731,241.732Zm2.079.729a1.786,1.786,0,0,0,1.18-.409v-.819a2.594,2.594,0,0,0-1.159-.24c-.64,0-1.04.279-1.04.719C752.791,242.172,753.191,242.461,753.81,242.461Z"></path>
    <path id="path486" d="M757.951,239.064h-1.01v-.9h1.01v-1.38l1.129-.24v1.62h1.4v.9h-1.4V241.6c0,.49.19.68.7.68a2.1,2.1,0,0,0,.679-.12v.95a3.546,3.546,0,0,1-.969.139c-1.01,0-1.539-.479-1.539-1.4Z"></path>
    <path id="path488" d="M761.331,236.456a.7.7,0,0,1,1.409,0,.7.7,0,0,1-1.409,0Zm1.269,6.715h-1.129v-5.006H762.6Z"></path>
    <path id="path490" d="M766.28,238.084a2.595,2.595,0,1,1-2.519,2.588A2.5,2.5,0,0,1,766.28,238.084Zm1.4,2.6a1.416,1.416,0,1,0-2.8,0,1.413,1.413,0,1,0,2.8,0Z"></path>
    <path id="path492" d="M769.971,238.165H771.1v.819a1.818,1.818,0,0,1,1.589-.9,1.686,1.686,0,0,1,1.729,1.79v3.3h-1.129v-2.978a1.078,1.078,0,0,0-1.1-1.2,1.286,1.286,0,0,0-1.09.6v3.578h-1.129Z"></path>
    <path id="path494" d="M775.871,241.833a2.888,2.888,0,0,0,1.609.569c.6,0,1.009-.27,1.009-.67,0-.31-.209-.48-.69-.569l-.889-.151c-.969-.179-1.45-.629-1.45-1.379,0-.939.77-1.549,1.94-1.549a3.525,3.525,0,0,1,1.969.6l-.53.739a2.736,2.736,0,0,0-1.509-.479c-.52,0-.86.22-.86.59,0,.319.18.459.71.549l.879.16c1,.19,1.48.65,1.48,1.4a1.835,1.835,0,0,1-2.039,1.629,3.353,3.353,0,0,1-2.159-.68Z"></path>
  </g>
  <g id="g522">
    <path id="path498" d="M167.216,37.669h1.719v7h-1.719Z"></path>
    <path id="path500" d="M172.015,37.669l3.109,4.238-.03-4.238h1.619v7h-1.519l-3.209-4.378.03,4.378H170.4v-7Z"></path>
    <path id="path502" d="M178.566,42.437a3.84,3.84,0,0,0,2.269.93c.739,0,1.189-.3,1.189-.731,0-.409-.24-.6-.92-.729l-1.489-.26a1.855,1.855,0,0,1-1.719-1.869c0-1.359,1.04-2.208,2.779-2.208a4.747,4.747,0,0,1,2.868.919l-.869,1.249a3.338,3.338,0,0,0-2.089-.77c-.68,0-1.069.281-1.069.66,0,.35.229.54.789.63l1.4.24c1.31.23,2,.91,2,1.979,0,1.359-1.159,2.288-2.988,2.288a4.956,4.956,0,0,1-3.028-1.059Z"></path>
    <path id="path504" d="M184.106,37.669h6.227v1.469h-2.249v5.528h-1.719V39.138h-2.259Z"></path>
    <path id="path506" d="M192.1,37.669h1.959l2.689,7h-1.859L194.3,43h-2.558l-.59,1.669h-1.789Zm1.749,4-.809-2.319-.82,2.319Z"></path>
    <path id="path508" d="M197.546,37.669h1.719V43.2h3.468v1.469h-5.187Z"></path>
    <path id="path510" d="M204.026,37.669h1.719V43.2h3.468v1.469h-5.187Z"></path>
    <path id="path512" d="M212.575,37.669h1.959l2.688,7h-1.859L214.784,43h-2.559l-.59,1.669h-1.789Zm1.749,4-.81-2.319-.819,2.319Z"></path>
    <path id="path514" d="M216.256,37.669h6.227v1.469h-2.249v5.528h-1.719V39.138h-2.259Z"></path>
    <path id="path516" d="M223.376,37.669H225.1v7h-1.719Z"></path>
    <path id="path518" d="M229.844,44.776a3.609,3.609,0,1,1,3.608-3.609A3.578,3.578,0,0,1,229.844,44.776Zm-.011-5.688a2.1,2.1,0,1,0,1.84,2.079A1.923,1.923,0,0,0,229.833,39.088Z"></path>
    <path id="path520" d="M236.3,37.669l3.109,4.238-.03-4.238H241v7h-1.519l-3.209-4.378.03,4.378h-1.618v-7Z"></path>
  </g>
  <g id="g558">
    <path id="path524" d="M567.857,37.669h3.418a2.286,2.286,0,1,1,0,4.558h-1.7v2.439h-1.719Zm1.719,1.419v1.77h1.388c.7,0,1.04-.38,1.04-.89s-.339-.88-1.029-.88Z"></path>
    <path id="path526" d="M578.245,44.776a3.609,3.609,0,1,1,3.608-3.609A3.579,3.579,0,0,1,578.245,44.776Zm-.01-5.688a2.1,2.1,0,1,0,1.839,2.079A1.923,1.923,0,0,0,578.235,39.088Z"></path>
    <path id="path528" d="M583.376,42.437a3.842,3.842,0,0,0,2.269.93c.739,0,1.189-.3,1.189-.731,0-.409-.24-.6-.919-.729l-1.49-.26a1.854,1.854,0,0,1-1.718-1.869c0-1.359,1.04-2.208,2.778-2.208a4.75,4.75,0,0,1,2.869.919l-.87,1.249a3.338,3.338,0,0,0-2.089-.77c-.68,0-1.069.281-1.069.66,0,.35.229.54.79.63l1.4.24c1.31.23,2,.91,2,1.979,0,1.359-1.159,2.288-2.988,2.288a4.959,4.959,0,0,1-3.028-1.059Z"></path>
    <path id="path530" d="M588.917,37.669h6.226v1.469h-2.249v5.528h-1.719V39.138h-2.258Z"></path>
    <path id="path532" d="M599.294,41.127v1.35h-3.677v-1.35Z"></path>
    <path id="path534" d="M600.486,37.669h1.72v7h-1.72Z"></path>
    <path id="path536" d="M605.286,37.669l3.107,4.238-.029-4.238h1.619v7h-1.52l-3.208-4.378.031,4.378h-1.619v-7Z"></path>
    <path id="path538" d="M611.835,42.437a3.842,3.842,0,0,0,2.27.93c.739,0,1.188-.3,1.188-.731,0-.409-.239-.6-.918-.729l-1.49-.26a1.854,1.854,0,0,1-1.718-1.869c0-1.359,1.039-2.208,2.778-2.208a4.749,4.749,0,0,1,2.868.919l-.869,1.249a3.34,3.34,0,0,0-2.089-.77c-.68,0-1.069.281-1.069.66,0,.35.229.54.789.63l1.4.24c1.31.23,2,.91,2,1.979,0,1.359-1.159,2.288-2.988,2.288a4.956,4.956,0,0,1-3.028-1.059Z"></path>
    <path id="path540" d="M617.376,37.669H623.6v1.469h-2.249v5.528h-1.719V39.138h-2.259Z"></path>
    <path id="path542" d="M625.365,37.669h1.959l2.688,7h-1.858L627.574,43h-2.559l-.59,1.669h-1.789Zm1.749,4-.81-2.319-.819,2.319Z"></path>
    <path id="path544" d="M630.816,37.669h1.719V43.2H636v1.469h-5.187Z"></path>
    <path id="path546" d="M637.3,37.669h1.719V43.2h3.468v1.469H637.3Z"></path>
    <path id="path548" d="M645.844,37.669H647.8l2.689,7h-1.859L648.053,43H645.5l-.59,1.669h-1.789Zm1.749,4-.809-2.319-.82,2.319Z"></path>
    <path id="path550" d="M649.526,37.669h6.226v1.469H653.5v5.528h-1.718V39.138h-2.259Z"></path>
    <path id="path552" d="M656.646,37.669h1.719v7h-1.719Z"></path>
    <path id="path554" d="M663.114,44.776a3.609,3.609,0,1,1,3.608-3.609A3.578,3.578,0,0,1,663.114,44.776Zm-.01-5.688a2.1,2.1,0,1,0,1.839,2.079A1.923,1.923,0,0,0,663.1,39.088Z"></path>
    <path id="path556" d="M669.575,37.669l3.108,4.238-.03-4.238h1.619v7h-1.519l-3.209-4.378.031,4.378h-1.619v-7Z"></path>
  </g>
</svg>
