<svg id="uuid-1a15b47f-c73f-4973-8dc7-9b8886a3ca62" data-name="svg442" xmlns="http://www.w3.org/2000/svg" width="841.89" height="281.653" viewBox="0 0 841.89 281.653">
  <defs>
    <style>
      .uuid-b28033cb-17cb-4007-b5f0-f312087553c4 {
        stroke-dasharray: 2.763 2.763 2.763 2.763 2.763 2.763;
      }

      .uuid-b28033cb-17cb-4007-b5f0-f312087553c4, .uuid-5c899a69-f856-4c9c-8e22-7ec459210bf1, .uuid-afe14002-66ac-43e5-909c-4c66a29521bb, .uuid-6580ee9f-dc7b-4925-aa40-ef63c9d39bd1, .uuid-d8e58416-b105-4e5d-bf48-6138149231df, .uuid-116f8d56-1356-407e-96b5-2d096efa32c1, .uuid-274bdfbd-744d-4693-8f9e-b77432ebd19a, .uuid-aba90d8a-e675-45eb-8f7c-75abe76103a7, .uuid-862d04ec-30b2-4c90-b29e-67866bce40d9, .uuid-908d9a10-8e89-4a31-b3bf-6b6dd79035d2, .uuid-510efe05-0ecb-4164-a958-854d8c9eef31, .uuid-cde36e3a-dbcd-4554-bb42-e9bc2e07a683, .uuid-1ccd41d6-f07d-437b-97ca-0c26a15d8cd8, .uuid-279feae9-924f-4462-bac5-f442785ac63c, .uuid-5f25fa38-04dd-4ec5-997a-d022f2d00c33, .uuid-46ffff90-99d7-4281-90b3-eca0bfebfc1f, .uuid-937ed127-ed2c-48e4-ade1-ae9f2c208989 {
        stroke-miterlimit: 10;
      }

      .uuid-b28033cb-17cb-4007-b5f0-f312087553c4, .uuid-5c899a69-f856-4c9c-8e22-7ec459210bf1, .uuid-afe14002-66ac-43e5-909c-4c66a29521bb, .uuid-d8e58416-b105-4e5d-bf48-6138149231df, .uuid-3ee7b3d3-d6db-46ec-8dcb-f718727c6d2c, .uuid-e0a9f13d-79d0-4ad1-94b3-5d6929e5e0fb, .uuid-116f8d56-1356-407e-96b5-2d096efa32c1, .uuid-274bdfbd-744d-4693-8f9e-b77432ebd19a, .uuid-aba90d8a-e675-45eb-8f7c-75abe76103a7, .uuid-862d04ec-30b2-4c90-b29e-67866bce40d9, .uuid-6258f630-0c7a-4be2-899c-82617114599d, .uuid-908d9a10-8e89-4a31-b3bf-6b6dd79035d2, .uuid-510efe05-0ecb-4164-a958-854d8c9eef31, .uuid-cde36e3a-dbcd-4554-bb42-e9bc2e07a683, .uuid-e78d3c72-f1cf-4bed-ab3e-1f4f70c81b52, .uuid-1ccd41d6-f07d-437b-97ca-0c26a15d8cd8, .uuid-279feae9-924f-4462-bac5-f442785ac63c, .uuid-5f25fa38-04dd-4ec5-997a-d022f2d00c33, .uuid-46ffff90-99d7-4281-90b3-eca0bfebfc1f, .uuid-937ed127-ed2c-48e4-ade1-ae9f2c208989 {
        fill: none;
      }

      .uuid-b28033cb-17cb-4007-b5f0-f312087553c4, .uuid-6580ee9f-dc7b-4925-aa40-ef63c9d39bd1, .uuid-aba90d8a-e675-45eb-8f7c-75abe76103a7, .uuid-908d9a10-8e89-4a31-b3bf-6b6dd79035d2, .uuid-1ccd41d6-f07d-437b-97ca-0c26a15d8cd8, .uuid-279feae9-924f-4462-bac5-f442785ac63c {
        stroke: #a2a2a2;
      }

      .uuid-5c899a69-f856-4c9c-8e22-7ec459210bf1 {
        stroke-dasharray: 2.981 2.981 2.981 2.981 2.981 2.981;
      }

      .uuid-5c899a69-f856-4c9c-8e22-7ec459210bf1, .uuid-afe14002-66ac-43e5-909c-4c66a29521bb, .uuid-d8e58416-b105-4e5d-bf48-6138149231df, .uuid-116f8d56-1356-407e-96b5-2d096efa32c1, .uuid-274bdfbd-744d-4693-8f9e-b77432ebd19a, .uuid-862d04ec-30b2-4c90-b29e-67866bce40d9, .uuid-cde36e3a-dbcd-4554-bb42-e9bc2e07a683, .uuid-5f25fa38-04dd-4ec5-997a-d022f2d00c33, .uuid-46ffff90-99d7-4281-90b3-eca0bfebfc1f, .uuid-937ed127-ed2c-48e4-ade1-ae9f2c208989 {
        stroke: #e00;
      }

      .uuid-afe14002-66ac-43e5-909c-4c66a29521bb {
        stroke-dasharray: 2.317 2.317 2.317 2.317;
      }

      .uuid-6580ee9f-dc7b-4925-aa40-ef63c9d39bd1 {
        fill: #e8e8e8;
      }

      .uuid-d8e58416-b105-4e5d-bf48-6138149231df {
        stroke-dasharray: 3.079 3.079 3.079 3.079 3.079 3.079;
      }

      .uuid-3ee7b3d3-d6db-46ec-8dcb-f718727c6d2c {
        stroke-width: 2px;
      }

      .uuid-3ee7b3d3-d6db-46ec-8dcb-f718727c6d2c, .uuid-e0a9f13d-79d0-4ad1-94b3-5d6929e5e0fb, .uuid-6258f630-0c7a-4be2-899c-82617114599d, .uuid-e78d3c72-f1cf-4bed-ab3e-1f4f70c81b52, .uuid-ee4fcfbf-00af-4574-b886-2f278f1070a6 {
        stroke-linejoin: round;
      }

      .uuid-3ee7b3d3-d6db-46ec-8dcb-f718727c6d2c, .uuid-6258f630-0c7a-4be2-899c-82617114599d, .uuid-ee4fcfbf-00af-4574-b886-2f278f1070a6 {
        stroke: #000;
        stroke-linecap: round;
      }

      .uuid-e0a9f13d-79d0-4ad1-94b3-5d6929e5e0fb {
        stroke: #d9e8f7;
      }

      .uuid-e0a9f13d-79d0-4ad1-94b3-5d6929e5e0fb, .uuid-e78d3c72-f1cf-4bed-ab3e-1f4f70c81b52 {
        stroke-width: 10px;
      }

      .uuid-6b651b46-58ec-4063-ad8b-89b8ca26d302 {
        fill: #06c;
      }

      .uuid-a604cde7-95dc-43b9-b339-fbb0c6089c4f, .uuid-ee4fcfbf-00af-4574-b886-2f278f1070a6 {
        fill: #fff;
      }

      .uuid-116f8d56-1356-407e-96b5-2d096efa32c1 {
        stroke-dasharray: 3.002 3.002 3.002 3.002;
      }

      .uuid-274bdfbd-744d-4693-8f9e-b77432ebd19a {
        stroke-dasharray: 2.996 2.996 2.996 2.996 2.996 2.996;
      }

      .uuid-7e31233f-9660-4384-b99c-8faba131c7c3 {
        fill: #d9e8f7;
      }

      .uuid-862d04ec-30b2-4c90-b29e-67866bce40d9 {
        stroke-dasharray: 3.079 3.079 3.079 3.079;
      }

      .uuid-6258f630-0c7a-4be2-899c-82617114599d, .uuid-ee4fcfbf-00af-4574-b886-2f278f1070a6 {
        stroke-width: 1.5px;
      }

      .uuid-908d9a10-8e89-4a31-b3bf-6b6dd79035d2 {
        stroke-dasharray: 2.976 2.976 2.976 2.976;
      }

      .uuid-510efe05-0ecb-4164-a958-854d8c9eef31 {
        stroke: #06c;
      }

      .uuid-cde36e3a-dbcd-4554-bb42-e9bc2e07a683 {
        stroke-dasharray: 2.996 2.996 2.996 2.996;
      }

      .uuid-e78d3c72-f1cf-4bed-ab3e-1f4f70c81b52 {
        stroke: #fff;
      }

      .uuid-1ccd41d6-f07d-437b-97ca-0c26a15d8cd8 {
        stroke-dasharray: 2.976 2.976 2.976 2.976 2.976 2.976;
      }

      .uuid-279feae9-924f-4462-bac5-f442785ac63c {
        stroke-dasharray: 2.763 2.763 2.763 2.763;
      }

      .uuid-5f25fa38-04dd-4ec5-997a-d022f2d00c33 {
        stroke-dasharray: 3.002 3.002 3.002 3.002 3.002 3.002;
      }

      .uuid-4afc4230-a956-45b6-b2e0-9e63627e4367 {
        fill: #161616;
      }

      .uuid-b93322cf-d430-4c5b-8b16-eae7458e40bb {
        fill: #e00;
      }

      .uuid-937ed127-ed2c-48e4-ade1-ae9f2c208989 {
        stroke-dasharray: 2.981 2.981 2.981 2.981;
      }
    </style>
  </defs>
  <rect class="uuid-a604cde7-95dc-43b9-b339-fbb0c6089c4f" x="-.595" y="-.259" width="842.79" height="281.884"></rect>
  <rect id="uuid-c128c882-2ac8-460d-95c4-a8cdfa00367f" data-name="rect14" class="uuid-7e31233f-9660-4384-b99c-8faba131c7c3" x="331.689" y="19.025" width="242.007" height="213.165"></rect>
  <g id="uuid-f809cabd-27b1-464c-ba42-c488b8de8bf7" data-name="g26">
    <path id="uuid-ffbbb8cc-2b0c-4f8c-840d-e5ed66187a21" data-name="path16" class="uuid-4afc4230-a956-45b6-b2e0-9e63627e4367" d="M346.653,29.546h1.614l3.109,4.237-.03-4.237h1.621v7h-1.518l-3.209-4.378.029,4.378h-1.618l.002-7Z"></path>
    <path id="uuid-9b46622a-f527-4a3c-883f-197e8d7f8408" data-name="path18" class="uuid-4afc4230-a956-45b6-b2e0-9e63627e4367" d="M354.153,33.973c-.012-1.485,1.183-2.698,2.668-2.71,1.485-.012,2.698,1.183,2.71,2.668.012,1.485-1.183,2.698-2.668,2.71-.007,0-.015,0-.022,0-1.448.036-2.651-1.109-2.688-2.557,0-.037-.001-.074,0-.111ZM357.953,33.973c-.107-.613-.69-1.023-1.302-.916s-1.023.69-.916,1.302c.094.539.562.933,1.109.933.651-.035,1.15-.591,1.115-1.242-.001-.026-.004-.052-.007-.077h.002Z"></path>
    <path id="uuid-b35b8857-28c4-48cd-9b27-b0dd2c785a59" data-name="path20" class="uuid-4afc4230-a956-45b6-b2e0-9e63627e4367" d="M360.334,33.953c-.064-1.371.996-2.535,2.368-2.599.011,0,.021,0,.032-.001.528-.005,1.032.222,1.379.62v-2.548l1.619-.25v7.367h-1.6v-.67c-.375.45-.932.707-1.518.7-1.353-.094-2.373-1.266-2.28-2.619ZM364.111,34.822v-1.733c-.251-.259-.598-.404-.959-.4-.704.02-1.259.606-1.239,1.31.019.676.563,1.22,1.239,1.239.365.008.715-.144.959-.416Z"></path>
    <path id="uuid-ca57345a-234b-4566-807d-143edd3f7bfb" data-name="path22" class="uuid-4afc4230-a956-45b6-b2e0-9e63627e4367" d="M366.767,33.973c-.046-1.427,1.073-2.621,2.5-2.668.033-.001.067-.002.1-.001,1.398-.008,2.539,1.119,2.547,2.517,0,.071-.002.141-.008.212v.349h-3.549c.126.567.629.971,1.21.97.388.019.763-.139,1.02-.43l1.069.89c-.583.556-1.364.854-2.169.829-1.472.03-2.69-1.139-2.719-2.611,0-.019,0-.038,0-.057ZM370.404,33.464c-.088-.513-.528-.892-1.049-.9-.513.005-.941.391-1,.9h2.049Z"></path>
    <path id="uuid-75cdfce4-8eba-40ad-92fc-c5743ff71057" data-name="path24" class="uuid-4afc4230-a956-45b6-b2e0-9e63627e4367" d="M374.943,35.442l2.958-2.929c.285-.235.456-.58.47-.949,0-.45-.44-.789-1.03-.789-.685.022-1.328.334-1.769.859l-.86-1.049c.707-.721,1.67-1.134,2.679-1.15,1.489,0,2.479.81,2.479,2.029-.025.713-.357,1.38-.91,1.83l-2.019,1.948,3.029-.01v1.31h-5.027v-1.1Z"></path>
  </g>
  <g id="uuid-8174d34e-40ea-4012-86e0-f9168ada76eb" data-name="g64">
    <path id="uuid-1959ef7d-1cf8-4738-96ba-429ab9889c84" data-name="path28" class="uuid-a604cde7-95dc-43b9-b339-fbb0c6089c4f" d="M345.873,47.355h99.694v71.449h-99.7l.006-71.449Z"></path>
    <g id="uuid-5f686172-8f5e-494f-825e-52c6d0115ec3" data-name="g38">
      <path id="uuid-c0417c86-4d0c-4372-a536-d943f79f3fde" data-name="path30" class="uuid-4afc4230-a956-45b6-b2e0-9e63627e4367" d="M361.311,57.868h3.418c1.258-.102,2.361.835,2.464,2.093.102,1.258-.835,2.361-2.093,2.464-.123.01-.247.01-.37,0h-1.7v2.439h-1.719v-6.996ZM364.419,61.056c.7,0,1.04-.38,1.04-.889s-.34-.88-1.03-.88h-1.4v1.769h1.39Z"></path>
      <path id="uuid-24bbb5cd-c673-4e4c-81ab-b658901693cc" data-name="path32" class="uuid-4afc4230-a956-45b6-b2e0-9e63627e4367" d="M368.032,62.296c-.012-1.485,1.183-2.698,2.668-2.71,1.485-.012,2.698,1.183,2.71,2.668s-1.183,2.698-2.668,2.71c-.007,0-.015,0-.022,0-1.448.036-2.651-1.109-2.688-2.557,0-.037-.001-.074,0-.111ZM371.832,62.296c-.107-.613-.69-1.023-1.302-.916s-1.023.69-.916,1.302c.094.539.562.933,1.109.933.651-.036,1.15-.593,1.115-1.244-.001-.025-.004-.05-.007-.075h.002Z"></path>
      <path id="uuid-5b52f041-fc68-486a-9a06-1b73458502e7" data-name="path34" class="uuid-4afc4230-a956-45b6-b2e0-9e63627e4367" d="M374.211,62.276c-.063-1.372.998-2.536,2.37-2.599.01,0,.02,0,.03-.001.528-.006,1.033.221,1.379.62v-2.548l1.619-.249v7.365h-1.6v-.669c-.375.45-.933.707-1.519.7-1.352-.095-2.372-1.267-2.279-2.619ZM377.989,63.145v-1.739c-.251-.26-.598-.404-.959-.4-.704.02-1.259.606-1.239,1.31.019.676.563,1.22,1.239,1.239.364.009.714-.141.959-.41h0Z"></path>
      <path id="uuid-73c52445-74d1-4b2b-9146-c0064a90d194" data-name="path36" class="uuid-4afc4230-a956-45b6-b2e0-9e63627e4367" d="M382.901,63.764l2.959-2.927c.285-.236.455-.581.47-.95,0-.45-.441-.79-1.031-.79-.685.023-1.328.335-1.768.86l-.86-1.049c.707-.721,1.67-1.134,2.679-1.15,1.489,0,2.479.81,2.479,2.029-.025.713-.357,1.38-.911,1.829l-2.018,1.949,3.028-.01v1.309h-5.027v-1.1Z"></path>
    </g>
    <g id="uuid-0661193f-dcd2-4a9c-8353-c70ab2ffabfe" data-name="g62">
      <path id="uuid-6f744619-d50c-48be-b8c4-06e59192576a" data-name="path40" class="uuid-6580ee9f-dc7b-4925-aa40-ef63c9d39bd1" d="M360.531,75.735h70.866v28.347h-70.866v-28.347Z"></path>
      <g id="uuid-9122e624-b1e1-4f24-83e6-d33720231a12" data-name="g60">
        <path id="uuid-a2f9186b-66e3-4cc3-ad5b-66e7f41bfe20" data-name="path42" class="uuid-4afc4230-a956-45b6-b2e0-9e63627e4367" d="M374.103,90.178c-.034-1.395,1.069-2.554,2.464-2.588.021,0,.043,0,.064,0,.756-.009,1.481.3,2,.85l-.7.73c-.313-.372-.774-.588-1.26-.59-.884.088-1.528.877-1.44,1.76.076.761.678,1.364,1.44,1.44.484-.003.943-.214,1.26-.579l.7.719c-.519.55-1.244.858-2,.849-1.392.005-2.524-1.119-2.529-2.511,0-.026,0-.053,0-.079Z"></path>
        <path id="uuid-ec3babea-58a1-41fc-8227-408746c098c4" data-name="path44" class="uuid-4afc4230-a956-45b6-b2e0-9e63627e4367" d="M379.333,90.178c.04-1.388,1.199-2.481,2.587-2.441,1.388.04,2.481,1.199,2.441,2.587-.039,1.358-1.151,2.44-2.51,2.442-1.378.014-2.506-1.092-2.52-2.47,0-.039,0-.079.002-.118ZM383.251,90.178c-.115-.776-.838-1.311-1.614-1.196-.776.115-1.311.838-1.196,1.614.104.698.704,1.213,1.409,1.211.82-.044,1.449-.745,1.405-1.565-.001-.021-.003-.043-.005-.064Z"></path>
        <path id="uuid-3eee869f-30e1-413a-9642-bb69358d31a7" data-name="path46" class="uuid-4afc4230-a956-45b6-b2e0-9e63627e4367" d="M385.533,87.67h1.134v.819c.329-.56.93-.902,1.579-.9.933-.034,1.717.694,1.751,1.627.002.054.001.109-.002.163v3.3h-1.14v-2.978c.068-.592-.357-1.126-.949-1.193-.05-.006-.101-.008-.151-.007-.446-.006-.862.226-1.09.61v3.567h-1.129l-.003-5.008Z"></path>
        <path id="uuid-54755897-9df7-4fb9-9a1f-5ac3cc8061d1" data-name="path48" class="uuid-4afc4230-a956-45b6-b2e0-9e63627e4367" d="M391.972,91.378v-2.809h-1v-.9h1v-1.38l1.129-.24v1.62h1.39v.9h-1.39v2.559c0,.489.191.679.7.679.232-.003.461-.043.68-.12v.949c-.315.092-.642.139-.97.141-1.009,0-1.539-.48-1.539-1.399Z"></path>
        <path id="uuid-783a4e45-b9a4-47ce-a7da-b797a9f51d0e" data-name="path50" class="uuid-4afc4230-a956-45b6-b2e0-9e63627e4367" d="M395.233,91.238c0-.9.739-1.47,1.919-1.47.469-.003.932.108,1.349.321v-.561c0-.659-.38-1-1.15-1-.509.021-1.007.154-1.459.39l-.4-.82c.646-.319,1.355-.492,2.075-.509,1.309,0,2.049.66,2.049,1.82v3.267h-1.119v-.519c-.391.4-.93.621-1.49.609-.875.1-1.665-.528-1.765-1.403-.005-.042-.008-.083-.009-.125ZM397.322,91.967c.431.011.852-.139,1.179-.42v-.809c-.36-.167-.753-.25-1.15-.24-.649,0-1.059.269-1.059.719s.4.75,1.03.75h0Z"></path>
        <path id="uuid-223f4773-1bee-4eae-9038-b788a5781b69" data-name="path52" class="uuid-4afc4230-a956-45b6-b2e0-9e63627e4367" d="M400.852,85.961c0-.387.313-.7.7-.7h0c.384.005.695.316.7.7-.006.382-.318.689-.7.689-.383.004-.696-.303-.7-.686,0-.001,0-.002,0-.003ZM400.982,87.67h1.129v5.006h-1.129v-5.006Z"></path>
        <path id="uuid-5637ffd5-51c6-4d21-af79-f0fc499ce8ce" data-name="path54" class="uuid-4afc4230-a956-45b6-b2e0-9e63627e4367" d="M403.512,87.67h1.129v.819c.329-.559.93-.902,1.579-.9.933-.034,1.717.694,1.751,1.627.002.054.001.109-.002.163v3.3h-1.139v-2.978c.068-.592-.357-1.126-.949-1.193-.05-.006-.101-.008-.151-.007-.446-.006-.862.226-1.09.61v3.567h-1.129v-5.008Z"></path>
        <path id="uuid-c89403b2-2ac4-49bb-a9eb-67ca2e352846" data-name="path56" class="uuid-4afc4230-a956-45b6-b2e0-9e63627e4367" d="M409.102,90.178c-.064-1.364.99-2.522,2.354-2.586.028-.001.057-.002.085-.003,1.329.018,2.392,1.11,2.375,2.439,0,.05-.003.1-.007.15v.27h-3.7c.068.782.715,1.386,1.5,1.4.443.008.871-.161,1.19-.469l.739.669c-.544.483-1.25.743-1.978.73-1.404.009-2.549-1.121-2.559-2.525,0-.025,0-.05,0-.075ZM412.839,89.749c-.06-.684-.621-1.216-1.308-1.24-.69.016-1.256.552-1.31,1.24h2.618Z"></path>
        <path id="uuid-bbff9e5c-68a6-4e34-a99e-a1ba556cfb43" data-name="path58" class="uuid-4afc4230-a956-45b6-b2e0-9e63627e4367" d="M415.067,87.67h1.129v1.079c.146-.651.705-1.128,1.371-1.169.168.002.335.036.49.1v.99c-.198-.077-.408-.118-.62-.121-.545.003-1.036.33-1.249.831v3.3h-1.121v-5.01Z"></path>
      </g>
    </g>
  </g>
  <path id="uuid-f3c9e0c0-4436-416c-8477-611d2e995108" data-name="path66" class="uuid-a604cde7-95dc-43b9-b339-fbb0c6089c4f" d="M459.826,47.355h99.7v71.449h-99.7V47.355Z"></path>
  <g id="uuid-a6c51d3e-7c8c-430b-b5b2-a721805cc7ac" data-name="g76">
    <path id="uuid-84616060-b5bf-4c64-950b-e3a2eb71d243" data-name="path68" class="uuid-4afc4230-a956-45b6-b2e0-9e63627e4367" d="M475.267,57.868h3.418c1.258-.102,2.361.835,2.464,2.093.102,1.258-.835,2.361-2.093,2.464-.123.01-.247.01-.37,0h-1.7v2.439h-1.718v-6.996ZM478.375,61.056c.7,0,1.04-.38,1.04-.889s-.34-.88-1.03-.88h-1.4v1.769h1.39Z"></path>
    <path id="uuid-2d443cb4-a818-4e24-8d10-2a8eb0aa8ad0" data-name="path70" class="uuid-4afc4230-a956-45b6-b2e0-9e63627e4367" d="M481.985,62.296c-.012-1.485,1.183-2.698,2.668-2.71,1.485-.012,2.698,1.183,2.71,2.668s-1.183,2.698-2.668,2.71c-.007,0-.015,0-.022,0-1.448.036-2.651-1.109-2.688-2.557,0-.037-.001-.074,0-.111ZM485.785,62.296c-.107-.613-.69-1.023-1.302-.916s-1.023.69-.916,1.302c.094.539.562.933,1.109.933.651-.036,1.15-.593,1.115-1.244-.001-.025-.004-.05-.007-.075h.002Z"></path>
    <path id="uuid-38226ffa-b504-4313-8166-a8905fc80c9a" data-name="path72" class="uuid-4afc4230-a956-45b6-b2e0-9e63627e4367" d="M488.167,62.276c-.063-1.372.998-2.536,2.37-2.599.01,0,.02,0,.03-.001.529-.005,1.033.221,1.38.62v-2.548l1.62-.249v7.365h-1.6v-.669c-.375.45-.932.708-1.518.7-1.353-.093-2.375-1.266-2.282-2.619ZM491.945,63.145v-1.739c-.251-.26-.599-.404-.96-.4-.704.02-1.259.606-1.239,1.31.019.676.563,1.22,1.239,1.239.364.009.713-.141.958-.41h.002Z"></path>
    <path id="uuid-26ed5475-f6ec-4c56-aab6-5ed69afbd0b0" data-name="path74" class="uuid-4afc4230-a956-45b6-b2e0-9e63627e4367" d="M496.655,63.844l1.039-.959c.409.513,1.046.79,1.7.74.76,0,1.26-.34,1.26-.86,0-.45-.36-.729-.92-.729h-.9v-1.27h.739c.57,0,.91-.29.91-.779s-.47-.859-1.1-.859c-.642-.018-1.251.282-1.629.8l-1.049-.949c.698-.777,1.694-1.221,2.738-1.219,1.529,0,2.589.83,2.589,2.019-.027.774-.573,1.432-1.329,1.6.919.18,1.508.75,1.508,1.519,0,1.209-1.168,2.079-2.8,2.079-1.038.032-2.04-.38-2.756-1.133Z"></path>
  </g>
  <g id="uuid-33707058-2f44-4bb5-ab70-8ad0a4ac0588" data-name="g100">
    <path id="uuid-6f596ab3-cb9b-4daf-991d-65b2006dabdf" data-name="path78" class="uuid-6580ee9f-dc7b-4925-aa40-ef63c9d39bd1" d="M474.484,75.735h70.866v28.347h-70.866v-28.347Z"></path>
    <g id="uuid-b4a1784f-3d99-46c2-b3da-c74fd3a439ad" data-name="g98">
      <path id="uuid-4b309809-1b45-490b-8236-4e16df557736" data-name="path80" class="uuid-4afc4230-a956-45b6-b2e0-9e63627e4367" d="M488.056,90.178c-.034-1.395,1.069-2.554,2.464-2.588.022,0,.043,0,.065,0,.756-.009,1.482.299,2,.85l-.7.73c-.312-.372-.772-.588-1.258-.59-.884.088-1.528.877-1.44,1.76.076.761.678,1.364,1.44,1.44.483-.003.942-.214,1.258-.579l.7.719c-.518.551-1.244.859-2,.849-1.392.006-2.524-1.118-2.53-2.51,0-.027,0-.053,0-.08Z"></path>
      <path id="uuid-9baae61f-3ae2-4b95-bf12-4b3de41fbc5e" data-name="path82" class="uuid-4afc4230-a956-45b6-b2e0-9e63627e4367" d="M493.287,90.178c.04-1.388,1.199-2.481,2.587-2.441,1.388.04,2.481,1.199,2.441,2.587-.039,1.358-1.151,2.44-2.51,2.442-1.377.014-2.505-1.091-2.52-2.468,0-.04,0-.08.002-.12ZM497.205,90.178c-.115-.776-.838-1.311-1.614-1.196-.776.115-1.311.838-1.196,1.614.104.698.704,1.213,1.409,1.211.82-.044,1.449-.745,1.405-1.565-.001-.021-.003-.043-.005-.064Z"></path>
      <path id="uuid-cfe69870-4acb-40ee-aaa6-5a3b4600ee27" data-name="path84" class="uuid-4afc4230-a956-45b6-b2e0-9e63627e4367" d="M499.486,87.67h1.13v.819c.329-.56.93-.902,1.579-.9.933-.034,1.717.694,1.751,1.627.002.054.001.109-.002.163v3.3h-1.14v-2.978c.068-.591-.356-1.125-.947-1.193-.051-.006-.102-.008-.154-.007-.446-.006-.861.226-1.089.61v3.567h-1.13v-5.008Z"></path>
      <path id="uuid-248db489-cce1-433a-93cc-edcf1b4c39e9" data-name="path86" class="uuid-4afc4230-a956-45b6-b2e0-9e63627e4367" d="M505.925,91.378v-2.809h-1v-.9h1v-1.38l1.13-.24v1.62h1.389v.9h-1.389v2.559c0,.489.19.679.7.679.232-.003.461-.043.68-.12v.949c-.315.092-.642.139-.97.141-1.009,0-1.54-.48-1.54-1.399Z"></path>
      <path id="uuid-33fb5662-6f87-448e-9eee-f14e1cef831d" data-name="path88" class="uuid-4afc4230-a956-45b6-b2e0-9e63627e4367" d="M509.186,91.238c0-.9.739-1.47,1.919-1.47.469-.002.932.108,1.35.321v-.561c0-.659-.38-1-1.15-1-.509.021-1.007.154-1.459.39l-.4-.82c.648-.32,1.357-.494,2.079-.51,1.31,0,2.049.66,2.049,1.82v3.267h-1.119v-.519c-.391.4-.93.621-1.49.609-.874.103-1.666-.523-1.769-1.397-.005-.043-.008-.087-.01-.13ZM511.275,91.967c.432.011.852-.138,1.18-.42v-.809c-.36-.167-.753-.249-1.15-.24-.649,0-1.059.269-1.059.719s.399.75,1.029.75h0Z"></path>
      <path id="uuid-a52efa72-1eac-4cd8-9591-66ddf8f2b2be" data-name="path90" class="uuid-4afc4230-a956-45b6-b2e0-9e63627e4367" d="M514.805,85.961c-.006-.387.302-.705.689-.711.387-.006.705.302.711.689.006.387-.302.705-.689.711-.004,0-.007,0-.011,0-.383.003-.697-.305-.7-.688h0ZM514.935,87.67h1.13v5.006h-1.13v-5.006Z"></path>
      <path id="uuid-2e3fa964-a90d-488d-8086-3bcc00ca71bf" data-name="path92" class="uuid-4afc4230-a956-45b6-b2e0-9e63627e4367" d="M517.467,87.67h1.13v.819c.329-.56.93-.902,1.579-.9.933-.034,1.717.694,1.751,1.627.002.054.001.109-.002.163v3.3h-1.139v-2.978c.068-.592-.357-1.126-.949-1.193-.05-.006-.101-.008-.151-.007-.446-.006-.861.226-1.089.61v3.567h-1.13v-5.008Z"></path>
      <path id="uuid-5f8a0a18-5366-4b10-90db-3d456743cbaa" data-name="path94" class="uuid-4afc4230-a956-45b6-b2e0-9e63627e4367" d="M523.055,90.178c-.064-1.364.99-2.522,2.354-2.586.028-.001.057-.002.085-.003,1.329.017,2.393,1.109,2.376,2.438,0,.05-.003.101-.007.151v.27h-3.7c.068.782.715,1.386,1.5,1.4.443.008.871-.161,1.189-.469l.74.669c-.545.483-1.251.744-1.979.73-1.404.009-2.549-1.121-2.559-2.525,0-.025,0-.05,0-.075ZM526.793,89.749c-.061-.685-.622-1.216-1.309-1.24-.69.016-1.255.552-1.309,1.24h2.618Z"></path>
      <path id="uuid-b40e581d-de5a-4028-b317-32115b2ae114" data-name="path96" class="uuid-4afc4230-a956-45b6-b2e0-9e63627e4367" d="M529.015,87.67h1.13v1.079c.147-.654.71-1.131,1.379-1.169.168.002.334.036.489.1v.99c-.198-.077-.407-.118-.619-.121-.545.003-1.036.329-1.249.831v3.3h-1.13v-5.01Z"></path>
    </g>
  </g>
  <rect id="uuid-eae78a56-4639-4220-9364-feef82442c4a" data-name="rect104" class="uuid-7e31233f-9660-4384-b99c-8faba131c7c3" x="75.465" y="19.009" width="242.007" height="213.181"></rect>
  <g id="uuid-a0ed1ff8-ee0e-4384-9f9b-dac73620c663" data-name="g116">
    <path id="uuid-2bf76e3e-c136-4756-a159-0be69fc1d47d" data-name="path106" class="uuid-4afc4230-a956-45b6-b2e0-9e63627e4367" d="M90.428,29.546h1.619l3.109,4.237-.03-4.237h1.619v7h-1.519l-3.209-4.382.03,4.378h-1.619v-6.996Z"></path>
    <path id="uuid-184d2580-5f98-4f23-ad8f-96fefc6e867b" data-name="path108" class="uuid-4afc4230-a956-45b6-b2e0-9e63627e4367" d="M97.928,33.973c-.012-1.485,1.183-2.698,2.668-2.71,1.485-.012,2.698,1.183,2.71,2.668.012,1.485-1.183,2.698-2.668,2.71-.007,0-.014,0-.021,0-1.449.036-2.652-1.109-2.689-2.558,0-.037-.001-.073,0-.11ZM101.728,33.973c-.105-.613-.687-1.025-1.3-.92-.613.105-1.025.687-.92,1.3.092.54.561.935,1.109.936.651-.035,1.15-.59,1.115-1.241-.001-.025-.003-.05-.006-.075h.002Z"></path>
    <path id="uuid-9762e6f4-455e-41cf-b62a-075710882522" data-name="path110" class="uuid-4afc4230-a956-45b6-b2e0-9e63627e4367" d="M104.109,33.953c-.063-1.372.998-2.536,2.37-2.599.01,0,.02,0,.03-.001.528-.006,1.033.221,1.379.62v-2.548l1.619-.25v7.367h-1.6v-.67c-.376.45-.934.707-1.52.7-1.352-.096-2.371-1.267-2.278-2.619ZM107.886,34.822v-1.733c-.251-.259-.598-.404-.959-.4-.704.02-1.259.606-1.239,1.31.019.676.563,1.22,1.239,1.239.365.008.715-.144.959-.416Z"></path>
    <path id="uuid-fdd33166-ff2e-47bf-a995-abc455e088b1" data-name="path112" class="uuid-4afc4230-a956-45b6-b2e0-9e63627e4367" d="M110.539,33.973c-.046-1.427,1.073-2.621,2.5-2.668.033-.001.067-.002.1-.001,1.398-.008,2.538,1.118,2.546,2.516,0,.071-.002.142-.008.213v.349h-3.55c.125.567.628.971,1.209.97.388.019.763-.139,1.02-.43l1.069.89c-.582.556-1.364.855-2.169.829-1.472.028-2.688-1.142-2.717-2.615,0-.018,0-.036,0-.053ZM114.176,33.464c-.088-.513-.528-.892-1.049-.9-.513.004-.942.39-1,.9h2.049Z"></path>
    <path id="uuid-7653a919-5428-4f9a-b14b-c55402ae5368" data-name="path114" class="uuid-4afc4230-a956-45b6-b2e0-9e63627e4367" d="M119.908,31.144l-1.38.57v-1.359l1.949-.809h.97v7h-1.539v-5.402Z"></path>
  </g>
  <g id="uuid-e204f4b3-c6ac-4654-b988-6f8b31e68aa1" data-name="g188">
    <g id="uuid-65409dd9-183e-44d6-ae7c-357d4bfbf425" data-name="g146">
      <rect id="uuid-d91b7ce3-9208-4139-992d-427591a1b702" data-name="rect118" class="uuid-a604cde7-95dc-43b9-b339-fbb0c6089c4f" x="89.649" y="47.355" width="99.698" height="71.449"></rect>
      <g id="uuid-b05e6977-4103-42d1-81a0-281151f876fc" data-name="g144">
        <polyline id="uuid-8a665756-d811-4ab9-8dc9-1465f139e5a7" data-name="polyline120" class="uuid-aba90d8a-e675-45eb-8f7c-75abe76103a7" points="89.649 48.855 89.649 47.355 91.149 47.355"></polyline>
        <line id="uuid-cc18fb63-dca1-4a48-9c41-958a7aff997e" data-name="line122" class="uuid-279feae9-924f-4462-bac5-f442785ac63c" x1="93.912" y1="47.355" x2="103.582" y2="47.355"></line>
        <line id="uuid-794c5e8a-a447-4afa-8f47-48b589687534" data-name="line124" class="uuid-b28033cb-17cb-4007-b5f0-f312087553c4" x1="104.963" y1="47.355" x2="186.465" y2="47.355"></line>
        <polyline id="uuid-0450dadc-a185-4fde-aabd-56cab26811fa" data-name="polyline126" class="uuid-aba90d8a-e675-45eb-8f7c-75abe76103a7" points="187.847 47.355 189.347 47.355 189.347 48.855"></polyline>
        <line id="uuid-d1a494f3-a530-45a5-ac69-3cf867531c26" data-name="line128" class="uuid-908d9a10-8e89-4a31-b3bf-6b6dd79035d2" x1="189.347" y1="51.831" x2="189.347" y2="62.248"></line>
        <line id="uuid-40bf5102-04d5-4bc1-afd1-e94e5f6ffecb" data-name="line130" class="uuid-1ccd41d6-f07d-437b-97ca-0c26a15d8cd8" x1="189.347" y1="63.736" x2="189.347" y2="115.816"></line>
        <polyline id="uuid-b88890cc-11e3-458f-8052-bdd9a5d61931" data-name="polyline132" class="uuid-aba90d8a-e675-45eb-8f7c-75abe76103a7" points="189.347 117.304 189.347 118.804 187.847 118.804"></polyline>
        <line id="uuid-db85986e-a22e-44a9-9592-bf07e189cd02" data-name="line134" class="uuid-279feae9-924f-4462-bac5-f442785ac63c" x1="185.084" y1="118.804" x2="175.414" y2="118.804"></line>
        <line id="uuid-566bcc1c-9472-4f8c-9ede-9076960bc45b" data-name="line136" class="uuid-b28033cb-17cb-4007-b5f0-f312087553c4" x1="174.033" y1="118.804" x2="92.53" y2="118.804"></line>
        <polyline id="uuid-1c3b55aa-5f11-4b1f-a287-e930b85ce502" data-name="polyline138" class="uuid-aba90d8a-e675-45eb-8f7c-75abe76103a7" points="91.149 118.804 89.649 118.804 89.649 117.304"></polyline>
        <line id="uuid-61d155ac-f5cf-4513-a84c-2d87d85d3b71" data-name="line140" class="uuid-908d9a10-8e89-4a31-b3bf-6b6dd79035d2" x1="89.649" y1="114.328" x2="89.649" y2="103.912"></line>
        <line id="uuid-7db98668-928b-488e-bd7b-9bb74c287f33" data-name="line142" class="uuid-1ccd41d6-f07d-437b-97ca-0c26a15d8cd8" x1="89.649" y1="102.424" x2="89.649" y2="50.343"></line>
      </g>
    </g>
    <g id="uuid-bdbfa093-5cd0-4a78-b1ea-a5a8790bdadc" data-name="g166">
      <path id="uuid-f9079b9c-a44a-43d0-a3f8-796130b39825" data-name="path148" class="uuid-4afc4230-a956-45b6-b2e0-9e63627e4367" d="M105.086,57.868h3.4c1.249-.109,2.351.815,2.461,2.064.005.055.008.109.008.164.007.857-.507,1.632-1.3,1.959l1.47,2.809h-1.919l-1.27-2.568h-1.13v2.568h-1.719v-6.996ZM108.325,60.946c.458.028.852-.321.879-.78s-.321-.852-.78-.879c-.033-.002-.067-.002-.1,0h-1.52v1.659h1.52Z"></path>
      <path id="uuid-d67b9d58-eb8d-40d1-95b5-44d560c2d670" data-name="path150" class="uuid-4afc4230-a956-45b6-b2e0-9e63627e4367" d="M111.737,62.296c-.012-1.485,1.183-2.698,2.668-2.71,1.485-.012,2.698,1.183,2.71,2.668.012,1.485-1.183,2.698-2.668,2.71-.007,0-.015,0-.022,0-1.448.036-2.651-1.109-2.688-2.557,0-.037-.001-.074,0-.111ZM115.537,62.296c-.107-.613-.69-1.023-1.302-.916s-1.023.69-.916,1.302c.094.539.562.933,1.109.933.651-.036,1.15-.593,1.115-1.244-.001-.025-.004-.05-.007-.075h.002Z"></path>
      <path id="uuid-9bc44a5c-c2ae-48ae-a1f6-3930bb2141bc" data-name="path152" class="uuid-4afc4230-a956-45b6-b2e0-9e63627e4367" d="M118.107,63.189v-3.482h1.619v3.008c-.056.471.28.897.751.953.036.004.072.006.108.006.339.005.66-.155.86-.429v-3.538h1.622v5.157h-1.619v-.839c-.344.571-.962.92-1.629.919-.92.026-1.688-.699-1.714-1.619-.001-.045,0-.091.002-.136Z"></path>
      <path id="uuid-f194532d-a96a-4ae8-abb3-b35f2a6573b6" data-name="path154" class="uuid-4afc4230-a956-45b6-b2e0-9e63627e4367" d="M125.005,63.305v-2.348h-1v-1.25h1v-1.429l1.62-.33v1.759h1.379v1.25h-1.379v2.032c0,.46.18.62.679.62.224-.002.447-.039.66-.11v1.309c-.362.099-.734.153-1.109.16-1.22-.004-1.85-.564-1.85-1.663Z"></path>
      <path id="uuid-8dfe62bd-24eb-4cdc-bf72-0956b383818b" data-name="path156" class="uuid-4afc4230-a956-45b6-b2e0-9e63627e4367" d="M128.676,62.296c-.046-1.427,1.073-2.621,2.5-2.668.033-.001.067-.002.1-.001,1.398-.009,2.538,1.117,2.547,2.515,0,.071-.002.142-.008.213v.351h-3.548c.127.566.63.969,1.21.968.388.019.763-.138,1.02-.429l1.069.889c-.583.556-1.364.855-2.169.83-1.473.03-2.691-1.14-2.72-2.612,0-.019,0-.037,0-.056ZM132.314,61.786c-.087-.514-.528-.892-1.049-.9-.513.004-.942.39-1,.9h2.049Z"></path>
      <path id="uuid-2e9975c7-ccc5-4350-98ae-dd2c7151130f" data-name="path158" class="uuid-4afc4230-a956-45b6-b2e0-9e63627e4367" d="M134.827,59.707h1.618v1.17c.33-.86.79-1.27,1.4-1.27.188-.004.374.041.54.13v1.39c-.238-.11-.497-.165-.759-.161-.475.003-.918.243-1.18.64v3.258h-1.619v-5.157Z"></path>
      <path id="uuid-06e9c22c-7b53-41f0-b270-aa946f14103b" data-name="path160" class="uuid-4afc4230-a956-45b6-b2e0-9e63627e4367" d="M141.396,59.707h1.6v.719c.363-.477.929-.754,1.528-.749,1.352.096,2.371,1.267,2.279,2.619.064,1.371-.996,2.535-2.368,2.599-.011,0-.021,0-.032.001-.529.014-1.037-.205-1.39-.6v2.658h-1.619l.002-7.247ZM145.214,62.286c.028-.673-.496-1.241-1.169-1.269-.02,0-.04-.001-.06,0-.37-.01-.725.143-.97.42v1.719c.253.265.604.413.97.41.672.007,1.223-.531,1.23-1.203,0-.024,0-.048-.001-.073v-.003Z"></path>
      <path id="uuid-4f9327d1-88fd-45d1-8b71-1075e02f06fe" data-name="path162" class="uuid-4afc4230-a956-45b6-b2e0-9e63627e4367" d="M147.606,62.296c-.012-1.485,1.183-2.698,2.668-2.71,1.485-.012,2.698,1.183,2.71,2.668s-1.183,2.698-2.668,2.71c-.007,0-.015,0-.022,0-1.448.036-2.651-1.109-2.688-2.557,0-.037-.001-.074,0-.111ZM151.406,62.296c-.107-.613-.69-1.023-1.302-.916s-1.023.69-.916,1.302c.094.539.562.933,1.109.933.651-.036,1.15-.593,1.115-1.244-.001-.025-.004-.05-.007-.075h.002Z"></path>
      <path id="uuid-1eafed5b-a9e7-4054-b1e7-4edcb0fb9455" data-name="path164" class="uuid-4afc4230-a956-45b6-b2e0-9e63627e4367" d="M153.787,62.276c-.064-1.371.996-2.535,2.368-2.599.011,0,.021,0,.032-.001.528-.006,1.033.221,1.379.62v-2.548l1.619-.249v7.365h-1.6v-.669c-.376.45-.934.707-1.52.7-1.352-.095-2.371-1.267-2.278-2.619ZM157.564,63.145v-1.739c-.251-.26-.598-.404-.959-.4-.704.02-1.259.606-1.239,1.31.019.676.563,1.22,1.239,1.239.365.01.716-.14.962-.41h-.003Z"></path>
    </g>
    <g id="uuid-80ce95ed-d75f-4ccc-88f6-3650b4921973" data-name="g186">
      <path id="uuid-1e630bfe-2106-496f-b71d-6d5f541781e3" data-name="path168" class="uuid-6580ee9f-dc7b-4925-aa40-ef63c9d39bd1" d="M104.308,75.735h70.866v28.347h-70.866v-28.347Z"></path>
      <g id="uuid-baeb82d2-fc9f-4c90-a5d7-5ae2b0ae4955" data-name="g184">
        <path id="uuid-4cf5d966-1ce2-42e5-9191-b512351e7cf2" data-name="path170" class="uuid-4afc4230-a956-45b6-b2e0-9e63627e4367" d="M119.613,85.68h1.2v2.939h3.479v-2.939h1.2v7h-1.2v-2.991h-3.479v2.988h-1.2v-6.997Z"></path>
        <path id="uuid-c1ffae16-e98d-48fa-b848-09b506017ae1" data-name="path172" class="uuid-4afc4230-a956-45b6-b2e0-9e63627e4367" d="M129.092,85.68h1.389l2.709,7h-1.29l-.719-1.959h-2.869l-.72,1.959h-1.249l2.749-7ZM130.851,89.78l-1.1-2.958-1.089,2.958h2.189Z"></path>
        <path id="uuid-5afb5a8b-5d56-4a41-ad67-b182c7f60c65" data-name="path174" class="uuid-4afc4230-a956-45b6-b2e0-9e63627e4367" d="M134.092,85.68h3.129c1.195-.096,2.242.795,2.338,1.99s-.795,2.242-1.99,2.338c-.116.009-.232.009-.348,0h-1.928v2.668h-1.2v-6.996ZM137.031,89.029c.646.076,1.231-.385,1.307-1.031s-.385-1.231-1.031-1.307c-.088-.01-.177-.011-.265-.001h-1.749v2.339h1.738Z"></path>
        <path id="uuid-34cac0ee-6a44-4f54-8816-aade640a9dea" data-name="path176" class="uuid-4afc4230-a956-45b6-b2e0-9e63627e4367" d="M140.743,87.67h1.13v1.079c.147-.654.71-1.131,1.379-1.169.168.002.334.036.489.1v.99c-.198-.077-.407-.118-.619-.121-.545.002-1.036.329-1.249.831v3.3h-1.13v-5.01Z"></path>
        <path id="uuid-ae9c6a3e-32b0-4514-8bf1-933529276a2a" data-name="path178" class="uuid-4afc4230-a956-45b6-b2e0-9e63627e4367" d="M144.443,90.178c.04-1.388,1.199-2.481,2.587-2.441,1.388.04,2.481,1.199,2.441,2.587-.039,1.358-1.151,2.44-2.51,2.442-1.377.014-2.505-1.091-2.52-2.468,0-.04,0-.08.002-.12ZM148.361,90.178c-.115-.776-.838-1.311-1.614-1.196-.776.115-1.311.838-1.196,1.614.104.698.704,1.213,1.409,1.211.82-.044,1.449-.745,1.405-1.565-.001-.021-.003-.043-.005-.064Z"></path>
        <path id="uuid-bb9f4e58-bb9a-4b65-b8d0-0d798c1c994a" data-name="path180" class="uuid-4afc4230-a956-45b6-b2e0-9e63627e4367" d="M151.952,90.098l-1.809-2.428h1.329l1.17,1.649,1.169-1.649h1.27l-1.829,2.458,1.909,2.548h-1.32l-1.259-1.749-1.259,1.749h-1.256l1.885-2.578Z"></path>
        <path id="uuid-2763418a-0837-4e0d-b9f6-9bb9e1f50c2c" data-name="path182" class="uuid-4afc4230-a956-45b6-b2e0-9e63627e4367" d="M155.783,94.796v-.98c.144.029.292.042.439.04.368.017.701-.217.81-.569l.23-.561-1.889-5.056h1.25l1.279,3.708,1.389-3.708h1.239l-2.4,5.877c-.184.824-.947,1.387-1.789,1.319-.188-.002-.375-.025-.558-.07Z"></path>
      </g>
    </g>
  </g>
  <g id="uuid-50d362d7-494a-4f7c-99e9-72b94f520bf2" data-name="g216">
    <path id="uuid-cac92f93-6c95-4dbc-abe4-5d4f1dfe9aed" data-name="path190" class="uuid-a604cde7-95dc-43b9-b339-fbb0c6089c4f" d="M203.602,47.355h99.7v71.449h-99.7V47.355Z"></path>
    <g id="uuid-dd6a052f-cfa3-4637-9fb2-ca63c13954f3" data-name="g200">
      <path id="uuid-29d6ac86-8f2f-4069-992a-06b9c9a738ba" data-name="path192" class="uuid-4afc4230-a956-45b6-b2e0-9e63627e4367" d="M219.041,57.868h3.418c1.258-.102,2.361.835,2.464,2.093.102,1.258-.835,2.361-2.093,2.464-.123.01-.247.01-.37,0h-1.7v2.439h-1.718v-6.996ZM222.148,61.056c.7,0,1.04-.38,1.04-.889s-.34-.88-1.029-.88h-1.4v1.769h1.389Z"></path>
      <path id="uuid-b24d5fa3-5da7-42fb-b737-bf79d704b223" data-name="path194" class="uuid-4afc4230-a956-45b6-b2e0-9e63627e4367" d="M225.76,62.296c-.012-1.485,1.183-2.698,2.668-2.71,1.485-.012,2.698,1.183,2.71,2.668s-1.183,2.698-2.668,2.71c-.007,0-.014,0-.021,0-1.448.037-2.652-1.108-2.689-2.556,0-.037-.001-.075,0-.112ZM229.56,62.296c-.107-.613-.69-1.023-1.302-.916s-1.023.69-.916,1.302c.094.539.562.933,1.11.933.651-.036,1.15-.594,1.113-1.245-.001-.025-.004-.049-.006-.074h.002Z"></path>
      <path id="uuid-9f4e7daf-90b4-4a29-8ddb-753bca559928" data-name="path196" class="uuid-4afc4230-a956-45b6-b2e0-9e63627e4367" d="M231.94,62.276c-.063-1.372.998-2.536,2.37-2.599.01,0,.02,0,.03-.001.529-.006,1.033.221,1.38.62v-2.548l1.619-.249v7.365h-1.6v-.669c-.375.45-.933.708-1.519.7-1.352-.094-2.373-1.266-2.28-2.619ZM235.718,63.145v-1.739c-.251-.26-.599-.404-.96-.4-.704.02-1.259.606-1.239,1.31.019.676.563,1.22,1.239,1.239.364.009.715-.14.96-.41Z"></path>
      <path id="uuid-ba2b0858-7607-4afa-b396-18c261a76a53" data-name="path198" class="uuid-4afc4230-a956-45b6-b2e0-9e63627e4367" d="M241.82,59.467l-1.38.57v-1.36l1.949-.809h.97v7h-1.539v-5.401Z"></path>
    </g>
    <g id="uuid-3b89443e-3b47-45e1-afea-4dfd7911f00f" data-name="g214">
      <g id="uuid-bf9198c1-ffa6-4d5f-adbe-061a5869b649" data-name="g206">
        <rect id="uuid-21c7f290-5f8c-4454-9676-21ef9ede7d73" data-name="rect202" class="uuid-7e31233f-9660-4384-b99c-8faba131c7c3" x="218.76" y="76.235" width="69.866" height="27.347"></rect>
        <path id="uuid-e28076cb-f14d-4e6a-830e-d374059b6895" data-name="path204" class="uuid-6b651b46-58ec-4063-ad8b-89b8ca26d302" d="M288.127,76.735v26.347h-68.867v-26.347h68.867M289.127,75.735h-70.867v28.347h70.867v-28.347Z"></path>
      </g>
      <g id="uuid-1dfd4e1e-843f-4781-b5ca-d90d93d99ad7" data-name="g212">
        <path id="uuid-ebcea8b9-b92a-4e03-a0fa-a71e1cabf7d1" data-name="path208" class="uuid-4afc4230-a956-45b6-b2e0-9e63627e4367" d="M245.822,85.68h1.289l2.149,5.778,2.169-5.778h1.238l-2.739,7h-1.388l-2.718-7Z"></path>
        <path id="uuid-41ea4062-ff1e-40eb-b1fd-d17af4763490" data-name="path210" class="uuid-4afc4230-a956-45b6-b2e0-9e63627e4367" d="M253.567,85.68h1.559l2.049,4.248,2.039-4.248h1.559v7h-1.129v-5.476l-2.479,4.977-2.489-5.007v5.506h-1.109v-7Z"></path>
      </g>
    </g>
  </g>
  <rect id="uuid-34cb7782-494b-4ceb-a768-13653243e004" data-name="rect218" class="uuid-7e31233f-9660-4384-b99c-8faba131c7c3" x="587.884" y="19.025" width="242.007" height="213.165"></rect>
  <g id="uuid-b4140543-7faa-467e-bf49-c8ae8a7f65bd" data-name="g230">
    <path id="uuid-d2c36f39-0da9-4cba-9000-a8012aef42fd" data-name="path220" class="uuid-4afc4230-a956-45b6-b2e0-9e63627e4367" d="M602.849,29.546h1.618l3.109,4.237-.03-4.237h1.62v7h-1.52l-3.208-4.378.029,4.378h-1.618v-7Z"></path>
    <path id="uuid-842a598d-8fda-410c-8eee-38bb6df94a7c" data-name="path222" class="uuid-4afc4230-a956-45b6-b2e0-9e63627e4367" d="M610.349,33.973c-.012-1.485,1.183-2.698,2.668-2.71,1.485-.012,2.698,1.183,2.71,2.668.012,1.485-1.183,2.698-2.668,2.71-.007,0-.014,0-.021,0-1.449.036-2.652-1.109-2.689-2.558,0-.037-.001-.073,0-.11ZM614.149,33.973c-.107-.613-.69-1.023-1.302-.916-.613.107-1.023.69-.916,1.302.094.539.562.933,1.11.933.651-.036,1.149-.592,1.114-1.243-.001-.025-.004-.051-.007-.076h.002Z"></path>
    <path id="uuid-e416a04b-01fe-4420-b593-30c6361110d7" data-name="path224" class="uuid-4afc4230-a956-45b6-b2e0-9e63627e4367" d="M616.529,33.953c-.063-1.372.998-2.536,2.37-2.599.01,0,.02,0,.03-.001.529-.006,1.033.221,1.38.62v-2.548l1.619-.25v7.367h-1.6v-.67c-.375.45-.933.707-1.519.7-1.352-.094-2.373-1.266-2.28-2.619ZM620.307,34.822v-1.733c-.251-.26-.599-.404-.96-.4-.704.02-1.258.606-1.239,1.31.019.676.563,1.22,1.239,1.239.365.008.716-.144.96-.416Z"></path>
    <path id="uuid-77a76a78-083b-4699-bd6b-35e7a567191f" data-name="path226" class="uuid-4afc4230-a956-45b6-b2e0-9e63627e4367" d="M622.959,33.973c-.046-1.427,1.073-2.621,2.5-2.668.033-.001.067-.002.1-.001,1.398-.008,2.539,1.119,2.547,2.517,0,.071-.002.141-.008.212v.349h-3.551c.126.567.629.97,1.21.97.388.019.763-.139,1.02-.43l1.069.89c-.583.555-1.364.854-2.169.829-1.472.029-2.689-1.141-2.717-2.614,0-.018,0-.036,0-.054ZM626.596,33.464c-.088-.513-.528-.892-1.049-.9-.513.005-.941.391-1,.9h2.049Z"></path>
    <path id="uuid-065fd757-6685-4176-97a3-4e3d0fd8d6d2" data-name="path228" class="uuid-4afc4230-a956-45b6-b2e0-9e63627e4367" d="M633.418,32.903l-2.53-3.357h2.049l1.51,2.118,1.5-2.118h1.969l-2.519,3.418,2.679,3.578h-2.049l-1.659-2.36-1.669,2.36h-1.969l2.688-3.639Z"></path>
  </g>
  <g id="uuid-1c009cc4-6f01-4290-b5b2-7a05751580f9" data-name="g262">
    <path id="uuid-939d974e-9a1c-4dcc-8c9a-b1e640cafbdb" data-name="path232" class="uuid-a604cde7-95dc-43b9-b339-fbb0c6089c4f" d="M602.067,47.355h99.7v71.449h-99.7V47.355Z"></path>
    <g id="uuid-7a59b2f5-31c9-4a7c-a822-2253d468d4a7" data-name="g260">
      <g id="uuid-090a941a-86f1-4f06-bfea-2691a1beb3c7" data-name="g252">
        <rect id="uuid-eb1561a5-e412-49b4-924b-c5f89a25ccb5" data-name="rect248" class="uuid-7e31233f-9660-4384-b99c-8faba131c7c3" x="617.226" y="76.235" width="69.866" height="27.347"></rect>
        <path id="uuid-a5e71ced-e99a-4cd7-b1cf-632cca56b98a" data-name="path250" class="uuid-6b651b46-58ec-4063-ad8b-89b8ca26d302" d="M686.593,76.735v26.347h-68.866v-26.347h68.866M687.593,75.735h-70.866v28.347h70.866v-28.347Z"></path>
      </g>
      <g id="uuid-77da8a46-d2c9-4863-9253-f84d6beb7b7a" data-name="g258">
        <path id="uuid-8d849392-9f8b-4614-b37a-ec8ce236b85c" data-name="path254" class="uuid-4afc4230-a956-45b6-b2e0-9e63627e4367" d="M644.289,85.68h1.289l2.149,5.778,2.169-5.778h1.239l-2.739,7h-1.389l-2.718-7Z"></path>
        <path id="uuid-0adb9330-e891-4f78-97da-a2d42fc3313b" data-name="path256" class="uuid-4afc4230-a956-45b6-b2e0-9e63627e4367" d="M652.038,85.68h1.559l2.049,4.248,2.039-4.248h1.559v7h-1.129v-5.476l-2.479,4.977-2.489-5.007v5.506h-1.109v-7Z"></path>
      </g>
    </g>
  </g>
  <path id="uuid-79056630-f81f-40d9-8441-79df9849dbae" data-name="path264" class="uuid-a604cde7-95dc-43b9-b339-fbb0c6089c4f" d="M716.021,47.355h99.7v71.449h-99.7V47.355Z"></path>
  <g id="uuid-66e20ad8-7a9b-4fc5-9410-581ceaed99f6" data-name="g292">
    <g id="uuid-4ab15a91-f364-4194-90f6-489e491d8168" data-name="g284">
      <rect id="uuid-945a3d0b-9974-4037-b985-0afbd59778de" data-name="rect280" class="uuid-7e31233f-9660-4384-b99c-8faba131c7c3" x="731.179" y="76.235" width="69.866" height="27.347"></rect>
      <path id="uuid-50c6ae7a-66b8-4f4f-9622-0593977379e2" data-name="path282" class="uuid-6b651b46-58ec-4063-ad8b-89b8ca26d302" d="M800.546,76.735v26.347h-68.867v-26.347h68.867M801.546,75.735h-70.867v28.347h70.867v-28.347Z"></path>
    </g>
    <g id="uuid-be7b369e-2a44-4617-bc89-b099f4a27373" data-name="g290">
      <path id="uuid-c59eb553-989f-45d8-abfb-3ef8aac5f044" data-name="path286" class="uuid-4afc4230-a956-45b6-b2e0-9e63627e4367" d="M758.24,85.68h1.289l2.149,5.778,2.169-5.778h1.239l-2.739,7h-1.388l-2.719-7Z"></path>
      <path id="uuid-2352fb7d-3941-4117-9403-48842ac52f90" data-name="path288" class="uuid-4afc4230-a956-45b6-b2e0-9e63627e4367" d="M765.989,85.68h1.559l2.049,4.248,2.039-4.248h1.559v7h-1.128v-5.476l-2.479,4.977-2.489-5.007v5.506h-1.109v-7Z"></path>
    </g>
  </g>
  <g id="uuid-995a792b-1df4-438f-9368-4fe2ad86c2de" data-name="g300">
    <line id="uuid-5633d379-2df3-4336-b8d5-dc74032d8850" data-name="line296" class="uuid-510efe05-0ecb-4164-a958-854d8c9eef31" x1="509.917" y1="124.171" x2="509.917" y2="146.568"></line>
    <polygon id="uuid-bbab63f4-534e-488b-8ab4-191e50a7983d" data-name="polygon298" class="uuid-6b651b46-58ec-4063-ad8b-89b8ca26d302" points="506.177 125.265 509.917 118.789 513.656 125.265 506.177 125.265"></polygon>
  </g>
  <g id="uuid-98fc850c-b996-4f1a-b22a-83ae03174152" data-name="g306">
    <line id="uuid-e426d9e5-4139-4fa1-b135-2d80d5998a64" data-name="line302" class="uuid-510efe05-0ecb-4164-a958-854d8c9eef31" x1="401.4" y1="124.171" x2="401.4" y2="146.568"></line>
    <polygon id="uuid-83c19ef9-b25d-4165-95de-a11e32886ea6" data-name="polygon304" class="uuid-6b651b46-58ec-4063-ad8b-89b8ca26d302" points="397.66 125.265 401.4 118.789 405.139 125.265 397.66 125.265"></polygon>
  </g>
  <g id="uuid-a74c893e-8668-4eec-a5fa-8fd3c4df714f" data-name="g350">
    <g id="uuid-b60ce2fd-3433-4523-b4be-7ab46b485dd4" data-name="g338">
      <path id="uuid-4d611ac1-175f-43e0-904c-9a0a95df22cc" data-name="path308" class="uuid-4afc4230-a956-45b6-b2e0-9e63627e4367" d="M100.477,247.311h1.2v7h-1.2v-7Z"></path>
      <path id="uuid-2356237e-b56f-495c-8d7d-254cdbcef944" data-name="path310" class="uuid-4afc4230-a956-45b6-b2e0-9e63627e4367" d="M103.167,249.3h1.128v.819c.329-.56.931-.902,1.58-.9.933-.034,1.717.694,1.751,1.627.002.054.001.108-.002.162v3.3h-1.14v-2.979c.068-.592-.357-1.126-.949-1.193-.05-.006-.101-.008-.151-.007-.446-.006-.862.226-1.09.609v3.569h-1.127v-5.007Z"></path>
      <path id="uuid-e884b2e9-7b33-43f7-a364-5a0e32839b43" data-name="path312" class="uuid-4afc4230-a956-45b6-b2e0-9e63627e4367" d="M108.757,251.808c-.034-1.395,1.07-2.554,2.465-2.587.022,0,.043,0,.065,0,.756-.01,1.482.298,2,.849l-.7.73c-.312-.372-.773-.588-1.259-.59-.884.088-1.528.876-1.44,1.76.076.761.678,1.364,1.44,1.44.484-.003.943-.214,1.259-.58l.7.72c-.519.55-1.244.859-2,.85-1.392.005-2.525-1.119-2.531-2.511,0-.027,0-.053,0-.08Z"></path>
      <path id="uuid-0fe1644f-43fd-4755-92da-b14a3e3a3236" data-name="path314" class="uuid-4afc4230-a956-45b6-b2e0-9e63627e4367" d="M113.987,251.808c.041-1.388,1.2-2.481,2.588-2.44,1.388.041,2.481,1.199,2.44,2.588-.04,1.358-1.151,2.439-2.51,2.441-1.377.015-2.505-1.089-2.52-2.466,0-.041,0-.082.002-.123ZM117.905,251.808c-.116-.776-.839-1.31-1.614-1.194-.776.116-1.31.839-1.194,1.614.104.697.704,1.212,1.409,1.21.82-.044,1.449-.743,1.405-1.563-.001-.022-.003-.045-.005-.067Z"></path>
      <path id="uuid-94e3d029-adac-4019-83f3-21862f6eb690" data-name="path316" class="uuid-4afc4230-a956-45b6-b2e0-9e63627e4367" d="M120.187,249.3h1.129v.789c.303-.533.866-.864,1.479-.869.644-.017,1.232.364,1.48.959.334-.601.971-.969,1.658-.959.914.004,1.651.749,1.647,1.663,0,.048-.003.097-.007.145v3.279h-1.13v-3.029c.075-.554-.313-1.065-.868-1.14-.047-.006-.094-.009-.141-.009-.419-.003-.805.229-1,.6.01.1.02.2.02.3v3.279h-1.139v-3.029c.075-.555-.315-1.065-.87-1.14-.046-.006-.093-.009-.14-.009-.411-.002-.791.22-.99.58v3.6h-1.128v-5.01Z"></path>
      <path id="uuid-d9ceff13-2b22-4f1e-bd95-5e16b5644dd9" data-name="path318" class="uuid-4afc4230-a956-45b6-b2e0-9e63627e4367" d="M128.806,247.59c-.006-.387.303-.704.69-.71.387-.006.704.303.71.69s-.303.704-.69.71c-.003,0-.007,0-.01,0-.383.003-.697-.305-.7-.688,0,0,0-.001,0-.002ZM128.937,249.3h1.13v5.007h-1.13v-5.007Z"></path>
      <path id="uuid-9e149e16-b9c7-43ae-bcdf-b3b5a849a815" data-name="path320" class="uuid-4afc4230-a956-45b6-b2e0-9e63627e4367" d="M131.467,249.3h1.13v.819c.329-.56.93-.902,1.579-.9.932-.035,1.716.693,1.751,1.625.002.055.001.11-.002.164v3.3h-1.139v-2.979c.067-.592-.359-1.126-.951-1.194-.05-.006-.099-.008-.149-.007-.446-.006-.861.226-1.089.609v3.569h-1.13v-5.007Z"></path>
      <path id="uuid-9c6ca8b1-be43-4bba-a273-e70d56119dd9" data-name="path322" class="uuid-4afc4230-a956-45b6-b2e0-9e63627e4367" d="M137.617,256.006l.389-.83c.482.263,1.021.407,1.57.42.84,0,1.279-.38,1.279-1.11v-.849c-.38.454-.946.712-1.539.7-1.4-.16-2.405-1.424-2.246-2.824.138-1.21,1.112-2.154,2.326-2.253.566-.01,1.105.236,1.469.669v-.629h1.119v5.186c0,1.289-.84,2.009-2.358,2.009-.699,0-1.388-.167-2.009-.489ZM140.855,252.848v-2.1c-.298-.346-.733-.543-1.189-.54-.828-.001-1.501.669-1.503,1.497,0,.031,0,.061.003.092-.043.839.602,1.554,1.441,1.597.479.025.942-.178,1.248-.547h0Z"></path>
      <path id="uuid-3e7e9174-928d-48db-b8cd-06aa943637f7" data-name="path324" class="uuid-4afc4230-a956-45b6-b2e0-9e63627e4367" d="M146.246,253.008v-2.809h-1v-.9h1v-1.382l1.13-.239v1.619h1.391v.9h-1.389v2.559c0,.489.19.68.7.68.231-.003.461-.044.679-.121v.95c-.315.091-.642.138-.97.139-1.011.002-1.541-.477-1.541-1.396Z"></path>
      <path id="uuid-035b4297-58f5-4ec5-9893-8113a251c8db" data-name="path326" class="uuid-4afc4230-a956-45b6-b2e0-9e63627e4367" d="M149.767,249.3h1.13v1.079c.146-.654.709-1.132,1.379-1.17.168.002.334.036.489.1v.989c-.198-.076-.408-.117-.62-.12-.545.002-1.036.328-1.248.83v3.3h-1.13v-5.008Z"></path>
      <path id="uuid-86729b53-e084-43f6-9ea4-2a0015f35752" data-name="path328" class="uuid-4afc4230-a956-45b6-b2e0-9e63627e4367" d="M153.437,252.867c0-.9.738-1.468,1.918-1.468.469-.003.932.107,1.35.319v-.56c0-.659-.38-1-1.15-1-.509.021-1.007.154-1.459.39l-.4-.819c.647-.32,1.356-.494,2.078-.51,1.31,0,2.049.659,2.049,1.818v3.269h-1.119v-.52c-.391.401-.93.621-1.49.61-.874.102-1.666-.525-1.767-1.399-.005-.043-.008-.086-.01-.13ZM155.525,253.597c.432.011.852-.138,1.18-.419v-.81c-.36-.167-.753-.25-1.15-.24-.649,0-1.059.27-1.059.72s.4.749,1.029.749Z"></path>
      <path id="uuid-5b3545f1-cd34-4626-9e78-9450719b281e" data-name="path330" class="uuid-4afc4230-a956-45b6-b2e0-9e63627e4367" d="M159.877,250.199h-1.081v-.9h1.081v-.86c-.089-.841.521-1.595,1.363-1.684.121-.013.244-.011.365.005.253-.005.505.025.75.09v.96c-.197-.046-.398-.07-.6-.071-.52,0-.75.23-.75.72v.84h1.35v.9h-1.35v4.108h-1.128v-4.108Z"></path>
      <path id="uuid-1648d1b0-02ae-414a-acaf-1ebf20127c8c" data-name="path332" class="uuid-4afc4230-a956-45b6-b2e0-9e63627e4367" d="M163.986,250.199h-1.08v-.9h1.08v-.86c-.089-.841.521-1.595,1.363-1.684.121-.013.244-.011.365.005.253-.005.505.025.75.09v.96c-.197-.046-.398-.07-.6-.071-.52,0-.75.23-.75.72v.84h1.353v.9h-1.349v4.108h-1.129l-.003-4.108Z"></path>
      <path id="uuid-5bfc4884-1b16-4a4b-a4c7-12be92ab78a5" data-name="path334" class="uuid-4afc4230-a956-45b6-b2e0-9e63627e4367" d="M167.276,247.59c-.006-.387.303-.704.69-.71.387-.006.704.303.71.69s-.303.704-.69.71c-.003,0-.007,0-.01,0-.383.004-.696-.303-.7-.686,0-.001,0-.003,0-.004ZM167.406,249.3h1.129v5.007h-1.129v-5.007Z"></path>
      <path id="uuid-3c2f1890-f182-4072-921b-9cc60a2ec93d" data-name="path336" class="uuid-4afc4230-a956-45b6-b2e0-9e63627e4367" d="M169.707,251.808c-.034-1.395,1.069-2.553,2.463-2.587.022,0,.043,0,.065,0,.756-.009,1.481.299,2,.849l-.7.73c-.313-.372-.774-.587-1.26-.59-.884.088-1.528.876-1.44,1.76.076.761.678,1.364,1.44,1.44.484-.003.943-.215,1.26-.58l.7.72c-.519.55-1.244.858-2,.85-1.392.005-2.524-1.119-2.529-2.511,0-.027,0-.053,0-.08Z"></path>
    </g>
    <g id="uuid-27d23b21-dd34-41cb-8118-9fc207dd3c46" data-name="g348">
      <line id="uuid-15fb70a0-b26d-47f9-bbab-422eaee3d79b" data-name="line340" class="uuid-46ffff90-99d7-4281-90b3-eca0bfebfc1f" x1="75.465" y1="251.517" x2="76.965" y2="251.517"></line>
      <line id="uuid-bf887974-03d8-4285-b785-c81308002d00" data-name="line342" class="uuid-afe14002-66ac-43e5-909c-4c66a29521bb" x1="79.282" y1="251.517" x2="87.392" y2="251.517"></line>
      <line id="uuid-11a3baf7-832d-4e99-b4b9-005125fada7c" data-name="line344" class="uuid-46ffff90-99d7-4281-90b3-eca0bfebfc1f" x1="88.551" y1="251.517" x2="90.051" y2="251.517"></line>
      <polygon id="uuid-5ff0a61c-74bf-4f98-b450-b76625f83e06" data-name="polygon346" class="uuid-b93322cf-d430-4c5b-8b16-eae7458e40bb" points="88.956 255.257 95.433 251.517 88.956 247.778 88.956 255.257"></polygon>
    </g>
  </g>
  <g id="uuid-e965542d-d243-45a4-a3d9-cb83d4dc37b7" data-name="g378">
    <g id="uuid-86461120-a04e-48bd-9e21-d6b05632c4ab" data-name="g364">
      <path id="uuid-863d32ca-45b8-45c2-89ef-332374617323" data-name="path352" class="uuid-4afc4230-a956-45b6-b2e0-9e63627e4367" d="M23.528,123.222c-.024-1.969,1.553-3.584,3.521-3.608.032,0,.064,0,.097,0,1.051-.012,2.052.446,2.729,1.25l-.8.779c-.463-.596-1.174-.947-1.929-.949-1.396.083-2.461,1.283-2.378,2.679.076,1.28,1.097,2.301,2.378,2.378.755-.002,1.467-.353,1.929-.95l.8.78c-.677.804-1.678,1.262-2.729,1.25-1.969.029-3.588-1.543-3.618-3.511,0-.033,0-.065,0-.098Z"></path>
      <path id="uuid-1598969e-c5ac-4119-a34e-c9819b292223" data-name="path354" class="uuid-4afc4230-a956-45b6-b2e0-9e63627e4367" d="M30.948,119.554l1.129-.2v7.366h-1.129v-7.166Z"></path>
      <path id="uuid-261e1cf1-2831-424f-973e-a93d38c9c147" data-name="path356" class="uuid-4afc4230-a956-45b6-b2e0-9e63627e4367" d="M33.328,120.004c0-.387.313-.7.7-.7.385.005.695.315.7.7-.005.383-.317.69-.7.69-.383.004-.696-.303-.7-.686,0-.001,0-.003,0-.004ZM33.458,121.714h1.128v5.006h-1.128v-5.006Z"></path>
      <path id="uuid-51903647-1c90-4a59-b1c3-7148b3f34fde" data-name="path358" class="uuid-4afc4230-a956-45b6-b2e0-9e63627e4367" d="M35.757,124.221c-.064-1.364.991-2.522,2.355-2.586.028-.001.056-.002.084-.002,1.329.016,2.393,1.105,2.378,2.434,0,.051-.003.103-.007.154v.271h-3.7c.068.782.715,1.386,1.5,1.4.443.008.871-.161,1.189-.469l.74.668c-.545.483-1.251.744-1.979.73-1.404.01-2.55-1.119-2.561-2.523,0-.026,0-.051,0-.077ZM39.496,123.792c-.062-.684-.623-1.216-1.31-1.24-.69.017-1.255.552-1.309,1.24h2.619Z"></path>
      <path id="uuid-c683e97f-cb75-43ab-98e6-60a1fe774335" data-name="path360" class="uuid-4afc4230-a956-45b6-b2e0-9e63627e4367" d="M41.717,121.714h1.13v.819c.329-.56.93-.902,1.579-.9.933-.034,1.717.694,1.751,1.627.002.054.001.108-.002.162v3.3h-1.139v-2.978c.068-.592-.357-1.126-.949-1.193-.05-.006-.101-.008-.151-.007-.446-.006-.861.226-1.089.609v3.568h-1.13v-5.007Z"></path>
      <path id="uuid-0e823013-2da4-452c-9510-36e6c094a9c5" data-name="path362" class="uuid-4afc4230-a956-45b6-b2e0-9e63627e4367" d="M48.157,125.422v-2.809h-1v-.9h1v-1.38l1.13-.24v1.62h1.388v.9h-1.388v2.559c0,.489.189.679.7.679.232-.003.461-.043.68-.12v.949c-.315.091-.642.138-.97.14-1.01,0-1.54-.48-1.54-1.398Z"></path>
    </g>
    <g id="uuid-1d2439d4-a03f-47df-83ff-0cbd8344da97" data-name="g376">
      <rect id="uuid-845a8afd-6a41-490f-b98b-643bebb880a1" data-name="rect366" class="uuid-ee4fcfbf-00af-4574-b886-2f278f1070a6" x="12.749" y="72.946" width="48.5" height="37.18"></rect>
      <line id="uuid-20697425-147e-4e11-ac51-5aa7ceb993d6" data-name="line368" class="uuid-3ee7b3d3-d6db-46ec-8dcb-f718727c6d2c" x1="55.653" y1="78.527" x2="55.653" y2="78.527"></line>
      <line id="uuid-7db5078b-fc71-4243-81de-6ecb76c68632" data-name="line370" class="uuid-3ee7b3d3-d6db-46ec-8dcb-f718727c6d2c" x1="51.922" y1="78.527" x2="51.922" y2="78.527"></line>
      <line id="uuid-9147baf9-5f16-431f-a9f5-c840a0a848d7" data-name="line372" class="uuid-3ee7b3d3-d6db-46ec-8dcb-f718727c6d2c" x1="48.191" y1="78.527" x2="48.191" y2="78.527"></line>
      <line id="uuid-4de7d2ba-8207-4db7-b10f-05b63d872607" data-name="line374" class="uuid-6258f630-0c7a-4be2-899c-82617114599d" x1="18.345" y1="78.527" x2="33.268" y2="78.527"></line>
    </g>
  </g>
  <g id="uuid-d9f89931-ce59-4b7e-915a-7fbcbc3dd260" data-name="Layer 4">
    <path id="uuid-1ea0f3b9-a0c9-41cc-b965-c96e9bef87cd" data-name="path381" class="uuid-6b651b46-58ec-4063-ad8b-89b8ca26d302" d="M203.602,146.568h612.117v63.693H203.602v-63.693Z"></path>
    <g id="uuid-8b0f7392-8654-4853-bd64-16a8934633c6" data-name="g399">
      <path id="uuid-d9205c04-627d-4566-970d-a3c16b020a69" data-name="path383" class="uuid-a604cde7-95dc-43b9-b339-fbb0c6089c4f" d="M218.734,163.126l.879-1.269c.634.55,1.431.876,2.269.93.74,0,1.189-.3,1.189-.74,0-.41-.239-.61-.919-.73l-1.489-.26c-.983-.066-1.741-.894-1.719-1.879,0-1.359,1.039-2.209,2.778-2.209,1.031-.013,2.037.31,2.868.92l-.869,1.249c-.588-.488-1.325-.759-2.089-.769-.679,0-1.069.279-1.069.659,0,.36.23.54.789.64l1.4.24c1.309.22,2,.909,2,1.978,0,1.37-1.16,2.3-2.989,2.3-1.099-.008-2.165-.381-3.029-1.06Z"></path>
      <path id="uuid-a000c71f-1e39-480f-941b-1c1fc18d2834" data-name="path385" class="uuid-a604cde7-95dc-43b9-b339-fbb0c6089c4f" d="M225.494,161.507c-.046-1.426,1.072-2.62,2.499-2.667.034-.001.068-.002.101-.001,1.397-.009,2.537,1.117,2.546,2.514,0,.071-.002.143-.008.214v.35h-3.547c.125.567.628.97,1.209.969.387.019.762-.139,1.019-.429l1.069.889c-.582.556-1.364.855-2.169.829-1.472.029-2.689-1.14-2.718-2.612,0-.019,0-.037,0-.056ZM229.131,160.998c-.088-.513-.528-.892-1.049-.9-.513.004-.942.39-1,.9h2.049Z"></path>
      <path id="uuid-e7acd2e7-11a9-4a98-ae30-ea27ee2a45db" data-name="path387" class="uuid-a604cde7-95dc-43b9-b339-fbb0c6089c4f" d="M231.643,158.919h1.624v1.17c.33-.86.789-1.27,1.4-1.27.188-.003.373.042.539.131v1.389c-.238-.109-.497-.164-.759-.161-.476.003-.918.243-1.18.64v3.259h-1.619l-.005-5.158Z"></path>
      <path id="uuid-e58b6304-6e2d-4260-ae4c-965fd68f1ff8" data-name="path389" class="uuid-a604cde7-95dc-43b9-b339-fbb0c6089c4f" d="M235.503,158.919h1.764l1.17,3.238,1.179-3.238h1.669l-2.109,5.157h-1.579l-2.094-5.157Z"></path>
      <path id="uuid-e763cc39-baae-45d6-93ad-2d91e3019139" data-name="path391" class="uuid-a604cde7-95dc-43b9-b339-fbb0c6089c4f" d="M241.883,157.219c0-.503.407-.91.91-.91.503,0,.91.407.91.91,0,.503-.407.91-.91.91-.502-.001-.909-.408-.91-.91ZM241.983,158.919h1.619v5.157h-1.619v-5.157Z"></path>
      <path id="uuid-a7936935-92bb-4a5a-81db-24c0cffefcb1" data-name="path393" class="uuid-a604cde7-95dc-43b9-b339-fbb0c6089c4f" d="M244.633,161.507c-.025-1.449,1.13-2.643,2.579-2.668.03,0,.059,0,.089,0,.821-.015,1.608.332,2.15.949l-.991.989c-.254-.354-.664-.562-1.1-.56-.712.089-1.218.738-1.129,1.451.074.59.539,1.055,1.129,1.129.436.002.846-.206,1.1-.56l.991.989c-.542.617-1.329.964-2.15.949-1.449.025-2.643-1.13-2.668-2.579,0-.03,0-.059,0-.089Z"></path>
      <path id="uuid-412cf62b-e8e1-43dd-80d2-53414e0fb23f" data-name="path395" class="uuid-a604cde7-95dc-43b9-b339-fbb0c6089c4f" d="M250.023,161.507c-.046-1.426,1.072-2.62,2.499-2.667.034-.001.068-.002.101-.001,1.398-.009,2.538,1.117,2.547,2.515,0,.071-.002.142-.008.213v.35h-3.549c.126.567.629.97,1.21.969.387.019.762-.139,1.019-.429l1.07.889c-.583.555-1.364.854-2.169.829-1.472.03-2.69-1.139-2.719-2.611,0-.019,0-.038,0-.057ZM253.661,160.998c-.088-.513-.528-.891-1.049-.9-.513.004-.942.39-1,.9h2.049Z"></path>
      <path id="uuid-face7b1a-3d38-4e52-818d-e7d38b34722d" data-name="path397" class="uuid-a604cde7-95dc-43b9-b339-fbb0c6089c4f" d="M259.392,158.678l-1.379.571v-1.36l1.948-.809h.97v7h-1.539v-5.402Z"></path>
    </g>
  </g>
  <g id="uuid-707efdac-c793-4056-9835-de5888c6eaa5" data-name="Layer 2">
    <polyline id="uuid-b682b4b2-f416-4229-9515-43efe894c030" data-name="polyline402" class="uuid-e0a9f13d-79d0-4ad1-94b3-5d6929e5e0fb" points="139.631 118.2 139.631 178.449 390.052 178.449 390.052 146.539"></polyline>
    <g id="uuid-92c9043b-8b2c-4afc-8dc0-54e40e7cc8db" data-name="g426">
      <line id="uuid-feee10b5-4c9a-4297-8b5b-36c8a807738c" data-name="line404" class="uuid-46ffff90-99d7-4281-90b3-eca0bfebfc1f" x1="139.627" y1="104.587" x2="139.627" y2="106.087"></line>
      <line id="uuid-f3905fdf-74ba-4197-8c98-a9aac982a278" data-name="line406" class="uuid-862d04ec-30b2-4c90-b29e-67866bce40d9" x1="139.627" y1="109.166" x2="139.627" y2="119.944"></line>
      <line id="uuid-974e5e73-b834-485d-af1c-e42516769543" data-name="line408" class="uuid-d8e58416-b105-4e5d-bf48-6138149231df" x1="139.627" y1="121.484" x2="139.627" y2="175.375"></line>
      <polyline id="uuid-e3fe5324-f45d-4a56-9650-4517495a0920" data-name="polyline410" class="uuid-46ffff90-99d7-4281-90b3-eca0bfebfc1f" points="139.627 176.914 139.627 178.414 141.127 178.414"></polyline>
      <line id="uuid-4bada57a-fe5a-42b6-b17f-e7368031ec7b" data-name="line412" class="uuid-937ed127-ed2c-48e4-ade1-ae9f2c208989" x1="144.108" y1="178.414" x2="154.542" y2="178.414"></line>
      <line id="uuid-2d73cfa7-d4a6-4d20-90ee-39ad5160e329" data-name="line414" class="uuid-5c899a69-f856-4c9c-8e22-7ec459210bf1" x1="156.033" y1="178.414" x2="387.062" y2="178.414"></line>
      <polyline id="uuid-43310105-b3d8-4546-bffe-c17103e39848" data-name="polyline416" class="uuid-46ffff90-99d7-4281-90b3-eca0bfebfc1f" points="388.552 178.414 390.052 178.414 390.052 176.914"></polyline>
      <line id="uuid-23b5ab4e-84c5-4256-86b8-99c0686f55e0" data-name="line418" class="uuid-cde36e3a-dbcd-4554-bb42-e9bc2e07a683" x1="390.052" y1="173.919" x2="390.052" y2="163.434"></line>
      <line id="uuid-2018ab2f-9765-4733-9fc3-c71635a8ebf6" data-name="line420" class="uuid-274bdfbd-744d-4693-8f9e-b77432ebd19a" x1="390.052" y1="161.936" x2="390.052" y2="127.486"></line>
      <line id="uuid-12eb38f0-cec6-498f-baf2-fa2b0c229d6e" data-name="line422" class="uuid-46ffff90-99d7-4281-90b3-eca0bfebfc1f" x1="390.052" y1="125.988" x2="390.052" y2="124.488"></line>
      <polygon id="uuid-2e953050-25fc-4f79-ad69-9fa28b7b935d" data-name="polygon424" class="uuid-b93322cf-d430-4c5b-8b16-eae7458e40bb" points="393.792 125.582 390.052 119.106 386.312 125.582 393.792 125.582"></polygon>
    </g>
  </g>
  <g id="uuid-cc96ac5f-6750-4b60-8695-1e7783b52ade" data-name="Layer 3">
    <line id="uuid-46b50f19-93f4-47bd-b818-bafe02f21434" data-name="line429" class="uuid-e78d3c72-f1cf-4bed-ab3e-1f4f70c81b52" x1="64.072" y1="89.909" x2="102.99" y2="89.909"></line>
    <g id="uuid-17996c8b-c597-4903-9c7b-d7aceaf632cc" data-name="g439">
      <line id="uuid-1f53fdaf-3dc6-4a8f-9fea-f436d7d4b2f3" data-name="line431" class="uuid-46ffff90-99d7-4281-90b3-eca0bfebfc1f" x1="67.462" y1="89.909" x2="68.962" y2="89.909"></line>
      <line id="uuid-c9657826-d9df-484d-a555-36dbf58d30a0" data-name="line433" class="uuid-116f8d56-1356-407e-96b5-2d096efa32c1" x1="71.964" y1="89.909" x2="82.472" y2="89.909"></line>
      <line id="uuid-a5d6698a-c045-485b-84a9-9a3c5c508827" data-name="line435" class="uuid-5f25fa38-04dd-4ec5-997a-d022f2d00c33" x1="83.973" y1="89.909" x2="100.486" y2="89.909"></line>
      <line id="uuid-1c6c8b07-96ff-433c-804d-0f8579565215" data-name="line437" class="uuid-46ffff90-99d7-4281-90b3-eca0bfebfc1f" x1="101.987" y1="89.909" x2="103.487" y2="89.909"></line>
    </g>
  </g>
  <g>
    <path d="M616.542,57.923h1.859l1.849,5.207,1.879-5.207h1.789l-2.729,6.996h-1.958l-2.689-6.996Z"></path>
    <path d="M624.722,57.923h2.159l1.689,3.358,1.679-3.358h2.159v6.996h-1.619v-4.748l-2.239,4.248-2.249-4.288v4.788h-1.579v-6.996Z"></path>
    <path d="M635.972,59.761h1.599v.72c.34-.46.91-.75,1.529-.75,1.27,0,2.279,1.169,2.279,2.619s-1.06,2.598-2.399,2.598c-.56,0-1.049-.209-1.389-.6v2.659h-1.619v-7.246ZM639.789,62.34c0-.729-.529-1.269-1.229-1.269-.399,0-.709.14-.969.419v1.719c.25.26.59.41.969.41.71,0,1.229-.54,1.229-1.279Z"></path>
    <path d="M642.182,62.35c0-1.52,1.16-2.669,2.688-2.669s2.688,1.149,2.688,2.669-1.159,2.668-2.688,2.668-2.688-1.149-2.688-2.668ZM645.98,62.35c0-.77-.459-1.319-1.109-1.319s-1.109.549-1.109,1.319.46,1.319,1.109,1.319,1.109-.549,1.109-1.319Z"></path>
    <path d="M648.361,62.33c0-1.449,1.06-2.599,2.399-2.599.539,0,1.029.22,1.379.62v-2.549l1.619-.25v7.366h-1.6v-.669c-.34.43-.909.699-1.519.699-1.27,0-2.279-1.169-2.279-2.618ZM652.14,63.199v-1.739c-.25-.26-.59-.4-.96-.4-.709,0-1.229.54-1.229,1.279,0,.729.529,1.27,1.229,1.27.391,0,.71-.14.96-.41Z"></path>
    <path d="M657.052,63.819l2.958-2.928c.33-.32.47-.62.47-.949,0-.45-.439-.79-1.029-.79-.63,0-1.129.24-1.769.859l-.859-1.049c.799-.76,1.709-1.149,2.678-1.149,1.489,0,2.479.81,2.479,2.029,0,.66-.28,1.219-.91,1.829l-2.019,1.949,3.028-.01v1.309h-5.027v-1.1Z"></path>
  </g>
  <g>
    <path d="M730.883,57.923h1.859l1.849,5.207,1.879-5.207h1.789l-2.729,6.996h-1.958l-2.689-6.996Z"></path>
    <path d="M739.063,57.923h2.159l1.689,3.358,1.679-3.358h2.159v6.996h-1.619v-4.748l-2.239,4.248-2.249-4.288v4.788h-1.579v-6.996Z"></path>
    <path d="M750.313,59.761h1.599v.72c.34-.46.91-.75,1.529-.75,1.27,0,2.279,1.169,2.279,2.619s-1.06,2.598-2.399,2.598c-.56,0-1.049-.209-1.389-.6v2.659h-1.619v-7.246ZM754.13,62.34c0-.729-.529-1.269-1.229-1.269-.399,0-.709.14-.969.419v1.719c.25.26.59.41.969.41.71,0,1.229-.54,1.229-1.279Z"></path>
    <path d="M756.523,62.35c0-1.52,1.16-2.669,2.688-2.669s2.688,1.149,2.688,2.669-1.159,2.668-2.688,2.668-2.688-1.149-2.688-2.668ZM760.32,62.35c0-.77-.459-1.319-1.109-1.319s-1.109.549-1.109,1.319.46,1.319,1.109,1.319,1.109-.549,1.109-1.319Z"></path>
    <path d="M762.702,62.33c0-1.449,1.06-2.599,2.399-2.599.539,0,1.029.22,1.379.62v-2.549l1.619-.25v7.366h-1.6v-.669c-.34.43-.909.699-1.519.699-1.27,0-2.279-1.169-2.279-2.618ZM766.481,63.199v-1.739c-.25-.26-.59-.4-.96-.4-.709,0-1.229.54-1.229,1.279,0,.729.529,1.27,1.229,1.27.391,0,.71-.14.96-.41Z"></path>
    <path d="M771.192,63.899l1.04-.959c.52.56.929.74,1.698.74.76,0,1.26-.34,1.26-.859,0-.45-.359-.73-.92-.73h-.899v-1.269h.74c.569,0,.909-.29.909-.78,0-.5-.47-.859-1.1-.859-.68,0-1.079.2-1.629.799l-1.05-.949c.66-.76,1.689-1.219,2.739-1.219,1.529,0,2.588.83,2.588,2.019,0,.76-.539,1.37-1.329,1.599.92.18,1.51.75,1.51,1.52,0,1.209-1.17,2.079-2.799,2.079-1.119,0-2.139-.42-2.759-1.129Z"></path>
  </g>
</svg>