<svg id="uuid-ebcfe686-9ac0-4788-b4c0-62db6420682e" data-name="Layer 1" xmlns="http://www.w3.org/2000/svg" width="595.276" height="329.132" viewBox="0 0 595.276 329.132">
  <defs>
    <style>
      .uuid-1d7244fb-7c44-412d-bbc9-55fe25512e0c {
        stroke: #d2d2d2;
      }

      .uuid-1d7244fb-7c44-412d-bbc9-55fe25512e0c, .uuid-c9a936ca-016f-474c-8198-aa6db7174bf5, .uuid-ac366292-bc4e-4774-a60a-fff54d188578, .uuid-204c26a6-e61f-4f67-82f3-dba1c25d72a1 {
        stroke-linecap: round;
        stroke-linejoin: round;
      }

      .uuid-1d7244fb-7c44-412d-bbc9-55fe25512e0c, .uuid-204c26a6-e61f-4f67-82f3-dba1c25d72a1 {
        fill: none;
      }

      .uuid-a392baab-a7f9-4a50-8aaa-06a6478790cd {
        fill: #e6e6e6;
      }

      .uuid-c9a936ca-016f-474c-8198-aa6db7174bf5, .uuid-ac366292-bc4e-4774-a60a-fff54d188578, .uuid-f3caff86-4727-424e-9837-b213f0e2f4e6 {
        fill: #fff;
      }

      .uuid-c9a936ca-016f-474c-8198-aa6db7174bf5, .uuid-204c26a6-e61f-4f67-82f3-dba1c25d72a1 {
        stroke: #000;
      }

      .uuid-ac366292-bc4e-4774-a60a-fff54d188578 {
        stroke: #06c;
      }

      .uuid-a92c5fce-c048-4935-82c1-736e912303c3 {
        fill: #06c;
      }

      .uuid-5ebc29d7-1450-4ea7-b1e4-72ad45bd18f2 {
        fill: #a1c2e7;
      }
    </style>
  </defs>
  <rect class="uuid-f3caff86-4727-424e-9837-b213f0e2f4e6" x="-.773" y="-.101" width="596.579" height="329.216"></rect>
  <rect class="uuid-a392baab-a7f9-4a50-8aaa-06a6478790cd" x="24.386" y="18.386" width="546.503" height="175.086"></rect>
  <rect class="uuid-a392baab-a7f9-4a50-8aaa-06a6478790cd" x="24.386" y="219.479" width="264.225" height="91.737"></rect>
  <polyline class="uuid-1d7244fb-7c44-412d-bbc9-55fe25512e0c" points="29.273 214.255 294.551 214.255 294.551 305.992"></polyline>
  <polyline class="uuid-1d7244fb-7c44-412d-bbc9-55fe25512e0c" points="34.161 208.874 300.491 208.874 300.491 300.611"></polyline>
  <rect class="uuid-5ebc29d7-1450-4ea7-b1e4-72ad45bd18f2" x="447.182" y="123.713" width="108.392" height="41.965"></rect>
  <g>
    <path d="M473.069,134.299h3.108c1.389,0,2.338.859,2.338,2.119,0,.909-.539,1.619-1.389,1.919l1.479,2.958h-1.33l-1.349-2.799h-1.659v2.799h-1.199v-6.996ZM476.067,137.537c.75,0,1.239-.439,1.239-1.109,0-.68-.489-1.119-1.239-1.119h-1.799v2.229h1.799Z"></path>
    <path d="M479.739,134.299h1.199v2.938h3.478v-2.938h1.199v6.996h-1.199v-2.988h-3.478v2.988h-1.199v-6.996Z"></path>
    <path d="M489.218,134.299h1.389l2.709,6.996h-1.289l-.72-1.959h-2.868l-.72,1.959h-1.25l2.749-6.996ZM490.977,138.396l-1.1-2.958-1.089,2.958h2.188Z"></path>
    <path d="M493.569,137.797c0-2.029,1.579-3.608,3.618-3.608,1.069,0,2.089.46,2.729,1.25l-.8.779c-.5-.62-1.189-.949-1.929-.949-1.359,0-2.389,1.089-2.389,2.528s1.029,2.528,2.389,2.528c.739,0,1.429-.329,1.929-.949l.8.779c-.64.79-1.659,1.25-2.729,1.25-2.039,0-3.618-1.579-3.618-3.608Z"></path>
    <path d="M501.129,134.299h1.559l2.049,4.248,2.039-4.248h1.56v6.996h-1.13v-5.477l-2.479,4.977-2.488-5.007v5.507h-1.109v-6.996Z"></path>
    <path d="M511.658,136.288h1.08l.879,3.527,1.04-3.527h.949l1.029,3.527.88-3.527h1.049l-1.349,5.007h-1.08l-1.02-3.528-1.009,3.528h-1.1l-1.35-5.007Z"></path>
    <path d="M519.159,138.796c0-1.469,1.06-2.588,2.438-2.588,1.369,0,2.369,1.089,2.369,2.588v.271h-3.698c.11.81.72,1.399,1.499,1.399.47,0,.91-.181,1.189-.47l.739.669c-.609.51-1.219.729-1.979.729-1.439,0-2.559-1.129-2.559-2.599ZM522.897,138.366c-.12-.729-.64-1.239-1.31-1.239-.68,0-1.18.49-1.31,1.239h2.619Z"></path>
    <path d="M525.118,134.159l1.13-.19v2.988c.35-.439.909-.709,1.539-.709,1.27,0,2.259,1.129,2.259,2.548,0,1.43-1.02,2.549-2.329,2.549-.589,0-1.109-.239-1.489-.689v.64h-1.109v-7.136ZM528.937,138.796c0-.909-.64-1.599-1.489-1.599-.5,0-.909.2-1.199.56v2.089c.29.35.72.56,1.199.56.859,0,1.489-.689,1.489-1.609Z"></path>
    <path d="M483.884,150.796c0-1.449,1.1-2.588,2.528-2.588.78,0,1.499.31,1.999.85l-.699.729c-.35-.39-.78-.59-1.26-.59-.81,0-1.438.699-1.438,1.599,0,.91.629,1.6,1.438,1.6.479,0,.91-.2,1.26-.58l.699.72c-.5.54-1.219.85-1.999.85-1.429,0-2.528-1.129-2.528-2.589Z"></path>
    <path d="M488.964,150.796c0-1.479,1.079-2.588,2.519-2.588,1.43,0,2.509,1.109,2.509,2.588s-1.079,2.589-2.509,2.589c-1.439,0-2.519-1.109-2.519-2.589ZM492.882,150.796c0-.929-.59-1.629-1.399-1.629-.819,0-1.409.7-1.409,1.629,0,.939.59,1.63,1.409,1.63.81,0,1.399-.69,1.399-1.63Z"></path>
    <path d="M495.163,148.288h1.13v.819c.38-.59.93-.899,1.579-.899,1.029,0,1.749.729,1.749,1.789v3.298h-1.14v-2.979c0-.729-.43-1.199-1.1-1.199-.459,0-.829.21-1.089.609v3.568h-1.13v-5.007Z"></path>
    <path d="M500.534,152.715l.529-.749c.66.409,1.1.569,1.609.569.6,0,1.01-.279,1.01-.68,0-.31-.21-.47-.7-.569l-.879-.15c-.979-.18-1.449-.629-1.449-1.379,0-.939.77-1.549,1.938-1.549.7,0,1.329.199,1.969.6l-.529.749c-.51-.329-1-.479-1.509-.479-.521,0-.86.22-.86.58,0,.319.181.459.7.55l.89.17c.999.18,1.479.64,1.479,1.389,0,.92-.879,1.629-2.049,1.629-.859,0-1.619-.239-2.148-.68Z"></path>
    <path d="M505.593,150.796c0-1.479,1.079-2.588,2.519-2.588,1.43,0,2.509,1.109,2.509,2.588s-1.079,2.589-2.509,2.589c-1.439,0-2.519-1.109-2.519-2.589ZM509.511,150.796c0-.929-.59-1.629-1.399-1.629-.819,0-1.409.7-1.409,1.629,0,.939.59,1.63,1.409,1.63.81,0,1.399-.69,1.399-1.63Z"></path>
    <path d="M511.793,146.129l1.13-.2v7.366h-1.13v-7.166Z"></path>
    <path d="M514.083,150.796c0-1.469,1.06-2.588,2.438-2.588,1.369,0,2.369,1.089,2.369,2.588v.271h-3.698c.11.81.72,1.399,1.499,1.399.47,0,.91-.181,1.189-.47l.739.669c-.609.51-1.219.729-1.979.729-1.439,0-2.559-1.129-2.559-2.599ZM517.821,150.366c-.12-.729-.64-1.239-1.31-1.239-.68,0-1.18.49-1.31,1.239h2.619Z"></path>
  </g>
  <g>
    <path d="M40.708,34.229h1.892v2.992h3.114v-2.992h1.892v7.701h-1.892v-3.048h-3.114v3.048h-1.892v-7.701Z"></path>
    <path d="M49.001,40.081v-3.828h1.782v3.312c0,.638.374,1.056.946,1.056.385,0,.693-.153.946-.473v-3.895h1.782v5.677h-1.782v-.924c-.44.66-1.056,1.012-1.793,1.012-1.1,0-1.881-.803-1.881-1.937Z"></path>
    <path d="M55.843,34.097l1.783-.275v3.157c.374-.462.99-.759,1.661-.759,1.397,0,2.508,1.287,2.508,2.883s-1.166,2.86-2.641,2.86c-.616,0-1.166-.265-1.551-.727v.693h-1.76v-7.833ZM60.046,39.091c0-.803-.583-1.396-1.353-1.396-.44,0-.781.153-1.067.462v1.893c.275.285.649.45,1.067.45.781,0,1.353-.594,1.353-1.408Z"></path>
    <path d="M65.039,39.103c0-1.661,1.276-2.938,2.938-2.938.935,0,1.793.374,2.365,1.045l-1.089,1.089c-.363-.429-.726-.616-1.21-.616-.704,0-1.232.605-1.232,1.42s.528,1.419,1.232,1.419c.484,0,.847-.188,1.21-.616l1.089,1.089c-.572.672-1.43,1.046-2.365,1.046-1.661,0-2.938-1.276-2.938-2.938Z"></path>
    <path d="M71.221,34.097l1.783-.275v8.108h-1.783v-7.833Z"></path>
    <path d="M74.345,40.081v-3.828h1.782v3.312c0,.638.374,1.056.946,1.056.385,0,.693-.153.946-.473v-3.895h1.782v5.677h-1.782v-.924c-.44.66-1.056,1.012-1.793,1.012-1.1,0-1.881-.803-1.881-1.937Z"></path>
    <path d="M80.725,41.347l.781-1.188c.814.43,1.276.572,1.826.572.506,0,.814-.176.814-.462,0-.22-.165-.341-.528-.407l-1.089-.198c-1.1-.209-1.672-.77-1.672-1.65,0-1.154.891-1.848,2.376-1.848.792,0,1.573.22,2.311.648l-.814,1.134c-.572-.33-1.101-.484-1.628-.484-.429,0-.682.144-.682.385,0,.231.143.33.583.407l1.067.198c1.122.209,1.705.781,1.705,1.64,0,1.11-1.045,1.947-2.442,1.947-1.034,0-1.947-.242-2.607-.693Z"></path>
    <path d="M87.446,40.214v-2.586h-1.101v-1.375h1.101v-1.573l1.782-.363v1.937h1.518v1.375h-1.518v2.233c0,.506.198.683.748.683.209,0,.374-.022.726-.121v1.44c-.33.1-.858.177-1.221.177-1.342,0-2.035-.616-2.035-1.826Z"></path>
    <path d="M91.428,39.103c0-1.661,1.232-2.938,2.86-2.938,1.64,0,2.794,1.243,2.794,3.003v.386h-3.905c.165.638.682,1.066,1.331,1.066.473,0,.869-.165,1.122-.473l1.177.979c-.737.648-1.43.913-2.387.913-1.672,0-2.993-1.287-2.993-2.938ZM95.433,38.541c-.154-.604-.583-.99-1.155-.99-.561,0-.957.363-1.1.99h2.255Z"></path>
    <path d="M98.193,36.253h1.783v1.287c.363-.946.869-1.397,1.54-1.397.253.012.374.033.594.144v1.529c-.22-.11-.528-.177-.836-.177-.528,0-1.012.275-1.298.704v3.587h-1.783v-5.677Z"></path>
  </g>
  <g>
    <path d="M41.343,291.46h2.376l1.859,3.696,1.848-3.696h2.376v7.701h-1.782v-5.226l-2.464,4.676-2.476-4.72v5.27h-1.738v-7.701Z"></path>
    <path d="M50.979,297.533c0-1.046.814-1.65,2.211-1.65.407,0,.814.077,1.32.264v-.462c0-.55-.363-.825-1.122-.825-.429,0-.935.121-1.595.396l-.616-1.243c.935-.418,1.771-.616,2.607-.616,1.573,0,2.486.781,2.486,2.134v3.631h-1.76v-.495c-.495.418-.968.583-1.573.583-1.155,0-1.958-.704-1.958-1.716ZM53.488,298.072c.374,0,.715-.1,1.023-.286v-.727c-.33-.077-.649-.121-.979-.121-.583,0-.913.198-.913.562s.319.572.869.572Z"></path>
    <path d="M57.612,293.484h1.783v.924c.44-.66,1.056-1.012,1.793-1.012,1.1,0,1.881.803,1.881,1.937v3.828h-1.782v-3.312c0-.638-.374-1.056-.946-1.056-.385,0-.693.153-.946.473v3.895h-1.783v-5.677Z"></path>
    <path d="M64.146,297.533c0-1.046.814-1.65,2.211-1.65.407,0,.814.077,1.32.264v-.462c0-.55-.363-.825-1.122-.825-.429,0-.935.121-1.595.396l-.616-1.243c.935-.418,1.771-.616,2.607-.616,1.573,0,2.486.781,2.486,2.134v3.631h-1.76v-.495c-.495.418-.968.583-1.573.583-1.155,0-1.958-.704-1.958-1.716ZM66.655,298.072c.374,0,.715-.1,1.023-.286v-.727c-.33-.077-.649-.121-.979-.121-.583,0-.913.198-.913.562s.319.572.869.572Z"></path>
    <path d="M71.109,301.064l.55-1.287c.627.297,1.188.44,1.738.44.847,0,1.287-.353,1.287-1.046v-.77c-.374.462-.99.748-1.65.748-1.397,0-2.508-1.276-2.508-2.86s1.167-2.839,2.641-2.839c.605,0,1.155.253,1.54.715v-.682h1.75v5.71c0,1.529-1.056,2.376-2.993,2.376-.858,0-1.672-.176-2.354-.506ZM74.685,297.247v-1.893c-.275-.286-.649-.44-1.056-.44-.781,0-1.353.584-1.353,1.387s.583,1.397,1.353,1.397c.429,0,.781-.154,1.056-.451Z"></path>
    <path d="M77.588,296.334c0-1.661,1.232-2.938,2.86-2.938,1.64,0,2.794,1.243,2.794,3.003v.386h-3.905c.165.638.682,1.066,1.331,1.066.473,0,.869-.165,1.122-.473l1.177.979c-.737.648-1.43.913-2.387.913-1.672,0-2.993-1.287-2.993-2.938ZM81.593,295.772c-.154-.604-.583-.99-1.155-.99-.561,0-.957.363-1.1.99h2.255Z"></path>
    <path d="M84.155,296.312c0-1.595,1.167-2.86,2.641-2.86.594,0,1.133.242,1.518.683v-2.806l1.782-.275v8.108h-1.76v-.737c-.374.474-1.001.771-1.672.771-1.397,0-2.508-1.287-2.508-2.883ZM88.313,297.269v-1.914c-.275-.286-.649-.44-1.056-.44-.781,0-1.353.595-1.353,1.408,0,.804.583,1.397,1.353,1.397.429,0,.781-.154,1.056-.451Z"></path>
    <path d="M93.593,296.334c0-1.661,1.276-2.938,2.938-2.938.935,0,1.793.374,2.365,1.045l-1.089,1.089c-.363-.429-.726-.616-1.21-.616-.704,0-1.232.605-1.232,1.42s.528,1.419,1.232,1.419c.484,0,.847-.188,1.21-.616l1.089,1.089c-.572.672-1.43,1.046-2.365,1.046-1.661,0-2.938-1.276-2.938-2.938Z"></path>
    <path d="M99.774,291.328l1.783-.275v8.108h-1.783v-7.833Z"></path>
    <path d="M102.898,297.312v-3.828h1.782v3.312c0,.638.374,1.056.946,1.056.385,0,.693-.153.946-.473v-3.895h1.782v5.677h-1.782v-.924c-.44.66-1.056,1.012-1.793,1.012-1.1,0-1.881-.803-1.881-1.937Z"></path>
    <path d="M109.278,298.578l.781-1.188c.814.43,1.276.572,1.826.572.506,0,.814-.176.814-.462,0-.22-.165-.341-.528-.407l-1.089-.198c-1.1-.209-1.672-.77-1.672-1.65,0-1.154.891-1.848,2.376-1.848.792,0,1.573.22,2.311.648l-.814,1.134c-.572-.33-1.101-.484-1.628-.484-.429,0-.682.144-.682.385,0,.231.143.33.583.407l1.067.198c1.122.209,1.705.781,1.705,1.64,0,1.11-1.045,1.947-2.442,1.947-1.034,0-1.947-.242-2.607-.693Z"></path>
    <path d="M116,297.445v-2.586h-1.101v-1.375h1.101v-1.573l1.782-.363v1.937h1.518v1.375h-1.518v2.233c0,.506.198.683.748.683.209,0,.374-.022.726-.121v1.44c-.33.1-.858.177-1.221.177-1.342,0-2.035-.616-2.035-1.826Z"></path>
    <path d="M119.981,296.334c0-1.661,1.232-2.938,2.86-2.938,1.64,0,2.794,1.243,2.794,3.003v.386h-3.905c.165.638.682,1.066,1.331,1.066.473,0,.869-.165,1.122-.473l1.177.979c-.737.648-1.43.913-2.387.913-1.672,0-2.993-1.287-2.993-2.938ZM123.986,295.772c-.154-.604-.583-.99-1.155-.99-.561,0-.957.363-1.1.99h2.255Z"></path>
    <path d="M126.746,293.484h1.783v1.287c.363-.946.869-1.397,1.54-1.397.253.012.374.033.594.144v1.529c-.22-.11-.528-.177-.836-.177-.528,0-1.012.275-1.298.704v3.587h-1.783v-5.677Z"></path>
  </g>
  <rect class="uuid-a92c5fce-c048-4935-82c1-736e912303c3" x="40.485" y="123.566" width="108.392" height="41.965"></rect>
  <rect class="uuid-a92c5fce-c048-4935-82c1-736e912303c3" x="39.959" y="54.354" width="108.392" height="41.965"></rect>
  <g>
    <path class="uuid-f3caff86-4727-424e-9837-b213f0e2f4e6" d="M73.101,75.232c0-2.029,1.579-3.608,3.618-3.608,1.069,0,2.089.46,2.729,1.25l-.8.779c-.5-.62-1.189-.949-1.929-.949-1.359,0-2.389,1.089-2.389,2.528s1.029,2.528,2.389,2.528c.739,0,1.429-.329,1.929-.949l.8.779c-.64.79-1.659,1.25-2.729,1.25-2.039,0-3.618-1.579-3.618-3.608Z"></path>
    <path class="uuid-f3caff86-4727-424e-9837-b213f0e2f4e6" d="M80.141,76.231c0-1.479,1.08-2.588,2.519-2.588,1.429,0,2.509,1.109,2.509,2.588s-1.08,2.589-2.509,2.589c-1.439,0-2.519-1.109-2.519-2.589ZM84.059,76.231c0-.929-.59-1.629-1.399-1.629-.819,0-1.409.7-1.409,1.629,0,.939.59,1.63,1.409,1.63.81,0,1.399-.69,1.399-1.63Z"></path>
    <path class="uuid-f3caff86-4727-424e-9837-b213f0e2f4e6" d="M86.34,71.564l1.129-.2v7.366h-1.129v-7.166Z"></path>
    <path class="uuid-f3caff86-4727-424e-9837-b213f0e2f4e6" d="M88.86,71.564l1.129-.2v7.366h-1.129v-7.166Z"></path>
    <path class="uuid-f3caff86-4727-424e-9837-b213f0e2f4e6" d="M91.15,76.231c0-1.469,1.06-2.588,2.438-2.588,1.37,0,2.369,1.089,2.369,2.588v.271h-3.698c.11.81.72,1.399,1.499,1.399.47,0,.91-.181,1.189-.47l.74.669c-.61.51-1.219.729-1.979.729-1.439,0-2.559-1.129-2.559-2.599ZM94.888,75.802c-.12-.729-.64-1.239-1.309-1.239-.68,0-1.179.49-1.309,1.239h2.618Z"></path>
    <path class="uuid-f3caff86-4727-424e-9837-b213f0e2f4e6" d="M96.9,76.231c0-1.449,1.1-2.588,2.529-2.588.779,0,1.499.31,1.999.85l-.699.729c-.35-.39-.78-.59-1.26-.59-.809,0-1.439.699-1.439,1.599,0,.91.63,1.6,1.439,1.6.48,0,.91-.2,1.26-.58l.699.72c-.5.54-1.219.85-1.999.85-1.429,0-2.529-1.129-2.529-2.589Z"></path>
    <path class="uuid-f3caff86-4727-424e-9837-b213f0e2f4e6" d="M103.08,77.432v-2.809h-1v-.899h1v-1.38l1.129-.239v1.619h1.389v.899h-1.389v2.559c0,.489.19.68.7.68.22,0,.379-.03.68-.12v.949c-.29.09-.67.14-.97.14-1.009,0-1.539-.479-1.539-1.398Z"></path>
    <path class="uuid-f3caff86-4727-424e-9837-b213f0e2f4e6" d="M106.29,76.231c0-1.479,1.08-2.588,2.519-2.588,1.429,0,2.509,1.109,2.509,2.588s-1.08,2.589-2.509,2.589c-1.439,0-2.519-1.109-2.519-2.589ZM110.208,76.231c0-.929-.59-1.629-1.399-1.629-.819,0-1.409.7-1.409,1.629,0,.939.59,1.63,1.409,1.63.81,0,1.399-.69,1.399-1.63Z"></path>
    <path class="uuid-f3caff86-4727-424e-9837-b213f0e2f4e6" d="M112.49,73.724h1.129v1.079c.28-.76.759-1.17,1.379-1.17.19.011.32.03.49.101v.989c-.18-.07-.41-.12-.62-.12-.549,0-.999.31-1.249.83v3.298h-1.129v-5.007Z"></path>
  </g>
  <g>
    <path class="uuid-f3caff86-4727-424e-9837-b213f0e2f4e6" d="M78.006,140.946h1.199v6.996h-1.199v-6.996Z"></path>
    <path class="uuid-f3caff86-4727-424e-9837-b213f0e2f4e6" d="M80.696,142.936h1.129v.819c.38-.59.929-.899,1.579-.899,1.029,0,1.749.729,1.749,1.789v3.298h-1.14v-2.979c0-.729-.43-1.199-1.099-1.199-.46,0-.83.21-1.089.609v3.568h-1.129v-5.007Z"></path>
    <path class="uuid-f3caff86-4727-424e-9837-b213f0e2f4e6" d="M86.286,145.443c0-1.429,1.029-2.548,2.339-2.548.569,0,1.089.229,1.459.649v-2.769l1.129-.2v7.366h-1.119v-.659c-.36.449-.919.709-1.549.709-1.27,0-2.259-1.129-2.259-2.549ZM90.084,146.493v-2.108c-.29-.34-.72-.54-1.189-.54-.859,0-1.499.68-1.499,1.599,0,.91.64,1.6,1.499,1.6.49,0,.9-.19,1.189-.55Z"></path>
    <path class="uuid-f3caff86-4727-424e-9837-b213f0e2f4e6" d="M92.386,145.443c0-1.469,1.06-2.588,2.438-2.588,1.37,0,2.369,1.089,2.369,2.588v.271h-3.698c.11.81.72,1.399,1.499,1.399.47,0,.91-.181,1.189-.47l.74.669c-.61.51-1.219.729-1.979.729-1.439,0-2.559-1.129-2.559-2.599ZM96.124,145.014c-.12-.729-.64-1.239-1.309-1.239-.68,0-1.179.49-1.309,1.239h2.618Z"></path>
    <path class="uuid-f3caff86-4727-424e-9837-b213f0e2f4e6" d="M99.335,145.364l-1.809-2.429h1.33l1.169,1.648,1.169-1.648h1.27l-1.829,2.458,1.909,2.549h-1.319l-1.259-1.749-1.259,1.749h-1.259l1.889-2.578Z"></path>
    <path class="uuid-f3caff86-4727-424e-9837-b213f0e2f4e6" d="M102.956,145.443c0-1.469,1.06-2.588,2.438-2.588,1.37,0,2.369,1.089,2.369,2.588v.271h-3.698c.11.81.72,1.399,1.499,1.399.47,0,.91-.181,1.189-.47l.74.669c-.61.51-1.219.729-1.979.729-1.439,0-2.559-1.129-2.559-2.599ZM106.694,145.014c-.12-.729-.64-1.239-1.309-1.239-.68,0-1.179.49-1.309,1.239h2.618Z"></path>
    <path class="uuid-f3caff86-4727-424e-9837-b213f0e2f4e6" d="M108.916,142.936h1.129v1.079c.28-.76.759-1.17,1.379-1.17.19.011.32.03.49.101v.989c-.18-.07-.41-.12-.62-.12-.549,0-.999.31-1.249.83v3.298h-1.129v-5.007Z"></path>
  </g>
  <rect class="uuid-a92c5fce-c048-4935-82c1-736e912303c3" x="290.853" y="123.566" width="108.392" height="41.965"></rect>
  <g>
    <path class="uuid-f3caff86-4727-424e-9837-b213f0e2f4e6" d="M319.694,146.923l.649-.88c.899.74,1.549,1.02,2.358,1.02.92,0,1.56-.47,1.56-1.119,0-.569-.34-.84-1.27-.999l-1.289-.22c-1.21-.221-1.799-.82-1.799-1.779,0-1.27,1.009-2.109,2.578-2.109,1.05,0,2.009.311,2.809.899l-.609.9c-.7-.53-1.449-.81-2.239-.81-.84,0-1.399.43-1.399.999,0,.51.32.77,1.08.89l1.249.21c1.409.25,2.068.869,2.068,1.929,0,1.289-1.139,2.199-2.808,2.199-1.1,0-2.05-.38-2.938-1.13Z"></path>
    <path class="uuid-f3caff86-4727-424e-9837-b213f0e2f4e6" d="M326.394,145.443c0-1.469,1.06-2.588,2.438-2.588,1.369,0,2.369,1.089,2.369,2.588v.271h-3.698c.11.81.72,1.399,1.499,1.399.47,0,.91-.181,1.189-.47l.739.669c-.609.51-1.219.729-1.979.729-1.439,0-2.559-1.129-2.559-2.599ZM330.132,145.014c-.12-.729-.64-1.239-1.31-1.239-.68,0-1.18.49-1.31,1.239h2.619Z"></path>
    <path class="uuid-f3caff86-4727-424e-9837-b213f0e2f4e6" d="M332.044,146.503c0-.899.74-1.469,1.919-1.469.47,0,.91.1,1.35.319v-.56c0-.659-.38-.999-1.149-.999-.42,0-.88.12-1.459.39l-.4-.819c.75-.34,1.409-.51,2.079-.51,1.31,0,2.049.659,2.049,1.818v3.269h-1.119v-.52c-.43.42-.909.609-1.489.609-1.05,0-1.779-.63-1.779-1.529ZM334.133,147.232c.45,0,.84-.13,1.18-.419v-.81c-.359-.17-.72-.24-1.149-.24-.649,0-1.06.27-1.06.72,0,.46.4.749,1.029.749Z"></path>
    <path class="uuid-f3caff86-4727-424e-9837-b213f0e2f4e6" d="M337.803,142.936h1.13v1.079c.279-.76.76-1.17,1.379-1.17.19.011.32.03.49.101v.989c-.181-.07-.41-.12-.62-.12-.55,0-.999.31-1.249.83v3.298h-1.13v-5.007Z"></path>
    <path class="uuid-f3caff86-4727-424e-9837-b213f0e2f4e6" d="M341.273,145.443c0-1.449,1.1-2.588,2.528-2.588.78,0,1.499.31,1.999.85l-.699.729c-.35-.39-.779-.59-1.26-.59-.81,0-1.439.699-1.439,1.599,0,.91.63,1.6,1.439,1.6.48,0,.91-.2,1.26-.58l.699.72c-.5.54-1.219.85-1.999.85-1.429,0-2.528-1.129-2.528-2.589Z"></path>
    <path class="uuid-f3caff86-4727-424e-9837-b213f0e2f4e6" d="M346.733,140.776l1.13-.2v3.179c.38-.59.93-.899,1.579-.899,1.029,0,1.749.729,1.749,1.789v3.298h-1.14v-2.979c0-.729-.43-1.199-1.1-1.199-.459,0-.829.21-1.089.609v3.568h-1.13v-7.166Z"></path>
    <path class="uuid-f3caff86-4727-424e-9837-b213f0e2f4e6" d="M356.912,140.946h1.389l2.709,6.996h-1.289l-.72-1.959h-2.868l-.72,1.959h-1.25l2.749-6.996ZM358.671,145.044l-1.1-2.958-1.089,2.958h2.188Z"></path>
    <path class="uuid-f3caff86-4727-424e-9837-b213f0e2f4e6" d="M361.913,140.946h3.128c1.419,0,2.339.89,2.339,2.179,0,1.26-.92,2.148-2.339,2.148h-1.929v2.669h-1.199v-6.996ZM364.852,144.294c.85,0,1.319-.47,1.319-1.179,0-.689-.47-1.159-1.31-1.159h-1.749v2.338h1.739Z"></path>
    <path class="uuid-f3caff86-4727-424e-9837-b213f0e2f4e6" d="M368.653,140.946h1.199v6.996h-1.199v-6.996Z"></path>
  </g>
  <g>
    <g>
      <path d="M199.054,167.024h2.559c2.009,0,3.508,1.529,3.508,3.498s-1.499,3.498-3.508,3.498h-2.559v-6.996ZM201.643,172.981c1.259,0,2.249-1.069,2.249-2.459s-.989-2.459-2.249-2.459h-1.389v4.918h1.389Z"></path>
      <path d="M206.074,172.581c0-.899.739-1.469,1.919-1.469.47,0,.909.1,1.349.319v-.56c0-.659-.38-.999-1.149-.999-.42,0-.879.12-1.459.39l-.4-.819c.75-.34,1.409-.51,2.079-.51,1.31,0,2.049.659,2.049,1.818v3.269h-1.119v-.52c-.43.42-.91.609-1.489.609-1.049,0-1.779-.63-1.779-1.529ZM208.163,173.311c.45,0,.839-.13,1.179-.419v-.81c-.36-.17-.72-.24-1.149-.24-.649,0-1.06.27-1.06.72,0,.46.4.749,1.03.749Z"></path>
      <path d="M212.454,172.722v-2.809h-1v-.899h1v-1.38l1.129-.239v1.619h1.389v.899h-1.389v2.559c0,.489.19.68.7.68.22,0,.379-.03.68-.12v.949c-.29.09-.67.14-.97.14-1.009,0-1.539-.479-1.539-1.398Z"></path>
      <path d="M215.714,172.581c0-.899.739-1.469,1.919-1.469.47,0,.909.1,1.349.319v-.56c0-.659-.38-.999-1.149-.999-.42,0-.879.12-1.459.39l-.4-.819c.75-.34,1.409-.51,2.079-.51,1.31,0,2.049.659,2.049,1.818v3.269h-1.119v-.52c-.43.42-.91.609-1.489.609-1.049,0-1.779-.63-1.779-1.529ZM217.803,173.311c.45,0,.839-.13,1.179-.419v-.81c-.36-.17-.72-.24-1.149-.24-.649,0-1.06.27-1.06.72,0,.46.4.749,1.03.749Z"></path>
      <path d="M221.474,166.885l1.129-.19v2.988c.35-.439.909-.709,1.539-.709,1.269,0,2.259,1.129,2.259,2.548,0,1.43-1.02,2.549-2.329,2.549-.59,0-1.109-.239-1.489-.689v.64h-1.109v-7.136ZM225.292,171.521c0-.909-.64-1.599-1.489-1.599-.5,0-.91.2-1.199.56v2.089c.29.35.72.56,1.199.56.859,0,1.489-.689,1.489-1.609Z"></path>
      <path d="M227.324,172.581c0-.899.739-1.469,1.919-1.469.47,0,.909.1,1.349.319v-.56c0-.659-.38-.999-1.149-.999-.42,0-.879.12-1.459.39l-.4-.819c.75-.34,1.409-.51,2.079-.51,1.31,0,2.049.659,2.049,1.818v3.269h-1.119v-.52c-.43.42-.91.609-1.489.609-1.049,0-1.779-.63-1.779-1.529ZM229.413,173.311c.45,0,.839-.13,1.179-.419v-.81c-.36-.17-.72-.24-1.149-.24-.649,0-1.06.27-1.06.72,0,.46.4.749,1.03.749Z"></path>
      <path d="M232.634,173.44l.53-.749c.66.409,1.099.569,1.609.569.6,0,1.009-.279,1.009-.68,0-.31-.209-.47-.699-.569l-.88-.15c-.979-.18-1.449-.629-1.449-1.379,0-.939.77-1.549,1.939-1.549.7,0,1.33.199,1.969.6l-.53.749c-.51-.329-1-.479-1.509-.479-.52,0-.859.22-.859.58,0,.319.18.459.7.55l.889.17c1,.18,1.479.64,1.479,1.389,0,.92-.88,1.629-2.049,1.629-.859,0-1.619-.239-2.148-.68Z"></path>
      <path d="M237.643,171.521c0-1.469,1.06-2.588,2.438-2.588,1.37,0,2.369,1.089,2.369,2.588v.271h-3.698c.11.81.72,1.399,1.499,1.399.47,0,.91-.181,1.189-.47l.74.669c-.61.51-1.219.729-1.979.729-1.439,0-2.559-1.129-2.559-2.599ZM241.381,171.092c-.12-.729-.64-1.239-1.309-1.239-.68,0-1.179.49-1.309,1.239h2.618Z"></path>
    </g>
    <g>
      <path class="uuid-c9a936ca-016f-474c-8198-aa6db7174bf5" d="M201.129,139.244v10.733c0,5.928,8.698,10.733,19.429,10.733s19.429-4.806,19.429-10.733v-10.733"></path>
      <ellipse class="uuid-c9a936ca-016f-474c-8198-aa6db7174bf5" cx="220.558" cy="139.244" rx="19.429" ry="10.733"></ellipse>
    </g>
  </g>
  <g>
    <line class="uuid-204c26a6-e61f-4f67-82f3-dba1c25d72a1" x1="94.681" y1="96.567" x2="94.681" y2="116.502"></line>
    <polygon points="90.941 115.408 94.681 121.884 98.421 115.408 90.941 115.408"></polygon>
  </g>
  <g>
    <line class="uuid-204c26a6-e61f-4f67-82f3-dba1c25d72a1" x1="94.681" y1="172.221" x2="94.681" y2="233.447"></line>
    <polygon points="90.941 173.315 94.681 166.839 98.421 173.315 90.941 173.315"></polygon>
  </g>
  <g>
    <line class="uuid-204c26a6-e61f-4f67-82f3-dba1c25d72a1" x1="150.314" y1="144.549" x2="191.384" y2="144.549"></line>
    <polygon points="190.289 148.289 196.766 144.549 190.289 140.809 190.289 148.289"></polygon>
  </g>
  <g>
    <line class="uuid-204c26a6-e61f-4f67-82f3-dba1c25d72a1" x1="148.881" y1="75.337" x2="160.182" y2="75.337"></line>
    <polygon points="159.088 79.077 165.564 75.337 159.088 71.597 159.088 79.077"></polygon>
  </g>
  <g>
    <line class="uuid-204c26a6-e61f-4f67-82f3-dba1c25d72a1" x1="405.762" y1="144.549" x2="446.832" y2="144.549"></line>
    <polygon points="406.856 148.289 400.38 144.549 406.856 140.809 406.856 148.289"></polygon>
  </g>
  <g>
    <line class="uuid-204c26a6-e61f-4f67-82f3-dba1c25d72a1" x1="248.982" y1="144.549" x2="290.052" y2="144.549"></line>
    <polygon points="250.076 148.289 243.6 144.549 250.076 140.809 250.076 148.289"></polygon>
  </g>
  <g>
    <path d="M159.18,135.653h.972l.792,3.179.936-3.179h.855l.927,3.179.792-3.179h.945l-1.215,4.511h-.972l-.918-3.178-.909,3.178h-.99l-1.215-4.511Z"></path>
    <path d="M166.228,135.653h1.017v.973c.252-.685.684-1.054,1.242-1.054.171.01.288.027.441.091v.891c-.162-.062-.369-.107-.558-.107-.495,0-.9.278-1.125.747v2.971h-1.017v-4.511Z"></path>
    <path d="M169.638,134.114c0-.342.279-.63.63-.63.342,0,.63.288.63.63s-.288.621-.63.621c-.351,0-.63-.279-.63-.621ZM169.755,135.653h1.018v4.511h-1.018v-4.511Z"></path>
    <path d="M172.59,138.994v-2.53h-.9v-.811h.9v-1.242l1.017-.216v1.458h1.251v.811h-1.251v2.305c0,.441.171.612.63.612.198,0,.342-.027.612-.108v.855c-.261.081-.604.126-.874.126-.909,0-1.386-.432-1.386-1.26Z"></path>
    <path d="M175.551,137.913c0-1.323.954-2.331,2.196-2.331,1.233,0,2.134.981,2.134,2.331v.243h-3.331c.099.729.648,1.261,1.351,1.261.423,0,.819-.162,1.071-.423l.666.603c-.549.459-1.098.657-1.782.657-1.296,0-2.305-1.018-2.305-2.341ZM178.918,137.526c-.108-.657-.576-1.116-1.179-1.116-.612,0-1.062.44-1.179,1.116h2.358Z"></path>
    <path d="M180.51,139.642l.477-.675c.594.369.99.513,1.45.513.54,0,.909-.252.909-.611,0-.279-.189-.424-.63-.514l-.792-.135c-.882-.162-1.306-.567-1.306-1.242,0-.847.693-1.396,1.747-1.396.63,0,1.197.18,1.773.54l-.477.675c-.459-.297-.9-.432-1.359-.432-.468,0-.774.198-.774.521,0,.288.162.414.63.495l.801.153c.9.162,1.333.576,1.333,1.252,0,.828-.792,1.467-1.846,1.467-.774,0-1.458-.216-1.936-.612Z"></path>
  </g>
  <g>
    <path d="M259.57,135.653h1.017v.973c.252-.685.684-1.054,1.242-1.054.171.01.288.027.441.091v.891c-.162-.062-.369-.107-.558-.107-.495,0-.9.278-1.125.747v2.971h-1.017v-4.511Z"></path>
    <path d="M262.9,137.913c0-1.323.954-2.331,2.196-2.331,1.233,0,2.134.981,2.134,2.331v.243h-3.331c.099.729.648,1.261,1.351,1.261.423,0,.819-.162,1.071-.423l.666.603c-.549.459-1.098.657-1.782.657-1.296,0-2.305-1.018-2.305-2.341ZM266.267,137.526c-.108-.657-.576-1.116-1.179-1.116-.612,0-1.062.44-1.179,1.116h2.358Z"></path>
    <path d="M268.03,138.868c0-.811.667-1.324,1.729-1.324.423,0,.819.091,1.215.288v-.504c0-.594-.342-.9-1.035-.9-.378,0-.792.108-1.314.352l-.36-.738c.675-.307,1.269-.459,1.873-.459,1.179,0,1.845.594,1.845,1.638v2.944h-1.008v-.468c-.387.378-.819.549-1.341.549-.945,0-1.603-.567-1.603-1.377ZM269.912,139.524c.405,0,.756-.116,1.062-.378v-.729c-.324-.153-.648-.217-1.035-.217-.585,0-.954.243-.954.648,0,.414.36.675.927.675Z"></path>
    <path d="M273.007,137.913c0-1.287.927-2.295,2.106-2.295.513,0,.981.207,1.314.585v-2.494l1.017-.18v6.635h-1.008v-.594c-.324.404-.828.639-1.396.639-1.143,0-2.034-1.018-2.034-2.296ZM276.428,138.858v-1.899c-.261-.306-.648-.486-1.071-.486-.774,0-1.351.612-1.351,1.44,0,.819.576,1.44,1.351,1.44.441,0,.81-.171,1.071-.495Z"></path>
    <path d="M278.299,139.642l.477-.675c.594.369.99.513,1.45.513.54,0,.909-.252.909-.611,0-.279-.189-.424-.63-.514l-.792-.135c-.882-.162-1.306-.567-1.306-1.242,0-.847.693-1.396,1.747-1.396.63,0,1.197.18,1.773.54l-.477.675c-.459-.297-.9-.432-1.359-.432-.468,0-.774.198-.774.521,0,.288.162.414.63.495l.801.153c.9.162,1.333.576,1.333,1.252,0,.828-.792,1.467-1.846,1.467-.774,0-1.458-.216-1.936-.612Z"></path>
  </g>
  <g>
    <path d="M414.632,125.437h2.818c1.278,0,2.106.801,2.106,1.963,0,1.134-.828,1.936-2.106,1.936h-1.737v2.403h-1.081v-6.302ZM417.279,128.453c.765,0,1.188-.423,1.188-1.062,0-.621-.424-1.044-1.18-1.044h-1.575v2.106h1.566Z"></path>
    <path d="M420.455,128.588c0-1.818,1.404-3.25,3.188-3.25s3.187,1.432,3.187,3.25-1.404,3.25-3.187,3.25-3.188-1.431-3.188-3.25ZM425.722,128.588c0-1.296-.9-2.277-2.079-2.277s-2.089.981-2.089,2.277.909,2.278,2.089,2.278,2.079-.981,2.079-2.278Z"></path>
    <path d="M427.511,130.821l.585-.793c.811.667,1.396.919,2.125.919.828,0,1.404-.424,1.404-1.009,0-.513-.306-.756-1.144-.9l-1.161-.197c-1.089-.198-1.62-.738-1.62-1.603,0-1.144.909-1.9,2.322-1.9.945,0,1.81.279,2.53.811l-.55.811c-.63-.478-1.305-.729-2.017-.729-.756,0-1.26.388-1.26.9,0,.459.288.693.972.801l1.126.189c1.27.226,1.863.783,1.863,1.737,0,1.161-1.026,1.98-2.529,1.98-.99,0-1.846-.342-2.647-1.017Z"></path>
    <path d="M435.359,126.374h-2.107v-.937h5.294v.937h-2.106v5.365h-1.08v-5.365Z"></path>
    <path d="M410.646,135.653h1.018v.973c.252-.685.685-1.054,1.242-1.054.171.01.288.027.441.091v.891c-.162-.062-.369-.107-.559-.107-.495,0-.899.278-1.125.747v2.971h-1.018v-4.511Z"></path>
    <path d="M413.976,137.913c0-1.323.954-2.331,2.197-2.331,1.233,0,2.134.981,2.134,2.331v.243h-3.331c.099.729.647,1.261,1.35,1.261.424,0,.819-.162,1.071-.423l.667.603c-.55.459-1.099.657-1.783.657-1.296,0-2.305-1.018-2.305-2.341ZM417.343,137.526c-.108-.657-.576-1.116-1.18-1.116-.611,0-1.062.44-1.179,1.116h2.358Z"></path>
    <path d="M422.554,139.579c-.323.405-.819.63-1.386.63-1.144,0-2.035-1.018-2.035-2.296,0-1.287.928-2.295,2.106-2.295.522,0,.981.207,1.324.594v-.559h1.008v6.401h-1.018v-2.476ZM422.554,138.858v-1.899c-.261-.306-.647-.486-1.071-.486-.773,0-1.35.612-1.35,1.44,0,.819.576,1.44,1.35,1.44.441,0,.811-.171,1.071-.495Z"></path>
    <path d="M424.793,138.625v-2.972h1.026v2.674c0,.667.388,1.09.99,1.09.405,0,.748-.181.981-.54v-3.224h1.018v4.511h-1.018v-.729c-.342.531-.828.802-1.432.802-.918,0-1.566-.666-1.566-1.611Z"></path>
    <path d="M429.86,137.913c0-1.323.954-2.331,2.197-2.331,1.233,0,2.134.981,2.134,2.331v.243h-3.331c.099.729.647,1.261,1.35,1.261.424,0,.819-.162,1.071-.423l.667.603c-.55.459-1.099.657-1.783.657-1.296,0-2.305-1.018-2.305-2.341ZM433.228,137.526c-.108-.657-.576-1.116-1.18-1.116-.611,0-1.062.44-1.179,1.116h2.358Z"></path>
    <path d="M434.818,139.642l.478-.675c.595.369.99.513,1.449.513.54,0,.909-.252.909-.611,0-.279-.188-.424-.63-.514l-.792-.135c-.883-.162-1.306-.567-1.306-1.242,0-.847.693-1.396,1.747-1.396.63,0,1.197.18,1.773.54l-.478.675c-.459-.297-.9-.432-1.359-.432-.468,0-.774.198-.774.521,0,.288.162.414.631.495l.801.153c.9.162,1.332.576,1.332,1.252,0,.828-.792,1.467-1.846,1.467-.773,0-1.458-.216-1.936-.612Z"></path>
    <path d="M440.094,138.994v-2.53h-.9v-.811h.9v-1.242l1.018-.216v1.458h1.251v.811h-1.251v2.305c0,.441.171.612.63.612.198,0,.342-.027.612-.108v.855c-.262.081-.604.126-.873.126-.91,0-1.387-.432-1.387-1.26Z"></path>
  </g>
  <rect class="uuid-ac366292-bc4e-4774-a60a-fff54d188578" x="165.669" y="54.354" width="108.392" height="41.965"></rect>
  <g>
    <path d="M202.45,70.968h1.2v3.188l3.038-3.188h1.469l-3.338,3.368,3.458,3.628h-1.589l-3.038-3.269v3.269h-1.2v-6.996Z"></path>
    <path d="M208.82,76.035c0-.8.62-1.479,1.499-1.709-.75-.25-1.259-.85-1.259-1.55,0-1.099,1.009-1.919,2.359-1.919s2.358.82,2.358,1.919c0,.7-.51,1.3-1.259,1.55.88.229,1.5.909,1.5,1.709,0,1.189-1.08,2.039-2.599,2.039s-2.599-.85-2.599-2.039ZM212.918,75.965c0-.689-.63-1.199-1.499-1.199s-1.5.51-1.5,1.199.63,1.209,1.5,1.209,1.499-.52,1.499-1.209ZM212.708,72.837c0-.62-.56-1.08-1.289-1.08s-1.29.46-1.29,1.08.56,1.089,1.29,1.089,1.289-.47,1.289-1.089Z"></path>
    <path d="M214.791,77.384l.53-.749c.659.409,1.099.569,1.609.569.6,0,1.009-.279,1.009-.68,0-.31-.209-.47-.699-.569l-.88-.15c-.979-.18-1.449-.629-1.449-1.379,0-.939.77-1.549,1.939-1.549.7,0,1.33.199,1.969.6l-.53.749c-.51-.329-1-.479-1.509-.479-.52,0-.859.22-.859.58,0,.319.18.459.699.55l.89.17c1,.18,1.479.64,1.479,1.389,0,.92-.88,1.629-2.049,1.629-.86,0-1.619-.239-2.149-.68Z"></path>
    <path d="M224.389,70.968h1.389l2.708,6.996h-1.29l-.719-1.959h-2.869l-.72,1.959h-1.249l2.749-6.996ZM226.147,75.065l-1.099-2.958-1.089,2.958h2.188Z"></path>
    <path d="M229.389,70.968h3.128c1.419,0,2.339.89,2.339,2.179,0,1.26-.919,2.148-2.339,2.148h-1.929v2.669h-1.2v-6.996ZM232.328,74.315c.85,0,1.319-.47,1.319-1.179,0-.689-.47-1.159-1.309-1.159h-1.749v2.338h1.739Z"></path>
    <path d="M236.129,70.968h1.199v6.996h-1.199v-6.996Z"></path>
  </g>
  <rect class="uuid-ac366292-bc4e-4774-a60a-fff54d188578" x="165.669" y="233.777" width="108.392" height="41.965"></rect>
  <g>
    <path d="M202.45,250.39h1.2v3.188l3.038-3.188h1.469l-3.338,3.368,3.458,3.628h-1.589l-3.038-3.269v3.269h-1.2v-6.996Z"></path>
    <path d="M208.82,255.457c0-.8.62-1.479,1.499-1.709-.75-.25-1.259-.85-1.259-1.55,0-1.099,1.009-1.919,2.359-1.919s2.358.82,2.358,1.919c0,.7-.51,1.3-1.259,1.55.88.229,1.5.909,1.5,1.709,0,1.189-1.08,2.039-2.599,2.039s-2.599-.85-2.599-2.039ZM212.918,255.387c0-.689-.63-1.199-1.499-1.199s-1.5.51-1.5,1.199.63,1.209,1.5,1.209,1.499-.52,1.499-1.209ZM212.708,252.259c0-.62-.56-1.08-1.289-1.08s-1.29.46-1.29,1.08.56,1.089,1.29,1.089,1.289-.47,1.289-1.089Z"></path>
    <path d="M214.791,256.806l.53-.749c.659.409,1.099.569,1.609.569.6,0,1.009-.279,1.009-.68,0-.31-.209-.47-.699-.569l-.88-.15c-.979-.18-1.449-.629-1.449-1.379,0-.939.77-1.549,1.939-1.549.7,0,1.33.199,1.969.6l-.53.749c-.51-.329-1-.479-1.509-.479-.52,0-.859.22-.859.58,0,.319.18.459.699.55l.89.17c1,.18,1.479.64,1.479,1.389,0,.92-.88,1.629-2.049,1.629-.86,0-1.619-.239-2.149-.68Z"></path>
    <path d="M224.389,250.39h1.389l2.708,6.996h-1.29l-.719-1.959h-2.869l-.72,1.959h-1.249l2.749-6.996ZM226.147,254.487l-1.099-2.958-1.089,2.958h2.188Z"></path>
    <path d="M229.389,250.39h3.128c1.419,0,2.339.89,2.339,2.179,0,1.26-.919,2.148-2.339,2.148h-1.929v2.669h-1.2v-6.996ZM232.328,253.737c.85,0,1.319-.47,1.319-1.179,0-.689-.47-1.159-1.309-1.159h-1.749v2.338h1.739Z"></path>
    <path d="M236.129,250.39h1.199v6.996h-1.199v-6.996Z"></path>
  </g>
  <rect class="uuid-a92c5fce-c048-4935-82c1-736e912303c3" x="40.485" y="233.777" width="108.392" height="41.965"></rect>
  <g>
    <path class="uuid-f3caff86-4727-424e-9837-b213f0e2f4e6" d="M73.626,254.655c0-2.029,1.579-3.608,3.618-3.608,1.069,0,2.089.46,2.729,1.25l-.8.779c-.5-.62-1.189-.949-1.929-.949-1.359,0-2.389,1.089-2.389,2.528s1.029,2.528,2.389,2.528c.739,0,1.429-.329,1.929-.949l.8.779c-.64.79-1.659,1.25-2.729,1.25-2.039,0-3.618-1.579-3.618-3.608Z"></path>
    <path class="uuid-f3caff86-4727-424e-9837-b213f0e2f4e6" d="M80.667,255.654c0-1.479,1.08-2.588,2.519-2.588,1.429,0,2.509,1.109,2.509,2.588s-1.08,2.589-2.509,2.589c-1.439,0-2.519-1.109-2.519-2.589ZM84.584,255.654c0-.929-.59-1.629-1.399-1.629-.819,0-1.409.7-1.409,1.629,0,.939.59,1.63,1.409,1.63.81,0,1.399-.69,1.399-1.63Z"></path>
    <path class="uuid-f3caff86-4727-424e-9837-b213f0e2f4e6" d="M86.866,250.987l1.129-.2v7.366h-1.129v-7.166Z"></path>
    <path class="uuid-f3caff86-4727-424e-9837-b213f0e2f4e6" d="M89.386,250.987l1.129-.2v7.366h-1.129v-7.166Z"></path>
    <path class="uuid-f3caff86-4727-424e-9837-b213f0e2f4e6" d="M91.676,255.654c0-1.469,1.06-2.588,2.438-2.588,1.37,0,2.369,1.089,2.369,2.588v.271h-3.698c.11.81.72,1.399,1.499,1.399.47,0,.91-.181,1.189-.47l.74.669c-.61.51-1.219.729-1.979.729-1.439,0-2.559-1.129-2.559-2.599ZM95.414,255.225c-.12-.729-.64-1.239-1.309-1.239-.68,0-1.179.49-1.309,1.239h2.618Z"></path>
    <path class="uuid-f3caff86-4727-424e-9837-b213f0e2f4e6" d="M97.426,255.654c0-1.449,1.1-2.588,2.529-2.588.779,0,1.499.31,1.999.85l-.699.729c-.35-.39-.78-.59-1.259-.59-.81,0-1.439.699-1.439,1.599,0,.91.63,1.6,1.439,1.6.479,0,.909-.2,1.259-.58l.699.72c-.5.54-1.219.85-1.999.85-1.429,0-2.529-1.129-2.529-2.589Z"></path>
    <path class="uuid-f3caff86-4727-424e-9837-b213f0e2f4e6" d="M103.605,256.854v-2.809h-1v-.899h1v-1.38l1.129-.239v1.619h1.389v.899h-1.389v2.559c0,.489.19.68.7.68.22,0,.379-.03.68-.12v.949c-.29.09-.67.14-.97.14-1.009,0-1.539-.479-1.539-1.398Z"></path>
    <path class="uuid-f3caff86-4727-424e-9837-b213f0e2f4e6" d="M106.816,255.654c0-1.479,1.08-2.588,2.519-2.588,1.429,0,2.509,1.109,2.509,2.588s-1.08,2.589-2.509,2.589c-1.439,0-2.519-1.109-2.519-2.589ZM110.734,255.654c0-.929-.59-1.629-1.399-1.629-.819,0-1.409.7-1.409,1.629,0,.939.59,1.63,1.409,1.63.81,0,1.399-.69,1.399-1.63Z"></path>
    <path class="uuid-f3caff86-4727-424e-9837-b213f0e2f4e6" d="M113.016,253.146h1.129v1.079c.28-.76.759-1.17,1.379-1.17.19.011.32.03.49.101v.989c-.18-.07-.41-.12-.62-.12-.549,0-1,.31-1.249.83v3.298h-1.129v-5.007Z"></path>
  </g>
  <g>
    <line class="uuid-204c26a6-e61f-4f67-82f3-dba1c25d72a1" x1="149.407" y1="254.759" x2="160.708" y2="254.759"></line>
    <polygon points="159.614 258.499 166.09 254.759 159.614 251.02 159.614 258.499"></polygon>
  </g>
</svg>