<svg id="uuid-d60d6a8c-4270-4e70-926e-fd2bdb2823e6" data-name="b8a55249-3dbe-4c31-836d-27cd05fe00ac" xmlns="http://www.w3.org/2000/svg" width="595.276" height="376.4" viewBox="0 0 595.276 376.4">
  <defs>
    <style>
      .uuid-fd6e3c91-fdc9-4611-92c0-97e2678183b3, .uuid-ea547d38-f1a3-4e1c-9b31-e5832941b470, .uuid-923bd7c2-b601-4719-9910-4944cf3f1e52, .uuid-68130e59-f793-49b3-b5db-d28684fbee93, .uuid-2af637c2-f717-45e6-974b-4c3dd1e61b02, .uuid-5fbfa238-2209-40a9-9db9-72b54344ca10 {
        fill: none;
      }

      .uuid-fd6e3c91-fdc9-4611-92c0-97e2678183b3, .uuid-923bd7c2-b601-4719-9910-4944cf3f1e52, .uuid-68130e59-f793-49b3-b5db-d28684fbee93 {
        stroke-linecap: round;
        stroke-linejoin: round;
      }

      .uuid-fd6e3c91-fdc9-4611-92c0-97e2678183b3, .uuid-923bd7c2-b601-4719-9910-4944cf3f1e52, .uuid-68130e59-f793-49b3-b5db-d28684fbee93, .uuid-c0621f27-829f-4d52-bdea-c95c94b7cad0, .uuid-5fbfa238-2209-40a9-9db9-72b54344ca10 {
        stroke: #06c;
      }

      .uuid-ea547d38-f1a3-4e1c-9b31-e5832941b470 {
        stroke: #020202;
      }

      .uuid-ea547d38-f1a3-4e1c-9b31-e5832941b470, .uuid-3bcce92b-b7bb-41a5-9a42-7b35b2f8fbeb, .uuid-c0621f27-829f-4d52-bdea-c95c94b7cad0, .uuid-2af637c2-f717-45e6-974b-4c3dd1e61b02, .uuid-5fbfa238-2209-40a9-9db9-72b54344ca10 {
        stroke-miterlimit: 10;
      }

      .uuid-ea547d38-f1a3-4e1c-9b31-e5832941b470, .uuid-3bcce92b-b7bb-41a5-9a42-7b35b2f8fbeb, .uuid-5fbfa238-2209-40a9-9db9-72b54344ca10 {
        stroke-width: .75px;
      }

      .uuid-1854ee60-d62a-445c-9e33-fb4eff3687ea {
        fill: #e6e6e6;
      }

      .uuid-dcd5872f-2d93-4a8f-9c9c-a9c9864eb6ec {
        fill: #231f20;
      }

      .uuid-923bd7c2-b601-4719-9910-4944cf3f1e52 {
        stroke-dasharray: 3.081 3.081;
      }

      .uuid-68130e59-f793-49b3-b5db-d28684fbee93 {
        stroke-dasharray: 3.183 3.183;
      }

      .uuid-3bcce92b-b7bb-41a5-9a42-7b35b2f8fbeb {
        stroke: #fff;
      }

      .uuid-96e9f795-733b-4e3e-88ff-82bc696ef6c1 {
        fill: #06c;
      }

      .uuid-97854497-a71e-4e64-92d9-fa57dfa945a0 {
        fill: #020202;
      }

      .uuid-9dccd95f-8889-4889-aa48-3014d72099a7 {
        fill: #fff;
      }

      .uuid-c0621f27-829f-4d52-bdea-c95c94b7cad0, .uuid-fbb5f811-1393-4a3d-a5ab-cc240dda5d35 {
        fill: #dbe8f5;
      }

      .uuid-2af637c2-f717-45e6-974b-4c3dd1e61b02 {
        stroke: #000;
      }
    </style>
  </defs>
  <rect class="uuid-9dccd95f-8889-4889-aa48-3014d72099a7" x="-.814" y="-.142" width="595.914" height="375.771"></rect>
  <rect id="uuid-a757d8ea-6135-4bfc-baa7-ca5f7058d829" data-name="rect16" class="uuid-1854ee60-d62a-445c-9e33-fb4eff3687ea" x="182.96" y="18.211" width="402.325" height="341.712"></rect>
  <rect id="uuid-580af7e1-1984-4e67-9aea-fca68971a498" data-name="rect18" class="uuid-1854ee60-d62a-445c-9e33-fb4eff3687ea" x="11.666" y="117.72" width="140.372" height="153.468"></rect>
  <g id="uuid-5b5708e9-78d7-45ae-8aca-adb013aad2ef" data-name="g264">
    <path id="uuid-ef39fe69-e95c-4158-9f75-17c10885b4a2" data-name="path254" class="uuid-dcd5872f-2d93-4a8f-9c9c-a9c9864eb6ec" d="M68.808,80.065h1.855l2.545,6.63h-1.759l-.549-1.582h-2.423l-.559,1.582h-1.694l2.584-6.63ZM70.465,83.853l-.767-2.196-.775,2.196h1.543Z"></path>
    <path id="uuid-dbaeeefe-f104-49b3-a0a4-cf9b5efe85e4" data-name="path256" class="uuid-dcd5872f-2d93-4a8f-9c9c-a9c9864eb6ec" d="M76.971,86.055c-.356.426-.884.67-1.44.663-1.28-.091-2.245-1.2-2.158-2.48-.059-1.3.947-2.401,2.247-2.46.008,0,.017,0,.025-.001.5-.002.976.214,1.302.592v-2.447l1.533-.237v7.01h-1.514l.005-.639ZM76.042,85.449c.345.009.677-.132.909-.388v-1.647c-.238-.246-.567-.382-.909-.379-.667.021-1.19.578-1.169,1.245.02.637.532,1.149,1.169,1.169Z"></path>
    <path id="uuid-b1dbb138-1691-414a-b8d4-e9e1ad5ba9b1" data-name="path258" class="uuid-dcd5872f-2d93-4a8f-9c9c-a9c9864eb6ec" d="M79.682,81.805h1.539v.777c.295-.523.847-.848,1.448-.852.602-.013,1.148.349,1.372.908.334-.566.943-.911,1.599-.908.864.011,1.556.72,1.546,1.584,0,.043-.003.086-.007.129v3.252h-1.539v-2.949c.046-.401-.241-.763-.642-.81-.029-.003-.058-.005-.087-.005-.286-.003-.554.14-.71.379v3.385h-1.539v-2.949c.046-.401-.243-.764-.644-.81-.028-.003-.057-.005-.085-.005-.287,0-.556.142-.719.379v3.385h-1.539l.006-4.89Z"></path>
    <path id="uuid-40f869a4-792f-4e4b-9073-3f29f0cd01c6" data-name="path260" class="uuid-dcd5872f-2d93-4a8f-9c9c-a9c9864eb6ec" d="M88.234,80.196c.001-.475.386-.86.861-.862.477.001.865.385.871.862-.018.478-.42.852-.898.834-.454-.017-.818-.381-.834-.834h0ZM89.862,86.69h-1.533v-4.885h1.533v4.885Z"></path>
    <path id="uuid-5cff6e04-da52-4a6e-9680-9a4af176dbb2" data-name="path262" class="uuid-dcd5872f-2d93-4a8f-9c9c-a9c9864eb6ec" d="M91.057,81.805h1.532v.796c.326-.539.909-.87,1.539-.871.872-.023,1.597.665,1.62,1.537.001.043,0,.086-.002.128v3.3h-1.528v-2.854c.053-.446-.266-.851-.712-.904-.034-.004-.068-.006-.103-.006-.321-.004-.625.147-.815.407v3.356h-1.532v-4.89Z"></path>
  </g>
  <g id="uuid-79c1737e-66ae-4b47-b51f-d29e54027a91" data-name="g276">
    <path id="uuid-d9ee5ec4-f402-4843-8043-22ec8e22c534" data-name="path266" class="uuid-dcd5872f-2d93-4a8f-9c9c-a9c9864eb6ec" d="M202.927,338.105l2.947,4.02-.03-4.02h1.541v6.639h-1.44l-3.043-4.149.03,4.149h-1.541v-6.639h1.536Z"></path>
    <path id="uuid-b88f4f34-7e88-4284-a6be-1cbe60e373c1" data-name="path268" class="uuid-dcd5872f-2d93-4a8f-9c9c-a9c9864eb6ec" d="M211.054,339.773c1.398.009,2.525,1.15,2.516,2.549-.009,1.398-1.15,2.525-2.549,2.516-1.392-.009-2.516-1.14-2.516-2.532-.024-1.375,1.071-2.509,2.446-2.532.034,0,.069,0,.103,0ZM212.121,342.305c.078-.584-.331-1.121-.915-1.199s-1.121.331-1.199.915c-.013.094-.013.19,0,.284-.078.584.331,1.121.915,1.199s1.121-.331,1.199-.915c.013-.094.013-.19,0-.284Z"></path>
    <path id="uuid-8391e2a2-21ef-411a-bea0-47ff70575ce2" data-name="path270" class="uuid-dcd5872f-2d93-4a8f-9c9c-a9c9864eb6ec" d="M218.023,344.106c-.356.426-.885.67-1.44.663-1.282-.09-2.249-1.201-2.161-2.482-.06-1.301.946-2.404,2.247-2.463.009,0,.018,0,.028-.001.5-.003.977.214,1.304.593v-2.446l1.541-.237v7.013h-1.516l-.002-.639ZM217.095,343.499c.345.009.677-.133.909-.389v-1.649c-.238-.246-.567-.383-.909-.379-.667.021-1.192.579-1.171,1.246.02.638.533,1.151,1.171,1.171Z"></path>
    <path id="uuid-58ccb839-7128-4d94-9777-bb551633e445" data-name="path272" class="uuid-dcd5872f-2d93-4a8f-9c9c-a9c9864eb6ec" d="M223.096,344.836c-1.396.027-2.55-1.082-2.578-2.478,0-.018,0-.035,0-.053-.048-1.354,1.011-2.491,2.366-2.539.033-.001.065-.002.098-.002,1.328-.007,2.41,1.064,2.417,2.392,0,.069-.002.137-.008.206v.331h-3.361c.118.538.595.921,1.146.92.367.018.723-.132.966-.408l1.015.844c-.553.529-1.296.812-2.06.787ZM222.029,341.821h1.943c-.076-.492-.498-.857-.996-.863-.49.009-.896.382-.947.869v-.006Z"></path>
    <path id="uuid-ce27b5fd-1d23-414f-9385-766c0853bb23" data-name="path274" class="uuid-dcd5872f-2d93-4a8f-9c9c-a9c9864eb6ec" d="M226.674,343.214c.472.3,1.015.471,1.574.493.435,0,.701-.152.701-.398,0-.19-.141-.294-.455-.356l-.938-.171c-.948-.179-1.442-.663-1.442-1.423,0-1.004.769-1.602,2.049-1.602.701.006,1.388.198,1.989.558l-.701.977c-.421-.263-.906-.407-1.402-.417-.371,0-.593.119-.593.341,0,.199.119.285.503.356l.919.171c.966.18,1.478.672,1.469,1.412.009.958-.9,1.679-2.103,1.679-.793.03-1.577-.177-2.252-.593l.683-1.028Z"></path>
  </g>
  <g id="uuid-d63eab49-48f9-4b8a-85d2-7a7943906088" data-name="g712">
    <g id="uuid-d446bee9-4b3c-46d3-b509-59597ae4987b" data-name="rect616">
      <rect class="uuid-9dccd95f-8889-4889-aa48-3014d72099a7" x="37.623" y="150.953" width="88.457" height="32.112"></rect>
      <path class="uuid-96e9f795-733b-4e3e-88ff-82bc696ef6c1" d="M126.08,183.565h-2.43c-.276,0-.5-.224-.5-.5s.224-.5.5-.5h1.93v-.069c0-.276.224-.5.5-.5s.5.224.5.5v.569c0,.276-.224.5-.5.5ZM120.65,183.565h-3c-.276,0-.5-.224-.5-.5s.224-.5.5-.5h3c.276,0,.5.224.5.5s-.224.5-.5.5ZM114.65,183.565h-3c-.276,0-.5-.224-.5-.5s.224-.5.5-.5h3c.276,0,.5.224.5.5s-.224.5-.5.5ZM108.65,183.565h-3c-.276,0-.5-.224-.5-.5s.224-.5.5-.5h3c.276,0,.5.224.5.5s-.224.5-.5.5ZM102.65,183.565h-3c-.276,0-.5-.224-.5-.5s.224-.5.5-.5h3c.276,0,.5.224.5.5s-.224.5-.5.5ZM96.65,183.565h-3c-.276,0-.5-.224-.5-.5s.224-.5.5-.5h3c.276,0,.5.224.5.5s-.224.5-.5.5ZM90.65,183.565h-3c-.276,0-.5-.224-.5-.5s.224-.5.5-.5h3c.276,0,.5.224.5.5s-.224.5-.5.5ZM84.65,183.565h-3c-.276,0-.5-.224-.5-.5s.224-.5.5-.5h3c.276,0,.5.224.5.5s-.224.5-.5.5ZM78.65,183.565h-3c-.276,0-.5-.224-.5-.5s.224-.5.5-.5h3c.276,0,.5.224.5.5s-.224.5-.5.5ZM72.65,183.565h-3c-.276,0-.5-.224-.5-.5s.224-.5.5-.5h3c.276,0,.5.224.5.5s-.224.5-.5.5ZM66.65,183.565h-3c-.276,0-.5-.224-.5-.5s.224-.5.5-.5h3c.276,0,.5.224.5.5s-.224.5-.5.5ZM60.65,183.565h-3c-.276,0-.5-.224-.5-.5s.224-.5.5-.5h3c.276,0,.5.224.5.5s-.224.5-.5.5ZM54.65,183.565h-3c-.276,0-.5-.224-.5-.5s.224-.5.5-.5h3c.276,0,.5.224.5.5s-.224.5-.5.5ZM48.65,183.565h-3c-.276,0-.5-.224-.5-.5s.224-.5.5-.5h3c.276,0,.5.224.5.5s-.224.5-.5.5ZM42.65,183.565h-3c-.276,0-.5-.224-.5-.5s.224-.5.5-.5h3c.276,0,.5.224.5.5s-.224.5-.5.5ZM37.623,182.593c-.276,0-.5-.224-.5-.5v-3c0-.276.224-.5.5-.5s.5.224.5.5v3c0,.276-.224.5-.5.5ZM126.08,179.996c-.276,0-.5-.224-.5-.5v-3c0-.276.224-.5.5-.5s.5.224.5.5v3c0,.276-.224.5-.5.5ZM37.623,176.593c-.276,0-.5-.224-.5-.5v-3c0-.276.224-.5.5-.5s.5.224.5.5v3c0,.276-.224.5-.5.5ZM126.08,173.996c-.276,0-.5-.224-.5-.5v-3c0-.276.224-.5.5-.5s.5.224.5.5v3c0,.276-.224.5-.5.5ZM37.623,170.593c-.276,0-.5-.224-.5-.5v-3c0-.276.224-.5.5-.5s.5.224.5.5v3c0,.276-.224.5-.5.5ZM126.08,167.996c-.276,0-.5-.224-.5-.5v-3c0-.276.224-.5.5-.5s.5.224.5.5v3c0,.276-.224.5-.5.5ZM37.623,164.593c-.276,0-.5-.224-.5-.5v-3c0-.276.224-.5.5-.5s.5.224.5.5v3c0,.276-.224.5-.5.5ZM126.08,161.996c-.276,0-.5-.224-.5-.5v-3c0-.276.224-.5.5-.5s.5.224.5.5v3c0,.276-.224.5-.5.5ZM37.623,158.593c-.276,0-.5-.224-.5-.5v-3c0-.276.224-.5.5-.5s.5.224.5.5v3c0,.276-.224.5-.5.5ZM126.08,155.996c-.276,0-.5-.224-.5-.5v-3c0-.276.224-.5.5-.5s.5.224.5.5v3c0,.276-.224.5-.5.5ZM37.623,152.593c-.276,0-.5-.224-.5-.5v-1.14c0-.276.224-.5.5-.5h3c.276,0,.5.224.5.5s-.224.5-.5.5h-2.5v.64c0,.276-.224.5-.5.5ZM124.623,151.453h-3c-.276,0-.5-.224-.5-.5s.224-.5.5-.5h3c.276,0,.5.224.5.5s-.224.5-.5.5ZM118.623,151.453h-3c-.276,0-.5-.224-.5-.5s.224-.5.5-.5h3c.276,0,.5.224.5.5s-.224.5-.5.5ZM112.623,151.453h-3c-.276,0-.5-.224-.5-.5s.224-.5.5-.5h3c.276,0,.5.224.5.5s-.224.5-.5.5ZM106.623,151.453h-3c-.276,0-.5-.224-.5-.5s.224-.5.5-.5h3c.276,0,.5.224.5.5s-.224.5-.5.5ZM100.623,151.453h-3c-.276,0-.5-.224-.5-.5s.224-.5.5-.5h3c.276,0,.5.224.5.5s-.224.5-.5.5ZM94.623,151.453h-3c-.276,0-.5-.224-.5-.5s.224-.5.5-.5h3c.276,0,.5.224.5.5s-.224.5-.5.5ZM88.623,151.453h-3c-.276,0-.5-.224-.5-.5s.224-.5.5-.5h3c.276,0,.5.224.5.5s-.224.5-.5.5ZM82.623,151.453h-3c-.276,0-.5-.224-.5-.5s.224-.5.5-.5h3c.276,0,.5.224.5.5s-.224.5-.5.5ZM76.623,151.453h-3c-.276,0-.5-.224-.5-.5s.224-.5.5-.5h3c.276,0,.5.224.5.5s-.224.5-.5.5ZM70.623,151.453h-3c-.276,0-.5-.224-.5-.5s.224-.5.5-.5h3c.276,0,.5.224.5.5s-.224.5-.5.5ZM64.623,151.453h-3c-.276,0-.5-.224-.5-.5s.224-.5.5-.5h3c.276,0,.5.224.5.5s-.224.5-.5.5ZM58.623,151.453h-3c-.276,0-.5-.224-.5-.5s.224-.5.5-.5h3c.276,0,.5.224.5.5s-.224.5-.5.5ZM52.623,151.453h-3c-.276,0-.5-.224-.5-.5s.224-.5.5-.5h3c.276,0,.5.224.5.5s-.224.5-.5.5ZM46.623,151.453h-3c-.276,0-.5-.224-.5-.5s.224-.5.5-.5h3c.276,0,.5.224.5.5s-.224.5-.5.5Z"></path>
    </g>
    <rect id="uuid-332ff655-6cae-4c86-a26f-bc14f26abd85" data-name="rect638" class="uuid-c0621f27-829f-4d52-bdea-c95c94b7cad0" x="37.623" y="212.097" width="88.457" height="32.112"></rect>
    <g id="uuid-b167cb98-eb76-4d37-8966-a25040cc499e" data-name="g670">
      <path id="uuid-1015d68c-ddc6-48cf-adac-9e6332c369e2" data-name="path642" class="uuid-dcd5872f-2d93-4a8f-9c9c-a9c9864eb6ec" d="M56.98,224.739c.015-.369.327-.656.696-.64.347.015.626.293.64.64-.015.369-.327.656-.696.64-.347-.015-.626-.293-.64-.64ZM58.184,231.109h-1.067v-4.747h1.067v4.747Z"></path>
      <path id="uuid-6b0bf7ff-a931-4c43-a8cb-97022b644b87" data-name="path644" class="uuid-dcd5872f-2d93-4a8f-9c9c-a9c9864eb6ec" d="M59.501,226.362h1.067v1.034c.13-.626.666-1.085,1.304-1.119.159.002.317.034.465.095v.939c-.188-.079-.389-.119-.593-.119-.516.004-.981.313-1.185.786v3.126h-1.067l.009-4.742Z"></path>
      <path id="uuid-fa98ee1f-359c-4528-a598-6fcfc50cd594" data-name="path646" class="uuid-dcd5872f-2d93-4a8f-9c9c-a9c9864eb6ec" d="M63.874,227.213h-.957v-.854h.957v-1.304l1.067-.228v1.534h1.328v.854h-1.328v2.408c0,.464.18.644.664.644.22-.003.438-.043.645-.119v.901c-.299.087-.609.131-.92.133-.958,0-1.459-.455-1.459-1.327l.004-2.642Z"></path>
      <path id="uuid-b2a1f54b-cda9-43ff-8efc-9980948e1675" data-name="path648" class="uuid-dcd5872f-2d93-4a8f-9c9c-a9c9864eb6ec" d="M70.322,227.971v.901h-3.299v-.901h3.299Z"></path>
      <path id="uuid-34cd8b8c-c150-4870-a8eb-73a7b3cce64a" data-name="path650" class="uuid-dcd5872f-2d93-4a8f-9c9c-a9c9864eb6ec" d="M75.015,229.735l.645.644c-.471.531-1.148.833-1.858.83-1.356-.042-2.421-1.176-2.379-2.531.04-1.297,1.082-2.338,2.379-2.379.716-.012,1.404.277,1.897.797l-.664.691c-.297-.352-.733-.556-1.194-.558-.837.089-1.443.839-1.354,1.675.077.725.656,1.294,1.383,1.357.441.007.862-.186,1.145-.525Z"></path>
      <path id="uuid-1b45f7ab-17dd-4dd4-adaf-7c13b49eadea" data-name="path652" class="uuid-dcd5872f-2d93-4a8f-9c9c-a9c9864eb6ec" d="M78.611,226.284c1.359-.041,2.493,1.028,2.533,2.386.041,1.359-1.028,2.493-2.386,2.533-1.359.041-2.493-1.028-2.533-2.386,0-.026-.001-.052-.001-.078-.047-1.309.977-2.407,2.285-2.454.034-.001.068-.002.102-.001ZM79.938,228.749c.114-.733-.387-1.42-1.12-1.534s-1.42.387-1.534,1.12c-.021.137-.021.276,0,.413-.101.733.412,1.409,1.145,1.509s1.409-.412,1.509-1.145c.017-.121.017-.243,0-.364Z"></path>
      <path id="uuid-f05c5614-b763-45f2-a533-c8ddeac26492" data-name="path654" class="uuid-dcd5872f-2d93-4a8f-9c9c-a9c9864eb6ec" d="M82.111,226.362h1.067v.778c.312-.535.888-.861,1.507-.854.882-.025,1.617.671,1.642,1.553.001.048,0,.096-.002.144v3.121h-1.067v-2.825c.063-.561-.341-1.068-.903-1.131-.047-.005-.094-.007-.141-.006-.419,0-.809.214-1.033.569v3.393h-1.067l-.004-4.742Z"></path>
      <path id="uuid-0df57131-9ce8-436f-95b5-3765c4a5500e" data-name="path656" class="uuid-dcd5872f-2d93-4a8f-9c9c-a9c9864eb6ec" d="M88.076,227.213h-.954v-.854h.958v-1.304l1.067-.228v1.534h1.327v.854h-1.327v2.408c0,.464.18.644.664.644.22-.003.438-.043.645-.119v.901c-.299.086-.609.131-.92.133-.958,0-1.459-.455-1.459-1.327v-2.642Z"></path>
      <path id="uuid-0f5d0e48-8119-4813-9ffc-034d45a9c1a0" data-name="path658" class="uuid-dcd5872f-2d93-4a8f-9c9c-a9c9864eb6ec" d="M91.415,226.362h1.067v1.034c.13-.626.666-1.085,1.304-1.119.16.002.318.034.466.095v.939c-.188-.079-.389-.119-.593-.119-.516.004-.981.313-1.185.786v3.126h-1.067l.008-4.742Z"></path>
      <path id="uuid-05accfd6-e516-4cd6-9351-9a007796308b" data-name="path660" class="uuid-dcd5872f-2d93-4a8f-9c9c-a9c9864eb6ec" d="M97.08,226.284c1.359-.04,2.492,1.029,2.532,2.388.04,1.359-1.029,2.492-2.388,2.532-1.359.04-2.492-1.029-2.532-2.388,0-.026-.001-.051-.001-.077-.047-1.309.977-2.407,2.285-2.454.035-.001.069-.002.104-.001ZM98.407,228.749c.112-.733-.391-1.417-1.124-1.529-.733-.112-1.417.391-1.529,1.124-.021.134-.021.271,0,.406-.103.733.407,1.41,1.14,1.513s1.41-.407,1.513-1.14c.017-.124.017-.249,0-.373Z"></path>
      <path id="uuid-3e70fe07-4251-4e3f-9646-11880439660f" data-name="path662" class="uuid-dcd5872f-2d93-4a8f-9c9c-a9c9864eb6ec" d="M101.656,231.104h-1.067v-6.777l1.067-.18v6.958Z"></path>
      <path id="uuid-94d51796-2585-42fc-9836-9b0866e7ca45" data-name="path664" class="uuid-dcd5872f-2d93-4a8f-9c9c-a9c9864eb6ec" d="M104.046,231.104h-1.067v-6.777l1.067-.18v6.958Z"></path>
      <path id="uuid-a955a6a8-2b42-4093-a10e-eb09d2e53b6c" data-name="path666" class="uuid-dcd5872f-2d93-4a8f-9c9c-a9c9864eb6ec" d="M107.564,231.204c-1.334.002-2.416-1.078-2.418-2.412,0-.018,0-.035,0-.053-.064-1.29.93-2.388,2.22-2.452.031-.002.062-.002.093-.003,1.259.015,2.267,1.048,2.252,2.307,0,.046-.003.093-.006.139v.266h-3.508c.077.731.688,1.288,1.423,1.298.421.012.828-.149,1.127-.446l.702.654c-.517.464-1.191.715-1.886.702ZM106.218,228.341h2.48c-.059-.65-.589-1.157-1.241-1.185-.657.017-1.193.53-1.239,1.185Z"></path>
      <path id="uuid-7e6aef8e-d35d-4387-bbc6-785ff5c54fab" data-name="path668" class="uuid-dcd5872f-2d93-4a8f-9c9c-a9c9864eb6ec" d="M110.8,226.362h1.067v1.034c.13-.626.666-1.085,1.304-1.119.16.002.318.034.466.095v.939c-.188-.079-.389-.119-.593-.119-.516.004-.981.313-1.185.786v3.126h-1.067l.008-4.742Z"></path>
      <path id="uuid-6e55656e-c218-4814-9a28-5c790b24f405" data-name="path868" class="uuid-dcd5872f-2d93-4a8f-9c9c-a9c9864eb6ec" d="M51.604,226.355h1.165l1.317,3.469,1.318-3.469h1.129l-1.954,4.749h-1.033l-1.943-4.749Z"></path>
    </g>
    <g id="uuid-dda6f55f-f85a-4ae9-bc38-b971df9d0131" data-name="g710">
      <line id="uuid-5e701c90-a6d4-49e0-a7a0-7dc3ab857eb4" data-name="line704" class="uuid-ea547d38-f1a3-4e1c-9b31-e5832941b470" x1="81.852" y1="187.85" x2="81.852" y2="207.673"></line>
      <polygon id="uuid-edeac5ad-6e16-44df-b916-7fbc6f9bd807" data-name="polygon706" class="uuid-97854497-a71e-4e64-92d9-fa57dfa945a0" points="78.526 188.823 81.852 183.065 85.176 188.823 78.526 188.823"></polygon>
      <polygon id="uuid-9fef029a-ad27-4b76-8491-69c71fd6fe27" data-name="polygon708" class="uuid-97854497-a71e-4e64-92d9-fa57dfa945a0" points="78.526 206.7 81.852 212.458 85.176 206.7 78.526 206.7"></polygon>
    </g>
  </g>
  <g id="uuid-173f41ab-b09d-4d96-ba33-a899710e0e0b" data-name="g718">
    <line id="uuid-93c20503-d451-4e0e-b525-c4f429ecdce0" data-name="line714" class="uuid-ea547d38-f1a3-4e1c-9b31-e5832941b470" x1="81.852" y1="92.136" x2="81.852" y2="144.842"></line>
    <polygon id="uuid-db46de5b-5d66-4b3e-850c-68c15d2ccda9" data-name="polygon716" class="uuid-97854497-a71e-4e64-92d9-fa57dfa945a0" points="78.526 143.87 81.852 149.628 85.176 143.87 78.526 143.87"></polygon>
  </g>
  <rect id="uuid-bfab13ab-b93a-4ff2-8b3e-c86627b2aa9a" data-name="rect720" class="uuid-9dccd95f-8889-4889-aa48-3014d72099a7" x="200.651" y="117.72" width="116.782" height="202.986"></rect>
  <rect id="uuid-00460639-1f5d-46a7-b9e8-b7cb3baae4b0" data-name="rect722" class="uuid-9dccd95f-8889-4889-aa48-3014d72099a7" x="325.732" y="117.72" width="116.782" height="202.986"></rect>
  <rect id="uuid-292b3a8b-23f0-4ed5-a66e-76a986744ad1" data-name="rect724" class="uuid-9dccd95f-8889-4889-aa48-3014d72099a7" x="450.812" y="117.72" width="116.782" height="202.986"></rect>
  <g id="uuid-8fd0c683-ccf9-4d5b-90f0-5835016142bb" data-name="g732">
    <rect id="uuid-211b4880-9f46-4bf5-aabb-a4f8d68b3d4c" data-name="rect726" class="uuid-fbb5f811-1393-4a3d-a5ab-cc240dda5d35" x="464.975" y="150.953" width="88.457" height="32.112"></rect>
    <rect id="uuid-2d263c7a-5532-4aae-a85a-3d170655d6ab" data-name="rect728" class="uuid-fbb5f811-1393-4a3d-a5ab-cc240dda5d35" x="464.975" y="212.097" width="88.457" height="32.112"></rect>
    <rect id="uuid-db76bbe4-bddf-44e4-889a-9d127b9ea06c" data-name="rect730" class="uuid-fbb5f811-1393-4a3d-a5ab-cc240dda5d35" x="464.975" y="273.241" width="88.457" height="32.112"></rect>
  </g>
  <rect id="uuid-b44f0ce7-56a0-409a-9d75-eb62f4bb7762" data-name="rect734" class="uuid-c0621f27-829f-4d52-bdea-c95c94b7cad0" x="339.894" y="150.953" width="88.457" height="32.112"></rect>
  <rect id="uuid-07ecbe64-c027-460b-b3d5-bb33409aa9ca" data-name="rect736" class="uuid-c0621f27-829f-4d52-bdea-c95c94b7cad0" x="339.894" y="212.097" width="88.457" height="32.112"></rect>
  <rect id="uuid-e8f46d83-15a8-45c3-aff2-964140442606" data-name="rect738" class="uuid-c0621f27-829f-4d52-bdea-c95c94b7cad0" x="214.814" y="150.953" width="88.457" height="32.112"></rect>
  <rect id="uuid-6eaee79d-6d20-409b-9cb2-dbc1de1c920c" data-name="rect740" class="uuid-c0621f27-829f-4d52-bdea-c95c94b7cad0" x="339.894" y="273.241" width="88.457" height="32.112"></rect>
  <g id="uuid-3e983831-6bee-4251-abdf-60b2ebe510f5" data-name="g766">
    <path id="uuid-d5ed319a-29d8-4b8b-a97e-125828c5e17b" data-name="path744" class="uuid-dcd5872f-2d93-4a8f-9c9c-a9c9864eb6ec" d="M238.877,163.595c.015-.369.327-.656.696-.64.347.015.626.293.64.64-.015.369-.327.656-.696.64-.347-.015-.626-.293-.64-.64ZM240.08,169.965h-1.067v-4.749h1.067v4.749Z"></path>
    <path id="uuid-758d141c-bd74-4a98-8e1c-c602cba9894c" data-name="path746" class="uuid-dcd5872f-2d93-4a8f-9c9c-a9c9864eb6ec" d="M241.398,165.216h1.067v1.034c.13-.625.666-1.085,1.304-1.118.16.002.317.034.465.095v.938c-.188-.079-.389-.119-.593-.119-.516.005-.981.313-1.185.787v3.127h-1.067l.009-4.744Z"></path>
    <path id="uuid-692e3a53-2890-469f-837c-d87ee245c7c4" data-name="path748" class="uuid-dcd5872f-2d93-4a8f-9c9c-a9c9864eb6ec" d="M245.769,166.069h-.956v-.854h.956v-1.304l1.067-.228v1.535h1.328v.854h-1.328v2.408c0,.464.18.645.664.645.22-.004.438-.044.645-.119v.9c-.299.087-.609.131-.92.133-.958,0-1.46-.455-1.46-1.327l.005-2.644Z"></path>
    <path id="uuid-028210eb-c8e3-49e5-99c4-5a6b672906b1" data-name="path750" class="uuid-dcd5872f-2d93-4a8f-9c9c-a9c9864eb6ec" d="M252.218,166.828v.9h-3.299v-.9h3.299Z"></path>
    <path id="uuid-faf3f395-4721-473f-b1c2-e36b80f4f773" data-name="path752" class="uuid-dcd5872f-2d93-4a8f-9c9c-a9c9864eb6ec" d="M253.424,163.187l1.067-.179v2.985c.312-.535.888-.861,1.507-.854.883-.024,1.618.672,1.642,1.555.001.047,0,.095-.002.142v3.127h-1.067v-2.825c.063-.561-.341-1.068-.902-1.131-.047-.005-.094-.007-.141-.006-.419-.001-.81.214-1.033.569v3.393h-1.067l-.004-6.777Z"></path>
    <path id="uuid-0181806f-4ac9-474e-9f54-0ca3be1a91e7" data-name="path754" class="uuid-dcd5872f-2d93-4a8f-9c9c-a9c9864eb6ec" d="M258.706,168.6c0-.854.691-1.393,1.81-1.393.443,0,.881.101,1.28.294v-.522c0-.626-.356-.948-1.091-.948-.483.02-.955.146-1.383.37l-.381-.778c.613-.307,1.287-.473,1.973-.484,1.233,0,1.943.626,1.943,1.726v3.099h-1.061v-.482c-.379.366-.887.567-1.413.558-.82.101-1.566-.483-1.667-1.303-.006-.046-.009-.091-.01-.137ZM260.678,169.291c.408.01.805-.128,1.119-.388v-.778c-.344-.16-.721-.238-1.1-.228-.607,0-.985.266-.985.683,0,.436.378.71.964.71h.002Z"></path>
    <path id="uuid-1e9e425f-3583-474c-ae3a-f528957b96d9" data-name="path756" class="uuid-dcd5872f-2d93-4a8f-9c9c-a9c9864eb6ec" d="M264.159,165.216h1.067v.778c.313-.535.888-.861,1.508-.854.882-.024,1.617.672,1.641,1.554.001.048,0,.096-.003.144v3.127h-1.067v-2.825c.063-.561-.341-1.068-.902-1.131-.047-.005-.094-.007-.141-.006-.419,0-.809.214-1.033.569v3.393h-1.067l-.004-4.749Z"></path>
    <path id="uuid-f23f83de-0460-45bc-a204-bf63a7b27e7a" data-name="path758" class="uuid-dcd5872f-2d93-4a8f-9c9c-a9c9864eb6ec" d="M273.071,169.33c-.354.441-.893.692-1.458.682-1.333-.153-2.289-1.357-2.137-2.69.131-1.147,1.053-2.043,2.203-2.143.53-.004,1.036.224,1.383.625v-2.616l1.067-.179v6.956h-1.067l.008-.634ZM271.934,169.112c.436.008.852-.184,1.129-.522v-2c-.283-.328-.695-.516-1.129-.512-.838.062-1.467.791-1.405,1.629.056.752.653,1.349,1.405,1.405Z"></path>
    <path id="uuid-2815de02-abad-4413-ab5e-02c7a427fdcc" data-name="path760" class="uuid-dcd5872f-2d93-4a8f-9c9c-a9c9864eb6ec" d="M276.534,169.965h-1.067v-6.777l1.067-.179v6.956Z"></path>
    <path id="uuid-7e263474-8517-444b-83aa-8c324f1e66ad" data-name="path762" class="uuid-dcd5872f-2d93-4a8f-9c9c-a9c9864eb6ec" d="M280.052,170.059c-1.333.002-2.415-1.078-2.417-2.411,0-.018,0-.036,0-.054-.064-1.29.93-2.388,2.22-2.452.031-.002.061-.002.092-.003,1.259.012,2.27,1.042,2.258,2.301,0,.048-.002.097-.006.145v.266h-3.508c.075.733.686,1.293,1.423,1.304.421.012.829-.149,1.129-.446l.702.654c-.52.463-1.197.712-1.893.696ZM278.706,167.198h2.478c-.059-.651-.59-1.157-1.242-1.185-.655.019-1.189.532-1.235,1.185Z"></path>
    <path id="uuid-78e3d1eb-2893-4d1b-9a83-d0d770a795c0" data-name="path764" class="uuid-dcd5872f-2d93-4a8f-9c9c-a9c9864eb6ec" d="M283.288,165.216h1.067v1.034c.13-.625.666-1.085,1.304-1.118.16.002.317.034.465.095v.938c-.188-.079-.389-.119-.593-.119-.516.005-.981.313-1.185.787v3.127h-1.067l.009-4.744Z"></path>
  </g>
  <g id="uuid-e8e99512-4c3a-4ff2-bba6-debdee32ae65" data-name="g794">
    <path id="uuid-d55eb866-af0c-4c49-8eac-24e892d0d3a6" data-name="path770" class="uuid-dcd5872f-2d93-4a8f-9c9c-a9c9864eb6ec" d="M361.632,163.595c.015-.369.327-.656.696-.64.347.015.626.293.64.64-.015.369-.327.656-.696.64-.347-.015-.626-.293-.64-.64ZM362.837,169.965h-1.067v-4.749h1.067v4.749Z"></path>
    <path id="uuid-e92e59c6-d49d-4e82-a5c9-037bb2c62a3a" data-name="path772" class="uuid-dcd5872f-2d93-4a8f-9c9c-a9c9864eb6ec" d="M364.154,165.216h1.073v1.034c.13-.626.666-1.085,1.304-1.118.16.002.318.034.466.095v.938c-.188-.079-.389-.119-.593-.119-.516.005-.981.313-1.185.787v3.127h-1.073l.008-4.744Z"></path>
    <path id="uuid-077d56c3-0766-47cb-924f-bedb900f456d" data-name="path774" class="uuid-dcd5872f-2d93-4a8f-9c9c-a9c9864eb6ec" d="M368.526,166.069h-.957v-.854h.957v-1.304l1.067-.228v1.535h1.331v.854h-1.327v2.408c0,.464.18.645.664.645.22-.004.438-.044.645-.119v.9c-.299.087-.609.131-.921.133-.957,0-1.459-.455-1.459-1.327v-2.644Z"></path>
    <path id="uuid-693846b3-5719-4b6d-82ed-134bc558ece9" data-name="path776" class="uuid-dcd5872f-2d93-4a8f-9c9c-a9c9864eb6ec" d="M374.974,166.828v.9h-3.298v-.9h3.298Z"></path>
    <path id="uuid-258b162a-f5f2-4712-9398-a0ce3fabef58" data-name="path778" class="uuid-dcd5872f-2d93-4a8f-9c9c-a9c9864eb6ec" d="M377.251,169.965h-1.067v-6.777l1.067-.179v6.956Z"></path>
    <path id="uuid-8058cbb9-dd15-4cd2-ab24-0db6211169ea" data-name="path780" class="uuid-dcd5872f-2d93-4a8f-9c9c-a9c9864eb6ec" d="M378.333,168.6c0-.854.691-1.393,1.81-1.393.443,0,.881.101,1.28.294v-.522c0-.626-.356-.948-1.091-.948-.483.02-.955.146-1.383.37l-.379-.778c.612-.307,1.286-.473,1.971-.484,1.233,0,1.943.626,1.943,1.726v3.099h-1.067v-.482c-.379.366-.887.567-1.413.558-.821.097-1.565-.491-1.662-1.312-.005-.043-.008-.085-.01-.128ZM380.305,169.291c.408.01.805-.128,1.119-.388v-.778c-.344-.16-.721-.238-1.1-.228-.607,0-.985.266-.985.683.002.436.378.71.966.71h0Z"></path>
    <path id="uuid-8b5c81ac-2564-43d2-9596-d4513a045b74" data-name="path782" class="uuid-dcd5872f-2d93-4a8f-9c9c-a9c9864eb6ec" d="M384.781,168.037c-.063.562.342,1.069.904,1.132.046.005.093.007.14.006.429.003.827-.223,1.043-.593v-3.367h1.067v4.749h-1.067v-.786c-.315.538-.894.867-1.517.862-.879.028-1.614-.662-1.642-1.54-.002-.052,0-.104.003-.156v-3.128h1.067l.004,2.821Z"></path>
    <path id="uuid-af17c1e5-07ef-44e2-84c0-5aa287f3e7bc" data-name="path784" class="uuid-dcd5872f-2d93-4a8f-9c9c-a9c9864eb6ec" d="M389.257,165.216h1.067v.778c.312-.535.887-.861,1.506-.854.883-.025,1.619.671,1.643,1.554.001.048,0,.096-.002.144v3.127h-1.067v-2.825c.063-.561-.341-1.068-.902-1.131-.047-.005-.094-.007-.141-.006-.419-.001-.81.214-1.033.569v3.393h-1.067l-.004-4.749Z"></path>
    <path id="uuid-7f95b6bd-7e34-4b02-af2c-68c826fa9dac" data-name="path786" class="uuid-dcd5872f-2d93-4a8f-9c9c-a9c9864eb6ec" d="M398.171,168.591l.645.645c-.473.528-1.15.828-1.859.824-1.356-.042-2.421-1.176-2.379-2.531.04-1.297,1.082-2.338,2.379-2.379.716-.012,1.404.277,1.897.797l-.664.692c-.296-.353-.732-.557-1.193-.56-.837.085-1.447.832-1.362,1.669.074.73.658,1.303,1.389,1.364.441.008.863-.183,1.146-.522Z"></path>
    <path id="uuid-4d97282f-5c36-4b5a-9f46-e558c1cc7ffc" data-name="path788" class="uuid-dcd5872f-2d93-4a8f-9c9c-a9c9864eb6ec" d="M399.737,163.187l1.067-.179v2.985c.313-.534.888-.86,1.507-.854.883-.025,1.619.671,1.643,1.554.001.048,0,.096-.002.144v3.127h-1.067v-2.825c.064-.561-.339-1.067-.9-1.131-.048-.005-.095-.007-.143-.006-.419,0-.809.214-1.033.569v3.393h-1.067l-.005-6.777Z"></path>
    <path id="uuid-cc51dc56-5513-4632-981d-d5b9faf7e351" data-name="path790" class="uuid-dcd5872f-2d93-4a8f-9c9c-a9c9864eb6ec" d="M407.456,170.059c-1.332.002-2.414-1.076-2.417-2.408,0-.019,0-.038,0-.056-.064-1.29.93-2.388,2.22-2.452.031-.002.061-.002.092-.003,1.259.015,2.267,1.048,2.252,2.307,0,.046-.003.093-.006.139v.266h-3.508c.075.733.686,1.293,1.423,1.304.421.012.829-.149,1.129-.446l.702.654c-.519.462-1.193.71-1.887.696ZM406.11,167.198h2.474c-.059-.651-.59-1.157-1.242-1.185-.654.021-1.186.533-1.232,1.185Z"></path>
    <path id="uuid-042d52a0-0a05-4a8f-acab-af6c68ba1335" data-name="path792" class="uuid-dcd5872f-2d93-4a8f-9c9c-a9c9864eb6ec" d="M410.691,165.216h1.067v1.034c.13-.626.666-1.085,1.304-1.118.16.002.317.034.465.095v.938c-.188-.079-.389-.119-.593-.119-.516.005-.981.313-1.185.787v3.127h-1.067l.009-4.744Z"></path>
  </g>
  <g id="uuid-f50c7f54-edb2-42ce-b47f-add05576d0e9" data-name="g816">
    <path id="uuid-fe0604ac-764a-4b67-b8ce-ae7d15f24484" data-name="path796" class="uuid-dcd5872f-2d93-4a8f-9c9c-a9c9864eb6ec" d="M490.252,168.173l.748.721c-1.25,1.406-3.402,1.533-4.808.283-1.406-1.25-1.533-3.402-.283-4.808,1.25-1.406,3.402-1.533,4.808-.283.111.098.215.204.311.315l-.768.759c-.852-.968-2.327-1.061-3.294-.209-.968.852-1.061,2.327-.209,3.294.437.496,1.064.784,1.726.792.691,0,1.344-.319,1.77-.863Z"></path>
    <path id="uuid-5cc47f21-fddf-4df8-aaaa-e5505150ac32" data-name="path798" class="uuid-dcd5872f-2d93-4a8f-9c9c-a9c9864eb6ec" d="M494.076,165.14c1.359-.041,2.493,1.028,2.533,2.386.041,1.359-1.028,2.493-2.386,2.533-1.359.041-2.493-1.028-2.533-2.386,0-.026-.001-.052-.001-.078-.047-1.309.977-2.407,2.285-2.454.034-.001.068-.002.102-.001ZM495.402,167.606c.112-.733-.391-1.417-1.124-1.529-.733-.112-1.417.391-1.529,1.124-.021.134-.021.271,0,.406-.103.733.407,1.41,1.14,1.513.733.103,1.41-.407,1.513-1.14.017-.124.017-.249,0-.373Z"></path>
    <path id="uuid-da048ba8-0535-49ba-a47c-183e719ba6dc" data-name="path800" class="uuid-dcd5872f-2d93-4a8f-9c9c-a9c9864eb6ec" d="M497.575,165.216h1.067v.778c.312-.535.887-.861,1.506-.854.883-.025,1.619.671,1.643,1.554.001.048,0,.096-.002.144v3.127h-1.067v-2.825c.063-.561-.341-1.068-.902-1.131-.047-.005-.094-.007-.141-.006-.419-.001-.81.214-1.033.569v3.393h-1.067l-.004-4.749Z"></path>
    <path id="uuid-0497dc0a-8ecc-46e7-a62e-149a1ea61b41" data-name="path802" class="uuid-dcd5872f-2d93-4a8f-9c9c-a9c9864eb6ec" d="M503.542,166.069h-.958v-.854h.958v-1.304l1.067-.228v1.535h1.327v.854h-1.327v2.408c0,.464.18.645.663.645.22-.004.438-.044.645-.119v.9c-.299.087-.608.131-.919.133-.958,0-1.459-.455-1.459-1.327l.004-2.644Z"></path>
    <path id="uuid-b8fa69fc-5182-4274-aa61-19a78c106b5f" data-name="path804" class="uuid-dcd5872f-2d93-4a8f-9c9c-a9c9864eb6ec" d="M506.643,168.6c0-.854.691-1.393,1.809-1.393.443,0,.881.101,1.28.294v-.522c0-.626-.356-.948-1.091-.948-.483.02-.955.146-1.383.37l-.379-.778c.612-.307,1.286-.473,1.971-.484,1.233,0,1.944.626,1.944,1.726v3.099h-1.067v-.482c-.378.366-.886.567-1.412.558-.82.098-1.565-.488-1.663-1.308-.005-.044-.009-.088-.01-.132ZM508.614,169.291c.407.009.804-.128,1.118-.388v-.778c-.344-.16-.721-.238-1.1-.228-.606,0-.985.266-.985.683,0,.436.379.71.967.71h0Z"></path>
    <path id="uuid-e08892db-86f5-4709-acae-e56081ab9064" data-name="path806" class="uuid-dcd5872f-2d93-4a8f-9c9c-a9c9864eb6ec" d="M511.963,163.595c.015-.369.327-.656.696-.64.347.015.626.293.64.64-.015.369-.327.656-.696.64-.347-.015-.626-.293-.64-.64ZM513.168,169.965h-1.067v-4.749h1.067v4.749Z"></path>
    <path id="uuid-8247ec4d-8c05-4857-ad62-b18d528c6d33" data-name="path808" class="uuid-dcd5872f-2d93-4a8f-9c9c-a9c9864eb6ec" d="M514.485,165.216h1.067v.778c.313-.534.888-.86,1.507-.854.883-.025,1.619.671,1.643,1.554.001.048,0,.096-.002.144v3.127h-1.067v-2.825c.064-.561-.339-1.067-.9-1.131-.048-.005-.095-.007-.143-.006-.419,0-.809.214-1.033.569v3.393h-1.072v-4.749Z"></path>
    <path id="uuid-46debab3-9d9a-4788-9496-1c4d225775d4" data-name="path810" class="uuid-dcd5872f-2d93-4a8f-9c9c-a9c9864eb6ec" d="M522.205,170.059c-1.333.002-2.415-1.077-2.418-2.41,0-.018,0-.037,0-.055-.064-1.29.93-2.388,2.22-2.452.031-.002.062-.002.093-.003,1.259.016,2.267,1.049,2.251,2.308,0,.046-.003.092-.006.138v.266h-3.507c.075.733.686,1.293,1.423,1.304.421.012.828-.149,1.127-.446l.702.654c-.518.462-1.192.71-1.886.696ZM520.858,167.198h2.474c-.059-.65-.589-1.157-1.241-1.185-.654.021-1.186.533-1.233,1.185h0Z"></path>
    <path id="uuid-8b125adc-948e-4f4d-adc3-a56e34c1205a" data-name="path812" class="uuid-dcd5872f-2d93-4a8f-9c9c-a9c9864eb6ec" d="M525.438,165.216h1.067v1.034c.13-.626.666-1.085,1.304-1.118.16.002.318.034.466.095v.938c-.188-.079-.389-.119-.593-.119-.516.005-.981.313-1.185.787v3.127h-1.067l.008-4.744Z"></path>
    <path id="uuid-f4c356d1-376f-458c-bd5f-a2168a92df09" data-name="path814" class="uuid-dcd5872f-2d93-4a8f-9c9c-a9c9864eb6ec" d="M533.195,169.965h-1.034v-5.554l-1.175.512v-.916l1.554-.673h.654v6.632Z"></path>
  </g>
  <g id="uuid-b32149f2-4a8b-4709-bbc9-7c79ce6e2f8d" data-name="g838">
    <path id="uuid-7fb9bd06-3443-4be9-b418-9dd50ad91c5e" data-name="path818" class="uuid-dcd5872f-2d93-4a8f-9c9c-a9c9864eb6ec" d="M489.17,228.907l.749.721c-1.25,1.405-3.402,1.531-4.807.281-1.405-1.25-1.531-3.402-.281-4.807,1.25-1.405,3.402-1.531,4.807-.281.11.098.213.203.31.314l-.768.759c-.852-.968-2.327-1.061-3.294-.209-.968.852-1.061,2.327-.209,3.294.437.496,1.064.784,1.726.792.691-.001,1.343-.319,1.769-.863Z"></path>
    <path id="uuid-89b1f03e-c964-48ef-a12f-df3b9dd7d8a9" data-name="path820" class="uuid-dcd5872f-2d93-4a8f-9c9c-a9c9864eb6ec" d="M492.994,225.875c1.359-.04,2.492,1.029,2.532,2.388.04,1.359-1.029,2.492-2.388,2.532s-2.492-1.029-2.532-2.388c0-.026-.001-.051-.001-.077-.047-1.309.977-2.407,2.285-2.454.035-.001.069-.002.104-.001ZM494.321,228.34c.112-.733-.391-1.417-1.124-1.529-.733-.112-1.417.391-1.529,1.124-.021.134-.021.271,0,.406-.103.733.407,1.41,1.14,1.513.733.103,1.41-.407,1.513-1.14.017-.124.017-.249,0-.373Z"></path>
    <path id="uuid-e069b435-60c7-4b1d-a048-6c0f22ffce11" data-name="path822" class="uuid-dcd5872f-2d93-4a8f-9c9c-a9c9864eb6ec" d="M496.494,225.951h1.073v.778c.312-.535.887-.861,1.506-.854.883-.025,1.619.671,1.643,1.554.001.047,0,.095-.002.142v3.128h-1.067v-2.825c.064-.561-.338-1.067-.899-1.132-.048-.005-.096-.008-.143-.006-.419-.001-.81.214-1.033.569v3.394h-1.073l-.005-4.749Z"></path>
    <path id="uuid-5bad600a-246d-46c8-aff3-b51669182869" data-name="path824" class="uuid-dcd5872f-2d93-4a8f-9c9c-a9c9864eb6ec" d="M502.459,226.804h-.957v-.854h.957v-1.304l1.067-.228v1.541h1.327v.854h-1.322v2.407c0,.465.18.645.663.645.22-.003.438-.043.645-.119v.901c-.299.087-.608.131-.919.133-.958,0-1.46-.455-1.46-1.327v-2.65Z"></path>
    <path id="uuid-76f21709-f77e-4a06-b07e-7c60251bc534" data-name="path826" class="uuid-dcd5872f-2d93-4a8f-9c9c-a9c9864eb6ec" d="M505.562,229.334c0-.852.691-1.393,1.809-1.393.443,0,.881.101,1.28.294v-.522c0-.626-.356-.948-1.091-.948-.483.021-.955.147-1.383.37l-.379-.776c.612-.307,1.286-.473,1.971-.484,1.233,0,1.944.626,1.944,1.725v3.1h-1.067v-.484c-.378.367-.886.568-1.412.56-.821.097-1.566-.489-1.663-1.311-.005-.043-.008-.087-.01-.131ZM507.533,230.027c.407.009.804-.129,1.118-.389v-.778c-.344-.159-.721-.236-1.1-.226-.606,0-.985.266-.985.682,0,.436.379.711.967.711h0Z"></path>
    <path id="uuid-9b5ad3b0-6e4f-4397-bb1d-4c0570b62772" data-name="path828" class="uuid-dcd5872f-2d93-4a8f-9c9c-a9c9864eb6ec" d="M510.882,224.33c.015-.369.327-.656.696-.64.347.015.626.293.64.64-.015.369-.327.656-.696.64-.347-.015-.626-.293-.64-.64ZM512.086,230.7h-1.067v-4.749h1.067v4.749Z"></path>
    <path id="uuid-7c25bb8a-e664-42bc-9200-6b69c0c26a70" data-name="path830" class="uuid-dcd5872f-2d93-4a8f-9c9c-a9c9864eb6ec" d="M513.404,225.951h1.067v.778c.313-.534.888-.86,1.507-.854.882-.025,1.617.671,1.642,1.553.001.048,0,.096-.002.144v3.128h-1.067v-2.825c.064-.561-.34-1.068-.901-1.132-.047-.005-.095-.007-.142-.006-.419,0-.809.214-1.033.569v3.394h-1.067l-.004-4.749Z"></path>
    <path id="uuid-2f5761e9-cc4c-4a61-8f09-16ea3069f568" data-name="path832" class="uuid-dcd5872f-2d93-4a8f-9c9c-a9c9864eb6ec" d="M521.123,230.795c-1.333.002-2.415-1.077-2.418-2.41,0-.018,0-.037,0-.055-.065-1.289.928-2.387,2.217-2.452.032-.002.064-.003.096-.003,1.259.016,2.267,1.049,2.251,2.308,0,.046-.003.092-.006.138v.264h-3.507c.075.733.686,1.293,1.423,1.304.421.012.829-.149,1.129-.446l.701.654c-.518.463-1.192.712-1.886.697ZM519.777,227.932h2.474c-.059-.65-.589-1.157-1.241-1.185-.654.02-1.187.533-1.233,1.185Z"></path>
    <path id="uuid-f6d242f2-3e09-4779-9c71-3e1b71649899" data-name="path834" class="uuid-dcd5872f-2d93-4a8f-9c9c-a9c9864eb6ec" d="M524.357,225.951h1.067v1.033c.131-.625.666-1.084,1.304-1.118.16.002.318.034.466.095v.939c-.188-.079-.389-.119-.593-.119-.516.005-.981.313-1.185.787v3.128h-1.067l.008-4.745Z"></path>
    <path id="uuid-7837ac31-09e7-4b15-bd4f-759c6c172e4d" data-name="path836" class="uuid-dcd5872f-2d93-4a8f-9c9c-a9c9864eb6ec" d="M530.038,229.951l2.721-2.845c.377-.311.61-.763.644-1.251-.054-.595-.579-1.033-1.174-.98-.013.001-.026.003-.039.004-.66.023-1.281.317-1.717.814l-.593-.711c.616-.627,1.453-.987,2.332-1.004,1.304,0,2.19.739,2.19,1.81-.037.723-.382,1.396-.948,1.848l-2.123,2.19,3.195-.019v.891h-4.493l.006-.748Z"></path>
  </g>
  <g id="uuid-8e87d68a-2a0e-4571-84e5-e79d4518bab6" data-name="g860">
    <path id="uuid-a7747504-df61-4ef6-a5bb-34f6274e36dc" data-name="path840" class="uuid-dcd5872f-2d93-4a8f-9c9c-a9c9864eb6ec" d="M489.167,290.052l.748.721c-1.25,1.406-3.402,1.533-4.808.283-1.406-1.25-1.533-3.402-.283-4.808,1.25-1.406,3.402-1.533,4.808-.283.111.098.215.204.311.315l-.768.759c-.852-.968-2.327-1.061-3.294-.209-.968.852-1.061,2.327-.209,3.294.437.496,1.064.784,1.726.792.691,0,1.344-.319,1.77-.863Z"></path>
    <path id="uuid-5431a5c0-3942-47da-a4b4-b94f0feb9b4e" data-name="path842" class="uuid-dcd5872f-2d93-4a8f-9c9c-a9c9864eb6ec" d="M492.99,287.019c1.358-.04,2.491,1.028,2.531,2.386.04,1.358-1.029,2.491-2.386,2.531-1.358.04-2.491-1.028-2.531-2.386,0-.026-.001-.051-.001-.077-.046-1.309.978-2.407,2.286-2.453.034-.001.067-.002.101-.001ZM494.316,289.484c.112-.733-.391-1.417-1.124-1.529-.733-.112-1.417.391-1.529,1.124-.021.134-.021.271,0,.406-.103.733.407,1.41,1.14,1.513.733.103,1.41-.407,1.513-1.14.017-.124.017-.249,0-.373Z"></path>
    <path id="uuid-36792f21-0d35-410c-b55d-9506934fabe4" data-name="path844" class="uuid-dcd5872f-2d93-4a8f-9c9c-a9c9864eb6ec" d="M496.489,287.094h1.067v.778c.312-.534.887-.859,1.506-.852.882-.025,1.618.669,1.643,1.552.001.048,0,.097-.002.145v3.127h-1.067v-2.824c.064-.561-.34-1.068-.901-1.132-.047-.005-.095-.007-.142-.006-.419-.001-.81.214-1.033.569v3.393h-1.067l-.004-4.749Z"></path>
    <path id="uuid-49a52acc-bb60-48f3-a236-5d3e38e24935" data-name="path846" class="uuid-dcd5872f-2d93-4a8f-9c9c-a9c9864eb6ec" d="M502.456,287.947h-.958v-.854h.958v-1.304l1.067-.228v1.535h1.327v.854h-1.327v2.408c0,.465.18.645.663.645.22-.004.438-.044.645-.119v.9c-.299.087-.608.131-.919.133-.958,0-1.459-.454-1.459-1.327l.004-2.644Z"></path>
    <path id="uuid-f989933f-0c3e-45ad-b840-90a25b01a4cc" data-name="path848" class="uuid-dcd5872f-2d93-4a8f-9c9c-a9c9864eb6ec" d="M505.557,290.478c0-.854.691-1.393,1.809-1.393.443,0,.881.101,1.28.294v-.522c0-.626-.356-.948-1.091-.948-.483.02-.955.146-1.383.37l-.379-.778c.613-.307,1.286-.472,1.971-.482,1.233,0,1.944.625,1.944,1.725v3.099h-1.067v-.482c-.378.366-.886.567-1.412.558-.82.098-1.565-.488-1.663-1.308-.005-.044-.009-.088-.01-.132ZM507.528,291.17c.407.009.804-.128,1.118-.388v-.778c-.344-.16-.721-.238-1.1-.228-.606,0-.985.266-.985.683,0,.436.379.71.967.71Z"></path>
    <path id="uuid-1fc4db84-2e38-4575-9f86-01847469b89d" data-name="path850" class="uuid-dcd5872f-2d93-4a8f-9c9c-a9c9864eb6ec" d="M510.877,285.473c.015-.369.327-.656.696-.64.347.015.626.293.64.64-.015.369-.327.656-.696.64-.347-.015-.626-.293-.64-.64ZM512.082,291.843h-1.067v-4.749h1.067v4.749Z"></path>
    <path id="uuid-8e9936a5-9ff8-404f-8821-00eeffbb8a76" data-name="path852" class="uuid-dcd5872f-2d93-4a8f-9c9c-a9c9864eb6ec" d="M513.399,287.094h1.067v.778c.313-.534.888-.859,1.507-.852.882-.025,1.618.669,1.643,1.552.001.048,0,.097-.002.145v3.127h-1.067v-2.824c.064-.561-.34-1.068-.901-1.132-.047-.005-.095-.007-.142-.006-.419,0-.809.214-1.033.569v3.393h-1.067l-.005-4.749Z"></path>
    <path id="uuid-49dd4aff-f142-47aa-895f-882aa803893f" data-name="path854" class="uuid-dcd5872f-2d93-4a8f-9c9c-a9c9864eb6ec" d="M521.123,291.938c-1.333.002-2.415-1.077-2.418-2.41,0-.018,0-.037,0-.055-.064-1.29.929-2.387,2.219-2.451.031-.002.063-.002.094-.003,1.258.015,2.266,1.047,2.251,2.305,0,.046-.003.093-.006.139v.266h-3.507c.075.733.686,1.293,1.423,1.304.421.012.828-.149,1.127-.446l.702.654c-.518.462-1.192.71-1.886.696ZM519.772,289.074h2.474c-.059-.65-.589-1.157-1.241-1.185-.654.021-1.186.533-1.233,1.185Z"></path>
    <path id="uuid-449b7d3f-f9c6-4d2e-949b-ff48a094be15" data-name="path856" class="uuid-dcd5872f-2d93-4a8f-9c9c-a9c9864eb6ec" d="M524.353,287.094h1.073v1.034c.13-.626.666-1.085,1.304-1.118.16.002.318.034.466.095v.938c-.188-.079-.389-.119-.593-.119-.516.005-.981.313-1.185.787v3.127h-1.073l.008-4.744Z"></path>
    <path id="uuid-9b3ec5ee-48e5-443d-aa60-7f0121d3af52" data-name="path858" class="uuid-dcd5872f-2d93-4a8f-9c9c-a9c9864eb6ec" d="M530.715,287.094h1.067l-.152.711c.362-.473.92-.756,1.516-.767.732-.049,1.364.505,1.413,1.237.013.192-.016.384-.085.564l-.645,3.004h-1.052l.593-2.757c.16-.711-.172-1.204-.83-1.204-.408.009-.792.196-1.05.512l-.749,3.45h-1.067l1.041-4.749Z"></path>
  </g>
  <g id="uuid-c38f4b40-2775-49e5-b0b7-649f7463f432" data-name="g878">
    <path id="uuid-95eecfb2-545c-42f3-ab28-64af302a881a" data-name="path862" class="uuid-dcd5872f-2d93-4a8f-9c9c-a9c9864eb6ec" d="M370.163,230.7h-1.067v-6.777l1.067-.18v6.958Z"></path>
    <path id="uuid-123b5919-bfdf-4778-bd15-b723923a9c70" data-name="path864" class="uuid-dcd5872f-2d93-4a8f-9c9c-a9c9864eb6ec" d="M371.348,224.33c.002-.369.302-.667.671-.666.367.001.664.299.666.666-.002.369-.302.667-.671.666-.367-.001-.664-.299-.666-.666ZM372.552,230.7h-1.067v-4.749h1.067v4.749Z"></path>
    <path id="uuid-25e3f3e0-969b-4aa3-b1c5-afdfa8b5167e" data-name="path866" class="uuid-dcd5872f-2d93-4a8f-9c9c-a9c9864eb6ec" d="M376.326,230.748c-.545.007-1.063-.238-1.404-.664v.616h-1.052v-6.777l1.067-.18v2.845c.359-.435.896-.682,1.459-.672,1.257.068,2.22,1.141,2.153,2.398,0,.007,0,.013-.001.02.063,1.27-.916,2.35-2.185,2.413-.012,0-.025.001-.037.002ZM374.943,227.345v1.981c.281.336.699.527,1.137.52.838-.062,1.467-.791,1.405-1.629-.056-.752-.653-1.349-1.405-1.405-.442-.013-.864.184-1.137.531h0Z"></path>
    <path id="uuid-e799abbb-1e45-4318-881d-5c8b31a27f83" data-name="path868" class="uuid-dcd5872f-2d93-4a8f-9c9c-a9c9864eb6ec" d="M378.964,225.951h1.165l1.317,3.469,1.318-3.469h1.129l-1.954,4.749h-1.033l-1.943-4.749Z"></path>
    <path id="uuid-9607ee98-5bd9-4301-bb29-d454ef6eaeed" data-name="path870" class="uuid-dcd5872f-2d93-4a8f-9c9c-a9c9864eb6ec" d="M384.531,224.33c.015-.369.327-.656.696-.64.347.015.626.293.64.64-.015.369-.327.656-.696.64-.347-.015-.626-.293-.64-.64ZM385.735,230.7h-1.067v-4.749h1.067v4.749Z"></path>
    <path id="uuid-dd33be72-acd8-42c6-8920-d5fd39edc9b5" data-name="path872" class="uuid-dcd5872f-2d93-4a8f-9c9c-a9c9864eb6ec" d="M387.054,225.951h1.067v1.033c.131-.625.666-1.084,1.304-1.118.159.002.316.034.464.095v.939c-.188-.079-.389-.119-.593-.119-.516.005-.981.313-1.185.787v3.128h-1.067l.011-4.745Z"></path>
    <path id="uuid-7eaafa4f-36f3-49a5-8c01-f9ec763dfefa" data-name="path874" class="uuid-dcd5872f-2d93-4a8f-9c9c-a9c9864eb6ec" d="M391.424,226.804h-.957v-.854h.957v-1.304l1.067-.228v1.541h1.327v.854h-1.318v2.407c0,.465.18.645.663.645.22-.003.438-.043.645-.119v.901c-.299.087-.608.131-.919.133-.958,0-1.46-.455-1.46-1.327l-.004-2.65Z"></path>
    <path id="uuid-0acdd595-e325-4b07-b772-2e7a6a0c674e" data-name="path876" class="uuid-dcd5872f-2d93-4a8f-9c9c-a9c9864eb6ec" d="M398.089,230.064c-.354.442-.892.694-1.458.683-1.333-.156-2.287-1.363-2.131-2.696.134-1.143,1.051-2.036,2.198-2.138.53-.004,1.036.224,1.383.625v-2.615l1.067-.18v6.958h-1.067l.008-.635ZM396.952,229.846c.436.009.852-.183,1.129-.52v-2.001c-.283-.328-.696-.515-1.129-.512-.838.062-1.467.791-1.405,1.629.056.752.653,1.349,1.405,1.405Z"></path>
  </g>
  <g id="uuid-85ae9eff-6fd7-45be-8563-0f19375db2c5" data-name="g884">
    <path id="uuid-a37629b4-230c-4867-99ec-7f9ac6d0e15a" data-name="path880" class="uuid-dcd5872f-2d93-4a8f-9c9c-a9c9864eb6ec" d="M376.653,285.208h1.225l2.037,5.489,2.058-5.489h1.175l-2.597,6.639h-1.318l-2.579-6.639Z"></path>
    <path id="uuid-2d2e4d4f-5476-4c29-9ab3-c16058d18a8e" data-name="path882" class="uuid-dcd5872f-2d93-4a8f-9c9c-a9c9864eb6ec" d="M385.056,286.639v5.204h-1.052v-6.639h1.478l1.943,4.019,1.933-4.019h1.481v6.639h-1.067v-5.176l-2.351,4.702-2.366-4.73Z"></path>
  </g>
  <g id="uuid-9bd750d8-0e98-426b-9722-fdeca2789214" data-name="g958">
    <line id="uuid-067f0a11-f93a-4d09-927b-4bc048a8e694" data-name="line952" class="uuid-ea547d38-f1a3-4e1c-9b31-e5832941b470" x1="335.128" y1="167.009" x2="308.056" y2="167.009"></line>
    <polygon id="uuid-9c9573f3-2bf2-4204-a5e4-4fdf5d561182" data-name="polygon954" class="uuid-97854497-a71e-4e64-92d9-fa57dfa945a0" points="334.155 163.684 339.913 167.009 334.155 170.334 334.155 163.684"></polygon>
    <polygon id="uuid-f355fa7f-2569-4c4a-82f6-a2781d4c9e6c" data-name="polygon956" class="uuid-97854497-a71e-4e64-92d9-fa57dfa945a0" points="309.029 163.684 303.272 167.009 309.029 170.334 309.029 163.684"></polygon>
  </g>
  <g id="uuid-9ecde70e-1997-4585-8938-c58534961969" data-name="g966">
    <line id="uuid-dd7106c9-ae74-437b-ba0a-7b8dd4e5c5d7" data-name="line960" class="uuid-ea547d38-f1a3-4e1c-9b31-e5832941b470" x1="384.123" y1="207.312" x2="384.123" y2="187.814"></line>
    <polygon id="uuid-cc66bbc0-169f-4ab6-a63e-f353ebd2fb9d" data-name="polygon962" class="uuid-97854497-a71e-4e64-92d9-fa57dfa945a0" points="387.448 206.338 384.123 212.096 380.798 206.338 387.448 206.338"></polygon>
    <polygon id="uuid-af0fc4b7-317c-41a6-a1f2-1062147e2e9c" data-name="polygon964" class="uuid-97854497-a71e-4e64-92d9-fa57dfa945a0" points="387.448 188.788 384.123 183.03 380.798 188.788 387.448 188.788"></polygon>
  </g>
  <g id="uuid-3e2c3eb4-c4c4-43f1-834b-e01ab336ee1c" data-name="g974">
    <line id="uuid-6645f004-709d-47d6-bef0-f15f721e2faf" data-name="line968" class="uuid-ea547d38-f1a3-4e1c-9b31-e5832941b470" x1="384.123" y1="268.49" x2="384.123" y2="248.994"></line>
    <polygon id="uuid-d634faa9-f46d-4108-a694-540549bacca2" data-name="polygon970" class="uuid-97854497-a71e-4e64-92d9-fa57dfa945a0" points="387.448 267.518 384.123 273.276 380.798 267.518 387.448 267.518"></polygon>
    <polygon id="uuid-3fdee955-f821-4196-8b4b-4999b0b51085" data-name="polygon972" class="uuid-97854497-a71e-4e64-92d9-fa57dfa945a0" points="387.448 249.966 384.123 244.208 380.798 249.966 387.448 249.966"></polygon>
  </g>
  <g id="uuid-e918c8cf-cd9c-40b3-bb2d-36df264259f4" data-name="g982">
    <polyline id="uuid-b57f0375-b146-4bbd-9371-6da68826de25" data-name="polyline976" class="uuid-5fbfa238-2209-40a9-9db9-72b54344ca10" points="326.904 55.989 119.602 55.989 119.602 146.167"></polyline>
    <polygon id="uuid-7fb16a9e-7959-4ce8-9a5b-6dc8ad7610ef" data-name="polygon978" class="uuid-96e9f795-733b-4e3e-88ff-82bc696ef6c1" points="319.931 52.665 325.689 55.989 319.931 59.314 319.931 52.665"></polygon>
    <polygon id="uuid-41d53f22-6788-4354-bb43-e1905a5ddff9" data-name="polygon980" class="uuid-96e9f795-733b-4e3e-88ff-82bc696ef6c1" points="116.277 145.195 119.602 150.953 122.927 145.195 116.277 145.195"></polygon>
  </g>
  <g id="uuid-109e0076-9efe-4eea-bb01-7bc9b89abf07" data-name="g988">
    <polyline id="uuid-bd682390-a16a-40e7-8b78-6dfa656ccdd8" data-name="polyline984" class="uuid-ea547d38-f1a3-4e1c-9b31-e5832941b470" points="256.862 112.935 256.862 93.326 384.123 93.326 384.123 74.261"></polyline>
    <polygon id="uuid-6933b4ec-d891-4156-b1a0-068c7db75506" data-name="polygon986" class="uuid-97854497-a71e-4e64-92d9-fa57dfa945a0" points="260.187 111.962 256.862 117.72 253.538 111.962 260.187 111.962"></polygon>
  </g>
  <g id="uuid-b9088749-a48b-4bdd-aa37-c58436762387" data-name="g994">
    <polyline id="uuid-f52faf53-932f-4e9e-8f24-a9dc82111518" data-name="polyline990" class="uuid-ea547d38-f1a3-4e1c-9b31-e5832941b470" points="384.123 112.935 384.123 89.605 384.123 89.605 384.123 67.632"></polyline>
    <polygon id="uuid-286a3ac8-942b-45c7-903e-46810ce45aac" data-name="polygon992" class="uuid-97854497-a71e-4e64-92d9-fa57dfa945a0" points="387.448 111.962 384.123 117.72 380.798 111.962 387.448 111.962"></polygon>
  </g>
  <g id="uuid-bede3cd8-2a94-4702-914c-03d5f59f763a" data-name="g1000">
    <polyline id="uuid-275b36d7-c44f-4251-83d3-43ec4c99784d" data-name="polyline996" class="uuid-ea547d38-f1a3-4e1c-9b31-e5832941b470" points="509.203 112.935 509.203 93.326 384.123 93.326 384.123 74.261"></polyline>
    <polygon id="uuid-7152d848-ed96-4b81-8ed1-8ce41ff6a9dc" data-name="polygon998" class="uuid-97854497-a71e-4e64-92d9-fa57dfa945a0" points="512.529 111.962 509.203 117.72 505.878 111.962 512.529 111.962"></polygon>
  </g>
  <path id="uuid-cbd0afef-c947-4458-a7c0-92c594b2bc10" data-name="path1002" class="uuid-3bcce92b-b7bb-41a5-9a42-7b35b2f8fbeb" d="M104.136,38.492c-.114-22.086-29.793-29.079-39.756-9.41-8.991-1.005-17.095,5.47-18.099,14.461-.994,8.899,5.341,16.947,14.224,18.071.645.076,1.294.115,1.944.115h1.15c.788-.025,1.407-.684,1.382-1.471-.024-.753-.629-1.358-1.382-1.382h-1.15c-19.557-1.059-16.911-29.418,2.507-26.803.655.114,1.306-.225,1.588-.828,8.26-18.406,35.43-11.987,34.694,8.098v.253c-.041.768.524,1.434,1.288,1.519,4.878.621,8.329,5.08,7.708,9.958-.558,4.378-4.238,7.688-8.651,7.778h-1.174c-.788,0-1.426.638-1.426,1.426s.638,1.426,1.426,1.426h1.151c6.504-.137,11.666-5.522,11.529-12.026-.112-5.324-3.783-9.911-8.953-11.188v.003Z"></path>
  <g id="uuid-cbc1cc72-4bf2-453d-bcf9-75635124a032" data-name="g1008">
    <path id="uuid-92ddff11-46d1-41d3-bab7-639514033667" data-name="path1004" class="uuid-2af637c2-f717-45e6-974b-4c3dd1e61b02" d="M94.73,72.273c-.077-7.591-6.293-13.682-13.884-13.605-7.482.076-13.529,6.123-13.605,13.605h27.489Z"></path>
    <ellipse id="uuid-f9fceab0-6c00-430c-af4c-b071739d0559" data-name="ellipse1006" class="uuid-2af637c2-f717-45e6-974b-4c3dd1e61b02" cx="80.985" cy="51.667" rx="6.9" ry="6.89"></ellipse>
  </g>
  <g id="uuid-0639fd8c-55a2-4fb0-936f-97d82dc795e3" data-name="g1054">
    <line id="uuid-f38b48fb-09d2-4f59-8b88-a2744b47908c" data-name="line1048" class="uuid-ea547d38-f1a3-4e1c-9b31-e5832941b470" x1="210.03" y1="167.009" x2="130.865" y2="167.009"></line>
    <polygon id="uuid-48655609-9295-45fb-8eb5-3eeb891314e8" data-name="polygon1050" class="uuid-97854497-a71e-4e64-92d9-fa57dfa945a0" points="209.056 163.684 214.814 167.009 209.056 170.334 209.056 163.684"></polygon>
    <polygon id="uuid-aaf554ad-aea1-44ae-8022-1382b2d289b0" data-name="polygon1052" class="uuid-97854497-a71e-4e64-92d9-fa57dfa945a0" points="131.838 163.684 126.079 167.009 131.838 170.334 131.838 163.684"></polygon>
  </g>
  <g id="uuid-39347b87-f576-47fe-beda-37ed01e35a50" data-name="g1086">
    <rect id="uuid-54694862-c444-4323-918e-18b71b057feb" data-name="rect1066" class="uuid-9dccd95f-8889-4889-aa48-3014d72099a7" x="325.732" y="37.233" width="116.782" height="37.512"></rect>
    <g id="uuid-09387b1a-de4e-4f09-be0b-7b671568a3ff" data-name="g1084">
      <polyline id="uuid-8899ac28-d32d-4b13-bfc4-475084b45c39" data-name="polyline1068" class="uuid-fd6e3c91-fdc9-4611-92c0-97e2678183b3" points="325.732 39.011 325.732 37.233 327.51 37.233"></polyline>
      <line id="uuid-fcece479-823a-41dd-b468-c60499385d5d" data-name="line1070" class="uuid-923bd7c2-b601-4719-9910-4944cf3f1e52" x1="331.162" y1="37.233" x2="438.91" y2="37.233"></line>
      <polyline id="uuid-4bda3e68-d834-4799-8b52-fc8a6d696a99" data-name="polyline1072" class="uuid-fd6e3c91-fdc9-4611-92c0-97e2678183b3" points="440.735 37.233 442.514 37.233 442.514 39.011"></polyline>
      <line id="uuid-509d534d-328c-4e85-a25c-486b2377a520" data-name="line1074" class="uuid-68130e59-f793-49b3-b5db-d28684fbee93" x1="442.514" y1="42.785" x2="442.514" y2="71.081"></line>
      <polyline id="uuid-d9518c84-9466-4b38-aa03-5da9c823ee0f" data-name="polyline1076" class="uuid-fd6e3c91-fdc9-4611-92c0-97e2678183b3" points="442.514 72.967 442.514 74.745 440.735 74.745"></polyline>
      <line id="uuid-ac60cdb3-45df-4f65-a30d-c5009d2fc002" data-name="line1078" class="uuid-923bd7c2-b601-4719-9910-4944cf3f1e52" x1="437.083" y1="74.745" x2="329.337" y2="74.745"></line>
      <polyline id="uuid-7dba45c2-ae19-44c3-8220-6d1f34b34a87" data-name="polyline1080" class="uuid-fd6e3c91-fdc9-4611-92c0-97e2678183b3" points="327.51 74.745 325.732 74.745 325.732 72.967"></polyline>
      <line id="uuid-64f03358-0ac2-4708-824c-eed1faa54021" data-name="line1082" class="uuid-68130e59-f793-49b3-b5db-d28684fbee93" x1="325.732" y1="69.194" x2="325.732" y2="40.898"></line>
    </g>
  </g>
  <g id="uuid-8bdef308-8418-4840-9c7e-b9cc9c5e5930" data-name="g1102">
    <path id="uuid-b14ec7ee-fab4-4f47-8fcb-a8a4b736480b" data-name="path1088" class="uuid-dcd5872f-2d93-4a8f-9c9c-a9c9864eb6ec" d="M364.084,52.216h1.631v2.881l2.474-2.881h1.942l-2.9,3.118,3.07,3.517h-2.134l-2.454-3.015v3.018h-1.63v-6.639Z"></path>
    <path id="uuid-adfbf439-ed67-4090-aa49-ce2c48396059" data-name="path1090" class="uuid-dcd5872f-2d93-4a8f-9c9c-a9c9864eb6ec" d="M372.202,56.815c-.053.447.266.852.713.905.034.004.068.006.102.006.322.005.626-.147.816-.408v-3.355h1.541v4.892h-1.541v-.797c-.326.54-.91.871-1.541.873-.872.024-1.599-.664-1.622-1.537-.001-.044,0-.088.002-.132v-3.299h1.535l-.004,2.852Z"></path>
    <path id="uuid-72f62821-830a-4046-b652-90c0f0432efe" data-name="path1092" class="uuid-dcd5872f-2d93-4a8f-9c9c-a9c9864eb6ec" d="M379.417,58.882c-.517.003-1.007-.227-1.335-.626v.593h-1.517v-6.773l1.535-.237v2.748c.356-.42.881-.66,1.432-.654,1.282.09,2.248,1.202,2.16,2.484.06,1.301-.945,2.404-2.246,2.465-.01,0-.019,0-.029.001ZM378.1,55.602v1.631c.24.25.573.391.92.388.667-.03,1.184-.594,1.154-1.262-.028-.626-.529-1.127-1.154-1.154-.35-.01-.687.135-.92.397Z"></path>
    <path id="uuid-2e29e8cc-ced5-45f0-ab80-75acaf702857" data-name="path1094" class="uuid-dcd5872f-2d93-4a8f-9c9c-a9c9864eb6ec" d="M385.08,58.949c-1.397.027-2.551-1.084-2.578-2.481,0-.017,0-.033,0-.05-.048-1.355,1.012-2.492,2.367-2.54.032-.001.065-.002.098-.002,1.327-.007,2.409,1.063,2.416,2.39,0,.069-.002.138-.008.207v.332h-3.364c.119.537.596.92,1.146.919.368.018.724-.132.967-.408l1.014.844c-.552.528-1.293.812-2.057.788ZM384.013,55.934h1.942c-.075-.492-.496-.858-.995-.863-.489.007-.897.377-.951.863h.004Z"></path>
    <path id="uuid-539656ae-ab6a-4d19-b177-d97fa9144794" data-name="path1096" class="uuid-dcd5872f-2d93-4a8f-9c9c-a9c9864eb6ec" d="M389.869,58.855h-1.535v-6.779l1.535-.237v7.016Z"></path>
    <path id="uuid-07b066fc-94bf-41d1-b306-5cdf9693f822" data-name="path1098" class="uuid-dcd5872f-2d93-4a8f-9c9c-a9c9864eb6ec" d="M393.425,58.949c-1.397.027-2.551-1.084-2.578-2.481,0-.017,0-.033,0-.05-.048-1.355,1.012-2.492,2.367-2.54.032-.001.065-.002.098-.002,1.327-.007,2.409,1.063,2.416,2.39,0,.069-.002.138-.008.207v.332h-3.364c.119.537.596.92,1.146.919.368.018.724-.132.967-.408l1.014.844c-.552.528-1.293.812-2.057.788ZM392.359,55.934h1.942c-.075-.492-.496-.858-.995-.863-.489.007-.897.377-.951.863h.003Z"></path>
    <path id="uuid-1911761f-5327-43b5-9014-8d6d9d0c300b" data-name="path1100" class="uuid-dcd5872f-2d93-4a8f-9c9c-a9c9864eb6ec" d="M397.182,55.147h-.948v-1.185h.948v-1.354l1.541-.313v1.668h1.304v1.185h-1.304v1.897c0,.437.171.593.645.593.212-.002.423-.038.625-.104v1.242c-.343.094-.697.145-1.053.152-1.155,0-1.752-.531-1.752-1.574l-.006-2.206Z"></path>
  </g>
  <g>
    <path d="M42.085,257.551c0-2.039,1.608-3.607,3.688-3.607,1.119,0,2.229.529,2.839,1.358l-1.16,1.1c-.459-.619-1.019-.93-1.679-.93-1.09,0-1.909.89-1.909,2.079s.819,2.079,1.909,2.079c.66,0,1.22-.31,1.679-.93l1.16,1.1c-.61.829-1.72,1.359-2.839,1.359-2.079,0-3.688-1.569-3.688-3.608Z"></path>
    <path d="M49.465,253.933l1.619-.249v7.365h-1.619v-7.116Z"></path>
    <path d="M52.305,259.37v-3.479h1.619v3.009c0,.579.34.959.859.959.35,0,.63-.14.859-.43v-3.538h1.619v5.157h-1.619v-.839c-.399.6-.959.919-1.629.919-1,0-1.709-.729-1.709-1.759Z"></path>
    <path d="M58.104,260.52l.71-1.079c.739.39,1.159.52,1.658.52.46,0,.74-.16.74-.42,0-.2-.15-.31-.479-.37l-.99-.18c-.999-.189-1.519-.699-1.519-1.499,0-1.05.81-1.68,2.158-1.68.72,0,1.43.2,2.1.59l-.74,1.029c-.52-.3-.999-.439-1.479-.439-.391,0-.62.13-.62.35,0,.21.13.3.529.37l.97.18c1.02.19,1.55.71,1.55,1.489,0,1.01-.95,1.77-2.22,1.77-.939,0-1.769-.221-2.368-.63Z"></path>
    <path d="M64.214,259.49v-2.349h-1v-1.25h1v-1.429l1.619-.33v1.759h1.379v1.25h-1.379v2.028c0,.46.18.62.68.62.189,0,.34-.021.659-.11v1.31c-.3.09-.779.16-1.109.16-1.22,0-1.849-.561-1.849-1.659Z"></path>
    <path d="M67.834,258.48c0-1.509,1.12-2.669,2.599-2.669,1.489,0,2.539,1.13,2.539,2.729v.351h-3.548c.149.579.619.969,1.209.969.43,0,.79-.149,1.02-.43l1.069.89c-.67.59-1.299.83-2.169.83-1.519,0-2.719-1.17-2.719-2.669ZM71.473,257.971c-.141-.55-.53-.899-1.05-.899-.51,0-.869.33-.999.899h2.049Z"></path>
    <path d="M73.984,255.892h1.619v1.17c.329-.859.789-1.27,1.399-1.27.229.01.34.03.539.13v1.39c-.199-.101-.479-.16-.76-.16-.479,0-.919.25-1.179.64v3.258h-1.619v-5.157Z"></path>
    <path d="M80.134,260.52l.71-1.079c.739.39,1.159.52,1.658.52.46,0,.74-.16.74-.42,0-.2-.15-.31-.479-.37l-.99-.18c-.999-.189-1.519-.699-1.519-1.499,0-1.05.81-1.68,2.158-1.68.72,0,1.43.2,2.1.59l-.74,1.029c-.52-.3-.999-.439-1.479-.439-.391,0-.62.13-.62.35,0,.21.13.3.529.37l.97.18c1.02.19,1.55.71,1.55,1.489,0,1.01-.95,1.77-2.22,1.77-.939,0-1.769-.221-2.368-.63Z"></path>
    <path d="M85.483,258.48c0-1.509,1.12-2.669,2.599-2.669,1.489,0,2.539,1.13,2.539,2.729v.351h-3.548c.149.579.619.969,1.209.969.43,0,.79-.149,1.02-.43l1.069.89c-.67.59-1.299.83-2.169.83-1.52,0-2.719-1.17-2.719-2.669ZM89.122,257.971c-.141-.55-.53-.899-1.05-.899-.51,0-.869.33-.999.899h2.049Z"></path>
    <path d="M91.634,255.892h1.619v1.17c.329-.859.789-1.27,1.399-1.27.229.01.34.03.539.13v1.39c-.199-.101-.479-.16-.76-.16-.479,0-.919.25-1.179.64v3.258h-1.619v-5.157Z"></path>
    <path d="M95.644,255.892h1.759l1.169,3.238,1.18-3.238h1.669l-2.108,5.157h-1.579l-2.089-5.157Z"></path>
    <path d="M102.023,254.192c0-.499.41-.909.91-.909s.909.41.909.909-.41.91-.909.91-.91-.41-.91-.91ZM102.124,255.892h1.619v5.157h-1.619v-5.157Z"></path>
    <path d="M104.773,258.48c0-1.509,1.16-2.669,2.669-2.669.85,0,1.629.34,2.148.95l-.989.989c-.33-.39-.659-.56-1.1-.56-.64,0-1.119.55-1.119,1.289s.479,1.289,1.119,1.289c.44,0,.77-.17,1.1-.56l.989.989c-.52.61-1.299.95-2.148.95-1.509,0-2.669-1.16-2.669-2.669Z"></path>
    <path d="M110.013,258.48c0-1.509,1.12-2.669,2.599-2.669,1.489,0,2.539,1.13,2.539,2.729v.351h-3.548c.149.579.619.969,1.209.969.43,0,.79-.149,1.02-.43l1.069.89c-.67.59-1.299.83-2.169.83-1.52,0-2.719-1.17-2.719-2.669ZM113.651,257.971c-.141-.55-.53-.899-1.05-.899-.51,0-.869.33-.999.899h2.049Z"></path>
    <path d="M115.793,260.52l.71-1.079c.739.39,1.159.52,1.658.52.46,0,.74-.16.74-.42,0-.2-.15-.31-.479-.37l-.99-.18c-.999-.189-1.519-.699-1.519-1.499,0-1.05.81-1.68,2.158-1.68.72,0,1.43.2,2.1.59l-.74,1.029c-.52-.3-.999-.439-1.479-.439-.391,0-.62.13-.62.35,0,.21.13.3.529.37l.97.18c1.02.19,1.549.71,1.549,1.489,0,1.01-.949,1.77-2.219,1.77-.939,0-1.769-.221-2.368-.63Z"></path>
  </g>
  <g>
    <path d="M215.593,129.821h2.849c1.959,0,3.519,1.56,3.519,3.498s-1.56,3.498-3.519,3.498h-2.849v-6.996ZM218.442,135.349c.97,0,1.739-.899,1.739-2.029s-.77-2.028-1.739-2.028h-1.129v4.058h1.129Z"></path>
    <path d="M222.704,135.339c0-.95.739-1.5,2.009-1.5.37,0,.74.07,1.199.24v-.42c0-.5-.329-.749-1.02-.749-.39,0-.849.109-1.449.359l-.56-1.129c.85-.38,1.609-.561,2.369-.561,1.429,0,2.259.71,2.259,1.939v3.298h-1.6v-.449c-.449.38-.879.529-1.429.529-1.05,0-1.779-.64-1.779-1.559ZM224.983,135.828c.34,0,.649-.09.929-.26v-.66c-.3-.069-.589-.109-.889-.109-.53,0-.83.18-.83.51s.29.52.79.52Z"></path>
    <path d="M228.503,134.249c0-1.509,1.12-2.669,2.599-2.669,1.489,0,2.539,1.13,2.539,2.729v.351h-3.548c.149.579.619.969,1.209.969.43,0,.79-.149,1.02-.43l1.069.89c-.67.59-1.299.83-2.169.83-1.519,0-2.719-1.17-2.719-2.669ZM232.142,133.739c-.141-.55-.53-.899-1.05-.899-.51,0-.869.33-.999.899h2.049Z"></path>
    <path d="M234.654,131.66h1.619v.82c.38-.59.899-.9,1.529-.9.669,0,1.199.37,1.449.96.399-.62.979-.96,1.688-.96.949,0,1.619.75,1.619,1.81v3.428h-1.619v-3.108c0-.52-.31-.859-.77-.859-.3,0-.54.12-.749.39v3.578h-1.619v-3.108c0-.52-.311-.859-.77-.859-.3,0-.55.13-.76.4v3.567h-1.619v-5.157Z"></path>
    <path d="M243.553,134.249c0-1.52,1.16-2.669,2.688-2.669s2.688,1.149,2.688,2.669-1.159,2.669-2.688,2.669-2.688-1.149-2.688-2.669ZM247.351,134.249c0-.77-.459-1.319-1.109-1.319s-1.109.55-1.109,1.319.46,1.319,1.109,1.319,1.109-.55,1.109-1.319Z"></path>
    <path d="M249.963,131.66h1.619v.84c.399-.6.959-.92,1.629-.92.999,0,1.709.73,1.709,1.76v3.478h-1.619v-3.008c0-.58-.34-.96-.859-.96-.35,0-.63.14-.859.43v3.538h-1.619v-5.157Z"></path>
    <path d="M255.704,135.868l.88-1.27c.97.68,1.579.93,2.269.93.74,0,1.189-.3,1.189-.739,0-.41-.239-.61-.919-.729l-1.489-.261c-1.109-.189-1.72-.889-1.72-1.879,0-1.358,1.04-2.208,2.779-2.208,1.079,0,2.148.35,2.868.919l-.87,1.249c-.68-.52-1.349-.77-2.089-.77-.68,0-1.069.28-1.069.66,0,.359.23.54.79.64l1.399.24c1.309.22,1.999.909,1.999,1.979,0,1.369-1.16,2.299-2.989,2.299-1.109,0-2.099-.37-3.028-1.06Z"></path>
    <path d="M262.563,134.249c0-1.509,1.12-2.669,2.599-2.669,1.489,0,2.539,1.13,2.539,2.729v.351h-3.548c.149.579.619.969,1.209.969.43,0,.79-.149,1.02-.43l1.069.89c-.67.59-1.299.83-2.169.83-1.52,0-2.719-1.17-2.719-2.669ZM266.202,133.739c-.141-.55-.53-.899-1.05-.899-.51,0-.869.33-.999.899h2.049Z"></path>
    <path d="M269.244,135.259v-2.349h-1v-1.25h1v-1.429l1.619-.33v1.759h1.379v1.25h-1.379v2.028c0,.46.18.62.68.62.189,0,.34-.021.659-.11v1.31c-.3.09-.779.16-1.109.16-1.22,0-1.849-.561-1.849-1.659Z"></path>
    <path d="M275.293,131.66h1.599v.72c.34-.46.91-.749,1.529-.749,1.27,0,2.279,1.169,2.279,2.618s-1.06,2.599-2.399,2.599c-.56,0-1.049-.21-1.389-.6v2.658h-1.619v-7.246ZM279.111,134.239c0-.729-.529-1.27-1.229-1.27-.399,0-.709.14-.969.42v1.719c.25.26.59.41.969.41.71,0,1.229-.54,1.229-1.279Z"></path>
    <path d="M281.502,134.249c0-1.52,1.16-2.669,2.688-2.669s2.688,1.149,2.688,2.669-1.159,2.669-2.688,2.669-2.688-1.149-2.688-2.669ZM285.3,134.249c0-.77-.459-1.319-1.109-1.319s-1.109.55-1.109,1.319.46,1.319,1.109,1.319,1.109-.55,1.109-1.319Z"></path>
    <path d="M287.683,134.229c0-1.449,1.06-2.599,2.399-2.599.539,0,1.029.22,1.379.619v-2.549l1.619-.249v7.365h-1.6v-.669c-.34.43-.909.699-1.519.699-1.27,0-2.279-1.169-2.279-2.618ZM291.461,135.099v-1.739c-.25-.26-.59-.399-.96-.399-.709,0-1.229.539-1.229,1.279,0,.729.529,1.27,1.229,1.27.391,0,.71-.141.96-.41Z"></path>
  </g>
  <g>
    <path d="M339.913,129.821h1.859l1.849,5.207,1.879-5.207h1.789l-2.729,6.996h-1.958l-2.689-6.996Z"></path>
    <path d="M348.093,129.821h2.159l1.689,3.358,1.679-3.358h2.159v6.996h-1.619v-4.747l-2.239,4.248-2.249-4.288v4.787h-1.579v-6.996Z"></path>
    <path d="M359.343,131.66h1.599v.72c.34-.46.91-.749,1.529-.749,1.27,0,2.279,1.169,2.279,2.618s-1.06,2.599-2.399,2.599c-.56,0-1.049-.21-1.389-.6v2.658h-1.619v-7.246ZM363.161,134.239c0-.729-.529-1.27-1.229-1.27-.399,0-.709.14-.969.42v1.719c.25.26.59.41.969.41.71,0,1.229-.54,1.229-1.279Z"></path>
    <path d="M365.553,134.249c0-1.52,1.16-2.669,2.688-2.669s2.688,1.149,2.688,2.669-1.159,2.669-2.688,2.669-2.688-1.149-2.688-2.669ZM369.351,134.249c0-.77-.459-1.319-1.109-1.319s-1.109.55-1.109,1.319.46,1.319,1.109,1.319,1.109-.55,1.109-1.319Z"></path>
    <path d="M371.733,134.229c0-1.449,1.06-2.599,2.399-2.599.539,0,1.029.22,1.379.619v-2.549l1.619-.249v7.365h-1.6v-.669c-.34.43-.909.699-1.519.699-1.27,0-2.279-1.169-2.279-2.618ZM375.511,135.099v-1.739c-.25-.26-.59-.399-.96-.399-.709,0-1.229.539-1.229,1.279,0,.729.529,1.27,1.229,1.27.391,0,.71-.141.96-.41Z"></path>
  </g>
  <g>
    <path d="M465.425,133.319c0-2.019,1.589-3.607,3.617-3.607s3.618,1.589,3.618,3.607-1.589,3.608-3.618,3.608-3.617-1.589-3.617-3.608ZM470.892,133.319c0-1.189-.8-2.079-1.85-2.079s-1.849.89-1.849,2.079.8,2.079,1.849,2.079,1.85-.89,1.85-2.079Z"></path>
    <path d="M474.424,135.259v-2.349h-1v-1.25h1v-1.429l1.619-.33v1.759h1.379v1.25h-1.379v2.028c0,.46.18.62.68.62.189,0,.34-.021.659-.11v1.31c-.3.09-.779.16-1.109.16-1.22,0-1.849-.561-1.849-1.659Z"></path>
    <path d="M478.325,129.701l1.619-.249v3.048c.399-.6.959-.92,1.629-.92.999,0,1.709.73,1.709,1.76v3.478h-1.619v-3.008c0-.58-.34-.96-.859-.96-.35,0-.63.14-.859.43v3.538h-1.619v-7.116Z"></path>
    <path d="M484.274,134.249c0-1.509,1.12-2.669,2.599-2.669,1.489,0,2.539,1.13,2.539,2.729v.351h-3.548c.149.579.619.969,1.209.969.43,0,.79-.149,1.02-.43l1.069.89c-.67.59-1.299.83-2.169.83-1.519,0-2.719-1.17-2.719-2.669ZM487.913,133.739c-.141-.55-.53-.899-1.05-.899-.51,0-.869.33-.999.899h2.049Z"></path>
    <path d="M490.424,131.66h1.619v1.17c.329-.859.789-1.27,1.399-1.27.229.01.34.03.539.13v1.39c-.199-.101-.479-.16-.76-.16-.479,0-.919.25-1.179.64v3.258h-1.619v-5.157Z"></path>
    <path d="M496.995,131.66h1.599v.72c.34-.46.91-.749,1.529-.749,1.27,0,2.279,1.169,2.279,2.618s-1.06,2.599-2.399,2.599c-.56,0-1.049-.21-1.389-.6v2.658h-1.619v-7.246ZM500.812,134.239c0-.729-.529-1.27-1.229-1.27-.399,0-.709.14-.969.42v1.719c.25.26.59.41.969.41.71,0,1.229-.54,1.229-1.279Z"></path>
    <path d="M503.204,134.249c0-1.52,1.16-2.669,2.688-2.669s2.688,1.149,2.688,2.669-1.159,2.669-2.688,2.669-2.688-1.149-2.688-2.669ZM507.001,134.249c0-.77-.459-1.319-1.109-1.319s-1.109.55-1.109,1.319.46,1.319,1.109,1.319,1.109-.55,1.109-1.319Z"></path>
    <path d="M509.384,134.229c0-1.449,1.06-2.599,2.399-2.599.539,0,1.029.22,1.379.619v-2.549l1.619-.249v7.365h-1.6v-.669c-.34.43-.909.699-1.519.699-1.27,0-2.279-1.169-2.279-2.618ZM513.163,135.099v-1.739c-.25-.26-.59-.399-.96-.399-.709,0-1.229.539-1.229,1.279,0,.729.529,1.27,1.229,1.27.391,0,.71-.141.96-.41Z"></path>
    <path d="M515.624,136.288l.71-1.079c.739.39,1.159.52,1.658.52.46,0,.74-.16.74-.42,0-.2-.15-.31-.479-.37l-.99-.18c-.999-.189-1.519-.699-1.519-1.499,0-1.05.81-1.68,2.158-1.68.72,0,1.43.2,2.1.59l-.74,1.029c-.52-.3-.999-.439-1.479-.439-.391,0-.62.13-.62.35,0,.21.13.3.529.37l.97.18c1.02.19,1.55.71,1.55,1.489,0,1.01-.95,1.77-2.22,1.77-.939,0-1.769-.221-2.368-.63Z"></path>
  </g>
  <g>
    <path d="M59.788,163.296h1.389l2.709,6.996h-1.289l-.72-1.959h-2.868l-.72,1.959h-1.25l2.749-6.996ZM61.547,167.394l-1.1-2.959-1.089,2.959h2.188Z"></path>
    <path d="M64.789,163.296h3.128c1.419,0,2.339.89,2.339,2.179,0,1.259-.92,2.148-2.339,2.148h-1.929v2.669h-1.199v-6.996ZM67.727,166.644c.85,0,1.319-.47,1.319-1.179,0-.69-.47-1.16-1.31-1.16h-1.749v2.339h1.739Z"></path>
    <path d="M71.529,163.296h1.199v6.996h-1.199v-6.996Z"></path>
    <path d="M76.019,169.712l.529-.749c.66.409,1.1.569,1.609.569.6,0,1.01-.28,1.01-.68,0-.31-.21-.47-.7-.569l-.879-.15c-.979-.18-1.449-.63-1.449-1.379,0-.939.77-1.55,1.938-1.55.7,0,1.329.2,1.969.601l-.529.749c-.51-.33-1-.479-1.509-.479-.521,0-.86.22-.86.579,0,.32.181.46.7.55l.89.17c.999.181,1.479.64,1.479,1.39,0,.919-.879,1.629-2.049,1.629-.859,0-1.619-.24-2.148-.68Z"></path>
    <path d="M81.079,167.793c0-1.469,1.06-2.589,2.438-2.589,1.369,0,2.369,1.09,2.369,2.589v.27h-3.698c.11.81.72,1.399,1.499,1.399.47,0,.91-.18,1.189-.47l.739.67c-.609.51-1.219.729-1.979.729-1.439,0-2.559-1.129-2.559-2.599ZM84.817,167.363c-.12-.729-.64-1.239-1.31-1.239-.68,0-1.18.49-1.31,1.239h2.619Z"></path>
    <path d="M87.038,165.284h1.13v1.08c.279-.76.76-1.17,1.379-1.17.19.01.32.03.49.101v.989c-.181-.07-.41-.12-.62-.12-.55,0-.999.31-1.249.829v3.299h-1.13v-5.008Z"></path>
    <path d="M90.529,165.284h1.229l1.399,3.639,1.39-3.639h1.179l-2.059,5.008h-1.1l-2.038-5.008Z"></path>
    <path d="M96.158,167.793c0-1.469,1.06-2.589,2.438-2.589,1.369,0,2.369,1.09,2.369,2.589v.27h-3.698c.11.81.72,1.399,1.499,1.399.47,0,.91-.18,1.189-.47l.739.67c-.609.51-1.219.729-1.979.729-1.439,0-2.559-1.129-2.559-2.599ZM99.896,167.363c-.12-.729-.64-1.239-1.31-1.239-.68,0-1.18.49-1.31,1.239h2.619Z"></path>
    <path d="M102.118,165.284h1.13v1.08c.279-.76.76-1.17,1.379-1.17.19.01.32.03.49.101v.989c-.181-.07-.41-.12-.62-.12-.55,0-.999.31-1.249.829v3.299h-1.13v-5.008Z"></path>
  </g>
  <path id="uuid-666065eb-a5ff-4a91-bdd8-6845cd207014" data-name="path868" class="uuid-dcd5872f-2d93-4a8f-9c9c-a9c9864eb6ec" d="M355.703,165.311h1.165l1.317,3.469,1.318-3.469h1.129l-1.954,4.749h-1.033l-1.943-4.749Z"></path>
  <path id="uuid-e4beafd0-e61b-4b09-94af-480802f7afe0" data-name="path868" class="uuid-dcd5872f-2d93-4a8f-9c9c-a9c9864eb6ec" d="M233.436,165.311h1.165l1.317,3.469,1.318-3.469h1.129l-1.954,4.749h-1.033l-1.943-4.749Z"></path>
</svg>