<svg id="uuid-ae061635-4a66-460c-b93a-b0419967d401" data-name="Layer_1" xmlns="http://www.w3.org/2000/svg" width="595.276" height="375.264" viewBox="0 0 595.276 375.264">
  <defs>
    <style>
      .uuid-e4644b86-7198-46d0-ac46-3c4d8ed89d5f {
        fill: #e6e6e6;
      }

      .uuid-db28daa4-3c26-489f-ae08-19e1f14eb59b {
        stroke-linecap: round;
        stroke-linejoin: round;
      }

      .uuid-db28daa4-3c26-489f-ae08-19e1f14eb59b, .uuid-30e6c30d-a4d1-4a99-978d-a01820cc8ab9 {
        fill: #fff;
      }

      .uuid-db28daa4-3c26-489f-ae08-19e1f14eb59b, .uuid-bbe8a017-6e8f-4178-bd72-74d3f709e1fb, .uuid-017eccb8-c204-4de3-8315-30d69d40c83e {
        stroke: #000;
      }

      .uuid-1dc7bf50-7dbc-4966-ba1a-025425dae160 {
        fill: #06c;
      }

      .uuid-40dc63a5-3bb2-42f6-802b-bdf4891a6145 {
        fill: #151515;
      }

      .uuid-bbe8a017-6e8f-4178-bd72-74d3f709e1fb {
        stroke-width: .5px;
      }

      .uuid-bbe8a017-6e8f-4178-bd72-74d3f709e1fb, .uuid-017eccb8-c204-4de3-8315-30d69d40c83e, .uuid-c9f9e9a2-4784-4f27-9667-11a757c785ef {
        fill: none;
        stroke-miterlimit: 10;
      }

      .uuid-c9f9e9a2-4784-4f27-9667-11a757c785ef {
        stroke: #06c;
      }

      .uuid-a6f33d62-03fe-4811-b5be-ec58b62652bf {
        fill: #dbe8f5;
      }
    </style>
  </defs>
  <rect class="uuid-30e6c30d-a4d1-4a99-978d-a01820cc8ab9" width="595.276" height="375.264"></rect>
  <g>
    <rect class="uuid-e4644b86-7198-46d0-ac46-3c4d8ed89d5f" x="88.254" y="129.151" width="200" height="34.968"></rect>
    <rect class="uuid-e4644b86-7198-46d0-ac46-3c4d8ed89d5f" x="88.254" y="170.121" width="200" height="34.968"></rect>
    <rect class="uuid-e4644b86-7198-46d0-ac46-3c4d8ed89d5f" x="88.254" y="211.092" width="200" height="34.968"></rect>
    <rect class="uuid-a6f33d62-03fe-4811-b5be-ec58b62652bf" x="378.694" y="23.071" width="200" height="34.968"></rect>
    <rect class="uuid-a6f33d62-03fe-4811-b5be-ec58b62652bf" x="378.694" y="65.085" width="200" height="34.968"></rect>
    <rect class="uuid-a6f33d62-03fe-4811-b5be-ec58b62652bf" x="378.694" y="107.1" width="200" height="34.968"></rect>
    <rect class="uuid-a6f33d62-03fe-4811-b5be-ec58b62652bf" x="378.694" y="149.114" width="200" height="34.968"></rect>
    <rect class="uuid-a6f33d62-03fe-4811-b5be-ec58b62652bf" x="378.694" y="191.128" width="200" height="34.968"></rect>
    <rect class="uuid-a6f33d62-03fe-4811-b5be-ec58b62652bf" x="378.694" y="233.143" width="200" height="34.968"></rect>
    <rect class="uuid-a6f33d62-03fe-4811-b5be-ec58b62652bf" x="378.694" y="275.157" width="200" height="34.968"></rect>
    <rect class="uuid-a6f33d62-03fe-4811-b5be-ec58b62652bf" x="378.694" y="317.171" width="200" height="34.968"></rect>
    <g>
      <path d="M146.615,136.409h1.199v2.938h3.478v-2.938h1.2v6.996h-1.2v-2.988h-3.478v2.988h-1.199v-6.996Z"></path>
      <path d="M153.785,145.523v-.979c.13.03.29.04.44.04.4,0,.64-.18.81-.569l.23-.56-1.889-5.057h1.25l1.279,3.708,1.389-3.708h1.239l-2.398,5.877c-.39.969-.85,1.319-1.789,1.319-.16,0-.36-.02-.56-.07Z"></path>
      <path d="M159.354,138.397h1.109v.709c.36-.47.919-.75,1.559-.75,1.27,0,2.259,1.129,2.259,2.549,0,1.429-1.02,2.548-2.329,2.548-.59,0-1.109-.22-1.469-.64v2.679h-1.129v-7.096ZM163.172,140.906c0-.91-.64-1.599-1.489-1.599-.5,0-.91.2-1.199.56v2.089c.29.35.72.56,1.199.56.859,0,1.489-.689,1.489-1.609Z"></path>
      <path d="M165.234,140.906c0-1.469,1.06-2.589,2.438-2.589,1.37,0,2.369,1.089,2.369,2.589v.27h-3.698c.11.81.72,1.399,1.499,1.399.47,0,.91-.18,1.189-.47l.74.669c-.61.51-1.219.73-1.979.73-1.439,0-2.559-1.129-2.559-2.599ZM168.972,140.477c-.12-.73-.64-1.239-1.309-1.239-.68,0-1.179.49-1.309,1.239h2.618Z"></path>
      <path d="M171.194,138.397h1.129v1.08c.28-.76.759-1.169,1.379-1.169.19.01.32.03.49.1v.989c-.18-.07-.41-.12-.62-.12-.549,0-.999.31-1.249.83v3.298h-1.129v-5.007Z"></path>
      <path d="M174.935,139.907c0-2.029,1.579-3.608,3.618-3.608,1.069,0,2.089.459,2.729,1.249l-.8.78c-.5-.62-1.189-.95-1.929-.95-1.359,0-2.389,1.089-2.389,2.529s1.029,2.529,2.389,2.529c.739,0,1.429-.33,1.929-.95l.8.78c-.64.79-1.659,1.249-2.729,1.249-2.039,0-3.618-1.579-3.618-3.608Z"></path>
      <path d="M181.975,140.906c0-1.479,1.08-2.589,2.519-2.589,1.429,0,2.509,1.109,2.509,2.589s-1.08,2.588-2.509,2.588c-1.439,0-2.519-1.109-2.519-2.588ZM185.893,140.906c0-.93-.59-1.629-1.399-1.629-.819,0-1.409.7-1.409,1.629,0,.939.59,1.629,1.409,1.629.81,0,1.399-.689,1.399-1.629Z"></path>
      <path d="M188.174,138.397h1.129v.82c.38-.59.929-.9,1.579-.9,1.029,0,1.749.73,1.749,1.789v3.298h-1.14v-2.979c0-.729-.43-1.199-1.099-1.199-.46,0-.83.21-1.089.61v3.568h-1.129v-5.007Z"></path>
      <path d="M193.185,138.397h1.229l1.399,3.638,1.39-3.638h1.179l-2.059,5.007h-1.099l-2.039-5.007Z"></path>
      <path d="M198.814,140.906c0-1.469,1.06-2.589,2.438-2.589,1.37,0,2.369,1.089,2.369,2.589v.27h-3.698c.11.81.72,1.399,1.499,1.399.47,0,.91-.18,1.189-.47l.74.669c-.61.51-1.219.73-1.979.73-1.439,0-2.559-1.129-2.559-2.599ZM202.552,140.477c-.12-.73-.64-1.239-1.309-1.239-.68,0-1.179.49-1.309,1.239h2.618Z"></path>
      <path d="M204.774,138.397h1.129v1.08c.28-.76.759-1.169,1.379-1.169.19.01.32.03.49.1v.989c-.18-.07-.41-.12-.62-.12-.549,0-1,.31-1.249.83v3.298h-1.129v-5.007Z"></path>
      <path d="M208.804,145.104l.39-.83c.589.29,1.069.419,1.569.419.84,0,1.279-.379,1.279-1.109v-.849c-.36.439-.91.699-1.539.699-1.27,0-2.259-1.129-2.259-2.548s1.029-2.529,2.339-2.529c.58,0,1.099.23,1.469.67v-.63h1.119v5.187c0,1.29-.839,2.009-2.358,2.009-.72,0-1.419-.18-2.009-.49ZM212.042,141.946v-2.099c-.29-.34-.72-.54-1.189-.54-.859,0-1.499.669-1.499,1.589,0,.91.64,1.599,1.499,1.599.49,0,.9-.2,1.189-.549Z"></path>
      <path d="M214.334,140.906c0-1.469,1.06-2.589,2.438-2.589,1.37,0,2.369,1.089,2.369,2.589v.27h-3.698c.11.81.72,1.399,1.499,1.399.47,0,.91-.18,1.189-.47l.74.669c-.61.51-1.219.73-1.979.73-1.439,0-2.559-1.129-2.559-2.599ZM218.072,140.477c-.12-.73-.64-1.239-1.309-1.239-.68,0-1.179.49-1.309,1.239h2.618Z"></path>
      <path d="M220.084,140.906c0-1.429,1.029-2.549,2.339-2.549.569,0,1.089.23,1.459.65v-2.769l1.129-.2v7.366h-1.119v-.66c-.36.45-.92.709-1.549.709-1.27,0-2.259-1.129-2.259-2.548ZM223.882,141.956v-2.109c-.29-.34-.72-.54-1.189-.54-.859,0-1.499.68-1.499,1.599,0,.909.64,1.599,1.499,1.599.49,0,.9-.19,1.189-.55Z"></path>
      <path d="M229.212,136.409h1.1l-4.008,9.085h-1.089l3.998-9.085Z"></path>
      <path d="M129.32,148.219l1.129-.19v4.498l2.079-2.129h1.299l-2.309,2.319,2.429,2.688h-1.439l-2.059-2.309v2.309h-1.129v-7.186Z"></path>
      <path d="M134.54,153.696v-3.298h1.139v2.968c0,.74.43,1.209,1.1,1.209.45,0,.83-.2,1.089-.6v-3.578h1.129v5.007h-1.129v-.81c-.38.59-.919.89-1.589.89-1.02,0-1.739-.74-1.739-1.789Z"></path>
      <path d="M140.399,148.269l1.129-.19v2.989c.35-.44.909-.71,1.539-.71,1.27,0,2.259,1.129,2.259,2.549,0,1.429-1.02,2.548-2.329,2.548-.59,0-1.109-.24-1.489-.689v.64h-1.109v-7.136ZM144.217,152.906c0-.91-.64-1.599-1.489-1.599-.5,0-.91.2-1.199.56v2.089c.29.35.72.56,1.199.56.859,0,1.489-.689,1.489-1.609Z"></path>
      <path d="M146.279,152.906c0-1.469,1.06-2.589,2.438-2.589,1.37,0,2.369,1.089,2.369,2.589v.27h-3.698c.11.81.72,1.399,1.499,1.399.47,0,.91-.18,1.189-.47l.74.669c-.61.51-1.219.73-1.979.73-1.439,0-2.559-1.129-2.559-2.599ZM150.017,152.477c-.12-.73-.64-1.239-1.309-1.239-.68,0-1.179.49-1.309,1.239h2.618Z"></path>
      <path d="M151.5,150.397h1.229l1.399,3.638,1.39-3.638h1.179l-2.059,5.007h-1.099l-2.039-5.007Z"></path>
      <path d="M157.369,148.688c0-.38.31-.7.7-.7.38,0,.7.32.7.7s-.32.689-.7.689c-.39,0-.7-.31-.7-.689ZM157.499,150.397h1.129v5.007h-1.129v-5.007Z"></path>
      <path d="M160.029,150.397h1.129v1.08c.28-.76.759-1.169,1.379-1.169.19.01.32.03.49.1v.989c-.18-.07-.41-.12-.62-.12-.549,0-.999.31-1.249.83v3.298h-1.129v-5.007Z"></path>
      <path d="M164.579,154.105v-2.809h-1v-.899h1v-1.379l1.129-.24v1.619h1.389v.899h-1.389v2.559c0,.49.19.68.7.68.22,0,.379-.03.68-.12v.949c-.29.09-.67.14-.97.14-1.009,0-1.539-.48-1.539-1.399Z"></path>
      <path d="M167.909,152.086h3.488v.959h-3.488v-.959Z"></path>
      <path d="M172.669,148.239l1.129-.2v3.178c.38-.59.929-.9,1.579-.9,1.029,0,1.749.73,1.749,1.789v3.298h-1.14v-2.979c0-.729-.43-1.199-1.099-1.199-.46,0-.83.21-1.089.61v3.568h-1.129v-7.166Z"></path>
      <path d="M178.189,157.523v-.979c.13.03.29.04.44.04.4,0,.64-.18.81-.569l.23-.56-1.889-5.057h1.25l1.279,3.708,1.389-3.708h1.239l-2.398,5.877c-.39.969-.85,1.319-1.789,1.319-.16,0-.36-.02-.56-.07Z"></path>
      <path d="M183.759,150.397h1.109v.709c.36-.47.919-.75,1.559-.75,1.27,0,2.259,1.129,2.259,2.549,0,1.429-1.02,2.548-2.329,2.548-.59,0-1.109-.22-1.469-.64v2.679h-1.129v-7.096ZM187.577,152.906c0-.91-.64-1.599-1.489-1.599-.5,0-.91.2-1.199.56v2.089c.29.35.72.56,1.199.56.859,0,1.489-.689,1.489-1.609Z"></path>
      <path d="M189.639,152.906c0-1.469,1.06-2.589,2.438-2.589,1.37,0,2.369,1.089,2.369,2.589v.27h-3.698c.11.81.72,1.399,1.499,1.399.47,0,.91-.18,1.189-.47l.74.669c-.61.51-1.219.73-1.979.73-1.439,0-2.559-1.129-2.559-2.599ZM193.376,152.477c-.12-.73-.64-1.239-1.309-1.239-.68,0-1.179.49-1.309,1.239h2.618Z"></path>
      <path d="M195.599,150.397h1.129v1.08c.28-.76.759-1.169,1.379-1.169.19.01.32.03.49.1v.989c-.18-.07-.41-.12-.62-.12-.549,0-.999.31-1.249.83v3.298h-1.129v-5.007Z"></path>
      <path d="M199.069,152.906c0-1.449,1.1-2.589,2.529-2.589.779,0,1.499.31,1.999.85l-.699.729c-.35-.39-.78-.589-1.26-.589-.809,0-1.439.7-1.439,1.599,0,.909.63,1.599,1.439,1.599.48,0,.91-.2,1.26-.58l.699.719c-.5.54-1.219.85-1.999.85-1.429,0-2.529-1.129-2.529-2.588Z"></path>
      <path d="M204.149,152.906c0-1.479,1.08-2.589,2.519-2.589,1.429,0,2.509,1.109,2.509,2.589s-1.08,2.588-2.509,2.588c-1.439,0-2.519-1.109-2.519-2.588ZM208.067,152.906c0-.93-.59-1.629-1.399-1.629-.819,0-1.409.7-1.409,1.629,0,.939.59,1.629,1.409,1.629.81,0,1.399-.689,1.399-1.629Z"></path>
      <path d="M210.349,150.397h1.129v.82c.38-.59.929-.9,1.579-.9,1.029,0,1.749.73,1.749,1.789v3.298h-1.14v-2.979c0-.729-.43-1.199-1.099-1.199-.46,0-.83.21-1.089.61v3.568h-1.129v-5.007Z"></path>
      <path d="M215.359,150.397h1.229l1.399,3.638,1.39-3.638h1.179l-2.059,5.007h-1.099l-2.039-5.007Z"></path>
      <path d="M220.988,152.906c0-1.469,1.06-2.589,2.438-2.589,1.37,0,2.369,1.089,2.369,2.589v.27h-3.698c.11.81.72,1.399,1.499,1.399.47,0,.91-.18,1.189-.47l.74.669c-.61.51-1.219.73-1.979.73-1.439,0-2.559-1.129-2.559-2.599ZM224.726,152.477c-.12-.73-.64-1.239-1.309-1.239-.68,0-1.179.49-1.309,1.239h2.618Z"></path>
      <path d="M226.948,150.397h1.129v1.08c.28-.76.759-1.169,1.379-1.169.19.01.32.03.49.1v.989c-.18-.07-.41-.12-.62-.12-.549,0-.999.31-1.249.83v3.298h-1.129v-5.007Z"></path>
      <path d="M230.978,157.104l.39-.83c.589.29,1.069.419,1.569.419.84,0,1.279-.379,1.279-1.109v-.849c-.36.439-.909.699-1.539.699-1.27,0-2.259-1.129-2.259-2.548s1.029-2.529,2.339-2.529c.58,0,1.099.23,1.469.67v-.63h1.119v5.187c0,1.29-.839,2.009-2.359,2.009-.719,0-1.419-.18-2.009-.49ZM234.216,153.946v-2.099c-.29-.34-.72-.54-1.189-.54-.859,0-1.499.669-1.499,1.589,0,.91.64,1.599,1.499,1.599.49,0,.9-.2,1.189-.549Z"></path>
      <path d="M236.508,152.906c0-1.469,1.06-2.589,2.438-2.589,1.37,0,2.369,1.089,2.369,2.589v.27h-3.698c.11.81.72,1.399,1.499,1.399.47,0,.91-.18,1.189-.47l.74.669c-.61.51-1.219.73-1.979.73-1.439,0-2.559-1.129-2.559-2.599ZM240.246,152.477c-.12-.73-.64-1.239-1.309-1.239-.68,0-1.179.49-1.309,1.239h2.618Z"></path>
      <path d="M242.258,152.906c0-1.429,1.029-2.549,2.339-2.549.569,0,1.089.23,1.459.65v-2.769l1.129-.2v7.366h-1.119v-.66c-.36.45-.919.709-1.549.709-1.27,0-2.259-1.129-2.259-2.548ZM246.056,153.956v-2.109c-.29-.34-.72-.54-1.189-.54-.859,0-1.499.68-1.499,1.599,0,.909.64,1.599,1.499,1.599.49,0,.9-.19,1.189-.55Z"></path>
    </g>
    <g>
      <path d="M448.099,36.159l1.13-.2v3.178c.38-.59.929-.9,1.579-.9,1.029,0,1.749.73,1.749,1.789v3.298h-1.14v-2.979c0-.729-.43-1.199-1.1-1.199-.46,0-.829.21-1.089.61v3.568h-1.13v-7.166Z"></path>
      <path d="M453.688,40.827c0-1.449,1.1-2.589,2.529-2.589.779,0,1.499.31,1.998.85l-.699.729c-.35-.39-.779-.589-1.26-.589-.809,0-1.438.7-1.438,1.599,0,.909.63,1.599,1.438,1.599.48,0,.91-.2,1.26-.58l.699.719c-.499.54-1.219.85-1.998.85-1.43,0-2.529-1.129-2.529-2.588Z"></path>
      <path d="M458.769,40.827c0-1.479,1.08-2.589,2.519-2.589,1.43,0,2.509,1.109,2.509,2.589s-1.079,2.588-2.509,2.588c-1.438,0-2.519-1.109-2.519-2.588ZM462.687,40.827c0-.93-.59-1.629-1.399-1.629-.819,0-1.409.7-1.409,1.629,0,.939.59,1.629,1.409,1.629.81,0,1.399-.689,1.399-1.629Z"></path>
      <path d="M464.929,40.007h3.488v.959h-3.488v-.959Z"></path>
      <path d="M469.559,40.827c0-1.479,1.079-2.589,2.519-2.589,1.429,0,2.509,1.109,2.509,2.589s-1.08,2.588-2.509,2.588c-1.439,0-2.519-1.109-2.519-2.588ZM473.477,40.827c0-.93-.59-1.629-1.399-1.629-.819,0-1.409.7-1.409,1.629,0,.939.59,1.629,1.409,1.629.81,0,1.399-.689,1.399-1.629Z"></path>
      <path d="M475.758,38.318h1.109v.709c.36-.47.92-.75,1.56-.75,1.269,0,2.259,1.129,2.259,2.549,0,1.429-1.02,2.548-2.329,2.548-.59,0-1.109-.22-1.469-.64v2.679h-1.13v-7.096ZM479.576,40.827c0-.91-.64-1.599-1.489-1.599-.5,0-.91.2-1.199.56v2.089c.289.35.72.56,1.199.56.859,0,1.489-.689,1.489-1.609Z"></path>
      <path d="M481.638,40.827c0-1.469,1.06-2.589,2.438-2.589,1.37,0,2.369,1.089,2.369,2.589v.27h-3.698c.11.81.72,1.399,1.499,1.399.47,0,.91-.18,1.189-.47l.74.669c-.61.51-1.22.73-1.979.73-1.438,0-2.559-1.129-2.559-2.599ZM485.376,40.397c-.12-.73-.64-1.239-1.31-1.239-.68,0-1.179.49-1.309,1.239h2.618Z"></path>
      <path d="M487.598,38.318h1.13v1.08c.279-.76.759-1.169,1.379-1.169.189.01.319.03.489.1v.989c-.18-.07-.409-.12-.619-.12-.55,0-1,.31-1.249.83v3.298h-1.13v-5.007Z"></path>
      <path d="M491.118,41.886c0-.899.739-1.469,1.919-1.469.47,0,.909.1,1.35.32v-.56c0-.66-.38-1-1.149-1-.42,0-.88.12-1.459.39l-.4-.82c.75-.34,1.409-.51,2.079-.51,1.31,0,2.049.66,2.049,1.819v3.268h-1.119v-.52c-.43.419-.91.609-1.489.609-1.05,0-1.779-.629-1.779-1.529ZM493.207,42.616c.45,0,.84-.13,1.18-.42v-.81c-.36-.17-.72-.24-1.149-.24-.649,0-1.06.27-1.06.72,0,.459.399.75,1.029.75Z"></path>
      <path d="M497.348,42.026v-2.809h-1v-.899h1v-1.379l1.129-.24v1.619h1.39v.899h-1.39v2.559c0,.49.19.68.7.68.22,0,.379-.03.68-.12v.949c-.29.09-.67.14-.97.14-1.01,0-1.539-.48-1.539-1.399Z"></path>
      <path d="M500.558,40.827c0-1.479,1.08-2.589,2.519-2.589,1.43,0,2.509,1.109,2.509,2.589s-1.079,2.588-2.509,2.588c-1.438,0-2.519-1.109-2.519-2.588ZM504.476,40.827c0-.93-.59-1.629-1.399-1.629-.819,0-1.409.7-1.409,1.629,0,.939.59,1.629,1.409,1.629.81,0,1.399-.689,1.399-1.629Z"></path>
      <path d="M506.758,38.318h1.129v1.08c.28-.76.76-1.169,1.379-1.169.19.01.32.03.49.1v.989c-.18-.07-.41-.12-.62-.12-.549,0-.999.31-1.249.83v3.298h-1.129v-5.007Z"></path>
    </g>
    <g>
      <path d="M447.464,78.174l1.13-.2v3.178c.38-.59.929-.9,1.579-.9,1.029,0,1.749.73,1.749,1.789v3.298h-1.14v-2.979c0-.729-.43-1.199-1.1-1.199-.46,0-.829.21-1.089.61v3.568h-1.13v-7.166Z"></path>
      <path d="M453.054,82.841c0-1.449,1.1-2.589,2.529-2.589.779,0,1.499.31,1.998.85l-.699.729c-.35-.39-.779-.589-1.26-.589-.809,0-1.438.7-1.438,1.599,0,.909.63,1.599,1.438,1.599.48,0,.91-.2,1.26-.58l.699.719c-.499.54-1.219.85-1.998.85-1.43,0-2.529-1.129-2.529-2.588Z"></path>
      <path d="M458.134,82.841c0-1.479,1.08-2.589,2.519-2.589,1.43,0,2.509,1.109,2.509,2.589s-1.079,2.588-2.509,2.588c-1.438,0-2.519-1.109-2.519-2.588ZM462.052,82.841c0-.93-.59-1.629-1.399-1.629-.819,0-1.409.7-1.409,1.629,0,.939.59,1.629,1.409,1.629.81,0,1.399-.689,1.399-1.629Z"></path>
      <path d="M464.294,82.021h3.488v.959h-3.488v-.959Z"></path>
      <path d="M468.584,80.332h1.079l.88,3.528,1.039-3.528h.949l1.029,3.528.88-3.528h1.05l-1.35,5.007h-1.079l-1.02-3.528-1.01,3.528h-1.1l-1.349-5.007Z"></path>
      <path d="M476.084,82.841c0-1.469,1.06-2.589,2.438-2.589,1.369,0,2.368,1.089,2.368,2.589v.27h-3.697c.109.81.72,1.399,1.499,1.399.47,0,.909-.18,1.189-.47l.739.669c-.609.51-1.219.73-1.979.73-1.439,0-2.559-1.129-2.559-2.599ZM479.821,82.412c-.119-.73-.64-1.239-1.309-1.239-.68,0-1.18.49-1.31,1.239h2.618Z"></path>
      <path d="M482.044,78.204l1.129-.19v2.989c.35-.44.909-.71,1.539-.71,1.27,0,2.259,1.129,2.259,2.549,0,1.429-1.02,2.548-2.328,2.548-.59,0-1.109-.24-1.489-.689v.64h-1.109v-7.136ZM485.861,82.841c0-.91-.64-1.599-1.489-1.599-.499,0-.909.2-1.199.56v2.089c.29.35.72.56,1.199.56.859,0,1.489-.689,1.489-1.609Z"></path>
      <path d="M488.153,78.174l1.13-.2v3.178c.38-.59.929-.9,1.579-.9,1.029,0,1.749.73,1.749,1.789v3.298h-1.14v-2.979c0-.729-.43-1.199-1.1-1.199-.46,0-.829.21-1.089.61v3.568h-1.13v-7.166Z"></path>
      <path d="M493.743,82.841c0-1.479,1.08-2.589,2.519-2.589,1.43,0,2.509,1.109,2.509,2.589s-1.079,2.588-2.509,2.588c-1.438,0-2.519-1.109-2.519-2.588ZM497.661,82.841c0-.93-.59-1.629-1.399-1.629-.819,0-1.409.7-1.409,1.629,0,.939.59,1.629,1.409,1.629.81,0,1.399-.689,1.399-1.629Z"></path>
      <path d="M499.713,82.841c0-1.479,1.08-2.589,2.519-2.589,1.43,0,2.509,1.109,2.509,2.589s-1.079,2.588-2.509,2.588c-1.438,0-2.519-1.109-2.519-2.588ZM503.631,82.841c0-.93-.59-1.629-1.399-1.629-.819,0-1.409.7-1.409,1.629,0,.939.59,1.629,1.409,1.629.81,0,1.399-.689,1.399-1.629Z"></path>
      <path d="M505.913,78.154l1.129-.19v4.498l2.079-2.129h1.299l-2.309,2.319,2.429,2.688h-1.439l-2.059-2.309v2.309h-1.129v-7.186Z"></path>
    </g>
    <g>
      <path d="M390.66,120.187l1.129-.2v3.178c.38-.59.93-.9,1.579-.9,1.029,0,1.749.73,1.749,1.789v3.298h-1.14v-2.979c0-.729-.43-1.199-1.099-1.199-.46,0-.83.21-1.09.61v3.568h-1.129v-7.166Z"></path>
      <path d="M396.18,129.472v-.979c.13.03.29.04.439.04.4,0,.64-.18.81-.569l.23-.56-1.89-5.057h1.25l1.279,3.708,1.389-3.708h1.239l-2.398,5.877c-.39.969-.85,1.319-1.789,1.319-.16,0-.359-.02-.56-.07Z"></path>
      <path d="M401.75,122.346h1.109v.709c.359-.47.919-.75,1.559-.75,1.27,0,2.259,1.129,2.259,2.549,0,1.429-1.02,2.548-2.328,2.548-.59,0-1.109-.22-1.47-.64v2.679h-1.129v-7.096ZM405.567,124.855c0-.91-.64-1.599-1.489-1.599-.499,0-.909.2-1.199.56v2.089c.29.35.72.56,1.199.56.859,0,1.489-.689,1.489-1.609Z"></path>
      <path d="M407.63,124.855c0-1.469,1.06-2.589,2.438-2.589,1.369,0,2.368,1.089,2.368,2.589v.27h-3.697c.109.81.72,1.399,1.499,1.399.47,0,.909-.18,1.189-.47l.739.669c-.609.51-1.219.73-1.979.73-1.439,0-2.559-1.129-2.559-2.599ZM411.367,124.425c-.119-.73-.64-1.239-1.309-1.239-.68,0-1.18.49-1.31,1.239h2.618Z"></path>
      <path d="M413.59,122.346h1.129v1.08c.28-.76.76-1.169,1.379-1.169.19.01.32.03.49.1v.989c-.18-.07-.41-.12-.62-.12-.549,0-.999.31-1.249.83v3.298h-1.129v-5.007Z"></path>
      <path d="M417.06,124.855c0-1.449,1.1-2.589,2.529-2.589.779,0,1.499.31,1.998.85l-.699.729c-.35-.39-.779-.589-1.26-.589-.809,0-1.438.7-1.438,1.599,0,.909.63,1.599,1.438,1.599.48,0,.91-.2,1.26-.58l.699.719c-.499.54-1.219.85-1.998.85-1.43,0-2.529-1.129-2.529-2.588Z"></path>
      <path d="M422.14,124.855c0-1.479,1.079-2.589,2.519-2.589,1.429,0,2.509,1.109,2.509,2.589s-1.08,2.588-2.509,2.588c-1.439,0-2.519-1.109-2.519-2.588ZM426.058,124.855c0-.93-.59-1.629-1.399-1.629-.819,0-1.409.7-1.409,1.629,0,.939.59,1.629,1.409,1.629.81,0,1.399-.689,1.399-1.629Z"></path>
      <path d="M428.34,122.346h1.129v.82c.38-.59.93-.9,1.579-.9,1.029,0,1.749.73,1.749,1.789v3.298h-1.14v-2.979c0-.729-.43-1.199-1.099-1.199-.46,0-.83.21-1.09.61v3.568h-1.129v-5.007Z"></path>
      <path d="M433.35,122.346h1.229l1.398,3.638,1.39-3.638h1.18l-2.06,5.007h-1.099l-2.039-5.007Z"></path>
      <path d="M438.979,124.855c0-1.469,1.06-2.589,2.438-2.589,1.369,0,2.368,1.089,2.368,2.589v.27h-3.697c.109.81.72,1.399,1.499,1.399.47,0,.909-.18,1.189-.47l.739.669c-.609.51-1.219.73-1.979.73-1.439,0-2.559-1.129-2.559-2.599ZM442.717,124.425c-.119-.73-.64-1.239-1.309-1.239-.68,0-1.18.49-1.31,1.239h2.618Z"></path>
      <path d="M444.939,122.346h1.129v1.08c.28-.76.76-1.169,1.379-1.169.19.01.32.03.49.1v.989c-.18-.07-.41-.12-.62-.12-.549,0-.999.31-1.249.83v3.298h-1.129v-5.007Z"></path>
      <path d="M448.969,129.053l.391-.83c.589.29,1.069.419,1.568.419.84,0,1.279-.379,1.279-1.109v-.849c-.359.439-.909.699-1.539.699-1.27,0-2.259-1.129-2.259-2.548s1.029-2.529,2.339-2.529c.58,0,1.1.23,1.47.67v-.63h1.119v5.187c0,1.29-.84,2.009-2.359,2.009-.719,0-1.419-.18-2.009-.49ZM452.207,125.894v-2.099c-.289-.34-.72-.54-1.189-.54-.859,0-1.499.669-1.499,1.589,0,.91.64,1.599,1.499,1.599.49,0,.9-.2,1.189-.549Z"></path>
      <path d="M454.499,124.855c0-1.469,1.06-2.589,2.438-2.589,1.37,0,2.369,1.089,2.369,2.589v.27h-3.698c.11.81.72,1.399,1.499,1.399.47,0,.91-.18,1.189-.47l.74.669c-.61.51-1.22.73-1.979.73-1.438,0-2.559-1.129-2.559-2.599ZM458.237,124.425c-.12-.73-.64-1.239-1.31-1.239-.68,0-1.179.49-1.309,1.239h2.618Z"></path>
      <path d="M460.249,124.855c0-1.429,1.029-2.549,2.339-2.549.569,0,1.09.23,1.459.65v-2.769l1.13-.2v7.366h-1.119v-.66c-.36.45-.92.709-1.55.709-1.27,0-2.259-1.129-2.259-2.548ZM464.047,125.904v-2.109c-.289-.34-.72-.54-1.189-.54-.859,0-1.499.68-1.499,1.599,0,.909.64,1.599,1.499,1.599.49,0,.9-.19,1.189-.55Z"></path>
      <path d="M466.438,124.035h3.488v.959h-3.488v-.959Z"></path>
      <path d="M471.068,124.855c0-1.449,1.1-2.589,2.529-2.589.779,0,1.499.31,1.998.85l-.699.729c-.35-.39-.779-.589-1.26-.589-.809,0-1.438.7-1.438,1.599,0,.909.63,1.599,1.438,1.599.48,0,.91-.2,1.26-.58l.699.719c-.499.54-1.219.85-1.998.85-1.43,0-2.529-1.129-2.529-2.588Z"></path>
      <path d="M476.528,120.187l1.13-.2v7.366h-1.13v-7.166Z"></path>
      <path d="M479.009,125.644v-3.298h1.139v2.968c0,.74.431,1.209,1.1,1.209.45,0,.83-.2,1.09-.6v-3.578h1.129v5.007h-1.129v-.81c-.38.59-.92.89-1.59.89-1.019,0-1.738-.74-1.738-1.789Z"></path>
      <path d="M484.419,126.774l.529-.75c.659.41,1.1.569,1.609.569.6,0,1.009-.28,1.009-.68,0-.31-.209-.47-.699-.569l-.88-.15c-.979-.18-1.449-.63-1.449-1.379,0-.939.77-1.549,1.939-1.549.699,0,1.329.2,1.969.6l-.529.75c-.51-.33-1-.48-1.51-.48-.52,0-.859.22-.859.58,0,.32.18.46.699.55l.89.17c1,.18,1.479.64,1.479,1.389,0,.919-.88,1.629-2.049,1.629-.859,0-1.619-.24-2.148-.68Z"></path>
      <path d="M490.178,126.054v-2.809h-.999v-.899h.999v-1.379l1.13-.24v1.619h1.389v.899h-1.389v2.559c0,.49.189.68.699.68.22,0,.38-.03.68-.12v.949c-.29.09-.67.14-.97.14-1.009,0-1.539-.48-1.539-1.399Z"></path>
      <path d="M493.389,124.855c0-1.469,1.06-2.589,2.438-2.589,1.369,0,2.368,1.089,2.368,2.589v.27h-3.697c.109.81.72,1.399,1.499,1.399.47,0,.909-.18,1.189-.47l.739.669c-.609.51-1.219.73-1.979.73-1.439,0-2.559-1.129-2.559-2.599ZM497.126,124.425c-.119-.73-.64-1.239-1.309-1.239-.68,0-1.18.49-1.31,1.239h2.618Z"></path>
      <path d="M499.349,122.346h1.129v1.08c.28-.76.76-1.169,1.379-1.169.19.01.32.03.49.1v.989c-.18-.07-.41-.12-.62-.12-.549,0-.999.31-1.249.83v3.298h-1.129v-5.007Z"></path>
      <path d="M502.988,124.035h3.488v.959h-3.488v-.959Z"></path>
      <path d="M507.618,124.855c0-1.449,1.1-2.589,2.529-2.589.779,0,1.499.31,1.998.85l-.699.729c-.35-.39-.779-.589-1.26-.589-.809,0-1.438.7-1.438,1.599,0,.909.63,1.599,1.438,1.599.48,0,.91-.2,1.26-.58l.699.719c-.499.54-1.219.85-1.998.85-1.43,0-2.529-1.129-2.529-2.588Z"></path>
      <path d="M513.078,120.187l1.129-.2v7.366h-1.129v-7.166Z"></path>
      <path d="M515.458,120.637c0-.38.31-.7.699-.7.38,0,.7.32.7.7s-.32.689-.7.689c-.39,0-.699-.31-.699-.689ZM515.588,122.346h1.129v5.007h-1.129v-5.007Z"></path>
      <path d="M517.978,124.035h3.488v.959h-3.488v-.959Z"></path>
      <path d="M522.608,124.855c0-1.429,1.029-2.549,2.339-2.549.569,0,1.089.23,1.459.65v-2.769l1.129-.2v7.366h-1.119v-.66c-.359.45-.92.709-1.549.709-1.27,0-2.259-1.129-2.259-2.548ZM526.406,125.904v-2.109c-.29-.34-.72-.54-1.189-.54-.859,0-1.499.68-1.499,1.599,0,.909.64,1.599,1.499,1.599.489,0,.899-.19,1.189-.55Z"></path>
      <path d="M528.708,124.855c0-1.479,1.079-2.589,2.519-2.589,1.429,0,2.509,1.109,2.509,2.589s-1.08,2.588-2.509,2.588c-1.439,0-2.519-1.109-2.519-2.588ZM532.626,124.855c0-.93-.59-1.629-1.399-1.629-.819,0-1.409.7-1.409,1.629,0,.939.59,1.629,1.409,1.629.81,0,1.399-.689,1.399-1.629Z"></path>
      <path d="M534.338,122.346h1.079l.88,3.528,1.039-3.528h.95l1.029,3.528.879-3.528h1.05l-1.35,5.007h-1.079l-1.02-3.528-1.009,3.528h-1.1l-1.35-5.007Z"></path>
      <path d="M542.168,122.346h1.129v.82c.38-.59.93-.9,1.579-.9,1.029,0,1.749.73,1.749,1.789v3.298h-1.14v-2.979c0-.729-.43-1.199-1.099-1.199-.46,0-.83.21-1.09.61v3.568h-1.129v-5.007Z"></path>
      <path d="M547.987,120.187l1.13-.2v7.366h-1.13v-7.166Z"></path>
      <path d="M550.277,124.855c0-1.479,1.08-2.589,2.519-2.589,1.43,0,2.509,1.109,2.509,2.589s-1.079,2.588-2.509,2.588c-1.438,0-2.519-1.109-2.519-2.588ZM554.195,124.855c0-.93-.59-1.629-1.399-1.629-.819,0-1.409.7-1.409,1.629,0,.939.59,1.629,1.409,1.629.81,0,1.399-.689,1.399-1.629Z"></path>
      <path d="M556.268,125.914c0-.899.739-1.469,1.919-1.469.47,0,.909.1,1.349.32v-.56c0-.66-.38-1-1.149-1-.42,0-.879.12-1.459.39l-.399-.82c.749-.34,1.409-.51,2.078-.51,1.31,0,2.049.66,2.049,1.819v3.268h-1.119v-.52c-.43.419-.909.609-1.489.609-1.049,0-1.778-.629-1.778-1.529ZM558.356,126.644c.449,0,.839-.13,1.179-.42v-.81c-.359-.17-.72-.24-1.149-.24-.649,0-1.06.27-1.06.72,0,.459.4.75,1.03.75Z"></path>
      <path d="M561.797,124.855c0-1.429,1.029-2.549,2.339-2.549.569,0,1.09.23,1.459.65v-2.769l1.13-.2v7.366h-1.119v-.66c-.36.45-.92.709-1.55.709-1.27,0-2.259-1.129-2.259-2.548ZM565.595,125.904v-2.109c-.289-.34-.72-.54-1.189-.54-.859,0-1.499.68-1.499,1.599,0,.909.64,1.599,1.499,1.599.49,0,.9-.19,1.189-.55Z"></path>
    </g>
    <g>
      <path d="M449.504,166.87c0-1.449,1.1-2.589,2.529-2.589.779,0,1.499.31,1.998.85l-.699.729c-.35-.39-.779-.589-1.26-.589-.809,0-1.438.7-1.438,1.599,0,.909.63,1.599,1.438,1.599.48,0,.91-.2,1.26-.58l.699.719c-.499.54-1.219.85-1.998.85-1.43,0-2.529-1.129-2.529-2.588Z"></path>
      <path d="M454.584,166.87c0-1.429,1.029-2.549,2.339-2.549.569,0,1.09.23,1.459.65v-2.769l1.13-.2v7.366h-1.119v-.66c-.36.45-.92.709-1.55.709-1.27,0-2.259-1.129-2.259-2.548ZM458.382,167.919v-2.109c-.289-.34-.72-.54-1.189-.54-.859,0-1.499.68-1.499,1.599,0,.909.64,1.599,1.499,1.599.49,0,.9-.19,1.189-.55Z"></path>
      <path d="M460.773,162.652c0-.38.311-.7.7-.7.38,0,.699.32.699.7s-.319.689-.699.689c-.39,0-.7-.31-.7-.689ZM460.903,164.361h1.13v5.007h-1.13v-5.007Z"></path>
      <path d="M463.294,166.05h3.488v.959h-3.488v-.959Z"></path>
      <path d="M467.924,166.87c0-1.479,1.079-2.589,2.519-2.589,1.429,0,2.509,1.109,2.509,2.589s-1.08,2.588-2.509,2.588c-1.439,0-2.519-1.109-2.519-2.588ZM471.842,166.87c0-.93-.59-1.629-1.399-1.629-.819,0-1.409.7-1.409,1.629,0,.939.59,1.629,1.409,1.629.81,0,1.399-.689,1.399-1.629Z"></path>
      <path d="M474.124,164.361h1.109v.709c.359-.47.919-.75,1.559-.75,1.27,0,2.259,1.129,2.259,2.549,0,1.429-1.02,2.548-2.328,2.548-.59,0-1.109-.22-1.47-.64v2.679h-1.129v-7.096ZM477.941,166.87c0-.91-.64-1.599-1.489-1.599-.499,0-.909.2-1.199.56v2.089c.29.35.72.56,1.199.56.859,0,1.489-.689,1.489-1.609Z"></path>
      <path d="M480.004,166.87c0-1.469,1.06-2.589,2.438-2.589,1.369,0,2.368,1.089,2.368,2.589v.27h-3.697c.109.81.72,1.399,1.499,1.399.47,0,.909-.18,1.189-.47l.739.669c-.609.51-1.219.73-1.979.73-1.439,0-2.559-1.129-2.559-2.599ZM483.741,166.44c-.119-.73-.64-1.239-1.309-1.239-.68,0-1.18.49-1.31,1.239h2.618Z"></path>
      <path d="M485.964,164.361h1.129v1.08c.28-.76.76-1.169,1.379-1.169.19.01.32.03.49.1v.989c-.18-.07-.41-.12-.62-.12-.549,0-.999.31-1.249.83v3.298h-1.129v-5.007Z"></path>
      <path d="M489.483,167.929c0-.899.739-1.469,1.919-1.469.47,0,.909.1,1.35.32v-.56c0-.66-.38-1-1.149-1-.42,0-.88.12-1.459.39l-.4-.82c.75-.34,1.409-.51,2.079-.51,1.31,0,2.049.66,2.049,1.819v3.268h-1.119v-.52c-.43.419-.91.609-1.489.609-1.05,0-1.779-.629-1.779-1.529ZM491.572,168.659c.45,0,.84-.13,1.18-.42v-.81c-.36-.17-.72-.24-1.149-.24-.649,0-1.06.27-1.06.72,0,.459.399.75,1.029.75Z"></path>
      <path d="M495.713,168.069v-2.809h-.999v-.899h.999v-1.379l1.13-.24v1.619h1.389v.899h-1.389v2.559c0,.49.189.68.699.68.22,0,.38-.03.68-.12v.949c-.29.09-.67.14-.97.14-1.009,0-1.539-.48-1.539-1.399Z"></path>
      <path d="M498.923,166.87c0-1.479,1.08-2.589,2.519-2.589,1.43,0,2.509,1.109,2.509,2.589s-1.079,2.588-2.509,2.588c-1.438,0-2.519-1.109-2.519-2.588ZM502.841,166.87c0-.93-.59-1.629-1.399-1.629-.819,0-1.409.7-1.409,1.629,0,.939.59,1.629,1.409,1.629.81,0,1.399-.689,1.399-1.629Z"></path>
      <path d="M505.123,164.361h1.13v1.08c.279-.76.759-1.169,1.379-1.169.189.01.319.03.489.1v.989c-.18-.07-.409-.12-.619-.12-.55,0-1,.31-1.249.83v3.298h-1.13v-5.007Z"></path>
    </g>
    <g>
      <path d="M399.75,208.884c0-1.449,1.1-2.589,2.528-2.589.779,0,1.499.31,1.999.85l-.699.729c-.351-.39-.78-.589-1.26-.589-.81,0-1.439.7-1.439,1.599,0,.909.63,1.599,1.439,1.599.479,0,.909-.2,1.26-.58l.699.719c-.5.54-1.22.85-1.999.85-1.429,0-2.528-1.129-2.528-2.588Z"></path>
      <path d="M405.21,204.216l1.129-.2v7.366h-1.129v-7.166Z"></path>
      <path d="M407.689,209.673v-3.298h1.14v2.968c0,.74.43,1.209,1.1,1.209.449,0,.829-.2,1.089-.6v-3.578h1.13v5.007h-1.13v-.81c-.38.59-.919.89-1.589.89-1.02,0-1.739-.74-1.739-1.789Z"></path>
      <path d="M413.1,210.803l.53-.75c.659.41,1.099.569,1.608.569.6,0,1.01-.28,1.01-.68,0-.31-.21-.47-.699-.569l-.88-.15c-.979-.18-1.449-.63-1.449-1.379,0-.939.77-1.549,1.938-1.549.7,0,1.33.2,1.97.6l-.53.75c-.51-.33-.999-.48-1.509-.48-.52,0-.859.22-.859.58,0,.32.18.46.699.55l.89.17c.999.18,1.479.64,1.479,1.389,0,.919-.88,1.629-2.05,1.629-.859,0-1.618-.24-2.148-.68Z"></path>
      <path d="M418.859,210.083v-2.809h-1v-.899h1v-1.379l1.129-.24v1.619h1.39v.899h-1.39v2.559c0,.49.19.68.7.68.22,0,.379-.03.68-.12v.949c-.29.09-.67.14-.97.14-1.01,0-1.539-.48-1.539-1.399Z"></path>
      <path d="M422.069,208.884c0-1.469,1.06-2.589,2.438-2.589,1.37,0,2.369,1.089,2.369,2.589v.27h-3.698c.11.81.72,1.399,1.499,1.399.47,0,.91-.18,1.189-.47l.74.669c-.61.51-1.22.73-1.979.73-1.438,0-2.559-1.129-2.559-2.599ZM425.808,208.454c-.12-.73-.64-1.239-1.31-1.239-.68,0-1.179.49-1.309,1.239h2.618Z"></path>
      <path d="M428.029,206.375h1.13v1.08c.279-.76.759-1.169,1.379-1.169.189.01.319.03.489.1v.989c-.18-.07-.409-.12-.619-.12-.55,0-1,.31-1.249.83v3.298h-1.13v-5.007Z"></path>
      <path d="M431.669,208.064h3.488v.959h-3.488v-.959Z"></path>
      <path d="M436.429,206.375h1.13v.82c.38-.59.929-.9,1.579-.9,1.029,0,1.749.73,1.749,1.789v3.298h-1.14v-2.979c0-.729-.43-1.199-1.1-1.199-.46,0-.829.21-1.089.61v3.568h-1.13v-5.007Z"></path>
      <path d="M442.019,208.884c0-1.469,1.06-2.589,2.438-2.589,1.37,0,2.369,1.089,2.369,2.589v.27h-3.698c.11.81.72,1.399,1.499,1.399.47,0,.91-.18,1.189-.47l.74.669c-.61.51-1.22.73-1.979.73-1.438,0-2.559-1.129-2.559-2.599ZM445.757,208.454c-.12-.73-.64-1.239-1.31-1.239-.68,0-1.179.49-1.309,1.239h2.618Z"></path>
      <path d="M448.448,210.083v-2.809h-.999v-.899h.999v-1.379l1.13-.24v1.619h1.389v.899h-1.389v2.559c0,.49.189.68.699.68.22,0,.38-.03.68-.12v.949c-.29.09-.67.14-.97.14-1.009,0-1.539-.48-1.539-1.399Z"></path>
      <path d="M451.599,206.375h1.079l.88,3.528,1.039-3.528h.95l1.029,3.528.879-3.528h1.05l-1.35,5.007h-1.079l-1.02-3.528-1.009,3.528h-1.1l-1.35-5.007Z"></path>
      <path d="M459.099,208.884c0-1.479,1.08-2.589,2.519-2.589,1.43,0,2.509,1.109,2.509,2.589s-1.079,2.588-2.509,2.588c-1.438,0-2.519-1.109-2.519-2.588ZM463.017,208.884c0-.93-.59-1.629-1.399-1.629-.819,0-1.409.7-1.409,1.629,0,.939.59,1.629,1.409,1.629.81,0,1.399-.689,1.399-1.629Z"></path>
      <path d="M465.299,206.375h1.129v1.08c.28-.76.76-1.169,1.379-1.169.19.01.32.03.49.1v.989c-.18-.07-.41-.12-.62-.12-.549,0-.999.31-1.249.83v3.298h-1.129v-5.007Z"></path>
      <path d="M469.229,204.196l1.13-.19v4.498l2.078-2.129h1.3l-2.309,2.319,2.429,2.688h-1.439l-2.059-2.309v2.309h-1.13v-7.186Z"></path>
      <path d="M474.148,208.064h3.488v.959h-3.488v-.959Z"></path>
      <path d="M478.648,209.943c0-.899.739-1.469,1.919-1.469.47,0,.909.1,1.35.32v-.56c0-.66-.38-1-1.149-1-.42,0-.88.12-1.459.39l-.4-.82c.75-.34,1.409-.51,2.079-.51,1.31,0,2.049.66,2.049,1.819v3.268h-1.119v-.52c-.43.419-.91.609-1.489.609-1.05,0-1.779-.629-1.779-1.529ZM480.737,210.673c.45,0,.84-.13,1.18-.42v-.81c-.36-.17-.72-.24-1.149-.24-.649,0-1.06.27-1.06.72,0,.459.399.75,1.029.75Z"></path>
      <path d="M484.179,208.884c0-1.429,1.029-2.549,2.339-2.549.569,0,1.089.23,1.459.65v-2.769l1.129-.2v7.366h-1.119v-.66c-.359.45-.92.709-1.549.709-1.27,0-2.259-1.129-2.259-2.548ZM487.977,209.933v-2.109c-.29-.34-.72-.54-1.189-.54-.859,0-1.499.68-1.499,1.599,0,.909.64,1.599,1.499,1.599.489,0,.899-.19,1.189-.55Z"></path>
      <path d="M490.278,208.884c0-1.429,1.029-2.549,2.339-2.549.569,0,1.089.23,1.459.65v-2.769l1.129-.2v7.366h-1.119v-.66c-.359.45-.92.709-1.549.709-1.27,0-2.259-1.129-2.259-2.548ZM494.076,209.933v-2.109c-.29-.34-.72-.54-1.189-.54-.859,0-1.499.68-1.499,1.599,0,.909.64,1.599,1.499,1.599.489,0,.899-.19,1.189-.55Z"></path>
      <path d="M496.378,208.884c0-1.479,1.08-2.589,2.519-2.589,1.43,0,2.509,1.109,2.509,2.589s-1.079,2.588-2.509,2.588c-1.438,0-2.519-1.109-2.519-2.588ZM500.296,208.884c0-.93-.59-1.629-1.399-1.629-.819,0-1.409.7-1.409,1.629,0,.939.59,1.629,1.409,1.629.81,0,1.399-.689,1.399-1.629Z"></path>
      <path d="M502.578,206.375h1.129v.82c.38-.59.93-.9,1.579-.9,1.029,0,1.749.73,1.749,1.789v3.298h-1.14v-2.979c0-.729-.43-1.199-1.099-1.199-.46,0-.83.21-1.09.61v3.568h-1.129v-5.007Z"></path>
      <path d="M507.948,210.803l.529-.75c.659.41,1.1.569,1.609.569.6,0,1.009-.28,1.009-.68,0-.31-.209-.47-.699-.569l-.88-.15c-.979-.18-1.449-.63-1.449-1.379,0-.939.77-1.549,1.939-1.549.699,0,1.329.2,1.969.6l-.529.75c-.51-.33-1-.48-1.51-.48-.52,0-.859.22-.859.58,0,.32.18.46.699.55l.89.17c1,.18,1.479.64,1.479,1.389,0,.919-.88,1.629-2.049,1.629-.859,0-1.619-.24-2.148-.68Z"></path>
      <path d="M513.048,208.064h3.488v.959h-3.488v-.959Z"></path>
      <path d="M517.678,208.884c0-1.479,1.079-2.589,2.519-2.589,1.429,0,2.509,1.109,2.509,2.589s-1.08,2.588-2.509,2.588c-1.439,0-2.519-1.109-2.519-2.588ZM521.596,208.884c0-.93-.59-1.629-1.399-1.629-.819,0-1.409.7-1.409,1.629,0,.939.59,1.629,1.409,1.629.81,0,1.399-.689,1.399-1.629Z"></path>
      <path d="M523.877,206.375h1.109v.709c.36-.47.92-.75,1.56-.75,1.269,0,2.259,1.129,2.259,2.549,0,1.429-1.02,2.548-2.329,2.548-.59,0-1.109-.22-1.469-.64v2.679h-1.13v-7.096ZM527.695,208.884c0-.91-.64-1.599-1.489-1.599-.5,0-.91.2-1.199.56v2.089c.289.35.72.56,1.199.56.859,0,1.489-.689,1.489-1.609Z"></path>
      <path d="M529.757,208.884c0-1.469,1.06-2.589,2.438-2.589,1.37,0,2.369,1.089,2.369,2.589v.27h-3.698c.11.81.72,1.399,1.499,1.399.47,0,.91-.18,1.189-.47l.74.669c-.61.51-1.22.73-1.979.73-1.438,0-2.559-1.129-2.559-2.599ZM533.495,208.454c-.12-.73-.64-1.239-1.31-1.239-.68,0-1.179.49-1.309,1.239h2.618Z"></path>
      <path d="M535.717,206.375h1.13v1.08c.279-.76.759-1.169,1.379-1.169.189.01.319.03.489.1v.989c-.18-.07-.409-.12-.619-.12-.55,0-1,.31-1.249.83v3.298h-1.13v-5.007Z"></path>
      <path d="M539.237,209.943c0-.899.739-1.469,1.919-1.469.47,0,.909.1,1.35.32v-.56c0-.66-.38-1-1.149-1-.42,0-.88.12-1.459.39l-.4-.82c.75-.34,1.409-.51,2.079-.51,1.31,0,2.049.66,2.049,1.819v3.268h-1.119v-.52c-.43.419-.91.609-1.489.609-1.05,0-1.779-.629-1.779-1.529ZM541.326,210.673c.45,0,.84-.13,1.18-.42v-.81c-.36-.17-.72-.24-1.149-.24-.649,0-1.06.27-1.06.72,0,.459.399.75,1.029.75Z"></path>
      <path d="M545.467,210.083v-2.809h-1v-.899h1v-1.379l1.129-.24v1.619h1.39v.899h-1.39v2.559c0,.49.19.68.7.68.22,0,.379-.03.68-.12v.949c-.29.09-.67.14-.97.14-1.01,0-1.539-.48-1.539-1.399Z"></path>
      <path d="M548.677,208.884c0-1.479,1.08-2.589,2.519-2.589,1.43,0,2.509,1.109,2.509,2.589s-1.079,2.588-2.509,2.588c-1.438,0-2.519-1.109-2.519-2.588ZM552.595,208.884c0-.93-.59-1.629-1.399-1.629-.819,0-1.409.7-1.409,1.629,0,.939.59,1.629,1.409,1.629.81,0,1.399-.689,1.399-1.629Z"></path>
      <path d="M554.877,206.375h1.129v1.08c.28-.76.76-1.169,1.379-1.169.19.01.32.03.49.1v.989c-.18-.07-.41-.12-.62-.12-.549,0-.999.31-1.249.83v3.298h-1.129v-5.007Z"></path>
    </g>
    <g>
      <path d="M407.14,246.231l1.13-.2v3.179c.38-.59.929-.9,1.579-.9,1.029,0,1.749.73,1.749,1.789v3.299h-1.14v-2.979c0-.729-.43-1.199-1.1-1.199-.46,0-.829.21-1.089.609v3.568h-1.13v-7.166Z"></path>
      <path d="M412.729,250.898c0-1.479,1.08-2.589,2.519-2.589,1.43,0,2.509,1.109,2.509,2.589s-1.079,2.589-2.509,2.589c-1.438,0-2.519-1.109-2.519-2.589ZM416.647,250.898c0-.93-.59-1.629-1.399-1.629-.819,0-1.409.699-1.409,1.629,0,.939.59,1.629,1.409,1.629.81,0,1.399-.689,1.399-1.629Z"></path>
      <path d="M418.479,252.817l.53-.749c.659.409,1.099.569,1.608.569.6,0,1.01-.28,1.01-.68,0-.31-.21-.47-.699-.569l-.88-.15c-.979-.18-1.449-.63-1.449-1.379,0-.939.77-1.55,1.938-1.55.7,0,1.33.2,1.97.601l-.53.749c-.51-.33-.999-.479-1.509-.479-.52,0-.859.22-.859.579,0,.32.18.46.699.55l.89.17c.999.181,1.479.64,1.479,1.39,0,.919-.88,1.629-2.05,1.629-.859,0-1.618-.24-2.148-.68Z"></path>
      <path d="M424.239,252.097v-2.809h-1v-.899h1v-1.379l1.129-.24v1.619h1.39v.899h-1.39v2.559c0,.49.19.68.7.68.22,0,.379-.029.68-.119v.949c-.29.09-.67.14-.97.14-1.01,0-1.539-.479-1.539-1.399Z"></path>
      <path d="M427.76,248.389h1.109v.71c.359-.47.919-.75,1.559-.75,1.27,0,2.259,1.13,2.259,2.549,0,1.43-1.02,2.549-2.328,2.549-.59,0-1.109-.22-1.47-.64v2.679h-1.129v-7.097ZM431.577,250.898c0-.909-.64-1.599-1.489-1.599-.499,0-.909.199-1.199.56v2.089c.29.35.72.56,1.199.56.859,0,1.489-.689,1.489-1.609Z"></path>
      <path d="M433.659,251.957c0-.899.739-1.469,1.919-1.469.47,0,.909.1,1.35.319v-.56c0-.66-.38-1-1.149-1-.42,0-.88.12-1.459.391l-.4-.82c.75-.34,1.409-.51,2.079-.51,1.31,0,2.049.66,2.049,1.819v3.269h-1.119v-.52c-.43.419-.91.609-1.489.609-1.05,0-1.779-.63-1.779-1.529ZM435.748,252.687c.45,0,.84-.13,1.18-.42v-.81c-.36-.17-.72-.239-1.149-.239-.649,0-1.06.27-1.06.72,0,.459.399.749,1.029.749Z"></path>
      <path d="M439.889,252.097v-2.809h-.999v-.899h.999v-1.379l1.13-.24v1.619h1.389v.899h-1.389v2.559c0,.49.189.68.699.68.22,0,.38-.029.68-.119v.949c-.29.09-.67.14-.97.14-1.009,0-1.539-.479-1.539-1.399Z"></path>
      <path d="M443.409,246.231l1.129-.2v3.179c.38-.59.93-.9,1.579-.9,1.029,0,1.749.73,1.749,1.789v3.299h-1.14v-2.979c0-.729-.43-1.199-1.099-1.199-.46,0-.83.21-1.09.609v3.568h-1.129v-7.166Z"></path>
      <path d="M449.089,250.079h3.488v.959h-3.488v-.959Z"></path>
      <path d="M453.849,248.389h1.109v.71c.36-.47.92-.75,1.56-.75,1.269,0,2.259,1.13,2.259,2.549,0,1.43-1.02,2.549-2.329,2.549-.59,0-1.109-.22-1.469-.64v2.679h-1.13v-7.097ZM457.667,250.898c0-.909-.64-1.599-1.489-1.599-.5,0-.91.199-1.199.56v2.089c.289.35.72.56,1.199.56.859,0,1.489-.689,1.489-1.609Z"></path>
      <path d="M459.959,248.389h1.129v1.08c.28-.76.76-1.17,1.379-1.17.19.01.32.03.49.101v.989c-.18-.07-.41-.12-.62-.12-.549,0-.999.31-1.249.829v3.299h-1.129v-5.008Z"></path>
      <path d="M463.429,250.898c0-1.479,1.079-2.589,2.519-2.589,1.429,0,2.509,1.109,2.509,2.589s-1.08,2.589-2.509,2.589c-1.439,0-2.519-1.109-2.519-2.589ZM467.347,250.898c0-.93-.59-1.629-1.399-1.629-.819,0-1.409.699-1.409,1.629,0,.939.59,1.629,1.409,1.629.81,0,1.399-.689,1.399-1.629Z"></path>
      <path d="M468.889,248.389h1.229l1.398,3.639,1.39-3.639h1.18l-2.06,5.008h-1.099l-2.039-5.008Z"></path>
      <path d="M474.758,246.68c0-.38.311-.699.7-.699.38,0,.699.319.699.699s-.319.689-.699.689c-.39,0-.7-.31-.7-.689ZM474.888,248.389h1.13v5.008h-1.13v-5.008Z"></path>
      <path d="M476.969,252.817l.529-.749c.659.409,1.1.569,1.609.569.6,0,1.009-.28,1.009-.68,0-.31-.209-.47-.699-.569l-.88-.15c-.979-.18-1.449-.63-1.449-1.379,0-.939.77-1.55,1.939-1.55.699,0,1.329.2,1.969.601l-.529.749c-.51-.33-1-.479-1.51-.479-.52,0-.859.22-.859.579,0,.32.18.46.699.55l.89.17c1,.181,1.479.64,1.479,1.39,0,.919-.88,1.629-2.049,1.629-.859,0-1.619-.24-2.148-.68Z"></path>
      <path d="M482.068,246.68c0-.38.31-.699.699-.699.38,0,.7.319.7.699s-.32.689-.7.689c-.39,0-.699-.31-.699-.689ZM482.198,248.389h1.129v5.008h-1.129v-5.008Z"></path>
      <path d="M484.498,250.898c0-1.479,1.08-2.589,2.519-2.589,1.43,0,2.509,1.109,2.509,2.589s-1.079,2.589-2.509,2.589c-1.438,0-2.519-1.109-2.519-2.589ZM488.416,250.898c0-.93-.59-1.629-1.399-1.629-.819,0-1.409.699-1.409,1.629,0,.939.59,1.629,1.409,1.629.81,0,1.399-.689,1.399-1.629Z"></path>
      <path d="M490.698,248.389h1.129v.82c.38-.59.93-.9,1.579-.9,1.029,0,1.749.73,1.749,1.789v3.299h-1.14v-2.979c0-.729-.43-1.199-1.099-1.199-.46,0-.83.21-1.09.609v3.568h-1.129v-5.008Z"></path>
      <path d="M496.288,250.898c0-1.469,1.06-2.589,2.438-2.589,1.369,0,2.368,1.09,2.368,2.589v.27h-3.697c.109.81.72,1.399,1.499,1.399.47,0,.909-.18,1.189-.47l.739.67c-.609.51-1.219.729-1.979.729-1.439,0-2.559-1.129-2.559-2.599ZM500.025,250.468c-.119-.729-.64-1.239-1.309-1.239-.68,0-1.18.49-1.31,1.239h2.618Z"></path>
      <path d="M502.248,248.389h1.129v1.08c.28-.76.76-1.17,1.379-1.17.19.01.32.03.49.101v.989c-.18-.07-.41-.12-.62-.12-.549,0-.999.31-1.249.829v3.299h-1.129v-5.008Z"></path>
      <path d="M505.888,250.079h3.488v.959h-3.488v-.959Z"></path>
      <path d="M510.518,250.898c0-1.479,1.08-2.589,2.519-2.589,1.43,0,2.509,1.109,2.509,2.589s-1.079,2.589-2.509,2.589c-1.438,0-2.519-1.109-2.519-2.589ZM514.436,250.898c0-.93-.59-1.629-1.399-1.629-.819,0-1.409.699-1.409,1.629,0,.939.59,1.629,1.409,1.629.81,0,1.399-.689,1.399-1.629Z"></path>
      <path d="M516.718,248.389h1.109v.71c.359-.47.919-.75,1.559-.75,1.27,0,2.259,1.13,2.259,2.549,0,1.43-1.02,2.549-2.328,2.549-.59,0-1.109-.22-1.47-.64v2.679h-1.129v-7.097ZM520.535,250.898c0-.909-.64-1.599-1.489-1.599-.499,0-.909.199-1.199.56v2.089c.29.35.72.56,1.199.56.859,0,1.489-.689,1.489-1.609Z"></path>
      <path d="M522.598,250.898c0-1.469,1.06-2.589,2.438-2.589,1.369,0,2.368,1.09,2.368,2.589v.27h-3.697c.109.81.72,1.399,1.499,1.399.47,0,.909-.18,1.189-.47l.739.67c-.609.51-1.219.729-1.979.729-1.439,0-2.559-1.129-2.559-2.599ZM526.335,250.468c-.119-.729-.64-1.239-1.309-1.239-.68,0-1.18.49-1.31,1.239h2.618Z"></path>
      <path d="M528.558,248.389h1.129v1.08c.28-.76.76-1.17,1.379-1.17.19.01.32.03.49.101v.989c-.18-.07-.41-.12-.62-.12-.549,0-.999.31-1.249.829v3.299h-1.129v-5.008Z"></path>
      <path d="M532.077,251.957c0-.899.739-1.469,1.919-1.469.47,0,.909.1,1.35.319v-.56c0-.66-.38-1-1.149-1-.42,0-.88.12-1.459.391l-.4-.82c.75-.34,1.409-.51,2.079-.51,1.31,0,2.049.66,2.049,1.819v3.269h-1.119v-.52c-.43.419-.91.609-1.489.609-1.05,0-1.779-.63-1.779-1.529ZM534.166,252.687c.45,0,.84-.13,1.18-.42v-.81c-.36-.17-.72-.239-1.149-.239-.649,0-1.06.27-1.06.72,0,.459.399.749,1.029.749Z"></path>
      <path d="M538.307,252.097v-2.809h-.999v-.899h.999v-1.379l1.13-.24v1.619h1.389v.899h-1.389v2.559c0,.49.189.68.699.68.22,0,.38-.029.68-.119v.949c-.29.09-.67.14-.97.14-1.009,0-1.539-.479-1.539-1.399Z"></path>
      <path d="M541.518,250.898c0-1.479,1.079-2.589,2.519-2.589,1.429,0,2.509,1.109,2.509,2.589s-1.08,2.589-2.509,2.589c-1.439,0-2.519-1.109-2.519-2.589ZM545.436,250.898c0-.93-.59-1.629-1.399-1.629-.819,0-1.409.699-1.409,1.629,0,.939.59,1.629,1.409,1.629.81,0,1.399-.689,1.399-1.629Z"></path>
      <path d="M547.717,248.389h1.13v1.08c.279-.76.759-1.17,1.379-1.17.189.01.319.03.489.101v.989c-.18-.07-.409-.12-.619-.12-.55,0-1,.31-1.249.829v3.299h-1.13v-5.008Z"></path>
    </g>
    <g>
      <path d="M448.239,294.831l.53-.75c.659.41,1.099.569,1.608.569.6,0,1.01-.279,1.01-.68,0-.31-.21-.47-.699-.569l-.88-.149c-.979-.181-1.449-.63-1.449-1.38,0-.939.77-1.549,1.938-1.549.7,0,1.33.2,1.97.6l-.53.75c-.51-.33-.999-.48-1.509-.48-.52,0-.859.22-.859.58,0,.319.18.46.699.55l.89.17c.999.18,1.479.64,1.479,1.389,0,.92-.88,1.63-2.05,1.63-.859,0-1.618-.24-2.148-.68Z"></path>
      <path d="M453.029,294.831l.53-.75c.659.41,1.099.569,1.608.569.6,0,1.01-.279,1.01-.68,0-.31-.21-.47-.699-.569l-.88-.149c-.979-.181-1.449-.63-1.449-1.38,0-.939.77-1.549,1.938-1.549.7,0,1.33.2,1.97.6l-.53.75c-.51-.33-.999-.48-1.509-.48-.52,0-.859.22-.859.58,0,.319.18.46.699.55l.89.17c.999.18,1.479.64,1.479,1.389,0,.92-.88,1.63-2.05,1.63-.859,0-1.618-.24-2.148-.68Z"></path>
      <path d="M458.269,290.404h1.109v.709c.36-.47.92-.749,1.56-.749,1.269,0,2.259,1.129,2.259,2.549,0,1.429-1.02,2.548-2.329,2.548-.59,0-1.109-.22-1.469-.64v2.679h-1.13v-7.096ZM462.087,292.913c0-.91-.64-1.6-1.489-1.6-.5,0-.91.2-1.199.56v2.089c.289.35.72.56,1.199.56.859,0,1.489-.689,1.489-1.608Z"></path>
      <path d="M464.339,292.092h3.488v.96h-3.488v-.96Z"></path>
      <path d="M468.969,292.913c0-1.479,1.079-2.589,2.519-2.589,1.429,0,2.509,1.109,2.509,2.589s-1.08,2.588-2.509,2.588c-1.439,0-2.519-1.109-2.519-2.588ZM472.887,292.913c0-.93-.59-1.63-1.399-1.63-.819,0-1.409.7-1.409,1.63,0,.939.59,1.629,1.409,1.629.81,0,1.399-.689,1.399-1.629Z"></path>
      <path d="M475.169,290.404h1.109v.709c.359-.47.919-.749,1.559-.749,1.27,0,2.259,1.129,2.259,2.549,0,1.429-1.02,2.548-2.328,2.548-.59,0-1.109-.22-1.47-.64v2.679h-1.129v-7.096ZM478.986,292.913c0-.91-.64-1.6-1.489-1.6-.499,0-.909.2-1.199.56v2.089c.29.35.72.56,1.199.56.859,0,1.489-.689,1.489-1.608Z"></path>
      <path d="M481.049,292.913c0-1.47,1.06-2.589,2.438-2.589,1.369,0,2.368,1.089,2.368,2.589v.27h-3.697c.109.81.72,1.399,1.499,1.399.47,0,.909-.18,1.189-.47l.739.669c-.609.51-1.219.73-1.979.73-1.439,0-2.559-1.13-2.559-2.599ZM484.786,292.483c-.119-.73-.64-1.239-1.309-1.239-.68,0-1.18.489-1.31,1.239h2.618Z"></path>
      <path d="M487.009,290.404h1.129v1.079c.28-.76.76-1.169,1.379-1.169.19.01.32.029.49.1v.989c-.18-.069-.41-.12-.62-.12-.549,0-.999.311-1.249.83v3.298h-1.129v-5.007Z"></path>
      <path d="M490.528,293.971c0-.899.739-1.469,1.919-1.469.47,0,.909.1,1.35.32v-.561c0-.659-.38-.999-1.149-.999-.42,0-.88.12-1.459.39l-.4-.819c.75-.34,1.409-.51,2.079-.51,1.31,0,2.049.659,2.049,1.819v3.268h-1.119v-.52c-.43.42-.91.609-1.489.609-1.05,0-1.779-.629-1.779-1.529ZM492.617,294.702c.45,0,.84-.13,1.18-.42v-.81c-.36-.17-.72-.24-1.149-.24-.649,0-1.06.27-1.06.72,0,.46.399.75,1.029.75Z"></path>
      <path d="M496.758,294.112v-2.809h-.999v-.899h.999v-1.38l1.13-.239v1.619h1.389v.899h-1.389v2.559c0,.489.189.68.699.68.22,0,.38-.03.68-.12v.949c-.29.09-.67.141-.97.141-1.009,0-1.539-.48-1.539-1.399Z"></path>
      <path d="M499.968,292.913c0-1.479,1.08-2.589,2.519-2.589,1.43,0,2.509,1.109,2.509,2.589s-1.079,2.588-2.509,2.588c-1.438,0-2.519-1.109-2.519-2.588ZM503.886,292.913c0-.93-.59-1.63-1.399-1.63-.819,0-1.409.7-1.409,1.63,0,.939.59,1.629,1.409,1.629.81,0,1.399-.689,1.399-1.629Z"></path>
      <path d="M506.168,290.404h1.13v1.079c.279-.76.759-1.169,1.379-1.169.189.01.319.029.489.1v.989c-.18-.069-.409-.12-.619-.12-.55,0-1,.311-1.249.83v3.298h-1.13v-5.007Z"></path>
    </g>
    <g>
      <path d="M448.014,332.418h1.229l1.399,3.638,1.39-3.638h1.179l-2.059,5.007h-1.1l-2.039-5.007Z"></path>
      <path d="M453.884,330.709c0-.38.31-.7.699-.7.38,0,.7.32.7.7s-.32.689-.7.689c-.39,0-.699-.31-.699-.689ZM454.014,332.418h1.129v5.007h-1.129v-5.007Z"></path>
      <path d="M456.544,332.418h1.129v1.079c.28-.76.76-1.169,1.379-1.169.19.01.32.029.49.1v.989c-.18-.069-.41-.12-.62-.12-.549,0-.999.311-1.249.83v3.298h-1.129v-5.007Z"></path>
      <path d="M461.093,336.126v-2.809h-.999v-.899h.999v-1.38l1.13-.239v1.619h1.389v.899h-1.389v2.559c0,.489.189.68.699.68.22,0,.38-.03.68-.12v.949c-.29.09-.67.141-.97.141-1.009,0-1.539-.48-1.539-1.399Z"></path>
      <path d="M464.424,334.107h3.488v.96h-3.488v-.96Z"></path>
      <path d="M469.054,334.927c0-1.479,1.079-2.589,2.519-2.589,1.429,0,2.509,1.109,2.509,2.589s-1.08,2.588-2.509,2.588c-1.439,0-2.519-1.109-2.519-2.588ZM472.972,334.927c0-.93-.59-1.63-1.399-1.63-.819,0-1.409.7-1.409,1.63,0,.939.59,1.629,1.409,1.629.81,0,1.399-.689,1.399-1.629Z"></path>
      <path d="M475.253,332.418h1.109v.709c.36-.47.92-.749,1.56-.749,1.269,0,2.259,1.129,2.259,2.549,0,1.429-1.02,2.548-2.329,2.548-.59,0-1.109-.22-1.469-.64v2.679h-1.13v-7.096ZM479.071,334.927c0-.91-.64-1.6-1.489-1.6-.5,0-.91.2-1.199.56v2.089c.289.35.72.56,1.199.56.859,0,1.489-.689,1.489-1.608Z"></path>
      <path d="M481.133,334.927c0-1.47,1.06-2.589,2.438-2.589,1.37,0,2.369,1.089,2.369,2.589v.27h-3.698c.11.81.72,1.399,1.499,1.399.47,0,.91-.18,1.189-.47l.74.669c-.61.51-1.22.73-1.979.73-1.438,0-2.559-1.13-2.559-2.599ZM484.871,334.498c-.12-.73-.64-1.239-1.31-1.239-.68,0-1.179.489-1.309,1.239h2.618Z"></path>
      <path d="M487.093,332.418h1.13v1.079c.279-.76.759-1.169,1.379-1.169.189.01.319.029.489.1v.989c-.18-.069-.409-.12-.619-.12-.55,0-1,.311-1.249.83v3.298h-1.13v-5.007Z"></path>
      <path d="M490.613,335.986c0-.899.739-1.469,1.919-1.469.47,0,.909.1,1.349.32v-.561c0-.659-.38-.999-1.149-.999-.42,0-.879.12-1.459.39l-.399-.819c.749-.34,1.409-.51,2.078-.51,1.31,0,2.049.659,2.049,1.819v3.268h-1.119v-.52c-.43.42-.909.609-1.489.609-1.049,0-1.778-.629-1.778-1.529ZM492.702,336.716c.449,0,.839-.13,1.179-.42v-.81c-.359-.17-.72-.24-1.149-.24-.649,0-1.06.27-1.06.72,0,.46.4.75,1.03.75Z"></path>
      <path d="M496.843,336.126v-2.809h-1v-.899h1v-1.38l1.129-.239v1.619h1.39v.899h-1.39v2.559c0,.489.19.68.7.68.22,0,.379-.03.68-.12v.949c-.29.09-.67.141-.97.141-1.01,0-1.539-.48-1.539-1.399Z"></path>
      <path d="M500.053,334.927c0-1.479,1.08-2.589,2.519-2.589,1.43,0,2.509,1.109,2.509,2.589s-1.079,2.588-2.509,2.588c-1.438,0-2.519-1.109-2.519-2.588ZM503.971,334.927c0-.93-.59-1.63-1.399-1.63-.819,0-1.409.7-1.409,1.63,0,.939.59,1.629,1.409,1.629.81,0,1.399-.689,1.399-1.629Z"></path>
      <path d="M506.253,332.418h1.129v1.079c.28-.76.76-1.169,1.379-1.169.19.01.32.029.49.1v.989c-.18-.069-.41-.12-.62-.12-.549,0-.999.311-1.249.83v3.298h-1.129v-5.007Z"></path>
    </g>
    <g>
      <path d="M180.099,187.876c0-1.479,1.08-2.589,2.519-2.589,1.429,0,2.509,1.109,2.509,2.589s-1.08,2.588-2.509,2.588c-1.439,0-2.519-1.109-2.519-2.588ZM184.017,187.876c0-.93-.59-1.629-1.399-1.629-.819,0-1.409.7-1.409,1.629,0,.939.59,1.629,1.409,1.629.81,0,1.399-.689,1.399-1.629Z"></path>
      <path d="M186.299,183.209l1.129-.2v7.366h-1.129v-7.166Z"></path>
      <path d="M188.819,185.368h1.129v.79c.37-.57.87-.87,1.479-.87.689,0,1.219.37,1.479.959.39-.629.949-.959,1.659-.959.97,0,1.639.75,1.639,1.809v3.278h-1.129v-3.028c0-.7-.39-1.149-1.009-1.149-.41,0-.75.19-1,.6.01.1.02.2.02.3v3.278h-1.139v-3.028c0-.7-.39-1.149-1.01-1.149-.41,0-.74.19-.989.58v3.598h-1.129v-5.007Z"></path>
    </g>
    <g>
      <path d="M138.46,218.349h1.199v2.938h3.478v-2.938h1.2v6.996h-1.2v-2.988h-3.478v2.988h-1.199v-6.996Z"></path>
      <path d="M145.6,222.847c0-1.479,1.08-2.589,2.519-2.589,1.429,0,2.509,1.109,2.509,2.589s-1.08,2.588-2.509,2.588c-1.439,0-2.519-1.109-2.519-2.588ZM149.518,222.847c0-.93-.59-1.63-1.399-1.63-.819,0-1.409.7-1.409,1.63,0,.939.59,1.629,1.409,1.629.81,0,1.399-.689,1.399-1.629Z"></path>
      <path d="M151.35,224.766l.53-.75c.66.41,1.099.569,1.609.569.6,0,1.009-.279,1.009-.68,0-.31-.209-.47-.699-.569l-.88-.149c-.979-.181-1.449-.63-1.449-1.38,0-.939.77-1.549,1.939-1.549.7,0,1.33.2,1.969.6l-.53.75c-.51-.33-1-.48-1.509-.48-.52,0-.859.22-.859.58,0,.319.18.46.7.55l.889.17c1,.18,1.479.64,1.479,1.389,0,.92-.88,1.63-2.049,1.63-.859,0-1.619-.24-2.148-.68Z"></path>
      <path d="M157.109,224.046v-2.809h-1v-.899h1v-1.38l1.129-.239v1.619h1.389v.899h-1.389v2.559c0,.489.19.68.7.68.22,0,.379-.03.68-.12v.949c-.29.09-.67.141-.97.141-1.009,0-1.539-.48-1.539-1.399Z"></path>
      <path d="M160.77,218.349h3.128c1.419,0,2.339.89,2.339,2.179,0,1.26-.919,2.149-2.339,2.149h-1.929v2.668h-1.2v-6.996ZM163.708,221.698c.85,0,1.319-.47,1.319-1.18,0-.689-.47-1.159-1.309-1.159h-1.749v2.339h1.739Z"></path>
      <path d="M166.96,223.906c0-.899.739-1.469,1.919-1.469.47,0,.909.1,1.349.32v-.561c0-.659-.38-.999-1.149-.999-.42,0-.879.12-1.459.39l-.4-.819c.75-.34,1.409-.51,2.079-.51,1.31,0,2.049.659,2.049,1.819v3.268h-1.119v-.52c-.43.42-.91.609-1.489.609-1.049,0-1.779-.629-1.779-1.529ZM169.049,224.636c.45,0,.839-.13,1.179-.42v-.81c-.36-.17-.72-.24-1.149-.24-.649,0-1.06.27-1.06.72,0,.46.4.75,1.03.75Z"></path>
      <path d="M173.189,224.046v-2.809h-1v-.899h1v-1.38l1.129-.239v1.619h1.389v.899h-1.389v2.559c0,.489.19.68.7.68.22,0,.379-.03.68-.12v.949c-.29.09-.67.141-.97.141-1.009,0-1.539-.48-1.539-1.399Z"></path>
      <path d="M176.709,218.179l1.129-.199v3.178c.38-.59.929-.899,1.579-.899,1.029,0,1.749.729,1.749,1.789v3.298h-1.14v-2.979c0-.729-.43-1.199-1.099-1.199-.46,0-.83.21-1.089.61v3.567h-1.129v-7.166Z"></path>
      <path d="M182.669,218.349h3.128c1.419,0,2.339.89,2.339,2.179,0,1.26-.919,2.149-2.339,2.149h-1.929v2.668h-1.2v-6.996ZM185.607,221.698c.85,0,1.319-.47,1.319-1.18,0-.689-.47-1.159-1.309-1.159h-1.749v2.339h1.739Z"></path>
      <path d="M189.289,220.338h1.129v1.079c.28-.76.759-1.169,1.379-1.169.19.01.32.029.49.1v.989c-.18-.069-.41-.12-.62-.12-.549,0-.999.311-1.249.83v3.298h-1.129v-5.007Z"></path>
      <path d="M192.759,222.847c0-1.479,1.08-2.589,2.519-2.589,1.429,0,2.509,1.109,2.509,2.589s-1.08,2.588-2.509,2.588c-1.439,0-2.519-1.109-2.519-2.588ZM196.677,222.847c0-.93-.59-1.63-1.399-1.63-.819,0-1.409.7-1.409,1.63,0,.939.59,1.629,1.409,1.629.81,0,1.399-.689,1.399-1.629Z"></path>
      <path d="M198.219,220.338h1.229l1.399,3.638,1.39-3.638h1.179l-2.059,5.007h-1.099l-2.039-5.007Z"></path>
      <path d="M204.089,218.629c0-.38.31-.7.7-.7.38,0,.7.32.7.7s-.32.689-.7.689c-.39,0-.7-.31-.7-.689ZM204.219,220.338h1.129v5.007h-1.129v-5.007Z"></path>
      <path d="M206.299,224.766l.53-.75c.66.41,1.099.569,1.609.569.6,0,1.009-.279,1.009-.68,0-.31-.209-.47-.699-.569l-.88-.149c-.979-.181-1.449-.63-1.449-1.38,0-.939.77-1.549,1.939-1.549.7,0,1.33.2,1.969.6l-.53.75c-.51-.33-1-.48-1.509-.48-.52,0-.859.22-.859.58,0,.319.18.46.7.55l.889.17c1,.18,1.479.64,1.479,1.389,0,.92-.88,1.63-2.049,1.63-.859,0-1.619-.24-2.148-.68Z"></path>
      <path d="M211.398,218.629c0-.38.31-.7.7-.7.38,0,.7.32.7.7s-.32.689-.7.689c-.39,0-.7-.31-.7-.689ZM211.528,220.338h1.129v5.007h-1.129v-5.007Z"></path>
      <path d="M213.829,222.847c0-1.479,1.08-2.589,2.519-2.589,1.429,0,2.509,1.109,2.509,2.589s-1.08,2.588-2.509,2.588c-1.439,0-2.519-1.109-2.519-2.588ZM217.747,222.847c0-.93-.59-1.63-1.399-1.63-.819,0-1.409.7-1.409,1.63,0,.939.59,1.629,1.409,1.629.81,0,1.399-.689,1.399-1.629Z"></path>
      <path d="M220.029,220.338h1.129v.819c.38-.59.929-.899,1.579-.899,1.029,0,1.749.729,1.749,1.789v3.298h-1.14v-2.979c0-.729-.43-1.199-1.099-1.199-.46,0-.83.21-1.089.61v3.567h-1.129v-5.007Z"></path>
      <path d="M225.619,222.847c0-1.47,1.06-2.589,2.438-2.589,1.37,0,2.369,1.089,2.369,2.589v.27h-3.698c.11.81.72,1.399,1.499,1.399.47,0,.91-.18,1.189-.47l.74.669c-.61.51-1.219.73-1.979.73-1.439,0-2.559-1.13-2.559-2.599ZM229.356,222.417c-.12-.73-.64-1.239-1.309-1.239-.68,0-1.179.489-1.309,1.239h2.618Z"></path>
      <path d="M231.579,220.338h1.129v1.079c.28-.76.759-1.169,1.379-1.169.19.01.32.029.49.1v.989c-.18-.069-.41-.12-.62-.12-.549,0-1,.311-1.249.83v3.298h-1.129v-5.007Z"></path>
      <path d="M237.367,218.349h1.1l-4.008,9.085h-1.089l3.998-9.085Z"></path>
      <path d="M139.435,230.179l1.129-.199v3.178c.38-.59.929-.899,1.579-.899,1.029,0,1.749.729,1.749,1.789v3.298h-1.14v-2.979c0-.729-.43-1.199-1.099-1.199-.46,0-.83.21-1.089.61v3.567h-1.129v-7.166Z"></path>
      <path d="M145.025,234.847c0-1.479,1.08-2.589,2.519-2.589,1.429,0,2.509,1.109,2.509,2.589s-1.08,2.588-2.509,2.588c-1.439,0-2.519-1.109-2.519-2.588ZM148.943,234.847c0-.93-.59-1.63-1.399-1.63-.819,0-1.409.7-1.409,1.63,0,.939.59,1.629,1.409,1.629.81,0,1.399-.689,1.399-1.629Z"></path>
      <path d="M150.775,236.766l.53-.75c.66.41,1.099.569,1.609.569.6,0,1.009-.279,1.009-.68,0-.31-.209-.47-.699-.569l-.88-.149c-.979-.181-1.449-.63-1.449-1.38,0-.939.77-1.549,1.939-1.549.7,0,1.33.2,1.969.6l-.53.75c-.51-.33-1-.48-1.509-.48-.52,0-.859.22-.859.58,0,.319.18.46.7.55l.889.17c1,.18,1.479.64,1.479,1.389,0,.92-.88,1.63-2.049,1.63-.859,0-1.619-.24-2.148-.68Z"></path>
      <path d="M156.534,236.046v-2.809h-1v-.899h1v-1.38l1.129-.239v1.619h1.389v.899h-1.389v2.559c0,.489.19.68.7.68.22,0,.379-.03.68-.12v.949c-.29.09-.67.141-.97.141-1.009,0-1.539-.48-1.539-1.399Z"></path>
      <path d="M160.055,232.338h1.109v.709c.36-.47.919-.749,1.559-.749,1.27,0,2.259,1.129,2.259,2.549,0,1.429-1.02,2.548-2.329,2.548-.59,0-1.109-.22-1.469-.64v2.679h-1.129v-7.096ZM163.873,234.847c0-.91-.64-1.6-1.489-1.6-.5,0-.91.2-1.199.56v2.089c.29.35.72.56,1.199.56.859,0,1.489-.689,1.489-1.608Z"></path>
      <path d="M165.955,235.906c0-.899.739-1.469,1.919-1.469.47,0,.909.1,1.349.32v-.561c0-.659-.38-.999-1.149-.999-.42,0-.879.12-1.459.39l-.4-.819c.75-.34,1.409-.51,2.079-.51,1.31,0,2.049.659,2.049,1.819v3.268h-1.119v-.52c-.43.42-.91.609-1.489.609-1.049,0-1.779-.629-1.779-1.529ZM168.043,236.636c.45,0,.839-.13,1.179-.42v-.81c-.36-.17-.72-.24-1.149-.24-.649,0-1.06.27-1.06.72,0,.46.4.75,1.03.75Z"></path>
      <path d="M172.184,236.046v-2.809h-1v-.899h1v-1.38l1.129-.239v1.619h1.389v.899h-1.389v2.559c0,.489.19.68.7.68.22,0,.379-.03.68-.12v.949c-.29.09-.67.141-.97.141-1.009,0-1.539-.48-1.539-1.399Z"></path>
      <path d="M175.704,230.179l1.129-.199v3.178c.38-.59.929-.899,1.579-.899,1.029,0,1.749.729,1.749,1.789v3.298h-1.14v-2.979c0-.729-.43-1.199-1.099-1.199-.46,0-.83.21-1.089.61v3.567h-1.129v-7.166Z"></path>
      <path d="M181.384,234.027h3.488v.96h-3.488v-.96Z"></path>
      <path d="M186.144,232.338h1.109v.709c.36-.47.919-.749,1.559-.749,1.269,0,2.259,1.129,2.259,2.549,0,1.429-1.02,2.548-2.329,2.548-.59,0-1.109-.22-1.469-.64v2.679h-1.129v-7.096ZM189.962,234.847c0-.91-.64-1.6-1.489-1.6-.5,0-.91.2-1.199.56v2.089c.29.35.72.56,1.199.56.859,0,1.489-.689,1.489-1.608Z"></path>
      <path d="M192.254,232.338h1.129v1.079c.28-.76.759-1.169,1.379-1.169.19.01.32.029.49.1v.989c-.18-.069-.41-.12-.62-.12-.549,0-.999.311-1.249.83v3.298h-1.129v-5.007Z"></path>
      <path d="M195.724,234.847c0-1.479,1.08-2.589,2.519-2.589,1.429,0,2.509,1.109,2.509,2.589s-1.08,2.588-2.509,2.588c-1.439,0-2.519-1.109-2.519-2.588ZM199.642,234.847c0-.93-.59-1.63-1.399-1.63-.819,0-1.409.7-1.409,1.63,0,.939.59,1.629,1.409,1.629.81,0,1.399-.689,1.399-1.629Z"></path>
      <path d="M201.184,232.338h1.229l1.399,3.638,1.39-3.638h1.179l-2.059,5.007h-1.099l-2.039-5.007Z"></path>
      <path d="M207.053,230.629c0-.38.31-.7.7-.7.38,0,.7.32.7.7s-.32.689-.7.689c-.39,0-.7-.31-.7-.689ZM207.183,232.338h1.129v5.007h-1.129v-5.007Z"></path>
      <path d="M209.264,236.766l.53-.75c.659.41,1.099.569,1.609.569.6,0,1.009-.279,1.009-.68,0-.31-.209-.47-.699-.569l-.88-.149c-.979-.181-1.449-.63-1.449-1.38,0-.939.77-1.549,1.939-1.549.7,0,1.33.2,1.969.6l-.53.75c-.51-.33-1-.48-1.509-.48-.52,0-.859.22-.859.58,0,.319.18.46.699.55l.89.17c1,.18,1.479.64,1.479,1.389,0,.92-.88,1.63-2.049,1.63-.86,0-1.619-.24-2.149-.68Z"></path>
      <path d="M214.363,230.629c0-.38.31-.7.7-.7.38,0,.7.32.7.7s-.32.689-.7.689c-.39,0-.7-.31-.7-.689ZM214.493,232.338h1.129v5.007h-1.129v-5.007Z"></path>
      <path d="M216.793,234.847c0-1.479,1.08-2.589,2.519-2.589,1.429,0,2.509,1.109,2.509,2.589s-1.08,2.588-2.509,2.588c-1.439,0-2.519-1.109-2.519-2.588ZM220.711,234.847c0-.93-.59-1.63-1.399-1.63-.819,0-1.409.7-1.409,1.63,0,.939.59,1.629,1.409,1.629.81,0,1.399-.689,1.399-1.629Z"></path>
      <path d="M222.993,232.338h1.129v.819c.38-.59.929-.899,1.579-.899,1.029,0,1.749.729,1.749,1.789v3.298h-1.14v-2.979c0-.729-.43-1.199-1.099-1.199-.46,0-.83.21-1.089.61v3.567h-1.129v-5.007Z"></path>
      <path d="M228.583,234.847c0-1.47,1.06-2.589,2.438-2.589,1.37,0,2.369,1.089,2.369,2.589v.27h-3.698c.11.81.72,1.399,1.499,1.399.47,0,.91-.18,1.189-.47l.74.669c-.61.51-1.219.73-1.979.73-1.439,0-2.559-1.13-2.559-2.599ZM232.321,234.417c-.12-.73-.64-1.239-1.309-1.239-.68,0-1.179.489-1.309,1.239h2.618Z"></path>
      <path d="M234.543,232.338h1.129v1.079c.28-.76.759-1.169,1.379-1.169.19.01.32.029.49.1v.989c-.18-.069-.41-.12-.62-.12-.549,0-.999.311-1.249.83v3.298h-1.129v-5.007Z"></path>
    </g>
    <g>
      <path d="M295.862,180.506c0-1.429,1.029-2.549,2.339-2.549.569,0,1.089.23,1.459.65v-2.769l1.129-.2v7.366h-1.119v-.66c-.359.45-.919.709-1.549.709-1.27,0-2.259-1.129-2.259-2.548ZM299.66,181.556v-2.109c-.29-.34-.72-.54-1.189-.54-.859,0-1.499.68-1.499,1.599,0,.909.64,1.599,1.499,1.599.489,0,.899-.19,1.189-.55Z"></path>
      <path d="M301.962,180.506c0-1.469,1.06-2.589,2.438-2.589,1.369,0,2.369,1.089,2.369,2.589v.27h-3.698c.109.81.72,1.399,1.499,1.399.47,0,.909-.18,1.189-.47l.739.669c-.609.51-1.219.73-1.979.73-1.439,0-2.559-1.129-2.559-2.599ZM305.699,180.077c-.119-.73-.64-1.239-1.309-1.239-.68,0-1.18.49-1.31,1.239h2.618Z"></path>
      <path d="M307.922,177.998h1.109v.709c.36-.47.92-.75,1.56-.75,1.27,0,2.259,1.129,2.259,2.549,0,1.429-1.02,2.548-2.329,2.548-.59,0-1.109-.22-1.469-.64v2.679h-1.13v-7.096ZM311.74,180.506c0-.91-.64-1.599-1.489-1.599-.5,0-.91.2-1.199.56v2.089c.289.35.72.56,1.199.56.859,0,1.489-.689,1.489-1.609Z"></path>
      <path d="M314.032,175.839l1.129-.2v7.366h-1.129v-7.166Z"></path>
      <path d="M316.322,180.506c0-1.479,1.079-2.589,2.519-2.589,1.429,0,2.509,1.109,2.509,2.589s-1.08,2.588-2.509,2.588c-1.439,0-2.519-1.109-2.519-2.588ZM320.24,180.506c0-.93-.59-1.629-1.399-1.629-.819,0-1.409.7-1.409,1.629,0,.939.59,1.629,1.409,1.629.81,0,1.399-.689,1.399-1.629Z"></path>
      <path d="M322.172,185.123v-.979c.13.03.29.04.439.04.4,0,.64-.18.81-.569l.23-.56-1.89-5.057h1.25l1.279,3.708,1.389-3.708h1.239l-2.398,5.877c-.39.969-.85,1.319-1.789,1.319-.16,0-.359-.02-.56-.07Z"></path>
      <path d="M327.741,177.998h1.13v.79c.369-.57.869-.87,1.479-.87.69,0,1.22.37,1.479.959.39-.629.949-.959,1.659-.959.97,0,1.639.75,1.639,1.809v3.278h-1.129v-3.028c0-.7-.39-1.149-1.01-1.149-.409,0-.749.19-.999.6.01.1.02.2.02.3v3.278h-1.139v-3.028c0-.7-.391-1.149-1.01-1.149-.41,0-.739.19-.989.58v3.598h-1.13v-5.007Z"></path>
      <path d="M336.271,180.506c0-1.469,1.06-2.589,2.438-2.589,1.369,0,2.369,1.089,2.369,2.589v.27h-3.698c.109.81.72,1.399,1.499,1.399.47,0,.909-.18,1.189-.47l.739.669c-.609.51-1.219.73-1.979.73-1.439,0-2.559-1.129-2.559-2.599ZM340.009,180.077c-.119-.73-.64-1.239-1.309-1.239-.68,0-1.18.49-1.31,1.239h2.618Z"></path>
      <path d="M342.231,177.998h1.129v.82c.38-.59.93-.9,1.579-.9,1.029,0,1.749.73,1.749,1.789v3.298h-1.14v-2.979c0-.729-.43-1.199-1.099-1.199-.46,0-.83.21-1.09.61v3.568h-1.129v-5.007Z"></path>
      <path d="M348.521,181.706v-2.809h-.999v-.899h.999v-1.379l1.13-.24v1.619h1.389v.899h-1.389v2.559c0,.49.189.68.699.68.22,0,.38-.03.68-.12v.949c-.29.09-.67.14-.97.14-1.009,0-1.539-.48-1.539-1.399Z"></path>
    </g>
    <g>
      <path d="M243.513,257.98c0-1.819,1.404-3.25,3.187-3.25s3.187,1.431,3.187,3.25-1.405,3.25-3.187,3.25-3.187-1.432-3.187-3.25ZM248.78,257.98c0-1.297-.9-2.278-2.08-2.278s-2.089.981-2.089,2.278.909,2.277,2.089,2.277,2.08-.981,2.08-2.277Z"></path>
      <path d="M250.983,256.621h.999v.639c.324-.423.828-.675,1.404-.675,1.144,0,2.035,1.017,2.035,2.296,0,1.287-.918,2.295-2.098,2.295-.531,0-.999-.197-1.323-.576v2.413h-1.017v-6.392ZM254.422,258.88c0-.819-.576-1.44-1.341-1.44-.45,0-.819.18-1.081.504v1.882c.261.314.648.504,1.081.504.774,0,1.341-.621,1.341-1.449Z"></path>
      <path d="M256.833,259.96v-2.53h-.9v-.81h.9v-1.243l1.017-.216v1.459h1.251v.81h-1.251v2.305c0,.441.171.612.63.612.198,0,.342-.026.612-.107v.854c-.261.081-.604.126-.874.126-.909,0-1.386-.432-1.386-1.26Z"></path>
      <path d="M259.875,255.081c0-.342.279-.63.63-.63.342,0,.63.288.63.63s-.288.621-.63.621c-.351,0-.63-.278-.63-.621ZM259.992,256.621h1.018v4.51h-1.018v-4.51Z"></path>
      <path d="M262.062,258.88c0-1.333.972-2.332,2.269-2.332,1.287,0,2.26.999,2.26,2.332s-.973,2.331-2.26,2.331c-1.296,0-2.269-.999-2.269-2.331ZM265.591,258.88c0-.838-.531-1.468-1.26-1.468-.738,0-1.27.63-1.27,1.468,0,.846.531,1.467,1.27,1.467.729,0,1.26-.621,1.26-1.467Z"></path>
      <path d="M267.642,256.621h1.017v.738c.342-.531.837-.811,1.422-.811.927,0,1.576.657,1.576,1.611v2.971h-1.026v-2.683c0-.657-.387-1.08-.99-1.08-.414,0-.748.188-.981.549v3.214h-1.017v-4.51Z"></path>
      <path d="M272.646,259.834c0-.811.667-1.323,1.729-1.323.423,0,.819.09,1.215.288v-.505c0-.594-.342-.9-1.035-.9-.378,0-.792.108-1.314.352l-.36-.738c.675-.306,1.269-.459,1.873-.459,1.179,0,1.845.594,1.845,1.639v2.943h-1.008v-.468c-.387.378-.819.549-1.341.549-.945,0-1.603-.567-1.603-1.377ZM274.527,260.492c.405,0,.756-.117,1.062-.378v-.729c-.324-.153-.648-.216-1.035-.216-.585,0-.954.242-.954.647,0,.414.36.676.927.676Z"></path>
      <path d="M277.83,254.675l1.017-.18v6.635h-1.017v-6.455Z"></path>
    </g>
    <g>
      <polyline class="uuid-c9f9e9a2-4784-4f27-9667-11a757c785ef" points="288.254 187.605 357.539 187.605 357.539 40.555 373.312 40.555"></polyline>
      <polygon class="uuid-1dc7bf50-7dbc-4966-ba1a-025425dae160" points="372.217 44.295 378.694 40.555 372.217 36.815 372.217 44.295"></polygon>
    </g>
    <g>
      <polyline class="uuid-c9f9e9a2-4784-4f27-9667-11a757c785ef" points="288.254 187.605 357.539 187.605 357.539 82.569 373.312 82.569"></polyline>
      <polygon class="uuid-1dc7bf50-7dbc-4966-ba1a-025425dae160" points="372.217 86.309 378.694 82.569 372.217 78.83 372.217 86.309"></polygon>
    </g>
    <g>
      <polyline class="uuid-c9f9e9a2-4784-4f27-9667-11a757c785ef" points="288.254 187.605 357.539 187.605 357.539 124.584 373.312 124.584"></polyline>
      <polygon class="uuid-1dc7bf50-7dbc-4966-ba1a-025425dae160" points="372.217 128.324 378.694 124.584 372.217 120.844 372.217 128.324"></polygon>
    </g>
    <g>
      <polyline class="uuid-017eccb8-c204-4de3-8315-30d69d40c83e" points="49.149 189.105 68.702 189.105 68.702 146.635 82.872 146.635"></polyline>
      <polygon points="81.778 150.375 88.254 146.635 81.778 142.895 81.778 150.375"></polygon>
    </g>
    <g>
      <polyline class="uuid-017eccb8-c204-4de3-8315-30d69d40c83e" points="49.149 189.105 68.702 189.105 68.702 228.576 82.872 228.576"></polyline>
      <polygon points="81.778 232.316 88.254 228.576 81.778 224.836 81.778 232.316"></polygon>
    </g>
    <g>
      <line class="uuid-017eccb8-c204-4de3-8315-30d69d40c83e" x1="42.72" y1="189.105" x2="82.872" y2="189.105"></line>
      <polygon points="81.778 192.845 88.254 189.105 81.778 185.366 81.778 192.845"></polygon>
    </g>
    <g>
      <polyline class="uuid-c9f9e9a2-4784-4f27-9667-11a757c785ef" points="288.254 187.605 357.539 187.605 357.539 166.598 373.312 166.598"></polyline>
      <polygon class="uuid-1dc7bf50-7dbc-4966-ba1a-025425dae160" points="372.217 170.338 378.694 166.598 372.217 162.858 372.217 170.338"></polygon>
    </g>
    <g>
      <polyline class="uuid-c9f9e9a2-4784-4f27-9667-11a757c785ef" points="288.254 187.605 357.539 187.605 357.539 208.612 373.312 208.612"></polyline>
      <polygon class="uuid-1dc7bf50-7dbc-4966-ba1a-025425dae160" points="372.217 212.352 378.694 208.612 372.217 204.873 372.217 212.352"></polygon>
    </g>
    <g>
      <polyline class="uuid-c9f9e9a2-4784-4f27-9667-11a757c785ef" points="288.254 187.605 357.539 187.605 357.539 250.627 373.312 250.627"></polyline>
      <polygon class="uuid-1dc7bf50-7dbc-4966-ba1a-025425dae160" points="372.217 254.366 378.694 250.627 372.217 246.887 372.217 254.366"></polygon>
    </g>
    <g>
      <polyline class="uuid-c9f9e9a2-4784-4f27-9667-11a757c785ef" points="288.254 187.605 357.539 187.605 357.539 292.641 373.312 292.641"></polyline>
      <polygon class="uuid-1dc7bf50-7dbc-4966-ba1a-025425dae160" points="372.217 296.381 378.694 292.641 372.217 288.901 372.217 296.381"></polygon>
    </g>
    <g>
      <polyline class="uuid-c9f9e9a2-4784-4f27-9667-11a757c785ef" points="288.254 187.605 357.539 187.605 357.539 334.655 373.312 334.655"></polyline>
      <polygon class="uuid-1dc7bf50-7dbc-4966-ba1a-025425dae160" points="372.217 338.395 378.694 334.655 372.217 330.916 372.217 338.395"></polygon>
    </g>
    <g>
      <g>
        <path class="uuid-40dc63a5-3bb2-42f6-802b-bdf4891a6145" d="M22.7,211.632v-3.998h1.199v3.998c0,1.229.68,2.028,1.739,2.028s1.739-.799,1.739-2.028v-3.998h1.199v3.998c0,1.908-1.139,3.108-2.938,3.108s-2.938-1.2-2.938-3.108Z"></path>
        <path class="uuid-40dc63a5-3bb2-42f6-802b-bdf4891a6145" d="M29.53,214.05l.53-.749c.66.409,1.099.569,1.609.569.6,0,1.009-.279,1.009-.68,0-.31-.209-.47-.699-.569l-.88-.15c-.979-.18-1.449-.629-1.449-1.379,0-.939.77-1.549,1.939-1.549.7,0,1.33.199,1.969.6l-.53.749c-.51-.329-1-.479-1.509-.479-.52,0-.859.22-.859.58,0,.319.18.459.7.55l.889.17c1,.18,1.479.64,1.479,1.389,0,.92-.88,1.629-2.049,1.629-.859,0-1.619-.239-2.148-.68Z"></path>
        <path class="uuid-40dc63a5-3bb2-42f6-802b-bdf4891a6145" d="M34.54,212.131c0-1.469,1.06-2.588,2.438-2.588,1.37,0,2.369,1.089,2.369,2.588v.271h-3.698c.11.81.72,1.399,1.499,1.399.47,0,.91-.181,1.189-.47l.74.669c-.61.51-1.219.729-1.979.729-1.439,0-2.559-1.129-2.559-2.599ZM38.277,211.701c-.12-.729-.64-1.239-1.309-1.239-.68,0-1.179.49-1.309,1.239h2.618Z"></path>
        <path class="uuid-40dc63a5-3bb2-42f6-802b-bdf4891a6145" d="M40.5,209.623h1.129v1.079c.28-.76.759-1.17,1.379-1.17.19.011.32.03.49.101v.989c-.18-.07-.41-.12-.62-.12-.549,0-1,.31-1.249.83v3.298h-1.129v-5.007Z"></path>
      </g>
      <g>
        <path class="uuid-db28daa4-3c26-489f-ae08-19e1f14eb59b" d="M49.149,201.943c0-8.977-7.29-16.255-16.284-16.255s-16.284,7.278-16.284,16.255h32.567Z"></path>
        <ellipse class="uuid-db28daa4-3c26-489f-ae08-19e1f14eb59b" cx="32.865" cy="177.532" rx="8.175" ry="8.164"></ellipse>
      </g>
    </g>
    <line class="uuid-bbe8a017-6e8f-4178-bd72-74d3f709e1fb" x1="225.068" y1="241.138" x2="238.469" y2="253.711"></line>
  </g>
</svg>