<svg id="uuid-924ca363-6e0a-4158-9e39-bdb52a1d1d07" data-name="Layer 1" xmlns="http://www.w3.org/2000/svg" width="595.276" height="329.737" viewBox="0 0 595.276 329.737">
  <defs>
    <style>
      .uuid-a070049e-6a26-48e1-aad3-10ca79bd06ed {
        stroke-linecap: round;
        stroke-linejoin: round;
      }

      .uuid-a070049e-6a26-48e1-aad3-10ca79bd06ed, .uuid-74ba31d0-acab-4baf-96b9-b0c0db52dfe0 {
        stroke: #000;
      }

      .uuid-a070049e-6a26-48e1-aad3-10ca79bd06ed, .uuid-85b55c86-2682-4f8a-8426-c700d108a3cf {
        fill: #fff;
      }

      .uuid-fb2bba57-65ff-4ef2-98e3-cef8f596170f {
        fill: #000;
      }

      .uuid-fb2bba57-65ff-4ef2-98e3-cef8f596170f, .uuid-552d2a93-4661-482c-ad0d-0d38dce01017, .uuid-a56539a4-a4d1-4cd5-ab5d-4578deb47e72, .uuid-85b55c86-2682-4f8a-8426-c700d108a3cf {
        stroke-width: 0px;
      }

      .uuid-552d2a93-4661-482c-ad0d-0d38dce01017 {
        fill: #f0f0f0;
      }

      .uuid-a56539a4-a4d1-4cd5-ab5d-4578deb47e72 {
        fill: #dbe8f5;
      }

      .uuid-74ba31d0-acab-4baf-96b9-b0c0db52dfe0 {
        fill: none;
        stroke-miterlimit: 10;
      }
    </style>
  </defs>
  <rect class="uuid-85b55c86-2682-4f8a-8426-c700d108a3cf" x="54.404" y="8.463" width="482.5" height="312.768"></rect>
  <rect class="uuid-552d2a93-4661-482c-ad0d-0d38dce01017" x="66.479" y="18.809" width="458.35" height="192.56"></rect>
  <rect class="uuid-a56539a4-a4d1-4cd5-ab5d-4578deb47e72" x="82.432" y="103.604" width="427.339" height="91.771"></rect>
  <rect class="uuid-85b55c86-2682-4f8a-8426-c700d108a3cf" x="96.683" y="118.338" width="125.612" height="37.882"></rect>
  <rect class="uuid-552d2a93-4661-482c-ad0d-0d38dce01017" x="66.479" y="229.877" width="458.35" height="81.051"></rect>
  <rect class="uuid-85b55c86-2682-4f8a-8426-c700d108a3cf" x="233.295" y="118.338" width="125.612" height="37.882"></rect>
  <rect class="uuid-85b55c86-2682-4f8a-8426-c700d108a3cf" x="369.907" y="118.338" width="125.612" height="37.882"></rect>
  <rect class="uuid-85b55c86-2682-4f8a-8426-c700d108a3cf" x="96.683" y="259.24" width="87.175" height="37.882"></rect>
  <g>
    <path class="uuid-fb2bba57-65ff-4ef2-98e3-cef8f596170f" d="M198.871,217.124h2.809c1.18,0,1.98.675,1.98,1.656,0,.64-.396,1.152-1.026,1.396.756.225,1.242.774,1.242,1.494,0,1.045-.837,1.756-2.079,1.756h-2.926v-6.302ZM201.562,219.779c.612,0,1.018-.351,1.018-.891,0-.531-.396-.883-1.018-.883h-1.611v1.773h1.611ZM201.661,222.544c.685,0,1.126-.388,1.126-.973s-.433-.963-1.126-.963h-1.71v1.936h1.71Z"></path>
    <path class="uuid-fb2bba57-65ff-4ef2-98e3-cef8f596170f" d="M205.009,216.971l1.018-.18v6.635h-1.018v-6.455Z"></path>
    <path class="uuid-fb2bba57-65ff-4ef2-98e3-cef8f596170f" d="M207.069,221.175c0-1.332.973-2.331,2.269-2.331,1.287,0,2.26.999,2.26,2.331s-.973,2.332-2.26,2.332c-1.296,0-2.269-.999-2.269-2.332ZM210.599,221.175c0-.837-.531-1.467-1.261-1.467-.738,0-1.27.63-1.27,1.467,0,.847.531,1.468,1.27,1.468.729,0,1.261-.621,1.261-1.468Z"></path>
    <path class="uuid-fb2bba57-65ff-4ef2-98e3-cef8f596170f" d="M212.442,221.175c0-1.305.99-2.331,2.277-2.331.702,0,1.351.278,1.801.765l-.63.657c-.315-.351-.702-.531-1.135-.531-.729,0-1.296.631-1.296,1.44,0,.819.567,1.44,1.296,1.44.433,0,.819-.18,1.135-.521l.63.647c-.45.486-1.099.766-1.801.766-1.287,0-2.277-1.018-2.277-2.332Z"></path>
    <path class="uuid-fb2bba57-65ff-4ef2-98e3-cef8f596170f" d="M217.356,216.953l1.018-.171v4.051l1.872-1.918h1.171l-2.08,2.089,2.188,2.422h-1.296l-1.854-2.08v2.08h-1.018v-6.473Z"></path>
    <path class="uuid-fb2bba57-65ff-4ef2-98e3-cef8f596170f" d="M223.845,222.903l.478-.675c.594.369.99.513,1.449.513.54,0,.909-.252.909-.612,0-.278-.188-.423-.63-.513l-.792-.135c-.883-.162-1.306-.567-1.306-1.242,0-.847.693-1.396,1.746-1.396.631,0,1.197.18,1.773.54l-.477.675c-.459-.297-.9-.432-1.359-.432-.469,0-.774.197-.774.521,0,.288.162.414.63.495l.802.153c.9.162,1.332.576,1.332,1.252,0,.828-.792,1.467-1.846,1.467-.774,0-1.458-.216-1.936-.612Z"></path>
    <path class="uuid-fb2bba57-65ff-4ef2-98e3-cef8f596170f" d="M229.029,222.256v-2.53h-.9v-.811h.9v-1.242l1.018-.216v1.458h1.251v.811h-1.251v2.305c0,.441.171.612.63.612.198,0,.342-.027.612-.108v.855c-.261.081-.604.126-.873.126-.909,0-1.387-.432-1.387-1.26Z"></path>
    <path class="uuid-fb2bba57-65ff-4ef2-98e3-cef8f596170f" d="M231.918,221.175c0-1.332.973-2.331,2.269-2.331,1.288,0,2.26.999,2.26,2.331s-.972,2.332-2.26,2.332c-1.296,0-2.269-.999-2.269-2.332ZM235.447,221.175c0-.837-.531-1.467-1.261-1.467-.738,0-1.27.63-1.27,1.467,0,.847.531,1.468,1.27,1.468.729,0,1.261-.621,1.261-1.468Z"></path>
    <path class="uuid-fb2bba57-65ff-4ef2-98e3-cef8f596170f" d="M237.498,218.915h1.018v.973c.252-.685.685-1.054,1.242-1.054.171.01.288.027.441.091v.891c-.162-.062-.369-.107-.559-.107-.495,0-.9.278-1.125.747v2.971h-1.018v-4.511Z"></path>
    <path class="uuid-fb2bba57-65ff-4ef2-98e3-cef8f596170f" d="M240.666,222.129c0-.81.666-1.323,1.729-1.323.423,0,.819.091,1.215.288v-.504c0-.594-.342-.9-1.035-.9-.378,0-.792.108-1.314.352l-.36-.738c.676-.307,1.27-.459,1.873-.459,1.179,0,1.846.594,1.846,1.638v2.944h-1.009v-.468c-.387.378-.819.549-1.341.549-.945,0-1.603-.567-1.603-1.378ZM242.547,222.786c.405,0,.757-.116,1.062-.378v-.729c-.324-.153-.648-.217-1.035-.217-.585,0-.954.243-.954.648,0,.414.36.675.927.675Z"></path>
    <path class="uuid-fb2bba57-65ff-4ef2-98e3-cef8f596170f" d="M246.147,224.956l.351-.747c.531.261.963.378,1.413.378.757,0,1.152-.342,1.152-.999v-.766c-.323.396-.819.631-1.386.631-1.144,0-2.035-1.018-2.035-2.296s.928-2.277,2.106-2.277c.522,0,.991.207,1.324.603v-.567h1.008v4.673c0,1.161-.756,1.81-2.124,1.81-.648,0-1.279-.162-1.81-.441ZM249.063,222.111v-1.891c-.261-.306-.647-.486-1.071-.486-.773,0-1.35.604-1.35,1.432,0,.819.576,1.44,1.35,1.44.441,0,.811-.18,1.071-.495Z"></path>
    <path class="uuid-fb2bba57-65ff-4ef2-98e3-cef8f596170f" d="M251.124,221.175c0-1.323.954-2.331,2.197-2.331,1.233,0,2.134.98,2.134,2.331v.243h-3.331c.099.729.647,1.261,1.35,1.261.424,0,.819-.162,1.071-.423l.667.603c-.55.459-1.099.657-1.783.657-1.296,0-2.305-1.018-2.305-2.341ZM254.491,220.788c-.108-.657-.576-1.116-1.18-1.116-.611,0-1.062.441-1.179,1.116h2.358Z"></path>
  </g>
  <g>
    <path class="uuid-fb2bba57-65ff-4ef2-98e3-cef8f596170f" d="M408.975,220.274c0-1.818,1.404-3.25,3.187-3.25s3.187,1.432,3.187,3.25-1.404,3.25-3.187,3.25-3.187-1.431-3.187-3.25ZM414.241,220.274c0-1.296-.9-2.277-2.08-2.277s-2.089.981-2.089,2.277.909,2.278,2.089,2.278,2.08-.981,2.08-2.278Z"></path>
    <path class="uuid-fb2bba57-65ff-4ef2-98e3-cef8f596170f" d="M416.444,216.998l1.018-.171v2.691c.314-.396.818-.639,1.386-.639,1.144,0,2.035,1.017,2.035,2.295,0,1.288-.919,2.296-2.098,2.296-.531,0-1-.216-1.342-.621v.576h-.999v-6.428ZM419.883,221.175c0-.819-.576-1.44-1.341-1.44-.45,0-.819.181-1.08.505v1.881c.261.315.647.505,1.08.505.774,0,1.341-.622,1.341-1.45Z"></path>
    <path class="uuid-fb2bba57-65ff-4ef2-98e3-cef8f596170f" d="M421.078,225.325v-.811c.117.027.217.036.36.036.352,0,.504-.152.504-.495v-5.141h1.018v5.186c0,.819-.478,1.297-1.332,1.297-.198,0-.424-.027-.55-.072ZM421.816,217.376c0-.342.288-.63.631-.63.351,0,.639.288.639.63s-.288.621-.639.621c-.343,0-.631-.279-.631-.621Z"></path>
    <path class="uuid-fb2bba57-65ff-4ef2-98e3-cef8f596170f" d="M424.004,221.175c0-1.323.954-2.331,2.197-2.331,1.233,0,2.133.98,2.133,2.331v.243h-3.33c.099.729.647,1.261,1.35,1.261.424,0,.819-.162,1.071-.423l.667.603c-.55.459-1.099.657-1.783.657-1.296,0-2.305-1.018-2.305-2.341ZM427.371,220.788c-.108-.657-.576-1.116-1.18-1.116-.611,0-1.062.441-1.179,1.116h2.358Z"></path>
    <path class="uuid-fb2bba57-65ff-4ef2-98e3-cef8f596170f" d="M429.179,221.175c0-1.305.99-2.331,2.278-2.331.702,0,1.35.278,1.8.765l-.63.657c-.315-.351-.702-.531-1.135-.531-.729,0-1.296.631-1.296,1.44,0,.819.567,1.44,1.296,1.44.433,0,.819-.18,1.135-.521l.63.647c-.45.486-1.098.766-1.8.766-1.288,0-2.278-1.018-2.278-2.332Z"></path>
    <path class="uuid-fb2bba57-65ff-4ef2-98e3-cef8f596170f" d="M434.741,222.256v-2.53h-.9v-.811h.9v-1.242l1.018-.216v1.458h1.251v.811h-1.251v2.305c0,.441.171.612.63.612.198,0,.342-.027.612-.108v.855c-.262.081-.604.126-.873.126-.91,0-1.387-.432-1.387-1.26Z"></path>
    <path class="uuid-fb2bba57-65ff-4ef2-98e3-cef8f596170f" d="M439.528,222.903l.478-.675c.594.369.99.513,1.449.513.54,0,.909-.252.909-.612,0-.278-.188-.423-.63-.513l-.792-.135c-.883-.162-1.306-.567-1.306-1.242,0-.847.693-1.396,1.747-1.396.63,0,1.197.18,1.773.54l-.478.675c-.459-.297-.9-.432-1.359-.432-.468,0-.774.197-.774.521,0,.288.162.414.63.495l.802.153c.9.162,1.332.576,1.332,1.252,0,.828-.792,1.467-1.845,1.467-.774,0-1.459-.216-1.937-.612Z"></path>
    <path class="uuid-fb2bba57-65ff-4ef2-98e3-cef8f596170f" d="M444.713,222.256v-2.53h-.9v-.811h.9v-1.242l1.018-.216v1.458h1.251v.811h-1.251v2.305c0,.441.171.612.63.612.198,0,.342-.027.612-.108v.855c-.262.081-.604.126-.873.126-.91,0-1.387-.432-1.387-1.26Z"></path>
    <path class="uuid-fb2bba57-65ff-4ef2-98e3-cef8f596170f" d="M447.602,221.175c0-1.332.973-2.331,2.269-2.331,1.288,0,2.26.999,2.26,2.331s-.972,2.332-2.26,2.332c-1.296,0-2.269-.999-2.269-2.332ZM451.131,221.175c0-.837-.531-1.467-1.261-1.467-.738,0-1.269.63-1.269,1.467,0,.847.53,1.468,1.269,1.468.729,0,1.261-.621,1.261-1.468Z"></path>
    <path class="uuid-fb2bba57-65ff-4ef2-98e3-cef8f596170f" d="M453.181,218.915h1.018v.973c.252-.685.685-1.054,1.242-1.054.171.01.288.027.441.091v.891c-.162-.062-.369-.107-.559-.107-.495,0-.899.278-1.125.747v2.971h-1.018v-4.511Z"></path>
    <path class="uuid-fb2bba57-65ff-4ef2-98e3-cef8f596170f" d="M456.35,222.129c0-.81.666-1.323,1.729-1.323.423,0,.819.091,1.215.288v-.504c0-.594-.342-.9-1.035-.9-.378,0-.792.108-1.314.352l-.36-.738c.676-.307,1.27-.459,1.873-.459,1.179,0,1.846.594,1.846,1.638v2.944h-1.009v-.468c-.387.378-.819.549-1.341.549-.945,0-1.603-.567-1.603-1.378ZM458.23,222.786c.405,0,.757-.116,1.062-.378v-.729c-.324-.153-.648-.217-1.035-.217-.585,0-.954.243-.954.648,0,.414.36.675.927.675Z"></path>
    <path class="uuid-fb2bba57-65ff-4ef2-98e3-cef8f596170f" d="M461.831,224.956l.351-.747c.531.261.963.378,1.413.378.757,0,1.152-.342,1.152-.999v-.766c-.323.396-.819.631-1.386.631-1.144,0-2.035-1.018-2.035-2.296s.928-2.277,2.106-2.277c.522,0,.991.207,1.324.603v-.567h1.008v4.673c0,1.161-.756,1.81-2.124,1.81-.648,0-1.279-.162-1.81-.441ZM464.747,222.111v-1.891c-.261-.306-.647-.486-1.071-.486-.773,0-1.35.604-1.35,1.432,0,.819.576,1.44,1.35,1.44.441,0,.811-.18,1.071-.495Z"></path>
    <path class="uuid-fb2bba57-65ff-4ef2-98e3-cef8f596170f" d="M466.807,221.175c0-1.323.954-2.331,2.197-2.331,1.233,0,2.133.98,2.133,2.331v.243h-3.33c.099.729.647,1.261,1.35,1.261.424,0,.819-.162,1.071-.423l.667.603c-.55.459-1.099.657-1.783.657-1.296,0-2.305-1.018-2.305-2.341ZM470.174,220.788c-.108-.657-.576-1.116-1.18-1.116-.611,0-1.062.441-1.179,1.116h2.358Z"></path>
  </g>
  <g>
    <path class="uuid-fb2bba57-65ff-4ef2-98e3-cef8f596170f" d="M304.722,217.124h4.528v.918h-3.448v1.801h2.377v.9h-2.377v2.683h-1.08v-6.302Z"></path>
    <path class="uuid-fb2bba57-65ff-4ef2-98e3-cef8f596170f" d="M310.04,217.376c0-.342.279-.63.63-.63.343,0,.631.288.631.63s-.288.621-.631.621c-.351,0-.63-.279-.63-.621ZM310.157,218.915h1.018v4.511h-1.018v-4.511Z"></path>
    <path class="uuid-fb2bba57-65ff-4ef2-98e3-cef8f596170f" d="M312.434,216.971l1.018-.18v6.635h-1.018v-6.455Z"></path>
    <path class="uuid-fb2bba57-65ff-4ef2-98e3-cef8f596170f" d="M314.494,221.175c0-1.323.954-2.331,2.197-2.331,1.233,0,2.133.98,2.133,2.331v.243h-3.33c.099.729.647,1.261,1.35,1.261.424,0,.819-.162,1.071-.423l.667.603c-.55.459-1.099.657-1.783.657-1.296,0-2.305-1.018-2.305-2.341ZM317.861,220.788c-.108-.657-.576-1.116-1.18-1.116-.611,0-1.062.441-1.179,1.116h2.358Z"></path>
    <path class="uuid-fb2bba57-65ff-4ef2-98e3-cef8f596170f" d="M321.479,222.903l.478-.675c.595.369.99.513,1.449.513.54,0,.909-.252.909-.612,0-.278-.188-.423-.63-.513l-.792-.135c-.883-.162-1.306-.567-1.306-1.242,0-.847.693-1.396,1.747-1.396.63,0,1.197.18,1.773.54l-.478.675c-.459-.297-.9-.432-1.359-.432-.468,0-.774.197-.774.521,0,.288.162.414.631.495l.801.153c.9.162,1.332.576,1.332,1.252,0,.828-.792,1.467-1.846,1.467-.773,0-1.458-.216-1.936-.612Z"></path>
    <path class="uuid-fb2bba57-65ff-4ef2-98e3-cef8f596170f" d="M326.663,222.256v-2.53h-.9v-.811h.9v-1.242l1.018-.216v1.458h1.251v.811h-1.251v2.305c0,.441.171.612.63.612.198,0,.342-.027.612-.108v.855c-.262.081-.604.126-.873.126-.91,0-1.387-.432-1.387-1.26Z"></path>
    <path class="uuid-fb2bba57-65ff-4ef2-98e3-cef8f596170f" d="M329.552,221.175c0-1.332.973-2.331,2.269-2.331,1.288,0,2.26.999,2.26,2.331s-.972,2.332-2.26,2.332c-1.296,0-2.269-.999-2.269-2.332ZM333.081,221.175c0-.837-.531-1.467-1.261-1.467-.738,0-1.269.63-1.269,1.467,0,.847.53,1.468,1.269,1.468.729,0,1.261-.621,1.261-1.468Z"></path>
    <path class="uuid-fb2bba57-65ff-4ef2-98e3-cef8f596170f" d="M335.131,218.915h1.018v.973c.252-.685.685-1.054,1.242-1.054.171.01.288.027.441.091v.891c-.162-.062-.369-.107-.559-.107-.495,0-.9.278-1.125.747v2.971h-1.018v-4.511Z"></path>
    <path class="uuid-fb2bba57-65ff-4ef2-98e3-cef8f596170f" d="M338.3,222.129c0-.81.666-1.323,1.729-1.323.423,0,.819.091,1.215.288v-.504c0-.594-.342-.9-1.035-.9-.378,0-.792.108-1.314.352l-.36-.738c.676-.307,1.27-.459,1.873-.459,1.179,0,1.846.594,1.846,1.638v2.944h-1.009v-.468c-.387.378-.819.549-1.341.549-.945,0-1.603-.567-1.603-1.378ZM340.181,222.786c.405,0,.757-.116,1.062-.378v-.729c-.324-.153-.648-.217-1.035-.217-.585,0-.954.243-.954.648,0,.414.36.675.927.675Z"></path>
    <path class="uuid-fb2bba57-65ff-4ef2-98e3-cef8f596170f" d="M343.781,224.956l.351-.747c.531.261.963.378,1.413.378.757,0,1.152-.342,1.152-.999v-.766c-.323.396-.818.631-1.386.631-1.144,0-2.035-1.018-2.035-2.296s.928-2.277,2.106-2.277c.522,0,.991.207,1.324.603v-.567h1.008v4.673c0,1.161-.756,1.81-2.125,1.81-.647,0-1.278-.162-1.809-.441ZM346.697,222.111v-1.891c-.261-.306-.647-.486-1.071-.486-.773,0-1.35.604-1.35,1.432,0,.819.576,1.44,1.35,1.44.441,0,.811-.18,1.071-.495Z"></path>
    <path class="uuid-fb2bba57-65ff-4ef2-98e3-cef8f596170f" d="M348.757,221.175c0-1.323.954-2.331,2.197-2.331,1.233,0,2.134.98,2.134,2.331v.243h-3.331c.099.729.647,1.261,1.35,1.261.424,0,.819-.162,1.071-.423l.667.603c-.55.459-1.099.657-1.783.657-1.296,0-2.305-1.018-2.305-2.341ZM352.124,220.788c-.108-.657-.576-1.116-1.18-1.116-.611,0-1.062.441-1.179,1.116h2.358Z"></path>
  </g>
  <g>
    <path class="uuid-fb2bba57-65ff-4ef2-98e3-cef8f596170f" d="M119.059,136.551c0-2.029,1.579-3.608,3.618-3.608,1.069,0,2.089.46,2.729,1.25l-.8.779c-.5-.62-1.189-.949-1.929-.949-1.359,0-2.389,1.089-2.389,2.528s1.029,2.528,2.389,2.528c.739,0,1.429-.329,1.929-.949l.8.779c-.64.79-1.659,1.25-2.729,1.25-2.039,0-3.618-1.579-3.618-3.608Z"></path>
    <path class="uuid-fb2bba57-65ff-4ef2-98e3-cef8f596170f" d="M126.119,139.03l.65-.88c.899.74,1.549,1.02,2.358,1.02.919,0,1.559-.47,1.559-1.119,0-.569-.339-.84-1.269-.999l-1.29-.22c-1.209-.221-1.799-.82-1.799-1.779,0-1.27,1.009-2.109,2.579-2.109,1.049,0,2.009.311,2.809.899l-.61.9c-.7-.53-1.449-.81-2.239-.81-.839,0-1.399.43-1.399.999,0,.51.32.77,1.079.89l1.25.21c1.409.25,2.069.869,2.069,1.929,0,1.289-1.14,2.199-2.809,2.199-1.099,0-2.049-.38-2.938-1.13Z"></path>
    <path class="uuid-fb2bba57-65ff-4ef2-98e3-cef8f596170f" d="M133.039,133.053h1.199v6.996h-1.199v-6.996Z"></path>
    <path class="uuid-fb2bba57-65ff-4ef2-98e3-cef8f596170f" d="M137.749,137.55c0-1.429,1.029-2.548,2.339-2.548.569,0,1.089.229,1.459.649v-2.769l1.129-.2v7.366h-1.119v-.659c-.36.449-.919.709-1.549.709-1.27,0-2.259-1.129-2.259-2.549ZM141.546,138.6v-2.108c-.29-.34-.72-.54-1.189-.54-.859,0-1.499.68-1.499,1.599,0,.91.64,1.6,1.499,1.6.49,0,.9-.19,1.189-.55Z"></path>
    <path class="uuid-fb2bba57-65ff-4ef2-98e3-cef8f596170f" d="M144.079,135.042h1.129v1.079c.28-.76.759-1.17,1.379-1.17.19.011.32.03.49.101v.989c-.18-.07-.41-.12-.62-.12-.549,0-1,.31-1.249.83v3.298h-1.129v-5.007Z"></path>
    <path class="uuid-fb2bba57-65ff-4ef2-98e3-cef8f596170f" d="M147.868,133.333c0-.379.31-.699.7-.699.38,0,.7.32.7.699s-.32.69-.7.69c-.39,0-.7-.311-.7-.69ZM147.998,135.042h1.129v5.007h-1.129v-5.007Z"></path>
    <path class="uuid-fb2bba57-65ff-4ef2-98e3-cef8f596170f" d="M149.938,135.042h1.229l1.399,3.638,1.39-3.638h1.179l-2.059,5.007h-1.099l-2.039-5.007Z"></path>
    <path class="uuid-fb2bba57-65ff-4ef2-98e3-cef8f596170f" d="M155.568,137.55c0-1.469,1.06-2.588,2.438-2.588,1.37,0,2.369,1.089,2.369,2.588v.271h-3.698c.11.81.72,1.399,1.499,1.399.47,0,.91-.181,1.189-.47l.74.669c-.61.51-1.219.729-1.979.729-1.439,0-2.559-1.129-2.559-2.599ZM159.306,137.121c-.12-.729-.64-1.239-1.309-1.239-.68,0-1.179.49-1.309,1.239h2.618Z"></path>
    <path class="uuid-fb2bba57-65ff-4ef2-98e3-cef8f596170f" d="M161.528,135.042h1.129v1.079c.28-.76.759-1.17,1.379-1.17.19.011.32.03.49.101v.989c-.18-.07-.41-.12-.62-.12-.549,0-.999.31-1.249.83v3.298h-1.129v-5.007Z"></path>
    <path class="uuid-fb2bba57-65ff-4ef2-98e3-cef8f596170f" d="M167.698,137.601c0-2.049.85-3.698,2.429-4.668l.59.729c-1.289.83-1.999,2.219-1.999,3.938,0,1.729.71,3.118,1.999,3.947l-.59.72c-1.579-.97-2.429-2.618-2.429-4.667Z"></path>
    <path class="uuid-fb2bba57-65ff-4ef2-98e3-cef8f596170f" d="M171.847,132.914l1.13-.19v2.988c.35-.439.909-.709,1.539-.709,1.27,0,2.259,1.129,2.259,2.548,0,1.43-1.02,2.549-2.329,2.549-.589,0-1.109-.239-1.489-.689v.64h-1.109v-7.136ZM175.666,137.55c0-.909-.64-1.599-1.489-1.599-.5,0-.909.2-1.199.56v2.089c.29.35.72.56,1.199.56.859,0,1.489-.689,1.489-1.609Z"></path>
    <path class="uuid-fb2bba57-65ff-4ef2-98e3-cef8f596170f" d="M177.958,132.883l1.13-.2v7.366h-1.13v-7.166Z"></path>
    <path class="uuid-fb2bba57-65ff-4ef2-98e3-cef8f596170f" d="M180.248,137.55c0-1.479,1.079-2.588,2.519-2.588,1.43,0,2.509,1.109,2.509,2.588s-1.079,2.589-2.509,2.589c-1.439,0-2.519-1.109-2.519-2.589ZM184.166,137.55c0-.929-.59-1.629-1.399-1.629-.819,0-1.409.7-1.409,1.629,0,.939.59,1.63,1.409,1.63.81,0,1.399-.69,1.399-1.63Z"></path>
    <path class="uuid-fb2bba57-65ff-4ef2-98e3-cef8f596170f" d="M186.218,137.55c0-1.449,1.1-2.588,2.528-2.588.78,0,1.499.31,1.999.85l-.699.729c-.35-.39-.78-.59-1.26-.59-.81,0-1.438.699-1.438,1.599,0,.91.629,1.6,1.438,1.6.479,0,.91-.2,1.26-.58l.699.72c-.5.54-1.219.85-1.999.85-1.429,0-2.528-1.129-2.528-2.589Z"></path>
    <path class="uuid-fb2bba57-65ff-4ef2-98e3-cef8f596170f" d="M191.677,132.863l1.13-.189v4.497l2.079-2.128h1.299l-2.309,2.318,2.429,2.688h-1.439l-2.059-2.309v2.309h-1.13v-7.187Z"></path>
    <path class="uuid-fb2bba57-65ff-4ef2-98e3-cef8f596170f" d="M199.736,137.611c0,2.049-.85,3.698-2.429,4.667l-.59-.729c1.289-.829,1.999-2.219,1.999-3.938,0-1.729-.71-3.118-1.999-3.948l.59-.72c1.579.97,2.429,2.619,2.429,4.668Z"></path>
  </g>
  <g>
    <path class="uuid-fb2bba57-65ff-4ef2-98e3-cef8f596170f" d="M260.852,136.551c0-2.029,1.579-3.608,3.618-3.608,1.069,0,2.089.46,2.729,1.25l-.8.779c-.5-.62-1.189-.949-1.929-.949-1.359,0-2.389,1.089-2.389,2.528s1.029,2.528,2.389,2.528c.739,0,1.429-.329,1.929-.949l.8.779c-.64.79-1.659,1.25-2.729,1.25-2.039,0-3.618-1.579-3.618-3.608Z"></path>
    <path class="uuid-fb2bba57-65ff-4ef2-98e3-cef8f596170f" d="M267.912,139.03l.65-.88c.899.74,1.549,1.02,2.358,1.02.919,0,1.559-.47,1.559-1.119,0-.569-.339-.84-1.269-.999l-1.29-.22c-1.209-.221-1.799-.82-1.799-1.779,0-1.27,1.009-2.109,2.579-2.109,1.049,0,2.009.311,2.809.899l-.61.9c-.7-.53-1.449-.81-2.239-.81-.839,0-1.399.43-1.399.999,0,.51.32.77,1.079.89l1.25.21c1.409.25,2.069.869,2.069,1.929,0,1.289-1.14,2.199-2.809,2.199-1.1,0-2.049-.38-2.938-1.13Z"></path>
    <path class="uuid-fb2bba57-65ff-4ef2-98e3-cef8f596170f" d="M274.831,133.053h1.199v6.996h-1.199v-6.996Z"></path>
    <path class="uuid-fb2bba57-65ff-4ef2-98e3-cef8f596170f" d="M279.541,137.55c0-1.429,1.029-2.548,2.339-2.548.569,0,1.089.229,1.459.649v-2.769l1.129-.2v7.366h-1.119v-.659c-.36.449-.92.709-1.549.709-1.27,0-2.259-1.129-2.259-2.549ZM283.339,138.6v-2.108c-.29-.34-.72-.54-1.189-.54-.859,0-1.499.68-1.499,1.599,0,.91.64,1.6,1.499,1.6.49,0,.9-.19,1.189-.55Z"></path>
    <path class="uuid-fb2bba57-65ff-4ef2-98e3-cef8f596170f" d="M285.871,135.042h1.129v1.079c.28-.76.759-1.17,1.379-1.17.19.011.32.03.49.101v.989c-.18-.07-.41-.12-.62-.12-.549,0-.999.31-1.249.83v3.298h-1.129v-5.007Z"></path>
    <path class="uuid-fb2bba57-65ff-4ef2-98e3-cef8f596170f" d="M289.661,133.333c0-.379.31-.699.7-.699.38,0,.7.32.7.699s-.32.69-.7.69c-.39,0-.7-.311-.7-.69ZM289.791,135.042h1.129v5.007h-1.129v-5.007Z"></path>
    <path class="uuid-fb2bba57-65ff-4ef2-98e3-cef8f596170f" d="M291.731,135.042h1.229l1.399,3.638,1.39-3.638h1.179l-2.059,5.007h-1.099l-2.039-5.007Z"></path>
    <path class="uuid-fb2bba57-65ff-4ef2-98e3-cef8f596170f" d="M297.361,137.55c0-1.469,1.06-2.588,2.438-2.588,1.37,0,2.369,1.089,2.369,2.588v.271h-3.698c.11.81.719,1.399,1.499,1.399.47,0,.91-.181,1.189-.47l.74.669c-.61.51-1.22.729-1.979.729-1.438,0-2.558-1.129-2.558-2.599ZM301.099,137.121c-.12-.729-.64-1.239-1.31-1.239-.68,0-1.179.49-1.309,1.239h2.618Z"></path>
    <path class="uuid-fb2bba57-65ff-4ef2-98e3-cef8f596170f" d="M303.32,135.042h1.129v1.079c.28-.76.76-1.17,1.38-1.17.189.011.319.03.489.101v.989c-.18-.07-.409-.12-.619-.12-.55,0-1,.31-1.25.83v3.298h-1.129v-5.007Z"></path>
    <path class="uuid-fb2bba57-65ff-4ef2-98e3-cef8f596170f" d="M309.49,137.601c0-2.049.85-3.698,2.429-4.668l.59.729c-1.289.83-1.999,2.219-1.999,3.938,0,1.729.71,3.118,1.999,3.947l-.59.72c-1.579-.97-2.429-2.618-2.429-4.667Z"></path>
    <path class="uuid-fb2bba57-65ff-4ef2-98e3-cef8f596170f" d="M314.22,135.942h-1.079v-.899h1.079v-.86c0-1.089.61-1.679,1.729-1.679.279,0,.56.03.749.09v.96c-.249-.051-.399-.07-.6-.07-.52,0-.749.229-.749.72v.84h1.349v.899h-1.349v4.107h-1.13v-4.107Z"></path>
    <path class="uuid-fb2bba57-65ff-4ef2-98e3-cef8f596170f" d="M317.51,133.333c0-.379.31-.699.7-.699.379,0,.699.32.699.699s-.32.69-.699.69c-.391,0-.7-.311-.7-.69ZM317.64,135.042h1.13v5.007h-1.13v-5.007Z"></path>
    <path class="uuid-fb2bba57-65ff-4ef2-98e3-cef8f596170f" d="M320.17,132.883l1.13-.2v7.366h-1.13v-7.166Z"></path>
    <path class="uuid-fb2bba57-65ff-4ef2-98e3-cef8f596170f" d="M322.46,137.55c0-1.469,1.06-2.588,2.438-2.588,1.369,0,2.369,1.089,2.369,2.588v.271h-3.698c.11.81.72,1.399,1.499,1.399.47,0,.91-.181,1.189-.47l.739.669c-.609.51-1.219.729-1.979.729-1.439,0-2.559-1.129-2.559-2.599ZM326.198,137.121c-.12-.729-.64-1.239-1.31-1.239-.68,0-1.18.49-1.31,1.239h2.619Z"></path>
    <path class="uuid-fb2bba57-65ff-4ef2-98e3-cef8f596170f" d="M331.169,137.611c0,2.049-.85,3.698-2.429,4.667l-.59-.729c1.289-.829,1.999-2.219,1.999-3.938,0-1.729-.71-3.118-1.999-3.948l.59-.72c1.579.97,2.429,2.619,2.429,4.668Z"></path>
  </g>
  <g>
    <path class="uuid-fb2bba57-65ff-4ef2-98e3-cef8f596170f" d="M421.662,133.053h3.108c1.39,0,2.339.859,2.339,2.119,0,.909-.539,1.619-1.389,1.919l1.479,2.958h-1.329l-1.35-2.799h-1.658v2.799h-1.2v-6.996ZM424.661,136.292c.749,0,1.239-.439,1.239-1.109,0-.68-.49-1.119-1.239-1.119h-1.799v2.229h1.799Z"></path>
    <path class="uuid-fb2bba57-65ff-4ef2-98e3-cef8f596170f" d="M428.053,136.551c0-2.019,1.569-3.608,3.588-3.608,1.109,0,2.158.44,2.828,1.25l-.84.749c-.479-.6-1.209-.919-1.988-.919-1.35,0-2.358,1.099-2.358,2.528,0,1.439,1.029,2.539,2.389,2.539,1.119,0,1.969-.771,2.118-1.829h-2.079v-1.03h3.349v.391c0,2.009-1.449,3.538-3.408,3.538-2.019,0-3.598-1.59-3.598-3.608Z"></path>
    <path class="uuid-fb2bba57-65ff-4ef2-98e3-cef8f596170f" d="M435.612,133.053h1.22l1.039,5.127,1.5-5.127h1.14l1.499,5.117,1.039-5.117h1.18l-1.529,6.996h-1.249l-1.53-5.287-1.528,5.287h-1.25l-1.529-6.996Z"></path>
  </g>
  <rect class="uuid-85b55c86-2682-4f8a-8426-c700d108a3cf" x="200.57" y="259.24" width="87.175" height="37.882"></rect>
  <g>
    <path class="uuid-fb2bba57-65ff-4ef2-98e3-cef8f596170f" d="M83.211,239.66h5.287v1.439h-3.568v1.329h2.519v1.399h-2.519v1.389h3.608v1.439h-5.327v-6.996Z"></path>
    <path class="uuid-fb2bba57-65ff-4ef2-98e3-cef8f596170f" d="M91.041,244.027l-1.869-2.528h1.869l.959,1.39.96-1.39h1.799l-1.899,2.559,1.959,2.599h-1.879l-1.02-1.469-1.02,1.469h-1.789l1.929-2.629Z"></path>
    <path class="uuid-fb2bba57-65ff-4ef2-98e3-cef8f596170f" d="M96.131,245.097v-2.349h-1v-1.249h1v-1.429l1.619-.33v1.759h1.379v1.249h-1.379v2.029c0,.46.18.619.68.619.189,0,.34-.02.659-.109v1.31c-.3.09-.779.159-1.109.159-1.22,0-1.849-.56-1.849-1.659Z"></path>
    <path class="uuid-fb2bba57-65ff-4ef2-98e3-cef8f596170f" d="M99.751,244.088c0-1.51,1.12-2.669,2.599-2.669,1.489,0,2.539,1.13,2.539,2.729v.35h-3.548c.149.58.619.97,1.209.97.43,0,.79-.149,1.02-.43l1.069.89c-.67.59-1.299.829-2.169.829-1.519,0-2.719-1.169-2.719-2.668ZM103.39,243.578c-.141-.55-.53-.899-1.05-.899-.51,0-.869.329-.999.899h2.049Z"></path>
    <path class="uuid-fb2bba57-65ff-4ef2-98e3-cef8f596170f" d="M105.901,241.499h1.619v1.169c.329-.859.789-1.269,1.399-1.269.229.01.34.029.539.13v1.389c-.199-.1-.479-.159-.76-.159-.479,0-.919.249-1.179.64v3.258h-1.619v-5.157Z"></path>
    <path class="uuid-fb2bba57-65ff-4ef2-98e3-cef8f596170f" d="M110.321,241.499h1.619v.84c.399-.6.959-.92,1.629-.92.999,0,1.709.729,1.709,1.759v3.479h-1.619v-3.009c0-.579-.34-.959-.859-.959-.35,0-.63.14-.859.43v3.538h-1.619v-5.157Z"></path>
    <path class="uuid-fb2bba57-65ff-4ef2-98e3-cef8f596170f" d="M116.261,245.177c0-.949.739-1.499,2.009-1.499.37,0,.74.07,1.199.24v-.42c0-.5-.329-.75-1.02-.75-.39,0-.849.11-1.449.36l-.56-1.13c.85-.38,1.609-.56,2.369-.56,1.429,0,2.259.71,2.259,1.939v3.298h-1.6v-.45c-.449.38-.879.53-1.429.53-1.05,0-1.779-.64-1.779-1.56ZM118.54,245.667c.34,0,.649-.09.929-.26v-.66c-.3-.069-.589-.109-.889-.109-.53,0-.83.18-.83.51s.29.52.79.52Z"></path>
    <path class="uuid-fb2bba57-65ff-4ef2-98e3-cef8f596170f" d="M122.291,239.54l1.619-.25v7.366h-1.619v-7.116Z"></path>
    <path class="uuid-fb2bba57-65ff-4ef2-98e3-cef8f596170f" d="M127.142,243.158c0-2.039,1.608-3.608,3.688-3.608,1.119,0,2.229.53,2.839,1.359l-1.16,1.1c-.459-.62-1.02-.93-1.679-.93-1.09,0-1.909.89-1.909,2.079s.819,2.079,1.909,2.079c.659,0,1.22-.311,1.679-.93l1.16,1.1c-.61.829-1.72,1.359-2.839,1.359-2.079,0-3.688-1.569-3.688-3.608Z"></path>
    <path class="uuid-fb2bba57-65ff-4ef2-98e3-cef8f596170f" d="M134.141,244.088c0-1.51,1.12-2.669,2.599-2.669,1.489,0,2.539,1.13,2.539,2.729v.35h-3.548c.149.58.619.97,1.209.97.43,0,.79-.149,1.02-.43l1.069.89c-.67.59-1.299.829-2.169.829-1.52,0-2.719-1.169-2.719-2.668ZM137.779,243.578c-.141-.55-.53-.899-1.05-.899-.51,0-.869.329-.999.899h2.049Z"></path>
    <path class="uuid-fb2bba57-65ff-4ef2-98e3-cef8f596170f" d="M140.291,241.499h1.599v.72c.34-.46.91-.75,1.529-.75,1.27,0,2.279,1.17,2.279,2.619s-1.06,2.599-2.399,2.599c-.56,0-1.049-.21-1.389-.6v2.658h-1.619v-7.246ZM144.108,244.078c0-.73-.529-1.27-1.229-1.27-.399,0-.709.14-.969.42v1.719c.25.26.59.41.969.41.71,0,1.229-.54,1.229-1.279Z"></path>
    <path class="uuid-fb2bba57-65ff-4ef2-98e3-cef8f596170f" d="M146.731,239.54l1.619-.25v3.049c.399-.6.959-.92,1.629-.92.999,0,1.709.729,1.709,1.759v3.479h-1.619v-3.009c0-.579-.34-.959-.859-.959-.35,0-.63.14-.859.43v3.538h-1.619v-7.116Z"></path>
    <path class="uuid-fb2bba57-65ff-4ef2-98e3-cef8f596170f" d="M154.83,244.088c0-1.51,1.16-2.669,2.669-2.669.85,0,1.629.34,2.148.949l-.989.99c-.33-.39-.659-.56-1.1-.56-.64,0-1.119.549-1.119,1.289s.479,1.289,1.119,1.289c.44,0,.77-.17,1.1-.56l.989.989c-.52.609-1.299.949-2.148.949-1.509,0-2.669-1.159-2.669-2.668Z"></path>
    <path class="uuid-fb2bba57-65ff-4ef2-98e3-cef8f596170f" d="M160.451,239.54l1.619-.25v7.366h-1.619v-7.116Z"></path>
    <path class="uuid-fb2bba57-65ff-4ef2-98e3-cef8f596170f" d="M163.291,244.978v-3.479h1.619v3.009c0,.579.34.959.859.959.35,0,.63-.14.859-.43v-3.538h1.619v5.157h-1.619v-.84c-.399.6-.959.92-1.629.92-1,0-1.709-.729-1.709-1.759Z"></path>
    <path class="uuid-fb2bba57-65ff-4ef2-98e3-cef8f596170f" d="M169.091,246.127l.71-1.08c.739.39,1.159.52,1.658.52.46,0,.74-.159.74-.419,0-.2-.15-.311-.479-.37l-.99-.18c-.999-.19-1.519-.7-1.519-1.499,0-1.05.81-1.68,2.158-1.68.72,0,1.43.2,2.1.59l-.74,1.029c-.52-.3-.999-.439-1.479-.439-.391,0-.62.13-.62.35,0,.21.13.3.529.37l.97.18c1.02.189,1.549.71,1.549,1.489,0,1.01-.949,1.769-2.219,1.769-.939,0-1.769-.22-2.368-.629Z"></path>
    <path class="uuid-fb2bba57-65ff-4ef2-98e3-cef8f596170f" d="M175.2,245.097v-2.349h-1v-1.249h1v-1.429l1.619-.33v1.759h1.379v1.249h-1.379v2.029c0,.46.18.619.68.619.189,0,.34-.02.659-.109v1.31c-.3.09-.779.159-1.109.159-1.22,0-1.849-.56-1.849-1.659Z"></path>
    <path class="uuid-fb2bba57-65ff-4ef2-98e3-cef8f596170f" d="M178.82,244.088c0-1.51,1.12-2.669,2.599-2.669,1.489,0,2.539,1.13,2.539,2.729v.35h-3.548c.149.58.619.97,1.209.97.43,0,.79-.149,1.02-.43l1.069.89c-.67.59-1.299.829-2.169.829-1.52,0-2.719-1.169-2.719-2.668ZM182.459,243.578c-.141-.55-.53-.899-1.05-.899-.51,0-.869.329-.999.899h2.049Z"></path>
    <path class="uuid-fb2bba57-65ff-4ef2-98e3-cef8f596170f" d="M184.971,241.499h1.619v1.169c.329-.859.789-1.269,1.399-1.269.229.01.34.029.539.13v1.389c-.199-.1-.479-.159-.76-.159-.479,0-.919.249-1.179.64v3.258h-1.619v-5.157Z"></path>
  </g>
  <g>
    <path class="uuid-fb2bba57-65ff-4ef2-98e3-cef8f596170f" d="M83.29,29.352h3.741c1.584,0,2.717,1.023,2.717,2.453,0,.979-.561,1.771-1.43,2.156l1.617,3.092h-2.112l-1.397-2.827h-1.243v2.827h-1.893v-7.701ZM86.854,32.74c.583,0,.979-.363.979-.913s-.396-.913-.979-.913h-1.672v1.826h1.672Z"></path>
    <path class="uuid-fb2bba57-65ff-4ef2-98e3-cef8f596170f" d="M90.912,29.352h1.893v2.992h3.113v-2.992h1.893v7.701h-1.893v-3.048h-3.113v3.048h-1.893v-7.701Z"></path>
    <path class="uuid-fb2bba57-65ff-4ef2-98e3-cef8f596170f" d="M99.053,33.202c0-2.223,1.749-3.972,3.982-3.972s3.982,1.749,3.982,3.972-1.749,3.972-3.982,3.972-3.982-1.749-3.982-3.972ZM105.07,33.202c0-1.31-.88-2.288-2.035-2.288s-2.035.979-2.035,2.288.88,2.288,2.035,2.288,2.035-.979,2.035-2.288Z"></path>
    <path class="uuid-fb2bba57-65ff-4ef2-98e3-cef8f596170f" d="M108.007,33.202c0-2.244,1.771-3.972,4.06-3.972,1.232,0,2.453.583,3.124,1.496l-1.275,1.21c-.507-.682-1.122-1.022-1.849-1.022-1.199,0-2.102.979-2.102,2.288s.902,2.288,2.102,2.288c.727,0,1.342-.341,1.849-1.022l1.275,1.21c-.671.913-1.892,1.496-3.124,1.496-2.288,0-4.06-1.728-4.06-3.972Z"></path>
    <path class="uuid-fb2bba57-65ff-4ef2-98e3-cef8f596170f" d="M116.289,29.352h3.763c1.639,0,2.717,1.067,2.717,2.541,0,1.397-1.078,2.476-2.717,2.476h-1.871v2.685h-1.892v-7.701ZM119.71,32.861c.771,0,1.145-.418,1.145-.979,0-.55-.374-.968-1.133-.968h-1.541v1.947h1.529Z"></path>
  </g>
  <rect class="uuid-85b55c86-2682-4f8a-8426-c700d108a3cf" x="304.457" y="259.24" width="87.175" height="37.882"></rect>
  <rect class="uuid-85b55c86-2682-4f8a-8426-c700d108a3cf" x="408.344" y="259.24" width="87.175" height="37.882"></rect>
  <g>
    <path class="uuid-fb2bba57-65ff-4ef2-98e3-cef8f596170f" d="M97.132,170.251c0-2.019,1.589-3.608,3.618-3.608s3.618,1.59,3.618,3.608-1.589,3.608-3.618,3.608-3.618-1.59-3.618-3.608ZM102.6,170.251c0-1.189-.8-2.079-1.849-2.079s-1.849.89-1.849,2.079.8,2.079,1.849,2.079,1.849-.89,1.849-2.079Z"></path>
    <path class="uuid-fb2bba57-65ff-4ef2-98e3-cef8f596170f" d="M105.452,168.592h1.599v.72c.34-.46.91-.75,1.529-.75,1.27,0,2.279,1.17,2.279,2.619s-1.06,2.599-2.399,2.599c-.56,0-1.049-.21-1.389-.6v2.658h-1.619v-7.246ZM109.27,171.171c0-.73-.529-1.27-1.229-1.27-.399,0-.709.14-.969.42v1.719c.25.26.59.41.969.41.71,0,1.229-.54,1.229-1.279Z"></path>
    <path class="uuid-fb2bba57-65ff-4ef2-98e3-cef8f596170f" d="M111.662,171.181c0-1.51,1.12-2.669,2.599-2.669,1.489,0,2.539,1.13,2.539,2.729v.35h-3.548c.149.58.619.97,1.209.97.43,0,.79-.149,1.02-.43l1.069.89c-.67.59-1.299.829-2.169.829-1.519,0-2.719-1.169-2.719-2.668ZM115.301,170.671c-.141-.55-.53-.899-1.05-.899-.51,0-.869.329-.999.899h2.049Z"></path>
    <path class="uuid-fb2bba57-65ff-4ef2-98e3-cef8f596170f" d="M117.812,168.592h1.619v.84c.399-.6.959-.92,1.629-.92.999,0,1.709.729,1.709,1.759v3.479h-1.619v-3.009c0-.579-.34-.959-.859-.959-.35,0-.63.14-.859.43v3.538h-1.619v-5.157Z"></path>
    <path class="uuid-fb2bba57-65ff-4ef2-98e3-cef8f596170f" d="M123.552,172.8l.88-1.27c.97.68,1.579.93,2.269.93.74,0,1.189-.3,1.189-.74,0-.409-.239-.609-.919-.729l-1.489-.26c-1.109-.189-1.72-.89-1.72-1.879,0-1.359,1.04-2.209,2.779-2.209,1.079,0,2.148.351,2.868.92l-.87,1.249c-.68-.52-1.349-.77-2.089-.77-.68,0-1.069.28-1.069.66,0,.359.23.539.79.64l1.399.239c1.309.22,1.999.91,1.999,1.979,0,1.369-1.16,2.299-2.989,2.299-1.109,0-2.099-.37-3.028-1.06Z"></path>
    <path class="uuid-fb2bba57-65ff-4ef2-98e3-cef8f596170f" d="M130.542,166.633l1.619-.25v3.049c.399-.6.959-.92,1.629-.92.999,0,1.709.729,1.709,1.759v3.479h-1.619v-3.009c0-.579-.34-.959-.859-.959-.35,0-.63.14-.859.43v3.538h-1.619v-7.116Z"></path>
    <path class="uuid-fb2bba57-65ff-4ef2-98e3-cef8f596170f" d="M136.622,166.893c0-.499.41-.909.91-.909s.909.41.909.909-.41.91-.909.91-.91-.41-.91-.91ZM136.723,168.592h1.619v5.157h-1.619v-5.157Z"></path>
    <path class="uuid-fb2bba57-65ff-4ef2-98e3-cef8f596170f" d="M140.362,169.841h-1.07v-1.249h1.07v-.68c0-1.229.729-1.898,2.059-1.898.279,0,.649.04.859.1v1.329c-.29-.05-.439-.06-.62-.06-.459,0-.679.18-.679.56v.649h1.299v1.249h-1.299v3.908h-1.619v-3.908Z"></path>
    <path class="uuid-fb2bba57-65ff-4ef2-98e3-cef8f596170f" d="M144.882,172.19v-2.349h-1v-1.249h1v-1.429l1.619-.33v1.759h1.379v1.249h-1.379v2.029c0,.46.18.619.68.619.189,0,.34-.02.659-.109v1.31c-.3.09-.779.159-1.109.159-1.22,0-1.849-.56-1.849-1.659Z"></path>
    <path class="uuid-fb2bba57-65ff-4ef2-98e3-cef8f596170f" d="M151.081,166.753h2.849c1.959,0,3.519,1.559,3.519,3.498s-1.56,3.498-3.519,3.498h-2.849v-6.996ZM153.93,172.281c.97,0,1.739-.9,1.739-2.029s-.77-2.029-1.739-2.029h-1.129v4.059h1.129Z"></path>
    <path class="uuid-fb2bba57-65ff-4ef2-98e3-cef8f596170f" d="M158.191,172.27c0-.949.739-1.499,2.009-1.499.37,0,.74.07,1.199.24v-.42c0-.5-.329-.75-1.02-.75-.39,0-.849.11-1.449.36l-.56-1.13c.85-.38,1.609-.56,2.369-.56,1.429,0,2.259.71,2.259,1.939v3.298h-1.6v-.45c-.449.38-.879.53-1.429.53-1.05,0-1.779-.64-1.779-1.56ZM160.471,172.76c.34,0,.649-.09.929-.26v-.66c-.3-.069-.589-.109-.889-.109-.53,0-.83.18-.83.51s.29.52.79.52Z"></path>
    <path class="uuid-fb2bba57-65ff-4ef2-98e3-cef8f596170f" d="M164.752,172.19v-2.349h-1v-1.249h1v-1.429l1.619-.33v1.759h1.379v1.249h-1.379v2.029c0,.46.18.619.68.619.189,0,.34-.02.659-.109v1.31c-.3.09-.779.159-1.109.159-1.22,0-1.849-.56-1.849-1.659Z"></path>
    <path class="uuid-fb2bba57-65ff-4ef2-98e3-cef8f596170f" d="M168.412,172.27c0-.949.739-1.499,2.009-1.499.37,0,.74.07,1.199.24v-.42c0-.5-.329-.75-1.02-.75-.39,0-.849.11-1.449.36l-.56-1.13c.85-.38,1.609-.56,2.369-.56,1.429,0,2.259.71,2.259,1.939v3.298h-1.6v-.45c-.449.38-.879.53-1.429.53-1.05,0-1.779-.64-1.779-1.56ZM170.691,172.76c.34,0,.649-.09.929-.26v-.66c-.3-.069-.589-.109-.889-.109-.53,0-.83.18-.83.51s.29.52.79.52Z"></path>
    <path class="uuid-fb2bba57-65ff-4ef2-98e3-cef8f596170f" d="M97.462,178.753h5.327v1.439h-3.608v1.379h2.519v1.399h-2.519v2.778h-1.719v-6.996Z"></path>
    <path class="uuid-fb2bba57-65ff-4ef2-98e3-cef8f596170f" d="M102.812,183.181c0-1.52,1.159-2.669,2.688-2.669s2.688,1.149,2.688,2.669-1.159,2.668-2.688,2.668-2.688-1.149-2.688-2.668ZM106.61,183.181c0-.77-.46-1.319-1.109-1.319s-1.109.55-1.109,1.319.46,1.319,1.109,1.319,1.109-.55,1.109-1.319Z"></path>
    <path class="uuid-fb2bba57-65ff-4ef2-98e3-cef8f596170f" d="M109.183,184.071v-3.479h1.619v3.009c0,.579.34.959.859.959.35,0,.63-.14.859-.43v-3.538h1.619v5.157h-1.619v-.84c-.399.6-.959.92-1.629.92-1,0-1.709-.729-1.709-1.759Z"></path>
    <path class="uuid-fb2bba57-65ff-4ef2-98e3-cef8f596170f" d="M115.402,180.592h1.619v.84c.399-.6.959-.92,1.629-.92.999,0,1.709.729,1.709,1.759v3.479h-1.619v-3.009c0-.579-.34-.959-.859-.959-.35,0-.63.14-.859.43v3.538h-1.619v-5.157Z"></path>
    <path class="uuid-fb2bba57-65ff-4ef2-98e3-cef8f596170f" d="M121.352,183.161c0-1.449,1.06-2.599,2.399-2.599.539,0,1.029.221,1.379.62v-2.549l1.619-.25v7.366h-1.6v-.67c-.34.43-.909.7-1.519.7-1.27,0-2.279-1.17-2.279-2.619ZM125.13,184.031v-1.739c-.25-.26-.59-.399-.96-.399-.709,0-1.229.539-1.229,1.279,0,.729.529,1.269,1.229,1.269.391,0,.71-.14.96-.409Z"></path>
    <path class="uuid-fb2bba57-65ff-4ef2-98e3-cef8f596170f" d="M127.772,184.27c0-.949.739-1.499,2.009-1.499.37,0,.74.07,1.199.24v-.42c0-.5-.329-.75-1.02-.75-.39,0-.849.11-1.449.36l-.56-1.13c.85-.38,1.609-.56,2.369-.56,1.429,0,2.259.71,2.259,1.939v3.298h-1.6v-.45c-.449.38-.879.53-1.429.53-1.05,0-1.779-.64-1.779-1.56ZM130.052,184.76c.34,0,.649-.09.929-.26v-.66c-.3-.069-.589-.109-.889-.109-.53,0-.83.18-.83.51s.29.52.79.52Z"></path>
    <path class="uuid-fb2bba57-65ff-4ef2-98e3-cef8f596170f" d="M134.332,184.19v-2.349h-1v-1.249h1v-1.429l1.619-.33v1.759h1.379v1.249h-1.379v2.029c0,.46.18.619.68.619.189,0,.34-.02.659-.109v1.31c-.3.09-.779.159-1.109.159-1.22,0-1.849-.56-1.849-1.659Z"></path>
    <path class="uuid-fb2bba57-65ff-4ef2-98e3-cef8f596170f" d="M138.132,178.893c0-.499.41-.909.91-.909s.909.41.909.909-.41.91-.909.91-.91-.41-.91-.91ZM138.232,180.592h1.619v5.157h-1.619v-5.157Z"></path>
    <path class="uuid-fb2bba57-65ff-4ef2-98e3-cef8f596170f" d="M140.882,183.181c0-1.52,1.16-2.669,2.688-2.669s2.688,1.149,2.688,2.669-1.159,2.668-2.688,2.668-2.688-1.149-2.688-2.668ZM144.68,183.181c0-.77-.459-1.319-1.109-1.319s-1.109.55-1.109,1.319.46,1.319,1.109,1.319,1.109-.55,1.109-1.319Z"></path>
    <path class="uuid-fb2bba57-65ff-4ef2-98e3-cef8f596170f" d="M147.292,180.592h1.619v.84c.399-.6.959-.92,1.629-.92.999,0,1.709.729,1.709,1.759v3.479h-1.619v-3.009c0-.579-.34-.959-.859-.959-.35,0-.63.14-.859.43v3.538h-1.619v-5.157Z"></path>
  </g>
  <g>
    <path class="uuid-a070049e-6a26-48e1-aad3-10ca79bd06ed" d="M124.546,273.838v8.687c0,4.798,7.04,8.687,15.725,8.687s15.725-3.889,15.725-8.687v-8.687"></path>
    <ellipse class="uuid-a070049e-6a26-48e1-aad3-10ca79bd06ed" cx="140.271" cy="273.838" rx="15.725" ry="8.687"></ellipse>
  </g>
  <g>
    <path class="uuid-a070049e-6a26-48e1-aad3-10ca79bd06ed" d="M228.433,273.838v8.687c0,4.798,7.04,8.687,15.725,8.687s15.725-3.889,15.725-8.687v-8.687"></path>
    <ellipse class="uuid-a070049e-6a26-48e1-aad3-10ca79bd06ed" cx="244.158" cy="273.838" rx="15.725" ry="8.687"></ellipse>
  </g>
  <g>
    <path class="uuid-a070049e-6a26-48e1-aad3-10ca79bd06ed" d="M332.32,273.838v8.687c0,4.798,7.04,8.687,15.725,8.687s15.725-3.889,15.725-8.687v-8.687"></path>
    <ellipse class="uuid-a070049e-6a26-48e1-aad3-10ca79bd06ed" cx="348.045" cy="273.838" rx="15.725" ry="8.687"></ellipse>
  </g>
  <g>
    <path class="uuid-a070049e-6a26-48e1-aad3-10ca79bd06ed" d="M436.207,273.838v8.687c0,4.798,7.04,8.687,15.725,8.687s15.725-3.889,15.725-8.687v-8.687"></path>
    <ellipse class="uuid-a070049e-6a26-48e1-aad3-10ca79bd06ed" cx="451.932" cy="273.838" rx="15.725" ry="8.687"></ellipse>
  </g>
  <rect class="uuid-85b55c86-2682-4f8a-8426-c700d108a3cf" x="233.295" y="47.589" width="58.806" height="37.882"></rect>
  <rect class="uuid-85b55c86-2682-4f8a-8426-c700d108a3cf" x="300.101" y="47.589" width="58.806" height="37.882"></rect>
  <rect class="uuid-85b55c86-2682-4f8a-8426-c700d108a3cf" x="369.907" y="47.589" width="58.806" height="37.882"></rect>
  <rect class="uuid-85b55c86-2682-4f8a-8426-c700d108a3cf" x="436.713" y="47.589" width="58.806" height="37.882"></rect>
  <rect class="uuid-85b55c86-2682-4f8a-8426-c700d108a3cf" x="130.086" y="47.589" width="58.806" height="37.882"></rect>
  <g>
    <line class="uuid-74ba31d0-acab-4baf-96b9-b0c0db52dfe0" x1="159.489" y1="118.338" x2="159.489" y2="90.635"></line>
    <polygon class="uuid-fb2bba57-65ff-4ef2-98e3-cef8f596170f" points="163.229 91.729 159.489 85.253 155.749 91.729 163.229 91.729"></polygon>
  </g>
  <g>
    <line class="uuid-74ba31d0-acab-4baf-96b9-b0c0db52dfe0" x1="191.738" y1="229.877" x2="191.738" y2="162.752"></line>
    <polygon class="uuid-fb2bba57-65ff-4ef2-98e3-cef8f596170f" points="195.477 163.846 191.738 157.37 187.998 163.846 195.477 163.846"></polygon>
  </g>
  <g>
    <line class="uuid-74ba31d0-acab-4baf-96b9-b0c0db52dfe0" x1="296.101" y1="229.877" x2="296.101" y2="162.752"></line>
    <polygon class="uuid-fb2bba57-65ff-4ef2-98e3-cef8f596170f" points="299.841 163.846 296.101 157.37 292.361 163.846 299.841 163.846"></polygon>
  </g>
  <g>
    <line class="uuid-74ba31d0-acab-4baf-96b9-b0c0db52dfe0" x1="400.506" y1="229.877" x2="400.506" y2="162.752"></line>
    <polygon class="uuid-fb2bba57-65ff-4ef2-98e3-cef8f596170f" points="404.246 163.846 400.506 157.37 396.766 163.846 404.246 163.846"></polygon>
  </g>
  <g>
    <line class="uuid-74ba31d0-acab-4baf-96b9-b0c0db52dfe0" x1="262.698" y1="118.338" x2="262.698" y2="90.635"></line>
    <polygon class="uuid-fb2bba57-65ff-4ef2-98e3-cef8f596170f" points="266.438 91.729 262.698 85.253 258.958 91.729 266.438 91.729"></polygon>
  </g>
  <g>
    <line class="uuid-74ba31d0-acab-4baf-96b9-b0c0db52dfe0" x1="326.326" y1="118.338" x2="326.326" y2="90.635"></line>
    <polygon class="uuid-fb2bba57-65ff-4ef2-98e3-cef8f596170f" points="330.066 91.729 326.326 85.253 322.587 91.729 330.066 91.729"></polygon>
  </g>
  <g>
    <line class="uuid-74ba31d0-acab-4baf-96b9-b0c0db52dfe0" x1="399.31" y1="118.338" x2="399.31" y2="90.635"></line>
    <polygon class="uuid-fb2bba57-65ff-4ef2-98e3-cef8f596170f" points="403.05 91.729 399.31 85.253 395.57 91.729 403.05 91.729"></polygon>
  </g>
  <g>
    <line class="uuid-74ba31d0-acab-4baf-96b9-b0c0db52dfe0" x1="466.116" y1="118.338" x2="466.116" y2="90.635"></line>
    <polygon class="uuid-fb2bba57-65ff-4ef2-98e3-cef8f596170f" points="469.856 91.729 466.116 85.253 462.376 91.729 469.856 91.729"></polygon>
  </g>
  <g>
    <path class="uuid-fb2bba57-65ff-4ef2-98e3-cef8f596170f" d="M151.124,62.305h3.128c1.419,0,2.339.89,2.339,2.179,0,1.26-.919,2.148-2.339,2.148h-1.929v2.669h-1.2v-6.996ZM154.062,65.652c.85,0,1.319-.47,1.319-1.179,0-.689-.47-1.159-1.309-1.159h-1.749v2.338h1.739Z"></path>
    <path class="uuid-fb2bba57-65ff-4ef2-98e3-cef8f596170f" d="M157.094,66.802c0-1.479,1.08-2.588,2.519-2.588,1.429,0,2.509,1.109,2.509,2.588s-1.08,2.589-2.509,2.589c-1.439,0-2.519-1.109-2.519-2.589ZM161.012,66.802c0-.929-.59-1.629-1.399-1.629-.819,0-1.409.7-1.409,1.629,0,.939.59,1.63,1.409,1.63.81,0,1.399-.69,1.399-1.63Z"></path>
    <path class="uuid-fb2bba57-65ff-4ef2-98e3-cef8f596170f" d="M163.063,66.802c0-1.429,1.029-2.548,2.339-2.548.569,0,1.089.229,1.459.649v-2.769l1.129-.2v7.366h-1.119v-.659c-.36.449-.92.709-1.549.709-1.27,0-2.259-1.129-2.259-2.549ZM166.861,67.852v-2.108c-.29-.34-.72-.54-1.189-.54-.859,0-1.499.68-1.499,1.599,0,.91.64,1.6,1.499,1.6.49,0,.9-.19,1.189-.55Z"></path>
  </g>
  <g>
    <path class="uuid-fb2bba57-65ff-4ef2-98e3-cef8f596170f" d="M254.333,62.305h3.128c1.419,0,2.339.89,2.339,2.179,0,1.26-.919,2.148-2.339,2.148h-1.929v2.669h-1.2v-6.996ZM257.271,65.652c.85,0,1.319-.47,1.319-1.179,0-.689-.47-1.159-1.309-1.159h-1.749v2.338h1.739Z"></path>
    <path class="uuid-fb2bba57-65ff-4ef2-98e3-cef8f596170f" d="M260.303,66.802c0-1.479,1.08-2.588,2.519-2.588,1.429,0,2.509,1.109,2.509,2.588s-1.08,2.589-2.509,2.589c-1.439,0-2.519-1.109-2.519-2.589ZM264.221,66.802c0-.929-.59-1.629-1.399-1.629-.819,0-1.409.7-1.409,1.629,0,.939.59,1.63,1.409,1.63.81,0,1.399-.69,1.399-1.63Z"></path>
    <path class="uuid-fb2bba57-65ff-4ef2-98e3-cef8f596170f" d="M266.272,66.802c0-1.429,1.029-2.548,2.339-2.548.569,0,1.089.229,1.459.649v-2.769l1.129-.2v7.366h-1.119v-.659c-.36.449-.92.709-1.549.709-1.27,0-2.259-1.129-2.259-2.549ZM270.07,67.852v-2.108c-.29-.34-.72-.54-1.189-.54-.859,0-1.499.68-1.499,1.599,0,.91.64,1.6,1.499,1.6.49,0,.9-.19,1.189-.55Z"></path>
  </g>
  <g>
    <path class="uuid-fb2bba57-65ff-4ef2-98e3-cef8f596170f" d="M321.139,62.305h3.128c1.42,0,2.339.89,2.339,2.179,0,1.26-.919,2.148-2.339,2.148h-1.929v2.669h-1.199v-6.996ZM324.077,65.652c.85,0,1.319-.47,1.319-1.179,0-.689-.47-1.159-1.31-1.159h-1.749v2.338h1.739Z"></path>
    <path class="uuid-fb2bba57-65ff-4ef2-98e3-cef8f596170f" d="M327.108,66.802c0-1.479,1.08-2.588,2.519-2.588,1.43,0,2.509,1.109,2.509,2.588s-1.079,2.589-2.509,2.589c-1.438,0-2.519-1.109-2.519-2.589ZM331.026,66.802c0-.929-.59-1.629-1.399-1.629-.819,0-1.409.7-1.409,1.629,0,.939.59,1.63,1.409,1.63.81,0,1.399-.69,1.399-1.63Z"></path>
    <path class="uuid-fb2bba57-65ff-4ef2-98e3-cef8f596170f" d="M333.078,66.802c0-1.429,1.029-2.548,2.339-2.548.569,0,1.09.229,1.459.649v-2.769l1.13-.2v7.366h-1.119v-.659c-.36.449-.92.709-1.55.709-1.27,0-2.259-1.129-2.259-2.549ZM336.876,67.852v-2.108c-.289-.34-.72-.54-1.189-.54-.859,0-1.499.68-1.499,1.599,0,.91.64,1.6,1.499,1.6.49,0,.9-.19,1.189-.55Z"></path>
  </g>
  <g>
    <path class="uuid-fb2bba57-65ff-4ef2-98e3-cef8f596170f" d="M390.944,62.305h3.129c1.419,0,2.339.89,2.339,2.179,0,1.26-.92,2.148-2.339,2.148h-1.929v2.669h-1.2v-6.996ZM393.883,65.652c.85,0,1.319-.47,1.319-1.179,0-.689-.47-1.159-1.309-1.159h-1.749v2.338h1.738Z"></path>
    <path class="uuid-fb2bba57-65ff-4ef2-98e3-cef8f596170f" d="M396.915,66.802c0-1.479,1.079-2.588,2.519-2.588,1.429,0,2.509,1.109,2.509,2.588s-1.08,2.589-2.509,2.589c-1.439,0-2.519-1.109-2.519-2.589ZM400.833,66.802c0-.929-.59-1.629-1.399-1.629-.819,0-1.409.7-1.409,1.629,0,.939.59,1.63,1.409,1.63.81,0,1.399-.69,1.399-1.63Z"></path>
    <path class="uuid-fb2bba57-65ff-4ef2-98e3-cef8f596170f" d="M402.885,66.802c0-1.429,1.029-2.548,2.339-2.548.569,0,1.089.229,1.459.649v-2.769l1.129-.2v7.366h-1.119v-.659c-.359.449-.92.709-1.549.709-1.27,0-2.259-1.129-2.259-2.549ZM406.683,67.852v-2.108c-.29-.34-.72-.54-1.189-.54-.859,0-1.499.68-1.499,1.599,0,.91.64,1.6,1.499,1.6.489,0,.899-.19,1.189-.55Z"></path>
  </g>
  <g>
    <path class="uuid-fb2bba57-65ff-4ef2-98e3-cef8f596170f" d="M286.607,93.604h2.8c1.251,0,2.106.774,2.106,1.908,0,.819-.486,1.459-1.251,1.729l1.333,2.665h-1.197l-1.215-2.521h-1.495v2.521h-1.08v-6.302ZM289.308,96.521c.675,0,1.116-.396,1.116-1,0-.611-.441-1.008-1.116-1.008h-1.621v2.008h1.621Z"></path>
    <path class="uuid-fb2bba57-65ff-4ef2-98e3-cef8f596170f" d="M292.052,93.604h1.099l.936,4.618,1.351-4.618h1.026l1.35,4.609.937-4.609h1.062l-1.377,6.302h-1.125l-1.377-4.763-1.377,4.763h-1.125l-1.377-6.302Z"></path>
    <path class="uuid-fb2bba57-65ff-4ef2-98e3-cef8f596170f" d="M302.573,96.638l-2.277-3.034h1.287l1.647,2.251,1.63-2.251h1.251l-2.277,3.061,2.422,3.241h-1.297l-1.773-2.467-1.792,2.467h-1.242l2.422-3.268Z"></path>
  </g>
  <g>
    <path class="uuid-fb2bba57-65ff-4ef2-98e3-cef8f596170f" d="M166.427,93.604h2.8c1.251,0,2.106.774,2.106,1.908,0,.819-.486,1.459-1.251,1.729l1.333,2.665h-1.197l-1.215-2.521h-1.495v2.521h-1.08v-6.302ZM169.127,96.521c.675,0,1.116-.396,1.116-1,0-.611-.441-1.008-1.116-1.008h-1.621v2.008h1.621Z"></path>
    <path class="uuid-fb2bba57-65ff-4ef2-98e3-cef8f596170f" d="M171.872,93.604h1.099l.936,4.618,1.351-4.618h1.026l1.35,4.609.937-4.609h1.062l-1.377,6.302h-1.125l-1.377-4.763-1.377,4.763h-1.125l-1.377-6.302Z"></path>
    <path class="uuid-fb2bba57-65ff-4ef2-98e3-cef8f596170f" d="M180.296,96.754c0-1.818,1.404-3.25,3.187-3.25s3.187,1.432,3.187,3.25-1.404,3.25-3.187,3.25-3.187-1.431-3.187-3.25ZM185.562,96.754c0-1.296-.9-2.277-2.079-2.277s-2.089.981-2.089,2.277.909,2.278,2.089,2.278,2.079-.981,2.079-2.278Z"></path>
  </g>
  <g>
    <path class="uuid-fb2bba57-65ff-4ef2-98e3-cef8f596170f" d="M457.751,62.305h3.128c1.42,0,2.339.89,2.339,2.179,0,1.26-.919,2.148-2.339,2.148h-1.929v2.669h-1.199v-6.996ZM460.689,65.652c.85,0,1.319-.47,1.319-1.179,0-.689-.47-1.159-1.31-1.159h-1.749v2.338h1.739Z"></path>
    <path class="uuid-fb2bba57-65ff-4ef2-98e3-cef8f596170f" d="M463.721,66.802c0-1.479,1.08-2.588,2.519-2.588,1.43,0,2.509,1.109,2.509,2.588s-1.079,2.589-2.509,2.589c-1.438,0-2.519-1.109-2.519-2.589ZM467.639,66.802c0-.929-.59-1.629-1.399-1.629-.819,0-1.409.7-1.409,1.629,0,.939.59,1.63,1.409,1.63.81,0,1.399-.69,1.399-1.63Z"></path>
    <path class="uuid-fb2bba57-65ff-4ef2-98e3-cef8f596170f" d="M469.69,66.802c0-1.429,1.029-2.548,2.339-2.548.569,0,1.09.229,1.459.649v-2.769l1.13-.2v7.366h-1.119v-.659c-.36.449-.92.709-1.55.709-1.27,0-2.259-1.129-2.259-2.549ZM473.488,67.852v-2.108c-.289-.34-.72-.54-1.189-.54-.859,0-1.499.68-1.499,1.599,0,.91.64,1.6,1.499,1.6.49,0,.9-.19,1.189-.55Z"></path>
  </g>
</svg>