<svg id="uuid-d7d53c69-9976-4a47-a275-2a0512deaca7" data-name="Layer 1" xmlns="http://www.w3.org/2000/svg" width="595.276" height="508.754" viewBox="0 0 595.276 508.754">
  <defs>
    <style>
      .uuid-36a6c7e3-b690-4129-9ed6-ba57f34ee732 {
        stroke-linecap: round;
        stroke-linejoin: round;
      }

      .uuid-36a6c7e3-b690-4129-9ed6-ba57f34ee732, .uuid-edda1e2c-4bd3-4674-bb3c-1912acda487c {
        stroke: #000;
      }

      .uuid-36a6c7e3-b690-4129-9ed6-ba57f34ee732, .uuid-4272b6cf-1847-4ca3-88c1-ee2ab12844d4 {
        fill: #fff;
      }

      .uuid-01a4eedc-79ca-4aa0-adb9-68dd00f73e20 {
        fill: #dcdcdc;
      }

      .uuid-01a4eedc-79ca-4aa0-adb9-68dd00f73e20, .uuid-547f0c69-2da2-48b9-a12e-f94d8773ff3f, .uuid-8e53f155-8564-4b06-ac77-2ac082c26bc5, .uuid-d2dcdb2d-3096-43b3-bc7c-e7a040c5bcb5, .uuid-4baa3121-722b-4f4a-9a29-69ceed84f754, .uuid-4272b6cf-1847-4ca3-88c1-ee2ab12844d4, .uuid-57830a08-864a-4798-8827-ae872a4149b2 {
        stroke-width: 0px;
      }

      .uuid-547f0c69-2da2-48b9-a12e-f94d8773ff3f {
        fill: #000;
      }

      .uuid-8e53f155-8564-4b06-ac77-2ac082c26bc5 {
        fill: #a1c2e7;
      }

      .uuid-d2dcdb2d-3096-43b3-bc7c-e7a040c5bcb5 {
        fill: #f0f0f0;
      }

      .uuid-4baa3121-722b-4f4a-9a29-69ceed84f754 {
        fill: #dbe8f5;
      }

      .uuid-edda1e2c-4bd3-4674-bb3c-1912acda487c {
        fill: none;
        stroke-miterlimit: 10;
      }

      .uuid-57830a08-864a-4798-8827-ae872a4149b2 {
        fill: #e6e6e6;
      }
    </style>
  </defs>
  <rect class="uuid-d2dcdb2d-3096-43b3-bc7c-e7a040c5bcb5" x="66.479" y="24.316" width="458.35" height="464.884"></rect>
  <rect class="uuid-4baa3121-722b-4f4a-9a29-69ceed84f754" x="82.432" y="114.111" width="427.339" height="181.735"></rect>
  <rect class="uuid-4272b6cf-1847-4ca3-88c1-ee2ab12844d4" x="96.683" y="128.845" width="125.612" height="37.882"></rect>
  <rect class="uuid-8e53f155-8564-4b06-ac77-2ac082c26bc5" x="96.683" y="188.006" width="398.836" height="77.485"></rect>
  <rect class="uuid-4272b6cf-1847-4ca3-88c1-ee2ab12844d4" x="233.295" y="128.845" width="125.612" height="37.882"></rect>
  <rect class="uuid-4272b6cf-1847-4ca3-88c1-ee2ab12844d4" x="369.907" y="128.845" width="125.612" height="37.882"></rect>
  <rect class="uuid-4272b6cf-1847-4ca3-88c1-ee2ab12844d4" x="106.49" y="217.369" width="87.175" height="37.882"></rect>
  <rect class="uuid-4272b6cf-1847-4ca3-88c1-ee2ab12844d4" x="203.839" y="217.369" width="87.175" height="37.882"></rect>
  <rect class="uuid-4272b6cf-1847-4ca3-88c1-ee2ab12844d4" x="301.188" y="217.369" width="87.175" height="37.882"></rect>
  <rect class="uuid-4272b6cf-1847-4ca3-88c1-ee2ab12844d4" x="398.537" y="217.369" width="87.175" height="37.882"></rect>
  <g>
    <path class="uuid-547f0c69-2da2-48b9-a12e-f94d8773ff3f" d="M128.003,235.583c0-2.029,1.579-3.608,3.618-3.608,1.069,0,2.089.46,2.729,1.25l-.8.779c-.5-.62-1.189-.949-1.929-.949-1.359,0-2.389,1.089-2.389,2.528s1.029,2.528,2.389,2.528c.739,0,1.429-.329,1.929-.949l.8.779c-.64.79-1.659,1.25-2.729,1.25-2.039,0-3.618-1.579-3.618-3.608Z"></path>
    <path class="uuid-547f0c69-2da2-48b9-a12e-f94d8773ff3f" d="M135.043,236.582c0-1.469,1.06-2.588,2.438-2.588,1.37,0,2.369,1.089,2.369,2.588v.271h-3.698c.11.81.72,1.399,1.499,1.399.47,0,.91-.181,1.189-.47l.74.669c-.61.51-1.219.729-1.979.729-1.439,0-2.559-1.129-2.559-2.599ZM138.781,236.152c-.12-.729-.64-1.239-1.309-1.239-.68,0-1.179.49-1.309,1.239h2.618Z"></path>
    <path class="uuid-547f0c69-2da2-48b9-a12e-f94d8773ff3f" d="M141.003,234.074h1.109v.709c.36-.47.919-.749,1.559-.749,1.27,0,2.259,1.129,2.259,2.548,0,1.43-1.02,2.549-2.329,2.549-.59,0-1.109-.22-1.469-.64v2.679h-1.129v-7.096ZM144.821,236.582c0-.909-.64-1.599-1.489-1.599-.5,0-.91.2-1.199.56v2.089c.29.35.72.56,1.199.56.859,0,1.489-.689,1.489-1.609Z"></path>
    <path class="uuid-547f0c69-2da2-48b9-a12e-f94d8773ff3f" d="M147.113,231.915l1.129-.2v3.179c.38-.59.929-.899,1.579-.899,1.029,0,1.749.729,1.749,1.789v3.298h-1.14v-2.979c0-.729-.43-1.199-1.099-1.199-.46,0-.83.21-1.089.609v3.568h-1.129v-7.166Z"></path>
    <path class="uuid-547f0c69-2da2-48b9-a12e-f94d8773ff3f" d="M155.183,234.074h1.109v.709c.36-.47.919-.749,1.559-.749,1.27,0,2.259,1.129,2.259,2.548,0,1.43-1.02,2.549-2.329,2.549-.59,0-1.109-.22-1.469-.64v2.679h-1.129v-7.096ZM159,236.582c0-.909-.64-1.599-1.489-1.599-.5,0-.91.2-1.199.56v2.089c.29.35.72.56,1.199.56.859,0,1.489-.689,1.489-1.609Z"></path>
    <path class="uuid-547f0c69-2da2-48b9-a12e-f94d8773ff3f" d="M161.062,236.582c0-1.479,1.079-2.588,2.519-2.588,1.43,0,2.509,1.109,2.509,2.588s-1.079,2.589-2.509,2.589c-1.439,0-2.519-1.109-2.519-2.589ZM164.98,236.582c0-.929-.59-1.629-1.399-1.629-.819,0-1.409.7-1.409,1.629,0,.939.59,1.63,1.409,1.63.81,0,1.399-.69,1.399-1.63Z"></path>
    <path class="uuid-547f0c69-2da2-48b9-a12e-f94d8773ff3f" d="M167.033,236.582c0-1.429,1.029-2.548,2.339-2.548.569,0,1.089.229,1.459.649v-2.769l1.13-.2v7.366h-1.12v-.659c-.359.449-.919.709-1.549.709-1.27,0-2.259-1.129-2.259-2.549ZM170.831,237.631v-2.108c-.29-.34-.72-.54-1.189-.54-.859,0-1.499.68-1.499,1.599,0,.91.64,1.6,1.499,1.6.49,0,.899-.19,1.189-.55Z"></path>
  </g>
  <g>
    <path class="uuid-547f0c69-2da2-48b9-a12e-f94d8773ff3f" d="M171.622,175.343h2.809c1.18,0,1.98.675,1.98,1.656,0,.64-.396,1.152-1.026,1.396.756.225,1.242.774,1.242,1.494,0,1.045-.837,1.756-2.08,1.756h-2.926v-6.302ZM174.314,177.999c.612,0,1.017-.351,1.017-.891,0-.531-.396-.883-1.017-.883h-1.612v1.773h1.612ZM174.413,180.763c.685,0,1.125-.388,1.125-.973s-.432-.963-1.125-.963h-1.71v1.936h1.71Z"></path>
    <path class="uuid-547f0c69-2da2-48b9-a12e-f94d8773ff3f" d="M177.76,175.19l1.017-.18v6.635h-1.017v-6.455Z"></path>
    <path class="uuid-547f0c69-2da2-48b9-a12e-f94d8773ff3f" d="M179.821,179.394c0-1.332.972-2.331,2.269-2.331,1.287,0,2.26.999,2.26,2.331s-.973,2.332-2.26,2.332c-1.296,0-2.269-.999-2.269-2.332ZM183.35,179.394c0-.837-.531-1.467-1.26-1.467-.738,0-1.27.63-1.27,1.467,0,.847.531,1.468,1.27,1.468.729,0,1.26-.621,1.26-1.468Z"></path>
    <path class="uuid-547f0c69-2da2-48b9-a12e-f94d8773ff3f" d="M185.194,179.394c0-1.305.99-2.331,2.277-2.331.702,0,1.351.278,1.801.765l-.63.657c-.315-.351-.702-.531-1.134-.531-.729,0-1.296.631-1.296,1.44,0,.819.567,1.44,1.296,1.44.432,0,.819-.18,1.134-.521l.63.647c-.45.486-1.099.766-1.801.766-1.287,0-2.277-1.018-2.277-2.332Z"></path>
    <path class="uuid-547f0c69-2da2-48b9-a12e-f94d8773ff3f" d="M190.108,175.172l1.017-.171v4.051l1.873-1.918h1.17l-2.08,2.089,2.188,2.422h-1.296l-1.854-2.08v2.08h-1.017v-6.473Z"></path>
    <path class="uuid-547f0c69-2da2-48b9-a12e-f94d8773ff3f" d="M196.596,181.123l.477-.675c.594.369.99.513,1.45.513.54,0,.909-.252.909-.612,0-.278-.189-.423-.63-.513l-.792-.135c-.882-.162-1.306-.567-1.306-1.242,0-.847.693-1.396,1.747-1.396.63,0,1.197.18,1.773.54l-.477.675c-.459-.297-.9-.432-1.359-.432-.468,0-.774.197-.774.521,0,.288.162.414.63.495l.801.153c.9.162,1.333.576,1.333,1.252,0,.828-.792,1.467-1.846,1.467-.774,0-1.458-.216-1.936-.612Z"></path>
    <path class="uuid-547f0c69-2da2-48b9-a12e-f94d8773ff3f" d="M201.781,180.475v-2.53h-.9v-.811h.9v-1.242l1.017-.216v1.458h1.251v.811h-1.251v2.305c0,.441.171.612.63.612.198,0,.342-.027.612-.108v.855c-.261.081-.604.126-.874.126-.909,0-1.386-.432-1.386-1.26Z"></path>
    <path class="uuid-547f0c69-2da2-48b9-a12e-f94d8773ff3f" d="M204.669,179.394c0-1.332.972-2.331,2.269-2.331,1.288,0,2.259.999,2.259,2.331s-.972,2.332-2.259,2.332c-1.296,0-2.269-.999-2.269-2.332ZM208.198,179.394c0-.837-.531-1.467-1.26-1.467-.738,0-1.27.63-1.27,1.467,0,.847.531,1.468,1.27,1.468.729,0,1.26-.621,1.26-1.468Z"></path>
    <path class="uuid-547f0c69-2da2-48b9-a12e-f94d8773ff3f" d="M210.249,177.134h1.018v.973c.252-.685.685-1.054,1.242-1.054.171.01.288.027.441.091v.891c-.162-.062-.369-.107-.559-.107-.495,0-.9.278-1.125.747v2.971h-1.018v-4.511Z"></path>
    <path class="uuid-547f0c69-2da2-48b9-a12e-f94d8773ff3f" d="M213.417,180.348c0-.81.666-1.323,1.729-1.323.423,0,.819.091,1.215.288v-.504c0-.594-.342-.9-1.035-.9-.378,0-.792.108-1.314.352l-.36-.738c.676-.307,1.27-.459,1.873-.459,1.179,0,1.846.594,1.846,1.638v2.944h-1.009v-.468c-.387.378-.819.549-1.341.549-.945,0-1.603-.567-1.603-1.378ZM215.298,181.005c.405,0,.757-.116,1.062-.378v-.729c-.324-.153-.648-.217-1.035-.217-.585,0-.954.243-.954.648,0,.414.36.675.927.675Z"></path>
    <path class="uuid-547f0c69-2da2-48b9-a12e-f94d8773ff3f" d="M218.898,183.175l.351-.747c.531.261.963.378,1.413.378.757,0,1.152-.342,1.152-.999v-.766c-.323.396-.819.631-1.386.631-1.144,0-2.035-1.018-2.035-2.296s.928-2.277,2.106-2.277c.522,0,.991.207,1.324.603v-.567h1.008v4.673c0,1.161-.756,1.81-2.124,1.81-.648,0-1.279-.162-1.81-.441ZM221.814,180.331v-1.891c-.261-.306-.647-.486-1.071-.486-.773,0-1.35.604-1.35,1.432,0,.819.576,1.44,1.35,1.44.441,0,.811-.18,1.071-.495Z"></path>
    <path class="uuid-547f0c69-2da2-48b9-a12e-f94d8773ff3f" d="M223.875,179.394c0-1.323.954-2.331,2.197-2.331,1.233,0,2.134.98,2.134,2.331v.243h-3.331c.099.729.647,1.261,1.35,1.261.424,0,.819-.162,1.071-.423l.667.603c-.55.459-1.099.657-1.783.657-1.296,0-2.305-1.018-2.305-2.341ZM227.242,179.007c-.108-.657-.576-1.116-1.18-1.116-.611,0-1.062.441-1.179,1.116h2.358Z"></path>
  </g>
  <g>
    <path class="uuid-547f0c69-2da2-48b9-a12e-f94d8773ff3f" d="M441.182,178.494c0-1.818,1.404-3.25,3.187-3.25s3.187,1.432,3.187,3.25-1.404,3.25-3.187,3.25-3.187-1.431-3.187-3.25ZM446.448,178.494c0-1.296-.9-2.277-2.08-2.277s-2.089.981-2.089,2.277.909,2.278,2.089,2.278,2.08-.981,2.08-2.278Z"></path>
    <path class="uuid-547f0c69-2da2-48b9-a12e-f94d8773ff3f" d="M448.651,175.217l1.018-.171v2.691c.314-.396.818-.639,1.386-.639,1.144,0,2.035,1.017,2.035,2.295,0,1.288-.919,2.296-2.098,2.296-.531,0-1-.216-1.342-.621v.576h-.999v-6.428ZM452.09,179.394c0-.819-.576-1.44-1.341-1.44-.45,0-.819.181-1.08.505v1.881c.261.315.647.505,1.08.505.774,0,1.341-.622,1.341-1.45Z"></path>
    <path class="uuid-547f0c69-2da2-48b9-a12e-f94d8773ff3f" d="M453.285,183.544v-.811c.117.027.217.036.36.036.352,0,.504-.152.504-.495v-5.141h1.018v5.186c0,.819-.478,1.297-1.332,1.297-.198,0-.424-.027-.55-.072ZM454.023,175.595c0-.342.288-.63.631-.63.351,0,.639.288.639.63s-.288.621-.639.621c-.343,0-.631-.279-.631-.621Z"></path>
    <path class="uuid-547f0c69-2da2-48b9-a12e-f94d8773ff3f" d="M456.211,179.394c0-1.323.954-2.331,2.197-2.331,1.233,0,2.133.98,2.133,2.331v.243h-3.33c.099.729.647,1.261,1.35,1.261.424,0,.819-.162,1.071-.423l.667.603c-.55.459-1.099.657-1.783.657-1.296,0-2.305-1.018-2.305-2.341ZM459.578,179.007c-.108-.657-.576-1.116-1.18-1.116-.611,0-1.062.441-1.179,1.116h2.358Z"></path>
    <path class="uuid-547f0c69-2da2-48b9-a12e-f94d8773ff3f" d="M461.386,179.394c0-1.305.99-2.331,2.278-2.331.702,0,1.35.278,1.8.765l-.63.657c-.315-.351-.702-.531-1.135-.531-.729,0-1.296.631-1.296,1.44,0,.819.567,1.44,1.296,1.44.433,0,.819-.18,1.135-.521l.63.647c-.45.486-1.098.766-1.8.766-1.288,0-2.278-1.018-2.278-2.332Z"></path>
    <path class="uuid-547f0c69-2da2-48b9-a12e-f94d8773ff3f" d="M466.948,180.475v-2.53h-.9v-.811h.9v-1.242l1.018-.216v1.458h1.251v.811h-1.251v2.305c0,.441.171.612.63.612.198,0,.342-.027.612-.108v.855c-.262.081-.604.126-.873.126-.91,0-1.387-.432-1.387-1.26Z"></path>
    <path class="uuid-547f0c69-2da2-48b9-a12e-f94d8773ff3f" d="M471.735,181.123l.478-.675c.594.369.99.513,1.449.513.54,0,.909-.252.909-.612,0-.278-.188-.423-.63-.513l-.792-.135c-.883-.162-1.306-.567-1.306-1.242,0-.847.693-1.396,1.747-1.396.63,0,1.197.18,1.773.54l-.478.675c-.459-.297-.9-.432-1.359-.432-.468,0-.774.197-.774.521,0,.288.162.414.63.495l.802.153c.9.162,1.332.576,1.332,1.252,0,.828-.792,1.467-1.845,1.467-.774,0-1.459-.216-1.937-.612Z"></path>
    <path class="uuid-547f0c69-2da2-48b9-a12e-f94d8773ff3f" d="M476.92,180.475v-2.53h-.9v-.811h.9v-1.242l1.018-.216v1.458h1.251v.811h-1.251v2.305c0,.441.171.612.63.612.198,0,.342-.027.612-.108v.855c-.262.081-.604.126-.873.126-.91,0-1.387-.432-1.387-1.26Z"></path>
    <path class="uuid-547f0c69-2da2-48b9-a12e-f94d8773ff3f" d="M479.809,179.394c0-1.332.973-2.331,2.269-2.331,1.288,0,2.26.999,2.26,2.331s-.972,2.332-2.26,2.332c-1.296,0-2.269-.999-2.269-2.332ZM483.338,179.394c0-.837-.531-1.467-1.261-1.467-.738,0-1.269.63-1.269,1.467,0,.847.53,1.468,1.269,1.468.729,0,1.261-.621,1.261-1.468Z"></path>
    <path class="uuid-547f0c69-2da2-48b9-a12e-f94d8773ff3f" d="M485.388,177.134h1.018v.973c.252-.685.685-1.054,1.242-1.054.171.01.288.027.441.091v.891c-.162-.062-.369-.107-.559-.107-.495,0-.899.278-1.125.747v2.971h-1.018v-4.511Z"></path>
    <path class="uuid-547f0c69-2da2-48b9-a12e-f94d8773ff3f" d="M488.557,180.348c0-.81.666-1.323,1.729-1.323.423,0,.819.091,1.215.288v-.504c0-.594-.342-.9-1.035-.9-.378,0-.792.108-1.314.352l-.36-.738c.676-.307,1.27-.459,1.873-.459,1.179,0,1.846.594,1.846,1.638v2.944h-1.009v-.468c-.387.378-.819.549-1.341.549-.945,0-1.603-.567-1.603-1.378ZM490.438,181.005c.405,0,.757-.116,1.062-.378v-.729c-.324-.153-.648-.217-1.035-.217-.585,0-.954.243-.954.648,0,.414.36.675.927.675Z"></path>
    <path class="uuid-547f0c69-2da2-48b9-a12e-f94d8773ff3f" d="M494.038,183.175l.351-.747c.531.261.963.378,1.413.378.757,0,1.152-.342,1.152-.999v-.766c-.323.396-.819.631-1.386.631-1.144,0-2.035-1.018-2.035-2.296s.928-2.277,2.106-2.277c.522,0,.991.207,1.324.603v-.567h1.008v4.673c0,1.161-.756,1.81-2.124,1.81-.648,0-1.279-.162-1.81-.441ZM496.954,180.331v-1.891c-.261-.306-.647-.486-1.071-.486-.773,0-1.35.604-1.35,1.432,0,.819.576,1.44,1.35,1.44.441,0,.811-.18,1.071-.495Z"></path>
    <path class="uuid-547f0c69-2da2-48b9-a12e-f94d8773ff3f" d="M499.014,179.394c0-1.323.954-2.331,2.197-2.331,1.233,0,2.133.98,2.133,2.331v.243h-3.33c.099.729.647,1.261,1.35,1.261.424,0,.819-.162,1.071-.423l.667.603c-.55.459-1.099.657-1.783.657-1.296,0-2.305-1.018-2.305-2.341ZM502.381,179.007c-.108-.657-.576-1.116-1.18-1.116-.611,0-1.062.441-1.179,1.116h2.358Z"></path>
  </g>
  <g>
    <path class="uuid-547f0c69-2da2-48b9-a12e-f94d8773ff3f" d="M304.722,175.343h4.528v.918h-3.448v1.801h2.377v.9h-2.377v2.683h-1.08v-6.302Z"></path>
    <path class="uuid-547f0c69-2da2-48b9-a12e-f94d8773ff3f" d="M310.04,175.595c0-.342.279-.63.63-.63.343,0,.631.288.631.63s-.288.621-.631.621c-.351,0-.63-.279-.63-.621ZM310.157,177.134h1.018v4.511h-1.018v-4.511Z"></path>
    <path class="uuid-547f0c69-2da2-48b9-a12e-f94d8773ff3f" d="M312.434,175.19l1.018-.18v6.635h-1.018v-6.455Z"></path>
    <path class="uuid-547f0c69-2da2-48b9-a12e-f94d8773ff3f" d="M314.494,179.394c0-1.323.954-2.331,2.197-2.331,1.233,0,2.133.98,2.133,2.331v.243h-3.33c.099.729.647,1.261,1.35,1.261.424,0,.819-.162,1.071-.423l.667.603c-.55.459-1.099.657-1.783.657-1.296,0-2.305-1.018-2.305-2.341ZM317.861,179.007c-.108-.657-.576-1.116-1.18-1.116-.611,0-1.062.441-1.179,1.116h2.358Z"></path>
    <path class="uuid-547f0c69-2da2-48b9-a12e-f94d8773ff3f" d="M321.479,181.123l.478-.675c.595.369.99.513,1.449.513.54,0,.909-.252.909-.612,0-.278-.188-.423-.63-.513l-.792-.135c-.883-.162-1.306-.567-1.306-1.242,0-.847.693-1.396,1.747-1.396.63,0,1.197.18,1.773.54l-.478.675c-.459-.297-.9-.432-1.359-.432-.468,0-.774.197-.774.521,0,.288.162.414.631.495l.801.153c.9.162,1.332.576,1.332,1.252,0,.828-.792,1.467-1.846,1.467-.773,0-1.458-.216-1.936-.612Z"></path>
    <path class="uuid-547f0c69-2da2-48b9-a12e-f94d8773ff3f" d="M326.663,180.475v-2.53h-.9v-.811h.9v-1.242l1.018-.216v1.458h1.251v.811h-1.251v2.305c0,.441.171.612.63.612.198,0,.342-.027.612-.108v.855c-.262.081-.604.126-.873.126-.91,0-1.387-.432-1.387-1.26Z"></path>
    <path class="uuid-547f0c69-2da2-48b9-a12e-f94d8773ff3f" d="M329.552,179.394c0-1.332.973-2.331,2.269-2.331,1.288,0,2.26.999,2.26,2.331s-.972,2.332-2.26,2.332c-1.296,0-2.269-.999-2.269-2.332ZM333.081,179.394c0-.837-.531-1.467-1.261-1.467-.738,0-1.269.63-1.269,1.467,0,.847.53,1.468,1.269,1.468.729,0,1.261-.621,1.261-1.468Z"></path>
    <path class="uuid-547f0c69-2da2-48b9-a12e-f94d8773ff3f" d="M335.131,177.134h1.018v.973c.252-.685.685-1.054,1.242-1.054.171.01.288.027.441.091v.891c-.162-.062-.369-.107-.559-.107-.495,0-.9.278-1.125.747v2.971h-1.018v-4.511Z"></path>
    <path class="uuid-547f0c69-2da2-48b9-a12e-f94d8773ff3f" d="M338.3,180.348c0-.81.666-1.323,1.729-1.323.423,0,.819.091,1.215.288v-.504c0-.594-.342-.9-1.035-.9-.378,0-.792.108-1.314.352l-.36-.738c.676-.307,1.27-.459,1.873-.459,1.179,0,1.846.594,1.846,1.638v2.944h-1.009v-.468c-.387.378-.819.549-1.341.549-.945,0-1.603-.567-1.603-1.378ZM340.181,181.005c.405,0,.757-.116,1.062-.378v-.729c-.324-.153-.648-.217-1.035-.217-.585,0-.954.243-.954.648,0,.414.36.675.927.675Z"></path>
    <path class="uuid-547f0c69-2da2-48b9-a12e-f94d8773ff3f" d="M343.781,183.175l.351-.747c.531.261.963.378,1.413.378.757,0,1.152-.342,1.152-.999v-.766c-.323.396-.818.631-1.386.631-1.144,0-2.035-1.018-2.035-2.296s.928-2.277,2.106-2.277c.522,0,.991.207,1.324.603v-.567h1.008v4.673c0,1.161-.756,1.81-2.125,1.81-.647,0-1.278-.162-1.809-.441ZM346.697,180.331v-1.891c-.261-.306-.647-.486-1.071-.486-.773,0-1.35.604-1.35,1.432,0,.819.576,1.44,1.35,1.44.441,0,.811-.18,1.071-.495Z"></path>
    <path class="uuid-547f0c69-2da2-48b9-a12e-f94d8773ff3f" d="M348.757,179.394c0-1.323.954-2.331,2.197-2.331,1.233,0,2.134.98,2.134,2.331v.243h-3.331c.099.729.647,1.261,1.35,1.261.424,0,.819-.162,1.071-.423l.667.603c-.55.459-1.099.657-1.783.657-1.296,0-2.305-1.018-2.305-2.341ZM352.124,179.007c-.108-.657-.576-1.116-1.18-1.116-.611,0-1.062.441-1.179,1.116h2.358Z"></path>
  </g>
  <g>
    <path class="uuid-547f0c69-2da2-48b9-a12e-f94d8773ff3f" d="M119.059,147.058c0-2.029,1.579-3.608,3.618-3.608,1.069,0,2.089.46,2.729,1.25l-.8.779c-.5-.62-1.189-.949-1.929-.949-1.359,0-2.389,1.089-2.389,2.528s1.029,2.528,2.389,2.528c.739,0,1.429-.329,1.929-.949l.8.779c-.64.79-1.659,1.25-2.729,1.25-2.039,0-3.618-1.579-3.618-3.608Z"></path>
    <path class="uuid-547f0c69-2da2-48b9-a12e-f94d8773ff3f" d="M126.119,149.537l.65-.88c.899.74,1.549,1.02,2.358,1.02.919,0,1.559-.47,1.559-1.119,0-.569-.339-.84-1.269-.999l-1.29-.22c-1.209-.221-1.799-.82-1.799-1.779,0-1.27,1.009-2.109,2.579-2.109,1.049,0,2.009.311,2.809.899l-.61.9c-.7-.53-1.449-.81-2.239-.81-.839,0-1.399.43-1.399.999,0,.51.32.77,1.079.89l1.25.21c1.409.25,2.069.869,2.069,1.929,0,1.289-1.14,2.199-2.809,2.199-1.099,0-2.049-.38-2.938-1.13Z"></path>
    <path class="uuid-547f0c69-2da2-48b9-a12e-f94d8773ff3f" d="M133.039,143.56h1.199v6.996h-1.199v-6.996Z"></path>
    <path class="uuid-547f0c69-2da2-48b9-a12e-f94d8773ff3f" d="M137.749,148.057c0-1.429,1.029-2.548,2.339-2.548.569,0,1.089.229,1.459.649v-2.769l1.129-.2v7.366h-1.119v-.659c-.36.449-.919.709-1.549.709-1.27,0-2.259-1.129-2.259-2.549ZM141.546,149.107v-2.108c-.29-.34-.72-.54-1.189-.54-.859,0-1.499.68-1.499,1.599,0,.91.64,1.6,1.499,1.6.49,0,.9-.19,1.189-.55Z"></path>
    <path class="uuid-547f0c69-2da2-48b9-a12e-f94d8773ff3f" d="M144.079,145.549h1.129v1.079c.28-.76.759-1.17,1.379-1.17.19.011.32.03.49.101v.989c-.18-.07-.41-.12-.62-.12-.549,0-1,.31-1.249.83v3.298h-1.129v-5.007Z"></path>
    <path class="uuid-547f0c69-2da2-48b9-a12e-f94d8773ff3f" d="M147.868,143.839c0-.379.31-.699.7-.699.38,0,.7.32.7.699s-.32.69-.7.69c-.39,0-.7-.311-.7-.69ZM147.998,145.549h1.129v5.007h-1.129v-5.007Z"></path>
    <path class="uuid-547f0c69-2da2-48b9-a12e-f94d8773ff3f" d="M149.938,145.549h1.229l1.399,3.638,1.39-3.638h1.179l-2.059,5.007h-1.099l-2.039-5.007Z"></path>
    <path class="uuid-547f0c69-2da2-48b9-a12e-f94d8773ff3f" d="M155.568,148.057c0-1.469,1.06-2.588,2.438-2.588,1.37,0,2.369,1.089,2.369,2.588v.271h-3.698c.11.81.72,1.399,1.499,1.399.47,0,.91-.181,1.189-.47l.74.669c-.61.51-1.219.729-1.979.729-1.439,0-2.559-1.129-2.559-2.599ZM159.306,147.627c-.12-.729-.64-1.239-1.309-1.239-.68,0-1.179.49-1.309,1.239h2.618Z"></path>
    <path class="uuid-547f0c69-2da2-48b9-a12e-f94d8773ff3f" d="M161.528,145.549h1.129v1.079c.28-.76.759-1.17,1.379-1.17.19.011.32.03.49.101v.989c-.18-.07-.41-.12-.62-.12-.549,0-.999.31-1.249.83v3.298h-1.129v-5.007Z"></path>
    <path class="uuid-547f0c69-2da2-48b9-a12e-f94d8773ff3f" d="M167.698,148.108c0-2.049.85-3.698,2.429-4.668l.59.729c-1.289.83-1.999,2.219-1.999,3.938,0,1.729.71,3.118,1.999,3.947l-.59.72c-1.579-.97-2.429-2.618-2.429-4.667Z"></path>
    <path class="uuid-547f0c69-2da2-48b9-a12e-f94d8773ff3f" d="M171.847,143.42l1.13-.19v2.988c.35-.439.909-.709,1.539-.709,1.27,0,2.259,1.129,2.259,2.548,0,1.43-1.02,2.549-2.329,2.549-.589,0-1.109-.239-1.489-.689v.64h-1.109v-7.136ZM175.666,148.057c0-.909-.64-1.599-1.489-1.599-.5,0-.909.2-1.199.56v2.089c.29.35.72.56,1.199.56.859,0,1.489-.689,1.489-1.609Z"></path>
    <path class="uuid-547f0c69-2da2-48b9-a12e-f94d8773ff3f" d="M177.958,143.39l1.13-.2v7.366h-1.13v-7.166Z"></path>
    <path class="uuid-547f0c69-2da2-48b9-a12e-f94d8773ff3f" d="M180.248,148.057c0-1.479,1.079-2.588,2.519-2.588,1.43,0,2.509,1.109,2.509,2.588s-1.079,2.589-2.509,2.589c-1.439,0-2.519-1.109-2.519-2.589ZM184.166,148.057c0-.929-.59-1.629-1.399-1.629-.819,0-1.409.7-1.409,1.629,0,.939.59,1.63,1.409,1.63.81,0,1.399-.69,1.399-1.63Z"></path>
    <path class="uuid-547f0c69-2da2-48b9-a12e-f94d8773ff3f" d="M186.218,148.057c0-1.449,1.1-2.588,2.528-2.588.78,0,1.499.31,1.999.85l-.699.729c-.35-.39-.78-.59-1.26-.59-.81,0-1.438.699-1.438,1.599,0,.91.629,1.6,1.438,1.6.479,0,.91-.2,1.26-.58l.699.72c-.5.54-1.219.85-1.999.85-1.429,0-2.528-1.129-2.528-2.589Z"></path>
    <path class="uuid-547f0c69-2da2-48b9-a12e-f94d8773ff3f" d="M191.677,143.37l1.13-.189v4.497l2.079-2.128h1.299l-2.309,2.318,2.429,2.688h-1.439l-2.059-2.309v2.309h-1.13v-7.187Z"></path>
    <path class="uuid-547f0c69-2da2-48b9-a12e-f94d8773ff3f" d="M199.736,148.118c0,2.049-.85,3.698-2.429,4.667l-.59-.729c1.289-.829,1.999-2.219,1.999-3.938,0-1.729-.71-3.118-1.999-3.948l.59-.72c1.579.97,2.429,2.619,2.429,4.668Z"></path>
  </g>
  <g>
    <path class="uuid-547f0c69-2da2-48b9-a12e-f94d8773ff3f" d="M260.852,147.058c0-2.029,1.579-3.608,3.618-3.608,1.069,0,2.089.46,2.729,1.25l-.8.779c-.5-.62-1.189-.949-1.929-.949-1.359,0-2.389,1.089-2.389,2.528s1.029,2.528,2.389,2.528c.739,0,1.429-.329,1.929-.949l.8.779c-.64.79-1.659,1.25-2.729,1.25-2.039,0-3.618-1.579-3.618-3.608Z"></path>
    <path class="uuid-547f0c69-2da2-48b9-a12e-f94d8773ff3f" d="M267.912,149.537l.65-.88c.899.74,1.549,1.02,2.358,1.02.919,0,1.559-.47,1.559-1.119,0-.569-.339-.84-1.269-.999l-1.29-.22c-1.209-.221-1.799-.82-1.799-1.779,0-1.27,1.009-2.109,2.579-2.109,1.049,0,2.009.311,2.809.899l-.61.9c-.7-.53-1.449-.81-2.239-.81-.839,0-1.399.43-1.399.999,0,.51.32.77,1.079.89l1.25.21c1.409.25,2.069.869,2.069,1.929,0,1.289-1.14,2.199-2.809,2.199-1.1,0-2.049-.38-2.938-1.13Z"></path>
    <path class="uuid-547f0c69-2da2-48b9-a12e-f94d8773ff3f" d="M274.831,143.56h1.199v6.996h-1.199v-6.996Z"></path>
    <path class="uuid-547f0c69-2da2-48b9-a12e-f94d8773ff3f" d="M279.541,148.057c0-1.429,1.029-2.548,2.339-2.548.569,0,1.089.229,1.459.649v-2.769l1.129-.2v7.366h-1.119v-.659c-.36.449-.92.709-1.549.709-1.27,0-2.259-1.129-2.259-2.549ZM283.339,149.107v-2.108c-.29-.34-.72-.54-1.189-.54-.859,0-1.499.68-1.499,1.599,0,.91.64,1.6,1.499,1.6.49,0,.9-.19,1.189-.55Z"></path>
    <path class="uuid-547f0c69-2da2-48b9-a12e-f94d8773ff3f" d="M285.871,145.549h1.129v1.079c.28-.76.759-1.17,1.379-1.17.19.011.32.03.49.101v.989c-.18-.07-.41-.12-.62-.12-.549,0-.999.31-1.249.83v3.298h-1.129v-5.007Z"></path>
    <path class="uuid-547f0c69-2da2-48b9-a12e-f94d8773ff3f" d="M289.661,143.839c0-.379.31-.699.7-.699.38,0,.7.32.7.699s-.32.69-.7.69c-.39,0-.7-.311-.7-.69ZM289.791,145.549h1.129v5.007h-1.129v-5.007Z"></path>
    <path class="uuid-547f0c69-2da2-48b9-a12e-f94d8773ff3f" d="M291.731,145.549h1.229l1.399,3.638,1.39-3.638h1.179l-2.059,5.007h-1.099l-2.039-5.007Z"></path>
    <path class="uuid-547f0c69-2da2-48b9-a12e-f94d8773ff3f" d="M297.361,148.057c0-1.469,1.06-2.588,2.438-2.588,1.37,0,2.369,1.089,2.369,2.588v.271h-3.698c.11.81.719,1.399,1.499,1.399.47,0,.91-.181,1.189-.47l.74.669c-.61.51-1.22.729-1.979.729-1.438,0-2.558-1.129-2.558-2.599ZM301.099,147.627c-.12-.729-.64-1.239-1.31-1.239-.68,0-1.179.49-1.309,1.239h2.618Z"></path>
    <path class="uuid-547f0c69-2da2-48b9-a12e-f94d8773ff3f" d="M303.32,145.549h1.129v1.079c.28-.76.76-1.17,1.38-1.17.189.011.319.03.489.101v.989c-.18-.07-.409-.12-.619-.12-.55,0-1,.31-1.25.83v3.298h-1.129v-5.007Z"></path>
    <path class="uuid-547f0c69-2da2-48b9-a12e-f94d8773ff3f" d="M309.49,148.108c0-2.049.85-3.698,2.429-4.668l.59.729c-1.289.83-1.999,2.219-1.999,3.938,0,1.729.71,3.118,1.999,3.947l-.59.72c-1.579-.97-2.429-2.618-2.429-4.667Z"></path>
    <path class="uuid-547f0c69-2da2-48b9-a12e-f94d8773ff3f" d="M314.22,146.449h-1.079v-.899h1.079v-.86c0-1.089.61-1.679,1.729-1.679.279,0,.56.03.749.09v.96c-.249-.051-.399-.07-.6-.07-.52,0-.749.229-.749.72v.84h1.349v.899h-1.349v4.107h-1.13v-4.107Z"></path>
    <path class="uuid-547f0c69-2da2-48b9-a12e-f94d8773ff3f" d="M317.51,143.839c0-.379.31-.699.7-.699.379,0,.699.32.699.699s-.32.69-.699.69c-.391,0-.7-.311-.7-.69ZM317.64,145.549h1.13v5.007h-1.13v-5.007Z"></path>
    <path class="uuid-547f0c69-2da2-48b9-a12e-f94d8773ff3f" d="M320.17,143.39l1.13-.2v7.366h-1.13v-7.166Z"></path>
    <path class="uuid-547f0c69-2da2-48b9-a12e-f94d8773ff3f" d="M322.46,148.057c0-1.469,1.06-2.588,2.438-2.588,1.369,0,2.369,1.089,2.369,2.588v.271h-3.698c.11.81.72,1.399,1.499,1.399.47,0,.91-.181,1.189-.47l.739.669c-.609.51-1.219.729-1.979.729-1.439,0-2.559-1.129-2.559-2.599ZM326.198,147.627c-.12-.729-.64-1.239-1.31-1.239-.68,0-1.18.49-1.31,1.239h2.619Z"></path>
    <path class="uuid-547f0c69-2da2-48b9-a12e-f94d8773ff3f" d="M331.169,148.118c0,2.049-.85,3.698-2.429,4.667l-.59-.729c1.289-.829,1.999-2.219,1.999-3.938,0-1.729-.71-3.118-1.999-3.948l.59-.72c1.579.97,2.429,2.619,2.429,4.668Z"></path>
  </g>
  <g>
    <path class="uuid-547f0c69-2da2-48b9-a12e-f94d8773ff3f" d="M421.662,143.56h3.108c1.39,0,2.339.859,2.339,2.119,0,.909-.539,1.619-1.389,1.919l1.479,2.958h-1.329l-1.35-2.799h-1.658v2.799h-1.2v-6.996ZM424.661,146.798c.749,0,1.239-.439,1.239-1.109,0-.68-.49-1.119-1.239-1.119h-1.799v2.229h1.799Z"></path>
    <path class="uuid-547f0c69-2da2-48b9-a12e-f94d8773ff3f" d="M428.053,147.058c0-2.019,1.569-3.608,3.588-3.608,1.109,0,2.158.44,2.828,1.25l-.84.749c-.479-.6-1.209-.919-1.988-.919-1.35,0-2.358,1.099-2.358,2.528,0,1.439,1.029,2.539,2.389,2.539,1.119,0,1.969-.771,2.118-1.829h-2.079v-1.03h3.349v.391c0,2.009-1.449,3.538-3.408,3.538-2.019,0-3.598-1.59-3.598-3.608Z"></path>
    <path class="uuid-547f0c69-2da2-48b9-a12e-f94d8773ff3f" d="M435.612,143.56h1.22l1.039,5.127,1.5-5.127h1.14l1.499,5.117,1.039-5.117h1.18l-1.529,6.996h-1.249l-1.53-5.287-1.528,5.287h-1.25l-1.529-6.996Z"></path>
  </g>
  <g>
    <path class="uuid-547f0c69-2da2-48b9-a12e-f94d8773ff3f" d="M225.352,235.583c0-2.029,1.579-3.608,3.618-3.608,1.069,0,2.089.46,2.729,1.25l-.8.779c-.5-.62-1.189-.949-1.929-.949-1.359,0-2.389,1.089-2.389,2.528s1.029,2.528,2.389,2.528c.739,0,1.429-.329,1.929-.949l.8.779c-.64.79-1.659,1.25-2.729,1.25-2.039,0-3.618-1.579-3.618-3.608Z"></path>
    <path class="uuid-547f0c69-2da2-48b9-a12e-f94d8773ff3f" d="M232.392,236.582c0-1.469,1.06-2.588,2.438-2.588,1.37,0,2.369,1.089,2.369,2.588v.271h-3.698c.11.81.72,1.399,1.499,1.399.47,0,.91-.181,1.189-.47l.74.669c-.61.51-1.219.729-1.979.729-1.439,0-2.559-1.129-2.559-2.599ZM236.129,236.152c-.12-.729-.64-1.239-1.309-1.239-.68,0-1.179.49-1.309,1.239h2.618Z"></path>
    <path class="uuid-547f0c69-2da2-48b9-a12e-f94d8773ff3f" d="M238.352,234.074h1.109v.709c.36-.47.919-.749,1.559-.749,1.27,0,2.259,1.129,2.259,2.548,0,1.43-1.02,2.549-2.329,2.549-.59,0-1.109-.22-1.469-.64v2.679h-1.129v-7.096ZM242.169,236.582c0-.909-.64-1.599-1.489-1.599-.5,0-.91.2-1.199.56v2.089c.29.35.72.56,1.199.56.859,0,1.489-.689,1.489-1.609Z"></path>
    <path class="uuid-547f0c69-2da2-48b9-a12e-f94d8773ff3f" d="M244.461,231.915l1.129-.2v3.179c.38-.59.929-.899,1.579-.899,1.029,0,1.749.729,1.749,1.789v3.298h-1.14v-2.979c0-.729-.43-1.199-1.099-1.199-.46,0-.83.21-1.089.609v3.568h-1.129v-7.166Z"></path>
    <path class="uuid-547f0c69-2da2-48b9-a12e-f94d8773ff3f" d="M252.531,234.074h1.109v.709c.36-.47.919-.749,1.559-.749,1.27,0,2.259,1.129,2.259,2.548,0,1.43-1.02,2.549-2.329,2.549-.59,0-1.109-.22-1.469-.64v2.679h-1.129v-7.096ZM256.349,236.582c0-.909-.64-1.599-1.489-1.599-.5,0-.91.2-1.199.56v2.089c.29.35.72.56,1.199.56.859,0,1.489-.689,1.489-1.609Z"></path>
    <path class="uuid-547f0c69-2da2-48b9-a12e-f94d8773ff3f" d="M258.411,236.582c0-1.479,1.079-2.588,2.519-2.588,1.43,0,2.509,1.109,2.509,2.588s-1.079,2.589-2.509,2.589c-1.439,0-2.519-1.109-2.519-2.589ZM262.329,236.582c0-.929-.59-1.629-1.399-1.629-.819,0-1.409.7-1.409,1.629,0,.939.59,1.63,1.409,1.63.81,0,1.399-.69,1.399-1.63Z"></path>
    <path class="uuid-547f0c69-2da2-48b9-a12e-f94d8773ff3f" d="M264.381,236.582c0-1.429,1.029-2.548,2.339-2.548.569,0,1.089.229,1.459.649v-2.769l1.13-.2v7.366h-1.12v-.659c-.359.449-.919.709-1.549.709-1.27,0-2.259-1.129-2.259-2.549ZM268.179,237.631v-2.108c-.29-.34-.72-.54-1.189-.54-.859,0-1.499.68-1.499,1.599,0,.91.64,1.6,1.499,1.6.49,0,.899-.19,1.189-.55Z"></path>
  </g>
  <g>
    <path class="uuid-547f0c69-2da2-48b9-a12e-f94d8773ff3f" d="M107.17,197.789h1.719v6.996h-1.719v-6.996Z"></path>
    <path class="uuid-547f0c69-2da2-48b9-a12e-f94d8773ff3f" d="M110.2,199.628h1.618v.84c.4-.6.96-.92,1.63-.92.999,0,1.709.729,1.709,1.759v3.479h-1.619v-3.009c0-.579-.34-.959-.859-.959-.351,0-.63.14-.86.43v3.538h-1.618v-5.157Z"></path>
    <path class="uuid-547f0c69-2da2-48b9-a12e-f94d8773ff3f" d="M116.91,203.226v-2.349h-1v-1.249h1v-1.429l1.619-.33v1.759h1.379v1.249h-1.379v2.029c0,.46.18.619.68.619.189,0,.34-.02.659-.109v1.31c-.3.09-.779.159-1.109.159-1.22,0-1.849-.56-1.849-1.659Z"></path>
    <path class="uuid-547f0c69-2da2-48b9-a12e-f94d8773ff3f" d="M120.529,202.217c0-1.51,1.12-2.669,2.599-2.669,1.489,0,2.539,1.13,2.539,2.729v.35h-3.548c.149.58.619.97,1.209.97.43,0,.79-.149,1.02-.43l1.069.89c-.67.59-1.299.829-2.169.829-1.52,0-2.719-1.169-2.719-2.668ZM124.168,201.707c-.141-.55-.53-.899-1.05-.899-.51,0-.869.329-.999.899h2.049Z"></path>
    <path class="uuid-547f0c69-2da2-48b9-a12e-f94d8773ff3f" d="M126.68,199.628h1.619v1.169c.329-.859.789-1.269,1.399-1.269.229.01.34.029.539.13v1.389c-.199-.1-.479-.159-.76-.159-.479,0-.919.249-1.179.64v3.258h-1.619v-5.157Z"></path>
    <path class="uuid-547f0c69-2da2-48b9-a12e-f94d8773ff3f" d="M131.1,199.628h1.619v.84c.399-.6.959-.92,1.629-.92.999,0,1.709.729,1.709,1.759v3.479h-1.619v-3.009c0-.579-.34-.959-.859-.959-.35,0-.63.14-.859.43v3.538h-1.619v-5.157Z"></path>
    <path class="uuid-547f0c69-2da2-48b9-a12e-f94d8773ff3f" d="M137.04,203.306c0-.949.739-1.499,2.009-1.499.37,0,.74.07,1.199.24v-.42c0-.5-.329-.75-1.02-.75-.39,0-.849.11-1.449.36l-.56-1.13c.85-.38,1.609-.56,2.369-.56,1.429,0,2.259.71,2.259,1.939v3.298h-1.6v-.45c-.449.38-.879.53-1.429.53-1.05,0-1.779-.64-1.779-1.56ZM139.319,203.796c.34,0,.649-.09.929-.26v-.66c-.3-.069-.589-.109-.889-.109-.53,0-.83.18-.83.51s.29.52.79.52Z"></path>
    <path class="uuid-547f0c69-2da2-48b9-a12e-f94d8773ff3f" d="M143.069,197.669l1.619-.25v7.366h-1.619v-7.116Z"></path>
    <path class="uuid-547f0c69-2da2-48b9-a12e-f94d8773ff3f" d="M147.92,201.287c0-2.039,1.608-3.608,3.688-3.608,1.119,0,2.229.53,2.839,1.359l-1.16,1.1c-.459-.62-1.019-.93-1.679-.93-1.09,0-1.909.89-1.909,2.079s.819,2.079,1.909,2.079c.66,0,1.22-.311,1.679-.93l1.16,1.1c-.61.829-1.72,1.359-2.839,1.359-2.079,0-3.688-1.569-3.688-3.608Z"></path>
    <path class="uuid-547f0c69-2da2-48b9-a12e-f94d8773ff3f" d="M154.919,202.217c0-1.51,1.12-2.669,2.599-2.669,1.489,0,2.539,1.13,2.539,2.729v.35h-3.548c.149.58.619.97,1.209.97.43,0,.79-.149,1.02-.43l1.069.89c-.67.59-1.299.829-2.169.829-1.519,0-2.719-1.169-2.719-2.668ZM158.558,201.707c-.141-.55-.53-.899-1.05-.899-.51,0-.869.329-.999.899h2.049Z"></path>
    <path class="uuid-547f0c69-2da2-48b9-a12e-f94d8773ff3f" d="M161.069,199.628h1.599v.72c.34-.46.91-.75,1.529-.75,1.27,0,2.279,1.17,2.279,2.619s-1.06,2.599-2.399,2.599c-.56,0-1.049-.21-1.389-.6v2.658h-1.619v-7.246ZM164.887,202.207c0-.73-.529-1.27-1.229-1.27-.399,0-.709.14-.969.42v1.719c.25.26.59.41.969.41.71,0,1.229-.54,1.229-1.279Z"></path>
    <path class="uuid-547f0c69-2da2-48b9-a12e-f94d8773ff3f" d="M167.51,197.669l1.619-.25v3.049c.399-.6.959-.92,1.629-.92.999,0,1.709.729,1.709,1.759v3.479h-1.619v-3.009c0-.579-.34-.959-.859-.959-.35,0-.63.14-.859.43v3.538h-1.619v-7.116Z"></path>
    <path class="uuid-547f0c69-2da2-48b9-a12e-f94d8773ff3f" d="M175.609,202.217c0-1.51,1.16-2.669,2.669-2.669.85,0,1.629.34,2.148.949l-.989.99c-.33-.39-.659-.56-1.1-.56-.64,0-1.119.549-1.119,1.289s.479,1.289,1.119,1.289c.44,0,.77-.17,1.1-.56l.989.989c-.52.609-1.299.949-2.148.949-1.509,0-2.669-1.159-2.669-2.668Z"></path>
    <path class="uuid-547f0c69-2da2-48b9-a12e-f94d8773ff3f" d="M181.229,197.669l1.619-.25v7.366h-1.619v-7.116Z"></path>
    <path class="uuid-547f0c69-2da2-48b9-a12e-f94d8773ff3f" d="M184.069,203.106v-3.479h1.619v3.009c0,.579.34.959.859.959.35,0,.63-.14.859-.43v-3.538h1.619v5.157h-1.619v-.84c-.399.6-.959.92-1.629.92-1,0-1.709-.729-1.709-1.759Z"></path>
    <path class="uuid-547f0c69-2da2-48b9-a12e-f94d8773ff3f" d="M189.869,204.256l.71-1.08c.739.39,1.159.52,1.658.52.46,0,.74-.159.74-.419,0-.2-.15-.311-.479-.37l-.99-.18c-.999-.19-1.519-.7-1.519-1.499,0-1.05.81-1.68,2.158-1.68.72,0,1.43.2,2.1.59l-.74,1.029c-.52-.3-.999-.439-1.479-.439-.391,0-.62.13-.62.35,0,.21.13.3.529.37l.97.18c1.02.189,1.55.71,1.55,1.489,0,1.01-.95,1.769-2.22,1.769-.939,0-1.769-.22-2.368-.629Z"></path>
    <path class="uuid-547f0c69-2da2-48b9-a12e-f94d8773ff3f" d="M195.979,203.226v-2.349h-1v-1.249h1v-1.429l1.619-.33v1.759h1.379v1.249h-1.379v2.029c0,.46.18.619.68.619.189,0,.34-.02.659-.109v1.31c-.3.09-.779.159-1.109.159-1.22,0-1.849-.56-1.849-1.659Z"></path>
    <path class="uuid-547f0c69-2da2-48b9-a12e-f94d8773ff3f" d="M199.599,202.217c0-1.51,1.12-2.669,2.599-2.669,1.489,0,2.539,1.13,2.539,2.729v.35h-3.548c.149.58.619.97,1.209.97.43,0,.79-.149,1.02-.43l1.069.89c-.67.59-1.299.829-2.169.829-1.519,0-2.719-1.169-2.719-2.668ZM203.237,201.707c-.141-.55-.53-.899-1.05-.899-.51,0-.869.329-.999.899h2.049Z"></path>
    <path class="uuid-547f0c69-2da2-48b9-a12e-f94d8773ff3f" d="M205.749,199.628h1.619v1.169c.329-.859.789-1.269,1.399-1.269.229.01.34.029.539.13v1.389c-.199-.1-.479-.159-.76-.159-.479,0-.919.249-1.179.64v3.258h-1.619v-5.157Z"></path>
  </g>
  <g>
    <path class="uuid-547f0c69-2da2-48b9-a12e-f94d8773ff3f" d="M83.29,37.858h3.741c1.584,0,2.717,1.023,2.717,2.453,0,.979-.561,1.771-1.43,2.156l1.617,3.092h-2.112l-1.397-2.827h-1.243v2.827h-1.893v-7.701ZM86.854,41.247c.583,0,.979-.363.979-.913s-.396-.913-.979-.913h-1.672v1.826h1.672Z"></path>
    <path class="uuid-547f0c69-2da2-48b9-a12e-f94d8773ff3f" d="M90.912,37.858h1.893v2.992h3.113v-2.992h1.893v7.701h-1.893v-3.048h-3.113v3.048h-1.893v-7.701Z"></path>
    <path class="uuid-547f0c69-2da2-48b9-a12e-f94d8773ff3f" d="M99.053,41.709c0-2.223,1.749-3.972,3.982-3.972s3.982,1.749,3.982,3.972-1.749,3.972-3.982,3.972-3.982-1.749-3.982-3.972ZM105.07,41.709c0-1.31-.88-2.288-2.035-2.288s-2.035.979-2.035,2.288.88,2.288,2.035,2.288,2.035-.979,2.035-2.288Z"></path>
    <path class="uuid-547f0c69-2da2-48b9-a12e-f94d8773ff3f" d="M108.007,41.709c0-2.244,1.771-3.972,4.06-3.972,1.232,0,2.453.583,3.124,1.496l-1.275,1.21c-.507-.682-1.122-1.022-1.849-1.022-1.199,0-2.102.979-2.102,2.288s.902,2.288,2.102,2.288c.727,0,1.342-.341,1.849-1.022l1.275,1.21c-.671.913-1.892,1.496-3.124,1.496-2.288,0-4.06-1.728-4.06-3.972Z"></path>
    <path class="uuid-547f0c69-2da2-48b9-a12e-f94d8773ff3f" d="M116.289,37.858h3.763c1.639,0,2.717,1.067,2.717,2.541,0,1.397-1.078,2.476-2.717,2.476h-1.871v2.685h-1.892v-7.701ZM119.71,41.368c.771,0,1.145-.418,1.145-.979,0-.55-.374-.968-1.133-.968h-1.541v1.947h1.529Z"></path>
  </g>
  <g>
    <path class="uuid-547f0c69-2da2-48b9-a12e-f94d8773ff3f" d="M322.7,235.583c0-2.029,1.579-3.608,3.618-3.608,1.069,0,2.089.46,2.729,1.25l-.8.779c-.499-.62-1.189-.949-1.929-.949-1.359,0-2.389,1.089-2.389,2.528s1.029,2.528,2.389,2.528c.739,0,1.43-.329,1.929-.949l.8.779c-.64.79-1.659,1.25-2.729,1.25-2.039,0-3.618-1.579-3.618-3.608Z"></path>
    <path class="uuid-547f0c69-2da2-48b9-a12e-f94d8773ff3f" d="M329.74,236.582c0-1.469,1.06-2.588,2.438-2.588,1.37,0,2.369,1.089,2.369,2.588v.271h-3.698c.11.81.72,1.399,1.499,1.399.47,0,.91-.181,1.189-.47l.74.669c-.61.51-1.22.729-1.979.729-1.438,0-2.559-1.129-2.559-2.599ZM333.479,236.152c-.12-.729-.64-1.239-1.31-1.239-.68,0-1.179.49-1.309,1.239h2.618Z"></path>
    <path class="uuid-547f0c69-2da2-48b9-a12e-f94d8773ff3f" d="M335.7,234.074h1.109v.709c.36-.47.92-.749,1.56-.749,1.27,0,2.259,1.129,2.259,2.548,0,1.43-1.02,2.549-2.329,2.549-.59,0-1.109-.22-1.469-.64v2.679h-1.13v-7.096ZM339.519,236.582c0-.909-.64-1.599-1.489-1.599-.5,0-.91.2-1.199.56v2.089c.289.35.72.56,1.199.56.859,0,1.489-.689,1.489-1.609Z"></path>
    <path class="uuid-547f0c69-2da2-48b9-a12e-f94d8773ff3f" d="M341.811,231.915l1.129-.2v3.179c.38-.59.93-.899,1.579-.899,1.029,0,1.749.729,1.749,1.789v3.298h-1.14v-2.979c0-.729-.43-1.199-1.099-1.199-.46,0-.83.21-1.09.609v3.568h-1.129v-7.166Z"></path>
    <path class="uuid-547f0c69-2da2-48b9-a12e-f94d8773ff3f" d="M349.88,234.074h1.109v.709c.36-.47.92-.749,1.56-.749,1.27,0,2.259,1.129,2.259,2.548,0,1.43-1.02,2.549-2.329,2.549-.59,0-1.109-.22-1.469-.64v2.679h-1.13v-7.096ZM353.698,236.582c0-.909-.64-1.599-1.489-1.599-.5,0-.91.2-1.199.56v2.089c.289.35.72.56,1.199.56.859,0,1.489-.689,1.489-1.609Z"></path>
    <path class="uuid-547f0c69-2da2-48b9-a12e-f94d8773ff3f" d="M355.76,236.582c0-1.479,1.079-2.588,2.519-2.588,1.43,0,2.509,1.109,2.509,2.588s-1.079,2.589-2.509,2.589c-1.439,0-2.519-1.109-2.519-2.589ZM359.678,236.582c0-.929-.59-1.629-1.399-1.629-.819,0-1.409.7-1.409,1.629,0,.939.59,1.63,1.409,1.63.81,0,1.399-.69,1.399-1.63Z"></path>
    <path class="uuid-547f0c69-2da2-48b9-a12e-f94d8773ff3f" d="M361.73,236.582c0-1.429,1.029-2.548,2.339-2.548.569,0,1.089.229,1.459.649v-2.769l1.13-.2v7.366h-1.12v-.659c-.359.449-.919.709-1.549.709-1.27,0-2.259-1.129-2.259-2.549ZM365.528,237.631v-2.108c-.29-.34-.72-.54-1.189-.54-.859,0-1.499.68-1.499,1.599,0,.91.64,1.6,1.499,1.6.49,0,.899-.19,1.189-.55Z"></path>
  </g>
  <g>
    <path class="uuid-547f0c69-2da2-48b9-a12e-f94d8773ff3f" d="M420.05,235.583c0-2.029,1.579-3.608,3.618-3.608,1.069,0,2.089.46,2.729,1.25l-.8.779c-.5-.62-1.189-.949-1.929-.949-1.359,0-2.389,1.089-2.389,2.528s1.029,2.528,2.389,2.528c.739,0,1.429-.329,1.929-.949l.8.779c-.64.79-1.659,1.25-2.729,1.25-2.039,0-3.618-1.579-3.618-3.608Z"></path>
    <path class="uuid-547f0c69-2da2-48b9-a12e-f94d8773ff3f" d="M427.09,236.582c0-1.469,1.06-2.588,2.438-2.588,1.369,0,2.368,1.089,2.368,2.588v.271h-3.697c.109.81.72,1.399,1.499,1.399.47,0,.909-.181,1.189-.47l.739.669c-.609.51-1.219.729-1.979.729-1.439,0-2.559-1.129-2.559-2.599ZM430.827,236.152c-.119-.729-.64-1.239-1.309-1.239-.68,0-1.18.49-1.31,1.239h2.618Z"></path>
    <path class="uuid-547f0c69-2da2-48b9-a12e-f94d8773ff3f" d="M433.05,234.074h1.109v.709c.359-.47.919-.749,1.559-.749,1.27,0,2.259,1.129,2.259,2.548,0,1.43-1.02,2.549-2.328,2.549-.59,0-1.109-.22-1.47-.64v2.679h-1.129v-7.096ZM436.867,236.582c0-.909-.64-1.599-1.489-1.599-.499,0-.909.2-1.199.56v2.089c.29.35.72.56,1.199.56.859,0,1.489-.689,1.489-1.609Z"></path>
    <path class="uuid-547f0c69-2da2-48b9-a12e-f94d8773ff3f" d="M439.159,231.915l1.13-.2v3.179c.38-.59.929-.899,1.579-.899,1.029,0,1.749.729,1.749,1.789v3.298h-1.14v-2.979c0-.729-.43-1.199-1.1-1.199-.46,0-.829.21-1.089.609v3.568h-1.13v-7.166Z"></path>
    <path class="uuid-547f0c69-2da2-48b9-a12e-f94d8773ff3f" d="M447.229,234.074h1.109v.709c.359-.47.919-.749,1.559-.749,1.27,0,2.259,1.129,2.259,2.548,0,1.43-1.02,2.549-2.328,2.549-.59,0-1.109-.22-1.47-.64v2.679h-1.129v-7.096ZM451.047,236.582c0-.909-.64-1.599-1.489-1.599-.499,0-.909.2-1.199.56v2.089c.29.35.72.56,1.199.56.859,0,1.489-.689,1.489-1.609Z"></path>
    <path class="uuid-547f0c69-2da2-48b9-a12e-f94d8773ff3f" d="M453.108,236.582c0-1.479,1.079-2.588,2.519-2.588,1.43,0,2.509,1.109,2.509,2.588s-1.079,2.589-2.509,2.589c-1.439,0-2.519-1.109-2.519-2.589ZM457.026,236.582c0-.929-.59-1.629-1.399-1.629-.819,0-1.409.7-1.409,1.629,0,.939.59,1.63,1.409,1.63.81,0,1.399-.69,1.399-1.63Z"></path>
    <path class="uuid-547f0c69-2da2-48b9-a12e-f94d8773ff3f" d="M459.079,236.582c0-1.429,1.029-2.548,2.339-2.548.569,0,1.089.229,1.459.649v-2.769l1.13-.2v7.366h-1.12v-.659c-.359.449-.919.709-1.549.709-1.27,0-2.259-1.129-2.259-2.549ZM462.877,237.631v-2.108c-.29-.34-.72-.54-1.189-.54-.859,0-1.499.68-1.499,1.599,0,.91.64,1.6,1.499,1.6.49,0,.899-.19,1.189-.55Z"></path>
  </g>
  <rect class="uuid-57830a08-864a-4798-8827-ae872a4149b2" x="82.432" y="395.984" width="427.339" height="77.485"></rect>
  <g>
    <path class="uuid-547f0c69-2da2-48b9-a12e-f94d8773ff3f" d="M97.462,405.768h1.719v5.527h3.469v1.469h-5.188v-6.996Z"></path>
    <path class="uuid-547f0c69-2da2-48b9-a12e-f94d8773ff3f" d="M103.412,410.195c0-1.52,1.16-2.669,2.688-2.669s2.688,1.149,2.688,2.669-1.159,2.668-2.688,2.668-2.688-1.149-2.688-2.668ZM107.21,410.195c0-.77-.459-1.319-1.109-1.319s-1.109.55-1.109,1.319.46,1.319,1.109,1.319,1.109-.55,1.109-1.319Z"></path>
    <path class="uuid-547f0c69-2da2-48b9-a12e-f94d8773ff3f" d="M109.592,410.195c0-1.51,1.16-2.669,2.669-2.669.85,0,1.629.34,2.148.949l-.989.99c-.33-.39-.659-.56-1.1-.56-.64,0-1.119.549-1.119,1.289s.479,1.289,1.119,1.289c.44,0,.77-.17,1.1-.56l.989.989c-.52.609-1.299.949-2.148.949-1.509,0-2.669-1.159-2.669-2.668Z"></path>
    <path class="uuid-547f0c69-2da2-48b9-a12e-f94d8773ff3f" d="M114.972,411.284c0-.949.739-1.499,2.009-1.499.37,0,.74.07,1.199.24v-.42c0-.5-.329-.75-1.02-.75-.39,0-.849.11-1.449.36l-.56-1.13c.85-.38,1.609-.56,2.369-.56,1.429,0,2.259.71,2.259,1.939v3.298h-1.6v-.45c-.449.38-.879.53-1.429.53-1.05,0-1.779-.64-1.779-1.56ZM117.251,411.774c.34,0,.649-.09.929-.26v-.66c-.3-.069-.589-.109-.889-.109-.53,0-.83.18-.83.51s.29.52.79.52Z"></path>
    <path class="uuid-547f0c69-2da2-48b9-a12e-f94d8773ff3f" d="M121.002,405.647l1.619-.25v7.366h-1.619v-7.116Z"></path>
    <path class="uuid-547f0c69-2da2-48b9-a12e-f94d8773ff3f" d="M125.612,412.234l.71-1.08c.739.39,1.159.52,1.658.52.46,0,.74-.159.74-.419,0-.2-.15-.311-.479-.37l-.99-.18c-.999-.19-1.519-.7-1.519-1.499,0-1.05.81-1.68,2.158-1.68.72,0,1.43.2,2.1.59l-.74,1.029c-.52-.3-.999-.439-1.479-.439-.391,0-.62.13-.62.35,0,.21.13.3.529.37l.97.18c1.02.189,1.55.71,1.55,1.489,0,1.01-.95,1.769-2.22,1.769-.939,0-1.769-.22-2.368-.629Z"></path>
    <path class="uuid-547f0c69-2da2-48b9-a12e-f94d8773ff3f" d="M131.722,411.204v-2.349h-1v-1.249h1v-1.429l1.619-.33v1.759h1.379v1.249h-1.379v2.029c0,.46.18.619.68.619.189,0,.34-.02.659-.109v1.31c-.3.09-.779.159-1.109.159-1.22,0-1.849-.56-1.849-1.659Z"></path>
    <path class="uuid-547f0c69-2da2-48b9-a12e-f94d8773ff3f" d="M135.342,410.195c0-1.52,1.16-2.669,2.688-2.669s2.688,1.149,2.688,2.669-1.159,2.668-2.688,2.668-2.688-1.149-2.688-2.668ZM139.14,410.195c0-.77-.459-1.319-1.109-1.319s-1.109.55-1.109,1.319.46,1.319,1.109,1.319,1.109-.55,1.109-1.319Z"></path>
    <path class="uuid-547f0c69-2da2-48b9-a12e-f94d8773ff3f" d="M141.752,407.606h1.619v1.169c.329-.859.789-1.269,1.399-1.269.229.01.34.029.539.13v1.389c-.199-.1-.479-.159-.76-.159-.479,0-.919.249-1.179.64v3.258h-1.619v-5.157Z"></path>
    <path class="uuid-547f0c69-2da2-48b9-a12e-f94d8773ff3f" d="M145.832,411.284c0-.949.739-1.499,2.009-1.499.37,0,.74.07,1.199.24v-.42c0-.5-.329-.75-1.02-.75-.39,0-.849.11-1.449.36l-.56-1.13c.85-.38,1.609-.56,2.369-.56,1.429,0,2.259.71,2.259,1.939v3.298h-1.6v-.45c-.449.38-.879.53-1.429.53-1.05,0-1.779-.64-1.779-1.56ZM148.111,411.774c.34,0,.649-.09.929-.26v-.66c-.3-.069-.589-.109-.889-.109-.53,0-.83.18-.83.51s.29.52.79.52Z"></path>
    <path class="uuid-547f0c69-2da2-48b9-a12e-f94d8773ff3f" d="M152.162,414.493l.5-1.17c.569.27,1.079.399,1.579.399.77,0,1.169-.319,1.169-.949v-.699c-.34.42-.899.68-1.499.68-1.27,0-2.279-1.159-2.279-2.599s1.06-2.579,2.399-2.579c.55,0,1.049.23,1.398.65v-.62h1.59v5.188c0,1.389-.96,2.158-2.719,2.158-.779,0-1.52-.159-2.139-.459ZM155.41,411.024v-1.719c-.25-.26-.59-.399-.96-.399-.709,0-1.229.529-1.229,1.259s.529,1.27,1.229,1.27c.391,0,.71-.14.96-.41Z"></path>
    <path class="uuid-547f0c69-2da2-48b9-a12e-f94d8773ff3f" d="M158.052,410.195c0-1.51,1.12-2.669,2.599-2.669,1.489,0,2.539,1.13,2.539,2.729v.35h-3.548c.149.58.619.97,1.209.97.43,0,.79-.149,1.02-.43l1.069.89c-.67.59-1.299.829-2.169.829-1.52,0-2.719-1.169-2.719-2.668ZM161.69,409.686c-.141-.55-.53-.899-1.05-.899-.51,0-.869.329-.999.899h2.049Z"></path>
  </g>
  <rect class="uuid-01a4eedc-79ca-4aa0-adb9-68dd00f73e20" x="82.432" y="307.572" width="427.339" height="77.485"></rect>
  <rect class="uuid-4272b6cf-1847-4ca3-88c1-ee2ab12844d4" x="203.839" y="336.936" width="184.524" height="37.882"></rect>
  <g>
    <path class="uuid-547f0c69-2da2-48b9-a12e-f94d8773ff3f" d="M242.476,355.149c0-2.029,1.579-3.608,3.618-3.608,1.069,0,2.089.46,2.729,1.25l-.8.779c-.5-.62-1.189-.949-1.929-.949-1.359,0-2.389,1.089-2.389,2.528s1.029,2.528,2.389,2.528c.739,0,1.429-.329,1.929-.949l.8.779c-.64.79-1.659,1.25-2.729,1.25-2.039,0-3.618-1.579-3.618-3.608Z"></path>
    <path class="uuid-547f0c69-2da2-48b9-a12e-f94d8773ff3f" d="M249.536,357.627l.65-.88c.899.74,1.549,1.02,2.358,1.02.919,0,1.559-.47,1.559-1.119,0-.569-.339-.84-1.269-.999l-1.29-.22c-1.209-.221-1.799-.82-1.799-1.779,0-1.27,1.009-2.109,2.579-2.109,1.049,0,2.009.311,2.809.899l-.61.9c-.7-.53-1.449-.81-2.239-.81-.839,0-1.399.43-1.399.999,0,.51.32.77,1.079.89l1.25.21c1.409.25,2.069.869,2.069,1.929,0,1.289-1.14,2.199-2.809,2.199-1.1,0-2.049-.38-2.938-1.13Z"></path>
    <path class="uuid-547f0c69-2da2-48b9-a12e-f94d8773ff3f" d="M256.456,351.651h1.199v6.996h-1.199v-6.996Z"></path>
    <path class="uuid-547f0c69-2da2-48b9-a12e-f94d8773ff3f" d="M261.166,356.148c0-1.429,1.029-2.548,2.339-2.548.569,0,1.089.229,1.459.649v-2.769l1.129-.2v7.366h-1.119v-.659c-.36.449-.92.709-1.549.709-1.27,0-2.259-1.129-2.259-2.549ZM264.963,357.198v-2.108c-.29-.34-.72-.54-1.189-.54-.859,0-1.499.68-1.499,1.599,0,.91.64,1.6,1.499,1.6.49,0,.9-.19,1.189-.55Z"></path>
    <path class="uuid-547f0c69-2da2-48b9-a12e-f94d8773ff3f" d="M267.496,353.64h1.129v1.079c.28-.76.759-1.17,1.379-1.17.19.011.32.03.49.101v.989c-.18-.07-.41-.12-.62-.12-.549,0-.999.31-1.249.83v3.298h-1.129v-5.007Z"></path>
    <path class="uuid-547f0c69-2da2-48b9-a12e-f94d8773ff3f" d="M271.285,351.93c0-.379.31-.699.7-.699.38,0,.7.32.7.699s-.32.69-.7.69c-.39,0-.7-.311-.7-.69ZM271.415,353.64h1.129v5.007h-1.129v-5.007Z"></path>
    <path class="uuid-547f0c69-2da2-48b9-a12e-f94d8773ff3f" d="M273.355,353.64h1.229l1.399,3.638,1.39-3.638h1.179l-2.059,5.007h-1.099l-2.039-5.007Z"></path>
    <path class="uuid-547f0c69-2da2-48b9-a12e-f94d8773ff3f" d="M278.985,356.148c0-1.469,1.06-2.588,2.438-2.588,1.37,0,2.369,1.089,2.369,2.588v.271h-3.698c.11.81.72,1.399,1.499,1.399.47,0,.91-.181,1.189-.47l.74.669c-.61.51-1.219.729-1.979.729-1.439,0-2.559-1.129-2.559-2.599ZM282.723,355.718c-.12-.729-.64-1.239-1.309-1.239-.68,0-1.179.49-1.309,1.239h2.618Z"></path>
    <path class="uuid-547f0c69-2da2-48b9-a12e-f94d8773ff3f" d="M284.945,353.64h1.129v1.079c.28-.76.759-1.17,1.379-1.17.19.011.32.03.49.101v.989c-.18-.07-.41-.12-.62-.12-.549,0-1,.31-1.249.83v3.298h-1.129v-5.007Z"></path>
    <path class="uuid-547f0c69-2da2-48b9-a12e-f94d8773ff3f" d="M291.125,351.481l1.129-.2v7.366h-1.129v-7.166Z"></path>
    <path class="uuid-547f0c69-2da2-48b9-a12e-f94d8773ff3f" d="M293.415,356.148c0-1.479,1.08-2.588,2.519-2.588,1.429,0,2.509,1.109,2.509,2.588s-1.08,2.589-2.509,2.589c-1.439,0-2.519-1.109-2.519-2.589ZM297.333,356.148c0-.929-.59-1.629-1.399-1.629-.819,0-1.409.7-1.409,1.629,0,.939.59,1.63,1.409,1.63.81,0,1.399-.69,1.399-1.63Z"></path>
    <path class="uuid-547f0c69-2da2-48b9-a12e-f94d8773ff3f" d="M299.386,356.148c0-1.449,1.1-2.588,2.528-2.588.779,0,1.499.31,1.999.85l-.699.729c-.351-.39-.78-.59-1.26-.59-.81,0-1.439.699-1.439,1.599,0,.91.63,1.6,1.439,1.6.479,0,.909-.2,1.26-.58l.699.72c-.5.54-1.22.85-1.999.85-1.429,0-2.528-1.129-2.528-2.589Z"></path>
    <path class="uuid-547f0c69-2da2-48b9-a12e-f94d8773ff3f" d="M304.585,357.208c0-.899.74-1.469,1.919-1.469.47,0,.91.1,1.35.319v-.56c0-.659-.38-.999-1.149-.999-.42,0-.88.12-1.459.39l-.4-.819c.75-.34,1.409-.51,2.079-.51,1.31,0,2.049.659,2.049,1.818v3.269h-1.119v-.52c-.43.42-.909.609-1.489.609-1.05,0-1.779-.63-1.779-1.529ZM306.674,357.937c.45,0,.84-.13,1.18-.419v-.81c-.359-.17-.72-.24-1.149-.24-.649,0-1.06.27-1.06.72,0,.46.4.749,1.029.749Z"></path>
    <path class="uuid-547f0c69-2da2-48b9-a12e-f94d8773ff3f" d="M310.345,351.481l1.13-.2v7.366h-1.13v-7.166Z"></path>
    <path class="uuid-547f0c69-2da2-48b9-a12e-f94d8773ff3f" d="M314.665,358.067l.529-.749c.66.409,1.1.569,1.609.569.6,0,1.01-.279,1.01-.68,0-.31-.21-.47-.7-.569l-.879-.15c-.979-.18-1.449-.629-1.449-1.379,0-.939.77-1.549,1.938-1.549.7,0,1.329.199,1.969.6l-.529.749c-.51-.329-1-.479-1.51-.479-.52,0-.859.22-.859.58,0,.319.181.459.7.55l.89.17c.999.18,1.479.64,1.479,1.389,0,.92-.879,1.629-2.049,1.629-.859,0-1.619-.239-2.148-.68Z"></path>
    <path class="uuid-547f0c69-2da2-48b9-a12e-f94d8773ff3f" d="M320.424,357.348v-2.809h-.999v-.899h.999v-1.38l1.129-.239v1.619h1.39v.899h-1.39v2.559c0,.489.19.68.7.68.22,0,.38-.03.68-.12v.949c-.29.09-.67.14-.97.14-1.01,0-1.539-.479-1.539-1.398Z"></path>
    <path class="uuid-547f0c69-2da2-48b9-a12e-f94d8773ff3f" d="M323.635,356.148c0-1.479,1.079-2.588,2.519-2.588,1.43,0,2.509,1.109,2.509,2.588s-1.079,2.589-2.509,2.589c-1.439,0-2.519-1.109-2.519-2.589ZM327.553,356.148c0-.929-.59-1.629-1.399-1.629-.819,0-1.409.7-1.409,1.629,0,.939.59,1.63,1.409,1.63.81,0,1.399-.69,1.399-1.63Z"></path>
    <path class="uuid-547f0c69-2da2-48b9-a12e-f94d8773ff3f" d="M329.834,353.64h1.13v1.079c.279-.76.76-1.17,1.379-1.17.19.011.32.03.49.101v.989c-.18-.07-.41-.12-.62-.12-.55,0-.999.31-1.249.83v3.298h-1.13v-5.007Z"></path>
    <path class="uuid-547f0c69-2da2-48b9-a12e-f94d8773ff3f" d="M333.354,357.208c0-.899.74-1.469,1.919-1.469.47,0,.91.1,1.35.319v-.56c0-.659-.38-.999-1.149-.999-.42,0-.88.12-1.459.39l-.4-.819c.75-.34,1.409-.51,2.079-.51,1.31,0,2.049.659,2.049,1.818v3.269h-1.119v-.52c-.43.42-.909.609-1.489.609-1.05,0-1.779-.63-1.779-1.529ZM335.443,357.937c.45,0,.84-.13,1.18-.419v-.81c-.359-.17-.72-.24-1.149-.24-.649,0-1.06.27-1.06.72,0,.46.4.749,1.029.749Z"></path>
    <path class="uuid-547f0c69-2da2-48b9-a12e-f94d8773ff3f" d="M339.443,360.346l.39-.83c.59.29,1.069.42,1.569.42.84,0,1.279-.38,1.279-1.109v-.85c-.359.44-.909.7-1.539.7-1.27,0-2.259-1.13-2.259-2.549s1.029-2.528,2.339-2.528c.579,0,1.1.229,1.469.669v-.629h1.12v5.187c0,1.289-.84,2.009-2.359,2.009-.72,0-1.419-.18-2.009-.489ZM342.682,357.188v-2.099c-.29-.34-.72-.54-1.189-.54-.859,0-1.499.67-1.499,1.589,0,.909.64,1.6,1.499,1.6.49,0,.899-.2,1.189-.55Z"></path>
    <path class="uuid-547f0c69-2da2-48b9-a12e-f94d8773ff3f" d="M344.975,356.148c0-1.469,1.06-2.588,2.438-2.588,1.369,0,2.369,1.089,2.369,2.588v.271h-3.698c.11.81.72,1.399,1.499,1.399.47,0,.91-.181,1.189-.47l.739.669c-.609.51-1.219.729-1.979.729-1.439,0-2.559-1.129-2.559-2.599ZM348.713,355.718c-.12-.729-.64-1.239-1.31-1.239-.68,0-1.18.49-1.31,1.239h2.619Z"></path>
  </g>
  <g>
    <path class="uuid-547f0c69-2da2-48b9-a12e-f94d8773ff3f" d="M97.462,317.355h1.719v5.527h3.469v1.469h-5.188v-6.996Z"></path>
    <path class="uuid-547f0c69-2da2-48b9-a12e-f94d8773ff3f" d="M103.412,321.783c0-1.52,1.16-2.669,2.688-2.669s2.688,1.149,2.688,2.669-1.159,2.668-2.688,2.668-2.688-1.149-2.688-2.668ZM107.21,321.783c0-.77-.459-1.319-1.109-1.319s-1.109.55-1.109,1.319.46,1.319,1.109,1.319,1.109-.55,1.109-1.319Z"></path>
    <path class="uuid-547f0c69-2da2-48b9-a12e-f94d8773ff3f" d="M109.592,321.783c0-1.51,1.16-2.669,2.669-2.669.85,0,1.629.34,2.148.949l-.989.99c-.33-.39-.659-.56-1.1-.56-.64,0-1.119.549-1.119,1.289s.479,1.289,1.119,1.289c.44,0,.77-.17,1.1-.56l.989.989c-.52.609-1.299.949-2.148.949-1.509,0-2.669-1.159-2.669-2.668Z"></path>
    <path class="uuid-547f0c69-2da2-48b9-a12e-f94d8773ff3f" d="M114.972,322.872c0-.949.739-1.499,2.009-1.499.37,0,.74.07,1.199.24v-.42c0-.5-.329-.75-1.02-.75-.39,0-.849.11-1.449.36l-.56-1.13c.85-.38,1.609-.56,2.369-.56,1.429,0,2.259.71,2.259,1.939v3.298h-1.6v-.45c-.449.38-.879.53-1.429.53-1.05,0-1.779-.64-1.779-1.56ZM117.251,323.362c.34,0,.649-.09.929-.26v-.66c-.3-.069-.589-.109-.889-.109-.53,0-.83.18-.83.51s.29.52.79.52Z"></path>
    <path class="uuid-547f0c69-2da2-48b9-a12e-f94d8773ff3f" d="M121.002,317.235l1.619-.25v7.366h-1.619v-7.116Z"></path>
    <path class="uuid-547f0c69-2da2-48b9-a12e-f94d8773ff3f" d="M125.612,323.822l.71-1.08c.739.39,1.159.52,1.658.52.46,0,.74-.159.74-.419,0-.2-.15-.311-.479-.37l-.99-.18c-.999-.19-1.519-.7-1.519-1.499,0-1.05.81-1.68,2.158-1.68.72,0,1.43.2,2.1.59l-.74,1.029c-.52-.3-.999-.439-1.479-.439-.391,0-.62.13-.62.35,0,.21.13.3.529.37l.97.18c1.02.189,1.55.71,1.55,1.489,0,1.01-.95,1.769-2.22,1.769-.939,0-1.769-.22-2.368-.629Z"></path>
    <path class="uuid-547f0c69-2da2-48b9-a12e-f94d8773ff3f" d="M131.722,322.792v-2.349h-1v-1.249h1v-1.429l1.619-.33v1.759h1.379v1.249h-1.379v2.029c0,.46.18.619.68.619.189,0,.34-.02.659-.109v1.31c-.3.09-.779.159-1.109.159-1.22,0-1.849-.56-1.849-1.659Z"></path>
    <path class="uuid-547f0c69-2da2-48b9-a12e-f94d8773ff3f" d="M135.342,321.783c0-1.52,1.16-2.669,2.688-2.669s2.688,1.149,2.688,2.669-1.159,2.668-2.688,2.668-2.688-1.149-2.688-2.668ZM139.14,321.783c0-.77-.459-1.319-1.109-1.319s-1.109.55-1.109,1.319.46,1.319,1.109,1.319,1.109-.55,1.109-1.319Z"></path>
    <path class="uuid-547f0c69-2da2-48b9-a12e-f94d8773ff3f" d="M141.752,319.194h1.619v1.169c.329-.859.789-1.269,1.399-1.269.229.01.34.029.539.13v1.389c-.199-.1-.479-.159-.76-.159-.479,0-.919.249-1.179.64v3.258h-1.619v-5.157Z"></path>
    <path class="uuid-547f0c69-2da2-48b9-a12e-f94d8773ff3f" d="M145.832,322.872c0-.949.739-1.499,2.009-1.499.37,0,.74.07,1.199.24v-.42c0-.5-.329-.75-1.02-.75-.39,0-.849.11-1.449.36l-.56-1.13c.85-.38,1.609-.56,2.369-.56,1.429,0,2.259.71,2.259,1.939v3.298h-1.6v-.45c-.449.38-.879.53-1.429.53-1.05,0-1.779-.64-1.779-1.56ZM148.111,323.362c.34,0,.649-.09.929-.26v-.66c-.3-.069-.589-.109-.889-.109-.53,0-.83.18-.83.51s.29.52.79.52Z"></path>
    <path class="uuid-547f0c69-2da2-48b9-a12e-f94d8773ff3f" d="M152.162,326.081l.5-1.17c.569.27,1.079.399,1.579.399.77,0,1.169-.319,1.169-.949v-.699c-.34.42-.899.68-1.499.68-1.27,0-2.279-1.159-2.279-2.599s1.06-2.579,2.399-2.579c.55,0,1.049.23,1.398.65v-.62h1.59v5.188c0,1.389-.96,2.158-2.719,2.158-.779,0-1.52-.159-2.139-.459ZM155.41,322.612v-1.719c-.25-.26-.59-.399-.96-.399-.709,0-1.229.529-1.229,1.259s.529,1.27,1.229,1.27c.391,0,.71-.14.96-.41Z"></path>
    <path class="uuid-547f0c69-2da2-48b9-a12e-f94d8773ff3f" d="M158.052,321.783c0-1.51,1.12-2.669,2.599-2.669,1.489,0,2.539,1.13,2.539,2.729v.35h-3.548c.149.58.619.97,1.209.97.43,0,.79-.149,1.02-.43l1.069.89c-.67.59-1.299.829-2.169.829-1.52,0-2.719-1.169-2.719-2.668ZM161.69,321.273c-.141-.55-.53-.899-1.05-.899-.51,0-.869.329-.999.899h2.049Z"></path>
    <path class="uuid-547f0c69-2da2-48b9-a12e-f94d8773ff3f" d="M166.121,321.783c0-1.52,1.16-2.669,2.688-2.669s2.688,1.149,2.688,2.669-1.159,2.668-2.688,2.668-2.688-1.149-2.688-2.668ZM169.919,321.783c0-.77-.459-1.319-1.109-1.319s-1.109.55-1.109,1.319.46,1.319,1.109,1.319,1.109-.55,1.109-1.319Z"></path>
    <path class="uuid-547f0c69-2da2-48b9-a12e-f94d8773ff3f" d="M172.532,319.194h1.599v.72c.34-.46.91-.75,1.529-.75,1.27,0,2.279,1.17,2.279,2.619s-1.06,2.599-2.399,2.599c-.56,0-1.049-.21-1.389-.6v2.658h-1.619v-7.246ZM176.35,321.773c0-.73-.529-1.27-1.229-1.27-.399,0-.709.14-.969.42v1.719c.25.26.59.41.969.41.71,0,1.229-.54,1.229-1.279Z"></path>
    <path class="uuid-547f0c69-2da2-48b9-a12e-f94d8773ff3f" d="M178.741,321.783c0-1.51,1.12-2.669,2.599-2.669,1.489,0,2.539,1.13,2.539,2.729v.35h-3.548c.149.58.619.97,1.209.97.43,0,.79-.149,1.02-.43l1.069.89c-.67.59-1.299.829-2.169.829-1.52,0-2.719-1.169-2.719-2.668ZM182.38,321.273c-.141-.55-.53-.899-1.05-.899-.51,0-.869.329-.999.899h2.049Z"></path>
    <path class="uuid-547f0c69-2da2-48b9-a12e-f94d8773ff3f" d="M184.892,319.194h1.619v1.169c.329-.859.789-1.269,1.399-1.269.229.01.34.029.539.13v1.389c-.199-.1-.479-.159-.76-.159-.479,0-.919.249-1.179.64v3.258h-1.619v-5.157Z"></path>
    <path class="uuid-547f0c69-2da2-48b9-a12e-f94d8773ff3f" d="M188.972,322.872c0-.949.739-1.499,2.009-1.499.37,0,.74.07,1.199.24v-.42c0-.5-.329-.75-1.02-.75-.39,0-.849.11-1.449.36l-.56-1.13c.85-.38,1.609-.56,2.369-.56,1.429,0,2.259.71,2.259,1.939v3.298h-1.6v-.45c-.449.38-.879.53-1.429.53-1.05,0-1.779-.64-1.779-1.56ZM191.251,323.362c.34,0,.649-.09.929-.26v-.66c-.3-.069-.589-.109-.889-.109-.53,0-.83.18-.83.51s.29.52.79.52Z"></path>
    <path class="uuid-547f0c69-2da2-48b9-a12e-f94d8773ff3f" d="M195.531,322.792v-2.349h-1v-1.249h1v-1.429l1.619-.33v1.759h1.379v1.249h-1.379v2.029c0,.46.18.619.68.619.189,0,.34-.02.659-.109v1.31c-.3.09-.779.159-1.109.159-1.22,0-1.849-.56-1.849-1.659Z"></path>
    <path class="uuid-547f0c69-2da2-48b9-a12e-f94d8773ff3f" d="M199.151,321.783c0-1.52,1.16-2.669,2.688-2.669s2.688,1.149,2.688,2.669-1.159,2.668-2.688,2.668-2.688-1.149-2.688-2.668ZM202.949,321.783c0-.77-.459-1.319-1.109-1.319s-1.109.55-1.109,1.319.46,1.319,1.109,1.319,1.109-.55,1.109-1.319Z"></path>
    <path class="uuid-547f0c69-2da2-48b9-a12e-f94d8773ff3f" d="M205.562,319.194h1.619v1.169c.329-.859.789-1.269,1.399-1.269.229.01.34.029.539.13v1.389c-.199-.1-.479-.159-.76-.159-.479,0-.919.249-1.179.64v3.258h-1.619v-5.157Z"></path>
  </g>
  <g>
    <path class="uuid-547f0c69-2da2-48b9-a12e-f94d8773ff3f" d="M97.132,281.215c0-2.019,1.589-3.608,3.618-3.608s3.618,1.59,3.618,3.608-1.589,3.608-3.618,3.608-3.618-1.59-3.618-3.608ZM102.6,281.215c0-1.189-.8-2.079-1.849-2.079s-1.849.89-1.849,2.079.8,2.079,1.849,2.079,1.849-.89,1.849-2.079Z"></path>
    <path class="uuid-547f0c69-2da2-48b9-a12e-f94d8773ff3f" d="M105.452,279.556h1.599v.72c.34-.46.91-.75,1.529-.75,1.27,0,2.279,1.17,2.279,2.619s-1.06,2.599-2.399,2.599c-.56,0-1.049-.21-1.389-.6v2.658h-1.619v-7.246ZM109.27,282.135c0-.73-.529-1.27-1.229-1.27-.399,0-.709.14-.969.42v1.719c.25.26.59.41.969.41.71,0,1.229-.54,1.229-1.279Z"></path>
    <path class="uuid-547f0c69-2da2-48b9-a12e-f94d8773ff3f" d="M111.662,282.145c0-1.51,1.12-2.669,2.599-2.669,1.489,0,2.539,1.13,2.539,2.729v.35h-3.548c.149.58.619.97,1.209.97.43,0,.79-.149,1.02-.43l1.069.89c-.67.59-1.299.829-2.169.829-1.519,0-2.719-1.169-2.719-2.668ZM115.301,281.635c-.141-.55-.53-.899-1.05-.899-.51,0-.869.329-.999.899h2.049Z"></path>
    <path class="uuid-547f0c69-2da2-48b9-a12e-f94d8773ff3f" d="M117.812,279.556h1.619v.84c.399-.6.959-.92,1.629-.92.999,0,1.709.729,1.709,1.759v3.479h-1.619v-3.009c0-.579-.34-.959-.859-.959-.35,0-.63.14-.859.43v3.538h-1.619v-5.157Z"></path>
    <path class="uuid-547f0c69-2da2-48b9-a12e-f94d8773ff3f" d="M123.552,283.764l.88-1.27c.97.68,1.579.93,2.269.93.74,0,1.189-.3,1.189-.74,0-.409-.239-.609-.919-.729l-1.489-.26c-1.109-.189-1.72-.89-1.72-1.879,0-1.359,1.04-2.209,2.779-2.209,1.079,0,2.148.351,2.868.92l-.87,1.249c-.68-.52-1.349-.77-2.089-.77-.68,0-1.069.28-1.069.66,0,.359.23.539.79.64l1.399.239c1.309.22,1.999.91,1.999,1.979,0,1.369-1.16,2.299-2.989,2.299-1.109,0-2.099-.37-3.028-1.06Z"></path>
    <path class="uuid-547f0c69-2da2-48b9-a12e-f94d8773ff3f" d="M130.542,277.597l1.619-.25v3.049c.399-.6.959-.92,1.629-.92.999,0,1.709.729,1.709,1.759v3.479h-1.619v-3.009c0-.579-.34-.959-.859-.959-.35,0-.63.14-.859.43v3.538h-1.619v-7.116Z"></path>
    <path class="uuid-547f0c69-2da2-48b9-a12e-f94d8773ff3f" d="M136.622,277.857c0-.499.41-.909.91-.909s.909.41.909.909-.41.91-.909.91-.91-.41-.91-.91ZM136.723,279.556h1.619v5.157h-1.619v-5.157Z"></path>
    <path class="uuid-547f0c69-2da2-48b9-a12e-f94d8773ff3f" d="M140.362,280.805h-1.07v-1.249h1.07v-.68c0-1.229.729-1.898,2.059-1.898.279,0,.649.04.859.1v1.329c-.29-.05-.439-.06-.62-.06-.459,0-.679.18-.679.56v.649h1.299v1.249h-1.299v3.908h-1.619v-3.908Z"></path>
    <path class="uuid-547f0c69-2da2-48b9-a12e-f94d8773ff3f" d="M144.882,283.154v-2.349h-1v-1.249h1v-1.429l1.619-.33v1.759h1.379v1.249h-1.379v2.029c0,.46.18.619.68.619.189,0,.34-.02.659-.109v1.31c-.3.09-.779.159-1.109.159-1.22,0-1.849-.56-1.849-1.659Z"></path>
    <path class="uuid-547f0c69-2da2-48b9-a12e-f94d8773ff3f" d="M151.081,277.717h2.849c1.959,0,3.519,1.559,3.519,3.498s-1.56,3.498-3.519,3.498h-2.849v-6.996ZM153.93,283.245c.97,0,1.739-.9,1.739-2.029s-.77-2.029-1.739-2.029h-1.129v4.059h1.129Z"></path>
    <path class="uuid-547f0c69-2da2-48b9-a12e-f94d8773ff3f" d="M158.191,283.234c0-.949.739-1.499,2.009-1.499.37,0,.74.07,1.199.24v-.42c0-.5-.329-.75-1.02-.75-.39,0-.849.11-1.449.36l-.56-1.13c.85-.38,1.609-.56,2.369-.56,1.429,0,2.259.71,2.259,1.939v3.298h-1.6v-.45c-.449.38-.879.53-1.429.53-1.05,0-1.779-.64-1.779-1.56ZM160.471,283.724c.34,0,.649-.09.929-.26v-.66c-.3-.069-.589-.109-.889-.109-.53,0-.83.18-.83.51s.29.52.79.52Z"></path>
    <path class="uuid-547f0c69-2da2-48b9-a12e-f94d8773ff3f" d="M164.752,283.154v-2.349h-1v-1.249h1v-1.429l1.619-.33v1.759h1.379v1.249h-1.379v2.029c0,.46.18.619.68.619.189,0,.34-.02.659-.109v1.31c-.3.09-.779.159-1.109.159-1.22,0-1.849-.56-1.849-1.659Z"></path>
    <path class="uuid-547f0c69-2da2-48b9-a12e-f94d8773ff3f" d="M168.412,283.234c0-.949.739-1.499,2.009-1.499.37,0,.74.07,1.199.24v-.42c0-.5-.329-.75-1.02-.75-.39,0-.849.11-1.449.36l-.56-1.13c.85-.38,1.609-.56,2.369-.56,1.429,0,2.259.71,2.259,1.939v3.298h-1.6v-.45c-.449.38-.879.53-1.429.53-1.05,0-1.779-.64-1.779-1.56ZM170.691,283.724c.34,0,.649-.09.929-.26v-.66c-.3-.069-.589-.109-.889-.109-.53,0-.83.18-.83.51s.29.52.79.52Z"></path>
    <path class="uuid-547f0c69-2da2-48b9-a12e-f94d8773ff3f" d="M176.741,277.717h5.327v1.439h-3.607v1.379h2.519v1.399h-2.519v2.778h-1.72v-6.996Z"></path>
    <path class="uuid-547f0c69-2da2-48b9-a12e-f94d8773ff3f" d="M182.092,282.145c0-1.52,1.16-2.669,2.688-2.669s2.688,1.149,2.688,2.669-1.159,2.668-2.688,2.668-2.688-1.149-2.688-2.668ZM185.89,282.145c0-.77-.459-1.319-1.109-1.319s-1.109.55-1.109,1.319.46,1.319,1.109,1.319,1.109-.55,1.109-1.319Z"></path>
    <path class="uuid-547f0c69-2da2-48b9-a12e-f94d8773ff3f" d="M188.462,283.035v-3.479h1.619v3.009c0,.579.34.959.859.959.35,0,.63-.14.859-.43v-3.538h1.619v5.157h-1.619v-.84c-.399.6-.959.92-1.629.92-1,0-1.709-.729-1.709-1.759Z"></path>
    <path class="uuid-547f0c69-2da2-48b9-a12e-f94d8773ff3f" d="M194.682,279.556h1.619v.84c.399-.6.959-.92,1.629-.92.999,0,1.709.729,1.709,1.759v3.479h-1.619v-3.009c0-.579-.34-.959-.859-.959-.35,0-.63.14-.859.43v3.538h-1.619v-5.157Z"></path>
    <path class="uuid-547f0c69-2da2-48b9-a12e-f94d8773ff3f" d="M200.631,282.125c0-1.449,1.06-2.599,2.399-2.599.539,0,1.029.221,1.379.62v-2.549l1.619-.25v7.366h-1.6v-.67c-.34.43-.909.7-1.519.7-1.27,0-2.279-1.17-2.279-2.619ZM204.409,282.995v-1.739c-.25-.26-.59-.399-.96-.399-.709,0-1.229.539-1.229,1.279,0,.729.529,1.269,1.229,1.269.391,0,.71-.14.96-.409Z"></path>
    <path class="uuid-547f0c69-2da2-48b9-a12e-f94d8773ff3f" d="M207.052,283.234c0-.949.739-1.499,2.009-1.499.37,0,.74.07,1.199.24v-.42c0-.5-.329-.75-1.02-.75-.39,0-.849.11-1.449.36l-.56-1.13c.85-.38,1.609-.56,2.369-.56,1.429,0,2.259.71,2.259,1.939v3.298h-1.6v-.45c-.449.38-.879.53-1.429.53-1.05,0-1.779-.64-1.779-1.56ZM209.331,283.724c.34,0,.649-.09.929-.26v-.66c-.3-.069-.589-.109-.889-.109-.53,0-.83.18-.83.51s.29.52.79.52Z"></path>
    <path class="uuid-547f0c69-2da2-48b9-a12e-f94d8773ff3f" d="M213.611,283.154v-2.349h-1v-1.249h1v-1.429l1.619-.33v1.759h1.379v1.249h-1.379v2.029c0,.46.18.619.68.619.189,0,.34-.02.659-.109v1.31c-.3.09-.779.159-1.109.159-1.22,0-1.849-.56-1.849-1.659Z"></path>
    <path class="uuid-547f0c69-2da2-48b9-a12e-f94d8773ff3f" d="M217.411,277.857c0-.499.41-.909.91-.909s.909.41.909.909-.41.91-.909.91-.91-.41-.91-.91ZM217.512,279.556h1.619v5.157h-1.619v-5.157Z"></path>
    <path class="uuid-547f0c69-2da2-48b9-a12e-f94d8773ff3f" d="M220.161,282.145c0-1.52,1.16-2.669,2.688-2.669s2.688,1.149,2.688,2.669-1.159,2.668-2.688,2.668-2.688-1.149-2.688-2.668ZM223.959,282.145c0-.77-.459-1.319-1.109-1.319s-1.109.55-1.109,1.319.46,1.319,1.109,1.319,1.109-.55,1.109-1.319Z"></path>
    <path class="uuid-547f0c69-2da2-48b9-a12e-f94d8773ff3f" d="M226.571,279.556h1.619v.84c.399-.6.959-.92,1.629-.92.999,0,1.709.729,1.709,1.759v3.479h-1.619v-3.009c0-.579-.34-.959-.859-.959-.35,0-.63.14-.859.43v3.538h-1.619v-5.157Z"></path>
  </g>
  <rect class="uuid-4272b6cf-1847-4ca3-88c1-ee2ab12844d4" x="233.295" y="58.096" width="58.806" height="37.882"></rect>
  <rect class="uuid-4272b6cf-1847-4ca3-88c1-ee2ab12844d4" x="300.101" y="58.096" width="58.806" height="37.882"></rect>
  <rect class="uuid-4272b6cf-1847-4ca3-88c1-ee2ab12844d4" x="369.907" y="58.096" width="58.806" height="37.882"></rect>
  <rect class="uuid-4272b6cf-1847-4ca3-88c1-ee2ab12844d4" x="436.713" y="58.096" width="58.806" height="37.882"></rect>
  <rect class="uuid-4272b6cf-1847-4ca3-88c1-ee2ab12844d4" x="130.086" y="58.096" width="58.806" height="37.882"></rect>
  <g>
    <line class="uuid-edda1e2c-4bd3-4674-bb3c-1912acda487c" x1="159.489" y1="128.845" x2="159.489" y2="101.142"></line>
    <polygon class="uuid-547f0c69-2da2-48b9-a12e-f94d8773ff3f" points="163.229 102.237 159.489 95.76 155.749 102.237 163.229 102.237"></polygon>
  </g>
  <g>
    <line class="uuid-edda1e2c-4bd3-4674-bb3c-1912acda487c" x1="159.489" y1="188.159" x2="159.489" y2="172.11"></line>
    <polygon class="uuid-547f0c69-2da2-48b9-a12e-f94d8773ff3f" points="163.229 173.204 159.489 166.727 155.749 173.204 163.229 173.204"></polygon>
  </g>
  <g>
    <line class="uuid-edda1e2c-4bd3-4674-bb3c-1912acda487c" x1="296.101" y1="188.159" x2="296.101" y2="172.11"></line>
    <polygon class="uuid-547f0c69-2da2-48b9-a12e-f94d8773ff3f" points="299.841 173.204 296.101 166.727 292.361 173.204 299.841 173.204"></polygon>
  </g>
  <g>
    <line class="uuid-edda1e2c-4bd3-4674-bb3c-1912acda487c" x1="432.713" y1="188.159" x2="432.713" y2="172.11"></line>
    <polygon class="uuid-547f0c69-2da2-48b9-a12e-f94d8773ff3f" points="436.453 173.204 432.713 166.727 428.973 173.204 436.453 173.204"></polygon>
  </g>
  <g>
    <line class="uuid-edda1e2c-4bd3-4674-bb3c-1912acda487c" x1="262.698" y1="128.845" x2="262.698" y2="101.142"></line>
    <polygon class="uuid-547f0c69-2da2-48b9-a12e-f94d8773ff3f" points="266.438 102.237 262.698 95.76 258.958 102.237 266.438 102.237"></polygon>
  </g>
  <g>
    <line class="uuid-edda1e2c-4bd3-4674-bb3c-1912acda487c" x1="326.326" y1="128.845" x2="326.326" y2="101.142"></line>
    <polygon class="uuid-547f0c69-2da2-48b9-a12e-f94d8773ff3f" points="330.066 102.237 326.326 95.76 322.587 102.237 330.066 102.237"></polygon>
  </g>
  <g>
    <line class="uuid-edda1e2c-4bd3-4674-bb3c-1912acda487c" x1="296.101" y1="336.936" x2="296.101" y2="270.873"></line>
    <polygon class="uuid-547f0c69-2da2-48b9-a12e-f94d8773ff3f" points="299.841 271.967 296.101 265.49 292.361 271.967 299.841 271.967"></polygon>
  </g>
  <g>
    <line class="uuid-edda1e2c-4bd3-4674-bb3c-1912acda487c" x1="296.101" y1="395.984" x2="296.101" y2="380.2"></line>
    <polygon class="uuid-547f0c69-2da2-48b9-a12e-f94d8773ff3f" points="299.841 381.295 296.101 374.818 292.361 381.295 299.841 381.295"></polygon>
  </g>
  <g>
    <line class="uuid-edda1e2c-4bd3-4674-bb3c-1912acda487c" x1="399.31" y1="128.845" x2="399.31" y2="101.142"></line>
    <polygon class="uuid-547f0c69-2da2-48b9-a12e-f94d8773ff3f" points="403.05 102.237 399.31 95.76 395.57 102.237 403.05 102.237"></polygon>
  </g>
  <g>
    <line class="uuid-edda1e2c-4bd3-4674-bb3c-1912acda487c" x1="466.116" y1="128.845" x2="466.116" y2="101.142"></line>
    <polygon class="uuid-547f0c69-2da2-48b9-a12e-f94d8773ff3f" points="469.856 102.237 466.116 95.76 462.376 102.237 469.856 102.237"></polygon>
  </g>
  <g>
    <path class="uuid-547f0c69-2da2-48b9-a12e-f94d8773ff3f" d="M151.124,72.812h3.128c1.419,0,2.339.89,2.339,2.179,0,1.26-.919,2.148-2.339,2.148h-1.929v2.669h-1.2v-6.996ZM154.062,76.16c.85,0,1.319-.47,1.319-1.179,0-.689-.47-1.159-1.309-1.159h-1.749v2.338h1.739Z"></path>
    <path class="uuid-547f0c69-2da2-48b9-a12e-f94d8773ff3f" d="M157.094,77.309c0-1.479,1.08-2.588,2.519-2.588,1.429,0,2.509,1.109,2.509,2.588s-1.08,2.589-2.509,2.589c-1.439,0-2.519-1.109-2.519-2.589ZM161.012,77.309c0-.929-.59-1.629-1.399-1.629-.819,0-1.409.7-1.409,1.629,0,.939.59,1.63,1.409,1.63.81,0,1.399-.69,1.399-1.63Z"></path>
    <path class="uuid-547f0c69-2da2-48b9-a12e-f94d8773ff3f" d="M163.063,77.309c0-1.429,1.029-2.548,2.339-2.548.569,0,1.089.229,1.459.649v-2.769l1.129-.2v7.366h-1.119v-.659c-.36.449-.92.709-1.549.709-1.27,0-2.259-1.129-2.259-2.549ZM166.861,78.359v-2.108c-.29-.34-.72-.54-1.189-.54-.859,0-1.499.68-1.499,1.599,0,.91.64,1.6,1.499,1.6.49,0,.9-.19,1.189-.55Z"></path>
  </g>
  <g>
    <path class="uuid-547f0c69-2da2-48b9-a12e-f94d8773ff3f" d="M254.333,72.812h3.128c1.419,0,2.339.89,2.339,2.179,0,1.26-.919,2.148-2.339,2.148h-1.929v2.669h-1.2v-6.996ZM257.271,76.16c.85,0,1.319-.47,1.319-1.179,0-.689-.47-1.159-1.309-1.159h-1.749v2.338h1.739Z"></path>
    <path class="uuid-547f0c69-2da2-48b9-a12e-f94d8773ff3f" d="M260.303,77.309c0-1.479,1.08-2.588,2.519-2.588,1.429,0,2.509,1.109,2.509,2.588s-1.08,2.589-2.509,2.589c-1.439,0-2.519-1.109-2.519-2.589ZM264.221,77.309c0-.929-.59-1.629-1.399-1.629-.819,0-1.409.7-1.409,1.629,0,.939.59,1.63,1.409,1.63.81,0,1.399-.69,1.399-1.63Z"></path>
    <path class="uuid-547f0c69-2da2-48b9-a12e-f94d8773ff3f" d="M266.272,77.309c0-1.429,1.029-2.548,2.339-2.548.569,0,1.089.229,1.459.649v-2.769l1.129-.2v7.366h-1.119v-.659c-.36.449-.92.709-1.549.709-1.27,0-2.259-1.129-2.259-2.549ZM270.07,78.359v-2.108c-.29-.34-.72-.54-1.189-.54-.859,0-1.499.68-1.499,1.599,0,.91.64,1.6,1.499,1.6.49,0,.9-.19,1.189-.55Z"></path>
  </g>
  <g>
    <path class="uuid-547f0c69-2da2-48b9-a12e-f94d8773ff3f" d="M321.139,72.812h3.128c1.42,0,2.339.89,2.339,2.179,0,1.26-.919,2.148-2.339,2.148h-1.929v2.669h-1.199v-6.996ZM324.077,76.16c.85,0,1.319-.47,1.319-1.179,0-.689-.47-1.159-1.31-1.159h-1.749v2.338h1.739Z"></path>
    <path class="uuid-547f0c69-2da2-48b9-a12e-f94d8773ff3f" d="M327.108,77.309c0-1.479,1.08-2.588,2.519-2.588,1.43,0,2.509,1.109,2.509,2.588s-1.079,2.589-2.509,2.589c-1.438,0-2.519-1.109-2.519-2.589ZM331.026,77.309c0-.929-.59-1.629-1.399-1.629-.819,0-1.409.7-1.409,1.629,0,.939.59,1.63,1.409,1.63.81,0,1.399-.69,1.399-1.63Z"></path>
    <path class="uuid-547f0c69-2da2-48b9-a12e-f94d8773ff3f" d="M333.078,77.309c0-1.429,1.029-2.548,2.339-2.548.569,0,1.09.229,1.459.649v-2.769l1.13-.2v7.366h-1.119v-.659c-.36.449-.92.709-1.55.709-1.27,0-2.259-1.129-2.259-2.549ZM336.876,78.359v-2.108c-.289-.34-.72-.54-1.189-.54-.859,0-1.499.68-1.499,1.599,0,.91.64,1.6,1.499,1.6.49,0,.9-.19,1.189-.55Z"></path>
  </g>
  <g>
    <path class="uuid-547f0c69-2da2-48b9-a12e-f94d8773ff3f" d="M390.944,72.812h3.129c1.419,0,2.339.89,2.339,2.179,0,1.26-.92,2.148-2.339,2.148h-1.929v2.669h-1.2v-6.996ZM393.883,76.16c.85,0,1.319-.47,1.319-1.179,0-.689-.47-1.159-1.309-1.159h-1.749v2.338h1.738Z"></path>
    <path class="uuid-547f0c69-2da2-48b9-a12e-f94d8773ff3f" d="M396.915,77.309c0-1.479,1.079-2.588,2.519-2.588,1.429,0,2.509,1.109,2.509,2.588s-1.08,2.589-2.509,2.589c-1.439,0-2.519-1.109-2.519-2.589ZM400.833,77.309c0-.929-.59-1.629-1.399-1.629-.819,0-1.409.7-1.409,1.629,0,.939.59,1.63,1.409,1.63.81,0,1.399-.69,1.399-1.63Z"></path>
    <path class="uuid-547f0c69-2da2-48b9-a12e-f94d8773ff3f" d="M402.885,77.309c0-1.429,1.029-2.548,2.339-2.548.569,0,1.089.229,1.459.649v-2.769l1.129-.2v7.366h-1.119v-.659c-.359.449-.92.709-1.549.709-1.27,0-2.259-1.129-2.259-2.549ZM406.683,78.359v-2.108c-.29-.34-.72-.54-1.189-.54-.859,0-1.499.68-1.499,1.599,0,.91.64,1.6,1.499,1.6.489,0,.899-.19,1.189-.55Z"></path>
  </g>
  <g>
    <path class="uuid-547f0c69-2da2-48b9-a12e-f94d8773ff3f" d="M286.607,104.111h2.8c1.251,0,2.106.774,2.106,1.908,0,.819-.486,1.459-1.251,1.729l1.333,2.665h-1.197l-1.215-2.521h-1.495v2.521h-1.08v-6.302ZM289.308,107.028c.675,0,1.116-.396,1.116-1,0-.611-.441-1.008-1.116-1.008h-1.621v2.008h1.621Z"></path>
    <path class="uuid-547f0c69-2da2-48b9-a12e-f94d8773ff3f" d="M292.052,104.111h1.099l.936,4.618,1.351-4.618h1.026l1.35,4.609.937-4.609h1.062l-1.377,6.302h-1.125l-1.377-4.763-1.377,4.763h-1.125l-1.377-6.302Z"></path>
    <path class="uuid-547f0c69-2da2-48b9-a12e-f94d8773ff3f" d="M302.573,107.145l-2.277-3.034h1.287l1.647,2.251,1.63-2.251h1.251l-2.277,3.061,2.422,3.241h-1.297l-1.773-2.467-1.792,2.467h-1.242l2.422-3.268Z"></path>
  </g>
  <g>
    <path class="uuid-547f0c69-2da2-48b9-a12e-f94d8773ff3f" d="M166.427,104.111h2.8c1.251,0,2.106.774,2.106,1.908,0,.819-.486,1.459-1.251,1.729l1.333,2.665h-1.197l-1.215-2.521h-1.495v2.521h-1.08v-6.302ZM169.127,107.028c.675,0,1.116-.396,1.116-1,0-.611-.441-1.008-1.116-1.008h-1.621v2.008h1.621Z"></path>
    <path class="uuid-547f0c69-2da2-48b9-a12e-f94d8773ff3f" d="M171.872,104.111h1.099l.936,4.618,1.351-4.618h1.026l1.35,4.609.937-4.609h1.062l-1.377,6.302h-1.125l-1.377-4.763-1.377,4.763h-1.125l-1.377-6.302Z"></path>
    <path class="uuid-547f0c69-2da2-48b9-a12e-f94d8773ff3f" d="M180.296,107.261c0-1.818,1.404-3.25,3.187-3.25s3.187,1.432,3.187,3.25-1.404,3.25-3.187,3.25-3.187-1.431-3.187-3.25ZM185.562,107.261c0-1.296-.9-2.277-2.079-2.277s-2.089.981-2.089,2.277.909,2.278,2.089,2.278,2.079-.981,2.079-2.278Z"></path>
  </g>
  <g>
    <path class="uuid-547f0c69-2da2-48b9-a12e-f94d8773ff3f" d="M457.751,72.812h3.128c1.42,0,2.339.89,2.339,2.179,0,1.26-.919,2.148-2.339,2.148h-1.929v2.669h-1.199v-6.996ZM460.689,76.16c.85,0,1.319-.47,1.319-1.179,0-.689-.47-1.159-1.31-1.159h-1.749v2.338h1.739Z"></path>
    <path class="uuid-547f0c69-2da2-48b9-a12e-f94d8773ff3f" d="M463.721,77.309c0-1.479,1.08-2.588,2.519-2.588,1.43,0,2.509,1.109,2.509,2.588s-1.079,2.589-2.509,2.589c-1.438,0-2.519-1.109-2.519-2.589ZM467.639,77.309c0-.929-.59-1.629-1.399-1.629-.819,0-1.409.7-1.409,1.629,0,.939.59,1.63,1.409,1.63.81,0,1.399-.69,1.399-1.63Z"></path>
    <path class="uuid-547f0c69-2da2-48b9-a12e-f94d8773ff3f" d="M469.69,77.309c0-1.429,1.029-2.548,2.339-2.548.569,0,1.09.229,1.459.649v-2.769l1.13-.2v7.366h-1.119v-.659c-.36.449-.92.709-1.55.709-1.27,0-2.259-1.129-2.259-2.549ZM473.488,78.359v-2.108c-.289-.34-.72-.54-1.189-.54-.859,0-1.499.68-1.499,1.599,0,.91.64,1.6,1.499,1.6.49,0,.9-.19,1.189-.55Z"></path>
  </g>
  <g>
    <rect class="uuid-4272b6cf-1847-4ca3-88c1-ee2ab12844d4" x="96.683" y="423.221" width="87.175" height="37.882"></rect>
    <rect class="uuid-4272b6cf-1847-4ca3-88c1-ee2ab12844d4" x="200.57" y="423.221" width="87.175" height="37.882"></rect>
    <rect class="uuid-4272b6cf-1847-4ca3-88c1-ee2ab12844d4" x="304.457" y="423.221" width="87.175" height="37.882"></rect>
    <rect class="uuid-4272b6cf-1847-4ca3-88c1-ee2ab12844d4" x="408.344" y="423.221" width="87.175" height="37.882"></rect>
    <g>
      <path class="uuid-36a6c7e3-b690-4129-9ed6-ba57f34ee732" d="M124.546,437.819v8.687c0,4.798,7.04,8.687,15.725,8.687s15.725-3.889,15.725-8.687v-8.687"></path>
      <ellipse class="uuid-36a6c7e3-b690-4129-9ed6-ba57f34ee732" cx="140.271" cy="437.819" rx="15.725" ry="8.687"></ellipse>
    </g>
    <g>
      <path class="uuid-36a6c7e3-b690-4129-9ed6-ba57f34ee732" d="M228.433,437.819v8.687c0,4.798,7.04,8.687,15.725,8.687s15.725-3.889,15.725-8.687v-8.687"></path>
      <ellipse class="uuid-36a6c7e3-b690-4129-9ed6-ba57f34ee732" cx="244.158" cy="437.819" rx="15.725" ry="8.687"></ellipse>
    </g>
    <g>
      <path class="uuid-36a6c7e3-b690-4129-9ed6-ba57f34ee732" d="M332.32,437.819v8.687c0,4.798,7.04,8.687,15.725,8.687s15.725-3.889,15.725-8.687v-8.687"></path>
      <ellipse class="uuid-36a6c7e3-b690-4129-9ed6-ba57f34ee732" cx="348.045" cy="437.819" rx="15.725" ry="8.687"></ellipse>
    </g>
    <g>
      <path class="uuid-36a6c7e3-b690-4129-9ed6-ba57f34ee732" d="M436.207,437.819v8.687c0,4.798,7.04,8.687,15.725,8.687s15.725-3.889,15.725-8.687v-8.687"></path>
      <ellipse class="uuid-36a6c7e3-b690-4129-9ed6-ba57f34ee732" cx="451.932" cy="437.819" rx="15.725" ry="8.687"></ellipse>
    </g>
  </g>
</svg>