<svg id="uuid-37587204-34d8-413b-b7b8-b95939f619f1" data-name="Layer 1" xmlns="http://www.w3.org/2000/svg" width="841.89" height="201.839" viewBox="0 0 841.89 201.839">
  <defs>
    <style>
      .uuid-8c1a0939-17e5-462a-9cab-69cde5c1e141, .uuid-0ea85ecf-2ae2-44b9-989a-558097093e92, .uuid-d9b77669-960a-4a8b-b5f8-b6834190f8a0, .uuid-deea5198-dae1-4450-aac8-6b66a31acdf1, .uuid-29b8fd30-1b07-43b0-8f0f-41a29542b227, .uuid-acbe7028-6ce2-412d-a363-17633ef890ff, .uuid-6f430189-8c1b-4ac9-ab8f-aa1f50a7a549 {
        stroke: #000;
      }

      .uuid-8c1a0939-17e5-462a-9cab-69cde5c1e141, .uuid-0ea85ecf-2ae2-44b9-989a-558097093e92, .uuid-d9b77669-960a-4a8b-b5f8-b6834190f8a0, .uuid-acbe7028-6ce2-412d-a363-17633ef890ff, .uuid-6f430189-8c1b-4ac9-ab8f-aa1f50a7a549 {
        stroke-linecap: round;
        stroke-linejoin: round;
      }

      .uuid-8c1a0939-17e5-462a-9cab-69cde5c1e141, .uuid-4595af59-3c7d-4923-b55b-0043c7c51f2e {
        fill: #fff;
      }

      .uuid-0ea85ecf-2ae2-44b9-989a-558097093e92 {
        stroke-dasharray: 0 0 0 4;
      }

      .uuid-0ea85ecf-2ae2-44b9-989a-558097093e92, .uuid-d9b77669-960a-4a8b-b5f8-b6834190f8a0, .uuid-deea5198-dae1-4450-aac8-6b66a31acdf1, .uuid-29b8fd30-1b07-43b0-8f0f-41a29542b227, .uuid-acbe7028-6ce2-412d-a363-17633ef890ff, .uuid-6f430189-8c1b-4ac9-ab8f-aa1f50a7a549 {
        fill: none;
      }

      .uuid-0ea85ecf-2ae2-44b9-989a-558097093e92, .uuid-acbe7028-6ce2-412d-a363-17633ef890ff, .uuid-6f430189-8c1b-4ac9-ab8f-aa1f50a7a549 {
        stroke-width: 1.5px;
      }

      .uuid-d9b77669-960a-4a8b-b5f8-b6834190f8a0 {
        stroke-width: 2px;
      }

      .uuid-8fcd2a45-9b4a-497f-ae91-73c9cf0c0e05 {
        fill: #000;
      }

      .uuid-8fcd2a45-9b4a-497f-ae91-73c9cf0c0e05, .uuid-4595af59-3c7d-4923-b55b-0043c7c51f2e, .uuid-3faf4503-d8ec-4b0e-8173-8573a6f64f08 {
        stroke-width: 0px;
      }

      .uuid-deea5198-dae1-4450-aac8-6b66a31acdf1 {
        stroke-dasharray: 0 0 3.053 2.035;
      }

      .uuid-deea5198-dae1-4450-aac8-6b66a31acdf1, .uuid-29b8fd30-1b07-43b0-8f0f-41a29542b227 {
        stroke-miterlimit: 10;
      }

      .uuid-6f430189-8c1b-4ac9-ab8f-aa1f50a7a549 {
        stroke-dasharray: 0 0 0 4.228;
      }

      .uuid-3faf4503-d8ec-4b0e-8173-8573a6f64f08 {
        fill: #e6e6e6;
      }
    </style>
  </defs>
  <rect class="uuid-4595af59-3c7d-4923-b55b-0043c7c51f2e" x="4.822" y="18.153" width="832.245" height="172.424"></rect>
  <rect class="uuid-3faf4503-d8ec-4b0e-8173-8573a6f64f08" x="13.341" y="26.399" width="244.634" height="156.437"></rect>
  <rect class="uuid-4595af59-3c7d-4923-b55b-0043c7c51f2e" x="22.181" y="58.318" width="226.954" height="64.563"></rect>
  <g>
    <path class="uuid-8fcd2a45-9b4a-497f-ae91-73c9cf0c0e05" d="M22.958,42.309c0-2.244,1.771-3.972,4.06-3.972,1.232,0,2.453.583,3.125,1.497l-1.276,1.21c-.506-.682-1.122-1.023-1.848-1.023-1.199,0-2.102.979-2.102,2.288s.902,2.289,2.102,2.289c.726,0,1.342-.341,1.848-1.023l1.276,1.21c-.671.913-1.893,1.496-3.125,1.496-2.289,0-4.06-1.728-4.06-3.972Z"></path>
    <path class="uuid-8fcd2a45-9b4a-497f-ae91-73c9cf0c0e05" d="M30.658,43.332c0-1.672,1.276-2.937,2.959-2.937s2.959,1.265,2.959,2.937-1.276,2.938-2.959,2.938-2.959-1.265-2.959-2.938ZM34.839,43.332c0-.847-.506-1.452-1.221-1.452s-1.221.605-1.221,1.452.506,1.453,1.221,1.453,1.221-.605,1.221-1.453Z"></path>
    <path class="uuid-8fcd2a45-9b4a-497f-ae91-73c9cf0c0e05" d="M37.709,40.483h1.783v.924c.44-.66,1.056-1.012,1.793-1.012,1.1,0,1.881.803,1.881,1.936v3.829h-1.782v-3.312c0-.638-.374-1.056-.946-1.056-.385,0-.693.154-.946.473v3.895h-1.783v-5.677Z"></path>
    <path class="uuid-8fcd2a45-9b4a-497f-ae91-73c9cf0c0e05" d="M45.09,44.443v-2.585h-1.101v-1.375h1.101v-1.573l1.782-.363v1.937h1.518v1.375h-1.518v2.233c0,.506.198.682.748.682.209,0,.374-.022.726-.121v1.441c-.33.099-.858.176-1.221.176-1.342,0-2.035-.616-2.035-1.826Z"></path>
    <path class="uuid-8fcd2a45-9b4a-497f-ae91-73c9cf0c0e05" d="M49.38,40.483h1.783v1.287c.363-.946.869-1.397,1.54-1.397.253.011.374.033.594.143v1.529c-.22-.11-.528-.176-.836-.176-.528,0-1.012.275-1.298.704v3.586h-1.783v-5.677Z"></path>
    <path class="uuid-8fcd2a45-9b4a-497f-ae91-73c9cf0c0e05" d="M53.824,43.332c0-1.672,1.276-2.937,2.959-2.937s2.959,1.265,2.959,2.937-1.276,2.938-2.959,2.938-2.959-1.265-2.959-2.938ZM58.004,43.332c0-.847-.506-1.452-1.221-1.452s-1.221.605-1.221,1.452.506,1.453,1.221,1.453,1.221-.605,1.221-1.453Z"></path>
    <path class="uuid-8fcd2a45-9b4a-497f-ae91-73c9cf0c0e05" d="M60.875,38.327l1.783-.275v8.108h-1.783v-7.833Z"></path>
    <path class="uuid-8fcd2a45-9b4a-497f-ae91-73c9cf0c0e05" d="M66.408,40.483h1.76v.792c.375-.506,1.001-.825,1.684-.825,1.397,0,2.508,1.287,2.508,2.882s-1.166,2.861-2.641,2.861c-.616,0-1.155-.231-1.529-.66v2.926h-1.783v-7.976ZM70.61,43.321c0-.803-.583-1.397-1.353-1.397-.44,0-.781.154-1.067.462v1.892c.275.286.649.451,1.067.451.781,0,1.353-.594,1.353-1.408Z"></path>
    <path class="uuid-8fcd2a45-9b4a-497f-ae91-73c9cf0c0e05" d="M73.492,38.327l1.783-.275v8.108h-1.783v-7.833Z"></path>
    <path class="uuid-8fcd2a45-9b4a-497f-ae91-73c9cf0c0e05" d="M76.396,44.531c0-1.045.814-1.65,2.211-1.65.407,0,.814.077,1.32.264v-.462c0-.55-.363-.825-1.122-.825-.429,0-.935.121-1.595.396l-.616-1.243c.935-.418,1.771-.616,2.607-.616,1.573,0,2.486.781,2.486,2.134v3.63h-1.76v-.495c-.495.418-.968.583-1.573.583-1.155,0-1.958-.704-1.958-1.716ZM78.904,45.07c.374,0,.715-.099,1.023-.286v-.726c-.33-.077-.649-.121-.979-.121-.583,0-.913.198-.913.561s.319.572.869.572Z"></path>
    <path class="uuid-8fcd2a45-9b4a-497f-ae91-73c9cf0c0e05" d="M83.028,40.483h1.783v.924c.44-.66,1.056-1.012,1.793-1.012,1.1,0,1.881.803,1.881,1.936v3.829h-1.782v-3.312c0-.638-.374-1.056-.946-1.056-.385,0-.693.154-.946.473v3.895h-1.783v-5.677Z"></path>
    <path class="uuid-8fcd2a45-9b4a-497f-ae91-73c9cf0c0e05" d="M89.574,43.332c0-1.661,1.232-2.937,2.86-2.937,1.64,0,2.794,1.243,2.794,3.003v.385h-3.905c.165.638.682,1.067,1.331,1.067.473,0,.869-.165,1.122-.473l1.177.979c-.737.649-1.43.913-2.387.913-1.672,0-2.993-1.287-2.993-2.938ZM93.579,42.771c-.154-.605-.583-.99-1.155-.99-.561,0-.957.363-1.1.99h2.255Z"></path>
  </g>
  <g>
    <path class="uuid-8fcd2a45-9b4a-497f-ae91-73c9cf0c0e05" d="M36.976,70.654c0-2.039,1.609-3.608,3.688-3.608,1.12,0,2.229.53,2.838,1.359l-1.159,1.1c-.46-.62-1.02-.93-1.679-.93-1.089,0-1.909.89-1.909,2.079s.819,2.079,1.909,2.079c.66,0,1.219-.31,1.679-.929l1.159,1.099c-.609.83-1.719,1.359-2.838,1.359-2.079,0-3.688-1.569-3.688-3.608Z"></path>
    <path class="uuid-8fcd2a45-9b4a-497f-ae91-73c9cf0c0e05" d="M43.976,71.583c0-1.52,1.159-2.669,2.688-2.669s2.688,1.149,2.688,2.669-1.159,2.668-2.688,2.668-2.688-1.149-2.688-2.668ZM47.773,71.583c0-.77-.46-1.319-1.109-1.319s-1.109.549-1.109,1.319.459,1.319,1.109,1.319,1.109-.549,1.109-1.319Z"></path>
    <path class="uuid-8fcd2a45-9b4a-497f-ae91-73c9cf0c0e05" d="M50.386,68.995h1.619v.84c.4-.6.959-.92,1.629-.92,1,0,1.709.73,1.709,1.759v3.478h-1.619v-3.008c0-.58-.34-.959-.859-.959-.35,0-.63.14-.86.43v3.538h-1.619v-5.157Z"></path>
    <path class="uuid-8fcd2a45-9b4a-497f-ae91-73c9cf0c0e05" d="M57.095,72.593v-2.349h-.999v-1.25h.999v-1.429l1.619-.33v1.759h1.379v1.25h-1.379v2.029c0,.459.18.62.68.62.19,0,.34-.02.66-.11v1.309c-.3.09-.779.16-1.109.16-1.219,0-1.849-.56-1.849-1.659Z"></path>
    <path class="uuid-8fcd2a45-9b4a-497f-ae91-73c9cf0c0e05" d="M60.996,68.995h1.619v1.169c.33-.859.79-1.27,1.399-1.27.23.01.34.03.54.13v1.389c-.2-.1-.479-.16-.759-.16-.48,0-.919.25-1.18.64v3.258h-1.619v-5.157Z"></path>
    <path class="uuid-8fcd2a45-9b4a-497f-ae91-73c9cf0c0e05" d="M65.035,71.583c0-1.52,1.159-2.669,2.688-2.669s2.688,1.149,2.688,2.669-1.159,2.668-2.688,2.668-2.688-1.149-2.688-2.668ZM68.833,71.583c0-.77-.46-1.319-1.109-1.319s-1.109.549-1.109,1.319.459,1.319,1.109,1.319,1.109-.549,1.109-1.319Z"></path>
    <path class="uuid-8fcd2a45-9b4a-497f-ae91-73c9cf0c0e05" d="M71.445,67.036l1.619-.25v7.366h-1.619v-7.116Z"></path>
    <path class="uuid-8fcd2a45-9b4a-497f-ae91-73c9cf0c0e05" d="M76.475,68.995h1.599v.72c.339-.46.909-.75,1.529-.75,1.27,0,2.279,1.169,2.279,2.619s-1.06,2.598-2.398,2.598c-.56,0-1.05-.209-1.39-.6v2.659h-1.619v-7.246ZM80.293,71.573c0-.729-.53-1.269-1.229-1.269-.4,0-.709.14-.97.419v1.719c.25.26.59.41.97.41.709,0,1.229-.54,1.229-1.279Z"></path>
    <path class="uuid-8fcd2a45-9b4a-497f-ae91-73c9cf0c0e05" d="M82.915,67.036l1.619-.25v7.366h-1.619v-7.116Z"></path>
    <path class="uuid-8fcd2a45-9b4a-497f-ae91-73c9cf0c0e05" d="M85.555,72.673c0-.95.74-1.5,2.009-1.5.37,0,.739.07,1.199.24v-.42c0-.5-.33-.75-1.02-.75-.39,0-.85.11-1.449.36l-.56-1.129c.85-.38,1.609-.56,2.369-.56,1.429,0,2.259.71,2.259,1.939v3.298h-1.599v-.45c-.45.38-.88.53-1.429.53-1.049,0-1.779-.64-1.779-1.559ZM87.833,73.163c.34,0,.65-.09.93-.26v-.66c-.3-.07-.59-.11-.89-.11-.53,0-.83.18-.83.51s.29.52.79.52Z"></path>
    <path class="uuid-8fcd2a45-9b4a-497f-ae91-73c9cf0c0e05" d="M91.585,68.995h1.619v.84c.4-.6.959-.92,1.629-.92,1,0,1.709.73,1.709,1.759v3.478h-1.619v-3.008c0-.58-.34-.959-.859-.959-.35,0-.63.14-.86.43v3.538h-1.619v-5.157Z"></path>
    <path class="uuid-8fcd2a45-9b4a-497f-ae91-73c9cf0c0e05" d="M97.535,71.583c0-1.509,1.119-2.669,2.599-2.669,1.489,0,2.539,1.129,2.539,2.729v.35h-3.548c.15.58.62.969,1.209.969.43,0,.79-.15,1.02-.43l1.069.89c-.669.589-1.299.83-2.169.83-1.519,0-2.718-1.169-2.718-2.668ZM101.173,71.074c-.14-.55-.529-.9-1.049-.9-.51,0-.87.33-1,.9h2.049Z"></path>
    <path class="uuid-8fcd2a45-9b4a-497f-ae91-73c9cf0c0e05" d="M105.835,68.995h1.619v.84c.4-.6.959-.92,1.629-.92,1,0,1.709.73,1.709,1.759v3.478h-1.619v-3.008c0-.58-.34-.959-.859-.959-.35,0-.63.14-.86.43v3.538h-1.619v-5.157Z"></path>
    <path class="uuid-8fcd2a45-9b4a-497f-ae91-73c9cf0c0e05" d="M111.785,71.583c0-1.52,1.159-2.669,2.688-2.669s2.688,1.149,2.688,2.669-1.159,2.668-2.688,2.668-2.688-1.149-2.688-2.668ZM115.583,71.583c0-.77-.46-1.319-1.109-1.319s-1.109.549-1.109,1.319.459,1.319,1.109,1.319,1.109-.549,1.109-1.319Z"></path>
    <path class="uuid-8fcd2a45-9b4a-497f-ae91-73c9cf0c0e05" d="M117.965,71.563c0-1.449,1.059-2.599,2.398-2.599.54,0,1.03.22,1.379.62v-2.549l1.619-.25v7.366h-1.599v-.669c-.34.43-.91.699-1.519.699-1.27,0-2.279-1.169-2.279-2.618ZM121.743,72.433v-1.739c-.25-.26-.59-.4-.959-.4-.709,0-1.229.54-1.229,1.279,0,.729.53,1.27,1.229,1.27.39,0,.709-.14.959-.41Z"></path>
    <path class="uuid-8fcd2a45-9b4a-497f-ae91-73c9cf0c0e05" d="M124.395,71.583c0-1.509,1.119-2.669,2.599-2.669,1.489,0,2.539,1.129,2.539,2.729v.35h-3.548c.15.58.62.969,1.209.969.43,0,.79-.15,1.02-.43l1.069.89c-.669.589-1.299.83-2.169.83-1.519,0-2.718-1.169-2.718-2.668ZM128.033,71.074c-.14-.55-.529-.9-1.049-.9-.51,0-.87.33-1,.9h2.049Z"></path>
    <path class="uuid-8fcd2a45-9b4a-497f-ae91-73c9cf0c0e05" d="M130.175,73.622l.709-1.079c.74.39,1.159.52,1.659.52.46,0,.74-.16.74-.42,0-.2-.15-.31-.48-.37l-.989-.18c-1-.189-1.52-.699-1.52-1.499,0-1.049.81-1.679,2.159-1.679.719,0,1.429.2,2.099.59l-.74,1.029c-.52-.3-.999-.439-1.479-.439-.39,0-.62.13-.62.35,0,.21.13.3.53.37l.969.18c1.02.19,1.549.709,1.549,1.489,0,1.009-.95,1.769-2.219,1.769-.939,0-1.769-.22-2.369-.63Z"></path>
  </g>
  <path class="uuid-4595af59-3c7d-4923-b55b-0043c7c51f2e" d="M95.499,128.081v12.229H23.181v-12.229h72.318M96.499,127.081H22.181v14.229h74.318v-14.229h0Z"></path>
  <path class="uuid-4595af59-3c7d-4923-b55b-0043c7c51f2e" d="M171.817,128.081v12.229h-72.318v-12.229h72.318M172.817,127.081h-74.318v14.229h74.318v-14.229h0Z"></path>
  <path class="uuid-4595af59-3c7d-4923-b55b-0043c7c51f2e" d="M248.135,128.081v12.229h-72.318v-12.229h72.318M249.135,127.081h-74.318v14.229h74.318v-14.229h0Z"></path>
  <path class="uuid-4595af59-3c7d-4923-b55b-0043c7c51f2e" d="M95.499,144.311v12.229H23.181v-12.229h72.318M96.499,143.311H22.181v14.229h74.318v-14.229h0Z"></path>
  <path class="uuid-4595af59-3c7d-4923-b55b-0043c7c51f2e" d="M171.817,144.311v12.229h-72.318v-12.229h72.318M172.817,143.311h-74.318v14.229h74.318v-14.229h0Z"></path>
  <g>
    <path class="uuid-8fcd2a45-9b4a-497f-ae91-73c9cf0c0e05" d="M32.218,131.092h1.111l2.167,5.597h-1.031l-.576-1.567h-2.295l-.576,1.567h-1l2.199-5.597ZM33.625,134.371l-.879-2.367-.872,2.367h1.751Z"></path>
    <path class="uuid-8fcd2a45-9b4a-497f-ae91-73c9cf0c0e05" d="M36.219,131.092h2.502c1.135,0,1.871.712,1.871,1.743,0,1.008-.736,1.719-1.871,1.719h-1.543v2.135h-.959v-5.597ZM38.569,133.771c.68,0,1.055-.376,1.055-.943,0-.552-.375-.928-1.047-.928h-1.399v1.871h1.392Z"></path>
    <path class="uuid-8fcd2a45-9b4a-497f-ae91-73c9cf0c0e05" d="M41.611,131.092h.959v5.597h-.959v-5.597Z"></path>
  </g>
  <g>
    <path class="uuid-8fcd2a45-9b4a-497f-ae91-73c9cf0c0e05" d="M30.347,150.92c0-1.175.847-2.071,1.951-2.071,1.096,0,1.895.872,1.895,2.071v.216h-2.958c.088.648.576,1.12,1.199,1.12.376,0,.728-.144.952-.376l.592.536c-.488.408-.976.584-1.583.584-1.151,0-2.047-.904-2.047-2.079ZM33.337,150.576c-.096-.583-.512-.991-1.047-.991-.544,0-.943.392-1.047.991h2.095Z"></path>
    <path class="uuid-8fcd2a45-9b4a-497f-ae91-73c9cf0c0e05" d="M35.49,151.879v-2.247h-.799v-.72h.799v-1.104l.904-.192v1.295h1.111v.72h-1.111v2.047c0,.392.152.543.56.543.176,0,.304-.024.544-.096v.76c-.232.072-.536.112-.776.112-.808,0-1.231-.384-1.231-1.12Z"></path>
    <path class="uuid-8fcd2a45-9b4a-497f-ae91-73c9cf0c0e05" d="M38.059,150.92c0-1.159.879-2.071,2.023-2.071.624,0,1.199.248,1.599.68l-.56.583c-.28-.312-.624-.472-1.007-.472-.647,0-1.151.56-1.151,1.279,0,.728.504,1.279,1.151,1.279.384,0,.728-.16,1.007-.463l.56.575c-.399.432-.975.68-1.599.68-1.144,0-2.023-.903-2.023-2.071Z"></path>
    <path class="uuid-8fcd2a45-9b4a-497f-ae91-73c9cf0c0e05" d="M42.123,150.92c0-1.143.823-2.039,1.871-2.039.456,0,.872.184,1.167.52v-2.215l.903-.16v5.893h-.896v-.528c-.288.36-.735.568-1.239.568-1.015,0-1.807-.904-1.807-2.039ZM45.161,151.76v-1.687c-.232-.272-.576-.432-.951-.432-.688,0-1.2.544-1.2,1.279,0,.728.512,1.279,1.2,1.279.392,0,.719-.152.951-.439Z"></path>
  </g>
  <g>
    <path class="uuid-8fcd2a45-9b4a-497f-ae91-73c9cf0c0e05" d="M106.749,133.891c0-1.623,1.263-2.887,2.895-2.887.855,0,1.671.368,2.183,1l-.64.624c-.4-.496-.951-.759-1.543-.759-1.087,0-1.911.872-1.911,2.023s.824,2.023,1.911,2.023c.592,0,1.143-.264,1.543-.76l.64.624c-.512.632-1.327,1-2.183,1-1.631,0-2.895-1.263-2.895-2.886Z"></path>
    <path class="uuid-8fcd2a45-9b4a-497f-ae91-73c9cf0c0e05" d="M112.382,134.69c0-1.183.863-2.071,2.015-2.071,1.144,0,2.007.888,2.007,2.071s-.863,2.071-2.007,2.071c-1.151,0-2.015-.887-2.015-2.071ZM115.516,134.69c0-.744-.472-1.303-1.12-1.303-.656,0-1.127.56-1.127,1.303,0,.751.472,1.303,1.127,1.303.647,0,1.12-.552,1.12-1.303Z"></path>
    <path class="uuid-8fcd2a45-9b4a-497f-ae91-73c9cf0c0e05" d="M117.341,132.684h.904v.656c.304-.472.743-.72,1.263-.72.824,0,1.399.584,1.399,1.431v2.639h-.911v-2.383c0-.583-.344-.959-.88-.959-.368,0-.664.168-.871.488v2.854h-.904v-4.006Z"></path>
    <path class="uuid-8fcd2a45-9b4a-497f-ae91-73c9cf0c0e05" d="M122.373,135.65v-2.247h-.8v-.72h.8v-1.104l.903-.192v1.295h1.111v.72h-1.111v2.047c0,.392.152.543.56.543.176,0,.304-.024.544-.096v.76c-.232.072-.536.112-.776.112-.808,0-1.231-.384-1.231-1.12Z"></path>
    <path class="uuid-8fcd2a45-9b4a-497f-ae91-73c9cf0c0e05" d="M125.189,132.684h.904v.864c.224-.608.607-.936,1.103-.936.152.008.256.024.392.08v.792c-.144-.056-.328-.096-.496-.096-.439,0-.799.248-.999.664v2.639h-.904v-4.006Z"></path>
    <path class="uuid-8fcd2a45-9b4a-497f-ae91-73c9cf0c0e05" d="M127.965,134.69c0-1.183.863-2.071,2.015-2.071,1.144,0,2.007.888,2.007,2.071s-.863,2.071-2.007,2.071c-1.151,0-2.015-.887-2.015-2.071ZM131.1,134.69c0-.744-.472-1.303-1.12-1.303-.656,0-1.127.56-1.127,1.303,0,.751.472,1.303,1.127,1.303.648,0,1.12-.552,1.12-1.303Z"></path>
    <path class="uuid-8fcd2a45-9b4a-497f-ae91-73c9cf0c0e05" d="M132.925,130.957l.904-.16v5.893h-.904v-5.733Z"></path>
    <path class="uuid-8fcd2a45-9b4a-497f-ae91-73c9cf0c0e05" d="M134.941,130.957l.904-.16v5.893h-.904v-5.733Z"></path>
    <path class="uuid-8fcd2a45-9b4a-497f-ae91-73c9cf0c0e05" d="M136.773,134.69c0-1.175.847-2.071,1.951-2.071,1.095,0,1.895.872,1.895,2.071v.216h-2.958c.088.648.576,1.12,1.2,1.12.375,0,.728-.144.951-.376l.592.536c-.488.408-.976.584-1.583.584-1.151,0-2.047-.904-2.047-2.079ZM139.764,134.347c-.096-.583-.512-.991-1.047-.991-.544,0-.944.392-1.047.991h2.095Z"></path>
    <path class="uuid-8fcd2a45-9b4a-497f-ae91-73c9cf0c0e05" d="M141.541,132.684h.904v.864c.224-.608.607-.936,1.103-.936.152.008.256.024.392.08v.792c-.144-.056-.328-.096-.496-.096-.44,0-.8.248-1,.664v2.639h-.904v-4.006Z"></path>
  </g>
  <g>
    <path class="uuid-8fcd2a45-9b4a-497f-ae91-73c9cf0c0e05" d="M182.731,131.093h.976l.832,4.102,1.199-4.102h.912l1.199,4.094.832-4.094h.943l-1.223,5.597h-1l-1.223-4.229-1.224,4.229h-1l-1.223-5.597Z"></path>
    <path class="uuid-8fcd2a45-9b4a-497f-ae91-73c9cf0c0e05" d="M189.979,134.69c0-1.175.847-2.071,1.951-2.071,1.095,0,1.895.872,1.895,2.071v.216h-2.958c.088.648.576,1.12,1.2,1.12.375,0,.728-.144.951-.376l.592.536c-.488.408-.976.584-1.583.584-1.151,0-2.047-.904-2.047-2.079ZM192.969,134.347c-.096-.583-.512-.991-1.047-.991-.544,0-.944.392-1.047.991h2.095Z"></path>
    <path class="uuid-8fcd2a45-9b4a-497f-ae91-73c9cf0c0e05" d="M194.747,130.98l.904-.152v2.391c.28-.352.728-.567,1.231-.567,1.016,0,1.807.903,1.807,2.039,0,1.144-.815,2.039-1.863,2.039-.472,0-.888-.192-1.191-.552v.512h-.888v-5.709ZM197.801,134.69c0-.728-.512-1.279-1.191-1.279-.4,0-.728.16-.959.448v1.671c.232.28.576.448.959.448.688,0,1.191-.552,1.191-1.288Z"></path>
    <path class="uuid-8fcd2a45-9b4a-497f-ae91-73c9cf0c0e05" d="M201.251,134.69c0-1.159.879-2.071,2.023-2.071.624,0,1.199.248,1.599.68l-.56.583c-.28-.312-.624-.472-1.007-.472-.647,0-1.151.56-1.151,1.279,0,.728.504,1.279,1.151,1.279.384,0,.728-.16,1.007-.464l.56.576c-.399.432-.975.679-1.599.679-1.144,0-2.023-.903-2.023-2.071Z"></path>
    <path class="uuid-8fcd2a45-9b4a-497f-ae91-73c9cf0c0e05" d="M205.315,134.69c0-1.183.863-2.071,2.015-2.071,1.144,0,2.007.888,2.007,2.071s-.863,2.071-2.007,2.071c-1.151,0-2.015-.887-2.015-2.071ZM208.449,134.69c0-.744-.472-1.303-1.12-1.303-.656,0-1.127.56-1.127,1.303,0,.752.472,1.303,1.127,1.303.647,0,1.12-.551,1.12-1.303Z"></path>
    <path class="uuid-8fcd2a45-9b4a-497f-ae91-73c9cf0c0e05" d="M210.274,132.684h.904v.656c.304-.472.743-.72,1.263-.72.824,0,1.399.583,1.399,1.431v2.639h-.911v-2.383c0-.583-.344-.959-.88-.959-.368,0-.664.168-.871.488v2.854h-.904v-4.006Z"></path>
    <path class="uuid-8fcd2a45-9b4a-497f-ae91-73c9cf0c0e05" d="M214.57,136.226l.424-.6c.528.328.879.456,1.288.456.479,0,.808-.224.808-.544,0-.248-.168-.376-.56-.456l-.704-.12c-.783-.144-1.159-.504-1.159-1.104,0-.751.616-1.239,1.551-1.239.56,0,1.063.16,1.575.48l-.423.6c-.408-.264-.8-.384-1.208-.384-.416,0-.688.176-.688.464,0,.256.144.368.56.439l.711.136c.8.144,1.184.512,1.184,1.112,0,.735-.704,1.303-1.639,1.303-.688,0-1.295-.192-1.719-.544Z"></path>
    <path class="uuid-8fcd2a45-9b4a-497f-ae91-73c9cf0c0e05" d="M218.619,134.69c0-1.183.863-2.071,2.015-2.071,1.144,0,2.007.888,2.007,2.071s-.863,2.071-2.007,2.071c-1.151,0-2.015-.887-2.015-2.071ZM221.753,134.69c0-.744-.472-1.303-1.12-1.303-.656,0-1.127.56-1.127,1.303,0,.752.472,1.303,1.127,1.303.647,0,1.12-.551,1.12-1.303Z"></path>
    <path class="uuid-8fcd2a45-9b4a-497f-ae91-73c9cf0c0e05" d="M223.578,130.957l.904-.16v5.893h-.904v-5.733Z"></path>
    <path class="uuid-8fcd2a45-9b4a-497f-ae91-73c9cf0c0e05" d="M225.41,134.69c0-1.175.847-2.071,1.951-2.071,1.096,0,1.895.872,1.895,2.071v.216h-2.958c.088.648.576,1.12,1.199,1.12.376,0,.728-.144.952-.376l.592.536c-.488.408-.976.584-1.583.584-1.151,0-2.047-.904-2.047-2.079ZM228.4,134.347c-.096-.583-.512-.991-1.047-.991-.544,0-.943.392-1.047.991h2.095Z"></path>
  </g>
  <g>
    <path class="uuid-8fcd2a45-9b4a-497f-ae91-73c9cf0c0e05" d="M106.534,152.104l.52-.704c.72.591,1.239.815,1.887.815.735,0,1.247-.376,1.247-.896,0-.456-.271-.671-1.015-.799l-1.032-.176c-.967-.176-1.439-.656-1.439-1.423,0-1.015.808-1.687,2.063-1.687.839,0,1.607.248,2.247.72l-.488.72c-.56-.424-1.159-.648-1.791-.648-.671,0-1.119.344-1.119.8,0,.408.256.616.863.711l1,.168c1.127.2,1.655.696,1.655,1.543,0,1.031-.912,1.759-2.247,1.759-.879,0-1.639-.304-2.351-.903Z"></path>
    <path class="uuid-8fcd2a45-9b4a-497f-ae91-73c9cf0c0e05" d="M111.894,150.92c0-1.159.879-2.071,2.023-2.071.624,0,1.199.248,1.599.68l-.56.583c-.28-.312-.624-.472-1.007-.472-.647,0-1.151.56-1.151,1.279,0,.728.504,1.279,1.151,1.279.384,0,.728-.16,1.007-.464l.56.576c-.399.432-.975.679-1.599.679-1.144,0-2.023-.903-2.023-2.071Z"></path>
    <path class="uuid-8fcd2a45-9b4a-497f-ae91-73c9cf0c0e05" d="M116.261,147.186l.904-.16v2.542c.304-.472.744-.72,1.263-.72.823,0,1.399.583,1.399,1.431v2.639h-.912v-2.383c0-.583-.344-.959-.879-.959-.368,0-.664.168-.872.488v2.854h-.904v-5.733Z"></path>
    <path class="uuid-8fcd2a45-9b4a-497f-ae91-73c9cf0c0e05" d="M120.733,150.92c0-1.175.847-2.071,1.951-2.071,1.096,0,1.895.872,1.895,2.071v.216h-2.958c.088.648.576,1.12,1.199,1.12.376,0,.728-.144.952-.376l.592.536c-.488.408-.976.584-1.583.584-1.151,0-2.047-.904-2.047-2.079ZM123.724,150.576c-.096-.583-.512-.991-1.047-.991-.544,0-.943.392-1.047.991h2.095Z"></path>
    <path class="uuid-8fcd2a45-9b4a-497f-ae91-73c9cf0c0e05" d="M125.333,150.92c0-1.143.823-2.039,1.871-2.039.456,0,.872.184,1.167.52v-2.215l.903-.16v5.893h-.896v-.528c-.288.36-.735.568-1.239.568-1.015,0-1.807-.903-1.807-2.039ZM128.372,151.76v-1.688c-.232-.271-.576-.432-.951-.432-.688,0-1.2.544-1.2,1.279,0,.728.512,1.279,1.2,1.279.392,0,.719-.152.951-.439Z"></path>
    <path class="uuid-8fcd2a45-9b4a-497f-ae91-73c9cf0c0e05" d="M130.365,151.552v-2.639h.912v2.375c0,.591.344.967.879.967.36,0,.664-.16.872-.48v-2.862h.903v4.006h-.903v-.647c-.304.472-.736.711-1.271.711-.815,0-1.391-.592-1.391-1.431Z"></path>
    <path class="uuid-8fcd2a45-9b4a-497f-ae91-73c9cf0c0e05" d="M135.053,147.186l.904-.16v5.893h-.904v-5.733Z"></path>
    <path class="uuid-8fcd2a45-9b4a-497f-ae91-73c9cf0c0e05" d="M136.885,150.92c0-1.175.847-2.071,1.951-2.071,1.095,0,1.895.872,1.895,2.071v.216h-2.958c.088.648.576,1.12,1.2,1.12.375,0,.728-.144.951-.376l.592.536c-.488.408-.976.584-1.583.584-1.151,0-2.047-.904-2.047-2.079ZM139.875,150.576c-.096-.583-.512-.991-1.047-.991-.544,0-.944.392-1.047.991h2.095Z"></path>
    <path class="uuid-8fcd2a45-9b4a-497f-ae91-73c9cf0c0e05" d="M141.653,148.913h.904v.864c.224-.608.607-.936,1.103-.936.152.008.256.024.392.08v.792c-.144-.056-.328-.096-.496-.096-.44,0-.8.248-1,.664v2.639h-.904v-4.006Z"></path>
  </g>
  <g>
    <g>
      <line class="uuid-acbe7028-6ce2-412d-a363-17633ef890ff" x1="80.528" y1="105.465" x2="80.528" y2="105.465"></line>
      <line class="uuid-0ea85ecf-2ae2-44b9-989a-558097093e92" x1="76.528" y1="105.465" x2="38.527" y2="105.465"></line>
      <line class="uuid-acbe7028-6ce2-412d-a363-17633ef890ff" x1="36.527" y1="105.465" x2="36.527" y2="105.465"></line>
      <line class="uuid-6f430189-8c1b-4ac9-ab8f-aa1f50a7a549" x1="36.527" y1="101.238" x2="36.527" y2="90.668"></line>
      <line class="uuid-acbe7028-6ce2-412d-a363-17633ef890ff" x1="36.527" y1="88.554" x2="36.527" y2="88.554"></line>
      <line class="uuid-0ea85ecf-2ae2-44b9-989a-558097093e92" x1="40.527" y1="88.554" x2="78.528" y2="88.554"></line>
      <line class="uuid-acbe7028-6ce2-412d-a363-17633ef890ff" x1="80.528" y1="88.554" x2="80.528" y2="88.554"></line>
      <line class="uuid-6f430189-8c1b-4ac9-ab8f-aa1f50a7a549" x1="80.528" y1="92.782" x2="80.528" y2="103.352"></line>
    </g>
    <g>
      <rect class="uuid-8c1a0939-17e5-462a-9cab-69cde5c1e141" x="40.423" y="92.481" width="36.12" height="9.03"></rect>
      <line class="uuid-d9b77669-960a-4a8b-b5f8-b6834190f8a0" x1="72.682" y1="96.354" x2="72.682" y2="96.354"></line>
      <line class="uuid-acbe7028-6ce2-412d-a363-17633ef890ff" x1="44.846" y1="97.641" x2="50.264" y2="97.641"></line>
    </g>
  </g>
  <g>
    <g>
      <line class="uuid-acbe7028-6ce2-412d-a363-17633ef890ff" x1="157.966" y1="105.465" x2="157.966" y2="105.465"></line>
      <line class="uuid-0ea85ecf-2ae2-44b9-989a-558097093e92" x1="153.966" y1="105.465" x2="115.964" y2="105.465"></line>
      <line class="uuid-acbe7028-6ce2-412d-a363-17633ef890ff" x1="113.964" y1="105.465" x2="113.964" y2="105.465"></line>
      <line class="uuid-6f430189-8c1b-4ac9-ab8f-aa1f50a7a549" x1="113.964" y1="101.238" x2="113.964" y2="90.668"></line>
      <line class="uuid-acbe7028-6ce2-412d-a363-17633ef890ff" x1="113.964" y1="88.554" x2="113.964" y2="88.554"></line>
      <line class="uuid-0ea85ecf-2ae2-44b9-989a-558097093e92" x1="117.964" y1="88.554" x2="155.966" y2="88.554"></line>
      <line class="uuid-acbe7028-6ce2-412d-a363-17633ef890ff" x1="157.966" y1="88.554" x2="157.966" y2="88.554"></line>
      <line class="uuid-6f430189-8c1b-4ac9-ab8f-aa1f50a7a549" x1="157.966" y1="92.782" x2="157.966" y2="103.352"></line>
    </g>
    <g>
      <rect class="uuid-8c1a0939-17e5-462a-9cab-69cde5c1e141" x="117.86" y="92.481" width="36.12" height="9.03"></rect>
      <line class="uuid-d9b77669-960a-4a8b-b5f8-b6834190f8a0" x1="150.12" y1="96.354" x2="150.12" y2="96.354"></line>
      <line class="uuid-acbe7028-6ce2-412d-a363-17633ef890ff" x1="122.284" y1="97.641" x2="127.702" y2="97.641"></line>
    </g>
  </g>
  <g>
    <g>
      <line class="uuid-acbe7028-6ce2-412d-a363-17633ef890ff" x1="235.403" y1="105.465" x2="235.403" y2="105.465"></line>
      <line class="uuid-0ea85ecf-2ae2-44b9-989a-558097093e92" x1="231.403" y1="105.465" x2="193.402" y2="105.465"></line>
      <line class="uuid-acbe7028-6ce2-412d-a363-17633ef890ff" x1="191.402" y1="105.465" x2="191.402" y2="105.465"></line>
      <line class="uuid-6f430189-8c1b-4ac9-ab8f-aa1f50a7a549" x1="191.402" y1="101.238" x2="191.402" y2="90.668"></line>
      <line class="uuid-acbe7028-6ce2-412d-a363-17633ef890ff" x1="191.402" y1="88.554" x2="191.402" y2="88.554"></line>
      <line class="uuid-0ea85ecf-2ae2-44b9-989a-558097093e92" x1="195.402" y1="88.554" x2="233.403" y2="88.554"></line>
      <line class="uuid-acbe7028-6ce2-412d-a363-17633ef890ff" x1="235.403" y1="88.554" x2="235.403" y2="88.554"></line>
      <line class="uuid-6f430189-8c1b-4ac9-ab8f-aa1f50a7a549" x1="235.403" y1="92.782" x2="235.403" y2="103.352"></line>
    </g>
    <g>
      <rect class="uuid-8c1a0939-17e5-462a-9cab-69cde5c1e141" x="195.298" y="92.481" width="36.12" height="9.03"></rect>
      <line class="uuid-d9b77669-960a-4a8b-b5f8-b6834190f8a0" x1="227.557" y1="96.354" x2="227.557" y2="96.354"></line>
      <line class="uuid-acbe7028-6ce2-412d-a363-17633ef890ff" x1="199.721" y1="97.641" x2="205.139" y2="97.641"></line>
    </g>
  </g>
  <rect class="uuid-3faf4503-d8ec-4b0e-8173-8573a6f64f08" x="298.628" y="26.399" width="244.634" height="156.437"></rect>
  <rect class="uuid-4595af59-3c7d-4923-b55b-0043c7c51f2e" x="307.468" y="58.318" width="226.954" height="64.563"></rect>
  <g>
    <path class="uuid-8fcd2a45-9b4a-497f-ae91-73c9cf0c0e05" d="M308.499,38.458h1.892v7.701h-1.892v-7.701Z"></path>
    <path class="uuid-8fcd2a45-9b4a-497f-ae91-73c9cf0c0e05" d="M311.832,40.483h1.783v.924c.44-.66,1.056-1.012,1.793-1.012,1.1,0,1.881.803,1.881,1.936v3.829h-1.782v-3.312c0-.638-.374-1.056-.946-1.056-.385,0-.693.154-.946.473v3.895h-1.783v-5.677Z"></path>
    <path class="uuid-8fcd2a45-9b4a-497f-ae91-73c9cf0c0e05" d="M319.301,41.858h-1.177v-1.375h1.177v-.748c0-1.354.803-2.09,2.266-2.09.308,0,.715.044.946.11v1.463c-.319-.055-.484-.066-.682-.066-.506,0-.748.198-.748.616v.715h1.43v1.375h-1.43v4.302h-1.782v-4.302Z"></path>
    <path class="uuid-8fcd2a45-9b4a-497f-ae91-73c9cf0c0e05" d="M323.525,40.483h1.783v1.287c.363-.946.869-1.397,1.54-1.397.253.011.374.033.594.143v1.529c-.22-.11-.528-.176-.836-.176-.528,0-1.012.275-1.298.704v3.586h-1.783v-5.677Z"></path>
    <path class="uuid-8fcd2a45-9b4a-497f-ae91-73c9cf0c0e05" d="M328.013,44.531c0-1.045.814-1.65,2.211-1.65.407,0,.814.077,1.32.264v-.462c0-.55-.363-.825-1.122-.825-.429,0-.935.121-1.595.396l-.616-1.243c.935-.418,1.771-.616,2.607-.616,1.573,0,2.486.781,2.486,2.134v3.63h-1.76v-.495c-.495.418-.968.583-1.573.583-1.155,0-1.958-.704-1.958-1.716ZM330.521,45.07c.374,0,.715-.099,1.023-.286v-.726c-.33-.077-.649-.121-.979-.121-.583,0-.913.198-.913.561s.319.572.869.572Z"></path>
    <path class="uuid-8fcd2a45-9b4a-497f-ae91-73c9cf0c0e05" d="M334.184,45.577l.781-1.188c.814.429,1.276.572,1.826.572.506,0,.814-.176.814-.462,0-.22-.165-.341-.528-.407l-1.089-.198c-1.1-.209-1.672-.771-1.672-1.65,0-1.155.891-1.848,2.376-1.848.792,0,1.573.22,2.311.649l-.814,1.133c-.572-.33-1.101-.484-1.628-.484-.429,0-.682.143-.682.385,0,.231.143.33.583.407l1.067.198c1.122.209,1.705.781,1.705,1.639,0,1.111-1.045,1.947-2.442,1.947-1.034,0-1.947-.242-2.607-.693Z"></path>
    <path class="uuid-8fcd2a45-9b4a-497f-ae91-73c9cf0c0e05" d="M340.905,44.443v-2.585h-1.101v-1.375h1.101v-1.573l1.782-.363v1.937h1.518v1.375h-1.518v2.233c0,.506.198.682.748.682.209,0,.374-.022.726-.121v1.441c-.33.099-.858.176-1.221.176-1.342,0-2.035-.616-2.035-1.826Z"></path>
    <path class="uuid-8fcd2a45-9b4a-497f-ae91-73c9cf0c0e05" d="M345.194,40.483h1.783v1.287c.363-.946.869-1.397,1.54-1.397.253.011.374.033.594.143v1.529c-.22-.11-.528-.176-.836-.176-.528,0-1.012.275-1.298.704v3.586h-1.783v-5.677Z"></path>
    <path class="uuid-8fcd2a45-9b4a-497f-ae91-73c9cf0c0e05" d="M350.012,44.312v-3.829h1.782v3.312c0,.638.374,1.056.946,1.056.385,0,.693-.154.946-.473v-3.895h1.782v5.677h-1.782v-.924c-.44.66-1.056,1.012-1.793,1.012-1.1,0-1.881-.803-1.881-1.936Z"></path>
    <path class="uuid-8fcd2a45-9b4a-497f-ae91-73c9cf0c0e05" d="M356.601,43.332c0-1.661,1.276-2.937,2.938-2.937.935,0,1.793.374,2.365,1.045l-1.089,1.089c-.363-.429-.726-.616-1.21-.616-.704,0-1.232.605-1.232,1.419s.528,1.419,1.232,1.419c.484,0,.847-.187,1.21-.616l1.089,1.089c-.572.671-1.43,1.045-2.365,1.045-1.661,0-2.938-1.276-2.938-2.938Z"></path>
    <path class="uuid-8fcd2a45-9b4a-497f-ae91-73c9cf0c0e05" d="M363.642,44.443v-2.585h-1.101v-1.375h1.101v-1.573l1.782-.363v1.937h1.518v1.375h-1.518v2.233c0,.506.198.682.748.682.209,0,.374-.022.726-.121v1.441c-.33.099-.858.176-1.221.176-1.342,0-2.035-.616-2.035-1.826Z"></path>
    <path class="uuid-8fcd2a45-9b4a-497f-ae91-73c9cf0c0e05" d="M367.887,44.312v-3.829h1.782v3.312c0,.638.374,1.056.946,1.056.385,0,.693-.154.946-.473v-3.895h1.782v5.677h-1.782v-.924c-.44.66-1.056,1.012-1.793,1.012-1.1,0-1.881-.803-1.881-1.936Z"></path>
    <path class="uuid-8fcd2a45-9b4a-497f-ae91-73c9cf0c0e05" d="M374.729,40.483h1.783v1.287c.363-.946.869-1.397,1.54-1.397.253.011.374.033.594.143v1.529c-.22-.11-.528-.176-.836-.176-.528,0-1.012.275-1.298.704v3.586h-1.783v-5.677Z"></path>
    <path class="uuid-8fcd2a45-9b4a-497f-ae91-73c9cf0c0e05" d="M379.173,43.332c0-1.661,1.232-2.937,2.86-2.937,1.64,0,2.794,1.243,2.794,3.003v.385h-3.905c.165.638.682,1.067,1.331,1.067.473,0,.869-.165,1.122-.473l1.177.979c-.737.649-1.43.913-2.387.913-1.672,0-2.993-1.287-2.993-2.938ZM383.178,42.771c-.154-.605-.583-.99-1.155-.99-.561,0-.957.363-1.1.99h2.255Z"></path>
    <path class="uuid-8fcd2a45-9b4a-497f-ae91-73c9cf0c0e05" d="M388.303,40.483h1.76v.792c.375-.506,1.001-.825,1.684-.825,1.397,0,2.508,1.287,2.508,2.882s-1.166,2.861-2.641,2.861c-.616,0-1.155-.231-1.529-.66v2.926h-1.783v-7.976ZM392.505,43.321c0-.803-.583-1.397-1.353-1.397-.44,0-.781.154-1.067.462v1.892c.275.286.649.451,1.067.451.781,0,1.353-.594,1.353-1.408Z"></path>
    <path class="uuid-8fcd2a45-9b4a-497f-ae91-73c9cf0c0e05" d="M395.387,38.327l1.783-.275v8.108h-1.783v-7.833Z"></path>
    <path class="uuid-8fcd2a45-9b4a-497f-ae91-73c9cf0c0e05" d="M398.291,44.531c0-1.045.814-1.65,2.211-1.65.407,0,.814.077,1.32.264v-.462c0-.55-.363-.825-1.122-.825-.429,0-.935.121-1.595.396l-.616-1.243c.935-.418,1.771-.616,2.607-.616,1.573,0,2.486.781,2.486,2.134v3.63h-1.76v-.495c-.495.418-.968.583-1.573.583-1.155,0-1.958-.704-1.958-1.716ZM400.799,45.07c.374,0,.715-.099,1.023-.286v-.726c-.33-.077-.649-.121-.979-.121-.583,0-.913.198-.913.561s.319.572.869.572Z"></path>
    <path class="uuid-8fcd2a45-9b4a-497f-ae91-73c9cf0c0e05" d="M404.923,40.483h1.783v.924c.44-.66,1.056-1.012,1.793-1.012,1.1,0,1.881.803,1.881,1.936v3.829h-1.782v-3.312c0-.638-.374-1.056-.946-1.056-.385,0-.693.154-.946.473v3.895h-1.783v-5.677Z"></path>
    <path class="uuid-8fcd2a45-9b4a-497f-ae91-73c9cf0c0e05" d="M411.468,43.332c0-1.661,1.232-2.937,2.86-2.937,1.64,0,2.794,1.243,2.794,3.003v.385h-3.905c.165.638.682,1.067,1.331,1.067.473,0,.869-.165,1.122-.473l1.177.979c-.737.649-1.43.913-2.387.913-1.672,0-2.993-1.287-2.993-2.938ZM415.473,42.771c-.154-.605-.583-.99-1.155-.99-.561,0-.957.363-1.1.99h2.255Z"></path>
  </g>
  <g>
    <path class="uuid-8fcd2a45-9b4a-497f-ae91-73c9cf0c0e05" d="M322.493,67.156h1.719v6.996h-1.719v-6.996Z"></path>
    <path class="uuid-8fcd2a45-9b4a-497f-ae91-73c9cf0c0e05" d="M325.523,68.995h1.619v.84c.4-.6.959-.92,1.629-.92,1,0,1.709.73,1.709,1.759v3.478h-1.619v-3.008c0-.58-.34-.959-.859-.959-.35,0-.63.14-.86.43v3.538h-1.619v-5.157Z"></path>
    <path class="uuid-8fcd2a45-9b4a-497f-ae91-73c9cf0c0e05" d="M332.312,70.244h-1.069v-1.25h1.069v-.68c0-1.229.729-1.899,2.059-1.899.28,0,.649.04.859.1v1.329c-.29-.05-.44-.06-.62-.06-.46,0-.68.18-.68.56v.649h1.299v1.25h-1.299v3.908h-1.619v-3.908Z"></path>
    <path class="uuid-8fcd2a45-9b4a-497f-ae91-73c9cf0c0e05" d="M336.153,68.995h1.619v1.169c.33-.859.79-1.27,1.399-1.27.23.01.34.03.54.13v1.389c-.2-.1-.479-.16-.759-.16-.48,0-.919.25-1.18.64v3.258h-1.619v-5.157Z"></path>
    <path class="uuid-8fcd2a45-9b4a-497f-ae91-73c9cf0c0e05" d="M340.233,72.673c0-.95.74-1.5,2.009-1.5.37,0,.739.07,1.199.24v-.42c0-.5-.33-.75-1.02-.75-.39,0-.85.11-1.449.36l-.56-1.129c.85-.38,1.609-.56,2.369-.56,1.429,0,2.259.71,2.259,1.939v3.298h-1.599v-.45c-.45.38-.88.53-1.429.53-1.049,0-1.779-.64-1.779-1.559ZM342.512,73.163c.34,0,.65-.09.93-.26v-.66c-.3-.07-.59-.11-.89-.11-.53,0-.83.18-.83.51s.29.52.79.52Z"></path>
    <path class="uuid-8fcd2a45-9b4a-497f-ae91-73c9cf0c0e05" d="M345.843,73.622l.709-1.079c.74.39,1.159.52,1.659.52.46,0,.74-.16.74-.42,0-.2-.15-.31-.48-.37l-.989-.18c-1-.189-1.52-.699-1.52-1.499,0-1.049.81-1.679,2.159-1.679.719,0,1.429.2,2.099.59l-.74,1.029c-.52-.3-.999-.439-1.479-.439-.39,0-.62.13-.62.35,0,.21.13.3.53.37l.969.18c1.02.19,1.549.709,1.549,1.489,0,1.009-.95,1.769-2.219,1.769-.939,0-1.769-.22-2.369-.63Z"></path>
    <path class="uuid-8fcd2a45-9b4a-497f-ae91-73c9cf0c0e05" d="M351.952,72.593v-2.349h-.999v-1.25h.999v-1.429l1.619-.33v1.759h1.379v1.25h-1.379v2.029c0,.459.18.62.68.62.19,0,.34-.02.66-.11v1.309c-.3.09-.779.16-1.109.16-1.219,0-1.849-.56-1.849-1.659Z"></path>
    <path class="uuid-8fcd2a45-9b4a-497f-ae91-73c9cf0c0e05" d="M355.853,68.995h1.619v1.169c.33-.859.79-1.27,1.399-1.27.23.01.34.03.54.13v1.389c-.2-.1-.479-.16-.759-.16-.48,0-.919.25-1.18.64v3.258h-1.619v-5.157Z"></path>
    <path class="uuid-8fcd2a45-9b4a-497f-ae91-73c9cf0c0e05" d="M360.233,72.473v-3.478h1.619v3.008c0,.58.34.959.859.959.35,0,.629-.14.859-.43v-3.538h1.619v5.157h-1.619v-.839c-.4.6-.959.919-1.629.919-1,0-1.709-.729-1.709-1.759Z"></path>
    <path class="uuid-8fcd2a45-9b4a-497f-ae91-73c9cf0c0e05" d="M366.223,71.583c0-1.509,1.159-2.669,2.668-2.669.85,0,1.629.34,2.149.95l-.99.989c-.33-.39-.66-.56-1.099-.56-.64,0-1.12.55-1.12,1.29s.48,1.289,1.12,1.289c.439,0,.77-.17,1.099-.56l.99.989c-.52.61-1.299.95-2.149.95-1.509,0-2.668-1.16-2.668-2.668Z"></path>
    <path class="uuid-8fcd2a45-9b4a-497f-ae91-73c9cf0c0e05" d="M372.622,72.593v-2.349h-.999v-1.25h.999v-1.429l1.619-.33v1.759h1.379v1.25h-1.379v2.029c0,.459.18.62.68.62.19,0,.34-.02.66-.11v1.309c-.3.09-.779.16-1.109.16-1.219,0-1.849-.56-1.849-1.659Z"></path>
    <path class="uuid-8fcd2a45-9b4a-497f-ae91-73c9cf0c0e05" d="M376.482,72.473v-3.478h1.619v3.008c0,.58.34.959.859.959.35,0,.629-.14.859-.43v-3.538h1.619v5.157h-1.619v-.839c-.4.6-.959.919-1.629.919-1,0-1.709-.729-1.709-1.759Z"></path>
    <path class="uuid-8fcd2a45-9b4a-497f-ae91-73c9cf0c0e05" d="M382.703,68.995h1.619v1.169c.33-.859.79-1.27,1.399-1.27.23.01.34.03.54.13v1.389c-.2-.1-.479-.16-.759-.16-.48,0-.919.25-1.18.64v3.258h-1.619v-5.157Z"></path>
    <path class="uuid-8fcd2a45-9b4a-497f-ae91-73c9cf0c0e05" d="M386.742,71.583c0-1.509,1.119-2.669,2.599-2.669,1.489,0,2.539,1.129,2.539,2.729v.35h-3.548c.15.58.62.969,1.209.969.43,0,.79-.15,1.02-.43l1.069.89c-.669.589-1.299.83-2.169.83-1.519,0-2.718-1.169-2.718-2.668ZM390.38,71.074c-.14-.55-.529-.9-1.049-.9-.51,0-.87.33-1,.9h2.049Z"></path>
    <path class="uuid-8fcd2a45-9b4a-497f-ae91-73c9cf0c0e05" d="M395.042,68.995h1.619v.84c.4-.6.959-.92,1.629-.92,1,0,1.709.73,1.709,1.759v3.478h-1.619v-3.008c0-.58-.34-.959-.859-.959-.35,0-.63.14-.86.43v3.538h-1.619v-5.157Z"></path>
    <path class="uuid-8fcd2a45-9b4a-497f-ae91-73c9cf0c0e05" d="M400.992,71.583c0-1.52,1.159-2.669,2.688-2.669s2.688,1.149,2.688,2.669-1.159,2.668-2.688,2.668-2.688-1.149-2.688-2.668ZM404.79,71.583c0-.77-.46-1.319-1.109-1.319s-1.109.549-1.109,1.319.459,1.319,1.109,1.319,1.109-.549,1.109-1.319Z"></path>
    <path class="uuid-8fcd2a45-9b4a-497f-ae91-73c9cf0c0e05" d="M407.172,71.563c0-1.449,1.059-2.599,2.398-2.599.54,0,1.03.22,1.379.62v-2.549l1.619-.25v7.366h-1.599v-.669c-.34.43-.91.699-1.519.699-1.27,0-2.279-1.169-2.279-2.618ZM410.95,72.433v-1.739c-.25-.26-.59-.4-.959-.4-.709,0-1.229.54-1.229,1.279,0,.729.53,1.27,1.229,1.27.39,0,.709-.14.959-.41Z"></path>
    <path class="uuid-8fcd2a45-9b4a-497f-ae91-73c9cf0c0e05" d="M413.602,71.583c0-1.509,1.119-2.669,2.599-2.669,1.489,0,2.539,1.129,2.539,2.729v.35h-3.548c.15.58.62.969,1.209.969.43,0,.79-.15,1.02-.43l1.069.89c-.669.589-1.299.83-2.169.83-1.519,0-2.718-1.169-2.718-2.668ZM417.24,71.074c-.14-.55-.529-.9-1.049-.9-.51,0-.87.33-1,.9h2.049Z"></path>
    <path class="uuid-8fcd2a45-9b4a-497f-ae91-73c9cf0c0e05" d="M419.382,73.622l.71-1.079c.739.39,1.159.52,1.658.52.46,0,.741-.16.741-.42,0-.2-.15-.31-.48-.37l-.99-.18c-.999-.189-1.519-.699-1.519-1.499,0-1.049.81-1.679,2.158-1.679.72,0,1.43.2,2.1.59l-.74,1.029c-.52-.3-1-.439-1.479-.439-.391,0-.62.13-.62.35,0,.21.13.3.529.37l.97.18c1.02.19,1.549.709,1.549,1.489,0,1.009-.949,1.769-2.219,1.769-.939,0-1.769-.22-2.368-.63Z"></path>
  </g>
  <g>
    <g>
      <line class="uuid-acbe7028-6ce2-412d-a363-17633ef890ff" x1="365.815" y1="105.465" x2="365.815" y2="105.465"></line>
      <line class="uuid-0ea85ecf-2ae2-44b9-989a-558097093e92" x1="361.815" y1="105.465" x2="323.814" y2="105.465"></line>
      <line class="uuid-acbe7028-6ce2-412d-a363-17633ef890ff" x1="321.814" y1="105.465" x2="321.814" y2="105.465"></line>
      <line class="uuid-6f430189-8c1b-4ac9-ab8f-aa1f50a7a549" x1="321.814" y1="101.238" x2="321.814" y2="90.668"></line>
      <line class="uuid-acbe7028-6ce2-412d-a363-17633ef890ff" x1="321.814" y1="88.554" x2="321.814" y2="88.554"></line>
      <line class="uuid-0ea85ecf-2ae2-44b9-989a-558097093e92" x1="325.814" y1="88.554" x2="363.815" y2="88.554"></line>
      <line class="uuid-acbe7028-6ce2-412d-a363-17633ef890ff" x1="365.815" y1="88.554" x2="365.815" y2="88.554"></line>
      <line class="uuid-6f430189-8c1b-4ac9-ab8f-aa1f50a7a549" x1="365.815" y1="92.782" x2="365.815" y2="103.352"></line>
    </g>
    <g>
      <rect class="uuid-8c1a0939-17e5-462a-9cab-69cde5c1e141" x="325.71" y="92.481" width="36.12" height="9.03"></rect>
      <line class="uuid-d9b77669-960a-4a8b-b5f8-b6834190f8a0" x1="357.969" y1="96.354" x2="357.969" y2="96.354"></line>
      <line class="uuid-acbe7028-6ce2-412d-a363-17633ef890ff" x1="330.133" y1="97.641" x2="335.551" y2="97.641"></line>
    </g>
  </g>
  <g>
    <g>
      <line class="uuid-acbe7028-6ce2-412d-a363-17633ef890ff" x1="443.253" y1="105.465" x2="443.253" y2="105.465"></line>
      <line class="uuid-0ea85ecf-2ae2-44b9-989a-558097093e92" x1="439.252" y1="105.465" x2="401.251" y2="105.465"></line>
      <line class="uuid-acbe7028-6ce2-412d-a363-17633ef890ff" x1="399.251" y1="105.465" x2="399.251" y2="105.465"></line>
      <line class="uuid-6f430189-8c1b-4ac9-ab8f-aa1f50a7a549" x1="399.251" y1="101.238" x2="399.251" y2="90.668"></line>
      <line class="uuid-acbe7028-6ce2-412d-a363-17633ef890ff" x1="399.251" y1="88.554" x2="399.251" y2="88.554"></line>
      <line class="uuid-0ea85ecf-2ae2-44b9-989a-558097093e92" x1="403.251" y1="88.554" x2="441.252" y2="88.554"></line>
      <line class="uuid-acbe7028-6ce2-412d-a363-17633ef890ff" x1="443.253" y1="88.554" x2="443.253" y2="88.554"></line>
      <line class="uuid-6f430189-8c1b-4ac9-ab8f-aa1f50a7a549" x1="443.253" y1="92.782" x2="443.253" y2="103.352"></line>
    </g>
    <g>
      <rect class="uuid-8c1a0939-17e5-462a-9cab-69cde5c1e141" x="403.147" y="92.481" width="36.12" height="9.03"></rect>
      <line class="uuid-d9b77669-960a-4a8b-b5f8-b6834190f8a0" x1="435.406" y1="96.354" x2="435.406" y2="96.354"></line>
      <line class="uuid-acbe7028-6ce2-412d-a363-17633ef890ff" x1="407.57" y1="97.641" x2="412.989" y2="97.641"></line>
    </g>
  </g>
  <g>
    <g>
      <line class="uuid-acbe7028-6ce2-412d-a363-17633ef890ff" x1="520.69" y1="105.465" x2="520.69" y2="105.465"></line>
      <line class="uuid-0ea85ecf-2ae2-44b9-989a-558097093e92" x1="516.69" y1="105.465" x2="478.689" y2="105.465"></line>
      <line class="uuid-acbe7028-6ce2-412d-a363-17633ef890ff" x1="476.689" y1="105.465" x2="476.689" y2="105.465"></line>
      <line class="uuid-6f430189-8c1b-4ac9-ab8f-aa1f50a7a549" x1="476.689" y1="101.238" x2="476.689" y2="90.668"></line>
      <line class="uuid-acbe7028-6ce2-412d-a363-17633ef890ff" x1="476.689" y1="88.554" x2="476.689" y2="88.554"></line>
      <line class="uuid-0ea85ecf-2ae2-44b9-989a-558097093e92" x1="480.689" y1="88.554" x2="518.69" y2="88.554"></line>
      <line class="uuid-acbe7028-6ce2-412d-a363-17633ef890ff" x1="520.69" y1="88.554" x2="520.69" y2="88.554"></line>
      <line class="uuid-6f430189-8c1b-4ac9-ab8f-aa1f50a7a549" x1="520.69" y1="92.782" x2="520.69" y2="103.352"></line>
    </g>
    <g>
      <rect class="uuid-8c1a0939-17e5-462a-9cab-69cde5c1e141" x="480.585" y="92.481" width="36.12" height="9.03"></rect>
      <line class="uuid-d9b77669-960a-4a8b-b5f8-b6834190f8a0" x1="512.844" y1="96.354" x2="512.844" y2="96.354"></line>
      <line class="uuid-acbe7028-6ce2-412d-a363-17633ef890ff" x1="485.008" y1="97.641" x2="490.426" y2="97.641"></line>
    </g>
  </g>
  <path class="uuid-4595af59-3c7d-4923-b55b-0043c7c51f2e" d="M533.502,160.54v12.229h-148.636v-12.229h148.636M534.502,159.54h-150.636v14.229h150.636v-14.229h0Z"></path>
  <path class="uuid-4595af59-3c7d-4923-b55b-0043c7c51f2e" d="M380.866,128.081v12.229h-72.318v-12.229h72.318M381.866,127.081h-74.318v14.229h74.318v-14.229h0Z"></path>
  <path class="uuid-4595af59-3c7d-4923-b55b-0043c7c51f2e" d="M380.866,144.311v12.229h-72.318v-12.229h72.318M381.866,143.311h-74.318v14.229h74.318v-14.229h0Z"></path>
  <path class="uuid-4595af59-3c7d-4923-b55b-0043c7c51f2e" d="M380.866,160.54v12.229h-72.318v-12.229h72.318M381.866,159.54h-74.318v14.229h74.318v-14.229h0Z"></path>
  <path class="uuid-4595af59-3c7d-4923-b55b-0043c7c51f2e" d="M533.502,128.081v12.229h-148.636v-12.229h148.636M534.502,127.081h-150.636v14.229h150.636v-14.229h0Z"></path>
  <path class="uuid-4595af59-3c7d-4923-b55b-0043c7c51f2e" d="M533.502,144.311v12.229h-148.636v-12.229h148.636M534.502,143.311h-150.636v14.229h150.636v-14.229h0Z"></path>
  <g>
    <path class="uuid-8fcd2a45-9b4a-497f-ae91-73c9cf0c0e05" d="M317.802,131.092h2.486c1.111,0,1.871.688,1.871,1.695,0,.728-.432,1.295-1.111,1.535l1.183,2.367h-1.063l-1.079-2.239h-1.328v2.239h-.959v-5.597ZM320.2,133.683c.6,0,.991-.352.991-.888,0-.543-.392-.896-.991-.896h-1.439v1.783h1.439Z"></path>
    <path class="uuid-8fcd2a45-9b4a-497f-ae91-73c9cf0c0e05" d="M322.682,134.69c0-1.183.863-2.071,2.015-2.071,1.144,0,2.007.888,2.007,2.071s-.863,2.071-2.007,2.071c-1.151,0-2.015-.887-2.015-2.071ZM325.816,134.69c0-.744-.472-1.303-1.12-1.303-.656,0-1.127.56-1.127,1.303,0,.751.472,1.303,1.127,1.303.647,0,1.12-.552,1.12-1.303Z"></path>
    <path class="uuid-8fcd2a45-9b4a-497f-ae91-73c9cf0c0e05" d="M327.61,135.322v-2.639h.912v2.375c0,.592.344.968.879.968.36,0,.664-.16.872-.48v-2.862h.903v4.006h-.903v-.647c-.304.472-.735.711-1.271.711-.815,0-1.391-.592-1.391-1.431Z"></path>
    <path class="uuid-8fcd2a45-9b4a-497f-ae91-73c9cf0c0e05" d="M332.793,135.65v-2.247h-.8v-.72h.8v-1.104l.903-.192v1.295h1.111v.72h-1.111v2.047c0,.392.152.543.56.543.176,0,.304-.024.544-.096v.76c-.232.072-.536.112-.775.112-.808,0-1.231-.384-1.231-1.12Z"></path>
    <path class="uuid-8fcd2a45-9b4a-497f-ae91-73c9cf0c0e05" d="M335.361,134.69c0-1.175.848-2.071,1.951-2.071,1.095,0,1.895.872,1.895,2.071v.216h-2.958c.088.648.575,1.12,1.199,1.12.376,0,.728-.144.951-.376l.592.536c-.488.408-.976.584-1.583.584-1.151,0-2.047-.904-2.047-2.079ZM338.352,134.347c-.096-.583-.512-.991-1.048-.991-.543,0-.943.392-1.047.991h2.095Z"></path>
    <path class="uuid-8fcd2a45-9b4a-497f-ae91-73c9cf0c0e05" d="M339.81,136.226l.424-.6c.527.328.879.456,1.287.456.479,0,.808-.224.808-.543,0-.248-.168-.376-.56-.456l-.704-.12c-.783-.144-1.159-.504-1.159-1.104,0-.751.615-1.239,1.551-1.239.56,0,1.063.16,1.575.48l-.424.6c-.407-.264-.799-.384-1.207-.384-.416,0-.688.176-.688.463,0,.256.144.368.56.44l.712.136c.799.144,1.183.512,1.183,1.111,0,.735-.703,1.303-1.639,1.303-.688,0-1.295-.192-1.719-.544Z"></path>
  </g>
  <g>
    <path class="uuid-8fcd2a45-9b4a-497f-ae91-73c9cf0c0e05" d="M317.802,147.322h2.486c1.111,0,1.871.688,1.871,1.695,0,.728-.432,1.295-1.111,1.535l1.183,2.367h-1.063l-1.079-2.239h-1.328v2.239h-.959v-5.597ZM320.2,149.913c.6,0,.991-.352.991-.888,0-.543-.392-.896-.991-.896h-1.439v1.783h1.439Z"></path>
    <path class="uuid-8fcd2a45-9b4a-497f-ae91-73c9cf0c0e05" d="M322.682,150.92c0-1.175.847-2.071,1.951-2.071,1.095,0,1.895.872,1.895,2.071v.216h-2.958c.088.648.576,1.12,1.2,1.12.375,0,.728-.144.951-.376l.592.536c-.488.408-.976.584-1.583.584-1.151,0-2.047-.904-2.047-2.079ZM325.672,150.576c-.096-.583-.512-.991-1.047-.991-.544,0-.944.392-1.047.991h2.095Z"></path>
    <path class="uuid-8fcd2a45-9b4a-497f-ae91-73c9cf0c0e05" d="M327.729,154.278l.312-.664c.472.231.855.335,1.256.335.671,0,1.023-.304,1.023-.887v-.68c-.288.352-.728.56-1.231.56-1.016,0-1.807-.903-1.807-2.039s.823-2.022,1.871-2.022c.464,0,.88.184,1.176.536v-.504h.896v4.15c0,1.031-.672,1.607-1.887,1.607-.576,0-1.136-.144-1.607-.392ZM330.32,151.751v-1.679c-.232-.272-.576-.432-.952-.432-.688,0-1.199.536-1.199,1.271,0,.728.512,1.279,1.199,1.279.392,0,.72-.16.952-.44Z"></path>
    <path class="uuid-8fcd2a45-9b4a-497f-ae91-73c9cf0c0e05" d="M332.226,147.546c0-.304.248-.56.561-.56.304,0,.56.256.56.56s-.256.552-.56.552c-.312,0-.561-.248-.561-.552ZM332.33,148.913h.903v4.006h-.903v-4.006Z"></path>
    <path class="uuid-8fcd2a45-9b4a-497f-ae91-73c9cf0c0e05" d="M333.994,152.455l.424-.6c.527.328.879.456,1.287.456.479,0,.808-.224.808-.543,0-.248-.168-.376-.56-.456l-.704-.12c-.783-.144-1.159-.504-1.159-1.104,0-.751.615-1.239,1.551-1.239.56,0,1.063.16,1.575.48l-.424.6c-.407-.264-.799-.384-1.207-.384-.416,0-.688.176-.688.463,0,.256.144.368.56.44l.712.136c.799.144,1.183.512,1.183,1.111,0,.735-.703,1.303-1.639,1.303-.688,0-1.295-.192-1.719-.544Z"></path>
    <path class="uuid-8fcd2a45-9b4a-497f-ae91-73c9cf0c0e05" d="M338.602,151.879v-2.247h-.8v-.72h.8v-1.104l.903-.192v1.295h1.111v.72h-1.111v2.047c0,.392.152.543.56.543.176,0,.304-.024.544-.096v.76c-.232.072-.536.112-.775.112-.808,0-1.231-.384-1.231-1.12Z"></path>
    <path class="uuid-8fcd2a45-9b4a-497f-ae91-73c9cf0c0e05" d="M341.417,148.913h.903v.864c.225-.608.608-.936,1.104-.936.152.008.256.024.392.08v.792c-.144-.056-.327-.096-.495-.096-.44,0-.8.248-1,.664v2.639h-.903v-4.006Z"></path>
    <path class="uuid-8fcd2a45-9b4a-497f-ae91-73c9cf0c0e05" d="M344.48,154.614v-.783c.104.024.232.032.353.032.319,0,.512-.144.647-.456l.184-.448-1.511-4.046h.999l1.023,2.966,1.111-2.966h.991l-1.919,4.702c-.312.775-.679,1.055-1.431,1.055-.128,0-.288-.016-.448-.056Z"></path>
  </g>
  <g>
    <path class="uuid-8fcd2a45-9b4a-497f-ae91-73c9cf0c0e05" d="M392.482,131.092h.959v4.766h2.982v.832h-3.941v-5.597Z"></path>
    <path class="uuid-8fcd2a45-9b4a-497f-ae91-73c9cf0c0e05" d="M397.034,134.69c0-1.183.863-2.071,2.015-2.071,1.144,0,2.007.888,2.007,2.071s-.863,2.071-2.007,2.071c-1.151,0-2.015-.887-2.015-2.071ZM400.167,134.69c0-.744-.472-1.303-1.119-1.303-.655,0-1.127.56-1.127,1.303,0,.751.472,1.303,1.127,1.303.647,0,1.119-.552,1.119-1.303Z"></path>
    <path class="uuid-8fcd2a45-9b4a-497f-ae91-73c9cf0c0e05" d="M402.257,138.049l.312-.664c.472.231.855.335,1.255.335.672,0,1.023-.304,1.023-.887v-.68c-.288.352-.728.56-1.231.56-1.016,0-1.807-.903-1.807-2.039s.823-2.022,1.871-2.022c.464,0,.879.184,1.175.536v-.504h.896v4.15c0,1.031-.671,1.607-1.887,1.607-.575,0-1.136-.144-1.607-.392ZM404.848,135.522v-1.679c-.231-.272-.575-.432-.951-.432-.688,0-1.199.536-1.199,1.271,0,.728.512,1.279,1.199,1.279.392,0,.72-.16.951-.44Z"></path>
    <path class="uuid-8fcd2a45-9b4a-497f-ae91-73c9cf0c0e05" d="M407.129,138.049l.312-.664c.472.231.855.335,1.255.335.672,0,1.023-.304,1.023-.887v-.68c-.288.352-.728.56-1.231.56-1.016,0-1.807-.903-1.807-2.039s.823-2.022,1.871-2.022c.464,0,.879.184,1.175.536v-.504h.896v4.15c0,1.031-.672,1.607-1.887,1.607-.576,0-1.136-.144-1.607-.392ZM409.72,135.522v-1.679c-.231-.272-.575-.432-.951-.432-.688,0-1.199.536-1.199,1.271,0,.728.512,1.279,1.199,1.279.392,0,.72-.16.951-.44Z"></path>
    <path class="uuid-8fcd2a45-9b4a-497f-ae91-73c9cf0c0e05" d="M411.625,131.316c0-.304.248-.56.561-.56.304,0,.56.256.56.56s-.256.552-.56.552c-.312,0-.561-.248-.561-.552ZM411.73,132.684h.903v4.006h-.903v-4.006Z"></path>
    <path class="uuid-8fcd2a45-9b4a-497f-ae91-73c9cf0c0e05" d="M413.753,132.684h.903v.656c.304-.472.744-.72,1.264-.72.823,0,1.399.584,1.399,1.431v2.639h-.912v-2.383c0-.583-.344-.959-.879-.959-.368,0-.664.168-.872.488v2.854h-.903v-4.006Z"></path>
    <path class="uuid-8fcd2a45-9b4a-497f-ae91-73c9cf0c0e05" d="M418.673,138.049l.312-.664c.472.231.855.335,1.255.335.672,0,1.023-.304,1.023-.887v-.68c-.288.352-.728.56-1.231.56-1.016,0-1.807-.903-1.807-2.039s.823-2.022,1.871-2.022c.464,0,.879.184,1.175.536v-.504h.896v4.15c0,1.031-.671,1.607-1.887,1.607-.575,0-1.136-.144-1.607-.392ZM421.264,135.522v-1.679c-.231-.272-.575-.432-.951-.432-.688,0-1.199.536-1.199,1.271,0,.728.512,1.279,1.199,1.279.392,0,.72-.16.951-.44Z"></path>
  </g>
  <g>
    <path class="uuid-8fcd2a45-9b4a-497f-ae91-73c9cf0c0e05" d="M392.482,147.322h1.247l1.639,3.398,1.632-3.398h1.247v5.597h-.903v-4.381l-1.983,3.981-1.99-4.006v4.406h-.888v-5.597Z"></path>
    <path class="uuid-8fcd2a45-9b4a-497f-ae91-73c9cf0c0e05" d="M399.298,150.92c0-1.183.863-2.071,2.015-2.071,1.144,0,2.007.888,2.007,2.071s-.863,2.071-2.007,2.071c-1.151,0-2.015-.887-2.015-2.071ZM402.432,150.92c0-.744-.472-1.303-1.119-1.303-.655,0-1.127.56-1.127,1.303,0,.751.472,1.303,1.127,1.303.647,0,1.119-.552,1.119-1.303Z"></path>
    <path class="uuid-8fcd2a45-9b4a-497f-ae91-73c9cf0c0e05" d="M404.257,148.913h.903v.656c.304-.472.744-.72,1.264-.72.823,0,1.399.584,1.399,1.431v2.639h-.912v-2.383c0-.583-.344-.959-.879-.959-.368,0-.664.168-.872.488v2.854h-.903v-4.006Z"></path>
    <path class="uuid-8fcd2a45-9b4a-497f-ae91-73c9cf0c0e05" d="M408.801,147.546c0-.304.248-.56.561-.56.304,0,.56.256.56.56s-.256.552-.56.552c-.312,0-.561-.248-.561-.552ZM408.906,148.913h.903v4.006h-.903v-4.006Z"></path>
    <path class="uuid-8fcd2a45-9b4a-497f-ae91-73c9cf0c0e05" d="M411.425,151.879v-2.247h-.8v-.72h.8v-1.104l.903-.192v1.295h1.111v.72h-1.111v2.047c0,.392.152.543.56.543.176,0,.304-.024.544-.096v.76c-.232.072-.536.112-.775.112-.808,0-1.231-.384-1.231-1.12Z"></path>
    <path class="uuid-8fcd2a45-9b4a-497f-ae91-73c9cf0c0e05" d="M413.994,150.92c0-1.183.863-2.071,2.015-2.071,1.144,0,2.007.888,2.007,2.071s-.863,2.071-2.007,2.071c-1.151,0-2.015-.887-2.015-2.071ZM417.127,150.92c0-.744-.472-1.303-1.119-1.303-.655,0-1.127.56-1.127,1.303,0,.751.472,1.303,1.127,1.303.647,0,1.119-.552,1.119-1.303Z"></path>
    <path class="uuid-8fcd2a45-9b4a-497f-ae91-73c9cf0c0e05" d="M418.953,148.913h.903v.864c.225-.608.608-.936,1.104-.936.152.008.256.024.392.08v.792c-.144-.056-.327-.096-.495-.096-.44,0-.8.248-1,.664v2.639h-.903v-4.006Z"></path>
    <path class="uuid-8fcd2a45-9b4a-497f-ae91-73c9cf0c0e05" d="M421.985,147.546c0-.304.248-.56.561-.56.304,0,.56.256.56.56s-.256.552-.56.552c-.312,0-.561-.248-.561-.552ZM422.089,148.913h.903v4.006h-.903v-4.006Z"></path>
    <path class="uuid-8fcd2a45-9b4a-497f-ae91-73c9cf0c0e05" d="M424.113,148.913h.903v.656c.304-.472.744-.72,1.264-.72.823,0,1.399.584,1.399,1.431v2.639h-.912v-2.383c0-.583-.344-.959-.879-.959-.368,0-.664.168-.872.488v2.854h-.903v-4.006Z"></path>
    <path class="uuid-8fcd2a45-9b4a-497f-ae91-73c9cf0c0e05" d="M429.033,154.278l.312-.664c.472.231.855.335,1.255.335.672,0,1.023-.304,1.023-.887v-.68c-.288.352-.728.56-1.231.56-1.016,0-1.807-.903-1.807-2.039s.823-2.022,1.871-2.022c.464,0,.879.184,1.175.536v-.504h.896v4.15c0,1.031-.671,1.607-1.887,1.607-.575,0-1.136-.144-1.607-.392ZM431.624,151.751v-1.679c-.231-.272-.575-.432-.951-.432-.688,0-1.199.536-1.199,1.271,0,.728.512,1.279,1.199,1.279.392,0,.72-.16.951-.44Z"></path>
  </g>
  <g>
    <path class="uuid-8fcd2a45-9b4a-497f-ae91-73c9cf0c0e05" d="M392.226,166.35c0-1.615,1.247-2.887,2.83-2.887s2.831,1.271,2.831,2.887-1.248,2.886-2.831,2.886-2.83-1.271-2.83-2.886ZM396.903,166.35c0-1.151-.799-2.023-1.847-2.023s-1.854.872-1.854,2.023.808,2.023,1.854,2.023,1.847-.872,1.847-2.023Z"></path>
    <path class="uuid-8fcd2a45-9b4a-497f-ae91-73c9cf0c0e05" d="M398.866,165.143h.888v.568c.288-.376.735-.6,1.247-.6,1.016,0,1.808.903,1.808,2.039,0,1.144-.816,2.039-1.863,2.039-.472,0-.888-.176-1.176-.512v2.143h-.903v-5.677ZM401.92,167.149c0-.728-.512-1.279-1.191-1.279-.4,0-.728.16-.96.448v1.671c.232.28.576.448.96.448.688,0,1.191-.552,1.191-1.288Z"></path>
    <path class="uuid-8fcd2a45-9b4a-497f-ae91-73c9cf0c0e05" d="M403.57,167.149c0-1.175.848-2.071,1.951-2.071,1.095,0,1.895.872,1.895,2.071v.216h-2.958c.088.648.575,1.12,1.199,1.12.376,0,.728-.144.951-.376l.592.536c-.488.408-.976.584-1.583.584-1.151,0-2.047-.904-2.047-2.079ZM406.56,166.806c-.096-.583-.512-.991-1.048-.991-.543,0-.943.392-1.047.991h2.095Z"></path>
    <path class="uuid-8fcd2a45-9b4a-497f-ae91-73c9cf0c0e05" d="M408.337,165.143h.903v.656c.304-.472.744-.72,1.264-.72.823,0,1.399.584,1.399,1.431v2.639h-.912v-2.383c0-.583-.344-.959-.879-.959-.368,0-.664.168-.872.488v2.854h-.903v-4.006Z"></path>
    <path class="uuid-8fcd2a45-9b4a-497f-ae91-73c9cf0c0e05" d="M412.625,168.333l.521-.704c.72.592,1.239.815,1.887.815.735,0,1.247-.376,1.247-.896,0-.456-.271-.672-1.016-.8l-1.031-.176c-.967-.176-1.439-.655-1.439-1.423,0-1.016.808-1.688,2.063-1.688.839,0,1.606.248,2.247.72l-.488.72c-.56-.424-1.159-.647-1.791-.647-.672,0-1.119.344-1.119.799,0,.408.256.616.863.711l1,.168c1.127.2,1.654.696,1.654,1.543,0,1.031-.911,1.759-2.246,1.759-.88,0-1.64-.304-2.352-.903Z"></path>
    <path class="uuid-8fcd2a45-9b4a-497f-ae91-73c9cf0c0e05" d="M418.089,163.416l.903-.16v2.542c.304-.472.744-.72,1.264-.72.823,0,1.399.584,1.399,1.431v2.639h-.912v-2.383c0-.583-.344-.959-.879-.959-.368,0-.664.168-.872.488v2.854h-.903v-5.733Z"></path>
    <path class="uuid-8fcd2a45-9b4a-497f-ae91-73c9cf0c0e05" d="M422.633,163.775c0-.304.248-.56.561-.56.304,0,.56.256.56.56s-.256.552-.56.552c-.312,0-.561-.248-.561-.552ZM422.738,165.143h.903v4.006h-.903v-4.006Z"></path>
    <path class="uuid-8fcd2a45-9b4a-497f-ae91-73c9cf0c0e05" d="M425.305,165.862h-.863v-.72h.863v-.688c0-.872.487-1.343,1.383-1.343.225,0,.448.024.6.072v.768c-.199-.04-.319-.056-.479-.056-.416,0-.6.184-.6.576v.671h1.079v.72h-1.079v3.286h-.903v-3.286Z"></path>
    <path class="uuid-8fcd2a45-9b4a-497f-ae91-73c9cf0c0e05" d="M428.585,168.109v-2.247h-.8v-.72h.8v-1.104l.903-.192v1.295h1.111v.72h-1.111v2.047c0,.392.152.543.56.543.176,0,.304-.024.544-.096v.76c-.232.072-.536.112-.775.112-.808,0-1.231-.384-1.231-1.12Z"></path>
    <path class="uuid-8fcd2a45-9b4a-497f-ae91-73c9cf0c0e05" d="M433.313,163.551h2.047c1.606,0,2.807,1.224,2.807,2.799s-1.2,2.798-2.807,2.798h-2.047v-5.597ZM435.383,168.317c1.008,0,1.799-.855,1.799-1.967s-.791-1.967-1.799-1.967h-1.111v3.934h1.111Z"></path>
    <path class="uuid-8fcd2a45-9b4a-497f-ae91-73c9cf0c0e05" d="M438.849,167.997c0-.72.592-1.175,1.535-1.175.376,0,.728.08,1.08.256v-.448c0-.528-.305-.8-.92-.8-.336,0-.704.096-1.167.312l-.32-.656c.6-.272,1.128-.408,1.663-.408,1.048,0,1.64.528,1.64,1.455v2.615h-.896v-.416c-.345.335-.728.487-1.191.487-.84,0-1.424-.503-1.424-1.223ZM440.52,168.581c.36,0,.672-.104.944-.335v-.648c-.288-.136-.576-.192-.92-.192-.52,0-.848.216-.848.576,0,.368.32.6.823.6Z"></path>
    <path class="uuid-8fcd2a45-9b4a-497f-ae91-73c9cf0c0e05" d="M443.832,168.109v-2.247h-.8v-.72h.8v-1.104l.903-.192v1.295h1.111v.72h-1.111v2.047c0,.392.151.543.56.543.176,0,.304-.024.544-.096v.76c-.232.072-.536.112-.775.112-.808,0-1.231-.384-1.231-1.12Z"></path>
    <path class="uuid-8fcd2a45-9b4a-497f-ae91-73c9cf0c0e05" d="M446.441,167.997c0-.72.592-1.175,1.535-1.175.376,0,.728.08,1.08.256v-.448c0-.528-.305-.8-.92-.8-.336,0-.704.096-1.167.312l-.32-.656c.6-.272,1.128-.408,1.663-.408,1.048,0,1.64.528,1.64,1.455v2.615h-.896v-.416c-.345.335-.728.487-1.191.487-.84,0-1.424-.503-1.424-1.223ZM448.112,168.581c.36,0,.672-.104.944-.335v-.648c-.288-.136-.576-.192-.92-.192-.52,0-.848.216-.848.576,0,.368.32.6.823.6Z"></path>
    <path class="uuid-8fcd2a45-9b4a-497f-ae91-73c9cf0c0e05" d="M452.96,163.551h4.021v.816h-3.062v1.599h2.111v.799h-2.111v2.383h-.959v-5.597Z"></path>
    <path class="uuid-8fcd2a45-9b4a-497f-ae91-73c9cf0c0e05" d="M457.017,167.149c0-1.183.863-2.071,2.015-2.071,1.144,0,2.007.888,2.007,2.071s-.863,2.071-2.007,2.071c-1.151,0-2.015-.887-2.015-2.071ZM460.151,167.149c0-.744-.472-1.303-1.119-1.303-.655,0-1.127.56-1.127,1.303,0,.751.472,1.303,1.127,1.303.647,0,1.119-.552,1.119-1.303Z"></path>
    <path class="uuid-8fcd2a45-9b4a-497f-ae91-73c9cf0c0e05" d="M461.944,167.781v-2.639h.912v2.375c0,.592.344.968.879.968.36,0,.664-.16.872-.48v-2.862h.903v4.006h-.903v-.647c-.304.472-.735.711-1.271.711-.815,0-1.392-.592-1.392-1.431Z"></path>
    <path class="uuid-8fcd2a45-9b4a-497f-ae91-73c9cf0c0e05" d="M466.632,165.143h.903v.656c.304-.472.744-.72,1.264-.72.823,0,1.399.584,1.399,1.431v2.639h-.912v-2.383c0-.583-.344-.959-.879-.959-.368,0-.664.168-.872.488v2.854h-.903v-4.006Z"></path>
    <path class="uuid-8fcd2a45-9b4a-497f-ae91-73c9cf0c0e05" d="M471.105,167.149c0-1.143.823-2.039,1.871-2.039.455,0,.871.184,1.167.52v-2.215l.903-.16v5.893h-.896v-.528c-.287.36-.735.568-1.239.568-1.016,0-1.807-.904-1.807-2.039ZM474.143,167.989v-1.687c-.231-.272-.575-.432-.951-.432-.688,0-1.199.544-1.199,1.279,0,.728.512,1.279,1.199,1.279.392,0,.72-.152.951-.439Z"></path>
    <path class="uuid-8fcd2a45-9b4a-497f-ae91-73c9cf0c0e05" d="M475.959,167.997c0-.72.592-1.175,1.535-1.175.376,0,.728.08,1.08.256v-.448c0-.528-.305-.8-.92-.8-.336,0-.703.096-1.167.312l-.32-.656c.6-.272,1.128-.408,1.663-.408,1.048,0,1.64.528,1.64,1.455v2.615h-.896v-.416c-.344.335-.729.487-1.191.487-.84,0-1.424-.503-1.424-1.223ZM477.63,168.581c.36,0,.672-.104.944-.335v-.648c-.288-.136-.576-.192-.92-.192-.52,0-.848.216-.848.576,0,.368.32.6.823.6Z"></path>
    <path class="uuid-8fcd2a45-9b4a-497f-ae91-73c9cf0c0e05" d="M480.944,168.109v-2.247h-.8v-.72h.8v-1.104l.903-.192v1.295h1.111v.72h-1.111v2.047c0,.392.151.543.56.543.176,0,.304-.024.544-.096v.76c-.232.072-.536.112-.775.112-.808,0-1.231-.384-1.231-1.12Z"></path>
    <path class="uuid-8fcd2a45-9b4a-497f-ae91-73c9cf0c0e05" d="M483.647,163.775c0-.304.248-.56.561-.56.304,0,.56.256.56.56s-.256.552-.56.552c-.312,0-.561-.248-.561-.552ZM483.751,165.143h.903v4.006h-.903v-4.006Z"></path>
    <path class="uuid-8fcd2a45-9b4a-497f-ae91-73c9cf0c0e05" d="M485.592,167.149c0-1.183.863-2.071,2.015-2.071,1.144,0,2.007.888,2.007,2.071s-.863,2.071-2.007,2.071c-1.151,0-2.015-.887-2.015-2.071ZM488.726,167.149c0-.744-.472-1.303-1.119-1.303-.655,0-1.127.56-1.127,1.303,0,.751.472,1.303,1.127,1.303.647,0,1.119-.552,1.119-1.303Z"></path>
    <path class="uuid-8fcd2a45-9b4a-497f-ae91-73c9cf0c0e05" d="M490.551,165.143h.903v.656c.304-.472.744-.72,1.264-.72.823,0,1.399.584,1.399,1.431v2.639h-.912v-2.383c0-.583-.344-.959-.879-.959-.368,0-.664.168-.872.488v2.854h-.903v-4.006Z"></path>
  </g>
  <g>
    <path class="uuid-8fcd2a45-9b4a-497f-ae91-73c9cf0c0e05" d="M317.802,163.552h1.247l1.639,3.398,1.631-3.398h1.248v5.597h-.903v-4.382l-1.983,3.982-1.991-4.006v4.406h-.887v-5.597Z"></path>
    <path class="uuid-8fcd2a45-9b4a-497f-ae91-73c9cf0c0e05" d="M324.618,167.149c0-1.175.847-2.071,1.951-2.071,1.096,0,1.896.872,1.896,2.071v.216h-2.959c.088.648.576,1.12,1.199,1.12.376,0,.728-.144.952-.376l.591.536c-.487.408-.975.584-1.583.584-1.151,0-2.047-.904-2.047-2.079ZM327.608,166.806c-.096-.583-.512-.991-1.047-.991-.544,0-.943.392-1.047.991h2.095Z"></path>
    <path class="uuid-8fcd2a45-9b4a-497f-ae91-73c9cf0c0e05" d="M329.762,168.109v-2.247h-.8v-.72h.8v-1.104l.903-.192v1.295h1.111v.72h-1.111v2.047c0,.392.152.543.56.543.176,0,.304-.024.544-.096v.759c-.232.072-.536.112-.775.112-.808,0-1.231-.384-1.231-1.12Z"></path>
    <path class="uuid-8fcd2a45-9b4a-497f-ae91-73c9cf0c0e05" d="M332.577,165.143h.903v.864c.225-.608.608-.936,1.104-.936.152.008.256.024.392.08v.792c-.144-.056-.327-.096-.495-.096-.44,0-.8.248-1,.664v2.639h-.903v-4.006Z"></path>
    <path class="uuid-8fcd2a45-9b4a-497f-ae91-73c9cf0c0e05" d="M335.608,163.775c0-.304.248-.56.561-.56.304,0,.56.256.56.56s-.256.552-.56.552c-.312,0-.561-.248-.561-.552ZM335.713,165.143h.903v4.006h-.903v-4.006Z"></path>
    <path class="uuid-8fcd2a45-9b4a-497f-ae91-73c9cf0c0e05" d="M337.554,167.149c0-1.159.879-2.071,2.022-2.071.624,0,1.199.248,1.6.68l-.56.583c-.28-.312-.624-.472-1.008-.472-.647,0-1.151.56-1.151,1.279,0,.728.504,1.279,1.151,1.279.384,0,.728-.16,1.008-.464l.56.576c-.4.432-.976.679-1.6.679-1.144,0-2.022-.903-2.022-2.071Z"></path>
    <path class="uuid-8fcd2a45-9b4a-497f-ae91-73c9cf0c0e05" d="M341.602,168.685l.424-.6c.527.328.879.456,1.287.456.479,0,.808-.224.808-.544,0-.248-.168-.376-.56-.456l-.704-.12c-.783-.144-1.159-.504-1.159-1.104,0-.751.615-1.239,1.551-1.239.56,0,1.063.16,1.575.48l-.424.6c-.407-.264-.799-.384-1.207-.384-.416,0-.688.176-.688.464,0,.256.144.368.56.439l.712.136c.799.144,1.183.512,1.183,1.112,0,.735-.703,1.303-1.639,1.303-.688,0-1.295-.192-1.719-.544Z"></path>
  </g>
  <g>
    <line class="uuid-29b8fd30-1b07-43b0-8f0f-41a29542b227" x1="257.975" y1="97.919" x2="259.475" y2="97.919"></line>
    <line class="uuid-deea5198-dae1-4450-aac8-6b66a31acdf1" x1="261.51" y1="97.919" x2="296.11" y2="97.919"></line>
    <line class="uuid-29b8fd30-1b07-43b0-8f0f-41a29542b227" x1="297.128" y1="97.919" x2="298.628" y2="97.919"></line>
  </g>
  <rect class="uuid-3faf4503-d8ec-4b0e-8173-8573a6f64f08" x="583.915" y="26.399" width="244.634" height="156.437"></rect>
  <rect class="uuid-4595af59-3c7d-4923-b55b-0043c7c51f2e" x="592.755" y="58.318" width="226.954" height="64.563"></rect>
  <g>
    <path class="uuid-8fcd2a45-9b4a-497f-ae91-73c9cf0c0e05" d="M593.533,42.309c0-2.244,1.771-3.972,4.06-3.972,1.232,0,2.453.583,3.125,1.497l-1.276,1.21c-.506-.682-1.122-1.023-1.849-1.023-1.199,0-2.102.979-2.102,2.288s.902,2.289,2.102,2.289c.727,0,1.343-.341,1.849-1.023l1.276,1.21c-.672.913-1.893,1.496-3.125,1.496-2.288,0-4.06-1.728-4.06-3.972Z"></path>
    <path class="uuid-8fcd2a45-9b4a-497f-ae91-73c9cf0c0e05" d="M601.233,43.332c0-1.672,1.276-2.937,2.959-2.937s2.96,1.265,2.96,2.937-1.276,2.938-2.96,2.938-2.959-1.265-2.959-2.938ZM605.414,43.332c0-.847-.506-1.452-1.222-1.452s-1.221.605-1.221,1.452.506,1.453,1.221,1.453,1.222-.605,1.222-1.453Z"></path>
    <path class="uuid-8fcd2a45-9b4a-497f-ae91-73c9cf0c0e05" d="M608.284,40.483h1.782v.902c.418-.649.99-.99,1.684-.99.736,0,1.32.407,1.595,1.056.44-.682,1.078-1.056,1.859-1.056,1.045,0,1.782.825,1.782,1.991v3.773h-1.782v-3.421c0-.572-.341-.946-.847-.946-.33,0-.595.132-.825.429v3.938h-1.782v-3.421c0-.572-.342-.946-.848-.946-.33,0-.604.143-.836.44v3.928h-1.782v-5.677Z"></path>
    <path class="uuid-8fcd2a45-9b4a-497f-ae91-73c9cf0c0e05" d="M618.327,40.483h1.76v.792c.375-.506,1.002-.825,1.684-.825,1.397,0,2.509,1.287,2.509,2.882s-1.166,2.861-2.641,2.861c-.616,0-1.155-.231-1.529-.66v2.926h-1.782v-7.976ZM622.529,43.321c0-.803-.583-1.397-1.353-1.397-.44,0-.781.154-1.067.462v1.892c.275.286.649.451,1.067.451.781,0,1.353-.594,1.353-1.408Z"></path>
    <path class="uuid-8fcd2a45-9b4a-497f-ae91-73c9cf0c0e05" d="M625.367,44.312v-3.829h1.782v3.312c0,.638.374,1.056.946,1.056.385,0,.693-.154.946-.473v-3.895h1.782v5.677h-1.782v-.924c-.44.66-1.057,1.012-1.794,1.012-1.1,0-1.881-.803-1.881-1.936Z"></path>
    <path class="uuid-8fcd2a45-9b4a-497f-ae91-73c9cf0c0e05" d="M632.957,44.443v-2.585h-1.101v-1.375h1.101v-1.573l1.782-.363v1.937h1.519v1.375h-1.519v2.233c0,.506.198.682.748.682.209,0,.374-.022.727-.121v1.441c-.33.099-.858.176-1.222.176-1.342,0-2.035-.616-2.035-1.826Z"></path>
    <path class="uuid-8fcd2a45-9b4a-497f-ae91-73c9cf0c0e05" d="M636.939,43.332c0-1.661,1.232-2.937,2.86-2.937,1.64,0,2.794,1.243,2.794,3.003v.385h-3.905c.165.638.683,1.067,1.331,1.067.474,0,.869-.165,1.122-.473l1.178.979c-.737.649-1.431.913-2.388.913-1.672,0-2.992-1.287-2.992-2.938ZM640.944,42.771c-.154-.605-.584-.99-1.155-.99-.562,0-.957.363-1.101.99h2.256Z"></path>
    <path class="uuid-8fcd2a45-9b4a-497f-ae91-73c9cf0c0e05" d="M646.068,40.483h1.761v.792c.374-.506,1.001-.825,1.684-.825,1.396,0,2.508,1.287,2.508,2.882s-1.166,2.861-2.641,2.861c-.615,0-1.154-.231-1.528-.66v2.926h-1.783v-7.976ZM650.271,43.321c0-.803-.583-1.397-1.354-1.397-.439,0-.781.154-1.066.462v1.892c.274.286.648.451,1.066.451.781,0,1.354-.594,1.354-1.408Z"></path>
    <path class="uuid-8fcd2a45-9b4a-497f-ae91-73c9cf0c0e05" d="M653.152,38.327l1.783-.275v8.108h-1.783v-7.833Z"></path>
    <path class="uuid-8fcd2a45-9b4a-497f-ae91-73c9cf0c0e05" d="M656.056,44.531c0-1.045.814-1.65,2.212-1.65.406,0,.813.077,1.319.264v-.462c0-.55-.362-.825-1.122-.825-.429,0-.935.121-1.595.396l-.616-1.243c.935-.418,1.771-.616,2.607-.616,1.573,0,2.486.781,2.486,2.134v3.63h-1.761v-.495c-.495.418-.968.583-1.573.583-1.154,0-1.958-.704-1.958-1.716ZM658.565,45.07c.374,0,.715-.099,1.022-.286v-.726c-.33-.077-.648-.121-.979-.121-.583,0-.913.198-.913.561s.318.572.869.572Z"></path>
    <path class="uuid-8fcd2a45-9b4a-497f-ae91-73c9cf0c0e05" d="M662.689,40.483h1.783v.924c.439-.66,1.056-1.012,1.793-1.012,1.1,0,1.881.803,1.881,1.936v3.829h-1.782v-3.312c0-.638-.374-1.056-.946-1.056-.385,0-.692.154-.945.473v3.895h-1.783v-5.677Z"></path>
    <path class="uuid-8fcd2a45-9b4a-497f-ae91-73c9cf0c0e05" d="M669.234,43.332c0-1.661,1.232-2.937,2.86-2.937,1.64,0,2.795,1.243,2.795,3.003v.385h-3.905c.165.638.682,1.067,1.331,1.067.473,0,.869-.165,1.122-.473l1.177.979c-.737.649-1.43.913-2.387.913-1.673,0-2.993-1.287-2.993-2.938ZM673.239,42.771c-.154-.605-.583-.99-1.155-.99-.561,0-.957.363-1.1.99h2.255Z"></path>
  </g>
  <g>
    <path class="uuid-8fcd2a45-9b4a-497f-ae91-73c9cf0c0e05" d="M607.549,70.654c0-2.039,1.609-3.608,3.688-3.608,1.119,0,2.229.53,2.838,1.359l-1.159,1.1c-.46-.62-1.02-.93-1.679-.93-1.09,0-1.909.89-1.909,2.079s.819,2.079,1.909,2.079c.659,0,1.219-.31,1.679-.929l1.159,1.099c-.609.83-1.719,1.359-2.838,1.359-2.079,0-3.688-1.569-3.688-3.608Z"></path>
    <path class="uuid-8fcd2a45-9b4a-497f-ae91-73c9cf0c0e05" d="M614.549,71.583c0-1.52,1.159-2.669,2.688-2.669s2.688,1.149,2.688,2.669-1.159,2.668-2.688,2.668-2.688-1.149-2.688-2.668ZM618.347,71.583c0-.77-.46-1.319-1.109-1.319s-1.109.549-1.109,1.319.46,1.319,1.109,1.319,1.109-.549,1.109-1.319Z"></path>
    <path class="uuid-8fcd2a45-9b4a-497f-ae91-73c9cf0c0e05" d="M620.959,68.995h1.619v.82c.38-.59.899-.9,1.529-.9.67,0,1.199.37,1.449.959.399-.62.979-.959,1.688-.959.95,0,1.619.75,1.619,1.809v3.428h-1.619v-3.108c0-.52-.31-.859-.77-.859-.3,0-.539.12-.749.39v3.578h-1.619v-3.108c0-.52-.31-.859-.77-.859-.3,0-.55.13-.76.4v3.568h-1.619v-5.157Z"></path>
    <path class="uuid-8fcd2a45-9b4a-497f-ae91-73c9cf0c0e05" d="M630.089,68.995h1.6v.72c.339-.46.909-.75,1.528-.75,1.27,0,2.279,1.169,2.279,2.619s-1.06,2.598-2.398,2.598c-.561,0-1.05-.209-1.39-.6v2.659h-1.619v-7.246ZM633.908,71.573c0-.729-.53-1.269-1.229-1.269-.4,0-.71.14-.97.419v1.719c.25.26.59.41.97.41.709,0,1.229-.54,1.229-1.279Z"></path>
    <path class="uuid-8fcd2a45-9b4a-497f-ae91-73c9cf0c0e05" d="M636.49,72.473v-3.478h1.619v3.008c0,.58.34.959.859.959.35,0,.629-.14.859-.43v-3.538h1.619v5.157h-1.619v-.839c-.4.6-.96.919-1.629.919-1,0-1.709-.729-1.709-1.759Z"></path>
    <path class="uuid-8fcd2a45-9b4a-497f-ae91-73c9cf0c0e05" d="M643.388,72.593v-2.349h-.999v-1.25h.999v-1.429l1.619-.33v1.759h1.38v1.25h-1.38v2.029c0,.459.181.62.68.62.19,0,.34-.02.66-.11v1.309c-.3.09-.779.16-1.109.16-1.22,0-1.85-.56-1.85-1.659Z"></path>
    <path class="uuid-8fcd2a45-9b4a-497f-ae91-73c9cf0c0e05" d="M647.009,71.583c0-1.509,1.119-2.669,2.599-2.669,1.489,0,2.539,1.129,2.539,2.729v.35h-3.549c.15.58.62.969,1.21.969.43,0,.789-.15,1.02-.43l1.069.89c-.67.589-1.3.83-2.169.83-1.52,0-2.719-1.169-2.719-2.668ZM650.647,71.074c-.14-.55-.529-.9-1.049-.9-.51,0-.87.33-1,.9h2.049Z"></path>
    <path class="uuid-8fcd2a45-9b4a-497f-ae91-73c9cf0c0e05" d="M655.309,68.995h1.619v.84c.399-.6.959-.92,1.629-.92,1,0,1.709.73,1.709,1.759v3.478h-1.619v-3.008c0-.58-.34-.959-.859-.959-.35,0-.63.14-.859.43v3.538h-1.619v-5.157Z"></path>
    <path class="uuid-8fcd2a45-9b4a-497f-ae91-73c9cf0c0e05" d="M661.259,71.583c0-1.52,1.159-2.669,2.688-2.669s2.688,1.149,2.688,2.669-1.159,2.668-2.688,2.668-2.688-1.149-2.688-2.668ZM665.057,71.583c0-.77-.46-1.319-1.109-1.319s-1.109.549-1.109,1.319.46,1.319,1.109,1.319,1.109-.549,1.109-1.319Z"></path>
    <path class="uuid-8fcd2a45-9b4a-497f-ae91-73c9cf0c0e05" d="M667.439,71.563c0-1.449,1.06-2.599,2.398-2.599.54,0,1.03.22,1.38.62v-2.549l1.619-.25v7.366h-1.6v-.669c-.34.43-.909.699-1.519.699-1.27,0-2.279-1.169-2.279-2.618ZM671.217,72.433v-1.739c-.25-.26-.59-.4-.96-.4-.709,0-1.229.54-1.229,1.279,0,.729.53,1.27,1.229,1.27.39,0,.71-.14.96-.41Z"></path>
    <path class="uuid-8fcd2a45-9b4a-497f-ae91-73c9cf0c0e05" d="M673.87,71.583c0-1.509,1.119-2.669,2.599-2.669,1.488,0,2.538,1.129,2.538,2.729v.35h-3.548c.149.58.619.969,1.209.969.43,0,.79-.15,1.02-.43l1.069.89c-.669.589-1.299.83-2.169.83-1.519,0-2.718-1.169-2.718-2.668ZM677.507,71.074c-.14-.55-.529-.9-1.05-.9-.51,0-.869.33-.999.9h2.049Z"></path>
    <path class="uuid-8fcd2a45-9b4a-497f-ae91-73c9cf0c0e05" d="M679.649,73.622l.71-1.079c.739.39,1.159.52,1.659.52.46,0,.739-.16.739-.42,0-.2-.149-.31-.479-.37l-.989-.18c-1-.189-1.52-.699-1.52-1.499,0-1.049.81-1.679,2.159-1.679.719,0,1.429.2,2.099.59l-.74,1.029c-.52-.3-.999-.439-1.479-.439-.39,0-.62.13-.62.35,0,.21.13.3.53.37l.969.18c1.02.19,1.55.709,1.55,1.489,0,1.009-.95,1.769-2.219,1.769-.939,0-1.77-.22-2.369-.63Z"></path>
  </g>
  <path class="uuid-4595af59-3c7d-4923-b55b-0043c7c51f2e" d="M819.016,128.081v12.229h-224.954v-12.229h224.954M820.016,127.081h-226.954v14.229h226.954v-14.229h0Z"></path>
  <g>
    <path class="uuid-8fcd2a45-9b4a-497f-ae91-73c9cf0c0e05" d="M604.683,131.191h1.111l2.167,5.597h-1.031l-.575-1.567h-2.295l-.576,1.567h-.999l2.198-5.597ZM606.09,134.47l-.879-2.367-.872,2.367h1.751Z"></path>
    <path class="uuid-8fcd2a45-9b4a-497f-ae91-73c9cf0c0e05" d="M608.572,132.783h.888v.568c.288-.376.735-.6,1.247-.6,1.016,0,1.808.903,1.808,2.039,0,1.144-.815,2.039-1.863,2.039-.472,0-.888-.176-1.175-.512v2.143h-.904v-5.677ZM611.626,134.79c0-.728-.512-1.279-1.191-1.279-.399,0-.728.16-.959.448v1.671c.231.28.575.448.959.448.688,0,1.191-.552,1.191-1.288Z"></path>
    <path class="uuid-8fcd2a45-9b4a-497f-ae91-73c9cf0c0e05" d="M613.46,132.783h.888v.568c.287-.376.735-.6,1.247-.6,1.016,0,1.807.903,1.807,2.039,0,1.144-.815,2.039-1.862,2.039-.472,0-.888-.176-1.176-.512v2.143h-.903v-5.677ZM616.514,134.79c0-.728-.512-1.279-1.19-1.279-.4,0-.729.16-.96.448v1.671c.231.28.576.448.96.448.688,0,1.19-.552,1.19-1.288Z"></path>
    <path class="uuid-8fcd2a45-9b4a-497f-ae91-73c9cf0c0e05" d="M618.348,131.056l.904-.16v5.893h-.904v-5.733Z"></path>
    <path class="uuid-8fcd2a45-9b4a-497f-ae91-73c9cf0c0e05" d="M620.252,131.416c0-.304.248-.56.56-.56.304,0,.56.256.56.56s-.256.552-.56.552c-.312,0-.56-.248-.56-.552ZM620.356,132.783h.903v4.006h-.903v-4.006Z"></path>
    <path class="uuid-8fcd2a45-9b4a-497f-ae91-73c9cf0c0e05" d="M622.197,134.79c0-1.159.879-2.071,2.022-2.071.624,0,1.199.248,1.599.68l-.56.583c-.279-.312-.623-.472-1.007-.472-.647,0-1.151.56-1.151,1.279,0,.728.504,1.279,1.151,1.279.384,0,.728-.16,1.007-.463l.56.575c-.399.432-.975.68-1.599.68-1.144,0-2.022-.903-2.022-2.071Z"></path>
    <path class="uuid-8fcd2a45-9b4a-497f-ae91-73c9cf0c0e05" d="M626.356,135.637c0-.72.592-1.175,1.535-1.175.376,0,.729.08,1.08.256v-.448c0-.528-.304-.8-.92-.8-.336,0-.703.096-1.167.312l-.32-.656c.6-.272,1.128-.408,1.663-.408,1.048,0,1.64.528,1.64,1.455v2.615h-.896v-.416c-.344.335-.728.487-1.191.487-.84,0-1.424-.503-1.424-1.223ZM628.028,136.221c.359,0,.671-.104.943-.335v-.648c-.288-.136-.576-.192-.92-.192-.52,0-.848.216-.848.576,0,.368.32.6.824.6Z"></path>
    <path class="uuid-8fcd2a45-9b4a-497f-ae91-73c9cf0c0e05" d="M631.339,135.749v-2.247h-.799v-.72h.799v-1.104l.904-.192v1.295h1.111v.72h-1.111v2.047c0,.392.151.543.56.543.176,0,.304-.024.544-.096v.76c-.232.072-.536.112-.776.112-.808,0-1.231-.384-1.231-1.12Z"></path>
    <path class="uuid-8fcd2a45-9b4a-497f-ae91-73c9cf0c0e05" d="M634.044,131.416c0-.304.248-.56.56-.56.304,0,.56.256.56.56s-.256.552-.56.552c-.312,0-.56-.248-.56-.552ZM634.148,132.783h.903v4.006h-.903v-4.006Z"></path>
    <path class="uuid-8fcd2a45-9b4a-497f-ae91-73c9cf0c0e05" d="M635.988,134.79c0-1.183.863-2.071,2.015-2.071,1.144,0,2.007.888,2.007,2.071s-.863,2.071-2.007,2.071c-1.151,0-2.015-.887-2.015-2.071ZM639.123,134.79c0-.744-.473-1.303-1.12-1.303-.655,0-1.127.56-1.127,1.303,0,.751.472,1.303,1.127,1.303.647,0,1.12-.552,1.12-1.303Z"></path>
    <path class="uuid-8fcd2a45-9b4a-497f-ae91-73c9cf0c0e05" d="M640.948,132.783h.904v.656c.304-.472.743-.72,1.263-.72.823,0,1.399.584,1.399,1.431v2.639h-.911v-2.383c0-.583-.344-.959-.88-.959-.368,0-.664.168-.871.488v2.854h-.904v-4.006Z"></path>
    <path class="uuid-8fcd2a45-9b4a-497f-ae91-73c9cf0c0e05" d="M645.244,136.325l.424-.6c.528.328.88.456,1.288.456.479,0,.807-.224.807-.543,0-.248-.167-.376-.56-.456l-.703-.12c-.784-.144-1.159-.504-1.159-1.104,0-.751.615-1.239,1.551-1.239.56,0,1.063.16,1.575.48l-.424.6c-.408-.264-.8-.384-1.207-.384-.416,0-.688.176-.688.463,0,.256.144.368.56.44l.711.136c.8.144,1.184.512,1.184,1.111,0,.735-.703,1.303-1.639,1.303-.688,0-1.296-.192-1.72-.544Z"></path>
  </g>
  <g>
    <g>
      <line class="uuid-acbe7028-6ce2-412d-a363-17633ef890ff" x1="651.102" y1="105.465" x2="651.102" y2="105.465"></line>
      <line class="uuid-0ea85ecf-2ae2-44b9-989a-558097093e92" x1="647.102" y1="105.465" x2="609.101" y2="105.465"></line>
      <line class="uuid-acbe7028-6ce2-412d-a363-17633ef890ff" x1="607.101" y1="105.465" x2="607.101" y2="105.465"></line>
      <line class="uuid-6f430189-8c1b-4ac9-ab8f-aa1f50a7a549" x1="607.101" y1="101.238" x2="607.101" y2="90.668"></line>
      <line class="uuid-acbe7028-6ce2-412d-a363-17633ef890ff" x1="607.101" y1="88.554" x2="607.101" y2="88.554"></line>
      <line class="uuid-0ea85ecf-2ae2-44b9-989a-558097093e92" x1="611.101" y1="88.554" x2="649.102" y2="88.554"></line>
      <line class="uuid-acbe7028-6ce2-412d-a363-17633ef890ff" x1="651.102" y1="88.554" x2="651.102" y2="88.554"></line>
      <line class="uuid-6f430189-8c1b-4ac9-ab8f-aa1f50a7a549" x1="651.102" y1="92.782" x2="651.102" y2="103.352"></line>
    </g>
    <g>
      <rect class="uuid-8c1a0939-17e5-462a-9cab-69cde5c1e141" x="610.996" y="92.481" width="36.12" height="9.03"></rect>
      <line class="uuid-d9b77669-960a-4a8b-b5f8-b6834190f8a0" x1="643.256" y1="96.354" x2="643.256" y2="96.354"></line>
      <line class="uuid-acbe7028-6ce2-412d-a363-17633ef890ff" x1="615.42" y1="97.641" x2="620.838" y2="97.641"></line>
    </g>
  </g>
  <g>
    <g>
      <line class="uuid-acbe7028-6ce2-412d-a363-17633ef890ff" x1="728.539" y1="105.465" x2="728.539" y2="105.465"></line>
      <line class="uuid-0ea85ecf-2ae2-44b9-989a-558097093e92" x1="724.539" y1="105.465" x2="686.538" y2="105.465"></line>
      <line class="uuid-acbe7028-6ce2-412d-a363-17633ef890ff" x1="684.538" y1="105.465" x2="684.538" y2="105.465"></line>
      <line class="uuid-6f430189-8c1b-4ac9-ab8f-aa1f50a7a549" x1="684.538" y1="101.238" x2="684.538" y2="90.668"></line>
      <line class="uuid-acbe7028-6ce2-412d-a363-17633ef890ff" x1="684.538" y1="88.554" x2="684.538" y2="88.554"></line>
      <line class="uuid-0ea85ecf-2ae2-44b9-989a-558097093e92" x1="688.538" y1="88.554" x2="726.539" y2="88.554"></line>
      <line class="uuid-acbe7028-6ce2-412d-a363-17633ef890ff" x1="728.539" y1="88.554" x2="728.539" y2="88.554"></line>
      <line class="uuid-6f430189-8c1b-4ac9-ab8f-aa1f50a7a549" x1="728.539" y1="92.782" x2="728.539" y2="103.352"></line>
    </g>
    <g>
      <rect class="uuid-8c1a0939-17e5-462a-9cab-69cde5c1e141" x="688.434" y="92.481" width="36.12" height="9.03"></rect>
      <line class="uuid-d9b77669-960a-4a8b-b5f8-b6834190f8a0" x1="720.693" y1="96.354" x2="720.693" y2="96.354"></line>
      <line class="uuid-acbe7028-6ce2-412d-a363-17633ef890ff" x1="692.857" y1="97.641" x2="698.275" y2="97.641"></line>
    </g>
  </g>
  <g>
    <g>
      <line class="uuid-acbe7028-6ce2-412d-a363-17633ef890ff" x1="805.977" y1="105.465" x2="805.977" y2="105.465"></line>
      <line class="uuid-0ea85ecf-2ae2-44b9-989a-558097093e92" x1="801.977" y1="105.465" x2="763.976" y2="105.465"></line>
      <line class="uuid-acbe7028-6ce2-412d-a363-17633ef890ff" x1="761.976" y1="105.465" x2="761.976" y2="105.465"></line>
      <line class="uuid-6f430189-8c1b-4ac9-ab8f-aa1f50a7a549" x1="761.976" y1="101.238" x2="761.976" y2="90.668"></line>
      <line class="uuid-acbe7028-6ce2-412d-a363-17633ef890ff" x1="761.976" y1="88.554" x2="761.976" y2="88.554"></line>
      <line class="uuid-0ea85ecf-2ae2-44b9-989a-558097093e92" x1="765.976" y1="88.554" x2="803.977" y2="88.554"></line>
      <line class="uuid-acbe7028-6ce2-412d-a363-17633ef890ff" x1="805.977" y1="88.554" x2="805.977" y2="88.554"></line>
      <line class="uuid-6f430189-8c1b-4ac9-ab8f-aa1f50a7a549" x1="805.977" y1="92.782" x2="805.977" y2="103.352"></line>
    </g>
    <g>
      <rect class="uuid-8c1a0939-17e5-462a-9cab-69cde5c1e141" x="765.872" y="92.481" width="36.12" height="9.03"></rect>
      <line class="uuid-d9b77669-960a-4a8b-b5f8-b6834190f8a0" x1="798.131" y1="96.354" x2="798.131" y2="96.354"></line>
      <line class="uuid-acbe7028-6ce2-412d-a363-17633ef890ff" x1="770.295" y1="97.641" x2="775.713" y2="97.641"></line>
    </g>
  </g>
  <g>
    <line class="uuid-29b8fd30-1b07-43b0-8f0f-41a29542b227" x1="543.262" y1="97.919" x2="544.762" y2="97.919"></line>
    <line class="uuid-deea5198-dae1-4450-aac8-6b66a31acdf1" x1="546.797" y1="97.919" x2="581.397" y2="97.919"></line>
    <line class="uuid-29b8fd30-1b07-43b0-8f0f-41a29542b227" x1="582.415" y1="97.919" x2="583.915" y2="97.919"></line>
  </g>
</svg>