<svg id="uuid-7a8643ad-7c5f-4e4b-a3e0-276ec625d691" data-name="uuid-2434e763-2b28-4d5b-af83-d48cbb8cfcad" xmlns="http://www.w3.org/2000/svg" width="595.276" height="477.537" viewBox="0 0 595.276 477.537">
  <defs>
    <style>
      .uuid-988a665b-06a6-4cd6-a575-d3294dc9d624, .uuid-005be39c-50d8-417b-844f-16a76babbe9b, .uuid-86f9730c-fc83-4a88-bc62-8b4e75841530, .uuid-b48ff81a-cd39-4c9a-bfad-e3cbbbd6f523 {
        stroke: #06c;
      }

      .uuid-988a665b-06a6-4cd6-a575-d3294dc9d624, .uuid-005be39c-50d8-417b-844f-16a76babbe9b, .uuid-86f9730c-fc83-4a88-bc62-8b4e75841530, .uuid-b48ff81a-cd39-4c9a-bfad-e3cbbbd6f523, .uuid-cb8a65e0-471a-4caa-ba0b-fa6fc4ec4cfc {
        fill: none;
      }

      .uuid-988a665b-06a6-4cd6-a575-d3294dc9d624, .uuid-cb8a65e0-471a-4caa-ba0b-fa6fc4ec4cfc {
        stroke-miterlimit: 10;
      }

      .uuid-005be39c-50d8-417b-844f-16a76babbe9b {
        stroke-dasharray: 0 0 0 0 0 0 3.287 3.287;
      }

      .uuid-005be39c-50d8-417b-844f-16a76babbe9b, .uuid-86f9730c-fc83-4a88-bc62-8b4e75841530, .uuid-b48ff81a-cd39-4c9a-bfad-e3cbbbd6f523 {
        stroke-linecap: round;
        stroke-linejoin: round;
      }

      .uuid-6a8cb13a-e473-4b23-8cd7-6fde17270ddc {
        fill: #000;
      }

      .uuid-6a8cb13a-e473-4b23-8cd7-6fde17270ddc, .uuid-5328e72f-812c-4bf6-b01b-9e78dc3b2993, .uuid-4015fe53-a7ee-458b-8607-3849850f4d78, .uuid-1f8992e0-4a02-4059-bd66-5300446d6957, .uuid-39151fb9-6a0c-4779-b683-82011fe60d0d {
        stroke-width: 0px;
      }

      .uuid-5328e72f-812c-4bf6-b01b-9e78dc3b2993 {
        fill: #dbe8f5;
      }

      .uuid-b48ff81a-cd39-4c9a-bfad-e3cbbbd6f523 {
        stroke-dasharray: 0 0 0 0 0 0 3.053 3.053;
      }

      .uuid-cb8a65e0-471a-4caa-ba0b-fa6fc4ec4cfc {
        stroke: #000;
      }

      .uuid-4015fe53-a7ee-458b-8607-3849850f4d78 {
        fill: #06c;
      }

      .uuid-1f8992e0-4a02-4059-bd66-5300446d6957 {
        fill: #fff;
      }

      .uuid-39151fb9-6a0c-4779-b683-82011fe60d0d {
        fill: #e6e6e6;
      }
    </style>
  </defs>
  <rect class="uuid-1f8992e0-4a02-4059-bd66-5300446d6957" x="20.037" y="8.683" width="555.201" height="458.428"></rect>
  <rect class="uuid-39151fb9-6a0c-4779-b683-82011fe60d0d" x="33.743" y="109.265" width="254.211" height="230.118"></rect>
  <rect class="uuid-39151fb9-6a0c-4779-b683-82011fe60d0d" x="33.743" y="361.437" width="527.789" height="93.938"></rect>
  <rect class="uuid-1f8992e0-4a02-4059-bd66-5300446d6957" x="51.638" y="143.016" width="218.421" height="179.74"></rect>
  <rect class="uuid-39151fb9-6a0c-4779-b683-82011fe60d0d" x="68.48" y="179.858" width="184.737" height="84.371"></rect>
  <rect class="uuid-1f8992e0-4a02-4059-bd66-5300446d6957" x="85.322" y="210.008" width="151.053" height="37.911"></rect>
  <rect class="uuid-5328e72f-812c-4bf6-b01b-9e78dc3b2993" x="68.48" y="268.703" width="184.737" height="38.217"></rect>
  <g>
    <path class="uuid-6a8cb13a-e473-4b23-8cd7-6fde17270ddc" d="M52.496,121.288h3.135c2.156,0,3.873,1.716,3.873,3.851s-1.717,3.851-3.873,3.851h-3.135v-7.701h0ZM55.631,127.372c1.067,0,1.915-.99,1.915-2.233s-.848-2.233-1.915-2.233h-1.243v4.467h1.243Z"></path>
    <path class="uuid-6a8cb13a-e473-4b23-8cd7-6fde17270ddc" d="M60.316,127.361c0-1.046.814-1.65,2.212-1.65.407,0,.813.077,1.32.264v-.462c0-.55-.363-.825-1.122-.825-.43,0-.936.121-1.596.396l-.616-1.243c.936-.418,1.771-.616,2.607-.616,1.573,0,2.486.781,2.486,2.134v3.631h-1.76v-.495c-.495.418-.969.583-1.573.583-1.155,0-1.959-.704-1.959-1.716h.001ZM62.825,127.9c.374,0,.715-.1,1.023-.286v-.727c-.33-.077-.649-.121-.979-.121-.583,0-.913.198-.913.562s.319.572.869.572Z"></path>
    <path class="uuid-6a8cb13a-e473-4b23-8cd7-6fde17270ddc" d="M67.533,127.273v-2.586h-1.101v-1.375h1.101v-1.573l1.782-.363v1.937h1.518v1.375h-1.518v2.233c0,.506.198.683.748.683.209,0,.374-.022.726-.121v1.44c-.33.1-.857.177-1.221.177-1.342,0-2.035-.616-2.035-1.826h0Z"></path>
    <path class="uuid-6a8cb13a-e473-4b23-8cd7-6fde17270ddc" d="M71.559,127.361c0-1.046.814-1.65,2.212-1.65.407,0,.813.077,1.32.264v-.462c0-.55-.363-.825-1.122-.825-.43,0-.936.121-1.596.396l-.616-1.243c.936-.418,1.771-.616,2.607-.616,1.573,0,2.486.781,2.486,2.134v3.631h-1.76v-.495c-.495.418-.969.583-1.573.583-1.155,0-1.959-.704-1.959-1.716h0ZM74.067,127.9c.374,0,.715-.1,1.023-.286v-.727c-.33-.077-.649-.121-.979-.121-.583,0-.913.198-.913.562s.319.572.869.572Z"></path>
    <path class="uuid-6a8cb13a-e473-4b23-8cd7-6fde17270ddc" d="M80.304,126.162c0-1.661,1.275-2.938,2.938-2.938.935,0,1.793.374,2.365,1.045l-1.09,1.089c-.362-.429-.726-.616-1.21-.616-.704,0-1.232.605-1.232,1.42s.528,1.419,1.232,1.419c.484,0,.848-.188,1.21-.616l1.09,1.089c-.572.672-1.431,1.046-2.365,1.046-1.662,0-2.938-1.276-2.938-2.938Z"></path>
    <path class="uuid-6a8cb13a-e473-4b23-8cd7-6fde17270ddc" d="M86.067,126.162c0-1.661,1.231-2.938,2.86-2.938,1.639,0,2.794,1.243,2.794,3.003v.386h-3.905c.165.638.682,1.066,1.331,1.066.473,0,.869-.165,1.122-.473l1.178.979c-.737.648-1.431.913-2.388.913-1.673,0-2.992-1.287-2.992-2.938v.002ZM90.071,125.6c-.153-.604-.583-.99-1.155-.99-.561,0-.957.363-1.1.99h2.255Z"></path>
    <path class="uuid-6a8cb13a-e473-4b23-8cd7-6fde17270ddc" d="M92.833,123.312h1.782v.924c.439-.66,1.056-1.012,1.793-1.012,1.101,0,1.881.803,1.881,1.937v3.828h-1.782v-3.312c0-.638-.374-1.056-.945-1.056-.386,0-.693.153-.946.473v3.895h-1.782v-5.677h0Z"></path>
    <path class="uuid-6a8cb13a-e473-4b23-8cd7-6fde17270ddc" d="M100.214,127.273v-2.586h-1.101v-1.375h1.101v-1.573l1.782-.363v1.937h1.518v1.375h-1.518v2.233c0,.506.198.683.748.683.209,0,.374-.022.726-.121v1.44c-.33.1-.857.177-1.221.177-1.342,0-2.035-.616-2.035-1.826h0Z"></path>
    <path class="uuid-6a8cb13a-e473-4b23-8cd7-6fde17270ddc" d="M104.195,126.162c0-1.661,1.231-2.938,2.86-2.938,1.639,0,2.794,1.243,2.794,3.003v.386h-3.905c.165.638.682,1.066,1.331,1.066.473,0,.869-.165,1.122-.473l1.178.979c-.737.648-1.431.913-2.388.913-1.672,0-2.992-1.287-2.992-2.938v.002ZM108.199,125.6c-.153-.604-.583-.99-1.155-.99-.561,0-.957.363-1.1.99h2.255Z"></path>
    <path class="uuid-6a8cb13a-e473-4b23-8cd7-6fde17270ddc" d="M110.961,123.312h1.782v1.287c.363-.946.869-1.397,1.54-1.397.253.012.374.033.594.144v1.529c-.22-.11-.527-.177-.836-.177-.528,0-1.012.275-1.298.704v3.587h-1.782s0-5.677,0-5.677Z"></path>
    <path class="uuid-6a8cb13a-e473-4b23-8cd7-6fde17270ddc" d="M119.364,123.049l-1.519.627v-1.496l2.146-.892h1.067v7.701h-1.694s0-5.94,0-5.94Z"></path>
  </g>
  <g>
    <path class="uuid-6a8cb13a-e473-4b23-8cd7-6fde17270ddc" d="M69.259,158.125h3.398c1.439,0,2.469.93,2.469,2.229,0,.89-.51,1.609-1.3,1.959l1.47,2.809h-1.919l-1.27-2.568h-1.129v2.568h-1.72v-6.996h0ZM72.498,161.203c.53,0,.89-.33.89-.829s-.359-.83-.89-.83h-1.519v1.659h1.519Z"></path>
    <path class="uuid-6a8cb13a-e473-4b23-8cd7-6fde17270ddc" d="M76.19,158.125h1.719v2.719h2.829v-2.719h1.719v6.996h-1.719v-2.769h-2.829v2.769h-1.719v-6.996Z"></path>
    <path class="uuid-6a8cb13a-e473-4b23-8cd7-6fde17270ddc" d="M83.59,161.623c0-2.019,1.589-3.608,3.617-3.608s3.618,1.59,3.618,3.608-1.589,3.608-3.618,3.608-3.617-1.59-3.617-3.608ZM89.057,161.623c0-1.189-.8-2.079-1.85-2.079s-1.849.89-1.849,2.079.8,2.079,1.849,2.079,1.85-.89,1.85-2.079Z"></path>
    <path class="uuid-6a8cb13a-e473-4b23-8cd7-6fde17270ddc" d="M91.73,161.623c0-2.039,1.608-3.608,3.688-3.608,1.119,0,2.229.53,2.839,1.359l-1.16,1.1c-.459-.62-1.02-.93-1.679-.93-1.09,0-1.909.89-1.909,2.079s.819,2.079,1.909,2.079c.659,0,1.22-.311,1.679-.93l1.16,1.1c-.61.829-1.72,1.359-2.839,1.359-2.079,0-3.688-1.569-3.688-3.608Z"></path>
    <path class="uuid-6a8cb13a-e473-4b23-8cd7-6fde17270ddc" d="M99.259,158.125h3.418c1.489,0,2.469.97,2.469,2.309,0,1.27-.979,2.249-2.469,2.249h-1.698v2.438h-1.72v-6.996ZM102.368,161.314c.7,0,1.04-.38,1.04-.89,0-.5-.34-.88-1.03-.88h-1.398v1.77h1.389,0Z"></path>
    <path class="uuid-6a8cb13a-e473-4b23-8cd7-6fde17270ddc" d="M108.128,162.553c0-1.51,1.16-2.669,2.669-2.669.85,0,1.629.34,2.148.949l-.989.99c-.33-.39-.659-.56-1.1-.56-.64,0-1.119.549-1.119,1.289s.479,1.289,1.119,1.289c.44,0,.77-.17,1.1-.56l.989.989c-.52.609-1.299.949-2.148.949-1.509,0-2.669-1.159-2.669-2.668v.002Z"></path>
    <path class="uuid-6a8cb13a-e473-4b23-8cd7-6fde17270ddc" d="M113.75,158.005l1.619-.25v7.366h-1.619v-7.116Z"></path>
    <path class="uuid-6a8cb13a-e473-4b23-8cd7-6fde17270ddc" d="M116.589,163.443v-3.479h1.619v3.009c0,.579.34.959.859.959.35,0,.63-.14.859-.43v-3.538h1.619v5.157h-1.619v-.84c-.399.6-.959.92-1.629.92-1,0-1.709-.729-1.709-1.759h0Z"></path>
    <path class="uuid-6a8cb13a-e473-4b23-8cd7-6fde17270ddc" d="M122.389,164.592l.71-1.08c.739.39,1.159.52,1.658.52.46,0,.74-.159.74-.419,0-.2-.15-.311-.479-.37l-.99-.18c-.999-.19-1.519-.7-1.519-1.499,0-1.05.81-1.68,2.158-1.68.72,0,1.43.2,2.1.59l-.74,1.029c-.52-.3-.999-.439-1.479-.439-.391,0-.62.13-.62.35,0,.21.13.3.529.37l.97.18c1.02.189,1.55.71,1.55,1.489,0,1.01-.95,1.769-2.22,1.769-.939,0-1.769-.22-2.368-.629h0Z"></path>
    <path class="uuid-6a8cb13a-e473-4b23-8cd7-6fde17270ddc" d="M128.499,163.562v-2.349h-1v-1.249h1v-1.429l1.619-.33v1.759h1.379v1.249h-1.379v2.029c0,.46.18.619.68.619.189,0,.34-.02.659-.109v1.31c-.3.09-.779.159-1.109.159-1.22,0-1.849-.56-1.849-1.659h0Z"></path>
    <path class="uuid-6a8cb13a-e473-4b23-8cd7-6fde17270ddc" d="M132.119,162.553c0-1.51,1.12-2.669,2.599-2.669,1.489,0,2.539,1.13,2.539,2.729v.35h-3.548c.149.58.619.97,1.209.97.43,0,.79-.149,1.02-.43l1.069.89c-.67.59-1.299.829-2.169.829-1.519,0-2.719-1.169-2.719-2.668h0ZM135.757,162.043c-.141-.55-.53-.899-1.05-.899-.51,0-.869.329-.999.899h2.049Z"></path>
    <path class="uuid-6a8cb13a-e473-4b23-8cd7-6fde17270ddc" d="M138.269,159.964h1.619v1.169c.329-.859.789-1.269,1.399-1.269.229.01.34.029.539.13v1.389c-.199-.1-.479-.159-.76-.159-.479,0-.919.249-1.179.64v3.258h-1.619v-5.157h0Z"></path>
    <path class="uuid-6a8cb13a-e473-4b23-8cd7-6fde17270ddc" d="M145.908,159.724l-1.38.57v-1.359l1.949-.81h.97v6.996h-1.539v-5.397h0Z"></path>
  </g>
  <g>
    <path class="uuid-6a8cb13a-e473-4b23-8cd7-6fde17270ddc" d="M52.496,373.82h5.819v1.584h-3.928v1.464h2.772v1.54h-2.772v1.529h3.972v1.584h-5.863v-7.701h0Z"></path>
    <path class="uuid-6a8cb13a-e473-4b23-8cd7-6fde17270ddc" d="M61.109,378.627l-2.058-2.783h2.058l1.056,1.529,1.057-1.529h1.98l-2.091,2.816,2.156,2.86h-2.068l-1.122-1.617-1.122,1.617h-1.969l2.123-2.894h0Z"></path>
    <path class="uuid-6a8cb13a-e473-4b23-8cd7-6fde17270ddc" d="M66.708,379.805v-2.586h-1.101v-1.375h1.101v-1.573l1.782-.363v1.937h1.518v1.375h-1.518v2.233c0,.506.198.683.748.683.209,0,.374-.022.726-.121v1.44c-.33.1-.857.177-1.221.177-1.342,0-2.035-.616-2.035-1.826h0Z"></path>
    <path class="uuid-6a8cb13a-e473-4b23-8cd7-6fde17270ddc" d="M70.69,378.694c0-1.661,1.231-2.938,2.86-2.938,1.639,0,2.794,1.243,2.794,3.003v.386h-3.905c.165.638.682,1.066,1.331,1.066.473,0,.869-.165,1.122-.473l1.178.979c-.737.648-1.431.913-2.388.913-1.672,0-2.992-1.287-2.992-2.938v.002ZM74.694,378.132c-.153-.604-.583-.99-1.155-.99-.561,0-.957.363-1.1.99h2.255Z"></path>
    <path class="uuid-6a8cb13a-e473-4b23-8cd7-6fde17270ddc" d="M77.455,375.844h1.782v1.287c.363-.946.869-1.397,1.54-1.397.253.012.374.033.594.144v1.529c-.22-.11-.527-.177-.836-.177-.528,0-1.012.275-1.298.704v3.587h-1.782s0-5.677,0-5.677Z"></path>
    <path class="uuid-6a8cb13a-e473-4b23-8cd7-6fde17270ddc" d="M82.316,375.844h1.782v.924c.439-.66,1.056-1.012,1.793-1.012,1.101,0,1.881.803,1.881,1.937v3.828h-1.782v-3.312c0-.638-.374-1.056-.945-1.056-.386,0-.693.153-.946.473v3.895h-1.782v-5.677h0Z"></path>
    <path class="uuid-6a8cb13a-e473-4b23-8cd7-6fde17270ddc" d="M88.851,379.893c0-1.046.814-1.65,2.212-1.65.407,0,.813.077,1.32.264v-.462c0-.55-.363-.825-1.122-.825-.43,0-.936.121-1.596.396l-.616-1.243c.936-.418,1.771-.616,2.607-.616,1.573,0,2.486.781,2.486,2.134v3.631h-1.76v-.495c-.495.418-.969.583-1.573.583-1.155,0-1.959-.704-1.959-1.716h0ZM91.359,380.432c.374,0,.715-.1,1.023-.286v-.727c-.33-.077-.649-.121-.979-.121-.583,0-.913.198-.913.562s.319.572.869.572Z"></path>
    <path class="uuid-6a8cb13a-e473-4b23-8cd7-6fde17270ddc" d="M95.483,373.688l1.782-.275v8.108h-1.782v-7.833Z"></path>
    <path class="uuid-6a8cb13a-e473-4b23-8cd7-6fde17270ddc" d="M101.182,373.82h3.74c1.584,0,2.718,1.023,2.718,2.453,0,.979-.562,1.771-1.431,2.156l1.617,3.092h-2.112l-1.397-2.827h-1.243v2.827h-1.892v-7.701h0ZM104.746,377.208c.583,0,.979-.363.979-.913s-.396-.913-.979-.913h-1.673v1.826h1.673Z"></path>
    <path class="uuid-6a8cb13a-e473-4b23-8cd7-6fde17270ddc" d="M108.805,373.82h1.893v2.992h3.113v-2.992h1.893v7.701h-1.893v-3.048h-3.113v3.048h-1.893v-7.701Z"></path>
    <path class="uuid-6a8cb13a-e473-4b23-8cd7-6fde17270ddc" d="M116.944,377.67c0-2.244,1.771-3.972,4.06-3.972,1.232,0,2.453.583,3.124,1.496l-1.275,1.21c-.507-.682-1.123-1.022-1.849-1.022-1.199,0-2.102.979-2.102,2.288s.902,2.288,2.102,2.288c.726,0,1.342-.341,1.849-1.022l1.275,1.21c-.671.913-1.892,1.496-3.124,1.496-2.288,0-4.06-1.728-4.06-3.972Z"></path>
    <path class="uuid-6a8cb13a-e473-4b23-8cd7-6fde17270ddc" d="M124.688,380.476l.968-1.397c1.067.748,1.738,1.023,2.498,1.023.813,0,1.309-.33,1.309-.814,0-.451-.264-.671-1.012-.803l-1.64-.286c-1.221-.209-1.892-.979-1.892-2.068,0-1.496,1.144-2.432,3.058-2.432,1.188,0,2.366.385,3.158,1.013l-.957,1.375c-.748-.572-1.485-.848-2.3-.848-.748,0-1.177.309-1.177.727,0,.396.253.594.869.704l1.54.264c1.441.242,2.2,1.001,2.2,2.179,0,1.507-1.276,2.53-3.289,2.53-1.222,0-2.311-.407-3.334-1.166h0Z"></path>
    <path class="uuid-6a8cb13a-e473-4b23-8cd7-6fde17270ddc" d="M134.489,378.694c0-1.661,1.275-2.938,2.938-2.938.935,0,1.793.374,2.365,1.045l-1.09,1.089c-.362-.429-.726-.616-1.21-.616-.704,0-1.232.605-1.232,1.42s.528,1.419,1.232,1.419c.484,0,.848-.188,1.21-.616l1.09,1.089c-.572.672-1.431,1.046-2.365,1.046-1.662,0-2.938-1.276-2.938-2.938h0Z"></path>
    <path class="uuid-6a8cb13a-e473-4b23-8cd7-6fde17270ddc" d="M140.671,373.688l1.782-.275v8.108h-1.782v-7.833Z"></path>
    <path class="uuid-6a8cb13a-e473-4b23-8cd7-6fde17270ddc" d="M143.795,379.672v-3.828h1.782v3.312c0,.638.374,1.056.946,1.056.385,0,.692-.153.945-.473v-3.895h1.782v5.677h-1.782v-.924c-.439.66-1.056,1.012-1.793,1.012-1.1,0-1.881-.803-1.881-1.937h0Z"></path>
    <path class="uuid-6a8cb13a-e473-4b23-8cd7-6fde17270ddc" d="M150.175,380.938l.78-1.188c.814.43,1.276.572,1.827.572.506,0,.813-.176.813-.462,0-.22-.165-.341-.528-.407l-1.089-.198c-1.1-.209-1.672-.77-1.672-1.65,0-1.154.891-1.848,2.376-1.848.792,0,1.573.22,2.311.648l-.814,1.134c-.572-.33-1.1-.484-1.628-.484-.429,0-.683.144-.683.385,0,.231.144.33.584.407l1.066.198c1.122.209,1.705.781,1.705,1.64,0,1.11-1.045,1.947-2.441,1.947-1.034,0-1.947-.242-2.607-.693h0Z"></path>
    <path class="uuid-6a8cb13a-e473-4b23-8cd7-6fde17270ddc" d="M156.896,379.805v-2.586h-1.101v-1.375h1.101v-1.573l1.782-.363v1.937h1.518v1.375h-1.518v2.233c0,.506.198.683.748.683.209,0,.374-.022.726-.121v1.44c-.33.1-.857.177-1.221.177-1.342,0-2.035-.616-2.035-1.826h0Z"></path>
    <path class="uuid-6a8cb13a-e473-4b23-8cd7-6fde17270ddc" d="M160.878,378.694c0-1.661,1.231-2.938,2.86-2.938,1.639,0,2.794,1.243,2.794,3.003v.386h-3.905c.165.638.682,1.066,1.331,1.066.473,0,.869-.165,1.122-.473l1.178.979c-.737.648-1.431.913-2.388.913-1.672,0-2.992-1.287-2.992-2.938v.002ZM164.882,378.132c-.153-.604-.583-.99-1.155-.99-.561,0-.957.363-1.1.99h2.255Z"></path>
    <path class="uuid-6a8cb13a-e473-4b23-8cd7-6fde17270ddc" d="M167.643,375.844h1.782v1.287c.363-.946.869-1.397,1.54-1.397.253.012.374.033.594.144v1.529c-.22-.11-.527-.177-.836-.177-.528,0-1.012.275-1.298.704v3.587h-1.782v-5.677h0Z"></path>
  </g>
  <g>
    <path class="uuid-6a8cb13a-e473-4b23-8cd7-6fde17270ddc" d="M88.07,191.17h1.959l2.688,6.996h-1.858l-.58-1.669h-2.559l-.59,1.669h-1.789s2.729-6.996,2.729-6.996ZM89.819,195.168l-.81-2.319-.819,2.319h1.629Z"></path>
    <path class="uuid-6a8cb13a-e473-4b23-8cd7-6fde17270ddc" d="M93.372,193.009h1.599v.72c.34-.46.91-.75,1.529-.75,1.27,0,2.279,1.17,2.279,2.619s-1.06,2.599-2.399,2.599c-.56,0-1.049-.21-1.389-.6v2.658h-1.619s0-7.246,0-7.246ZM97.189,195.588c0-.73-.529-1.27-1.229-1.27-.399,0-.709.14-.969.42v1.719c.25.26.59.41.969.41.71,0,1.229-.54,1.229-1.279h0Z"></path>
    <path class="uuid-6a8cb13a-e473-4b23-8cd7-6fde17270ddc" d="M99.812,193.009h1.599v.72c.34-.46.91-.75,1.529-.75,1.27,0,2.279,1.17,2.279,2.619s-1.06,2.599-2.399,2.599c-.56,0-1.049-.21-1.389-.6v2.658h-1.619s0-7.246,0-7.246ZM103.629,195.588c0-.73-.529-1.27-1.229-1.27-.399,0-.709.14-.969.42v1.719c.25.26.59.41.969.41.71,0,1.229-.54,1.229-1.279h0Z"></path>
    <path class="uuid-6a8cb13a-e473-4b23-8cd7-6fde17270ddc" d="M106.251,191.05l1.619-.25v7.366h-1.619v-7.116Z"></path>
    <path class="uuid-6a8cb13a-e473-4b23-8cd7-6fde17270ddc" d="M109.031,191.309c0-.5.41-.909.91-.909s.909.409.909.909-.41.91-.909.91-.91-.41-.91-.91ZM109.131,193.009h1.619v5.157h-1.619v-5.157Z"></path>
    <path class="uuid-6a8cb13a-e473-4b23-8cd7-6fde17270ddc" d="M111.781,195.597c0-1.51,1.16-2.669,2.669-2.669.85,0,1.629.34,2.148.949l-.989.99c-.33-.39-.659-.56-1.1-.56-.64,0-1.119.549-1.119,1.289s.479,1.289,1.119,1.289c.44,0,.77-.17,1.1-.56l.989.989c-.52.609-1.299.949-2.148.949-1.509,0-2.669-1.159-2.669-2.668v.002Z"></path>
    <path class="uuid-6a8cb13a-e473-4b23-8cd7-6fde17270ddc" d="M117.161,196.686c0-.949.739-1.499,2.009-1.499.37,0,.74.07,1.199.24v-.42c0-.5-.329-.75-1.02-.75-.39,0-.849.11-1.449.36l-.56-1.13c.85-.38,1.609-.56,2.369-.56,1.429,0,2.259.71,2.259,1.939v3.298h-1.6v-.45c-.449.38-.879.53-1.429.53-1.05,0-1.779-.64-1.779-1.56v.002ZM119.44,197.177c.34,0,.649-.09.929-.26v-.66c-.3-.069-.589-.109-.889-.109-.53,0-.83.18-.83.51s.29.52.79.52h0Z"></path>
    <path class="uuid-6a8cb13a-e473-4b23-8cd7-6fde17270ddc" d="M123.721,196.606v-2.349h-1v-1.249h1v-1.429l1.619-.33v1.759h1.379v1.249h-1.379v2.029c0,.46.18.619.68.619.189,0,.34-.02.659-.109v1.31c-.3.09-.779.159-1.109.159-1.22,0-1.849-.56-1.849-1.659h0Z"></path>
    <path class="uuid-6a8cb13a-e473-4b23-8cd7-6fde17270ddc" d="M127.521,191.309c0-.5.41-.909.91-.909s.909.409.909.909-.41.91-.909.91-.91-.41-.91-.91ZM127.622,193.009h1.619v5.157h-1.619s0-5.157,0-5.157Z"></path>
    <path class="uuid-6a8cb13a-e473-4b23-8cd7-6fde17270ddc" d="M130.271,195.597c0-1.52,1.16-2.669,2.688-2.669s2.688,1.149,2.688,2.669-1.159,2.668-2.688,2.668-2.688-1.149-2.688-2.668ZM134.069,195.597c0-.77-.459-1.319-1.109-1.319s-1.109.55-1.109,1.319.46,1.319,1.109,1.319,1.109-.55,1.109-1.319Z"></path>
    <path class="uuid-6a8cb13a-e473-4b23-8cd7-6fde17270ddc" d="M136.681,193.009h1.619v.84c.399-.6.959-.92,1.629-.92.999,0,1.709.729,1.709,1.759v3.479h-1.619v-3.009c0-.579-.34-.959-.859-.959-.35,0-.63.14-.859.43v3.538h-1.619v-5.157h-.001Z"></path>
  </g>
  <g>
    <path class="uuid-6a8cb13a-e473-4b23-8cd7-6fde17270ddc" d="M137.574,225.189h3.108c1.389,0,2.338.859,2.338,2.119,0,.909-.539,1.619-1.389,1.919l1.479,2.958h-1.33l-1.349-2.799h-1.659v2.799h-1.199v-6.996h.001ZM140.572,228.428c.75,0,1.239-.439,1.239-1.109,0-.68-.489-1.119-1.239-1.119h-1.799v2.229h1.799Z"></path>
    <path class="uuid-6a8cb13a-e473-4b23-8cd7-6fde17270ddc" d="M143.673,229.686c0-1.469,1.06-2.588,2.438-2.588,1.369,0,2.369,1.089,2.369,2.588v.271h-3.698c.11.81.72,1.399,1.499,1.399.47,0,.91-.181,1.189-.47l.739.669c-.609.51-1.219.729-1.979.729-1.439,0-2.559-1.129-2.559-2.599h.002ZM147.412,229.257c-.12-.729-.64-1.239-1.31-1.239-.68,0-1.18.49-1.31,1.239h2.62Z"></path>
    <path class="uuid-6a8cb13a-e473-4b23-8cd7-6fde17270ddc" d="M149.234,231.605l.529-.749c.66.409,1.1.569,1.609.569.6,0,1.01-.279,1.01-.68,0-.31-.21-.47-.7-.569l-.879-.15c-.979-.18-1.449-.629-1.449-1.379,0-.939.77-1.549,1.938-1.549.7,0,1.329.199,1.969.6l-.529.749c-.51-.329-1-.479-1.51-.479-.52,0-.859.22-.859.58,0,.319.181.459.7.55l.89.17c.999.18,1.479.64,1.479,1.389,0,.92-.879,1.629-2.049,1.629-.859,0-1.619-.239-2.148-.68h-.001Z"></path>
    <path class="uuid-6a8cb13a-e473-4b23-8cd7-6fde17270ddc" d="M154.293,229.686c0-1.479,1.079-2.588,2.519-2.588,1.43,0,2.509,1.109,2.509,2.588s-1.079,2.589-2.509,2.589c-1.439,0-2.519-1.109-2.519-2.589ZM158.211,229.686c0-.929-.59-1.629-1.399-1.629-.819,0-1.409.7-1.409,1.629,0,.939.59,1.63,1.409,1.63.81,0,1.399-.69,1.399-1.63Z"></path>
    <path class="uuid-6a8cb13a-e473-4b23-8cd7-6fde17270ddc" d="M160.453,230.476v-3.298h1.14v2.968c0,.74.43,1.21,1.1,1.21.45,0,.829-.2,1.09-.601v-3.577h1.129v5.007h-1.129v-.81c-.38.59-.92.89-1.59.89-1.02,0-1.739-.739-1.739-1.789h-.001Z"></path>
    <path class="uuid-6a8cb13a-e473-4b23-8cd7-6fde17270ddc" d="M166.312,227.179h1.13v1.079c.279-.76.76-1.17,1.379-1.17.19.011.32.03.49.101v.989c-.181-.07-.41-.12-.62-.12-.55,0-.999.31-1.249.83v3.298h-1.13v-5.007h0Z"></path>
    <path class="uuid-6a8cb13a-e473-4b23-8cd7-6fde17270ddc" d="M169.783,229.686c0-1.449,1.1-2.588,2.528-2.588.78,0,1.499.31,1.999.85l-.699.729c-.35-.39-.779-.59-1.26-.59-.81,0-1.439.699-1.439,1.599,0,.91.63,1.6,1.439,1.6.48,0,.91-.2,1.26-.58l.699.72c-.5.54-1.219.85-1.999.85-1.429,0-2.528-1.129-2.528-2.589h0Z"></path>
    <path class="uuid-6a8cb13a-e473-4b23-8cd7-6fde17270ddc" d="M174.863,229.686c0-1.469,1.06-2.588,2.438-2.588,1.369,0,2.369,1.089,2.369,2.588v.271h-3.698c.11.81.72,1.399,1.499,1.399.47,0,.91-.181,1.189-.47l.739.669c-.609.51-1.219.729-1.979.729-1.439,0-2.559-1.129-2.559-2.599h.002ZM178.601,229.257c-.12-.729-.64-1.239-1.31-1.239-.68,0-1.18.49-1.31,1.239h2.62Z"></path>
    <path class="uuid-6a8cb13a-e473-4b23-8cd7-6fde17270ddc" d="M180.423,231.605l.529-.749c.66.409,1.1.569,1.609.569.6,0,1.01-.279,1.01-.68,0-.31-.21-.47-.7-.569l-.879-.15c-.979-.18-1.449-.629-1.449-1.379,0-.939.77-1.549,1.938-1.549.7,0,1.329.199,1.969.6l-.529.749c-.51-.329-1-.479-1.51-.479-.52,0-.859.22-.859.58,0,.319.181.459.7.55l.89.17c.999.18,1.479.64,1.479,1.389,0,.92-.879,1.629-2.049,1.629-.859,0-1.619-.239-2.148-.68h-.001Z"></path>
  </g>
  <rect class="uuid-1f8992e0-4a02-4059-bd66-5300446d6957" x="51.638" y="399.652" width="151.053" height="37.911"></rect>
  <rect class="uuid-4015fe53-a7ee-458b-8607-3849850f4d78" x="222.111" y="22.161" width="151.053" height="48.421"></rect>
  <g>
    <path class="uuid-1f8992e0-4a02-4059-bd66-5300446d6957" d="M277.497,41.892h3.74c1.584,0,2.718,1.023,2.718,2.453,0,.979-.562,1.771-1.431,2.156l1.617,3.092h-2.112l-1.397-2.827h-1.243v2.827h-1.892v-7.701h0ZM281.062,45.281c.583,0,.979-.363.979-.913s-.396-.913-.979-.913h-1.673v1.826s1.673,0,1.673,0Z"></path>
    <path class="uuid-1f8992e0-4a02-4059-bd66-5300446d6957" d="M285.119,41.892h1.893v2.992h3.113v-2.992h1.893v7.701h-1.893v-3.048h-3.113v3.048h-1.893v-7.701Z"></path>
    <path class="uuid-1f8992e0-4a02-4059-bd66-5300446d6957" d="M295.79,41.892h2.156l2.96,7.701h-2.047l-.638-1.837h-2.816l-.649,1.837h-1.969l3.003-7.701ZM297.716,46.293l-.892-2.552-.902,2.552h1.794Z"></path>
    <path class="uuid-1f8992e0-4a02-4059-bd66-5300446d6957" d="M301.036,45.743c0-2.244,1.771-3.972,4.06-3.972,1.232,0,2.453.583,3.124,1.496l-1.275,1.21c-.507-.682-1.122-1.022-1.849-1.022-1.199,0-2.102.979-2.102,2.288s.902,2.288,2.102,2.288c.727,0,1.342-.341,1.849-1.022l1.275,1.21c-.671.913-1.892,1.496-3.124,1.496-2.288,0-4.06-1.728-4.06-3.972Z"></path>
    <path class="uuid-1f8992e0-4a02-4059-bd66-5300446d6957" d="M309.319,41.892h2.376l1.859,3.696,1.849-3.696h2.376v7.701h-1.782v-5.226l-2.465,4.676-2.475-4.72v5.27h-1.738s0-7.701,0-7.701Z"></path>
  </g>
  <rect class="uuid-1f8992e0-4a02-4059-bd66-5300446d6957" x="392.61" y="399.652" width="151.028" height="37.911"></rect>
  <g>
    <path class="uuid-6a8cb13a-e473-4b23-8cd7-6fde17270ddc" d="M93.579,286.999c0-2.019,1.589-3.608,3.618-3.608s3.618,1.59,3.618,3.608-1.59,3.608-3.618,3.608-3.618-1.59-3.618-3.608ZM99.045,286.999c0-1.189-.8-2.079-1.849-2.079s-1.849.89-1.849,2.079.8,2.079,1.849,2.079,1.849-.89,1.849-2.079Z"></path>
    <path class="uuid-6a8cb13a-e473-4b23-8cd7-6fde17270ddc" d="M101.899,285.34h1.599v.72c.34-.46.91-.75,1.529-.75,1.27,0,2.279,1.17,2.279,2.619s-1.06,2.599-2.399,2.599c-.56,0-1.049-.21-1.389-.6v2.658h-1.619v-7.246h0ZM105.716,287.919c0-.73-.529-1.27-1.229-1.27-.399,0-.709.14-.969.42v1.719c.25.26.59.41.969.41.71,0,1.229-.54,1.229-1.279h0Z"></path>
    <path class="uuid-6a8cb13a-e473-4b23-8cd7-6fde17270ddc" d="M108.108,287.929c0-1.51,1.12-2.669,2.599-2.669,1.489,0,2.539,1.13,2.539,2.729v.35h-3.548c.149.58.619.97,1.209.97.43,0,.79-.149,1.02-.43l1.069.89c-.67.59-1.299.829-2.169.829-1.519,0-2.719-1.169-2.719-2.668h0ZM111.747,287.419c-.141-.55-.53-.899-1.05-.899-.51,0-.869.329-.999.899h2.049Z"></path>
    <path class="uuid-6a8cb13a-e473-4b23-8cd7-6fde17270ddc" d="M114.258,285.34h1.619v.84c.399-.6.959-.92,1.629-.92.999,0,1.709.729,1.709,1.759v3.479h-1.619v-3.009c0-.579-.34-.959-.859-.959-.35,0-.63.14-.859.43v3.538h-1.619v-5.157h0Z"></path>
    <path class="uuid-6a8cb13a-e473-4b23-8cd7-6fde17270ddc" d="M119.999,289.548l.88-1.27c.97.68,1.579.93,2.269.93.74,0,1.189-.3,1.189-.74,0-.409-.239-.609-.919-.729l-1.489-.26c-1.109-.189-1.72-.89-1.72-1.879,0-1.359,1.04-2.209,2.779-2.209,1.079,0,2.148.351,2.868.92l-.87,1.249c-.68-.52-1.349-.77-2.089-.77-.68,0-1.069.28-1.069.66,0,.359.23.539.79.64l1.399.239c1.309.22,1.999.91,1.999,1.979,0,1.369-1.16,2.299-2.989,2.299-1.109,0-2.099-.37-3.028-1.06h0Z"></path>
    <path class="uuid-6a8cb13a-e473-4b23-8cd7-6fde17270ddc" d="M126.989,283.381l1.619-.25v3.049c.399-.6.959-.92,1.629-.92.999,0,1.709.729,1.709,1.759v3.479h-1.619v-3.009c0-.579-.34-.959-.859-.959-.35,0-.63.14-.859.43v3.538h-1.619v-7.116h-.001Z"></path>
    <path class="uuid-6a8cb13a-e473-4b23-8cd7-6fde17270ddc" d="M133.068,283.64c0-.5.41-.909.91-.909s.909.409.909.909-.41.91-.909.91-.91-.41-.91-.91ZM133.168,285.34h1.619v5.157h-1.619v-5.157Z"></path>
    <path class="uuid-6a8cb13a-e473-4b23-8cd7-6fde17270ddc" d="M136.808,286.589h-1.07v-1.249h1.07v-.68c0-1.229.729-1.898,2.059-1.898.279,0,.649.04.859.1v1.329c-.29-.05-.439-.06-.62-.06-.459,0-.679.18-.679.56v.649h1.299v1.249h-1.299v3.908h-1.619v-3.908Z"></path>
    <path class="uuid-6a8cb13a-e473-4b23-8cd7-6fde17270ddc" d="M141.329,288.937v-2.349h-1v-1.249h1v-1.429l1.619-.33v1.759h1.379v1.249h-1.379v2.029c0,.46.18.619.68.619.189,0,.34-.02.659-.109v1.31c-.3.09-.779.159-1.109.159-1.22,0-1.849-.56-1.849-1.659Z"></path>
    <path class="uuid-6a8cb13a-e473-4b23-8cd7-6fde17270ddc" d="M147.528,283.501h2.849c1.959,0,3.519,1.56,3.519,3.498s-1.56,3.498-3.519,3.498h-2.849v-6.996h0ZM150.376,289.028c.97,0,1.739-.9,1.739-2.029s-.77-2.029-1.739-2.029h-1.129v4.059h1.129Z"></path>
    <path class="uuid-6a8cb13a-e473-4b23-8cd7-6fde17270ddc" d="M154.638,289.017c0-.949.739-1.499,2.009-1.499.37,0,.74.07,1.199.24v-.42c0-.5-.329-.75-1.02-.75-.39,0-.849.11-1.449.36l-.56-1.13c.85-.38,1.609-.56,2.369-.56,1.429,0,2.259.71,2.259,1.939v3.298h-1.6v-.45c-.449.38-.879.53-1.429.53-1.05,0-1.779-.64-1.779-1.56v.002ZM156.917,289.508c.34,0,.649-.09.929-.26v-.66c-.3-.069-.589-.109-.889-.109-.53,0-.83.18-.83.51s.29.52.79.52h0Z"></path>
    <path class="uuid-6a8cb13a-e473-4b23-8cd7-6fde17270ddc" d="M161.198,288.937v-2.349h-1v-1.249h1v-1.429l1.619-.33v1.759h1.379v1.249h-1.379v2.029c0,.46.18.619.68.619.189,0,.34-.02.659-.109v1.31c-.3.09-.779.159-1.109.159-1.22,0-1.849-.56-1.849-1.659Z"></path>
    <path class="uuid-6a8cb13a-e473-4b23-8cd7-6fde17270ddc" d="M164.858,289.017c0-.949.739-1.499,2.009-1.499.37,0,.74.07,1.199.24v-.42c0-.5-.329-.75-1.02-.75-.39,0-.849.11-1.449.36l-.56-1.13c.85-.38,1.609-.56,2.369-.56,1.429,0,2.259.71,2.259,1.939v3.298h-1.6v-.45c-.449.38-.879.53-1.429.53-1.05,0-1.779-.64-1.779-1.56v.002ZM167.137,289.508c.34,0,.649-.09.929-.26v-.66c-.3-.069-.589-.109-.889-.109-.53,0-.83.18-.83.51s.29.52.79.52h0Z"></path>
    <path class="uuid-6a8cb13a-e473-4b23-8cd7-6fde17270ddc" d="M173.188,283.501h5.327v1.439h-3.607v1.379h2.519v1.399h-2.519v2.778h-1.72v-6.996h0Z"></path>
    <path class="uuid-6a8cb13a-e473-4b23-8cd7-6fde17270ddc" d="M178.538,287.929c0-1.52,1.16-2.669,2.688-2.669s2.688,1.149,2.688,2.669-1.159,2.668-2.688,2.668-2.688-1.149-2.688-2.668ZM182.335,287.929c0-.77-.459-1.319-1.109-1.319s-1.109.55-1.109,1.319.46,1.319,1.109,1.319,1.109-.55,1.109-1.319Z"></path>
    <path class="uuid-6a8cb13a-e473-4b23-8cd7-6fde17270ddc" d="M184.908,288.818v-3.479h1.619v3.009c0,.579.34.959.859.959.35,0,.63-.14.859-.43v-3.538h1.619v5.157h-1.619v-.84c-.399.6-.959.92-1.629.92-1,0-1.709-.729-1.709-1.759h.001Z"></path>
    <path class="uuid-6a8cb13a-e473-4b23-8cd7-6fde17270ddc" d="M191.128,285.34h1.619v.84c.399-.6.959-.92,1.629-.92.999,0,1.709.729,1.709,1.759v3.479h-1.619v-3.009c0-.579-.34-.959-.859-.959-.35,0-.63.14-.859.43v3.538h-1.619v-5.157h-.001Z"></path>
    <path class="uuid-6a8cb13a-e473-4b23-8cd7-6fde17270ddc" d="M197.078,287.908c0-1.449,1.06-2.599,2.399-2.599.539,0,1.029.221,1.379.62v-2.549l1.619-.25v7.366h-1.6v-.67c-.34.43-.909.7-1.519.7-1.27,0-2.279-1.17-2.279-2.619h.001ZM200.856,288.778v-1.739c-.25-.26-.59-.399-.96-.399-.709,0-1.229.539-1.229,1.279,0,.729.529,1.269,1.229,1.269.391,0,.71-.14.96-.409h0Z"></path>
    <path class="uuid-6a8cb13a-e473-4b23-8cd7-6fde17270ddc" d="M203.498,289.017c0-.949.739-1.499,2.009-1.499.37,0,.74.07,1.199.24v-.42c0-.5-.329-.75-1.02-.75-.39,0-.849.11-1.449.36l-.56-1.13c.85-.38,1.609-.56,2.369-.56,1.429,0,2.259.71,2.259,1.939v3.298h-1.6v-.45c-.449.38-.879.53-1.429.53-1.05,0-1.779-.64-1.779-1.56v.002ZM205.777,289.508c.34,0,.649-.09.929-.26v-.66c-.3-.069-.589-.109-.889-.109-.53,0-.83.18-.83.51s.29.52.79.52h0Z"></path>
    <path class="uuid-6a8cb13a-e473-4b23-8cd7-6fde17270ddc" d="M210.057,288.937v-2.349h-1v-1.249h1v-1.429l1.619-.33v1.759h1.379v1.249h-1.379v2.029c0,.46.18.619.68.619.189,0,.34-.02.659-.109v1.31c-.3.09-.779.159-1.109.159-1.22,0-1.849-.56-1.849-1.659Z"></path>
    <path class="uuid-6a8cb13a-e473-4b23-8cd7-6fde17270ddc" d="M213.857,283.64c0-.5.41-.909.91-.909s.909.409.909.909-.41.91-.909.91-.91-.41-.91-.91ZM213.958,285.34h1.619v5.157h-1.619v-5.157Z"></path>
    <path class="uuid-6a8cb13a-e473-4b23-8cd7-6fde17270ddc" d="M216.607,287.929c0-1.52,1.16-2.669,2.688-2.669s2.688,1.149,2.688,2.669-1.159,2.668-2.688,2.668-2.688-1.149-2.688-2.668ZM220.405,287.929c0-.77-.459-1.319-1.109-1.319s-1.109.55-1.109,1.319.46,1.319,1.109,1.319,1.109-.55,1.109-1.319Z"></path>
    <path class="uuid-6a8cb13a-e473-4b23-8cd7-6fde17270ddc" d="M223.018,285.34h1.619v.84c.399-.6.959-.92,1.629-.92.999,0,1.709.729,1.709,1.759v3.479h-1.619v-3.009c0-.579-.34-.959-.859-.959-.35,0-.63.14-.859.43v3.538h-1.619v-5.157h-.001Z"></path>
  </g>
  <g>
    <path class="uuid-6a8cb13a-e473-4b23-8cd7-6fde17270ddc" d="M241.696,412.278l.649-.88c.899.74,1.549,1.02,2.358,1.02.92,0,1.56-.47,1.56-1.119,0-.569-.34-.84-1.27-.999l-1.289-.22c-1.21-.221-1.799-.82-1.799-1.779,0-1.27,1.009-2.109,2.578-2.109,1.05,0,2.009.311,2.809.899l-.609.9c-.7-.53-1.449-.81-2.239-.81-.84,0-1.399.43-1.399.999,0,.51.32.77,1.08.89l1.249.21c1.409.25,2.068.869,2.068,1.929,0,1.289-1.139,2.199-2.808,2.199-1.1,0-2.05-.38-2.938-1.13h0Z"></path>
    <path class="uuid-6a8cb13a-e473-4b23-8cd7-6fde17270ddc" d="M248.175,415.416v-.979c.13.029.29.04.439.04.399,0,.64-.181.81-.57l.229-.56-1.889-5.057h1.249l1.279,3.708,1.39-3.708h1.239l-2.398,5.876c-.39.97-.85,1.319-1.789,1.319-.16,0-.36-.02-.56-.069h.001Z"></path>
    <path class="uuid-6a8cb13a-e473-4b23-8cd7-6fde17270ddc" d="M253.745,408.29h1.13v.819c.38-.59.93-.899,1.579-.899,1.029,0,1.749.729,1.749,1.789v3.298h-1.14v-2.979c0-.729-.43-1.199-1.1-1.199-.459,0-.829.21-1.089.609v3.568h-1.13v-5.007h.001Z"></path>
    <path class="uuid-6a8cb13a-e473-4b23-8cd7-6fde17270ddc" d="M259.335,410.798c0-1.449,1.1-2.588,2.528-2.588.78,0,1.499.31,1.999.85l-.699.729c-.35-.39-.78-.59-1.26-.59-.81,0-1.438.699-1.438,1.599,0,.91.629,1.6,1.438,1.6.479,0,.91-.2,1.26-.58l.699.72c-.5.54-1.219.85-1.999.85-1.429,0-2.528-1.129-2.528-2.589h0Z"></path>
    <path class="uuid-6a8cb13a-e473-4b23-8cd7-6fde17270ddc" d="M264.794,406.131l1.13-.2v3.179c.38-.59.93-.899,1.579-.899,1.029,0,1.749.729,1.749,1.789v3.298h-1.14v-2.979c0-.729-.43-1.199-1.1-1.199-.459,0-.829.21-1.089.609v3.568h-1.13v-7.166h.001Z"></path>
    <path class="uuid-6a8cb13a-e473-4b23-8cd7-6fde17270ddc" d="M270.614,408.29h1.13v1.079c.279-.76.76-1.17,1.379-1.17.19.011.32.03.49.101v.989c-.181-.07-.41-.12-.62-.12-.55,0-.999.31-1.249.83v3.298h-1.13v-5.007h0Z"></path>
    <path class="uuid-6a8cb13a-e473-4b23-8cd7-6fde17270ddc" d="M274.084,410.798c0-1.479,1.079-2.588,2.519-2.588,1.43,0,2.509,1.109,2.509,2.588s-1.079,2.589-2.509,2.589c-1.439,0-2.519-1.109-2.519-2.589ZM278.002,410.798c0-.929-.59-1.629-1.399-1.629-.819,0-1.409.7-1.409,1.629,0,.939.59,1.63,1.409,1.63.81,0,1.399-.69,1.399-1.63Z"></path>
    <path class="uuid-6a8cb13a-e473-4b23-8cd7-6fde17270ddc" d="M280.284,408.29h1.13v.819c.38-.59.93-.899,1.579-.899,1.029,0,1.749.729,1.749,1.789v3.298h-1.14v-2.979c0-.729-.43-1.199-1.1-1.199-.459,0-.829.21-1.089.609v3.568h-1.13v-5.007h.001Z"></path>
    <path class="uuid-6a8cb13a-e473-4b23-8cd7-6fde17270ddc" d="M285.875,410.798c0-1.479,1.079-2.588,2.519-2.588,1.43,0,2.509,1.109,2.509,2.588s-1.079,2.589-2.509,2.589c-1.439,0-2.519-1.109-2.519-2.589ZM289.792,410.798c0-.929-.59-1.629-1.399-1.629-.819,0-1.409.7-1.409,1.629,0,.939.59,1.63,1.409,1.63.81,0,1.399-.69,1.399-1.63Z"></path>
    <path class="uuid-6a8cb13a-e473-4b23-8cd7-6fde17270ddc" d="M292.034,411.588v-3.298h1.14v2.968c0,.74.43,1.21,1.1,1.21.45,0,.829-.2,1.09-.601v-3.577h1.129v5.007h-1.129v-.81c-.38.59-.92.89-1.59.89-1.02,0-1.739-.739-1.739-1.789h-.001Z"></path>
    <path class="uuid-6a8cb13a-e473-4b23-8cd7-6fde17270ddc" d="M297.445,412.717l.529-.749c.66.409,1.1.569,1.61.569.6,0,1.01-.279,1.01-.68,0-.31-.21-.47-.7-.569l-.879-.15c-.98-.18-1.45-.629-1.45-1.379,0-.939.77-1.549,1.939-1.549.7,0,1.329.199,1.969.6l-.529.749c-.51-.329-1-.479-1.509-.479-.521,0-.861.22-.861.58,0,.319.181.459.701.55l.89.17c.999.18,1.479.64,1.479,1.389,0,.92-.879,1.629-2.049,1.629-.86,0-1.62-.239-2.149-.68h0Z"></path>
    <path class="uuid-6a8cb13a-e473-4b23-8cd7-6fde17270ddc" d="M304.934,408.29h1.13v1.079c.279-.76.76-1.17,1.379-1.17.19.011.32.03.49.101v.989c-.18-.07-.41-.12-.62-.12-.55,0-.999.31-1.249.83v3.298h-1.13v-5.007h0Z"></path>
    <path class="uuid-6a8cb13a-e473-4b23-8cd7-6fde17270ddc" d="M308.404,410.798c0-1.469,1.06-2.588,2.438-2.588,1.369,0,2.369,1.089,2.369,2.588v.271h-3.698c.11.81.72,1.399,1.499,1.399.47,0,.91-.181,1.189-.47l.739.669c-.609.51-1.219.729-1.979.729-1.439,0-2.559-1.129-2.559-2.599h.002ZM312.143,410.368c-.12-.729-.64-1.239-1.31-1.239-.68,0-1.18.49-1.31,1.239h2.62Z"></path>
    <path class="uuid-6a8cb13a-e473-4b23-8cd7-6fde17270ddc" d="M314.364,408.29h1.109v.709c.36-.47.92-.749,1.56-.749,1.27,0,2.259,1.129,2.259,2.548,0,1.43-1.02,2.549-2.329,2.549-.589,0-1.109-.22-1.469-.64v2.679h-1.13v-7.096ZM318.183,410.798c0-.909-.64-1.599-1.489-1.599-.5,0-.909.2-1.199.56v2.089c.29.35.72.56,1.199.56.859,0,1.489-.689,1.489-1.609h0Z"></path>
    <path class="uuid-6a8cb13a-e473-4b23-8cd7-6fde17270ddc" d="M320.474,406.131l1.13-.2v7.366h-1.13v-7.166Z"></path>
    <path class="uuid-6a8cb13a-e473-4b23-8cd7-6fde17270ddc" d="M322.854,406.581c0-.38.31-.7.7-.7.379,0,.699.32.699.7s-.32.689-.699.689c-.391,0-.7-.311-.7-.689ZM322.984,408.29h1.13v5.007h-1.13v-5.007Z"></path>
    <path class="uuid-6a8cb13a-e473-4b23-8cd7-6fde17270ddc" d="M325.284,410.798c0-1.449,1.1-2.588,2.528-2.588.78,0,1.499.31,1.999.85l-.699.729c-.35-.39-.779-.59-1.26-.59-.81,0-1.439.699-1.439,1.599,0,.91.63,1.6,1.439,1.6.48,0,.91-.2,1.26-.58l.699.72c-.5.54-1.219.85-1.999.85-1.429,0-2.528-1.129-2.528-2.589h0Z"></path>
    <path class="uuid-6a8cb13a-e473-4b23-8cd7-6fde17270ddc" d="M330.484,411.858c0-.899.74-1.469,1.919-1.469.47,0,.91.1,1.35.319v-.56c0-.659-.38-.999-1.149-.999-.42,0-.88.12-1.459.39l-.4-.819c.75-.34,1.409-.51,2.079-.51,1.31,0,2.049.659,2.049,1.818v3.269h-1.119v-.52c-.43.42-.909.609-1.489.609-1.05,0-1.779-.63-1.779-1.529h-.002ZM332.573,412.587c.45,0,.84-.13,1.18-.419v-.81c-.359-.17-.72-.24-1.149-.24-.649,0-1.06.27-1.06.72,0,.46.4.749,1.029.749Z"></path>
    <path class="uuid-6a8cb13a-e473-4b23-8cd7-6fde17270ddc" d="M336.714,411.998v-2.809h-1v-.899h1v-1.38l1.129-.239v1.619h1.39v.899h-1.39v2.559c0,.489.19.68.7.68.22,0,.38-.03.68-.12v.949c-.29.09-.67.14-.97.14-1.01,0-1.539-.479-1.539-1.398h0Z"></path>
    <path class="uuid-6a8cb13a-e473-4b23-8cd7-6fde17270ddc" d="M340.094,406.581c0-.38.31-.7.7-.7.379,0,.699.32.699.7s-.32.689-.699.689c-.391,0-.7-.311-.7-.689ZM340.224,408.29h1.13v5.007h-1.13v-5.007Z"></path>
    <path class="uuid-6a8cb13a-e473-4b23-8cd7-6fde17270ddc" d="M342.523,410.798c0-1.479,1.079-2.588,2.519-2.588,1.43,0,2.509,1.109,2.509,2.588s-1.079,2.589-2.509,2.589c-1.439,0-2.519-1.109-2.519-2.589ZM346.441,410.798c0-.929-.59-1.629-1.399-1.629-.819,0-1.409.7-1.409,1.629,0,.939.59,1.63,1.409,1.63.81,0,1.399-.69,1.399-1.63Z"></path>
    <path class="uuid-6a8cb13a-e473-4b23-8cd7-6fde17270ddc" d="M348.724,408.29h1.13v.819c.38-.59.93-.899,1.579-.899,1.029,0,1.749.729,1.749,1.789v3.298h-1.14v-2.979c0-.729-.43-1.199-1.1-1.199-.459,0-.829.21-1.089.609v3.568h-1.13v-5.007h.001Z"></path>
  </g>
  <g>
    <path class="uuid-6a8cb13a-e473-4b23-8cd7-6fde17270ddc" d="M223.4,76.924h1.389l2.708,6.996h-1.29l-.719-1.959h-2.869l-.72,1.959h-1.249l2.749-6.996h0ZM225.159,81.021l-1.099-2.958-1.089,2.958h2.188Z"></path>
    <path class="uuid-6a8cb13a-e473-4b23-8cd7-6fde17270ddc" d="M228.071,82.211v-3.298h1.139v2.968c0,.74.43,1.21,1.1,1.21.45,0,.83-.2,1.089-.601v-3.577h1.129v5.007h-1.129v-.81c-.38.59-.919.89-1.589.89-1.02,0-1.739-.739-1.739-1.789h0Z"></path>
    <path class="uuid-6a8cb13a-e473-4b23-8cd7-6fde17270ddc" d="M234.55,82.621v-2.809h-1v-.899h1v-1.38l1.129-.239v1.619h1.39v.899h-1.39v2.559c0,.489.19.68.7.68.22,0,.38-.03.68-.12v.949c-.29.09-.67.14-.97.14-1.01,0-1.539-.479-1.539-1.398h0Z"></path>
    <path class="uuid-6a8cb13a-e473-4b23-8cd7-6fde17270ddc" d="M237.76,81.421c0-1.479,1.079-2.588,2.519-2.588,1.43,0,2.509,1.109,2.509,2.588s-1.079,2.589-2.509,2.589c-1.439,0-2.519-1.109-2.519-2.589ZM241.678,81.421c0-.929-.59-1.629-1.399-1.629-.819,0-1.409.7-1.409,1.629,0,.939.59,1.63,1.409,1.63.81,0,1.399-.69,1.399-1.63Z"></path>
    <path class="uuid-6a8cb13a-e473-4b23-8cd7-6fde17270ddc" d="M243.96,78.913h1.13v.789c.37-.569.869-.869,1.479-.869.689,0,1.219.369,1.479.959.39-.63.95-.959,1.659-.959.97,0,1.64.749,1.64,1.809v3.278h-1.13v-3.028c0-.699-.39-1.149-1.01-1.149-.409,0-.749.189-.999.6.01.1.02.2.02.3v3.278h-1.139v-3.028c0-.699-.39-1.149-1.01-1.149-.41,0-.739.189-.989.58v3.598h-1.13v-5.009Z"></path>
    <path class="uuid-6a8cb13a-e473-4b23-8cd7-6fde17270ddc" d="M252.46,82.48c0-.899.74-1.469,1.919-1.469.47,0,.91.1,1.35.319v-.56c0-.659-.38-.999-1.149-.999-.42,0-.88.12-1.459.39l-.4-.819c.75-.34,1.409-.51,2.079-.51,1.31,0,2.049.659,2.049,1.818v3.269h-1.119v-.52c-.43.42-.909.609-1.489.609-1.05,0-1.779-.63-1.779-1.529h-.002ZM254.549,83.21c.45,0,.84-.13,1.18-.419v-.81c-.359-.17-.72-.24-1.149-.24-.649,0-1.06.27-1.06.72,0,.46.4.749,1.029.749Z"></path>
    <path class="uuid-6a8cb13a-e473-4b23-8cd7-6fde17270ddc" d="M258.69,82.621v-2.809h-1v-.899h1v-1.38l1.129-.239v1.619h1.39v.899h-1.39v2.559c0,.489.19.68.7.68.22,0,.38-.03.68-.12v.949c-.29.09-.67.14-.97.14-1.01,0-1.539-.479-1.539-1.398h0Z"></path>
    <path class="uuid-6a8cb13a-e473-4b23-8cd7-6fde17270ddc" d="M261.9,81.421c0-1.469,1.06-2.588,2.438-2.588,1.369,0,2.369,1.089,2.369,2.588v.271h-3.698c.11.81.72,1.399,1.499,1.399.47,0,.91-.181,1.189-.47l.739.669c-.609.51-1.219.729-1.979.729-1.439,0-2.559-1.129-2.559-2.599h.002ZM265.638,80.991c-.12-.729-.64-1.239-1.31-1.239-.68,0-1.18.49-1.31,1.239h2.62Z"></path>
    <path class="uuid-6a8cb13a-e473-4b23-8cd7-6fde17270ddc" d="M267.65,81.421c0-1.429,1.029-2.548,2.339-2.548.569,0,1.089.229,1.459.649v-2.769l1.13-.2v7.366h-1.12v-.659c-.359.449-.919.709-1.549.709-1.27,0-2.259-1.129-2.259-2.549h0ZM271.448,82.471v-2.108c-.29-.34-.72-.54-1.189-.54-.859,0-1.499.68-1.499,1.599,0,.91.64,1.6,1.499,1.6.49,0,.899-.19,1.189-.55h0Z"></path>
    <path class="uuid-6a8cb13a-e473-4b23-8cd7-6fde17270ddc" d="M276.909,79.812h-1.079v-.899h1.079v-.86c0-1.089.61-1.679,1.729-1.679.279,0,.56.03.749.09v.96c-.249-.051-.399-.07-.6-.07-.52,0-.749.229-.749.72v.84h1.349v.899h-1.349v4.107h-1.13v-4.107h.001Z"></path>
    <path class="uuid-6a8cb13a-e473-4b23-8cd7-6fde17270ddc" d="M279.91,82.48c0-.899.74-1.469,1.919-1.469.47,0,.91.1,1.35.319v-.56c0-.659-.38-.999-1.149-.999-.42,0-.88.12-1.459.39l-.4-.819c.75-.34,1.409-.51,2.079-.51,1.31,0,2.049.659,2.049,1.818v3.269h-1.119v-.52c-.43.42-.909.609-1.489.609-1.05,0-1.779-.63-1.779-1.529h-.002ZM281.999,83.21c.45,0,.84-.13,1.18-.419v-.81c-.359-.17-.72-.24-1.149-.24-.649,0-1.06.27-1.06.72,0,.46.4.749,1.029.749Z"></path>
    <path class="uuid-6a8cb13a-e473-4b23-8cd7-6fde17270ddc" d="M285.53,77.204c0-.38.31-.7.7-.7.379,0,.699.32.699.7s-.32.689-.699.689c-.391,0-.7-.311-.7-.689ZM285.66,78.913h1.13v5.007h-1.13s0-5.007,0-5.007Z"></path>
    <path class="uuid-6a8cb13a-e473-4b23-8cd7-6fde17270ddc" d="M288.189,76.754l1.13-.2v7.366h-1.13v-7.166Z"></path>
    <path class="uuid-6a8cb13a-e473-4b23-8cd7-6fde17270ddc" d="M290.48,81.421c0-1.479,1.079-2.588,2.519-2.588,1.43,0,2.509,1.109,2.509,2.588s-1.079,2.589-2.509,2.589c-1.439,0-2.519-1.109-2.519-2.589ZM294.398,81.421c0-.929-.59-1.629-1.399-1.629-.819,0-1.409.7-1.409,1.629,0,.939.59,1.63,1.409,1.63.81,0,1.399-.69,1.399-1.63Z"></path>
    <path class="uuid-6a8cb13a-e473-4b23-8cd7-6fde17270ddc" d="M295.94,78.913h1.229l1.399,3.638,1.39-3.638h1.179l-2.059,5.007h-1.1s-2.038-5.007-2.038-5.007Z"></path>
    <path class="uuid-6a8cb13a-e473-4b23-8cd7-6fde17270ddc" d="M301.57,81.421c0-1.469,1.06-2.588,2.438-2.588,1.369,0,2.369,1.089,2.369,2.588v.271h-3.698c.11.81.72,1.399,1.499,1.399.47,0,.91-.181,1.189-.47l.739.669c-.609.51-1.219.729-1.979.729-1.439,0-2.559-1.129-2.559-2.599h.002ZM305.309,80.991c-.12-.729-.64-1.239-1.31-1.239-.68,0-1.18.49-1.31,1.239h2.62Z"></path>
    <path class="uuid-6a8cb13a-e473-4b23-8cd7-6fde17270ddc" d="M307.529,78.913h1.13v1.079c.279-.76.76-1.17,1.379-1.17.19.011.32.03.49.101v.989c-.18-.07-.41-.12-.62-.12-.55,0-.999.31-1.249.83v3.298h-1.13s0-5.007,0-5.007Z"></path>
    <path class="uuid-6a8cb13a-e473-4b23-8cd7-6fde17270ddc" d="M313.709,78.913h1.13v.789c.37-.569.869-.869,1.479-.869.689,0,1.219.369,1.479.959.39-.63.95-.959,1.659-.959.97,0,1.64.749,1.64,1.809v3.278h-1.13v-3.028c0-.699-.39-1.149-1.01-1.149-.409,0-.749.189-.999.6.01.1.02.2.02.3v3.278h-1.139v-3.028c0-.699-.39-1.149-1.01-1.149-.41,0-.739.189-.989.58v3.598h-1.13v-5.009Z"></path>
    <path class="uuid-6a8cb13a-e473-4b23-8cd7-6fde17270ddc" d="M322.21,82.48c0-.899.74-1.469,1.919-1.469.47,0,.91.1,1.35.319v-.56c0-.659-.38-.999-1.149-.999-.42,0-.88.12-1.459.39l-.4-.819c.75-.34,1.409-.51,2.079-.51,1.31,0,2.049.659,2.049,1.818v3.269h-1.119v-.52c-.43.42-.909.609-1.489.609-1.05,0-1.779-.63-1.779-1.529h-.002ZM324.299,83.21c.45,0,.84-.13,1.18-.419v-.81c-.359-.17-.72-.24-1.149-.24-.649,0-1.06.27-1.06.72,0,.46.4.749,1.029.749Z"></path>
    <path class="uuid-6a8cb13a-e473-4b23-8cd7-6fde17270ddc" d="M327.969,78.913h1.13v.819c.38-.59.93-.899,1.579-.899,1.029,0,1.749.729,1.749,1.789v3.298h-1.14v-2.979c0-.729-.43-1.199-1.1-1.199-.459,0-.829.21-1.089.609v3.568h-1.13v-5.007h.001Z"></path>
    <path class="uuid-6a8cb13a-e473-4b23-8cd7-6fde17270ddc" d="M333.529,82.48c0-.899.74-1.469,1.919-1.469.47,0,.91.1,1.35.319v-.56c0-.659-.38-.999-1.149-.999-.42,0-.88.12-1.459.39l-.4-.819c.75-.34,1.409-.51,2.079-.51,1.31,0,2.049.659,2.049,1.818v3.269h-1.119v-.52c-.43.42-.909.609-1.489.609-1.05,0-1.779-.63-1.779-1.529h-.002ZM335.618,83.21c.45,0,.84-.13,1.18-.419v-.81c-.359-.17-.72-.24-1.149-.24-.649,0-1.06.27-1.06.72,0,.46.4.749,1.029.749Z"></path>
    <path class="uuid-6a8cb13a-e473-4b23-8cd7-6fde17270ddc" d="M339.619,85.619l.39-.83c.59.29,1.069.42,1.569.42.84,0,1.279-.38,1.279-1.109v-.85c-.359.44-.909.7-1.539.7-1.27,0-2.259-1.13-2.259-2.549s1.029-2.528,2.339-2.528c.579,0,1.1.229,1.469.669v-.629h1.12v5.187c0,1.289-.84,2.009-2.359,2.009-.72,0-1.419-.18-2.009-.489h0ZM342.857,82.461v-2.099c-.29-.34-.72-.54-1.189-.54-.859,0-1.499.67-1.499,1.589,0,.91.64,1.6,1.499,1.6.49,0,.899-.2,1.189-.55Z"></path>
    <path class="uuid-6a8cb13a-e473-4b23-8cd7-6fde17270ddc" d="M345.149,81.421c0-1.469,1.06-2.588,2.438-2.588,1.369,0,2.369,1.089,2.369,2.588v.271h-3.698c.11.81.72,1.399,1.499,1.399.47,0,.91-.181,1.189-.47l.739.669c-.609.51-1.219.729-1.979.729-1.439,0-2.559-1.129-2.559-2.599h.002ZM348.888,80.991c-.12-.729-.64-1.239-1.31-1.239-.68,0-1.18.49-1.31,1.239h2.62Z"></path>
    <path class="uuid-6a8cb13a-e473-4b23-8cd7-6fde17270ddc" d="M351.108,78.913h1.13v.789c.37-.569.869-.869,1.479-.869.689,0,1.219.369,1.479.959.39-.63.95-.959,1.659-.959.97,0,1.64.749,1.64,1.809v3.278h-1.13v-3.028c0-.699-.39-1.149-1.01-1.149-.409,0-.749.189-.999.6.01.1.02.2.02.3v3.278h-1.139v-3.028c0-.699-.39-1.149-1.01-1.149-.41,0-.739.189-.989.58v3.598h-1.13v-5.009Z"></path>
    <path class="uuid-6a8cb13a-e473-4b23-8cd7-6fde17270ddc" d="M359.64,81.421c0-1.469,1.06-2.588,2.438-2.588,1.369,0,2.369,1.089,2.369,2.588v.271h-3.698c.11.81.72,1.399,1.499,1.399.47,0,.91-.181,1.189-.47l.739.669c-.609.51-1.219.729-1.979.729-1.439,0-2.559-1.129-2.559-2.599h.002ZM363.378,80.991c-.12-.729-.64-1.239-1.31-1.239-.68,0-1.18.49-1.31,1.239h2.62Z"></path>
    <path class="uuid-6a8cb13a-e473-4b23-8cd7-6fde17270ddc" d="M365.599,78.913h1.13v.819c.38-.59.93-.899,1.579-.899,1.029,0,1.749.729,1.749,1.789v3.298h-1.14v-2.979c0-.729-.43-1.199-1.1-1.199-.459,0-.829.21-1.089.609v3.568h-1.13v-5.007h.001Z"></path>
    <path class="uuid-6a8cb13a-e473-4b23-8cd7-6fde17270ddc" d="M371.889,82.621v-2.809h-.999v-.899h.999v-1.38l1.129-.239v1.619h1.39v.899h-1.39v2.559c0,.489.19.68.7.68.22,0,.38-.03.68-.12v.949c-.29.09-.67.14-.97.14-1.01,0-1.539-.479-1.539-1.398h0Z"></path>
    <path class="uuid-6a8cb13a-e473-4b23-8cd7-6fde17270ddc" d="M275.45,90.913h1.08l.879,3.527,1.04-3.527h.949l1.029,3.527.88-3.527h1.049l-1.349,5.007h-1.08l-1.02-3.528-1.009,3.528h-1.1l-1.35-5.007h.002Z"></path>
    <path class="uuid-6a8cb13a-e473-4b23-8cd7-6fde17270ddc" d="M283.14,89.204c0-.38.31-.7.7-.7.379,0,.699.32.699.7s-.32.689-.699.689c-.391,0-.7-.311-.7-.689ZM283.27,90.913h1.13v5.007h-1.13s0-5.007,0-5.007Z"></path>
    <path class="uuid-6a8cb13a-e473-4b23-8cd7-6fde17270ddc" d="M286.419,94.621v-2.809h-.999v-.899h.999v-1.38l1.129-.239v1.619h1.39v.899h-1.39v2.559c0,.489.19.68.7.68.22,0,.38-.03.68-.12v.949c-.29.09-.67.14-.97.14-1.01,0-1.539-.479-1.539-1.398h0Z"></path>
    <path class="uuid-6a8cb13a-e473-4b23-8cd7-6fde17270ddc" d="M289.939,88.754l1.13-.2v3.179c.38-.59.93-.899,1.579-.899,1.029,0,1.749.729,1.749,1.789v3.298h-1.14v-2.979c0-.729-.43-1.199-1.1-1.199-.459,0-.829.21-1.089.609v3.568h-1.13v-7.166h.001Z"></path>
    <path class="uuid-6a8cb13a-e473-4b23-8cd7-6fde17270ddc" d="M300.119,88.924h1.389l2.709,6.996h-1.289l-.72-1.959h-2.868l-.72,1.959h-1.25l2.75-6.996h-.001ZM301.878,93.021l-1.1-2.958-1.089,2.958h2.189Z"></path>
    <path class="uuid-6a8cb13a-e473-4b23-8cd7-6fde17270ddc" d="M304.47,92.422c0-2.029,1.579-3.608,3.618-3.608,1.069,0,2.089.46,2.729,1.25l-.8.779c-.5-.62-1.189-.949-1.929-.949-1.359,0-2.389,1.089-2.389,2.528s1.029,2.528,2.389,2.528c.739,0,1.429-.329,1.929-.949l.8.779c-.64.79-1.659,1.25-2.729,1.25-2.039,0-3.618-1.579-3.618-3.608Z"></path>
    <path class="uuid-6a8cb13a-e473-4b23-8cd7-6fde17270ddc" d="M312.03,88.924h1.559l2.049,4.248,2.039-4.248h1.56v6.996h-1.13v-5.477l-2.479,4.977-2.488-5.007v5.507h-1.109v-6.996h0Z"></path>
  </g>
  <rect class="uuid-39151fb9-6a0c-4779-b683-82011fe60d0d" x="307.322" y="109.265" width="254.211" height="230.118"></rect>
  <rect class="uuid-1f8992e0-4a02-4059-bd66-5300446d6957" x="325.217" y="143.016" width="218.421" height="179.74"></rect>
  <rect class="uuid-39151fb9-6a0c-4779-b683-82011fe60d0d" x="342.059" y="179.858" width="184.737" height="84.371"></rect>
  <rect class="uuid-1f8992e0-4a02-4059-bd66-5300446d6957" x="358.901" y="210.008" width="151.053" height="37.911"></rect>
  <rect class="uuid-5328e72f-812c-4bf6-b01b-9e78dc3b2993" x="342.059" y="268.703" width="184.737" height="38.217"></rect>
  <g>
    <path class="uuid-6a8cb13a-e473-4b23-8cd7-6fde17270ddc" d="M472.073,121.288h3.135c2.156,0,3.873,1.716,3.873,3.851s-1.717,3.851-3.873,3.851h-3.135v-7.701h0ZM475.208,127.372c1.067,0,1.915-.99,1.915-2.233s-.848-2.233-1.915-2.233h-1.243v4.467h1.243Z"></path>
    <path class="uuid-6a8cb13a-e473-4b23-8cd7-6fde17270ddc" d="M479.894,127.361c0-1.046.814-1.65,2.212-1.65.407,0,.813.077,1.32.264v-.462c0-.55-.363-.825-1.122-.825-.43,0-.936.121-1.596.396l-.616-1.243c.936-.418,1.771-.616,2.607-.616,1.573,0,2.486.781,2.486,2.134v3.631h-1.76v-.495c-.495.418-.969.583-1.573.583-1.155,0-1.959-.704-1.959-1.716h.001ZM482.402,127.9c.374,0,.715-.1,1.023-.286v-.727c-.33-.077-.649-.121-.979-.121-.583,0-.913.198-.913.562s.319.572.869.572Z"></path>
    <path class="uuid-6a8cb13a-e473-4b23-8cd7-6fde17270ddc" d="M487.11,127.273v-2.586h-1.101v-1.375h1.101v-1.573l1.782-.363v1.937h1.518v1.375h-1.518v2.233c0,.506.198.683.748.683.209,0,.374-.022.726-.121v1.44c-.33.1-.857.177-1.221.177-1.342,0-2.035-.616-2.035-1.826h0Z"></path>
    <path class="uuid-6a8cb13a-e473-4b23-8cd7-6fde17270ddc" d="M491.136,127.361c0-1.046.814-1.65,2.212-1.65.407,0,.813.077,1.32.264v-.462c0-.55-.363-.825-1.122-.825-.43,0-.936.121-1.596.396l-.616-1.243c.936-.418,1.771-.616,2.607-.616,1.573,0,2.486.781,2.486,2.134v3.631h-1.76v-.495c-.495.418-.969.583-1.573.583-1.155,0-1.959-.704-1.959-1.716h.001ZM493.645,127.9c.374,0,.715-.1,1.023-.286v-.727c-.33-.077-.649-.121-.979-.121-.583,0-.913.198-.913.562s.319.572.869.572Z"></path>
    <path class="uuid-6a8cb13a-e473-4b23-8cd7-6fde17270ddc" d="M499.881,126.162c0-1.661,1.275-2.938,2.938-2.938.935,0,1.793.374,2.365,1.045l-1.09,1.089c-.362-.429-.726-.616-1.21-.616-.704,0-1.232.605-1.232,1.42s.528,1.419,1.232,1.419c.484,0,.848-.188,1.21-.616l1.09,1.089c-.572.672-1.431,1.046-2.365,1.046-1.662,0-2.938-1.276-2.938-2.938Z"></path>
    <path class="uuid-6a8cb13a-e473-4b23-8cd7-6fde17270ddc" d="M505.645,126.162c0-1.661,1.231-2.938,2.86-2.938,1.639,0,2.794,1.243,2.794,3.003v.386h-3.905c.165.638.682,1.066,1.331,1.066.473,0,.869-.165,1.122-.473l1.178.979c-.737.648-1.431.913-2.388.913-1.673,0-2.992-1.287-2.992-2.938v.002ZM509.648,125.6c-.153-.604-.583-.99-1.155-.99-.561,0-.957.363-1.1.99h2.255Z"></path>
    <path class="uuid-6a8cb13a-e473-4b23-8cd7-6fde17270ddc" d="M512.41,123.312h1.782v.924c.439-.66,1.056-1.012,1.793-1.012,1.101,0,1.881.803,1.881,1.937v3.828h-1.782v-3.312c0-.638-.374-1.056-.945-1.056-.386,0-.693.153-.946.473v3.895h-1.782v-5.677h-.001Z"></path>
    <path class="uuid-6a8cb13a-e473-4b23-8cd7-6fde17270ddc" d="M519.791,127.273v-2.586h-1.101v-1.375h1.101v-1.573l1.782-.363v1.937h1.518v1.375h-1.518v2.233c0,.506.198.683.748.683.209,0,.374-.022.726-.121v1.44c-.33.1-.857.177-1.221.177-1.342,0-2.035-.616-2.035-1.826h0Z"></path>
    <path class="uuid-6a8cb13a-e473-4b23-8cd7-6fde17270ddc" d="M523.772,126.162c0-1.661,1.231-2.938,2.86-2.938,1.639,0,2.794,1.243,2.794,3.003v.386h-3.905c.165.638.682,1.066,1.331,1.066.473,0,.869-.165,1.122-.473l1.178.979c-.737.648-1.431.913-2.388.913-1.672,0-2.992-1.287-2.992-2.938v.002ZM527.776,125.6c-.153-.604-.583-.99-1.155-.99-.561,0-.957.363-1.1.99h2.255Z"></path>
    <path class="uuid-6a8cb13a-e473-4b23-8cd7-6fde17270ddc" d="M530.538,123.312h1.782v1.287c.363-.946.869-1.397,1.54-1.397.253.012.374.033.594.144v1.529c-.22-.11-.527-.177-.836-.177-.528,0-1.012.275-1.298.704v3.587h-1.782v-5.677Z"></path>
    <path class="uuid-6a8cb13a-e473-4b23-8cd7-6fde17270ddc" d="M537.633,127.779l3.256-3.224c.363-.353.518-.683.518-1.045,0-.495-.484-.869-1.134-.869-.692,0-1.243.264-1.947.946l-.946-1.155c.881-.837,1.882-1.266,2.949-1.266,1.639,0,2.728.892,2.728,2.233,0,.727-.308,1.342-1.001,2.014l-2.222,2.145,3.333-.011v1.441h-5.533v-1.21h-.001Z"></path>
  </g>
  <g>
    <path class="uuid-6a8cb13a-e473-4b23-8cd7-6fde17270ddc" d="M445.877,158.125h3.397c1.439,0,2.469.93,2.469,2.229,0,.89-.51,1.609-1.299,1.959l1.469,2.809h-1.919l-1.27-2.568h-1.129v2.568h-1.719v-6.996h.001ZM449.114,161.203c.53,0,.89-.33.89-.829s-.359-.83-.89-.83h-1.519v1.659h1.519Z"></path>
    <path class="uuid-6a8cb13a-e473-4b23-8cd7-6fde17270ddc" d="M452.807,158.125h1.719v2.719h2.828v-2.719h1.72v6.996h-1.72v-2.769h-2.828v2.769h-1.719v-6.996Z"></path>
    <path class="uuid-6a8cb13a-e473-4b23-8cd7-6fde17270ddc" d="M460.206,161.623c0-2.019,1.59-3.608,3.618-3.608s3.618,1.59,3.618,3.608-1.589,3.608-3.618,3.608-3.618-1.59-3.618-3.608ZM465.674,161.623c0-1.189-.8-2.079-1.85-2.079s-1.849.89-1.849,2.079.8,2.079,1.849,2.079,1.85-.89,1.85-2.079Z"></path>
    <path class="uuid-6a8cb13a-e473-4b23-8cd7-6fde17270ddc" d="M468.347,161.623c0-2.039,1.608-3.608,3.688-3.608,1.119,0,2.229.53,2.839,1.359l-1.16,1.1c-.459-.62-1.02-.93-1.679-.93-1.09,0-1.909.89-1.909,2.079s.819,2.079,1.909,2.079c.659,0,1.22-.311,1.679-.93l1.16,1.1c-.61.829-1.72,1.359-2.839,1.359-2.079,0-3.688-1.569-3.688-3.608Z"></path>
    <path class="uuid-6a8cb13a-e473-4b23-8cd7-6fde17270ddc" d="M475.876,158.125h3.418c1.489,0,2.469.97,2.469,2.309,0,1.27-.979,2.249-2.469,2.249h-1.698v2.438h-1.72v-6.996ZM478.984,161.314c.7,0,1.04-.38,1.04-.89,0-.5-.34-.88-1.03-.88h-1.398v1.77h1.389-.001Z"></path>
    <path class="uuid-6a8cb13a-e473-4b23-8cd7-6fde17270ddc" d="M484.746,162.553c0-1.51,1.16-2.669,2.669-2.669.85,0,1.629.34,2.148.949l-.989.99c-.33-.39-.659-.56-1.1-.56-.64,0-1.119.549-1.119,1.289s.479,1.289,1.119,1.289c.44,0,.77-.17,1.1-.56l.989.989c-.52.609-1.299.949-2.148.949-1.509,0-2.669-1.159-2.669-2.668v.002Z"></path>
    <path class="uuid-6a8cb13a-e473-4b23-8cd7-6fde17270ddc" d="M490.366,158.005l1.619-.25v7.366h-1.619v-7.116Z"></path>
    <path class="uuid-6a8cb13a-e473-4b23-8cd7-6fde17270ddc" d="M493.206,163.443v-3.479h1.619v3.009c0,.579.34.959.859.959.35,0,.63-.14.859-.43v-3.538h1.619v5.157h-1.619v-.84c-.399.6-.959.92-1.629.92-1,0-1.709-.729-1.709-1.759h.001Z"></path>
    <path class="uuid-6a8cb13a-e473-4b23-8cd7-6fde17270ddc" d="M499.006,164.592l.71-1.08c.739.39,1.159.52,1.658.52.46,0,.74-.159.74-.419,0-.2-.15-.311-.479-.37l-.99-.18c-.999-.19-1.519-.7-1.519-1.499,0-1.05.81-1.68,2.158-1.68.72,0,1.43.2,2.1.59l-.74,1.029c-.52-.3-.999-.439-1.479-.439-.391,0-.62.13-.62.35,0,.21.13.3.529.37l.97.18c1.02.189,1.55.71,1.55,1.489,0,1.01-.95,1.769-2.22,1.769-.939,0-1.769-.22-2.368-.629h0Z"></path>
    <path class="uuid-6a8cb13a-e473-4b23-8cd7-6fde17270ddc" d="M505.116,163.562v-2.349h-1v-1.249h1v-1.429l1.619-.33v1.759h1.379v1.249h-1.379v2.029c0,.46.18.619.68.619.189,0,.34-.02.659-.109v1.31c-.3.09-.779.159-1.109.159-1.22,0-1.849-.56-1.849-1.659h0Z"></path>
    <path class="uuid-6a8cb13a-e473-4b23-8cd7-6fde17270ddc" d="M508.735,162.553c0-1.51,1.12-2.669,2.599-2.669,1.489,0,2.539,1.13,2.539,2.729v.35h-3.548c.149.58.619.97,1.209.97.43,0,.79-.149,1.02-.43l1.069.89c-.67.59-1.299.829-2.169.829-1.519,0-2.719-1.169-2.719-2.668h0ZM512.374,162.043c-.141-.55-.53-.899-1.05-.899-.51,0-.869.329-.999.899h2.049Z"></path>
    <path class="uuid-6a8cb13a-e473-4b23-8cd7-6fde17270ddc" d="M514.886,159.964h1.619v1.169c.329-.859.789-1.269,1.399-1.269.229.01.34.029.539.13v1.389c-.199-.1-.479-.159-.76-.159-.479,0-.919.249-1.179.64v3.258h-1.619v-5.157h.001Z"></path>
    <path class="uuid-6a8cb13a-e473-4b23-8cd7-6fde17270ddc" d="M521.336,164.022l2.958-2.928c.33-.32.47-.62.47-.95,0-.449-.439-.789-1.029-.789-.63,0-1.129.239-1.769.859l-.859-1.05c.799-.759,1.709-1.149,2.678-1.149,1.489,0,2.479.81,2.479,2.029,0,.659-.28,1.22-.91,1.829l-2.019,1.949,3.028-.011v1.31h-5.027v-1.1h0Z"></path>
  </g>
  <g>
    <path class="uuid-6a8cb13a-e473-4b23-8cd7-6fde17270ddc" d="M361.649,191.17h1.959l2.688,6.996h-1.858l-.58-1.669h-2.559l-.59,1.669h-1.789l2.729-6.996h0ZM363.398,195.168l-.81-2.319-.819,2.319h1.629Z"></path>
    <path class="uuid-6a8cb13a-e473-4b23-8cd7-6fde17270ddc" d="M366.951,193.009h1.599v.72c.34-.46.91-.75,1.529-.75,1.27,0,2.279,1.17,2.279,2.619s-1.06,2.599-2.399,2.599c-.56,0-1.049-.21-1.389-.6v2.658h-1.619v-7.246ZM370.769,195.588c0-.73-.529-1.27-1.229-1.27-.399,0-.709.14-.969.42v1.719c.25.26.59.41.969.41.71,0,1.229-.54,1.229-1.279h0Z"></path>
    <path class="uuid-6a8cb13a-e473-4b23-8cd7-6fde17270ddc" d="M373.392,193.009h1.599v.72c.34-.46.91-.75,1.529-.75,1.27,0,2.279,1.17,2.279,2.619s-1.06,2.599-2.399,2.599c-.56,0-1.049-.21-1.389-.6v2.658h-1.619v-7.246ZM377.209,195.588c0-.73-.529-1.27-1.229-1.27-.399,0-.709.14-.969.42v1.719c.25.26.59.41.969.41.71,0,1.229-.54,1.229-1.279h0Z"></path>
    <path class="uuid-6a8cb13a-e473-4b23-8cd7-6fde17270ddc" d="M379.831,191.05l1.619-.25v7.366h-1.619v-7.116Z"></path>
    <path class="uuid-6a8cb13a-e473-4b23-8cd7-6fde17270ddc" d="M382.61,191.309c0-.5.41-.909.91-.909s.909.409.909.909-.41.91-.909.91-.91-.41-.91-.91ZM382.711,193.009h1.619v5.157h-1.619v-5.157Z"></path>
    <path class="uuid-6a8cb13a-e473-4b23-8cd7-6fde17270ddc" d="M385.36,195.597c0-1.51,1.16-2.669,2.669-2.669.85,0,1.629.34,2.148.949l-.989.99c-.33-.39-.659-.56-1.1-.56-.64,0-1.119.549-1.119,1.289s.479,1.289,1.119,1.289c.44,0,.77-.17,1.1-.56l.989.989c-.52.609-1.299.949-2.148.949-1.509,0-2.669-1.159-2.669-2.668v.002Z"></path>
    <path class="uuid-6a8cb13a-e473-4b23-8cd7-6fde17270ddc" d="M390.74,196.686c0-.949.739-1.499,2.009-1.499.37,0,.74.07,1.199.24v-.42c0-.5-.329-.75-1.02-.75-.39,0-.849.11-1.449.36l-.56-1.13c.85-.38,1.609-.56,2.369-.56,1.429,0,2.259.71,2.259,1.939v3.298h-1.6v-.45c-.449.38-.879.53-1.429.53-1.05,0-1.779-.64-1.779-1.56v.002ZM393.02,197.177c.34,0,.649-.09.929-.26v-.66c-.3-.069-.589-.109-.889-.109-.53,0-.83.18-.83.51s.29.52.79.52h0Z"></path>
    <path class="uuid-6a8cb13a-e473-4b23-8cd7-6fde17270ddc" d="M397.301,196.606v-2.349h-1v-1.249h1v-1.429l1.619-.33v1.759h1.379v1.249h-1.379v2.029c0,.46.18.619.68.619.189,0,.34-.02.659-.109v1.31c-.3.09-.779.159-1.109.159-1.22,0-1.849-.56-1.849-1.659h0Z"></path>
    <path class="uuid-6a8cb13a-e473-4b23-8cd7-6fde17270ddc" d="M401.101,191.309c0-.5.41-.909.91-.909s.909.409.909.909-.41.91-.909.91-.91-.41-.91-.91ZM401.201,193.009h1.619v5.157h-1.619v-5.157Z"></path>
    <path class="uuid-6a8cb13a-e473-4b23-8cd7-6fde17270ddc" d="M403.851,195.597c0-1.52,1.16-2.669,2.688-2.669s2.688,1.149,2.688,2.669-1.159,2.668-2.688,2.668-2.688-1.149-2.688-2.668ZM407.648,195.597c0-.77-.459-1.319-1.109-1.319s-1.109.55-1.109,1.319.46,1.319,1.109,1.319,1.109-.55,1.109-1.319Z"></path>
    <path class="uuid-6a8cb13a-e473-4b23-8cd7-6fde17270ddc" d="M410.261,193.009h1.619v.84c.399-.6.959-.92,1.629-.92.999,0,1.709.729,1.709,1.759v3.479h-1.619v-3.009c0-.579-.34-.959-.859-.959-.35,0-.63.14-.859.43v3.538h-1.619v-5.157h-.001Z"></path>
  </g>
  <g>
    <path class="uuid-6a8cb13a-e473-4b23-8cd7-6fde17270ddc" d="M411.152,225.189h3.108c1.389,0,2.338.859,2.338,2.119,0,.909-.539,1.619-1.389,1.919l1.479,2.958h-1.33l-1.349-2.799h-1.659v2.799h-1.199v-6.996h0ZM414.15,228.428c.75,0,1.239-.439,1.239-1.109,0-.68-.489-1.119-1.239-1.119h-1.799v2.229h1.799Z"></path>
    <path class="uuid-6a8cb13a-e473-4b23-8cd7-6fde17270ddc" d="M417.252,229.686c0-1.469,1.06-2.588,2.438-2.588,1.369,0,2.369,1.089,2.369,2.588v.271h-3.698c.11.81.72,1.399,1.499,1.399.47,0,.91-.181,1.189-.47l.739.669c-.609.51-1.219.729-1.979.729-1.439,0-2.559-1.129-2.559-2.599h.002ZM420.99,229.257c-.12-.729-.64-1.239-1.31-1.239-.68,0-1.18.49-1.31,1.239h2.62Z"></path>
    <path class="uuid-6a8cb13a-e473-4b23-8cd7-6fde17270ddc" d="M422.812,231.605l.529-.749c.66.409,1.1.569,1.609.569.6,0,1.01-.279,1.01-.68,0-.31-.21-.47-.7-.569l-.879-.15c-.979-.18-1.449-.629-1.449-1.379,0-.939.77-1.549,1.938-1.549.7,0,1.329.199,1.969.6l-.529.749c-.51-.329-1-.479-1.51-.479-.52,0-.859.22-.859.58,0,.319.181.459.7.55l.89.17c.999.18,1.479.64,1.479,1.389,0,.92-.879,1.629-2.049,1.629-.859,0-1.619-.239-2.148-.68h0Z"></path>
    <path class="uuid-6a8cb13a-e473-4b23-8cd7-6fde17270ddc" d="M427.872,229.686c0-1.479,1.079-2.588,2.519-2.588,1.43,0,2.509,1.109,2.509,2.588s-1.079,2.589-2.509,2.589c-1.439,0-2.519-1.109-2.519-2.589ZM431.79,229.686c0-.929-.59-1.629-1.399-1.629-.819,0-1.409.7-1.409,1.629,0,.939.59,1.63,1.409,1.63.81,0,1.399-.69,1.399-1.63Z"></path>
    <path class="uuid-6a8cb13a-e473-4b23-8cd7-6fde17270ddc" d="M434.031,230.476v-3.298h1.14v2.968c0,.74.43,1.21,1.1,1.21.45,0,.829-.2,1.09-.601v-3.577h1.129v5.007h-1.129v-.81c-.38.59-.92.89-1.59.89-1.02,0-1.739-.739-1.739-1.789h-.001Z"></path>
    <path class="uuid-6a8cb13a-e473-4b23-8cd7-6fde17270ddc" d="M439.891,227.179h1.13v1.079c.279-.76.76-1.17,1.379-1.17.19.011.32.03.49.101v.989c-.181-.07-.41-.12-.62-.12-.55,0-.999.31-1.249.83v3.298h-1.13v-5.007Z"></path>
    <path class="uuid-6a8cb13a-e473-4b23-8cd7-6fde17270ddc" d="M443.361,229.686c0-1.449,1.1-2.588,2.528-2.588.78,0,1.499.31,1.999.85l-.699.729c-.35-.39-.779-.59-1.26-.59-.81,0-1.439.699-1.439,1.599,0,.91.63,1.6,1.439,1.6.48,0,.91-.2,1.26-.58l.699.72c-.5.54-1.219.85-1.999.85-1.429,0-2.528-1.129-2.528-2.589h0Z"></path>
    <path class="uuid-6a8cb13a-e473-4b23-8cd7-6fde17270ddc" d="M448.441,229.686c0-1.469,1.06-2.588,2.438-2.588,1.369,0,2.369,1.089,2.369,2.588v.271h-3.698c.11.81.72,1.399,1.499,1.399.47,0,.91-.181,1.189-.47l.739.669c-.609.51-1.219.729-1.979.729-1.439,0-2.559-1.129-2.559-2.599h.002ZM452.18,229.257c-.12-.729-.64-1.239-1.31-1.239-.68,0-1.18.49-1.31,1.239h2.62Z"></path>
    <path class="uuid-6a8cb13a-e473-4b23-8cd7-6fde17270ddc" d="M454.002,231.605l.529-.749c.66.409,1.1.569,1.609.569.6,0,1.01-.279,1.01-.68,0-.31-.21-.47-.7-.569l-.879-.15c-.979-.18-1.449-.629-1.449-1.379,0-.939.77-1.549,1.938-1.549.7,0,1.329.199,1.969.6l-.529.749c-.51-.329-1-.479-1.51-.479-.52,0-.859.22-.859.58,0,.319.181.459.7.55l.89.17c.999.18,1.479.64,1.479,1.389,0,.92-.879,1.629-2.049,1.629-.859,0-1.619-.239-2.148-.68h0Z"></path>
  </g>
  <g>
    <path class="uuid-6a8cb13a-e473-4b23-8cd7-6fde17270ddc" d="M367.157,286.999c0-2.019,1.59-3.608,3.618-3.608s3.618,1.59,3.618,3.608-1.59,3.608-3.618,3.608-3.618-1.59-3.618-3.608ZM372.624,286.999c0-1.189-.8-2.079-1.849-2.079s-1.849.89-1.849,2.079.8,2.079,1.849,2.079,1.849-.89,1.849-2.079Z"></path>
    <path class="uuid-6a8cb13a-e473-4b23-8cd7-6fde17270ddc" d="M375.478,285.34h1.599v.72c.34-.46.91-.75,1.529-.75,1.27,0,2.279,1.17,2.279,2.619s-1.06,2.599-2.399,2.599c-.56,0-1.049-.21-1.389-.6v2.658h-1.619v-7.246h0ZM379.295,287.919c0-.73-.529-1.27-1.229-1.27-.399,0-.709.14-.969.42v1.719c.25.26.59.41.969.41.71,0,1.229-.54,1.229-1.279h0Z"></path>
    <path class="uuid-6a8cb13a-e473-4b23-8cd7-6fde17270ddc" d="M381.687,287.929c0-1.51,1.12-2.669,2.599-2.669,1.489,0,2.539,1.13,2.539,2.729v.35h-3.548c.149.58.619.97,1.209.97.43,0,.79-.149,1.02-.43l1.069.89c-.67.59-1.299.829-2.169.829-1.519,0-2.719-1.169-2.719-2.668h0ZM385.325,287.419c-.141-.55-.53-.899-1.05-.899-.51,0-.869.329-.999.899h2.049,0Z"></path>
    <path class="uuid-6a8cb13a-e473-4b23-8cd7-6fde17270ddc" d="M387.837,285.34h1.619v.84c.399-.6.959-.92,1.629-.92.999,0,1.709.729,1.709,1.759v3.479h-1.619v-3.009c0-.579-.34-.959-.859-.959-.35,0-.63.14-.859.43v3.538h-1.619v-5.157h-.001Z"></path>
    <path class="uuid-6a8cb13a-e473-4b23-8cd7-6fde17270ddc" d="M393.577,289.548l.88-1.27c.97.68,1.579.93,2.269.93.74,0,1.189-.3,1.189-.74,0-.409-.239-.609-.919-.729l-1.489-.26c-1.109-.189-1.72-.89-1.72-1.879,0-1.359,1.04-2.209,2.779-2.209,1.079,0,2.148.351,2.868.92l-.87,1.249c-.68-.52-1.349-.77-2.089-.77-.68,0-1.069.28-1.069.66,0,.359.23.539.79.64l1.399.239c1.309.22,1.999.91,1.999,1.979,0,1.369-1.16,2.299-2.989,2.299-1.109,0-2.099-.37-3.028-1.06h0Z"></path>
    <path class="uuid-6a8cb13a-e473-4b23-8cd7-6fde17270ddc" d="M400.567,283.381l1.619-.25v3.049c.399-.6.959-.92,1.629-.92.999,0,1.709.729,1.709,1.759v3.479h-1.619v-3.009c0-.579-.34-.959-.859-.959-.35,0-.63.14-.859.43v3.538h-1.619v-7.116h-.001Z"></path>
    <path class="uuid-6a8cb13a-e473-4b23-8cd7-6fde17270ddc" d="M406.646,283.64c0-.5.41-.909.91-.909s.909.409.909.909-.41.91-.909.91-.91-.41-.91-.91ZM406.747,285.34h1.619v5.157h-1.619v-5.157Z"></path>
    <path class="uuid-6a8cb13a-e473-4b23-8cd7-6fde17270ddc" d="M410.387,286.589h-1.07v-1.249h1.07v-.68c0-1.229.729-1.898,2.059-1.898.279,0,.649.04.859.1v1.329c-.29-.05-.439-.06-.62-.06-.459,0-.679.18-.679.56v.649h1.299v1.249h-1.299v3.908h-1.619v-3.908h0Z"></path>
    <path class="uuid-6a8cb13a-e473-4b23-8cd7-6fde17270ddc" d="M414.907,288.937v-2.349h-1v-1.249h1v-1.429l1.619-.33v1.759h1.379v1.249h-1.379v2.029c0,.46.18.619.68.619.189,0,.34-.02.659-.109v1.31c-.3.09-.779.159-1.109.159-1.22,0-1.849-.56-1.849-1.659h0Z"></path>
    <path class="uuid-6a8cb13a-e473-4b23-8cd7-6fde17270ddc" d="M421.106,283.501h2.849c1.959,0,3.519,1.56,3.519,3.498s-1.56,3.498-3.519,3.498h-2.849v-6.996h0ZM423.955,289.028c.97,0,1.739-.9,1.739-2.029s-.77-2.029-1.739-2.029h-1.129v4.059h1.129Z"></path>
    <path class="uuid-6a8cb13a-e473-4b23-8cd7-6fde17270ddc" d="M428.217,289.017c0-.949.739-1.499,2.009-1.499.37,0,.74.07,1.199.24v-.42c0-.5-.329-.75-1.02-.75-.39,0-.849.11-1.449.36l-.56-1.13c.85-.38,1.609-.56,2.369-.56,1.429,0,2.259.71,2.259,1.939v3.298h-1.6v-.45c-.449.38-.879.53-1.429.53-1.05,0-1.779-.64-1.779-1.56v.002ZM430.496,289.508c.34,0,.649-.09.929-.26v-.66c-.3-.069-.589-.109-.889-.109-.53,0-.83.18-.83.51s.29.52.79.52h0Z"></path>
    <path class="uuid-6a8cb13a-e473-4b23-8cd7-6fde17270ddc" d="M434.776,288.937v-2.349h-1v-1.249h1v-1.429l1.619-.33v1.759h1.379v1.249h-1.379v2.029c0,.46.18.619.68.619.189,0,.34-.02.659-.109v1.31c-.3.09-.779.159-1.109.159-1.22,0-1.849-.56-1.849-1.659h0Z"></path>
    <path class="uuid-6a8cb13a-e473-4b23-8cd7-6fde17270ddc" d="M438.437,289.017c0-.949.739-1.499,2.009-1.499.37,0,.74.07,1.199.24v-.42c0-.5-.329-.75-1.02-.75-.39,0-.849.11-1.449.36l-.56-1.13c.85-.38,1.609-.56,2.369-.56,1.429,0,2.259.71,2.259,1.939v3.298h-1.6v-.45c-.449.38-.879.53-1.429.53-1.05,0-1.779-.64-1.779-1.56v.002ZM440.716,289.508c.34,0,.649-.09.929-.26v-.66c-.3-.069-.589-.109-.889-.109-.53,0-.83.18-.83.51s.29.52.79.52h0Z"></path>
    <path class="uuid-6a8cb13a-e473-4b23-8cd7-6fde17270ddc" d="M446.767,283.501h5.327v1.439h-3.607v1.379h2.519v1.399h-2.519v2.778h-1.72v-6.996h0Z"></path>
    <path class="uuid-6a8cb13a-e473-4b23-8cd7-6fde17270ddc" d="M452.116,287.929c0-1.52,1.16-2.669,2.688-2.669s2.688,1.149,2.688,2.669-1.159,2.668-2.688,2.668-2.688-1.149-2.688-2.668ZM455.914,287.929c0-.77-.459-1.319-1.109-1.319s-1.109.55-1.109,1.319.46,1.319,1.109,1.319,1.109-.55,1.109-1.319Z"></path>
    <path class="uuid-6a8cb13a-e473-4b23-8cd7-6fde17270ddc" d="M458.486,288.818v-3.479h1.619v3.009c0,.579.34.959.859.959.35,0,.63-.14.859-.43v-3.538h1.619v5.157h-1.619v-.84c-.399.6-.959.92-1.629.92-1,0-1.709-.729-1.709-1.759h.001Z"></path>
    <path class="uuid-6a8cb13a-e473-4b23-8cd7-6fde17270ddc" d="M464.707,285.34h1.619v.84c.399-.6.959-.92,1.629-.92.999,0,1.709.729,1.709,1.759v3.479h-1.619v-3.009c0-.579-.34-.959-.859-.959-.35,0-.63.14-.859.43v3.538h-1.619v-5.157h-.001Z"></path>
    <path class="uuid-6a8cb13a-e473-4b23-8cd7-6fde17270ddc" d="M470.656,287.908c0-1.449,1.06-2.599,2.399-2.599.539,0,1.029.221,1.379.62v-2.549l1.619-.25v7.366h-1.6v-.67c-.34.43-.909.7-1.519.7-1.27,0-2.279-1.17-2.279-2.619h.001ZM474.435,288.778v-1.739c-.25-.26-.59-.399-.96-.399-.709,0-1.229.539-1.229,1.279,0,.729.529,1.269,1.229,1.269.391,0,.71-.14.96-.409h0Z"></path>
    <path class="uuid-6a8cb13a-e473-4b23-8cd7-6fde17270ddc" d="M477.076,289.017c0-.949.739-1.499,2.009-1.499.37,0,.74.07,1.199.24v-.42c0-.5-.329-.75-1.02-.75-.39,0-.849.11-1.449.36l-.56-1.13c.85-.38,1.609-.56,2.369-.56,1.429,0,2.259.71,2.259,1.939v3.298h-1.6v-.45c-.449.38-.879.53-1.429.53-1.05,0-1.779-.64-1.779-1.56v.002ZM479.355,289.508c.34,0,.649-.09.929-.26v-.66c-.3-.069-.589-.109-.889-.109-.53,0-.83.18-.83.51s.29.52.79.52h0Z"></path>
    <path class="uuid-6a8cb13a-e473-4b23-8cd7-6fde17270ddc" d="M483.636,288.937v-2.349h-1v-1.249h1v-1.429l1.619-.33v1.759h1.379v1.249h-1.379v2.029c0,.46.18.619.68.619.189,0,.34-.02.659-.109v1.31c-.3.09-.779.159-1.109.159-1.22,0-1.849-.56-1.849-1.659h0Z"></path>
    <path class="uuid-6a8cb13a-e473-4b23-8cd7-6fde17270ddc" d="M487.436,283.64c0-.5.41-.909.91-.909s.909.409.909.909-.41.91-.909.91-.91-.41-.91-.91ZM487.536,285.34h1.619v5.157h-1.619v-5.157Z"></path>
    <path class="uuid-6a8cb13a-e473-4b23-8cd7-6fde17270ddc" d="M490.186,287.929c0-1.52,1.16-2.669,2.688-2.669s2.688,1.149,2.688,2.669-1.159,2.668-2.688,2.668-2.688-1.149-2.688-2.668ZM493.983,287.929c0-.77-.459-1.319-1.109-1.319s-1.109.55-1.109,1.319.46,1.319,1.109,1.319,1.109-.55,1.109-1.319Z"></path>
    <path class="uuid-6a8cb13a-e473-4b23-8cd7-6fde17270ddc" d="M496.597,285.34h1.619v.84c.399-.6.959-.92,1.629-.92.999,0,1.709.729,1.709,1.759v3.479h-1.619v-3.009c0-.579-.34-.959-.859-.959-.35,0-.63.14-.859.43v3.538h-1.619v-5.157h-.001Z"></path>
  </g>
  <g>
    <line class="uuid-cb8a65e0-471a-4caa-ba0b-fa6fc4ec4cfc" x1="208.073" y1="418.608" x2="387.227" y2="418.608"></line>
    <polygon class="uuid-6a8cb13a-e473-4b23-8cd7-6fde17270ddc" points="209.167 422.348 202.69 418.608 209.167 414.868 209.167 422.348"></polygon>
    <polygon class="uuid-6a8cb13a-e473-4b23-8cd7-6fde17270ddc" points="386.133 422.348 392.609 418.608 386.133 414.868 386.133 422.348"></polygon>
  </g>
  <g>
    <line class="uuid-cb8a65e0-471a-4caa-ba0b-fa6fc4ec4cfc" x1="160.848" y1="328.925" x2="160.848" y2="356.055"></line>
    <polygon class="uuid-6a8cb13a-e473-4b23-8cd7-6fde17270ddc" points="157.109 330.019 160.848 323.543 164.588 330.019 157.109 330.019"></polygon>
    <polygon class="uuid-6a8cb13a-e473-4b23-8cd7-6fde17270ddc" points="157.109 354.961 160.848 361.437 164.588 354.961 157.109 354.961"></polygon>
  </g>
  <g>
    <line class="uuid-cb8a65e0-471a-4caa-ba0b-fa6fc4ec4cfc" x1="434.427" y1="328.925" x2="434.427" y2="356.055"></line>
    <polygon class="uuid-6a8cb13a-e473-4b23-8cd7-6fde17270ddc" points="430.688 330.019 434.427 323.543 438.167 330.019 430.688 330.019"></polygon>
    <polygon class="uuid-6a8cb13a-e473-4b23-8cd7-6fde17270ddc" points="430.688 354.961 434.427 361.437 438.167 354.961 430.688 354.961"></polygon>
  </g>
  <g>
    <polyline class="uuid-988a665b-06a6-4cd6-a575-d3294dc9d624" points="189.533 174.476 189.533 46.293 222.111 46.293"></polyline>
    <polygon class="uuid-4015fe53-a7ee-458b-8607-3849850f4d78" points="193.272 173.382 189.533 179.858 185.793 173.382 193.272 173.382"></polygon>
  </g>
  <g>
    <line class="uuid-86f9730c-fc83-4a88-bc62-8b4e75841530" x1="405.899" y1="174.476" x2="405.899" y2="172.976"></line>
    <line class="uuid-b48ff81a-cd39-4c9a-bfad-e3cbbbd6f523" x1="405.899" y1="169.923" x2="405.899" y2="49.319"></line>
    <polyline class="uuid-86f9730c-fc83-4a88-bc62-8b4e75841530" points="405.899 47.793 405.899 46.293 404.399 46.293"></polyline>
    <line class="uuid-005be39c-50d8-417b-844f-16a76babbe9b" x1="401.112" y1="46.293" x2="376.463" y2="46.293"></line>
    <line class="uuid-86f9730c-fc83-4a88-bc62-8b4e75841530" x1="374.82" y1="46.293" x2="373.32" y2="46.293"></line>
    <polygon class="uuid-4015fe53-a7ee-458b-8607-3849850f4d78" points="409.638 173.382 405.899 179.858 402.159 173.382 409.638 173.382"></polygon>
  </g>
  <g>
    <path class="uuid-6a8cb13a-e473-4b23-8cd7-6fde17270ddc" d="M108.729,420.359l.649-.88c.899.74,1.549,1.02,2.358,1.02.92,0,1.56-.47,1.56-1.119,0-.569-.34-.84-1.27-.999l-1.289-.22c-1.21-.221-1.799-.82-1.799-1.779,0-1.27,1.009-2.109,2.578-2.109,1.05,0,2.009.311,2.809.899l-.609.9c-.7-.53-1.449-.81-2.239-.81-.84,0-1.399.43-1.399.999,0,.51.32.77,1.08.89l1.249.21c1.409.25,2.068.869,2.068,1.929,0,1.289-1.139,2.199-2.808,2.199-1.1,0-2.05-.38-2.938-1.13h0Z"></path>
    <path class="uuid-6a8cb13a-e473-4b23-8cd7-6fde17270ddc" d="M116.028,420.079v-2.809h-1v-.899h1v-1.38l1.129-.239v1.619h1.39v.899h-1.39v2.559c0,.489.19.68.7.68.22,0,.38-.03.68-.12v.949c-.29.09-.67.14-.97.14-1.01,0-1.539-.479-1.539-1.398h0Z"></path>
    <path class="uuid-6a8cb13a-e473-4b23-8cd7-6fde17270ddc" d="M119.239,418.879c0-1.479,1.079-2.588,2.519-2.588,1.43,0,2.509,1.109,2.509,2.588s-1.079,2.589-2.509,2.589c-1.439,0-2.519-1.109-2.519-2.589ZM123.157,418.879c0-.929-.59-1.629-1.399-1.629-.819,0-1.409.7-1.409,1.629,0,.939.59,1.63,1.409,1.63.81,0,1.399-.69,1.399-1.63Z"></path>
    <path class="uuid-6a8cb13a-e473-4b23-8cd7-6fde17270ddc" d="M125.438,416.371h1.13v1.079c.279-.76.76-1.17,1.379-1.17.19.011.32.03.49.101v.989c-.181-.07-.41-.12-.62-.12-.55,0-.999.31-1.249.83v3.298h-1.13v-5.007h0Z"></path>
    <path class="uuid-6a8cb13a-e473-4b23-8cd7-6fde17270ddc" d="M128.958,419.939c0-.899.74-1.469,1.919-1.469.47,0,.91.1,1.35.319v-.56c0-.659-.38-.999-1.149-.999-.42,0-.88.12-1.459.39l-.4-.819c.75-.34,1.409-.51,2.079-.51,1.31,0,2.049.659,2.049,1.818v3.269h-1.119v-.52c-.43.42-.909.609-1.489.609-1.05,0-1.779-.63-1.779-1.529h-.002ZM131.046,420.668c.45,0,.84-.13,1.18-.419v-.81c-.359-.17-.72-.24-1.149-.24-.649,0-1.06.27-1.06.72,0,.46.4.749,1.029.749Z"></path>
    <path class="uuid-6a8cb13a-e473-4b23-8cd7-6fde17270ddc" d="M135.047,423.077l.39-.83c.59.29,1.069.42,1.569.42.84,0,1.279-.38,1.279-1.109v-.85c-.359.44-.909.7-1.539.7-1.27,0-2.259-1.13-2.259-2.549s1.029-2.528,2.339-2.528c.579,0,1.1.229,1.469.669v-.629h1.12v5.187c0,1.289-.84,2.009-2.359,2.009-.72,0-1.419-.18-2.009-.489h0ZM138.286,419.919v-2.099c-.29-.34-.72-.54-1.189-.54-.859,0-1.499.67-1.499,1.589,0,.91.64,1.6,1.499,1.6.49,0,.899-.2,1.189-.55Z"></path>
    <path class="uuid-6a8cb13a-e473-4b23-8cd7-6fde17270ddc" d="M140.578,418.879c0-1.469,1.06-2.588,2.438-2.588,1.369,0,2.369,1.089,2.369,2.588v.271h-3.698c.11.81.72,1.399,1.499,1.399.47,0,.91-.181,1.189-.47l.739.669c-.609.51-1.219.729-1.979.729-1.439,0-2.559-1.129-2.559-2.599h.002ZM144.316,418.45c-.12-.729-.64-1.239-1.31-1.239-.68,0-1.18.49-1.31,1.239h2.62Z"></path>
  </g>
  <g>
    <path class="uuid-6a8cb13a-e473-4b23-8cd7-6fde17270ddc" d="M449.688,420.359l.649-.88c.899.74,1.549,1.02,2.358,1.02.92,0,1.56-.47,1.56-1.119,0-.569-.34-.84-1.27-.999l-1.289-.22c-1.21-.221-1.799-.82-1.799-1.779,0-1.27,1.009-2.109,2.578-2.109,1.05,0,2.009.311,2.809.899l-.609.9c-.7-.53-1.449-.81-2.239-.81-.84,0-1.399.43-1.399.999,0,.51.32.77,1.08.89l1.249.21c1.409.25,2.068.869,2.068,1.929,0,1.289-1.139,2.199-2.808,2.199-1.1,0-2.05-.38-2.938-1.13h0Z"></path>
    <path class="uuid-6a8cb13a-e473-4b23-8cd7-6fde17270ddc" d="M456.987,420.079v-2.809h-1v-.899h1v-1.38l1.129-.239v1.619h1.39v.899h-1.39v2.559c0,.489.19.68.7.68.22,0,.38-.03.68-.12v.949c-.29.09-.67.14-.97.14-1.01,0-1.539-.479-1.539-1.398h0Z"></path>
    <path class="uuid-6a8cb13a-e473-4b23-8cd7-6fde17270ddc" d="M460.198,418.879c0-1.479,1.079-2.588,2.519-2.588,1.43,0,2.509,1.109,2.509,2.588s-1.079,2.589-2.509,2.589c-1.439,0-2.519-1.109-2.519-2.589ZM464.116,418.879c0-.929-.59-1.629-1.399-1.629-.819,0-1.409.7-1.409,1.629,0,.939.59,1.63,1.409,1.63.81,0,1.399-.69,1.399-1.63Z"></path>
    <path class="uuid-6a8cb13a-e473-4b23-8cd7-6fde17270ddc" d="M466.397,416.371h1.13v1.079c.279-.76.76-1.17,1.379-1.17.19.011.32.03.49.101v.989c-.181-.07-.41-.12-.62-.12-.55,0-.999.31-1.249.83v3.298h-1.13v-5.007h0Z"></path>
    <path class="uuid-6a8cb13a-e473-4b23-8cd7-6fde17270ddc" d="M469.917,419.939c0-.899.74-1.469,1.919-1.469.47,0,.91.1,1.35.319v-.56c0-.659-.38-.999-1.149-.999-.42,0-.88.12-1.459.39l-.4-.819c.75-.34,1.409-.51,2.079-.51,1.31,0,2.049.659,2.049,1.818v3.269h-1.119v-.52c-.43.42-.909.609-1.489.609-1.05,0-1.779-.63-1.779-1.529h-.002ZM472.006,420.668c.45,0,.84-.13,1.18-.419v-.81c-.359-.17-.72-.24-1.149-.24-.649,0-1.06.27-1.06.72,0,.46.4.749,1.029.749Z"></path>
    <path class="uuid-6a8cb13a-e473-4b23-8cd7-6fde17270ddc" d="M476.007,423.077l.39-.83c.59.29,1.069.42,1.569.42.84,0,1.279-.38,1.279-1.109v-.85c-.359.44-.909.7-1.539.7-1.27,0-2.259-1.13-2.259-2.549s1.029-2.528,2.339-2.528c.579,0,1.1.229,1.469.669v-.629h1.12v5.187c0,1.289-.84,2.009-2.359,2.009-.72,0-1.419-.18-2.009-.489h0ZM479.245,419.919v-2.099c-.29-.34-.72-.54-1.189-.54-.859,0-1.499.67-1.499,1.589,0,.91.64,1.6,1.499,1.6.49,0,.899-.2,1.189-.55Z"></path>
    <path class="uuid-6a8cb13a-e473-4b23-8cd7-6fde17270ddc" d="M481.537,418.879c0-1.469,1.06-2.588,2.438-2.588,1.369,0,2.369,1.089,2.369,2.588v.271h-3.698c.11.81.72,1.399,1.499,1.399.47,0,.91-.181,1.189-.47l.739.669c-.609.51-1.219.729-1.979.729-1.439,0-2.559-1.129-2.559-2.599h.002ZM485.275,418.45c-.12-.729-.64-1.239-1.31-1.239-.68,0-1.18.49-1.31,1.239h2.62Z"></path>
  </g>
</svg>