<svg id="uuid-9719e12d-60c9-4f10-88b3-3f33bbdcae66" data-name="Layer 1" xmlns="http://www.w3.org/2000/svg" width="841.89" height="407.903" viewBox="0 0 841.89 407.903">
  <defs>
    <style>
      .uuid-fa01260e-61ac-42e0-ac48-372377610f2c {
        fill: #be1818;
      }

      .uuid-259cd8aa-edc3-4dd6-b572-7152042a8c6e {
        fill: #a0c2e7;
      }

      .uuid-bf39178e-5fc7-422d-8fc2-51e31b70ebca {
        fill: #e6e6e6;
      }

      .uuid-5c2b5094-b334-49db-861c-5a2f2ce52f97, .uuid-ca2aacd9-77f9-44f5-bd9b-b05a1cd79853, .uuid-bdb4d9fb-aa01-4e89-be4b-1787ba8a7bcc, .uuid-08af89ae-b990-49b8-94c8-74f8dbb0356d, .uuid-008afe73-5e1e-41a3-97d2-0539a9c16da7 {
        stroke-miterlimit: 10;
      }

      .uuid-5c2b5094-b334-49db-861c-5a2f2ce52f97, .uuid-ca2aacd9-77f9-44f5-bd9b-b05a1cd79853, .uuid-f499ac32-51cb-4de8-ab4f-7b8e5904b8e4 {
        fill: #fff;
      }

      .uuid-5c2b5094-b334-49db-861c-5a2f2ce52f97, .uuid-008afe73-5e1e-41a3-97d2-0539a9c16da7 {
        stroke: #06c;
      }

      .uuid-13f3a5eb-8849-4a90-8a1a-6054889e5d47 {
        fill: #1d1d1b;
      }

      .uuid-d69a0ec4-83af-4e19-af2f-0c6feecf1a87 {
        fill: #d9e6b5;
      }

      .uuid-ca2aacd9-77f9-44f5-bd9b-b05a1cd79853 {
        stroke: #be0000;
        stroke-width: .75px;
      }

      .uuid-7111096a-66bd-4a66-bae0-22f3b5760a68 {
        fill: #06c;
      }

      .uuid-bdb4d9fb-aa01-4e89-be4b-1787ba8a7bcc {
        stroke: #be1818;
      }

      .uuid-bdb4d9fb-aa01-4e89-be4b-1787ba8a7bcc, .uuid-08af89ae-b990-49b8-94c8-74f8dbb0356d, .uuid-008afe73-5e1e-41a3-97d2-0539a9c16da7 {
        fill: none;
      }

      .uuid-08af89ae-b990-49b8-94c8-74f8dbb0356d {
        stroke: #dcdcdc;
      }

      .uuid-b7cb4b1e-cc56-4e6b-82b4-901a61574b07 {
        fill: #b9acd5;
      }

      .uuid-ad874463-17ca-460e-8153-423752bf6791 {
        fill: #dce8f6;
      }
    </style>
  </defs>
  <rect class="uuid-f499ac32-51cb-4de8-ab4f-7b8e5904b8e4" x="-3.715" y="-1.403" width="849.32" height="412.355"></rect>
  <g>
    <rect id="uuid-d8b95212-11e7-43a5-88de-272e113f51d7" data-name="rect14" class="uuid-bf39178e-5fc7-422d-8fc2-51e31b70ebca" x="197.144" y="89.492" width="429.744" height="292.779"></rect>
    <rect id="uuid-615c24d6-14b9-4f40-89f6-17e833a5a057" data-name="rect16" class="uuid-7111096a-66bd-4a66-bae0-22f3b5760a68" x="209.91" y="25.632" width="178.615" height="34.621"></rect>
    <rect id="uuid-02b51170-e787-42f5-bae7-7f0371f1b1a6" data-name="rect100" class="uuid-259cd8aa-edc3-4dd6-b572-7152042a8c6e" x="428.381" y="101.393" width="72.37" height="182.262"></rect>
    <rect id="uuid-ff46a489-d01a-4fc9-9617-4a2a946c6197" data-name="rect102" class="uuid-259cd8aa-edc3-4dd6-b572-7152042a8c6e" x="540.606" y="101.356" width="72.37" height="268.53"></rect>
    <rect id="uuid-e21cf44c-d142-4417-b029-1d29708a46fd" data-name="rect106" class="uuid-b7cb4b1e-cc56-4e6b-82b4-901a61574b07" x="655.128" y="89.492" width="126.865" height="61.606"></rect>
    <g id="uuid-05deeedc-078b-4c1b-91ac-fdc11fa5a16f" data-name="g328">
      <polyline id="uuid-6032a1b1-0aa5-4200-955f-3965779eebbb" data-name="polyline324" class="uuid-008afe73-5e1e-41a3-97d2-0539a9c16da7" points="788.416 121.366 799.57 121.366 799.57 42.492"></polyline>
      <polygon id="uuid-784d3191-f029-43a9-a323-bda7f45a1728" data-name="polygon326" class="uuid-7111096a-66bd-4a66-bae0-22f3b5760a68" points="789.51 125.106 783.034 121.366 789.51 117.627 789.51 125.106"></polygon>
    </g>
    <line id="uuid-50930f8b-31fc-4881-a904-376ec8e07eb2" data-name="line330" class="uuid-008afe73-5e1e-41a3-97d2-0539a9c16da7" x1="800.019" y1="42.492" x2="389.075" y2="42.492"></line>
    <g id="uuid-b67e9c5c-0acc-49ea-9f54-e45ad40fc8c6" data-name="g348">
      <line id="uuid-40cc07ac-dd3d-4cda-b96f-95182578ce1e" data-name="line344" class="uuid-008afe73-5e1e-41a3-97d2-0539a9c16da7" x1="540.712" y1="192.523" x2="506.222" y2="192.523"></line>
      <polygon id="uuid-5923c411-5e1b-42ae-96f5-8f4192c10c38" data-name="polygon346" class="uuid-7111096a-66bd-4a66-bae0-22f3b5760a68" points="507.316 188.784 500.84 192.523 507.316 196.263 507.316 188.784"></polygon>
    </g>
    <g id="uuid-02360553-965c-4b1b-8b96-bb36a8d622b6" data-name="g450">
      <polyline id="uuid-b9bb7956-a090-4ee6-b008-549c74fcf8c3" data-name="polyline446" class="uuid-008afe73-5e1e-41a3-97d2-0539a9c16da7" points="464.623 96.011 464.623 67.777 718.56 67.777 718.56 89.492"></polyline>
      <polygon id="uuid-adefd189-2b9b-40ea-9fad-00d9de1b4e5d" data-name="polygon448" class="uuid-7111096a-66bd-4a66-bae0-22f3b5760a68" points="468.353 94.917 464.624 101.393 460.894 94.917 468.353 94.917"></polygon>
    </g>
    <g id="uuid-aff5d539-8eb6-4d8e-8227-191b7f45fa2e" data-name="g714">
      <g id="uuid-d62570db-55f4-4aef-8509-ed3b1c94d9de" data-name="g478">
        <rect id="uuid-c9a67712-2dc3-43e2-beaf-c065e57a70e7" data-name="rect452" class="uuid-7111096a-66bd-4a66-bae0-22f3b5760a68" x="669.526" y="214.277" width="24.855" height="16.527"></rect>
        <g id="uuid-18ce56cf-0623-4cd2-9b7e-790180c86f47" data-name="g476">
          <path id="uuid-a822943f-21c4-4bdf-af7b-a37b21644273" data-name="path454" class="uuid-13f3a5eb-8849-4a90-8a1a-6054889e5d47" d="M704.741,218.96h1.175l2.3,5.928h-1.092l-.6-1.66h-2.44l-.609,1.66h-1.059l2.325-5.928ZM706.223,222.432l-.914-2.524-.932,2.524h1.846Z"></path>
          <path id="uuid-25f16796-57c7-40e0-8d42-470d34eb7158" data-name="path456" class="uuid-13f3a5eb-8849-4a90-8a1a-6054889e5d47" d="M708.857,220.645h.941v.61c.31-.416.802-.656,1.32-.644,1.191.135,2.047,1.209,1.912,2.4-.117,1.03-.946,1.834-1.979,1.919-.474.01-.927-.191-1.237-.55v2.3h-.957v-6.035ZM709.814,221.89v1.77c.251.301.625.472,1.017.466.748-.05,1.315-.697,1.265-1.445-.045-.679-.586-1.219-1.265-1.265-.394-.012-.771.164-1.015.474h-.002Z"></path>
          <path id="uuid-6ff482e0-4e1e-4b41-bf5e-2dbb518f557a" data-name="path458" class="uuid-13f3a5eb-8849-4a90-8a1a-6054889e5d47" d="M714.033,220.645h.941v.61c.31-.416.802-.656,1.32-.644,1.191.135,2.047,1.209,1.912,2.4-.117,1.03-.946,1.834-1.979,1.919-.474.01-.927-.191-1.237-.55v2.3h-.957v-6.035ZM714.99,221.89v1.77c.251.301.625.472,1.017.466.748-.05,1.315-.697,1.265-1.445-.045-.679-.586-1.219-1.265-1.265-.395-.013-.773.163-1.017.474Z"></path>
          <path id="uuid-c6cadbc1-c01d-48dd-96d0-bb2bcbcfdb99" data-name="path460" class="uuid-13f3a5eb-8849-4a90-8a1a-6054889e5d47" d="M720.165,224.888h-.957v-6.055l.957-.161v6.216Z"></path>
          <path id="uuid-7ccfbb98-7243-4e7d-b1c7-e2f158b774ef" data-name="path462" class="uuid-13f3a5eb-8849-4a90-8a1a-6054889e5d47" d="M721.225,219.196c.036-.329.332-.568.661-.532.28.03.501.252.532.532-.036.329-.332.568-.661.532-.28-.03-.501-.252-.532-.532ZM722.3,224.888h-.957v-4.243h.957v4.243Z"></path>
          <path id="uuid-1aea7719-cb43-40be-b3e4-6d3b2e484869" data-name="path464" class="uuid-13f3a5eb-8849-4a90-8a1a-6054889e5d47" d="M726.509,223.66l.575.575c-.421.473-1.026.742-1.659.738-1.211-.026-2.172-1.029-2.146-2.24.025-1.175.972-2.121,2.146-2.147.639-.01,1.253.248,1.693.711l-.593.618c-.265-.316-.655-.498-1.067-.5-.748.077-1.291.746-1.214,1.493.067.651.588,1.162,1.239,1.217.395.008.772-.163,1.026-.465Z"></path>
          <path id="uuid-7e7bec41-dae0-408d-b8fc-7fb3eff7d424" data-name="path466" class="uuid-13f3a5eb-8849-4a90-8a1a-6054889e5d47" d="M727.694,223.668c0-.762.618-1.245,1.618-1.245.396,0,.787.09,1.143.263v-.469c0-.559-.321-.847-.974-.847-.431.018-.853.131-1.236.33l-.339-.694c.547-.274,1.15-.422,1.762-.432,1.1,0,1.736.559,1.736,1.541v2.77h-.949v-.432c-.338.328-.792.508-1.262.5-.734.089-1.401-.433-1.49-1.166-.005-.039-.008-.079-.009-.118ZM729.456,224.286c.364.009.72-.114,1-.347v-.694c-.307-.142-.644-.21-.982-.2-.542,0-.881.236-.881.609-.001.387.338.632.863.632h0Z"></path>
          <path id="uuid-f977b516-8440-4584-abc4-0994c0daa7fd" data-name="path468" class="uuid-13f3a5eb-8849-4a90-8a1a-6054889e5d47" d="M732.964,221.407h-.856v-.762h.856v-1.168l.957-.2v1.372h1.185v.762h-1.185v2.152c0,.414.16.575.593.575.196-.001.39-.035.575-.1v.805c-.267.077-.543.117-.821.118-.856,0-1.3-.406-1.3-1.185l-.004-2.369Z"></path>
          <path id="uuid-e6f487f6-b903-42bb-9198-a7c1000fcfb8" data-name="path470" class="uuid-13f3a5eb-8849-4a90-8a1a-6054889e5d47" d="M735.826,219.196c.033-.33.327-.57.657-.537.284.029.508.253.537.537-.033.33-.327.57-.657.537-.284-.029-.508-.253-.537-.537ZM736.901,224.888h-.957v-4.243h.957v4.243Z"></path>
          <path id="uuid-018e75a4-6bbc-4b31-a1e7-805844db9876" data-name="path472" class="uuid-13f3a5eb-8849-4a90-8a1a-6054889e5d47" d="M740.016,220.577c1.214-.036,2.229.919,2.265,2.133.036,1.214-.919,2.229-2.133,2.265s-2.229-.918-2.265-2.133c0-.024-.001-.047,0-.071-.042-1.169.872-2.151,2.041-2.193.031-.001.062-.002.093-.001ZM741.201,222.777c.103-.655-.345-1.269-.999-1.372-.655-.103-1.269.345-1.372.999-.019.123-.019.249,0,.372-.103.655.345,1.269.999,1.372.655.103,1.269-.345,1.372-.999.019-.123.019-.249,0-.372Z"></path>
          <path id="uuid-101fe36e-e915-434a-a474-06a71139b894" data-name="path474" class="uuid-13f3a5eb-8849-4a90-8a1a-6054889e5d47" d="M743.145,220.645h.957v.694c.279-.477.793-.768,1.346-.762.788-.022,1.445.599,1.467,1.388.001.043,0,.086-.002.128v2.8h-.957v-2.524c.057-.502-.304-.954-.806-1.011-.042-.005-.084-.007-.126-.005-.374-.001-.723.19-.922.507v3.033h-.957v-4.248Z"></path>
        </g>
      </g>
      <g id="uuid-013a1286-452a-4a7b-a1c4-1d9b578ff2a4" data-name="g542">
        <rect id="uuid-52ccb1cd-1ba2-400b-89de-5f9aa7da8754" data-name="rect480" class="uuid-bf39178e-5fc7-422d-8fc2-51e31b70ebca" x="669.526" y="185.536" width="24.855" height="16.527"></rect>
      </g>
      <g id="uuid-7653524a-a4f7-43f1-b48e-2f404e2f9493" data-name="g564">
        <rect id="uuid-117bdac9-b7ab-4a54-82ee-416e839a296d" data-name="rect544" class="uuid-259cd8aa-edc3-4dd6-b572-7152042a8c6e" x="669.526" y="239.157" width="24.855" height="16.527"></rect>
        <g id="uuid-36eb7f85-dbcb-4a30-b2c2-a978ddc674f9" data-name="g562">
          <path id="uuid-175915b2-2d2d-474c-84f6-03b834e8639c" data-name="path546" class="uuid-13f3a5eb-8849-4a90-8a1a-6054889e5d47" d="M705.8,249.859c-1.689.032-3.083-1.311-3.115-2.999-.032-1.689,1.311-3.083,2.999-3.115,1.689-.032,3.083,1.311,3.115,2.999,0,.02,0,.04,0,.059.031,1.657-1.287,3.025-2.943,3.055-.019,0-.038,0-.057,0ZM705.808,244.651c-1.186-.115-2.24.752-2.356,1.938s.752,2.24,1.938,2.356,2.24-.752,2.356-1.938c.007-.068.01-.136.01-.204.069-1.118-.782-2.081-1.901-2.15-.016,0-.031-.002-.047-.002h0Z"></path>
          <path id="uuid-ab9827f6-4745-4c3c-b45c-17e88e0664b5" data-name="path548" class="uuid-13f3a5eb-8849-4a90-8a1a-6054889e5d47" d="M709.823,245.523h.941v.611c.31-.416.802-.656,1.32-.644,1.123.06,1.984,1.019,1.924,2.142,0,.006,0,.011,0,.017.057,1.135-.816,2.101-1.95,2.158-.013,0-.026.001-.04.002-.474.01-.927-.191-1.237-.55v2.3h-.957v-6.036ZM710.78,246.769v1.77c.251.301.625.472,1.017.466.748-.05,1.315-.697,1.265-1.445-.045-.679-.586-1.219-1.265-1.265-.395-.013-.773.163-1.017.474h0Z"></path>
          <path id="uuid-f90ed148-bb68-4229-8742-083592b1b287" data-name="path550" class="uuid-13f3a5eb-8849-4a90-8a1a-6054889e5d47" d="M716.988,249.852c-1.191.001-2.158-.963-2.159-2.155,0-.015,0-.03,0-.045-.057-1.152.83-2.133,1.982-2.19.028-.001.056-.002.084-.003,1.124.013,2.025.935,2.012,2.059,0,.042-.002.084-.005.126v.237h-3.133c.07.651.615,1.149,1.27,1.16.377.01.741-.134,1.008-.4l.627.584c-.463.414-1.065.638-1.686.627ZM715.788,247.294h2.211c-.051-.582-.526-1.035-1.109-1.059-.586.017-1.064.474-1.105,1.059h.003Z"></path>
          <path id="uuid-f1a68310-cba4-4eed-89d0-bfb52a44ac2a" data-name="path552" class="uuid-13f3a5eb-8849-4a90-8a1a-6054889e5d47" d="M719.877,245.523h.957v.924c.117-.561.597-.972,1.169-1,.142.003.283.031.415.085v.839c-.167-.068-.345-.102-.525-.1-.46.003-.875.278-1.059.7v2.8h-.957v-4.248Z"></path>
          <path id="uuid-16c6f5c5-868e-4315-af82-7a8bee21a9bd" data-name="path554" class="uuid-13f3a5eb-8849-4a90-8a1a-6054889e5d47" d="M722.85,248.547c0-.762.618-1.245,1.618-1.245.396,0,.786.09,1.142.262v-.465c0-.559-.321-.847-.973-.847-.432.018-.854.131-1.237.33l-.338-.694c.547-.274,1.149-.422,1.761-.432,1.1,0,1.737.559,1.737,1.541v2.77h-.95v-.432c-.337.327-.791.507-1.261.5-.733.09-1.4-.432-1.49-1.165-.005-.041-.008-.082-.009-.123ZM724.611,249.165c.364.009.72-.114,1-.347v-.694c-.307-.142-.644-.211-.982-.2-.542,0-.881.236-.881.609-.001.384.338.632.868.632h-.005Z"></path>
          <path id="uuid-a455d4fc-fde5-4f4f-8b16-92af719f139a" data-name="path556" class="uuid-13f3a5eb-8849-4a90-8a1a-6054889e5d47" d="M728.116,246.286h-.855v-.763h.855v-1.168l.957-.2v1.371h1.186v.763h-1.186v2.152c0,.414.16.575.593.575.196-.001.39-.035.575-.1v.805c-.267.077-.543.117-.821.118-.856,0-1.3-.406-1.3-1.186l-.004-2.367Z"></path>
          <path id="uuid-5ef27a19-24e8-49ae-bcc9-212c307c5c9b" data-name="path558" class="uuid-13f3a5eb-8849-4a90-8a1a-6054889e5d47" d="M732.979,245.456c1.214-.037,2.229.918,2.266,2.132.037,1.214-.918,2.229-2.132,2.266-1.214.037-2.229-.918-2.266-2.132,0-.024-.001-.049-.001-.073-.041-1.169.873-2.15,2.042-2.192.03-.001.061-.002.091-.001ZM734.165,247.656c.103-.655-.345-1.269-.999-1.372-.655-.103-1.269.345-1.372.999-.019.123-.019.249,0,.372-.103.655.345,1.269.999,1.372.655.103,1.269-.345,1.372-.999.019-.123.019-.249,0-.372Z"></path>
          <path id="uuid-426e17e5-b637-42bd-a1d1-f06f7df8c3c5" data-name="path560" class="uuid-13f3a5eb-8849-4a90-8a1a-6054889e5d47" d="M736.105,245.523h.957v.924c.117-.56.597-.971,1.169-1,.142.002.283.031.415.085v.839c-.167-.068-.345-.102-.525-.1-.46.003-.875.278-1.059.7v2.8h-.957v-4.248Z"></path>
        </g>
      </g>
      <g id="uuid-1a685341-465f-453e-b2cc-425290b13bbc" data-name="g606">
        <rect id="uuid-6be71a7a-340a-484a-9b61-a59efc6972dc" data-name="rect566" class="uuid-b7cb4b1e-cc56-4e6b-82b4-901a61574b07" x="669.526" y="264.036" width="24.855" height="16.527"></rect>
        <g id="uuid-fbb88862-5e29-4274-a958-98da16227a7e" data-name="g604">
          <path id="uuid-09005820-f217-4188-b77f-b0a994c6f662" data-name="path568" class="uuid-13f3a5eb-8849-4a90-8a1a-6054889e5d47" d="M703.073,268.717h1.017v2.71l2.574-2.71h1.236l-2.811,2.853,2.922,3.074h-1.347l-2.574-2.786v2.786h-1.017v-5.927Z"></path>
          <path id="uuid-37056c03-b16b-44de-bb2b-9860a9599c8f" data-name="path570" class="uuid-13f3a5eb-8849-4a90-8a1a-6054889e5d47" d="M709.35,272.928c-.057.501.304.953.805,1.01.042.005.084.007.126.005.382.004.737-.195.932-.524v-3.016h.957v4.243h-.954v-.7c-.28.482-.798.777-1.356.771-.786.024-1.442-.593-1.466-1.378-.001-.046,0-.092.002-.138v-2.795h.957l-.003,2.522Z"></path>
          <path id="uuid-dfbc874c-1048-416c-ab29-aa2cca288cf3" data-name="path572" class="uuid-13f3a5eb-8849-4a90-8a1a-6054889e5d47" d="M715.541,274.688c-.487.007-.949-.212-1.253-.592v.55h-.94v-6.054l.957-.161v2.54c.32-.387.798-.608,1.3-.6,1.122.06,1.984,1.018,1.924,2.14,0,.006,0,.013-.001.019.057,1.134-.816,2.1-1.95,2.156-.012,0-.024.001-.037.002ZM714.305,271.648v1.769c.251.3.624.472,1.016.466.748-.05,1.315-.697,1.265-1.445-.045-.679-.586-1.219-1.265-1.265-.395-.012-.772.164-1.016.475Z"></path>
          <path id="uuid-223b2f73-a91a-4e44-8370-2879cd30e153" data-name="path574" class="uuid-13f3a5eb-8849-4a90-8a1a-6054889e5d47" d="M720.516,274.731c-1.191.002-2.158-.962-2.159-2.153,0-.016,0-.032,0-.047-.059-1.152.826-2.133,1.978-2.192.027-.001.054-.002.081-.003,1.125.014,2.026.937,2.012,2.061,0,.041-.002.082-.005.124v.237h-3.134c.07.651.615,1.149,1.27,1.16.376.01.741-.135,1.008-.4l.627.583c-.46.414-1.059.639-1.678.63ZM719.316,272.174h2.2c-.051-.578-.521-1.029-1.1-1.057-.583.018-1.059.475-1.1,1.057h0Z"></path>
          <path id="uuid-e2548c87-ba04-4dc1-a368-7fcefa12a188" data-name="path576" class="uuid-13f3a5eb-8849-4a90-8a1a-6054889e5d47" d="M723.401,270.403h.957v.924c.117-.56.597-.971,1.169-1,.142.003.283.031.415.085v.839c-.167-.068-.345-.102-.525-.1-.46.004-.875.278-1.059.7v2.794h-.957v-4.242Z"></path>
          <path id="uuid-e7095005-6df1-42e8-b5fe-267f05dd6dda" data-name="path578" class="uuid-13f3a5eb-8849-4a90-8a1a-6054889e5d47" d="M726.73,270.403h.957v.695c.28-.477.794-.768,1.347-.762.788-.022,1.445.599,1.467,1.388.001.043,0,.086-.002.128v2.794h-.957v-2.523c.057-.502-.305-.955-.807-1.012-.042-.005-.083-.007-.125-.005-.375,0-.723.191-.923.508v3.032h-.957v-4.243Z"></path>
          <path id="uuid-cfd18a8c-4da8-4a08-a41e-d03e4c224614" data-name="path580" class="uuid-13f3a5eb-8849-4a90-8a1a-6054889e5d47" d="M733.625,274.731c-1.191.002-2.158-.962-2.159-2.153,0-.016,0-.032,0-.047-.058-1.152.829-2.132,1.98-2.19.029-.001.057-.002.086-.003,1.125.014,2.026.937,2.012,2.061,0,.041-.002.082-.005.124v.237h-3.134c.07.652.615,1.149,1.271,1.16.376.009.74-.135,1.008-.4l.627.583c-.462.415-1.065.639-1.686.628ZM732.425,272.174h2.211c-.051-.582-.526-1.035-1.11-1.059-.585.017-1.063.475-1.104,1.059h.003Z"></path>
          <path id="uuid-0c3dfd7e-7878-4098-879a-6220df6cf214" data-name="path582" class="uuid-13f3a5eb-8849-4a90-8a1a-6054889e5d47" d="M736.916,271.166h-.855v-.763h.855v-1.168l.957-.2v1.371h1.186v.763h-1.186v2.148c0,.414.16.576.593.576.196-.001.39-.035.575-.1v.805c-.267.077-.543.117-.821.118-.856,0-1.3-.406-1.3-1.186l-.004-2.364Z"></path>
          <path id="uuid-2293158b-4573-4d81-8fd8-dc4a38e58a6f" data-name="path584" class="uuid-13f3a5eb-8849-4a90-8a1a-6054889e5d47" d="M741.798,274.731c-1.191.002-2.158-.962-2.159-2.153,0-.016,0-.032,0-.047-.058-1.152.829-2.132,1.98-2.19.029-.001.057-.002.086-.003,1.125.012,2.027.933,2.016,2.058,0,.04-.002.081-.005.121v.237h-3.134c.07.652.615,1.149,1.271,1.16.376.01.74-.135,1.007-.4l.627.583c-.462.418-1.066.645-1.689.634ZM740.598,272.174h2.21c-.051-.582-.526-1.035-1.11-1.059-.585.017-1.062.475-1.102,1.059h.002Z"></path>
          <path id="uuid-691bee85-251d-43ae-8b01-e8c03441cc10" data-name="path586" class="uuid-13f3a5eb-8849-4a90-8a1a-6054889e5d47" d="M744.797,273.517c.396.295.871.463,1.364.482.508,0,.855-.228.855-.567,0-.263-.178-.406-.584-.483l-.754-.127c-.822-.152-1.228-.533-1.228-1.169,0-.8.653-1.312,1.643-1.312.594,0,1.176.176,1.669.508l-.45.627c-.377-.259-.822-.401-1.279-.407-.439,0-.727.187-.727.5,0,.272.152.39.6.466l.746.136c.847.161,1.253.551,1.253,1.186-.09.853-.855,1.472-1.709,1.382-.006,0-.012-.001-.018-.002-.658.026-1.305-.178-1.829-.576l.448-.644Z"></path>
          <path id="uuid-ddb02a98-dab2-44c7-a1b7-e8f6c81220d3" data-name="path588" class="uuid-13f3a5eb-8849-4a90-8a1a-6054889e5d47" d="M750.691,270.403h.957v.924c.117-.56.597-.971,1.169-1,.142.002.283.031.415.085v.839c-.167-.068-.345-.102-.525-.1-.46.004-.875.278-1.059.7v2.794h-.957v-4.242Z"></path>
          <path id="uuid-0187bfaf-5c71-4129-a1f6-bd1cca422b73" data-name="path590" class="uuid-13f3a5eb-8849-4a90-8a1a-6054889e5d47" d="M755.782,274.731c-1.191.002-2.158-.962-2.159-2.153,0-.016,0-.032,0-.047-.057-1.152.83-2.133,1.982-2.19.028-.001.056-.002.084-.003,1.124.013,2.025.935,2.012,2.059,0,.042-.002.084-.005.126v.237h-3.134c.07.652.615,1.149,1.271,1.16.376.01.741-.135,1.008-.4l.627.583c-.462.415-1.065.639-1.686.628ZM754.582,272.174h2.21c-.051-.582-.526-1.035-1.109-1.059-.585.017-1.062.475-1.103,1.059h.002Z"></path>
          <path id="uuid-b35fc737-3ad6-4ee7-be8c-9e23de09b136" data-name="path592" class="uuid-13f3a5eb-8849-4a90-8a1a-6054889e5d47" d="M758.78,273.517c.396.295.872.463,1.365.482.507,0,.854-.228.854-.567,0-.263-.178-.406-.584-.483l-.754-.127c-.821-.152-1.227-.533-1.227-1.169,0-.8.652-1.312,1.642-1.312.594,0,1.176.176,1.669.508l-.449.627c-.377-.259-.821-.4-1.278-.407-.441,0-.729.187-.729.5,0,.272.152.39.6.466l.746.136c.846.161,1.253.551,1.253,1.186-.09.854-.855,1.472-1.709,1.382-.006,0-.013-.001-.019-.002-.658.026-1.304-.178-1.829-.576l.449-.644Z"></path>
          <path id="uuid-74461404-51b4-44a3-b04b-53b7f25f957f" data-name="path594" class="uuid-13f3a5eb-8849-4a90-8a1a-6054889e5d47" d="M764.752,270.336c1.214-.036,2.229.919,2.265,2.133.036,1.214-.919,2.229-2.133,2.265s-2.229-.918-2.265-2.133c0-.024-.001-.048,0-.072-.041-1.169.873-2.15,2.042-2.192.031-.001.062-.001.092-.001ZM765.937,272.536c.103-.655-.345-1.269-.999-1.372-.655-.103-1.269.345-1.372.999-.019.123-.019.249,0,.372-.103.655.345,1.269.999,1.372.655.103,1.269-.345,1.372-.999.019-.123.019-.249,0-.372Z"></path>
          <path id="uuid-7f72c73c-441a-4801-8eae-aa36c0727312" data-name="path596" class="uuid-13f3a5eb-8849-4a90-8a1a-6054889e5d47" d="M768.809,272.928c-.057.501.304.953.805,1.01.042.005.084.007.126.005.382.004.737-.195.932-.524v-3.016h.957v4.243h-.957v-.7c-.28.482-.798.777-1.356.771-.786.024-1.442-.593-1.466-1.378-.001-.046,0-.092.002-.138v-2.795h.957v2.522Z"></path>
          <path id="uuid-dd5800cd-8199-408a-9b91-5625bfc76e72" data-name="path598" class="uuid-13f3a5eb-8849-4a90-8a1a-6054889e5d47" d="M772.807,270.403h.957v.924c.117-.561.597-.972,1.169-1,.142.003.283.031.415.085v.839c-.167-.068-.346-.102-.526-.1-.46.004-.875.278-1.058.7v2.794h-.957v-4.242Z"></path>
          <path id="uuid-dbddb4ec-049d-444f-a866-7b0a5b5762ad" data-name="path600" class="uuid-13f3a5eb-8849-4a90-8a1a-6054889e5d47" d="M778.965,273.417l.575.575c-.421.473-1.026.742-1.659.737-1.211-.037-2.163-1.048-2.127-2.259.035-1.16.967-2.091,2.127-2.127.639-.01,1.253.248,1.693.711l-.593.618c-.265-.316-.655-.498-1.067-.5-.748.077-1.291.746-1.214,1.493.067.651.588,1.162,1.239,1.217.395.008.772-.163,1.026-.465Z"></path>
          <path id="uuid-ee326178-7a54-420f-bcfa-1717d270f68e" data-name="path602" class="uuid-13f3a5eb-8849-4a90-8a1a-6054889e5d47" d="M782.2,274.731c-1.191.002-2.158-.962-2.159-2.153,0-.016,0-.032,0-.047-.057-1.152.83-2.133,1.982-2.19.028-.001.056-.002.084-.003,1.124.012,2.026.933,2.014,2.058,0,.04-.002.081-.005.121v.237h-3.134c.07.652.615,1.149,1.271,1.16.376.009.74-.135,1.008-.4l.627.583c-.462.418-1.065.644-1.688.634ZM781,272.174h2.21c-.051-.582-.526-1.035-1.109-1.059-.585.017-1.062.475-1.103,1.059h.002Z"></path>
        </g>
      </g>
      <g id="uuid-6e5ec32e-ed35-4aab-92b7-2c6ae84a4525" data-name="g638">
        <rect id="uuid-4c96a172-da12-4b51-af62-0099a520f3c9" data-name="rect608" class="uuid-d69a0ec4-83af-4e19-af2f-0c6feecf1a87" x="669.526" y="288.916" width="24.855" height="16.527"></rect>
        <g id="uuid-5863d16b-1060-48b2-98fc-dffc6b5ef328" data-name="g636">
          <path id="uuid-c6e37843-273f-42c9-bcb2-b12c86b0616d" data-name="path610" class="uuid-13f3a5eb-8849-4a90-8a1a-6054889e5d47" d="M704.741,293.598h1.175l2.3,5.927h-1.092l-.6-1.66h-2.44l-.609,1.66h-1.059l2.325-5.927ZM706.223,297.069l-.914-2.523-.932,2.523h1.846Z"></path>
          <path id="uuid-e67a635d-d517-4283-ac68-0eeaea91a753" data-name="path612" class="uuid-13f3a5eb-8849-4a90-8a1a-6054889e5d47" d="M711.695,298.298l.575.575c-.421.473-1.026.742-1.659.737-1.211-.037-2.163-1.048-2.127-2.259.035-1.16.967-2.091,2.127-2.127.639-.01,1.253.248,1.694.711l-.593.618c-.265-.316-.655-.498-1.067-.5-.748.077-1.291.746-1.214,1.493.067.651.588,1.162,1.239,1.217.395.009.772-.162,1.025-.465Z"></path>
          <path id="uuid-cf7ecf3e-785e-4bc2-84a1-7123e0c2afff" data-name="path614" class="uuid-13f3a5eb-8849-4a90-8a1a-6054889e5d47" d="M713.703,296.045h-.855v-.763h.855v-1.165l.957-.2v1.371h1.186v.763h-1.186v2.151c0,.414.16.575.593.575.196-.001.39-.035.575-.1v.805c-.267.077-.543.117-.821.118-.856,0-1.3-.406-1.3-1.186l-.004-2.369Z"></path>
          <path id="uuid-abdddad6-9fad-4c51-a169-4bff670dddf4" data-name="path616" class="uuid-13f3a5eb-8849-4a90-8a1a-6054889e5d47" d="M717.616,297.807c-.057.501.304.953.805,1.01.042.005.085.007.127.005.382.004.737-.195.931-.524v-3.016h.958v4.243h-.958v-.7c-.28.482-.798.776-1.355.771-.786.025-1.443-.592-1.467-1.377-.001-.046,0-.093.002-.139v-2.8h.957v2.527Z"></path>
          <path id="uuid-e98208cc-eb79-4926-b611-a9f948916c16" data-name="path618" class="uuid-13f3a5eb-8849-4a90-8a1a-6054889e5d47" d="M721.401,298.306c0-.762.619-1.245,1.619-1.245.396,0,.786.09,1.142.262v-.466c0-.558-.321-.846-.974-.846-.431.018-.853.13-1.236.33l-.339-.695c.548-.274,1.15-.421,1.762-.431,1.1,0,1.736.558,1.736,1.541v2.769h-.949v-.431c-.338.327-.792.507-1.262.5-.734.089-1.401-.433-1.49-1.167-.005-.04-.008-.081-.009-.121ZM723.163,298.924c.364.009.719-.115,1-.347v-.694c-.307-.142-.644-.211-.982-.2-.542,0-.881.236-.881.609-.001.387.338.632.863.632h0Z"></path>
          <path id="uuid-71938436-e51a-421f-a481-42fc9e4ca48b" data-name="path620" class="uuid-13f3a5eb-8849-4a90-8a1a-6054889e5d47" d="M727.228,299.525h-.957v-6.054l.957-.161v6.215Z"></path>
          <path id="uuid-064a55dd-88ee-4958-95c4-d980314e0ec0" data-name="path622" class="uuid-13f3a5eb-8849-4a90-8a1a-6054889e5d47" d="M730.379,298.391c.396.294.871.462,1.364.482.508,0,.855-.228.855-.567,0-.263-.178-.407-.584-.483l-.754-.127c-.822-.152-1.228-.533-1.228-1.169,0-.8.653-1.312,1.643-1.312.594,0,1.176.176,1.669.508l-.449.627c-.377-.259-.823-.401-1.28-.407-.439,0-.727.187-.727.5,0,.272.152.39.6.466l.746.136c.847.161,1.253.551,1.253,1.185-.09.854-.854,1.473-1.708,1.383-.006,0-.013-.001-.019-.002-.658.026-1.305-.178-1.829-.576l.448-.644Z"></path>
          <path id="uuid-daf6dd18-23a3-4d95-93c8-4298b32d97ff" data-name="path624" class="uuid-13f3a5eb-8849-4a90-8a1a-6054889e5d47" d="M734.81,296.045h-.856v-.763h.856v-1.165l.957-.2v1.371h1.185v.763h-1.185v2.151c0,.414.16.575.592.575.196-.001.391-.035.576-.1v.805c-.267.077-.544.117-.822.118-.855,0-1.3-.406-1.3-1.186l-.003-2.369Z"></path>
          <path id="uuid-11654248-626d-4383-9ffd-64fabdef3986" data-name="path626" class="uuid-13f3a5eb-8849-4a90-8a1a-6054889e5d47" d="M739.671,295.217c1.214-.036,2.229.919,2.265,2.133.036,1.214-.919,2.229-2.133,2.265s-2.229-.918-2.265-2.133c0-.024-.001-.048,0-.072-.041-1.169.873-2.15,2.042-2.192.031-.001.062-.001.092-.001ZM740.856,297.417c.103-.655-.345-1.269-.999-1.372-.655-.103-1.269.345-1.372.999-.019.123-.019.249,0,.372-.103.655.345,1.269.999,1.372.655.103,1.269-.345,1.372-.999.019-.123.019-.249,0-.372Z"></path>
          <path id="uuid-9e88ca11-de5d-4f73-a8fe-dfe819e09f78" data-name="path628" class="uuid-13f3a5eb-8849-4a90-8a1a-6054889e5d47" d="M742.797,295.282h.957v.924c.117-.561.597-.972,1.169-1,.142.002.283.031.415.085v.839c-.167-.068-.346-.102-.526-.1-.46.004-.875.278-1.058.7v2.8h-.957v-4.248Z"></path>
          <path id="uuid-dfa91f36-4884-418e-9b2d-a14c20716323" data-name="path630" class="uuid-13f3a5eb-8849-4a90-8a1a-6054889e5d47" d="M745.77,298.306c0-.762.618-1.245,1.618-1.245.396,0,.786.09,1.142.262v-.466c0-.558-.321-.846-.973-.846-.432.018-.854.13-1.237.33l-.339-.695c.548-.274,1.15-.421,1.762-.431,1.1,0,1.736.558,1.736,1.541v2.769h-.949v-.431c-.338.327-.791.507-1.261.5-.734.089-1.401-.433-1.49-1.167-.005-.04-.008-.081-.009-.121ZM747.531,298.924c.364.009.719-.115,1-.347v-.694c-.307-.142-.644-.211-.982-.2-.542,0-.881.236-.881.609-.001.387.338.632.863.632h0Z"></path>
          <path id="uuid-f5415c2d-85e7-4baa-b656-c052d69d831b" data-name="path632" class="uuid-13f3a5eb-8849-4a90-8a1a-6054889e5d47" d="M750.445,297.399c-.057-1.129.811-2.091,1.94-2.148.014,0,.028-.001.042-.002.48-.005.937.206,1.245.575v-.542h.948v4.387c0,1.093-.712,1.694-2,1.694-.591.003-1.174-.137-1.7-.406l.339-.712c.405.226.858.351,1.321.364.711,0,1.084-.322,1.084-.94v-.72c-.319.388-.798.609-1.3.6-1.122-.062-1.981-1.021-1.919-2.143,0-.003,0-.005,0-.008ZM752.655,298.755c.39.008.761-.164,1.008-.466v-1.778c-.252-.293-.621-.46-1.008-.457-.698,0-1.264.566-1.264,1.264,0,.027,0,.054.003.081-.04.707.5,1.314,1.208,1.354.018.001.035.002.053.002Z"></path>
          <path id="uuid-2a788761-e2e1-4940-8f95-e348809d2f41" data-name="path634" class="uuid-13f3a5eb-8849-4a90-8a1a-6054889e5d47" d="M757.763,299.61c-1.191.002-2.158-.962-2.159-2.153,0-.016,0-.032,0-.047-.058-1.152.829-2.132,1.98-2.19.029-.001.057-.002.086-.003,1.124.013,2.025.935,2.012,2.059,0,.042-.002.083-.005.125v.238h-3.134c.07.651.615,1.149,1.27,1.16.377.01.741-.134,1.008-.4l.627.584c-.462.415-1.064.639-1.685.627ZM756.563,297.053h2.209c-.051-.582-.526-1.035-1.109-1.059-.585.017-1.062.475-1.102,1.059h.002Z"></path>
        </g>
      </g>
      <g id="uuid-1ff9cfbf-6304-45ba-9fd2-5461ea4b9e21" data-name="g658">
        <rect id="uuid-ec614bab-f0f3-4631-aca6-433830fe886e" data-name="rect640" class="uuid-5c2b5094-b334-49db-861c-5a2f2ce52f97" x="669.526" y="313.795" width="24.855" height="16.527"></rect>
        <g id="uuid-08f8b2fb-5afe-492c-825a-7bcc9aed52e7" data-name="g656">
          <path id="uuid-5aa34f3d-aaa8-4ee7-a3be-0c613e8a5a69" data-name="path642" class="uuid-13f3a5eb-8849-4a90-8a1a-6054889e5d47" d="M703.116,322.788c.531.528,1.242.837,1.99.863.788,0,1.33-.4,1.33-.939,0-.483-.289-.7-1.076-.848l-1.092-.185c-1.025-.187-1.525-.7-1.525-1.508,0-1.067.856-1.778,2.186-1.778.855-.007,1.69.263,2.379.77l-.517.763c-.538-.437-1.207-.679-1.9-.687-.712,0-1.178.356-1.178.839,0,.423.262.644.915.745l1.05.187c1.194.2,1.753.727,1.753,1.626,0,1.084-.965,1.854-2.379,1.854-.92-.002-1.807-.342-2.491-.957l.555-.745Z"></path>
          <path id="uuid-63396a3a-bd31-4ba5-9b1d-ded5eb587e1f" data-name="path644" class="uuid-13f3a5eb-8849-4a90-8a1a-6054889e5d47" d="M710.4,324.49c-1.191.001-2.158-.963-2.159-2.155,0-.015,0-.03,0-.045-.057-1.152.83-2.133,1.982-2.19.028-.001.056-.002.085-.003,1.124.013,2.024.935,2.011,2.058,0,.042-.002.084-.005.126v.238h-3.133c.07.651.615,1.149,1.27,1.16.377.01.741-.134,1.008-.4l.627.584c-.462.415-1.065.639-1.686.627ZM709.2,321.933h2.211c-.051-.582-.526-1.035-1.109-1.059-.586.017-1.063.475-1.105,1.059h.003Z"></path>
          <path id="uuid-24577782-fcfd-4a6e-bc47-fa830b852d59" data-name="path646" class="uuid-13f3a5eb-8849-4a90-8a1a-6054889e5d47" d="M713.288,320.162h.957v.924c.117-.56.597-.971,1.169-1,.142.002.283.031.415.085v.839c-.166-.068-.345-.102-.525-.1-.46.004-.875.278-1.059.7v2.8h-.957v-4.248Z"></path>
          <path id="uuid-5ed18201-3435-43f1-9641-d6a241022122" data-name="path648" class="uuid-13f3a5eb-8849-4a90-8a1a-6054889e5d47" d="M716.244,320.162h1.042l1.177,3.1,1.178-3.1h1.007l-1.745,4.243h-.923l-1.736-4.243Z"></path>
          <path id="uuid-642391c7-da21-49b3-9395-9be3834e0bd4" data-name="path650" class="uuid-13f3a5eb-8849-4a90-8a1a-6054889e5d47" d="M721.216,318.717c.036-.329.332-.568.661-.532.28.03.501.252.532.532-.036.329-.332.568-.661.532-.28-.03-.501-.252-.532-.532ZM722.291,324.408h-.957v-4.243h.957v4.243Z"></path>
          <path id="uuid-4cb03a9e-d3b9-4507-a7a8-abbe6e9c4ce4" data-name="path652" class="uuid-13f3a5eb-8849-4a90-8a1a-6054889e5d47" d="M726.502,323.178l.575.575c-.421.473-1.026.742-1.659.737-1.211-.037-2.163-1.048-2.127-2.259.035-1.16.967-2.091,2.127-2.127.639-.01,1.253.247,1.693.71l-.592.619c-.266-.315-.656-.498-1.068-.5-.748.077-1.291.746-1.214,1.494.067.651.588,1.161,1.24,1.216.394.007.771-.163,1.025-.465Z"></path>
          <path id="uuid-17eca410-674e-4da6-814e-24b8d13a1992" data-name="path654" class="uuid-13f3a5eb-8849-4a90-8a1a-6054889e5d47" d="M729.737,324.49c-1.191.001-2.158-.963-2.159-2.155,0-.015,0-.03,0-.045-.057-1.152.83-2.133,1.982-2.19.028-.001.056-.002.085-.003,1.124.013,2.024.935,2.011,2.058,0,.042-.002.084-.005.126v.238h-3.135c.07.651.615,1.149,1.27,1.16.377.01.741-.134,1.008-.4l.627.584c-.462.414-1.064.638-1.684.627ZM728.537,321.933h2.21c-.051-.582-.526-1.035-1.109-1.059-.585.017-1.062.475-1.103,1.059h.002Z"></path>
        </g>
      </g>
      <g id="uuid-560f517b-e89a-406f-96e3-d082b49b63d2" data-name="g676">
        <g id="uuid-7c45db64-7e80-42b6-9b11-453fb3bcc6a2" data-name="g668">
          <path id="uuid-6f978688-0d89-4f41-b0cd-270a5440d4db" data-name="path660" class="uuid-13f3a5eb-8849-4a90-8a1a-6054889e5d47" d="M703.072,357.802h2.168c1.637-.03,2.988,1.272,3.018,2.909s-1.272,2.988-2.909,3.018c-.036,0-.073,0-.109,0h-2.168v-5.927ZM704.089,358.683v4.166h1.177c1.15-.107,1.996-1.126,1.889-2.277-.093-1.002-.887-1.796-1.889-1.889h-1.177Z"></path>
          <path id="uuid-daf49fe4-43e8-488b-b29c-09c387c88371" data-name="path662" class="uuid-13f3a5eb-8849-4a90-8a1a-6054889e5d47" d="M708.942,362.51c0-.762.619-1.245,1.619-1.245.396,0,.786.09,1.142.262v-.465c0-.559-.321-.847-.974-.847-.431.018-.853.13-1.236.33l-.339-.694c.547-.274,1.15-.422,1.762-.432,1.1,0,1.736.559,1.736,1.541v2.769h-.949v-.431c-.338.328-.792.508-1.262.5-.734.089-1.401-.433-1.49-1.167-.005-.04-.008-.081-.009-.121ZM710.704,363.128c.364.009.72-.114,1-.347v-.694c-.307-.142-.644-.211-.982-.2-.542,0-.881.236-.881.609-.001.387.338.632.863.632Z"></path>
          <path id="uuid-c7f20e5b-a111-4303-b53b-3db4ad70d6d6" data-name="path664" class="uuid-13f3a5eb-8849-4a90-8a1a-6054889e5d47" d="M714.216,360.249h-.856v-.763h.856v-1.169l.957-.2v1.371h1.186v.763h-1.186v2.151c0,.414.16.576.593.576.196-.001.39-.035.575-.1v.805c-.267.077-.543.117-.821.118-.856,0-1.3-.406-1.3-1.186l-.004-2.366Z"></path>
          <path id="uuid-995da625-1bd0-4ce1-b892-8e7da250ec15" data-name="path666" class="uuid-13f3a5eb-8849-4a90-8a1a-6054889e5d47" d="M716.98,362.51c0-.762.619-1.245,1.619-1.245.396,0,.786.09,1.142.262v-.465c0-.559-.321-.847-.973-.847-.432.017-.854.13-1.237.33l-.339-.694c.547-.274,1.15-.422,1.762-.432,1.1,0,1.736.559,1.736,1.541v2.769h-.949v-.431c-.338.328-.792.508-1.262.5-.734.089-1.401-.433-1.49-1.167-.005-.04-.008-.081-.009-.121ZM718.742,363.128c.364.009.72-.114,1-.347v-.694c-.307-.142-.644-.211-.982-.2-.542,0-.881.236-.881.609-.001.387.337.632.863.632h0Z"></path>
        </g>
        <g id="uuid-b1b7822b-38b7-4520-b297-5ca811273ed0" data-name="g674">
          <line id="uuid-a02f796f-b643-4cff-9e38-76b5fc2ef214" data-name="line670" class="uuid-bdb4d9fb-aa01-4e89-be4b-1787ba8a7bcc" x1="669.526" y1="361.384" x2="690.69" y2="361.384"></line>
          <polygon id="uuid-c729a387-c0a9-487e-8b60-0f49f52f2c3e" data-name="polygon672" class="uuid-fa01260e-61ac-42e0-ac48-372377610f2c" points="689.596 365.123 696.072 361.384 689.596 357.644 689.596 365.123"></polygon>
        </g>
      </g>
      <g id="uuid-526c0bcb-67be-4162-b0a5-01b2fd58d088" data-name="g710">
        <g id="uuid-bd4a1d13-43f9-48c9-8abe-19fc774ac089" data-name="g698">
          <path id="uuid-3d945957-fa69-40d4-a962-4e6820a6166c" data-name="path678" class="uuid-13f3a5eb-8849-4a90-8a1a-6054889e5d47" d="M704.016,341.157v4.65h-.941v-5.928h1.322l1.736,3.591,1.727-3.591h1.322v5.928h-.957v-4.624l-2.1,4.2-2.109-4.226Z"></path>
          <path id="uuid-a3be633c-5ddb-496b-8883-08bfda77adfc" data-name="path680" class="uuid-13f3a5eb-8849-4a90-8a1a-6054889e5d47" d="M710.197,344.587c0-.762.618-1.245,1.618-1.245.396,0,.787.09,1.143.262v-.465c0-.559-.321-.847-.974-.847-.431.018-.853.131-1.236.33l-.339-.694c.547-.274,1.15-.422,1.762-.432,1.1,0,1.736.559,1.736,1.541v2.77h-.949v-.432c-.338.328-.792.508-1.262.5-.734.089-1.401-.433-1.49-1.167-.005-.04-.008-.081-.009-.121ZM711.959,345.205c.364.009.72-.114,1-.347v-.694c-.307-.142-.644-.21-.982-.2-.542,0-.881.236-.881.609-.001.387.338.632.863.632Z"></path>
          <path id="uuid-a4fab65c-8a4e-40e4-b81e-78440415608d" data-name="path682" class="uuid-13f3a5eb-8849-4a90-8a1a-6054889e5d47" d="M715.067,341.563h.957v.695c.28-.477.794-.768,1.347-.762.788-.022,1.445.599,1.467,1.388.001.043,0,.086-.002.128v2.8h-.957v-2.524c.057-.502-.304-.954-.806-1.011-.042-.005-.084-.007-.126-.005-.374-.001-.723.19-.923.507v3.033h-.957v-4.249Z"></path>
          <path id="uuid-f7ed2b2d-119c-4cc5-b028-cbfc44bac310" data-name="path684" class="uuid-13f3a5eb-8849-4a90-8a1a-6054889e5d47" d="M719.785,344.587c0-.762.618-1.245,1.618-1.245.396,0,.787.09,1.143.262v-.465c0-.559-.321-.847-.974-.847-.431.018-.853.131-1.236.33l-.339-.694c.547-.274,1.15-.422,1.762-.432,1.1,0,1.736.559,1.736,1.541v2.77h-.949v-.432c-.338.328-.792.508-1.262.5-.733.09-1.4-.432-1.49-1.164-.005-.041-.008-.082-.009-.123ZM721.547,345.205c.364.009.72-.114,1-.347v-.694c-.308-.142-.644-.21-.983-.2-.542,0-.88.236-.88.609-.001.387.337.632.863.632h0Z"></path>
          <path id="uuid-2f55ee37-44de-4752-9761-265d08775013" data-name="path686" class="uuid-13f3a5eb-8849-4a90-8a1a-6054889e5d47" d="M724.461,343.681c-.058-1.129.81-2.091,1.939-2.149.014,0,.028-.001.042-.002.48-.005.937.206,1.245.575v-.542h.949v4.387c0,1.093-.712,1.695-2,1.695-.591.002-1.174-.137-1.7-.407l.338-.712c.405.226.858.351,1.322.365.711,0,1.084-.323,1.084-.941v-.72c-.319.388-.798.609-1.3.6-1.122-.062-1.981-1.021-1.919-2.143,0-.002,0-.004,0-.006ZM726.671,345.036c.39.007.761-.164,1.008-.466v-1.778c-.253-.293-.621-.46-1.008-.457-.699,0-1.265.567-1.265,1.265,0,.027,0,.054.003.081-.04.707.501,1.313,1.209,1.353.018.001.035.002.053.002h0Z"></path>
          <path id="uuid-598ce7dd-ba37-4ff6-8a93-87d16c869a1b" data-name="path688" class="uuid-13f3a5eb-8849-4a90-8a1a-6054889e5d47" d="M731.778,345.892c-1.191.001-2.158-.963-2.159-2.155,0-.015,0-.03,0-.045-.057-1.152.83-2.133,1.982-2.19.028-.001.056-.002.085-.003,1.124.014,2.025.936,2.011,2.06,0,.042-.002.083-.005.125v.237h-3.133c.07.651.615,1.149,1.27,1.16.377.01.741-.134,1.008-.4l.627.584c-.463.414-1.065.638-1.686.627ZM730.578,343.334h2.21c-.051-.582-.526-1.035-1.109-1.059-.585.017-1.062.475-1.103,1.059h.002Z"></path>
          <path id="uuid-53b6864e-bc23-4072-93c3-242b9a2bdcc7" data-name="path690" class="uuid-13f3a5eb-8849-4a90-8a1a-6054889e5d47" d="M734.667,341.563h.957v.678c.254-.459.737-.744,1.262-.745.543-.005,1.036.319,1.245.821.277-.513.817-.83,1.4-.821.776.005,1.402.639,1.396,1.415,0,.042-.002.084-.006.126v2.77h-.957v-2.567c.064-.47-.266-.902-.735-.965-.04-.005-.08-.008-.121-.008-.353.006-.677.196-.855.5.01.09.015.18.016.27v2.77h-.953v-2.567c.064-.469-.264-.901-.733-.965-.04-.006-.081-.008-.122-.008-.344.003-.662.186-.838.482v3.058h-.957v-4.244Z"></path>
          <path id="uuid-9853ddba-7bec-4f3e-b4f8-433acf1a0dbd" data-name="path692" class="uuid-13f3a5eb-8849-4a90-8a1a-6054889e5d47" d="M744.052,345.892c-1.191.001-2.158-.963-2.159-2.155,0-.015,0-.03,0-.045-.058-1.152.829-2.132,1.98-2.19.029-.001.057-.002.086-.003,1.125.014,2.026.937,2.012,2.061,0,.041-.002.082-.005.124v.237h-3.134c.07.652.615,1.149,1.271,1.16.376.01.74-.135,1.007-.4l.627.584c-.462.414-1.064.638-1.685.627ZM742.852,343.334h2.21c-.051-.582-.526-1.035-1.11-1.059-.585.017-1.062.475-1.102,1.059h.002Z"></path>
          <path id="uuid-fdac5082-3c44-49ac-b240-48c2ce9f6d22" data-name="path694" class="uuid-13f3a5eb-8849-4a90-8a1a-6054889e5d47" d="M746.939,341.563h.957v.695c.28-.477.794-.768,1.347-.762.788-.022,1.445.599,1.467,1.388.001.043,0,.086-.002.128v2.8h-.957v-2.524c.057-.502-.304-.954-.806-1.011-.042-.005-.084-.007-.126-.005-.374-.001-.723.19-.923.507v3.033h-.957v-4.249Z"></path>
          <path id="uuid-4db12562-3eda-4d96-a9db-71ca90b2ac6c" data-name="path696" class="uuid-13f3a5eb-8849-4a90-8a1a-6054889e5d47" d="M752.268,342.326h-.852v-.763h.856v-1.167l.957-.2v1.371h1.185v.763h-1.185v2.152c0,.414.16.575.592.575.196-.001.391-.035.576-.1v.805c-.267.077-.544.117-.822.118-.855,0-1.3-.406-1.3-1.186l-.007-2.368Z"></path>
        </g>
        <g id="uuid-e510af88-e529-4db3-b3b7-d8899af46613" data-name="g708">
          <g id="uuid-3b43f8cd-36d0-42c2-8fed-69cf54dc0d47" data-name="g706">
            <line id="uuid-1de651e9-4be3-4873-bbcc-13ed6bf380cb" data-name="line702" class="uuid-008afe73-5e1e-41a3-97d2-0539a9c16da7" x1="669.526" y1="343.46" x2="690.69" y2="343.46"></line>
            <polygon id="uuid-3f8052e2-ff37-47b0-8440-5b82ab78464f" data-name="polygon704" class="uuid-7111096a-66bd-4a66-bae0-22f3b5760a68" points="689.596 347.2 696.072 343.461 689.596 339.721 689.596 347.2"></polygon>
          </g>
        </g>
      </g>
      <rect id="uuid-b3be8d4b-de87-4866-aa33-13427e3fa45f" data-name="rect712" class="uuid-08af89ae-b990-49b8-94c8-74f8dbb0356d" x="655.128" y="172.425" width="144.891" height="209.539"></rect>
    </g>
    <g id="uuid-86977af4-a1c3-4202-a4b9-816261c848a7" data-name="g802">
      <rect id="uuid-0b6b964f-2626-4092-9fde-65774a12ed4b" data-name="rect784" class="uuid-d69a0ec4-83af-4e19-af2f-0c6feecf1a87" x="41.871" y="165.782" width="134.802" height="60.085"></rect>
    </g>
    <g>
      <path d="M703.739,186.42h2.644c1.181,0,1.988.731,1.988,1.802,0,.773-.459,1.377-1.181,1.632l1.258,2.516h-1.131l-1.147-2.38h-1.411v2.38h-1.02v-5.949ZM706.289,189.173c.638,0,1.054-.374,1.054-.943,0-.578-.416-.952-1.054-.952h-1.53v1.895h1.53Z"></path>
      <path d="M708.925,190.244c0-1.249.901-2.201,2.074-2.201,1.164,0,2.014.926,2.014,2.201v.229h-3.145c.094.688.612,1.19,1.275,1.19.399,0,.773-.153,1.011-.399l.629.569c-.519.434-1.037.621-1.683.621-1.224,0-2.176-.96-2.176-2.21ZM712.104,189.879c-.102-.621-.544-1.054-1.113-1.054-.578,0-1.003.417-1.113,1.054h2.227Z"></path>
      <path d="M713.812,190.244c0-1.215.875-2.167,1.989-2.167.484,0,.926.195,1.24.552v-2.354l.961-.17v6.264h-.952v-.561c-.306.382-.782.604-1.317.604-1.079,0-1.921-.96-1.921-2.167ZM717.041,191.136v-1.793c-.246-.289-.611-.459-1.011-.459-.731,0-1.275.578-1.275,1.36,0,.773.544,1.36,1.275,1.36.416,0,.765-.161,1.011-.467Z"></path>
      <path d="M721.182,186.42h1.02v2.499h2.958v-2.499h1.02v5.949h-1.02v-2.541h-2.958v2.541h-1.02v-5.949Z"></path>
      <path d="M727.14,191.145c0-.765.629-1.249,1.632-1.249.399,0,.773.085,1.147.272v-.476c0-.561-.323-.85-.978-.85-.357,0-.748.102-1.241.332l-.34-.697c.638-.289,1.198-.434,1.768-.434,1.114,0,1.743.561,1.743,1.547v2.779h-.952v-.442c-.365.357-.773.519-1.267.519-.893,0-1.513-.536-1.513-1.301ZM728.916,191.765c.383,0,.714-.11,1.003-.357v-.688c-.306-.145-.612-.204-.978-.204-.553,0-.901.229-.901.612,0,.391.341.637.876.637Z"></path>
      <path d="M732.436,191.264v-2.388h-.85v-.765h.85v-1.173l.96-.204v1.376h1.182v.765h-1.182v2.176c0,.417.162.578.595.578.188,0,.323-.026.578-.102v.807c-.246.077-.569.119-.824.119-.858,0-1.309-.408-1.309-1.19Z"></path>
      <path d="M737.187,189.394c0-1.717,1.325-3.068,3.008-3.068s3.009,1.352,3.009,3.068-1.325,3.068-3.009,3.068-3.008-1.351-3.008-3.068ZM742.158,189.394c0-1.224-.85-2.15-1.964-2.15s-1.972.926-1.972,2.15.858,2.15,1.972,2.15,1.964-.927,1.964-2.15Z"></path>
      <path d="M744.241,188.111h.943v.604c.307-.399.782-.637,1.326-.637,1.079,0,1.921.96,1.921,2.167,0,1.216-.867,2.167-1.98,2.167-.501,0-.943-.187-1.249-.544v2.278h-.961v-6.035ZM747.488,190.244c0-.773-.544-1.36-1.267-1.36-.425,0-.773.17-1.02.476v1.776c.246.297.611.476,1.02.476.731,0,1.267-.586,1.267-1.369Z"></path>
      <path d="M749.239,190.244c0-1.249.901-2.201,2.074-2.201,1.164,0,2.014.926,2.014,2.201v.229h-3.145c.094.688.612,1.19,1.275,1.19.399,0,.773-.153,1.011-.399l.629.569c-.519.434-1.037.621-1.683.621-1.224,0-2.176-.96-2.176-2.21ZM752.418,189.879c-.102-.621-.544-1.054-1.113-1.054-.578,0-1.003.417-1.113,1.054h2.227Z"></path>
      <path d="M754.305,188.111h.961v.697c.322-.501.79-.765,1.343-.765.875,0,1.487.621,1.487,1.521v2.805h-.969v-2.533c0-.621-.366-1.02-.936-1.02-.391,0-.705.179-.926.519v3.034h-.961v-4.258Z"></path>
      <path d="M758.861,191.502l.553-.748c.765.629,1.317.867,2.006.867.781,0,1.325-.399,1.325-.952,0-.484-.289-.714-1.079-.85l-1.097-.187c-1.028-.187-1.529-.697-1.529-1.513,0-1.08.858-1.793,2.192-1.793.893,0,1.708.264,2.389.765l-.519.765c-.595-.45-1.232-.688-1.904-.688-.714,0-1.189.366-1.189.85,0,.434.271.654.918.756l1.062.179c1.198.212,1.759.739,1.759,1.64,0,1.096-.969,1.87-2.388,1.87-.936,0-1.743-.323-2.499-.96Z"></path>
      <path d="M764.666,186.275l.961-.17v2.703c.322-.501.79-.765,1.343-.765.875,0,1.487.621,1.487,1.521v2.805h-.969v-2.533c0-.621-.366-1.02-.936-1.02-.391,0-.705.179-.926.519v3.034h-.961v-6.094Z"></path>
      <path d="M769.494,186.657c0-.323.264-.595.596-.595.322,0,.595.272.595.595s-.272.586-.595.586c-.332,0-.596-.264-.596-.586ZM769.605,188.111h.96v4.258h-.96v-4.258Z"></path>
      <path d="M772.333,188.876h-.918v-.765h.918v-.73c0-.927.519-1.428,1.471-1.428.237,0,.476.026.637.077v.816c-.212-.042-.34-.06-.51-.06-.441,0-.638.195-.638.612v.714h1.147v.765h-1.147v3.493h-.96v-3.493Z"></path>
      <path d="M775.818,191.264v-2.388h-.85v-.765h.85v-1.173l.96-.204v1.376h1.182v.765h-1.182v2.176c0,.417.162.578.595.578.188,0,.323-.026.578-.102v.807c-.246.077-.569.119-.824.119-.858,0-1.309-.408-1.309-1.19Z"></path>
      <path d="M703.425,200.444c0-1.215.875-2.167,1.989-2.167.484,0,.926.195,1.24.552v-2.354l.961-.17v6.264h-.952v-.561c-.306.382-.782.604-1.317.604-1.079,0-1.921-.961-1.921-2.168ZM706.654,201.336v-1.793c-.246-.289-.611-.459-1.011-.459-.731,0-1.275.578-1.275,1.36,0,.773.544,1.36,1.275,1.36.416,0,.765-.162,1.011-.468Z"></path>
      <path d="M708.584,201.345c0-.765.629-1.25,1.632-1.25.399,0,.773.085,1.147.272v-.476c0-.561-.323-.85-.978-.85-.357,0-.748.102-1.241.332l-.34-.697c.638-.289,1.198-.434,1.768-.434,1.114,0,1.743.561,1.743,1.547v2.779h-.952v-.442c-.365.357-.773.519-1.267.519-.893,0-1.513-.535-1.513-1.3ZM710.36,201.965c.383,0,.714-.11,1.003-.356v-.689c-.306-.145-.612-.204-.978-.204-.553,0-.901.229-.901.612,0,.391.341.637.876.637Z"></path>
      <path d="M713.88,201.464v-2.388h-.851v-.765h.851v-1.173l.96-.204v1.376h1.182v.765h-1.182v2.176c0,.416.162.578.595.578.188,0,.323-.025.578-.103v.808c-.246.077-.569.119-.824.119-.858,0-1.309-.408-1.309-1.19Z"></path>
      <path d="M716.65,201.345c0-.765.629-1.25,1.632-1.25.399,0,.773.085,1.147.272v-.476c0-.561-.323-.85-.978-.85-.357,0-.748.102-1.241.332l-.34-.697c.638-.289,1.198-.434,1.768-.434,1.114,0,1.743.561,1.743,1.547v2.779h-.952v-.442c-.365.357-.773.519-1.267.519-.893,0-1.513-.535-1.513-1.3ZM718.427,201.965c.383,0,.714-.11,1.003-.356v-.689c-.306-.145-.612-.204-.978-.204-.553,0-.901.229-.901.612,0,.391.341.637.876.637Z"></path>
      <path d="M724.037,199.075h-.918v-.765h.918v-.73c0-.927.519-1.428,1.471-1.428.237,0,.476.025.637.077v.816c-.212-.042-.34-.06-.51-.06-.441,0-.638.195-.638.612v.714h1.147v.765h-1.147v3.493h-.96v-3.493Z"></path>
      <path d="M726.587,200.444c0-1.258.918-2.201,2.142-2.201,1.216,0,2.134.943,2.134,2.201s-.918,2.201-2.134,2.201c-1.224,0-2.142-.943-2.142-2.201ZM729.919,200.444c0-.79-.502-1.385-1.19-1.385-.696,0-1.198.595-1.198,1.385,0,.799.502,1.386,1.198,1.386.688,0,1.19-.586,1.19-1.386Z"></path>
      <path d="M731.822,201.115v-2.805h.97v2.524c0,.629.365,1.029.935,1.029.383,0,.705-.17.927-.51v-3.043h.96v4.258h-.96v-.688c-.323.502-.782.757-1.352.757-.867,0-1.479-.629-1.479-1.521Z"></path>
      <path d="M736.804,198.31h.961v.697c.322-.501.79-.765,1.343-.765.875,0,1.487.621,1.487,1.521v2.805h-.969v-2.533c0-.621-.366-1.02-.936-1.02-.391,0-.705.179-.926.519v3.034h-.961v-4.258Z"></path>
      <path d="M741.555,200.444c0-1.215.875-2.167,1.989-2.167.484,0,.926.195,1.24.552v-2.354l.961-.17v6.264h-.952v-.561c-.306.382-.782.604-1.317.604-1.079,0-1.921-.961-1.921-2.168ZM744.784,201.336v-1.793c-.246-.289-.611-.459-1.011-.459-.731,0-1.275.578-1.275,1.36,0,.773.544,1.36,1.275,1.36.416,0,.765-.162,1.011-.468Z"></path>
      <path d="M746.715,201.345c0-.765.629-1.25,1.632-1.25.399,0,.773.085,1.147.272v-.476c0-.561-.323-.85-.978-.85-.357,0-.748.102-1.241.332l-.34-.697c.638-.289,1.198-.434,1.768-.434,1.114,0,1.743.561,1.743,1.547v2.779h-.952v-.442c-.365.357-.773.519-1.267.519-.893,0-1.513-.535-1.513-1.3ZM748.491,201.965c.383,0,.714-.11,1.003-.356v-.689c-.306-.145-.612-.204-.978-.204-.553,0-.901.229-.901.612,0,.391.341.637.876.637Z"></path>
      <path d="M752.01,201.464v-2.388h-.85v-.765h.85v-1.173l.96-.204v1.376h1.182v.765h-1.182v2.176c0,.416.162.578.595.578.188,0,.323-.025.578-.103v.808c-.246.077-.569.119-.824.119-.858,0-1.309-.408-1.309-1.19Z"></path>
      <path d="M754.882,196.857c0-.323.264-.595.596-.595.322,0,.595.272.595.595s-.272.586-.595.586c-.332,0-.596-.264-.596-.586ZM754.993,198.31h.96v4.258h-.96v-4.258Z"></path>
      <path d="M756.948,200.444c0-1.258.918-2.201,2.142-2.201,1.216,0,2.134.943,2.134,2.201s-.918,2.201-2.134,2.201c-1.224,0-2.142-.943-2.142-2.201ZM760.28,200.444c0-.79-.502-1.385-1.19-1.385-.696,0-1.198.595-1.198,1.385,0,.799.502,1.386,1.198,1.386.688,0,1.19-.586,1.19-1.386Z"></path>
      <path d="M762.218,198.31h.961v.697c.322-.501.79-.765,1.343-.765.875,0,1.487.621,1.487,1.521v2.805h-.969v-2.533c0-.621-.366-1.02-.936-1.02-.391,0-.705.179-.926.519v3.034h-.961v-4.258Z"></path>
    </g>
    <g>
      <path d="M674.16,105.453h3.418c1.489,0,2.469.969,2.469,2.309,0,1.27-.979,2.249-2.469,2.249h-1.698v2.438h-1.72v-6.996ZM677.269,108.641c.7,0,1.04-.379,1.04-.889,0-.5-.34-.88-1.03-.88h-1.398v1.769h1.389Z"></path>
      <path d="M680.48,109.881c0-1.509,1.12-2.669,2.599-2.669,1.489,0,2.539,1.129,2.539,2.729v.35h-3.548c.149.58.619.969,1.209.969.43,0,.79-.15,1.02-.43l1.069.89c-.67.589-1.299.83-2.169.83-1.52,0-2.719-1.169-2.719-2.668ZM684.119,109.371c-.141-.55-.53-.9-1.05-.9-.51,0-.869.33-.999.9h2.049Z"></path>
      <path d="M686.631,107.292h1.619v1.169c.329-.859.789-1.27,1.399-1.27.229.01.34.03.539.13v1.389c-.199-.1-.479-.16-.76-.16-.479,0-.919.25-1.179.64v3.258h-1.619v-5.157Z"></path>
      <path d="M690.73,111.92l.71-1.079c.739.39,1.159.52,1.658.52.46,0,.74-.16.74-.42,0-.2-.15-.31-.479-.37l-.99-.18c-.999-.189-1.519-.699-1.519-1.499,0-1.049.81-1.679,2.158-1.679.72,0,1.43.2,2.1.59l-.74,1.029c-.52-.3-.999-.439-1.479-.439-.391,0-.62.13-.62.35,0,.21.13.3.529.37l.97.18c1.02.19,1.55.709,1.55,1.489,0,1.009-.95,1.769-2.22,1.769-.939,0-1.769-.22-2.368-.63Z"></path>
      <path d="M696.16,105.593c0-.5.41-.909.91-.909s.909.41.909.909-.41.91-.909.91-.91-.41-.91-.91ZM696.261,107.292h1.619v5.157h-1.619v-5.157Z"></path>
      <path d="M698.721,111.92l.71-1.079c.739.39,1.159.52,1.658.52.46,0,.74-.16.74-.42,0-.2-.15-.31-.479-.37l-.99-.18c-.999-.189-1.519-.699-1.519-1.499,0-1.049.81-1.679,2.158-1.679.72,0,1.43.2,2.1.59l-.74,1.029c-.52-.3-.999-.439-1.479-.439-.391,0-.62.13-.62.35,0,.21.13.3.529.37l.97.18c1.02.19,1.55.709,1.55,1.489,0,1.009-.95,1.769-2.22,1.769-.939,0-1.769-.22-2.368-.63Z"></path>
      <path d="M704.83,110.89v-2.349h-1v-1.25h1v-1.429l1.619-.33v1.759h1.379v1.25h-1.379v2.029c0,.459.18.62.68.62.189,0,.34-.02.659-.11v1.309c-.3.09-.779.16-1.109.16-1.22,0-1.849-.56-1.849-1.659Z"></path>
      <path d="M708.45,109.881c0-1.509,1.12-2.669,2.599-2.669,1.489,0,2.539,1.129,2.539,2.729v.35h-3.548c.149.58.619.969,1.209.969.43,0,.79-.15,1.02-.43l1.069.89c-.67.589-1.299.83-2.169.83-1.519,0-2.719-1.169-2.719-2.668ZM712.089,109.371c-.141-.55-.53-.9-1.05-.9-.51,0-.869.33-.999.9h2.049Z"></path>
      <path d="M714.601,107.292h1.619v.839c.399-.6.959-.919,1.629-.919.999,0,1.709.73,1.709,1.759v3.478h-1.619v-3.008c0-.58-.34-.959-.859-.959-.35,0-.63.14-.859.43v3.538h-1.619v-5.157Z"></path>
      <path d="M721.31,110.89v-2.349h-1v-1.25h1v-1.429l1.619-.33v1.759h1.379v1.25h-1.379v2.029c0,.459.18.62.68.62.189,0,.34-.02.659-.11v1.309c-.3.09-.779.16-1.109.16-1.22,0-1.849-.56-1.849-1.659Z"></path>
      <path d="M726.75,105.453h1.859l1.849,5.207,1.879-5.207h1.789l-2.729,6.996h-1.958l-2.689-6.996Z"></path>
      <path d="M733.85,109.881c0-1.52,1.16-2.669,2.688-2.669s2.688,1.149,2.688,2.669-1.159,2.668-2.688,2.668-2.688-1.149-2.688-2.668ZM737.647,109.881c0-.77-.459-1.319-1.109-1.319s-1.109.549-1.109,1.319.46,1.319,1.109,1.319,1.109-.549,1.109-1.319Z"></path>
      <path d="M740.26,105.333l1.619-.25v7.366h-1.619v-7.116Z"></path>
      <path d="M743.1,110.77v-3.478h1.619v3.008c0,.58.34.959.859.959.35,0,.63-.14.859-.43v-3.538h1.619v5.157h-1.619v-.839c-.399.6-.959.919-1.629.919-1,0-1.709-.729-1.709-1.759Z"></path>
      <path d="M749.32,107.292h1.619v.82c.38-.59.899-.9,1.529-.9.669,0,1.199.37,1.449.959.399-.62.979-.959,1.688-.959.949,0,1.619.75,1.619,1.809v3.428h-1.619v-3.108c0-.52-.31-.859-.77-.859-.3,0-.54.12-.749.39v3.578h-1.619v-3.108c0-.52-.311-.859-.77-.859-.3,0-.55.13-.76.4v3.568h-1.619v-5.157Z"></path>
      <path d="M758.22,109.881c0-1.509,1.12-2.669,2.599-2.669,1.489,0,2.539,1.129,2.539,2.729v.35h-3.548c.149.58.619.969,1.209.969.43,0,.79-.15,1.02-.43l1.069.89c-.67.589-1.299.83-2.169.83-1.519,0-2.719-1.169-2.719-2.668ZM761.858,109.371c-.141-.55-.53-.9-1.05-.9-.51,0-.869.33-.999.9h2.049Z"></path>
      <path d="M689.086,120.951c0-2.039,1.608-3.608,3.688-3.608,1.119,0,2.229.53,2.839,1.359l-1.16,1.1c-.459-.62-1.019-.93-1.679-.93-1.09,0-1.909.89-1.909,2.079s.819,2.079,1.909,2.079c.66,0,1.22-.311,1.679-.93l1.16,1.1c-.61.829-1.72,1.359-2.839,1.359-2.079,0-3.688-1.569-3.688-3.608Z"></path>
      <path d="M696.466,117.333l1.619-.25v7.366h-1.619v-7.116Z"></path>
      <path d="M699.105,122.969c0-.949.739-1.499,2.009-1.499.37,0,.74.07,1.199.24v-.42c0-.5-.329-.75-1.02-.75-.39,0-.849.11-1.449.36l-.56-1.129c.85-.38,1.609-.56,2.369-.56,1.429,0,2.259.71,2.259,1.939v3.298h-1.6v-.45c-.449.38-.879.53-1.429.53-1.05,0-1.779-.64-1.779-1.56ZM701.385,123.46c.34,0,.649-.09.929-.26v-.66c-.3-.069-.589-.109-.889-.109-.53,0-.83.18-.83.51s.29.52.79.52Z"></path>
      <path d="M705.035,117.592c0-.5.41-.909.91-.909s.909.41.909.909-.41.91-.909.91-.91-.41-.91-.91ZM705.136,119.292h1.619v5.157h-1.619v-5.157Z"></path>
      <path d="M708.016,119.292h1.619v.82c.38-.59.899-.9,1.529-.9.669,0,1.199.37,1.449.959.399-.62.979-.959,1.688-.959.949,0,1.619.75,1.619,1.809v3.428h-1.619v-3.108c0-.52-.31-.859-.77-.859-.3,0-.54.12-.749.39v3.578h-1.619v-3.108c0-.52-.311-.859-.77-.859-.3,0-.55.13-.76.4v3.568h-1.619v-5.157Z"></path>
      <path d="M719.274,122.02c0-2.039.88-3.698,2.499-4.677l.859.989c-1.27.839-1.938,2.109-1.938,3.688s.669,2.849,1.938,3.688l-.859.989c-1.619-.979-2.499-2.639-2.499-4.678Z"></path>
      <path d="M723.744,117.453h3.418c1.489,0,2.469.969,2.469,2.309,0,1.27-.979,2.249-2.469,2.249h-1.698v2.438h-1.72v-6.996ZM726.853,120.641c.7,0,1.04-.379,1.04-.889,0-.5-.34-.88-1.03-.88h-1.398v1.769h1.389Z"></path>
      <path d="M729.935,117.453h1.859l1.849,5.207,1.879-5.207h1.789l-2.729,6.996h-1.958l-2.689-6.996Z"></path>
      <path d="M737.436,120.951c0-2.039,1.608-3.608,3.688-3.608,1.119,0,2.229.53,2.839,1.359l-1.16,1.1c-.459-.62-1.019-.93-1.679-.93-1.09,0-1.909.89-1.909,2.079s.819,2.079,1.909,2.079c.66,0,1.22-.311,1.679-.93l1.16,1.1c-.61.829-1.72,1.359-2.839,1.359-2.079,0-3.688-1.569-3.688-3.608Z"></path>
      <path d="M747.873,122.02c0,2.039-.879,3.698-2.498,4.678l-.859-.989c1.27-.84,1.938-2.109,1.938-3.688s-.669-2.849-1.938-3.688l.859-.989c1.619.979,2.498,2.638,2.498,4.677Z"></path>
      <path d="M682.472,132.951c0-2.039,1.608-3.608,3.688-3.608,1.119,0,2.229.53,2.839,1.359l-1.16,1.1c-.459-.62-1.02-.93-1.679-.93-1.09,0-1.909.89-1.909,2.079s.819,2.079,1.909,2.079c.659,0,1.22-.311,1.679-.93l1.16,1.1c-.61.829-1.72,1.359-2.839,1.359-2.079,0-3.688-1.569-3.688-3.608Z"></path>
      <path d="M689.471,133.881c0-1.51,1.12-2.669,2.599-2.669,1.489,0,2.539,1.13,2.539,2.729v.35h-3.548c.149.58.619.97,1.209.97.43,0,.79-.149,1.02-.43l1.069.89c-.67.59-1.299.829-2.169.829-1.52,0-2.719-1.169-2.719-2.668ZM693.109,133.371c-.141-.55-.53-.899-1.05-.899-.51,0-.869.329-.999.899h2.049Z"></path>
      <path d="M695.621,131.292h1.599v.72c.34-.46.91-.75,1.529-.75,1.27,0,2.279,1.17,2.279,2.619s-1.06,2.599-2.399,2.599c-.56,0-1.049-.21-1.389-.6v2.658h-1.619v-7.246ZM699.438,133.871c0-.73-.529-1.27-1.229-1.27-.399,0-.709.14-.969.42v1.719c.25.26.59.41.969.41.71,0,1.229-.54,1.229-1.279Z"></path>
      <path d="M702.062,129.333l1.619-.25v3.049c.399-.6.959-.92,1.629-.92.999,0,1.709.729,1.709,1.759v3.479h-1.619v-3.009c0-.579-.34-.959-.859-.959-.35,0-.63.14-.859.43v3.538h-1.619v-7.116Z"></path>
      <path d="M708.391,129.453h1.619l3.108,4.237-.03-4.237h1.619v6.996h-1.519l-3.208-4.378.029,4.378h-1.619v-6.996Z"></path>
      <path d="M716.271,129.453h5.327v1.439h-3.607v1.379h2.519v1.399h-2.519v2.778h-1.72v-6.996Z"></path>
      <path d="M722.311,135.5l.88-1.27c.97.68,1.579.93,2.269.93.74,0,1.189-.3,1.189-.74,0-.409-.239-.609-.919-.729l-1.489-.26c-1.109-.189-1.72-.89-1.72-1.879,0-1.359,1.04-2.209,2.779-2.209,1.079,0,2.148.351,2.868.92l-.87,1.249c-.68-.52-1.349-.77-2.089-.77-.68,0-1.069.28-1.069.66,0,.359.23.539.79.64l1.399.239c1.309.22,1.999.91,1.999,1.979,0,1.369-1.16,2.299-2.989,2.299-1.109,0-2.099-.37-3.028-1.06Z"></path>
      <path d="M731.221,133.881c0-1.51,1.16-2.669,2.669-2.669.85,0,1.629.34,2.148.949l-.989.99c-.33-.39-.659-.56-1.1-.56-.64,0-1.119.549-1.119,1.289s.479,1.289,1.119,1.289c.44,0,.77-.17,1.1-.56l.989.989c-.52.609-1.299.949-2.148.949-1.509,0-2.669-1.159-2.669-2.668Z"></path>
      <path d="M736.841,129.333l1.619-.25v7.366h-1.619v-7.116Z"></path>
      <path d="M739.48,134.969c0-.949.739-1.499,2.009-1.499.37,0,.74.07,1.199.24v-.42c0-.5-.329-.75-1.02-.75-.39,0-.849.11-1.449.36l-.56-1.13c.85-.38,1.609-.56,2.369-.56,1.429,0,2.259.71,2.259,1.939v3.298h-1.6v-.45c-.449.38-.879.53-1.429.53-1.05,0-1.779-.64-1.779-1.56ZM741.76,135.46c.34,0,.649-.09.929-.26v-.66c-.3-.069-.589-.109-.889-.109-.53,0-.83.18-.83.51s.29.52.79.52Z"></path>
      <path d="M745.091,135.92l.71-1.08c.739.39,1.159.52,1.658.52.46,0,.74-.159.74-.419,0-.2-.15-.311-.479-.37l-.99-.18c-.999-.19-1.519-.7-1.519-1.499,0-1.05.81-1.68,2.158-1.68.72,0,1.43.2,2.1.59l-.74,1.029c-.52-.3-.999-.439-1.479-.439-.391,0-.62.13-.62.35,0,.21.13.3.529.37l.97.18c1.02.189,1.549.71,1.549,1.489,0,1.01-.949,1.769-2.219,1.769-.939,0-1.769-.22-2.368-.629Z"></path>
      <path d="M750.2,135.92l.71-1.08c.739.39,1.159.52,1.658.52.46,0,.74-.159.74-.419,0-.2-.15-.311-.479-.37l-.99-.18c-.999-.19-1.519-.7-1.519-1.499,0-1.05.81-1.68,2.158-1.68.72,0,1.43.2,2.1.59l-.74,1.029c-.52-.3-.999-.439-1.479-.439-.391,0-.62.13-.62.35,0,.21.13.3.529.37l.97.18c1.02.189,1.549.71,1.549,1.489,0,1.01-.949,1.769-2.219,1.769-.939,0-1.769-.22-2.368-.629Z"></path>
    </g>
    <g>
      <path d="M437.735,182.213h3.398c1.439,0,2.469.929,2.469,2.229,0,.89-.51,1.609-1.3,1.959l1.47,2.809h-1.919l-1.27-2.568h-1.129v2.568h-1.72v-6.996ZM440.974,185.291c.53,0,.89-.33.89-.83s-.359-.83-.89-.83h-1.519v1.659h1.519Z"></path>
      <path d="M444.136,186.641c0-1.52,1.16-2.669,2.688-2.669s2.688,1.149,2.688,2.669-1.159,2.668-2.688,2.668-2.688-1.149-2.688-2.668ZM447.934,186.641c0-.77-.459-1.319-1.109-1.319s-1.109.549-1.109,1.319.46,1.319,1.109,1.319,1.109-.549,1.109-1.319Z"></path>
      <path d="M450.315,186.641c0-1.52,1.16-2.669,2.688-2.669s2.688,1.149,2.688,2.669-1.159,2.668-2.688,2.668-2.688-1.149-2.688-2.668ZM454.113,186.641c0-.77-.459-1.319-1.109-1.319s-1.109.549-1.109,1.319.46,1.319,1.109,1.319,1.109-.549,1.109-1.319Z"></path>
      <path d="M456.726,182.063l1.619-.25v4.288l1.799-2.049h1.789l-2.099,2.309,2.248,2.849h-2.019l-1.719-2.279v2.279h-1.619v-7.146Z"></path>
      <path d="M462.296,185.671h3.678v1.349h-3.678v-1.349Z"></path>
      <path d="M467.036,185.711c0-2.039,1.608-3.608,3.688-3.608,1.119,0,2.229.53,2.839,1.359l-1.16,1.1c-.459-.62-1.019-.93-1.679-.93-1.09,0-1.909.89-1.909,2.079s.819,2.079,1.909,2.079c.66,0,1.22-.31,1.679-.929l1.16,1.099c-.61.83-1.72,1.359-2.839,1.359-2.079,0-3.688-1.569-3.688-3.608Z"></path>
      <path d="M474.035,186.641c0-1.509,1.12-2.669,2.599-2.669,1.489,0,2.539,1.129,2.539,2.729v.35h-3.548c.149.58.619.969,1.209.969.43,0,.79-.15,1.02-.43l1.069.89c-.67.589-1.299.83-2.169.83-1.519,0-2.719-1.169-2.719-2.668ZM477.674,186.131c-.141-.55-.53-.9-1.05-.9-.51,0-.869.33-.999.9h2.049Z"></path>
      <path d="M480.186,184.052h1.599v.72c.34-.46.91-.75,1.529-.75,1.27,0,2.279,1.169,2.279,2.619s-1.06,2.598-2.399,2.598c-.56,0-1.049-.209-1.389-.6v2.659h-1.619v-7.246ZM484.003,186.631c0-.729-.529-1.269-1.229-1.269-.399,0-.709.14-.969.419v1.719c.25.26.59.41.969.41.71,0,1.229-.54,1.229-1.279Z"></path>
      <path d="M486.625,182.093l1.619-.25v3.048c.399-.6.959-.919,1.629-.919.999,0,1.709.73,1.709,1.759v3.478h-1.619v-3.008c0-.58-.34-.959-.859-.959-.35,0-.63.14-.859.43v3.538h-1.619v-7.116Z"></path>
      <path d="M443.15,198.64c0-1.52,1.16-2.669,2.688-2.669s2.688,1.149,2.688,2.669-1.159,2.668-2.688,2.668-2.688-1.149-2.688-2.668ZM446.948,198.64c0-.77-.459-1.319-1.109-1.319s-1.109.549-1.109,1.319.46,1.319,1.109,1.319,1.109-.55,1.109-1.319Z"></path>
      <path d="M449.561,196.051h1.599v.72c.34-.46.91-.75,1.529-.75,1.27,0,2.279,1.169,2.279,2.619s-1.06,2.599-2.399,2.599c-.56,0-1.049-.21-1.389-.6v2.658h-1.619v-7.246ZM453.378,198.631c0-.73-.529-1.27-1.229-1.27-.399,0-.709.14-.969.419v1.719c.25.26.59.41.969.41.71,0,1.229-.54,1.229-1.279Z"></path>
      <path d="M455.771,198.64c0-1.509,1.12-2.669,2.599-2.669,1.489,0,2.539,1.129,2.539,2.729v.35h-3.548c.149.58.619.97,1.209.97.43,0,.79-.149,1.02-.43l1.069.89c-.67.59-1.299.829-2.169.829-1.52,0-2.719-1.169-2.719-2.668ZM459.409,198.131c-.141-.55-.53-.9-1.05-.9-.51,0-.869.33-.999.9h2.049Z"></path>
      <path d="M461.921,196.051h1.619v1.169c.329-.859.789-1.27,1.399-1.27.229.01.34.03.539.13v1.389c-.199-.1-.479-.16-.76-.16-.479,0-.919.25-1.179.64v3.258h-1.619v-5.157Z"></path>
      <path d="M466,199.729c0-.949.739-1.499,2.009-1.499.37,0,.74.07,1.199.24v-.42c0-.5-.329-.75-1.02-.75-.39,0-.849.11-1.449.36l-.56-1.129c.85-.38,1.609-.56,2.369-.56,1.429,0,2.259.71,2.259,1.939v3.298h-1.6v-.45c-.449.38-.879.53-1.429.53-1.05,0-1.779-.64-1.779-1.56ZM468.279,200.219c.34,0,.649-.09.929-.26v-.66c-.3-.069-.589-.109-.889-.109-.53,0-.83.18-.83.51s.29.52.79.52Z"></path>
      <path d="M472.561,199.649v-2.348h-1v-1.25h1v-1.429l1.619-.33v1.759h1.379v1.25h-1.379v2.029c0,.46.18.619.68.619.189,0,.34-.02.659-.109v1.31c-.3.09-.779.159-1.109.159-1.22,0-1.849-.56-1.849-1.659Z"></path>
      <path d="M476.18,198.64c0-1.52,1.16-2.669,2.688-2.669s2.688,1.149,2.688,2.669-1.159,2.668-2.688,2.668-2.688-1.149-2.688-2.668ZM479.978,198.64c0-.77-.459-1.319-1.109-1.319s-1.109.549-1.109,1.319.46,1.319,1.109,1.319,1.109-.55,1.109-1.319Z"></path>
      <path d="M482.591,196.051h1.619v1.169c.329-.859.789-1.27,1.399-1.27.229.01.34.03.539.13v1.389c-.199-.1-.479-.16-.76-.16-.479,0-.919.25-1.179.64v3.258h-1.619v-5.157Z"></path>
    </g>
    <g>
      <path d="M566.245,228.808c0-2.019,1.589-3.608,3.617-3.608s3.618,1.589,3.618,3.608-1.589,3.608-3.618,3.608-3.617-1.589-3.617-3.608ZM571.712,228.808c0-1.189-.8-2.079-1.85-2.079s-1.849.89-1.849,2.079.8,2.079,1.849,2.079,1.85-.889,1.85-2.079Z"></path>
      <path d="M574.385,228.808c0-2.039,1.608-3.608,3.688-3.608,1.119,0,2.229.53,2.839,1.359l-1.16,1.1c-.459-.62-1.02-.93-1.679-.93-1.09,0-1.909.89-1.909,2.079s.819,2.079,1.909,2.079c.659,0,1.22-.31,1.679-.929l1.16,1.099c-.61.83-1.72,1.359-2.839,1.359-2.079,0-3.688-1.569-3.688-3.608Z"></path>
      <path d="M581.424,231.357l.88-1.269c.97.68,1.579.93,2.269.93.74,0,1.189-.3,1.189-.74,0-.41-.239-.61-.919-.729l-1.489-.26c-1.109-.189-1.72-.889-1.72-1.879,0-1.359,1.04-2.208,2.779-2.208,1.079,0,2.148.35,2.868.919l-.87,1.249c-.68-.52-1.349-.77-2.089-.77-.68,0-1.069.28-1.069.66,0,.36.23.54.79.64l1.399.24c1.309.22,1.999.909,1.999,1.979,0,1.37-1.16,2.299-2.989,2.299-1.109,0-2.099-.37-3.028-1.06Z"></path>
      <path d="M555.375,241.737c0-1.52,1.16-2.669,2.688-2.669s2.688,1.149,2.688,2.669-1.159,2.668-2.688,2.668-2.688-1.149-2.688-2.668ZM559.173,241.737c0-.77-.459-1.319-1.109-1.319s-1.109.549-1.109,1.319.46,1.319,1.109,1.319,1.109-.55,1.109-1.319Z"></path>
      <path d="M561.785,239.149h1.599v.72c.34-.46.91-.75,1.529-.75,1.27,0,2.279,1.169,2.279,2.619s-1.06,2.599-2.399,2.599c-.56,0-1.049-.21-1.389-.6v2.658h-1.619v-7.246ZM565.603,241.728c0-.73-.529-1.27-1.229-1.27-.399,0-.709.14-.969.419v1.719c.25.26.59.41.969.41.71,0,1.229-.54,1.229-1.279Z"></path>
      <path d="M567.995,241.737c0-1.509,1.12-2.669,2.599-2.669,1.489,0,2.539,1.129,2.539,2.729v.35h-3.548c.149.58.619.97,1.209.97.43,0,.79-.149,1.02-.43l1.069.89c-.67.59-1.299.829-2.169.829-1.52,0-2.719-1.169-2.719-2.668ZM571.634,241.228c-.141-.55-.53-.9-1.05-.9-.51,0-.869.33-.999.9h2.049Z"></path>
      <path d="M574.146,239.149h1.619v1.169c.329-.859.789-1.27,1.399-1.27.229.01.34.03.539.13v1.389c-.199-.1-.479-.16-.76-.16-.479,0-.919.25-1.179.64v3.258h-1.619v-5.157Z"></path>
      <path d="M578.225,242.826c0-.949.739-1.499,2.009-1.499.37,0,.74.07,1.199.24v-.42c0-.5-.329-.75-1.02-.75-.39,0-.849.11-1.449.36l-.56-1.129c.85-.38,1.609-.56,2.369-.56,1.429,0,2.259.71,2.259,1.939v3.298h-1.6v-.45c-.449.38-.879.53-1.429.53-1.05,0-1.779-.64-1.779-1.56ZM580.504,243.317c.34,0,.649-.09.929-.26v-.66c-.3-.069-.589-.109-.889-.109-.53,0-.83.18-.83.51s.29.52.79.52Z"></path>
      <path d="M584.785,242.746v-2.348h-1v-1.25h1v-1.429l1.619-.33v1.759h1.379v1.25h-1.379v2.029c0,.46.18.619.68.619.189,0,.34-.02.659-.109v1.31c-.3.09-.779.159-1.109.159-1.22,0-1.849-.56-1.849-1.659Z"></path>
      <path d="M588.404,241.737c0-1.52,1.16-2.669,2.688-2.669s2.688,1.149,2.688,2.669-1.159,2.668-2.688,2.668-2.688-1.149-2.688-2.668ZM592.202,241.737c0-.77-.459-1.319-1.109-1.319s-1.109.549-1.109,1.319.46,1.319,1.109,1.319,1.109-.55,1.109-1.319Z"></path>
      <path d="M594.815,239.149h1.619v1.169c.329-.859.789-1.27,1.399-1.27.229.01.34.03.539.13v1.389c-.199-.1-.479-.16-.76-.16-.479,0-.919.25-1.179.64v3.258h-1.619v-5.157Z"></path>
    </g>
    <g>
      <path class="uuid-f499ac32-51cb-4de8-ab4f-7b8e5904b8e4" d="M264.698,42.129c0-2.039,1.608-3.608,3.688-3.608,1.119,0,2.229.53,2.839,1.359l-1.16,1.1c-.459-.62-1.019-.93-1.679-.93-1.09,0-1.909.89-1.909,2.079s.819,2.079,1.909,2.079c.66,0,1.22-.31,1.679-.929l1.16,1.099c-.61.83-1.72,1.359-2.839,1.359-2.079,0-3.688-1.569-3.688-3.608Z"></path>
      <path class="uuid-f499ac32-51cb-4de8-ab4f-7b8e5904b8e4" d="M271.697,43.059c0-1.52,1.16-2.669,2.688-2.669s2.688,1.149,2.688,2.669-1.159,2.668-2.688,2.668-2.688-1.149-2.688-2.668ZM275.495,43.059c0-.77-.459-1.319-1.109-1.319s-1.109.549-1.109,1.319.46,1.319,1.109,1.319,1.109-.549,1.109-1.319Z"></path>
      <path class="uuid-f499ac32-51cb-4de8-ab4f-7b8e5904b8e4" d="M278.107,40.47h1.619v.839c.399-.6.959-.919,1.629-.919.999,0,1.709.73,1.709,1.759v3.478h-1.619v-3.008c0-.58-.34-.959-.859-.959-.35,0-.63.14-.859.43v3.538h-1.619v-5.157Z"></path>
      <path class="uuid-f499ac32-51cb-4de8-ab4f-7b8e5904b8e4" d="M284.817,44.068v-2.349h-1v-1.25h1v-1.429l1.619-.33v1.759h1.379v1.25h-1.379v2.029c0,.459.18.62.68.62.189,0,.34-.02.659-.11v1.309c-.3.09-.779.16-1.109.16-1.22,0-1.849-.56-1.849-1.659Z"></path>
      <path class="uuid-f499ac32-51cb-4de8-ab4f-7b8e5904b8e4" d="M288.478,44.148c0-.95.739-1.5,2.009-1.5.37,0,.74.07,1.199.24v-.42c0-.5-.329-.75-1.02-.75-.39,0-.849.11-1.449.36l-.56-1.129c.85-.38,1.609-.56,2.369-.56,1.429,0,2.259.71,2.259,1.939v3.298h-1.6v-.45c-.449.38-.879.53-1.429.53-1.05,0-1.779-.64-1.779-1.559ZM290.757,44.638c.34,0,.649-.09.929-.26v-.66c-.3-.07-.589-.11-.889-.11-.53,0-.83.18-.83.51s.29.52.79.52Z"></path>
      <path class="uuid-f499ac32-51cb-4de8-ab4f-7b8e5904b8e4" d="M294.407,38.771c0-.5.41-.909.91-.909s.909.41.909.909-.41.91-.909.91-.91-.41-.91-.91ZM294.508,40.47h1.619v5.157h-1.619v-5.157Z"></path>
      <path class="uuid-f499ac32-51cb-4de8-ab4f-7b8e5904b8e4" d="M297.388,40.47h1.619v.839c.399-.6.959-.919,1.629-.919.999,0,1.709.73,1.709,1.759v3.478h-1.619v-3.008c0-.58-.34-.959-.859-.959-.35,0-.63.14-.859.43v3.538h-1.619v-5.157Z"></path>
      <path class="uuid-f499ac32-51cb-4de8-ab4f-7b8e5904b8e4" d="M303.337,43.059c0-1.509,1.12-2.669,2.599-2.669,1.489,0,2.539,1.129,2.539,2.729v.35h-3.548c.149.58.619.969,1.209.969.43,0,.79-.15,1.02-.43l1.069.89c-.67.589-1.299.83-2.169.83-1.52,0-2.719-1.169-2.719-2.668ZM306.976,42.549c-.141-.55-.53-.9-1.05-.9-.51,0-.869.33-.999.9h2.049Z"></path>
      <path class="uuid-f499ac32-51cb-4de8-ab4f-7b8e5904b8e4" d="M309.487,40.47h1.619v1.169c.329-.859.789-1.27,1.399-1.27.229.01.34.03.539.13v1.389c-.199-.1-.479-.16-.76-.16-.479,0-.919.25-1.179.64v3.258h-1.619v-5.157Z"></path>
      <path class="uuid-f499ac32-51cb-4de8-ab4f-7b8e5904b8e4" d="M315.666,38.631h1.539l-4.008,9.085h-1.549l4.018-9.085Z"></path>
      <path class="uuid-f499ac32-51cb-4de8-ab4f-7b8e5904b8e4" d="M317.537,38.631h1.859l1.849,5.207,1.879-5.207h1.789l-2.729,6.996h-1.958l-2.689-6.996Z"></path>
      <path class="uuid-f499ac32-51cb-4de8-ab4f-7b8e5904b8e4" d="M325.717,38.631h2.159l1.689,3.358,1.679-3.358h2.159v6.996h-1.619v-4.748l-2.239,4.248-2.249-4.288v4.788h-1.579v-6.996Z"></path>
    </g>
    <rect id="uuid-989242a4-357a-4596-af0f-88a25b4f5b32" data-name="rect718" class="uuid-5c2b5094-b334-49db-861c-5a2f2ce52f97" x="210.241" y="101.393" width="178.284" height="60.085"></rect>
    <g id="uuid-978c0e33-2eb9-4129-87ae-812742d592cb" data-name="g750">
      <line id="uuid-9d167e84-b2f5-4259-914b-125cdae8f89d" data-name="line746" class="uuid-008afe73-5e1e-41a3-97d2-0539a9c16da7" x1="428.887" y1="131.435" x2="394.357" y2="131.435"></line>
      <polygon id="uuid-ce43622c-932a-4379-9aca-34fa6b4a2d9b" data-name="polygon748" class="uuid-7111096a-66bd-4a66-bae0-22f3b5760a68" points="395.451 127.695 388.975 131.434 395.451 135.174 395.451 127.695"></polygon>
    </g>
    <g id="uuid-5c328ae2-e70a-4fcf-acdf-13dc052ca230" data-name="g750">
      <line id="uuid-b236ebc5-6ca2-460e-b154-7b9e89985643" data-name="line746" class="uuid-008afe73-5e1e-41a3-97d2-0539a9c16da7" x1="428.887" y1="228.761" x2="394.357" y2="228.761"></line>
      <polygon id="uuid-229898a2-d198-49a3-ab12-6827a63a3131" data-name="polygon748" class="uuid-7111096a-66bd-4a66-bae0-22f3b5760a68" points="395.451 225.021 388.975 228.76 395.451 232.5 395.451 225.021"></polygon>
    </g>
    <g>
      <path d="M270.133,148.928c0-2.039,1.608-3.608,3.688-3.608,1.119,0,2.229.53,2.839,1.359l-1.16,1.1c-.459-.62-1.019-.93-1.679-.93-1.09,0-1.909.89-1.909,2.079s.819,2.079,1.909,2.079c.66,0,1.22-.31,1.679-.929l1.16,1.099c-.61.83-1.72,1.359-2.839,1.359-2.079,0-3.688-1.569-3.688-3.608Z"></path>
      <path d="M277.172,151.476l.88-1.269c.97.68,1.579.93,2.269.93.74,0,1.189-.3,1.189-.74,0-.41-.239-.61-.919-.729l-1.489-.26c-1.109-.189-1.72-.889-1.72-1.879,0-1.359,1.04-2.208,2.779-2.208,1.079,0,2.148.35,2.868.919l-.87,1.249c-.68-.52-1.349-.77-2.089-.77-.68,0-1.069.28-1.069.66,0,.36.23.54.79.64l1.399.24c1.309.22,1.999.909,1.999,1.979,0,1.37-1.16,2.299-2.989,2.299-1.109,0-2.099-.37-3.028-1.06Z"></path>
      <path d="M284.212,145.43h1.719v6.996h-1.719v-6.996Z"></path>
      <path d="M289.393,147.269h1.599v.72c.34-.46.91-.75,1.529-.75,1.27,0,2.279,1.169,2.279,2.619s-1.06,2.598-2.399,2.598c-.56,0-1.049-.209-1.389-.6v2.659h-1.619v-7.246ZM293.21,149.847c0-.729-.529-1.269-1.229-1.269-.399,0-.709.14-.969.419v1.719c.25.26.59.41.969.41.71,0,1.229-.54,1.229-1.279Z"></path>
      <path d="M295.832,145.31l1.619-.25v7.366h-1.619v-7.116Z"></path>
      <path d="M298.672,150.747v-3.478h1.619v3.008c0,.58.34.959.859.959.35,0,.63-.14.859-.43v-3.538h1.619v5.157h-1.619v-.839c-.399.6-.959.919-1.629.919-1,0-1.709-.729-1.709-1.759Z"></path>
      <path d="M305.192,154.155l.5-1.169c.569.27,1.079.4,1.579.4.77,0,1.169-.32,1.169-.95v-.699c-.34.419-.899.68-1.499.68-1.27,0-2.279-1.16-2.279-2.599s1.06-2.579,2.399-2.579c.55,0,1.049.229,1.398.649v-.62h1.59v5.187c0,1.39-.96,2.159-2.719,2.159-.779,0-1.52-.16-2.139-.46ZM308.44,150.687v-1.719c-.25-.26-.59-.4-.96-.4-.709,0-1.229.53-1.229,1.259s.529,1.27,1.229,1.27c.391,0,.71-.14.96-.41Z"></path>
      <path d="M311.192,148.888h3.678v1.349h-3.678v-1.349Z"></path>
      <path d="M315.911,145.57c0-.5.41-.909.91-.909s.909.41.909.909-.41.91-.909.91-.91-.41-.91-.91ZM316.012,147.269h1.619v5.157h-1.619v-5.157Z"></path>
      <path d="M318.892,147.269h1.619v.839c.399-.6.959-.919,1.629-.919.999,0,1.709.73,1.709,1.759v3.478h-1.619v-3.008c0-.58-.34-.959-.859-.959-.35,0-.63.14-.859.43v3.538h-1.619v-5.157Z"></path>
      <path d="M324.652,151.896l.71-1.079c.739.39,1.159.52,1.658.52.46,0,.74-.16.74-.42,0-.2-.15-.31-.479-.37l-.99-.18c-.999-.189-1.519-.699-1.519-1.499,0-1.049.81-1.679,2.158-1.679.72,0,1.43.2,2.1.59l-.74,1.029c-.52-.3-.999-.439-1.479-.439-.391,0-.62.13-.62.35,0,.21.13.3.529.37l.97.18c1.02.19,1.55.709,1.55,1.489,0,1.009-.95,1.769-2.22,1.769-.939,0-1.769-.22-2.368-.63Z"></path>
    </g>
    <rect id="uuid-adbd7e52-92f6-4dbc-af89-e35555833d23" data-name="rect752" class="uuid-ad874463-17ca-460e-8153-423752bf6791" x="221.467" y="113.356" width="155.867" height="23.005"></rect>
    <g>
      <path d="M265.873,123.854c0-2.029,1.579-3.608,3.618-3.608,1.069,0,2.089.459,2.729,1.249l-.8.78c-.5-.62-1.189-.95-1.929-.95-1.359,0-2.389,1.089-2.389,2.529s1.029,2.529,2.389,2.529c.739,0,1.429-.33,1.929-.95l.8.78c-.64.79-1.659,1.249-2.729,1.249-2.039,0-3.618-1.579-3.618-3.608Z"></path>
      <path d="M272.913,124.853c0-1.469,1.06-2.589,2.438-2.589,1.369,0,2.369,1.09,2.369,2.589v.27h-3.698c.11.81.72,1.399,1.499,1.399.47,0,.91-.18,1.189-.47l.739.669c-.609.51-1.219.73-1.979.73-1.439,0-2.559-1.129-2.559-2.599ZM276.651,124.424c-.12-.73-.64-1.239-1.31-1.239-.68,0-1.18.489-1.31,1.239h2.619Z"></path>
      <path d="M278.872,122.344h1.109v.709c.36-.47.92-.75,1.56-.75,1.27,0,2.259,1.129,2.259,2.549,0,1.429-1.02,2.548-2.329,2.548-.589,0-1.109-.22-1.469-.64v2.679h-1.13v-7.096ZM282.69,124.853c0-.91-.64-1.599-1.489-1.599-.5,0-.909.2-1.199.56v2.089c.29.35.72.56,1.199.56.859,0,1.489-.689,1.489-1.609Z"></path>
      <path d="M284.982,120.186l1.13-.2v3.178c.38-.59.93-.9,1.579-.9,1.029,0,1.749.73,1.749,1.789v3.298h-1.14v-2.979c0-.729-.43-1.199-1.1-1.199-.459,0-.829.21-1.089.61v3.568h-1.13v-7.166Z"></path>
      <path d="M290.662,124.033h3.488v.959h-3.488v-.959Z"></path>
      <path d="M295.333,123.854c0-2.029,1.579-3.608,3.618-3.608,1.069,0,2.089.459,2.729,1.249l-.8.78c-.5-.62-1.189-.95-1.929-.95-1.359,0-2.389,1.089-2.389,2.529s1.029,2.529,2.389,2.529c.739,0,1.429-.33,1.929-.95l.8.78c-.64.79-1.659,1.249-2.729,1.249-2.039,0-3.618-1.579-3.618-3.608Z"></path>
      <path d="M302.392,126.332l.649-.879c.899.74,1.549,1.02,2.358,1.02.92,0,1.56-.47,1.56-1.12,0-.569-.34-.839-1.27-1l-1.289-.22c-1.21-.22-1.799-.819-1.799-1.779,0-1.27,1.009-2.109,2.578-2.109,1.05,0,2.009.31,2.809.899l-.609.899c-.7-.53-1.449-.81-2.239-.81-.84,0-1.399.43-1.399,1,0,.51.32.77,1.08.89l1.249.21c1.409.25,2.068.869,2.068,1.929,0,1.29-1.139,2.199-2.808,2.199-1.1,0-2.05-.38-2.938-1.129Z"></path>
      <path d="M309.312,120.356h1.199v6.996h-1.199v-6.996Z"></path>
      <path d="M314.392,120.356h1.169l3.648,5.087-.021-5.087h1.13v6.996h-1.069l-3.748-5.227.02,5.227h-1.129v-6.996Z"></path>
      <path d="M322.001,120.356h5.027v1.02h-3.828v1.999h2.639v1h-2.639v2.979h-1.199v-6.996Z"></path>
      <path d="M327.742,126.332l.649-.879c.899.74,1.549,1.02,2.358,1.02.92,0,1.56-.47,1.56-1.12,0-.569-.34-.839-1.27-1l-1.289-.22c-1.21-.22-1.799-.819-1.799-1.779,0-1.27,1.009-2.109,2.578-2.109,1.05,0,2.009.31,2.809.899l-.609.899c-.7-.53-1.449-.81-2.239-.81-.84,0-1.399.43-1.399,1,0,.51.32.77,1.08.89l1.249.21c1.409.25,2.068.869,2.068,1.929,0,1.29-1.139,2.199-2.808,2.199-1.1,0-2.05-.38-2.938-1.129Z"></path>
    </g>
    <rect id="uuid-64de95f0-2efb-4fe0-aa68-b2a9eddf06e1" data-name="rect718" class="uuid-5c2b5094-b334-49db-861c-5a2f2ce52f97" x="210.709" y="173.866" width="177.816" height="109.789"></rect>
    <rect class="uuid-ad874463-17ca-460e-8153-423752bf6791" x="312.715" y="185.012" width="64.608" height="23.005"></rect>
    <g>
      <path d="M89.681,197.56l.88-1.269c.97.68,1.579.93,2.269.93.74,0,1.189-.3,1.189-.74,0-.41-.239-.61-.919-.729l-1.489-.26c-1.109-.189-1.72-.889-1.72-1.879,0-1.359,1.04-2.208,2.779-2.208,1.079,0,2.148.35,2.868.919l-.87,1.249c-.68-.52-1.349-.77-2.089-.77-.68,0-1.069.28-1.069.66,0,.36.23.54.79.64l1.399.24c1.309.22,1.999.909,1.999,1.979,0,1.37-1.16,2.299-2.989,2.299-1.109,0-2.099-.37-3.028-1.06Z"></path>
      <path d="M97.202,196.95v-2.349h-1v-1.25h1v-1.429l1.619-.33v1.759h1.379v1.25h-1.379v2.029c0,.459.18.62.68.62.189,0,.34-.02.659-.11v1.309c-.3.09-.779.16-1.109.16-1.22,0-1.849-.56-1.849-1.659Z"></path>
      <path d="M100.821,195.941c0-1.52,1.16-2.669,2.688-2.669s2.688,1.149,2.688,2.669-1.159,2.668-2.688,2.668-2.688-1.149-2.688-2.668ZM104.619,195.941c0-.77-.459-1.319-1.109-1.319s-1.109.549-1.109,1.319.46,1.319,1.109,1.319,1.109-.549,1.109-1.319Z"></path>
      <path d="M107.232,193.352h1.619v1.169c.329-.859.789-1.27,1.399-1.27.229.01.34.03.539.13v1.389c-.199-.1-.479-.16-.76-.16-.479,0-.919.25-1.179.64v3.258h-1.619v-5.157Z"></path>
      <path d="M111.311,197.03c0-.95.739-1.5,2.009-1.5.37,0,.74.07,1.199.24v-.42c0-.5-.329-.75-1.02-.75-.39,0-.849.11-1.449.36l-.56-1.129c.85-.38,1.609-.56,2.369-.56,1.429,0,2.259.71,2.259,1.939v3.298h-1.6v-.45c-.449.38-.879.53-1.429.53-1.05,0-1.779-.64-1.779-1.559ZM113.59,197.52c.34,0,.649-.09.929-.26v-.66c-.3-.07-.589-.11-.889-.11-.53,0-.83.18-.83.51s.29.52.79.52Z"></path>
      <path d="M117.641,200.238l.5-1.169c.569.27,1.079.4,1.579.4.77,0,1.169-.32,1.169-.95v-.699c-.34.419-.899.68-1.499.68-1.27,0-2.279-1.16-2.279-2.599s1.06-2.579,2.399-2.579c.55,0,1.049.229,1.398.649v-.62h1.59v5.187c0,1.39-.96,2.159-2.719,2.159-.779,0-1.52-.16-2.139-.46ZM120.889,196.77v-1.719c-.25-.26-.59-.4-.96-.4-.709,0-1.229.53-1.229,1.259s.529,1.27,1.229,1.27c.391,0,.71-.14.96-.41Z"></path>
      <path d="M123.531,195.941c0-1.509,1.12-2.669,2.599-2.669,1.489,0,2.539,1.129,2.539,2.729v.35h-3.548c.149.58.619.969,1.209.969.43,0,.79-.15,1.02-.43l1.069.89c-.67.589-1.299.83-2.169.83-1.519,0-2.719-1.169-2.719-2.668ZM127.169,195.431c-.141-.55-.53-.9-1.05-.9-.51,0-.869.33-.999.9h2.049Z"></path>
    </g>
    <g>
      <path d="M323,195.786c0-2.029,1.579-3.608,3.618-3.608,1.069,0,2.089.459,2.729,1.249l-.8.78c-.5-.62-1.189-.95-1.929-.95-1.359,0-2.389,1.089-2.389,2.529s1.029,2.529,2.389,2.529c.739,0,1.429-.33,1.929-.95l.8.78c-.64.79-1.659,1.249-2.729,1.249-2.039,0-3.618-1.579-3.618-3.608Z"></path>
      <path d="M330.04,196.786c0-1.469,1.06-2.589,2.438-2.589,1.369,0,2.369,1.09,2.369,2.589v.27h-3.698c.11.81.72,1.399,1.499,1.399.47,0,.91-.18,1.189-.47l.739.669c-.609.51-1.219.73-1.979.73-1.439,0-2.559-1.129-2.559-2.599ZM333.778,196.356c-.12-.73-.64-1.239-1.31-1.239-.68,0-1.18.489-1.31,1.239h2.619Z"></path>
      <path d="M335.999,194.277h1.109v.709c.36-.47.92-.75,1.56-.75,1.27,0,2.259,1.129,2.259,2.549,0,1.429-1.02,2.548-2.329,2.548-.589,0-1.109-.22-1.469-.64v2.679h-1.13v-7.096ZM339.817,196.786c0-.91-.64-1.599-1.489-1.599-.5,0-.909.2-1.199.56v2.089c.29.35.72.56,1.199.56.859,0,1.489-.689,1.489-1.609Z"></path>
      <path d="M342.109,192.118l1.13-.2v3.178c.38-.59.93-.9,1.579-.9,1.029,0,1.749.73,1.749,1.789v3.298h-1.14v-2.979c0-.729-.43-1.199-1.1-1.199-.459,0-.829.21-1.089.61v3.568h-1.13v-7.166Z"></path>
      <path d="M348.069,192.288h1.169l3.648,5.087-.021-5.087h1.13v6.996h-1.069l-3.748-5.227.02,5.227h-1.129v-6.996Z"></path>
      <path d="M355.679,192.288h5.027v1.02h-3.828v1.999h2.639v1h-2.639v2.979h-1.199v-6.996Z"></path>
      <path d="M361.419,198.265l.649-.879c.899.74,1.549,1.02,2.358,1.02.92,0,1.56-.47,1.56-1.12,0-.569-.34-.839-1.27-1l-1.289-.22c-1.21-.22-1.799-.819-1.799-1.779,0-1.27,1.009-2.109,2.578-2.109,1.05,0,2.009.31,2.809.899l-.609.899c-.7-.53-1.449-.81-2.239-.81-.84,0-1.399.43-1.399,1,0,.51.32.77,1.08.89l1.249.21c1.409.25,2.068.869,2.068,1.929,0,1.29-1.139,2.199-2.808,2.199-1.1,0-2.05-.38-2.938-1.129Z"></path>
    </g>
    <rect class="uuid-ad874463-17ca-460e-8153-423752bf6791" x="312.715" y="233.011" width="64.608" height="23.005"></rect>
    <g>
      <path d="M326.804,243.785c0-2.029,1.579-3.608,3.618-3.608,1.069,0,2.089.459,2.729,1.249l-.8.78c-.5-.62-1.189-.95-1.929-.95-1.359,0-2.389,1.089-2.389,2.529s1.029,2.529,2.389,2.529c.739,0,1.429-.33,1.929-.95l.8.78c-.64.79-1.659,1.249-2.729,1.249-2.039,0-3.618-1.579-3.618-3.608Z"></path>
      <path d="M333.844,244.785c0-1.469,1.06-2.589,2.438-2.589,1.369,0,2.369,1.09,2.369,2.589v.27h-3.698c.11.81.72,1.399,1.499,1.399.47,0,.91-.18,1.189-.47l.739.669c-.609.51-1.219.73-1.979.73-1.439,0-2.559-1.129-2.559-2.599ZM337.583,244.355c-.12-.73-.64-1.239-1.31-1.239-.68,0-1.18.489-1.31,1.239h2.619Z"></path>
      <path d="M339.803,242.276h1.109v.709c.36-.47.92-.75,1.56-.75,1.27,0,2.259,1.129,2.259,2.549,0,1.429-1.02,2.548-2.329,2.548-.589,0-1.109-.22-1.469-.64v2.679h-1.13v-7.096ZM343.622,244.785c0-.91-.64-1.599-1.489-1.599-.5,0-.909.2-1.199.56v2.089c.29.35.72.56,1.199.56.859,0,1.489-.689,1.489-1.609Z"></path>
      <path d="M345.914,240.117l1.13-.2v3.178c.38-.59.93-.9,1.579-.9,1.029,0,1.749.73,1.749,1.789v3.298h-1.14v-2.979c0-.729-.43-1.199-1.1-1.199-.459,0-.829.21-1.089.61v3.568h-1.13v-7.166Z"></path>
      <path d="M351.874,240.287h5.027v1.02h-3.828v1.999h2.639v1h-2.639v2.979h-1.199v-6.996Z"></path>
      <path d="M357.614,246.264l.649-.879c.899.74,1.549,1.02,2.358,1.02.92,0,1.56-.47,1.56-1.12,0-.569-.34-.839-1.27-1l-1.289-.22c-1.21-.22-1.799-.819-1.799-1.779,0-1.27,1.009-2.109,2.578-2.109,1.05,0,2.009.31,2.809.899l-.609.899c-.7-.53-1.449-.81-2.239-.81-.84,0-1.399.43-1.399,1,0,.51.32.77,1.08.89l1.249.21c1.409.25,2.068.869,2.068,1.929,0,1.29-1.139,2.199-2.808,2.199-1.1,0-2.05-.38-2.938-1.129Z"></path>
    </g>
    <g>
      <path d="M265.812,270.161c0-2.039,1.608-3.607,3.688-3.607,1.119,0,2.229.529,2.839,1.358l-1.16,1.1c-.459-.619-1.02-.93-1.679-.93-1.09,0-1.909.89-1.909,2.079s.819,2.079,1.909,2.079c.659,0,1.22-.31,1.679-.93l1.16,1.1c-.61.829-1.72,1.359-2.839,1.359-2.079,0-3.688-1.569-3.688-3.608Z"></path>
      <path d="M272.812,271.091c0-1.509,1.12-2.669,2.599-2.669,1.489,0,2.539,1.13,2.539,2.729v.351h-3.548c.149.579.619.969,1.209.969.43,0,.79-.149,1.02-.43l1.069.89c-.67.59-1.299.83-2.169.83-1.52,0-2.719-1.17-2.719-2.669ZM276.45,270.581c-.141-.55-.53-.899-1.05-.899-.51,0-.869.33-.999.899h2.049Z"></path>
      <path d="M278.962,268.502h1.599v.72c.34-.46.91-.749,1.529-.749,1.27,0,2.279,1.169,2.279,2.618s-1.06,2.599-2.399,2.599c-.56,0-1.049-.21-1.389-.6v2.658h-1.619v-7.246ZM282.779,271.081c0-.729-.529-1.27-1.229-1.27-.399,0-.709.14-.969.42v1.719c.25.26.59.41.969.41.71,0,1.229-.54,1.229-1.279Z"></path>
      <path d="M285.402,266.543l1.619-.249v3.048c.399-.6.959-.92,1.629-.92.999,0,1.709.73,1.709,1.76v3.478h-1.619v-3.008c0-.58-.34-.96-.859-.96-.35,0-.63.14-.859.43v3.538h-1.619v-7.116Z"></path>
      <path d="M293.312,273.13l.71-1.079c.739.39,1.159.52,1.658.52.46,0,.74-.16.74-.42,0-.2-.15-.31-.479-.37l-.99-.18c-.999-.189-1.519-.699-1.519-1.499,0-1.05.81-1.68,2.158-1.68.72,0,1.43.2,2.1.59l-.74,1.029c-.52-.3-.999-.439-1.479-.439-.391,0-.62.13-.62.35,0,.21.13.3.529.37l.97.18c1.02.19,1.55.71,1.55,1.489,0,1.01-.95,1.77-2.22,1.77-.939,0-1.769-.221-2.368-.63Z"></path>
      <path d="M298.661,271.091c0-1.509,1.12-2.669,2.599-2.669,1.489,0,2.539,1.13,2.539,2.729v.351h-3.548c.149.579.619.969,1.209.969.43,0,.79-.149,1.02-.43l1.069.89c-.67.59-1.299.83-2.169.83-1.52,0-2.719-1.17-2.719-2.669ZM302.3,270.581c-.141-.55-.53-.899-1.05-.899-.51,0-.869.33-.999.899h2.049Z"></path>
      <path d="M304.812,268.502h1.619v1.17c.329-.859.789-1.27,1.399-1.27.229.01.34.03.539.13v1.39c-.199-.101-.479-.16-.76-.16-.479,0-.919.25-1.179.64v3.258h-1.619v-5.157Z"></path>
      <path d="M308.822,268.502h1.759l1.169,3.238,1.18-3.238h1.669l-2.108,5.157h-1.579l-2.089-5.157Z"></path>
      <path d="M315.201,266.803c0-.499.41-.909.91-.909s.909.41.909.909-.41.91-.909.91-.91-.41-.91-.91ZM315.302,268.502h1.619v5.157h-1.619v-5.157Z"></path>
      <path d="M317.951,271.091c0-1.509,1.16-2.669,2.669-2.669.85,0,1.629.34,2.148.95l-.989.989c-.33-.39-.659-.56-1.1-.56-.64,0-1.119.55-1.119,1.289s.479,1.289,1.119,1.289c.44,0,.77-.17,1.1-.56l.989.989c-.52.61-1.299.95-2.148.95-1.509,0-2.669-1.16-2.669-2.669Z"></path>
      <path d="M323.19,271.091c0-1.509,1.12-2.669,2.599-2.669,1.489,0,2.539,1.13,2.539,2.729v.351h-3.548c.149.579.619.969,1.209.969.43,0,.79-.149,1.02-.43l1.069.89c-.67.59-1.299.83-2.169.83-1.52,0-2.719-1.17-2.719-2.669ZM326.829,270.581c-.141-.55-.53-.899-1.05-.899-.51,0-.869.33-.999.899h2.049Z"></path>
      <path d="M328.971,273.13l.71-1.079c.739.39,1.159.52,1.658.52.46,0,.74-.16.74-.42,0-.2-.15-.31-.479-.37l-.99-.18c-.999-.189-1.519-.699-1.519-1.499,0-1.05.81-1.68,2.158-1.68.72,0,1.43.2,2.1.59l-.74,1.029c-.52-.3-.999-.439-1.479-.439-.391,0-.62.13-.62.35,0,.21.13.3.529.37l.97.18c1.02.19,1.549.71,1.549,1.489,0,1.01-.949,1.77-2.219,1.77-.939,0-1.769-.221-2.368-.63Z"></path>
    </g>
    <g id="uuid-d090b3df-53e0-4165-9900-21da81fce7ad" data-name="g782">
      <line id="uuid-c8a4dab4-693c-47ed-bfff-66b610f81629" data-name="line778" class="uuid-bdb4d9fb-aa01-4e89-be4b-1787ba8a7bcc" x1="176.933" y1="196.514" x2="216.183" y2="196.514"></line>
      <polygon id="uuid-de174526-73ae-4cf0-ad4b-4e56a9bf4fcf" data-name="polygon780" class="uuid-fa01260e-61ac-42e0-ac48-372377610f2c" points="215.089 192.775 221.565 196.514 215.089 200.254 215.089 192.775"></polygon>
    </g>
    <g id="uuid-1f3f1898-8b61-4bbc-b52c-03c5fdc2578a" data-name="g782">
      <line id="uuid-cf4cba81-fd86-4a57-b932-ca0a753859dc" data-name="line778" class="uuid-bdb4d9fb-aa01-4e89-be4b-1787ba8a7bcc" x1="343.763" y1="184.887" x2="343.763" y2="141.872"></line>
      <polygon id="uuid-9fa5eff4-2f24-4fe6-b19c-daf72ba9424b" data-name="polygon780" class="uuid-fa01260e-61ac-42e0-ac48-372377610f2c" points="347.502 142.966 343.763 136.49 340.023 142.966 347.502 142.966"></polygon>
    </g>
    <g id="uuid-07e7f781-5923-4765-be33-5b2b188fe9fc" data-name="g782">
      <line id="uuid-9945479f-d183-462c-9092-afc40d3b2722" data-name="line778" class="uuid-bdb4d9fb-aa01-4e89-be4b-1787ba8a7bcc" x1="343.763" y1="233.479" x2="343.763" y2="213.063"></line>
      <polygon id="uuid-3c5fa1cf-181d-497f-b001-32a85344e533" data-name="polygon780" class="uuid-fa01260e-61ac-42e0-ac48-372377610f2c" points="347.502 214.157 343.763 207.681 340.023 214.157 347.502 214.157"></polygon>
    </g>
    <g id="uuid-ab5ce242-6edc-4430-842b-4e555c435b3f" data-name="g782">
      <line id="uuid-9b8f454b-d745-4584-a3ea-bb19365aac21" data-name="line778" class="uuid-bdb4d9fb-aa01-4e89-be4b-1787ba8a7bcc" x1="299.618" y1="113.356" x2="299.618" y2="65.852"></line>
      <polygon id="uuid-884b9a83-b2fb-4239-8ca0-096194a6fb0f" data-name="polygon780" class="uuid-fa01260e-61ac-42e0-ac48-372377610f2c" points="303.357 66.946 299.618 60.47 295.878 66.946 303.357 66.946"></polygon>
    </g>
    <rect class="uuid-ad874463-17ca-460e-8153-423752bf6791" x="221.873" y="185.012" width="64.608" height="23.005"></rect>
    <g>
      <path d="M237.167,192.288h3.108c1.389,0,2.338.859,2.338,2.119,0,.91-.539,1.619-1.389,1.919l1.479,2.958h-1.33l-1.349-2.798h-1.659v2.798h-1.199v-6.996ZM240.165,195.527c.75,0,1.239-.44,1.239-1.109,0-.68-.489-1.12-1.239-1.12h-1.799v2.229h1.799Z"></path>
      <path d="M245.956,192.288h1.389l2.709,6.996h-1.289l-.72-1.959h-2.868l-.72,1.959h-1.25l2.749-6.996ZM247.715,196.386l-1.1-2.958-1.089,2.958h2.188Z"></path>
      <path d="M250.957,192.288h2.559c2.009,0,3.508,1.529,3.508,3.498s-1.499,3.498-3.508,3.498h-2.559v-6.996ZM253.545,198.245c1.26,0,2.249-1.069,2.249-2.458s-.989-2.458-2.249-2.458h-1.389v4.917h1.389Z"></path>
      <path d="M258.057,195.786c0-2.019,1.56-3.608,3.538-3.608s3.538,1.589,3.538,3.608-1.559,3.608-3.538,3.608-3.538-1.589-3.538-3.608ZM263.903,195.786c0-1.439-.999-2.529-2.309-2.529s-2.318,1.089-2.318,2.529,1.009,2.529,2.318,2.529,2.309-1.09,2.309-2.529Z"></path>
      <path d="M265.897,198.265l.649-.879c.899.74,1.549,1.02,2.358,1.02.92,0,1.56-.47,1.56-1.12,0-.569-.34-.839-1.27-1l-1.289-.22c-1.21-.22-1.799-.819-1.799-1.779,0-1.27,1.009-2.109,2.578-2.109,1.05,0,2.009.31,2.809.899l-.609.899c-.7-.53-1.449-.81-2.239-.81-.84,0-1.399.43-1.399,1,0,.51.32.77,1.08.89l1.249.21c1.409.25,2.068.869,2.068,1.929,0,1.29-1.139,2.199-2.808,2.199-1.1,0-2.05-.38-2.938-1.129Z"></path>
    </g>
    <g id="uuid-0cd80ed1-e91c-4681-b118-c9ca1da99b9a" data-name="g750">
      <line id="uuid-e8961460-7212-43dd-9b55-2e0d003eed58" data-name="line746" class="uuid-008afe73-5e1e-41a3-97d2-0539a9c16da7" x1="353.64" y1="136.444" x2="353.64" y2="179.761"></line>
      <polygon id="uuid-ca27fa1a-c697-4e88-966c-3ef616aad466" data-name="polygon748" class="uuid-7111096a-66bd-4a66-bae0-22f3b5760a68" points="349.9 178.667 353.639 185.143 357.379 178.667 349.9 178.667"></polygon>
    </g>
    <g>
      <circle class="uuid-ca2aacd9-77f9-44f5-bd9b-b05a1cd79853" cx="176.674" cy="165.706" r="10"></circle>
      <path d="M173.653,168.661l.92-1.069c.59.479,1.1.68,1.719.68.729,0,1.22-.4,1.22-1.01,0-.589-.55-1.019-1.29-1.019-.379,0-.739.12-1.139.34l-1.109-.33.17-3.758h4.577v1.309h-3.218l-.07,1.52c.479-.22.899-.27,1.299-.27,1.42,0,2.359.85,2.359,2.129,0,1.449-1.159,2.418-2.879,2.418-.969,0-1.839-.32-2.559-.939Z"></path>
    </g>
    <g>
      <circle class="uuid-ca2aacd9-77f9-44f5-bd9b-b05a1cd79853" cx="388.602" cy="101.538" r="10"></circle>
      <path d="M389.09,103.774h-3.938v-1.309l3.668-4.138h1.89v4.098h.869v1.349h-.869v1.549h-1.619v-1.549ZM389.09,102.425v-2.319l-2.069,2.319h2.069Z"></path>
    </g>
    <g>
      <circle class="uuid-ca2aacd9-77f9-44f5-bd9b-b05a1cd79853" cx="388.602" cy="174.011" r="10"></circle>
      <path d="M385.497,176.096l1.04-.959c.52.56.929.74,1.698.74.76,0,1.26-.34,1.26-.859,0-.45-.359-.73-.92-.73h-.899v-1.269h.74c.569,0,.909-.29.909-.78,0-.5-.47-.859-1.1-.859-.68,0-1.079.2-1.629.799l-1.05-.949c.66-.76,1.689-1.219,2.739-1.219,1.529,0,2.588.83,2.588,2.019,0,.76-.539,1.37-1.329,1.599.92.18,1.51.75,1.51,1.52,0,1.209-1.17,2.079-2.799,2.079-1.119,0-2.139-.42-2.759-1.129Z"></path>
    </g>
    <g>
      <circle class="uuid-ca2aacd9-77f9-44f5-bd9b-b05a1cd79853" cx="501.268" cy="102.16" r="10"></circle>
      <path d="M498.983,103.727l2.958-2.928c.33-.32.47-.62.47-.949,0-.45-.439-.79-1.029-.79-.63,0-1.129.24-1.769.859l-.859-1.049c.799-.76,1.709-1.149,2.678-1.149,1.489,0,2.479.81,2.479,2.029,0,.66-.28,1.219-.91,1.829l-2.019,1.949,3.028-.01v1.309h-5.027v-1.1Z"></path>
    </g>
    <g>
      <circle class="uuid-ca2aacd9-77f9-44f5-bd9b-b05a1cd79853" cx="613.168" cy="102.16" r="10"></circle>
      <path d="M612.691,99.321l-1.379.57v-1.359l1.948-.81h.97v6.996h-1.539v-5.397Z"></path>
    </g>
    <g>
      <polyline class="uuid-f499ac32-51cb-4de8-ab4f-7b8e5904b8e4" points="254.677 208.096 254.677 245.248 312.24 245.248"></polyline>
      <g>
        <polyline class="uuid-bdb4d9fb-aa01-4e89-be4b-1787ba8a7bcc" points="254.677 208.096 254.677 245.248 306.857 245.248"></polyline>
        <polygon class="uuid-fa01260e-61ac-42e0-ac48-372377610f2c" points="305.763 248.988 312.24 245.248 305.763 241.508 305.763 248.988"></polygon>
      </g>
    </g>
  </g>
</svg>