<svg id="uuid-a580cbe7-26a3-45a6-960e-1b9ea520a8a8" data-name="uuid-db4db654-beff-46f1-94d5-347eb0e8a881" xmlns="http://www.w3.org/2000/svg" width="595.276" height="398.832" viewBox="0 0 595.276 398.832">
  <defs>
    <style>
      .uuid-b81ac81e-c66f-45fa-b549-33883963fa79, .uuid-f6aaf052-4386-499f-a12a-9108910fa210, .uuid-f4a1fb5e-1b64-4658-b9d3-fe524953393d, .uuid-45abfd98-332f-4028-a465-daa1bd63b27a {
        stroke: #06c;
      }

      .uuid-b81ac81e-c66f-45fa-b549-33883963fa79, .uuid-f6aaf052-4386-499f-a12a-9108910fa210, .uuid-f4a1fb5e-1b64-4658-b9d3-fe524953393d, .uuid-45abfd98-332f-4028-a465-daa1bd63b27a, .uuid-3a457252-32e7-426e-97d7-9a6b94c949e3 {
        fill: none;
      }

      .uuid-b81ac81e-c66f-45fa-b549-33883963fa79, .uuid-3a457252-32e7-426e-97d7-9a6b94c949e3 {
        stroke-miterlimit: 10;
      }

      .uuid-f6aaf052-4386-499f-a12a-9108910fa210 {
        stroke-dasharray: 0 0 0 0 0 0 2.904 2.904;
      }

      .uuid-f6aaf052-4386-499f-a12a-9108910fa210, .uuid-f4a1fb5e-1b64-4658-b9d3-fe524953393d, .uuid-45abfd98-332f-4028-a465-daa1bd63b27a {
        stroke-linecap: round;
        stroke-linejoin: round;
      }

      .uuid-f4a1fb5e-1b64-4658-b9d3-fe524953393d {
        stroke-dasharray: 0 0 0 0 0 0 3.037 3.037;
      }

      .uuid-224a60bb-6083-4e19-bf70-fd35f0cffdde {
        fill: #000;
      }

      .uuid-224a60bb-6083-4e19-bf70-fd35f0cffdde, .uuid-c7d98823-ffba-4475-a9eb-0fb015aed543, .uuid-64da9a2f-926a-4e11-8481-520c3f2926d8, .uuid-68798453-a211-4a64-9c72-4bfe21758914, .uuid-b1a5381b-373a-4511-97ce-e8beff7539a6 {
        stroke-width: 0px;
      }

      .uuid-c7d98823-ffba-4475-a9eb-0fb015aed543 {
        fill: #dbe8f5;
      }

      .uuid-3a457252-32e7-426e-97d7-9a6b94c949e3 {
        stroke: #000;
      }

      .uuid-64da9a2f-926a-4e11-8481-520c3f2926d8 {
        fill: #06c;
      }

      .uuid-68798453-a211-4a64-9c72-4bfe21758914 {
        fill: #fff;
      }

      .uuid-b1a5381b-373a-4511-97ce-e8beff7539a6 {
        fill: #e6e6e6;
      }
    </style>
  </defs>
  <rect class="uuid-68798453-a211-4a64-9c72-4bfe21758914" x="9.138" y="9.589" width="577" height="382.571"></rect>
  <rect class="uuid-b1a5381b-373a-4511-97ce-e8beff7539a6" x="22.033" y="20.923" width="231.517" height="275.684"></rect>
  <rect class="uuid-68798453-a211-4a64-9c72-4bfe21758914" x="38.33" y="52.847" width="198.923" height="229.001"></rect>
  <rect class="uuid-b1a5381b-373a-4511-97ce-e8beff7539a6" x="53.668" y="87.431" width="168.245" height="89.321"></rect>
  <rect class="uuid-68798453-a211-4a64-9c72-4bfe21758914" x="69.007" y="118.398" width="137.568" height="44.099"></rect>
  <rect class="uuid-c7d98823-ffba-4475-a9eb-0fb015aed543" x="53.668" y="178.574" width="168.245" height="88.516"></rect>
  <g>
    <path class="uuid-224a60bb-6083-4e19-bf70-fd35f0cffdde" d="M39.188,32.302h3.741c1.584,0,2.717,1.023,2.717,2.454,0,.979-.561,1.771-1.43,2.156l1.617,3.091h-2.112l-1.397-2.828h-1.243v2.828h-1.893s0-7.701,0-7.701ZM42.752,35.691c.583,0,.979-.363.979-.913s-.396-.913-.979-.913h-1.672v1.826s1.672,0,1.672,0Z"></path>
    <path class="uuid-224a60bb-6083-4e19-bf70-fd35f0cffdde" d="M46.228,37.176c0-1.661,1.232-2.937,2.86-2.937,1.64,0,2.794,1.243,2.794,3.003v.385h-3.905c.165.638.682,1.067,1.331,1.067.473,0,.869-.165,1.122-.473l1.177.979c-.737.649-1.43.913-2.387.913-1.672,0-2.993-1.287-2.993-2.938h0ZM50.232,36.615c-.154-.605-.583-.99-1.155-.99-.561,0-.957.363-1.1.99,0,0,2.255,0,2.255,0Z"></path>
    <path class="uuid-224a60bb-6083-4e19-bf70-fd35f0cffdde" d="M53.377,41.907l.55-1.287c.627.297,1.188.44,1.738.44.847,0,1.287-.352,1.287-1.045v-.771c-.374.462-.99.748-1.65.748-1.397,0-2.508-1.276-2.508-2.86s1.167-2.838,2.641-2.838c.605,0,1.155.253,1.54.715v-.682h1.75v5.71c0,1.529-1.056,2.376-2.993,2.376-.858,0-1.672-.176-2.354-.506h0ZM56.953,38.089v-1.893c-.275-.286-.649-.44-1.056-.44-.781,0-1.353.583-1.353,1.386s.583,1.397,1.353,1.397c.429,0,.781-.154,1.056-.451h0Z"></path>
    <path class="uuid-224a60bb-6083-4e19-bf70-fd35f0cffdde" d="M60,32.456c0-.55.451-1.001,1.001-1.001s1.001.451,1.001,1.001-.451,1.001-1.001,1.001-1.001-.451-1.001-1.001ZM60.109,34.326h1.783v5.677h-1.783s0-5.677,0-5.677Z"></path>
    <path class="uuid-224a60bb-6083-4e19-bf70-fd35f0cffdde" d="M63.024,37.176c0-1.672,1.276-2.937,2.959-2.937s2.959,1.265,2.959,2.937-1.276,2.938-2.959,2.938-2.959-1.265-2.959-2.938ZM67.205,37.176c0-.847-.506-1.452-1.221-1.452s-1.221.605-1.221,1.452.506,1.453,1.221,1.453,1.221-.605,1.221-1.453Z"></path>
    <path class="uuid-224a60bb-6083-4e19-bf70-fd35f0cffdde" d="M70.075,34.326h1.783v.924c.44-.66,1.056-1.012,1.793-1.012,1.1,0,1.881.803,1.881,1.936v3.829h-1.782v-3.312c0-.638-.374-1.056-.946-1.056-.385,0-.693.154-.946.473v3.895h-1.783s0-5.677,0-5.677Z"></path>
    <path class="uuid-224a60bb-6083-4e19-bf70-fd35f0cffdde" d="M80.415,34.062l-1.518.627v-1.496l2.146-.891h1.067v7.701h-1.694v-5.941h0Z"></path>
  </g>
  <g>
    <path class="uuid-224a60bb-6083-4e19-bf70-fd35f0cffdde" d="M54.448,66.468h3.398c1.439,0,2.469.929,2.469,2.229,0,.89-.51,1.609-1.299,1.959l1.469,2.809h-1.919l-1.27-2.568h-1.129v2.568h-1.719v-6.996h0ZM57.686,69.546c.53,0,.89-.33.89-.83s-.36-.83-.89-.83h-1.519v1.659h1.519Z"></path>
    <path class="uuid-224a60bb-6083-4e19-bf70-fd35f0cffdde" d="M61.378,66.468h1.719v2.718h2.828v-2.718h1.719v6.996h-1.719v-2.769h-2.828v2.769h-1.719s0-6.996,0-6.996Z"></path>
    <path class="uuid-224a60bb-6083-4e19-bf70-fd35f0cffdde" d="M68.778,69.966c0-2.019,1.589-3.608,3.618-3.608s3.618,1.589,3.618,3.608-1.589,3.608-3.618,3.608-3.618-1.589-3.618-3.608ZM74.245,69.966c0-1.189-.799-2.079-1.849-2.079s-1.849.89-1.849,2.079.8,2.079,1.849,2.079,1.849-.889,1.849-2.079Z"></path>
    <path class="uuid-224a60bb-6083-4e19-bf70-fd35f0cffdde" d="M76.918,69.966c0-2.039,1.609-3.608,3.688-3.608,1.12,0,2.229.53,2.838,1.359l-1.159,1.1c-.46-.62-1.02-.93-1.679-.93-1.089,0-1.909.89-1.909,2.079s.819,2.079,1.909,2.079c.66,0,1.219-.31,1.679-.929l1.159,1.099c-.609.83-1.719,1.359-2.838,1.359-2.079,0-3.688-1.569-3.688-3.608Z"></path>
    <path class="uuid-224a60bb-6083-4e19-bf70-fd35f0cffdde" d="M84.448,66.468h3.418c1.489,0,2.469.969,2.469,2.309,0,1.27-.979,2.249-2.469,2.249h-1.699v2.438h-1.719v-6.996ZM87.556,69.656c.7,0,1.04-.379,1.04-.889,0-.5-.34-.88-1.029-.88h-1.399v1.769h1.389,0Z"></path>
    <path class="uuid-224a60bb-6083-4e19-bf70-fd35f0cffdde" d="M93.318,70.896c0-1.509,1.159-2.669,2.668-2.669.85,0,1.629.34,2.149.95l-.99.989c-.33-.39-.66-.56-1.099-.56-.64,0-1.12.55-1.12,1.29s.48,1.289,1.12,1.289c.439,0,.77-.17,1.099-.56l.99.989c-.52.61-1.299.95-2.149.95-1.509,0-2.668-1.16-2.668-2.668Z"></path>
    <path class="uuid-224a60bb-6083-4e19-bf70-fd35f0cffdde" d="M98.938,66.348l1.619-.25v7.366h-1.619v-7.116Z"></path>
    <path class="uuid-224a60bb-6083-4e19-bf70-fd35f0cffdde" d="M101.777,71.785v-3.478h1.619v3.008c0,.58.34.959.859.959.35,0,.629-.14.859-.43v-3.538h1.619v5.157h-1.619v-.839c-.4.6-.959.919-1.629.919-1,0-1.709-.729-1.709-1.759h0Z"></path>
    <path class="uuid-224a60bb-6083-4e19-bf70-fd35f0cffdde" d="M107.578,72.934l.709-1.079c.74.39,1.16.52,1.659.52.459,0,.74-.16.74-.42,0-.2-.15-.31-.48-.37l-.989-.18c-1-.189-1.52-.699-1.52-1.499,0-1.049.81-1.679,2.159-1.679.719,0,1.429.2,2.099.59l-.74,1.029c-.52-.3-.999-.439-1.479-.439-.39,0-.62.13-.62.35,0,.21.13.3.53.37l.969.18c1.02.19,1.549.709,1.549,1.489,0,1.009-.95,1.769-2.219,1.769-.939,0-1.769-.22-2.369-.63h.002Z"></path>
    <path class="uuid-224a60bb-6083-4e19-bf70-fd35f0cffdde" d="M113.687,71.905v-2.349h-.999v-1.25h.999v-1.429l1.619-.33v1.759h1.379v1.25h-1.379v2.029c0,.459.18.62.68.62.19,0,.34-.02.66-.11v1.309c-.3.09-.779.16-1.109.16-1.219,0-1.849-.56-1.849-1.659h-.001Z"></path>
    <path class="uuid-224a60bb-6083-4e19-bf70-fd35f0cffdde" d="M117.308,70.896c0-1.509,1.119-2.669,2.599-2.669,1.489,0,2.539,1.129,2.539,2.729v.35h-3.548c.15.58.62.969,1.209.969.43,0,.79-.15,1.02-.43l1.069.89c-.669.589-1.299.83-2.169.83-1.519,0-2.718-1.169-2.718-2.668h0ZM120.945,70.386c-.14-.55-.529-.9-1.049-.9-.51,0-.87.33-1,.9h2.049Z"></path>
    <path class="uuid-224a60bb-6083-4e19-bf70-fd35f0cffdde" d="M123.458,68.307h1.619v1.169c.33-.859.79-1.27,1.399-1.27.23.01.34.03.54.13v1.389c-.2-.1-.479-.16-.759-.16-.48,0-.919.25-1.18.64v3.258h-1.619v-5.157h0Z"></path>
    <path class="uuid-224a60bb-6083-4e19-bf70-fd35f0cffdde" d="M131.097,68.067l-1.379.57v-1.359l1.949-.81h.97v6.996h-1.539v-5.397h-.001Z"></path>
    <path class="uuid-224a60bb-6083-4e19-bf70-fd35f0cffdde" d="M136.007,71.035c0-2.039.879-3.698,2.499-4.677l.859.989c-1.269.839-1.939,2.109-1.939,3.688s.67,2.849,1.939,3.688l-.859.989c-1.619-.979-2.499-2.638-2.499-4.677Z"></path>
    <path class="uuid-224a60bb-6083-4e19-bf70-fd35f0cffdde" d="M142.446,66.468h1.959l2.688,6.996h-1.859l-.58-1.669h-2.559l-.59,1.669h-1.789l2.729-6.996h0ZM144.195,70.466l-.81-2.318-.819,2.318h1.629Z"></path>
    <path class="uuid-224a60bb-6083-4e19-bf70-fd35f0cffdde" d="M147.267,70.896c0-1.509,1.159-2.669,2.668-2.669.85,0,1.629.34,2.149.95l-.99.989c-.33-.39-.66-.56-1.099-.56-.64,0-1.12.55-1.12,1.29s.48,1.289,1.12,1.289c.439,0,.77-.17,1.099-.56l.99.989c-.52.61-1.299.95-2.149.95-1.509,0-2.668-1.16-2.668-2.668Z"></path>
    <path class="uuid-224a60bb-6083-4e19-bf70-fd35f0cffdde" d="M153.666,71.905v-2.349h-.999v-1.25h.999v-1.429l1.619-.33v1.759h1.379v1.25h-1.379v2.029c0,.459.18.62.68.62.19,0,.34-.02.66-.11v1.309c-.3.09-.779.16-1.109.16-1.219,0-1.849-.56-1.849-1.659h-.001Z"></path>
    <path class="uuid-224a60bb-6083-4e19-bf70-fd35f0cffdde" d="M157.467,66.608c0-.5.41-.909.91-.909s.909.41.909.909-.41.91-.909.91-.91-.41-.91-.91ZM157.567,68.307h1.619v5.157h-1.619v-5.157Z"></path>
    <path class="uuid-224a60bb-6083-4e19-bf70-fd35f0cffdde" d="M159.887,68.307h1.759l1.169,3.238,1.179-3.238h1.669l-2.109,5.157h-1.579l-2.089-5.157h0Z"></path>
    <path class="uuid-224a60bb-6083-4e19-bf70-fd35f0cffdde" d="M165.987,70.896c0-1.509,1.119-2.669,2.599-2.669,1.489,0,2.539,1.129,2.539,2.729v.35h-3.548c.15.58.62.969,1.209.969.43,0,.79-.15,1.02-.43l1.069.89c-.669.589-1.299.83-2.169.83-1.519,0-2.718-1.169-2.718-2.668h0ZM169.625,70.386c-.14-.55-.529-.9-1.049-.9-.51,0-.87.33-1,.9h2.049Z"></path>
    <path class="uuid-224a60bb-6083-4e19-bf70-fd35f0cffdde" d="M175.195,71.035c0,2.039-.879,3.698-2.499,4.677l-.86-.989c1.27-.839,1.939-2.109,1.939-3.688s-.669-2.849-1.939-3.688l.86-.989c1.619.979,2.499,2.638,2.499,4.677Z"></path>
  </g>
  <g>
    <path class="uuid-224a60bb-6083-4e19-bf70-fd35f0cffdde" d="M71.755,100.116h1.959l2.688,6.996h-1.859l-.58-1.669h-2.559l-.59,1.669h-1.789l2.729-6.996h0ZM73.504,104.114l-.81-2.318-.819,2.318h1.629Z"></path>
    <path class="uuid-224a60bb-6083-4e19-bf70-fd35f0cffdde" d="M77.057,101.955h1.599v.72c.339-.46.909-.75,1.529-.75,1.27,0,2.279,1.169,2.279,2.619s-1.06,2.598-2.398,2.598c-.56,0-1.05-.209-1.39-.6v2.659h-1.619s0-7.246,0-7.246ZM80.875,104.534c0-.729-.53-1.269-1.229-1.269-.4,0-.709.14-.97.419v1.719c.25.26.59.41.97.41.709,0,1.229-.54,1.229-1.279Z"></path>
    <path class="uuid-224a60bb-6083-4e19-bf70-fd35f0cffdde" d="M83.497,101.955h1.599v.72c.339-.46.909-.75,1.529-.75,1.27,0,2.279,1.169,2.279,2.619s-1.06,2.598-2.398,2.598c-.56,0-1.05-.209-1.39-.6v2.659h-1.619s0-7.246,0-7.246ZM87.314,104.534c0-.729-.53-1.269-1.229-1.269-.4,0-.709.14-.97.419v1.719c.25.26.59.41.97.41.709,0,1.229-.54,1.229-1.279Z"></path>
    <path class="uuid-224a60bb-6083-4e19-bf70-fd35f0cffdde" d="M89.937,99.996l1.619-.25v7.366h-1.619v-7.116Z"></path>
    <path class="uuid-224a60bb-6083-4e19-bf70-fd35f0cffdde" d="M92.716,100.256c0-.5.41-.909.909-.909s.91.41.91.909-.41.91-.91.91-.909-.41-.909-.91ZM92.816,101.955h1.619v5.157h-1.619v-5.157Z"></path>
    <path class="uuid-224a60bb-6083-4e19-bf70-fd35f0cffdde" d="M95.466,104.544c0-1.509,1.159-2.669,2.668-2.669.85,0,1.629.34,2.149.95l-.99.989c-.33-.39-.66-.56-1.099-.56-.64,0-1.12.55-1.12,1.29s.48,1.289,1.12,1.289c.439,0,.77-.17,1.099-.56l.99.989c-.52.61-1.299.95-2.149.95-1.509,0-2.668-1.16-2.668-2.668Z"></path>
    <path class="uuid-224a60bb-6083-4e19-bf70-fd35f0cffdde" d="M100.846,105.633c0-.95.74-1.5,2.009-1.5.37,0,.74.07,1.2.24v-.42c0-.5-.33-.75-1.02-.75-.39,0-.85.11-1.449.36l-.56-1.129c.85-.38,1.609-.56,2.369-.56,1.429,0,2.259.71,2.259,1.939v3.298h-1.599v-.45c-.45.38-.879.53-1.429.53-1.05,0-1.779-.64-1.779-1.559h-.001ZM103.125,106.123c.34,0,.65-.09.93-.26v-.66c-.3-.07-.59-.11-.89-.11-.53,0-.83.18-.83.51s.29.52.79.52Z"></path>
    <path class="uuid-224a60bb-6083-4e19-bf70-fd35f0cffdde" d="M107.405,105.553v-2.349h-.999v-1.25h.999v-1.429l1.619-.33v1.759h1.379v1.25h-1.379v2.029c0,.459.18.62.68.62.19,0,.34-.02.66-.11v1.309c-.3.09-.779.16-1.109.16-1.219,0-1.849-.56-1.849-1.659h-.001Z"></path>
    <path class="uuid-224a60bb-6083-4e19-bf70-fd35f0cffdde" d="M111.206,100.256c0-.5.41-.909.91-.909s.909.41.909.909-.41.91-.909.91-.91-.41-.91-.91ZM111.306,101.955h1.619v5.157h-1.619v-5.157Z"></path>
    <path class="uuid-224a60bb-6083-4e19-bf70-fd35f0cffdde" d="M113.956,104.544c0-1.52,1.159-2.669,2.688-2.669s2.688,1.149,2.688,2.669-1.159,2.668-2.688,2.668-2.688-1.149-2.688-2.668ZM117.754,104.544c0-.77-.46-1.319-1.109-1.319s-1.109.549-1.109,1.319.459,1.319,1.109,1.319,1.109-.549,1.109-1.319Z"></path>
    <path class="uuid-224a60bb-6083-4e19-bf70-fd35f0cffdde" d="M120.366,101.955h1.619v.839c.4-.6.959-.919,1.629-.919,1,0,1.709.73,1.709,1.759v3.478h-1.619v-3.008c0-.58-.34-.959-.859-.959-.35,0-.63.14-.86.43v3.538h-1.619v-5.157h0Z"></path>
  </g>
  <g>
    <path class="uuid-224a60bb-6083-4e19-bf70-fd35f0cffdde" d="M114.516,136.385h3.108c1.389,0,2.339.859,2.339,2.119,0,.91-.54,1.619-1.389,1.919l1.479,2.958h-1.329l-1.35-2.798h-1.659v2.798h-1.2v-6.996h0ZM117.514,139.623c.75,0,1.239-.44,1.239-1.109,0-.68-.49-1.12-1.239-1.12h-1.799v2.229h1.799Z"></path>
    <path class="uuid-224a60bb-6083-4e19-bf70-fd35f0cffdde" d="M120.616,140.882c0-1.469,1.06-2.589,2.438-2.589,1.37,0,2.369,1.09,2.369,2.589v.27h-3.698c.11.81.72,1.399,1.499,1.399.47,0,.91-.18,1.189-.47l.74.669c-.61.51-1.219.73-1.979.73-1.439,0-2.559-1.129-2.559-2.599h0ZM124.354,140.452c-.12-.73-.64-1.239-1.309-1.239-.68,0-1.179.489-1.309,1.239,0,0,2.618,0,2.618,0Z"></path>
    <path class="uuid-224a60bb-6083-4e19-bf70-fd35f0cffdde" d="M126.176,142.801l.53-.75c.66.41,1.099.569,1.609.569.6,0,1.009-.28,1.009-.679,0-.31-.209-.47-.699-.57l-.88-.15c-.979-.18-1.449-.63-1.449-1.379,0-.939.77-1.549,1.939-1.549.7,0,1.33.2,1.969.6l-.53.75c-.51-.33-1-.48-1.509-.48-.52,0-.859.22-.859.58,0,.32.18.46.7.55l.889.17c1,.18,1.479.64,1.479,1.389,0,.919-.88,1.629-2.049,1.629-.859,0-1.619-.24-2.148-.68h-.001Z"></path>
    <path class="uuid-224a60bb-6083-4e19-bf70-fd35f0cffdde" d="M131.236,140.882c0-1.479,1.08-2.589,2.519-2.589,1.429,0,2.509,1.109,2.509,2.589s-1.08,2.588-2.509,2.588c-1.439,0-2.519-1.109-2.519-2.588ZM135.154,140.882c0-.93-.59-1.629-1.399-1.629-.819,0-1.409.7-1.409,1.629,0,.939.59,1.629,1.409,1.629.81,0,1.399-.689,1.399-1.629Z"></path>
    <path class="uuid-224a60bb-6083-4e19-bf70-fd35f0cffdde" d="M137.396,141.672v-3.298h1.139v2.968c0,.74.43,1.209,1.1,1.209.45,0,.83-.2,1.089-.6v-3.578h1.129v5.007h-1.129v-.81c-.38.59-.919.89-1.589.89-1.019,0-1.739-.74-1.739-1.789h0Z"></path>
    <path class="uuid-224a60bb-6083-4e19-bf70-fd35f0cffdde" d="M143.255,138.373h1.129v1.08c.28-.76.759-1.169,1.379-1.169.19.01.32.03.49.1v.989c-.18-.07-.41-.12-.62-.12-.549,0-1,.31-1.249.83v3.298h-1.129v-5.007h0Z"></path>
    <path class="uuid-224a60bb-6083-4e19-bf70-fd35f0cffdde" d="M146.725,140.882c0-1.449,1.1-2.589,2.529-2.589.779,0,1.499.31,1.999.85l-.699.729c-.35-.39-.78-.589-1.26-.589-.809,0-1.439.7-1.439,1.599,0,.909.63,1.599,1.439,1.599.48,0,.91-.2,1.26-.58l.699.719c-.5.54-1.219.85-1.999.85-1.429,0-2.529-1.129-2.529-2.588Z"></path>
    <path class="uuid-224a60bb-6083-4e19-bf70-fd35f0cffdde" d="M151.805,140.882c0-1.469,1.06-2.589,2.438-2.589,1.37,0,2.369,1.09,2.369,2.589v.27h-3.698c.11.81.72,1.399,1.499,1.399.47,0,.91-.18,1.189-.47l.74.669c-.61.51-1.219.73-1.979.73-1.439,0-2.559-1.129-2.559-2.599h.001ZM155.543,140.452c-.12-.73-.64-1.239-1.309-1.239-.68,0-1.179.489-1.309,1.239h2.618Z"></path>
    <path class="uuid-224a60bb-6083-4e19-bf70-fd35f0cffdde" d="M157.365,142.801l.53-.75c.659.41,1.099.569,1.609.569.6,0,1.009-.28,1.009-.679,0-.31-.209-.47-.699-.57l-.88-.15c-.979-.18-1.449-.63-1.449-1.379,0-.939.77-1.549,1.939-1.549.7,0,1.33.2,1.969.6l-.53.75c-.51-.33-1-.48-1.509-.48-.52,0-.859.22-.859.58,0,.32.18.46.699.55l.89.17c1,.18,1.479.64,1.479,1.389,0,.919-.88,1.629-2.049,1.629-.86,0-1.619-.24-2.149-.68h0Z"></path>
  </g>
  <rect class="uuid-64da9a2f-926a-4e11-8481-520c3f2926d8" x="228.854" y="337.636" width="137.568" height="44.099"></rect>
  <g>
    <path class="uuid-68798453-a211-4a64-9c72-4bfe21758914" d="M277.497,355.205h3.741c1.584,0,2.717,1.023,2.717,2.453,0,.979-.561,1.771-1.43,2.156l1.617,3.092h-2.112l-1.397-2.827h-1.243v2.827h-1.893v-7.701h0ZM281.062,358.594c.583,0,.979-.363.979-.913s-.396-.913-.979-.913h-1.672v1.826h1.672Z"></path>
    <path class="uuid-68798453-a211-4a64-9c72-4bfe21758914" d="M285.12,355.205h1.892v2.992h3.114v-2.992h1.892v7.701h-1.892v-3.048h-3.114v3.048h-1.892v-7.701Z"></path>
    <path class="uuid-68798453-a211-4a64-9c72-4bfe21758914" d="M295.79,355.205h2.156l2.959,7.701h-2.046l-.638-1.837h-2.816l-.649,1.837h-1.969l3.003-7.701h0ZM297.715,359.606l-.891-2.552-.902,2.552h1.793Z"></path>
    <path class="uuid-68798453-a211-4a64-9c72-4bfe21758914" d="M301.037,359.056c0-2.244,1.771-3.972,4.06-3.972,1.231,0,2.453.583,3.124,1.496l-1.276,1.21c-.506-.682-1.122-1.022-1.848-1.022-1.199,0-2.102.979-2.102,2.288s.902,2.288,2.102,2.288c.726,0,1.342-.341,1.848-1.022l1.276,1.21c-.671.913-1.893,1.496-3.124,1.496-2.289,0-4.06-1.728-4.06-3.972Z"></path>
    <path class="uuid-68798453-a211-4a64-9c72-4bfe21758914" d="M309.319,355.205h2.377l1.859,3.696,1.848-3.696h2.377v7.701h-1.782v-5.226l-2.465,4.676-2.476-4.72v5.27h-1.738v-7.701h0Z"></path>
  </g>
  <g>
    <path class="uuid-224a60bb-6083-4e19-bf70-fd35f0cffdde" d="M69.468,192.003c0-2.019,1.589-3.608,3.618-3.608s3.618,1.589,3.618,3.608-1.589,3.608-3.618,3.608-3.618-1.589-3.618-3.608ZM74.935,192.003c0-1.189-.8-2.079-1.849-2.079s-1.849.89-1.849,2.079.8,2.079,1.849,2.079,1.849-.889,1.849-2.079Z"></path>
    <path class="uuid-224a60bb-6083-4e19-bf70-fd35f0cffdde" d="M77.788,190.344h1.599v.72c.339-.46.909-.75,1.529-.75,1.27,0,2.279,1.169,2.279,2.619s-1.06,2.598-2.398,2.598c-.56,0-1.05-.209-1.39-.6v2.659h-1.619s0-7.246,0-7.246ZM81.606,192.922c0-.729-.53-1.269-1.229-1.269-.4,0-.709.14-.97.419v1.719c.25.26.59.41.97.41.709,0,1.229-.54,1.229-1.279Z"></path>
    <path class="uuid-224a60bb-6083-4e19-bf70-fd35f0cffdde" d="M83.998,192.932c0-1.509,1.119-2.669,2.599-2.669,1.489,0,2.539,1.129,2.539,2.729v.35h-3.548c.15.58.62.969,1.209.969.43,0,.79-.15,1.02-.43l1.069.89c-.669.589-1.299.83-2.169.83-1.519,0-2.718-1.169-2.718-2.668h0ZM87.636,192.423c-.14-.55-.529-.9-1.049-.9-.51,0-.87.33-1,.9h2.049Z"></path>
    <path class="uuid-224a60bb-6083-4e19-bf70-fd35f0cffdde" d="M90.148,190.344h1.619v.839c.4-.6.959-.919,1.629-.919,1,0,1.709.73,1.709,1.759v3.478h-1.619v-3.008c0-.58-.34-.959-.859-.959-.35,0-.63.14-.86.43v3.538h-1.619v-5.157h0Z"></path>
    <path class="uuid-224a60bb-6083-4e19-bf70-fd35f0cffdde" d="M95.888,194.551l.879-1.269c.97.68,1.579.93,2.269.93.739,0,1.189-.3,1.189-.74,0-.41-.24-.61-.919-.729l-1.489-.26c-1.109-.189-1.719-.889-1.719-1.879,0-1.359,1.04-2.208,2.778-2.208,1.08,0,2.149.35,2.869.919l-.87,1.249c-.68-.52-1.349-.77-2.089-.77-.68,0-1.069.28-1.069.66,0,.36.229.54.79.64l1.399.24c1.31.22,1.999.909,1.999,1.979,0,1.37-1.159,2.299-2.988,2.299-1.109,0-2.099-.37-3.028-1.06h-.001Z"></path>
    <path class="uuid-224a60bb-6083-4e19-bf70-fd35f0cffdde" d="M102.878,188.385l1.619-.25v3.048c.4-.6.959-.919,1.629-.919,1,0,1.709.73,1.709,1.759v3.478h-1.619v-3.008c0-.58-.34-.959-.859-.959-.35,0-.63.14-.86.43v3.538h-1.619v-7.116h0Z"></path>
    <path class="uuid-224a60bb-6083-4e19-bf70-fd35f0cffdde" d="M108.958,188.644c0-.5.41-.909.909-.909s.91.41.91.909-.41.91-.91.91-.909-.41-.909-.91ZM109.058,190.344h1.619v5.157h-1.619v-5.157Z"></path>
    <path class="uuid-224a60bb-6083-4e19-bf70-fd35f0cffdde" d="M112.697,191.593h-1.069v-1.25h1.069v-.68c0-1.229.729-1.899,2.059-1.899.28,0,.649.04.859.1v1.329c-.29-.05-.44-.06-.62-.06-.46,0-.68.18-.68.56v.649h1.299v1.25h-1.299v3.908h-1.619v-3.908h.001Z"></path>
    <path class="uuid-224a60bb-6083-4e19-bf70-fd35f0cffdde" d="M117.217,193.942v-2.349h-.999v-1.25h.999v-1.429l1.619-.33v1.759h1.379v1.25h-1.379v2.029c0,.459.18.62.68.62.19,0,.34-.02.66-.11v1.309c-.3.09-.779.16-1.109.16-1.219,0-1.849-.56-1.849-1.659h-.001Z"></path>
    <path class="uuid-224a60bb-6083-4e19-bf70-fd35f0cffdde" d="M123.417,188.505h2.848c1.959,0,3.518,1.559,3.518,3.498s-1.559,3.498-3.518,3.498h-2.848s0-6.996,0-6.996ZM126.266,194.032c.97,0,1.739-.899,1.739-2.029s-.77-2.029-1.739-2.029h-1.129v4.058h1.129,0Z"></path>
    <path class="uuid-224a60bb-6083-4e19-bf70-fd35f0cffdde" d="M130.527,194.022c0-.95.74-1.5,2.009-1.5.37,0,.739.07,1.199.24v-.42c0-.5-.33-.75-1.02-.75-.39,0-.85.11-1.449.36l-.56-1.129c.85-.38,1.609-.56,2.369-.56,1.429,0,2.259.71,2.259,1.939v3.298h-1.599v-.45c-.45.38-.88.53-1.429.53-1.049,0-1.779-.64-1.779-1.559h0ZM132.806,194.512c.34,0,.65-.09.93-.26v-.66c-.3-.07-.59-.11-.89-.11-.53,0-.83.18-.83.51s.29.52.79.52h0Z"></path>
    <path class="uuid-224a60bb-6083-4e19-bf70-fd35f0cffdde" d="M137.086,193.942v-2.349h-.999v-1.25h.999v-1.429l1.619-.33v1.759h1.379v1.25h-1.379v2.029c0,.459.18.62.68.62.19,0,.34-.02.66-.11v1.309c-.3.09-.779.16-1.109.16-1.219,0-1.849-.56-1.849-1.659h-.001Z"></path>
    <path class="uuid-224a60bb-6083-4e19-bf70-fd35f0cffdde" d="M140.747,194.022c0-.95.74-1.5,2.009-1.5.37,0,.739.07,1.199.24v-.42c0-.5-.33-.75-1.02-.75-.39,0-.85.11-1.449.36l-.56-1.129c.85-.38,1.609-.56,2.369-.56,1.429,0,2.259.71,2.259,1.939v3.298h-1.599v-.45c-.45.38-.88.53-1.429.53-1.049,0-1.779-.64-1.779-1.559h0ZM143.026,194.512c.34,0,.65-.09.93-.26v-.66c-.3-.07-.59-.11-.89-.11-.53,0-.83.18-.83.51s.29.52.79.52h0Z"></path>
    <path class="uuid-224a60bb-6083-4e19-bf70-fd35f0cffdde" d="M149.077,188.505h5.327v1.439h-3.608v1.379h2.519v1.399h-2.519v2.778h-1.719v-6.996h0Z"></path>
    <path class="uuid-224a60bb-6083-4e19-bf70-fd35f0cffdde" d="M154.427,192.932c0-1.52,1.159-2.669,2.688-2.669s2.688,1.149,2.688,2.669-1.159,2.668-2.688,2.668-2.688-1.149-2.688-2.668ZM158.225,192.932c0-.77-.46-1.319-1.109-1.319s-1.109.549-1.109,1.319.459,1.319,1.109,1.319,1.109-.549,1.109-1.319Z"></path>
    <path class="uuid-224a60bb-6083-4e19-bf70-fd35f0cffdde" d="M160.797,193.822v-3.478h1.619v3.008c0,.58.34.959.859.959.35,0,.629-.14.859-.43v-3.538h1.619v5.157h-1.619v-.839c-.4.6-.959.919-1.629.919-1,0-1.709-.729-1.709-1.759h.001Z"></path>
    <path class="uuid-224a60bb-6083-4e19-bf70-fd35f0cffdde" d="M167.017,190.344h1.619v.839c.4-.6.959-.919,1.629-.919,1,0,1.709.73,1.709,1.759v3.478h-1.619v-3.008c0-.58-.34-.959-.859-.959-.35,0-.63.14-.86.43v3.538h-1.619v-5.157h0Z"></path>
    <path class="uuid-224a60bb-6083-4e19-bf70-fd35f0cffdde" d="M172.967,192.912c0-1.449,1.059-2.599,2.398-2.599.54,0,1.03.22,1.379.62v-2.549l1.619-.25v7.366h-1.599v-.669c-.34.43-.91.699-1.519.699-1.27,0-2.279-1.169-2.279-2.618h.001ZM176.745,193.782v-1.739c-.25-.26-.59-.4-.959-.4-.709,0-1.229.54-1.229,1.279,0,.729.53,1.27,1.229,1.27.39,0,.709-.14.959-.41h0Z"></path>
    <path class="uuid-224a60bb-6083-4e19-bf70-fd35f0cffdde" d="M179.387,194.022c0-.95.74-1.5,2.009-1.5.37,0,.739.07,1.199.24v-.42c0-.5-.33-.75-1.02-.75-.39,0-.85.11-1.449.36l-.56-1.129c.85-.38,1.609-.56,2.369-.56,1.429,0,2.259.71,2.259,1.939v3.298h-1.599v-.45c-.45.38-.88.53-1.429.53-1.049,0-1.779-.64-1.779-1.559h0ZM181.666,194.512c.34,0,.65-.09.93-.26v-.66c-.3-.07-.59-.11-.89-.11-.53,0-.83.18-.83.51s.29.52.79.52h0Z"></path>
    <path class="uuid-224a60bb-6083-4e19-bf70-fd35f0cffdde" d="M185.946,193.942v-2.349h-.999v-1.25h.999v-1.429l1.619-.33v1.759h1.379v1.25h-1.379v2.029c0,.459.18.62.68.62.19,0,.34-.02.66-.11v1.309c-.3.09-.779.16-1.109.16-1.219,0-1.849-.56-1.849-1.659h-.001Z"></path>
    <path class="uuid-224a60bb-6083-4e19-bf70-fd35f0cffdde" d="M189.747,188.644c0-.5.41-.909.91-.909s.909.41.909.909-.41.91-.909.91-.91-.41-.91-.91ZM189.847,190.344h1.619v5.157h-1.619v-5.157Z"></path>
    <path class="uuid-224a60bb-6083-4e19-bf70-fd35f0cffdde" d="M192.497,192.932c0-1.52,1.159-2.669,2.688-2.669s2.688,1.149,2.688,2.669-1.159,2.668-2.688,2.668-2.688-1.149-2.688-2.668ZM196.295,192.932c0-.77-.46-1.319-1.109-1.319s-1.109.549-1.109,1.319.459,1.319,1.109,1.319,1.109-.549,1.109-1.319Z"></path>
    <path class="uuid-224a60bb-6083-4e19-bf70-fd35f0cffdde" d="M198.907,190.344h1.619v.839c.4-.6.959-.919,1.629-.919,1,0,1.709.73,1.709,1.759v3.478h-1.619v-3.008c0-.58-.34-.959-.859-.959-.35,0-.63.14-.86.43v3.538h-1.619v-5.157h0Z"></path>
  </g>
  <g>
    <path class="uuid-224a60bb-6083-4e19-bf70-fd35f0cffdde" d="M223.388,310.337h1.389l2.708,6.996h-1.29l-.719-1.959h-2.869l-.72,1.959h-1.249l2.749-6.996h0ZM225.146,314.435l-1.099-2.958-1.089,2.958h2.188Z"></path>
    <path class="uuid-224a60bb-6083-4e19-bf70-fd35f0cffdde" d="M228.059,315.624v-3.298h1.139v2.968c0,.74.43,1.21,1.1,1.21.45,0,.83-.2,1.089-.601v-3.577h1.129v5.007h-1.129v-.81c-.38.59-.919.89-1.589.89-1.02,0-1.739-.739-1.739-1.789h0Z"></path>
    <path class="uuid-224a60bb-6083-4e19-bf70-fd35f0cffdde" d="M234.538,316.034v-2.809h-1v-.899h1v-1.38l1.129-.239v1.619h1.389v.899h-1.389v2.559c0,.489.19.68.7.68.22,0,.379-.03.68-.12v.949c-.29.09-.67.14-.97.14-1.009,0-1.539-.479-1.539-1.398h0Z"></path>
    <path class="uuid-224a60bb-6083-4e19-bf70-fd35f0cffdde" d="M237.749,314.834c0-1.479,1.08-2.588,2.519-2.588,1.429,0,2.509,1.109,2.509,2.588s-1.08,2.589-2.509,2.589c-1.439,0-2.519-1.109-2.519-2.589ZM241.667,314.834c0-.929-.59-1.629-1.399-1.629-.819,0-1.409.7-1.409,1.629,0,.939.59,1.63,1.409,1.63.81,0,1.399-.69,1.399-1.63Z"></path>
    <path class="uuid-224a60bb-6083-4e19-bf70-fd35f0cffdde" d="M243.948,312.326h1.129v.789c.37-.569.87-.869,1.479-.869.689,0,1.219.369,1.479.959.39-.63.949-.959,1.659-.959.97,0,1.639.749,1.639,1.809v3.278h-1.129v-3.028c0-.699-.39-1.149-1.009-1.149-.41,0-.75.189-1,.6.01.1.02.2.02.3v3.278h-1.139v-3.028c0-.699-.39-1.149-1.01-1.149-.41,0-.74.189-.989.58v3.598h-1.129v-5.009Z"></path>
    <path class="uuid-224a60bb-6083-4e19-bf70-fd35f0cffdde" d="M252.449,315.894c0-.899.739-1.469,1.919-1.469.47,0,.909.1,1.349.319v-.56c0-.659-.38-.999-1.149-.999-.42,0-.879.12-1.459.39l-.4-.819c.75-.34,1.409-.51,2.079-.51,1.31,0,2.049.659,2.049,1.818v3.269h-1.119v-.52c-.43.42-.91.609-1.489.609-1.049,0-1.779-.63-1.779-1.529h0ZM254.538,316.623c.45,0,.839-.13,1.179-.419v-.81c-.36-.17-.72-.24-1.149-.24-.649,0-1.06.27-1.06.72,0,.46.4.749,1.03.749Z"></path>
    <path class="uuid-224a60bb-6083-4e19-bf70-fd35f0cffdde" d="M258.678,316.034v-2.809h-1v-.899h1v-1.38l1.129-.239v1.619h1.389v.899h-1.389v2.559c0,.489.19.68.7.68.22,0,.379-.03.68-.12v.949c-.29.09-.67.14-.97.14-1.009,0-1.539-.479-1.539-1.398h0Z"></path>
    <path class="uuid-224a60bb-6083-4e19-bf70-fd35f0cffdde" d="M261.888,314.834c0-1.469,1.06-2.588,2.438-2.588,1.37,0,2.369,1.089,2.369,2.588v.271h-3.698c.11.81.72,1.399,1.499,1.399.47,0,.91-.181,1.189-.47l.74.669c-.61.51-1.219.729-1.979.729-1.439,0-2.559-1.129-2.559-2.599h.001ZM265.626,314.405c-.12-.729-.64-1.239-1.309-1.239-.68,0-1.179.49-1.309,1.239h2.618,0Z"></path>
    <path class="uuid-224a60bb-6083-4e19-bf70-fd35f0cffdde" d="M267.638,314.834c0-1.429,1.029-2.548,2.339-2.548.569,0,1.089.229,1.459.649v-2.769l1.129-.2v7.366h-1.119v-.659c-.36.449-.92.709-1.549.709-1.27,0-2.259-1.129-2.259-2.549h0ZM271.436,315.884v-2.108c-.29-.34-.72-.54-1.189-.54-.859,0-1.499.68-1.499,1.599,0,.91.64,1.6,1.499,1.6.49,0,.9-.19,1.189-.55h0Z"></path>
    <path class="uuid-224a60bb-6083-4e19-bf70-fd35f0cffdde" d="M276.897,313.226h-1.08v-.899h1.08v-.86c0-1.089.609-1.679,1.729-1.679.28,0,.56.03.75.09v.96c-.25-.051-.4-.07-.6-.07-.52,0-.75.229-.75.72v.84h1.349v.899h-1.349v4.107h-1.129v-4.107h0Z"></path>
    <path class="uuid-224a60bb-6083-4e19-bf70-fd35f0cffdde" d="M279.898,315.894c0-.899.739-1.469,1.919-1.469.47,0,.909.1,1.349.319v-.56c0-.659-.38-.999-1.149-.999-.42,0-.879.12-1.459.39l-.4-.819c.75-.34,1.409-.51,2.079-.51,1.31,0,2.049.659,2.049,1.818v3.269h-1.119v-.52c-.43.42-.91.609-1.489.609-1.049,0-1.779-.63-1.779-1.529h-.001ZM281.987,316.623c.45,0,.839-.13,1.179-.419v-.81c-.36-.17-.72-.24-1.149-.24-.649,0-1.06.27-1.06.72,0,.46.4.749,1.03.749Z"></path>
    <path class="uuid-224a60bb-6083-4e19-bf70-fd35f0cffdde" d="M285.518,310.617c0-.379.31-.699.7-.699.38,0,.7.32.7.699s-.32.69-.7.69c-.39,0-.7-.311-.7-.69ZM285.647,312.326h1.129v5.007h-1.129v-5.007Z"></path>
    <path class="uuid-224a60bb-6083-4e19-bf70-fd35f0cffdde" d="M288.178,310.167l1.129-.2v7.366h-1.129v-7.166Z"></path>
    <path class="uuid-224a60bb-6083-4e19-bf70-fd35f0cffdde" d="M290.468,314.834c0-1.479,1.08-2.588,2.519-2.588,1.429,0,2.509,1.109,2.509,2.588s-1.08,2.589-2.509,2.589c-1.439,0-2.519-1.109-2.519-2.589ZM294.386,314.834c0-.929-.59-1.629-1.399-1.629-.819,0-1.409.7-1.409,1.629,0,.939.59,1.63,1.409,1.63.81,0,1.399-.69,1.399-1.63Z"></path>
    <path class="uuid-224a60bb-6083-4e19-bf70-fd35f0cffdde" d="M295.928,312.326h1.229l1.399,3.638,1.389-3.638h1.18l-2.06,5.007h-1.099l-2.039-5.007h.001Z"></path>
    <path class="uuid-224a60bb-6083-4e19-bf70-fd35f0cffdde" d="M301.558,314.834c0-1.469,1.06-2.588,2.438-2.588,1.369,0,2.369,1.089,2.369,2.588v.271h-3.698c.109.81.72,1.399,1.499,1.399.47,0,.909-.181,1.189-.47l.739.669c-.609.51-1.219.729-1.979.729-1.439,0-2.559-1.129-2.559-2.599h.002ZM305.295,314.405c-.119-.729-.64-1.239-1.309-1.239-.68,0-1.18.49-1.31,1.239h2.619Z"></path>
    <path class="uuid-224a60bb-6083-4e19-bf70-fd35f0cffdde" d="M307.518,312.326h1.129v1.079c.28-.76.76-1.17,1.379-1.17.19.011.32.03.49.101v.989c-.18-.07-.41-.12-.62-.12-.549,0-.999.31-1.249.83v3.298h-1.129v-5.007h0Z"></path>
    <path class="uuid-224a60bb-6083-4e19-bf70-fd35f0cffdde" d="M313.697,312.326h1.129v.789c.37-.569.87-.869,1.479-.869.689,0,1.219.369,1.479.959.39-.63.949-.959,1.658-.959.97,0,1.64.749,1.64,1.809v3.278h-1.13v-3.028c0-.699-.39-1.149-1.009-1.149-.41,0-.75.189-1,.6.011.1.021.2.021.3v3.278h-1.14v-3.028c0-.699-.39-1.149-1.01-1.149-.409,0-.739.189-.989.58v3.598h-1.129v-5.009Z"></path>
    <path class="uuid-224a60bb-6083-4e19-bf70-fd35f0cffdde" d="M322.197,315.894c0-.899.739-1.469,1.919-1.469.47,0,.909.1,1.349.319v-.56c0-.659-.379-.999-1.149-.999-.42,0-.879.12-1.459.39l-.399-.819c.749-.34,1.409-.51,2.078-.51,1.31,0,2.05.659,2.05,1.818v3.269h-1.12v-.52c-.43.42-.909.609-1.489.609-1.049,0-1.778-.63-1.778-1.529h-.002ZM324.286,316.623c.449,0,.839-.13,1.179-.419v-.81c-.359-.17-.72-.24-1.149-.24-.649,0-1.06.27-1.06.72,0,.46.4.749,1.03.749Z"></path>
    <path class="uuid-224a60bb-6083-4e19-bf70-fd35f0cffdde" d="M327.956,312.326h1.13v.819c.38-.59.93-.899,1.579-.899,1.029,0,1.749.729,1.749,1.789v3.298h-1.14v-2.979c0-.729-.43-1.199-1.1-1.199-.459,0-.829.21-1.089.609v3.568h-1.13v-5.007h.001Z"></path>
    <path class="uuid-224a60bb-6083-4e19-bf70-fd35f0cffdde" d="M333.517,315.894c0-.899.74-1.469,1.919-1.469.47,0,.91.1,1.35.319v-.56c0-.659-.38-.999-1.149-.999-.42,0-.88.12-1.459.39l-.4-.819c.75-.34,1.409-.51,2.079-.51,1.31,0,2.049.659,2.049,1.818v3.269h-1.119v-.52c-.43.42-.909.609-1.489.609-1.05,0-1.779-.63-1.779-1.529h-.002ZM335.605,316.623c.45,0,.84-.13,1.18-.419v-.81c-.359-.17-.72-.24-1.149-.24-.649,0-1.06.27-1.06.72,0,.46.4.749,1.029.749Z"></path>
    <path class="uuid-224a60bb-6083-4e19-bf70-fd35f0cffdde" d="M339.606,319.033l.39-.83c.59.29,1.069.42,1.569.42.84,0,1.279-.38,1.279-1.109v-.85c-.359.44-.909.7-1.539.7-1.27,0-2.259-1.13-2.259-2.549s1.029-2.528,2.339-2.528c.579,0,1.1.229,1.469.669v-.629h1.12v5.187c0,1.289-.84,2.009-2.359,2.009-.72,0-1.419-.18-2.009-.489h0ZM342.845,315.874v-2.099c-.29-.34-.72-.54-1.189-.54-.859,0-1.499.67-1.499,1.589,0,.909.64,1.6,1.499,1.6.49,0,.899-.2,1.189-.55Z"></path>
    <path class="uuid-224a60bb-6083-4e19-bf70-fd35f0cffdde" d="M345.137,314.834c0-1.469,1.06-2.588,2.438-2.588,1.369,0,2.369,1.089,2.369,2.588v.271h-3.698c.11.81.72,1.399,1.499,1.399.47,0,.91-.181,1.189-.47l.739.669c-.609.51-1.219.729-1.979.729-1.439,0-2.559-1.129-2.559-2.599h.002ZM348.875,314.405c-.12-.729-.64-1.239-1.31-1.239-.68,0-1.18.49-1.31,1.239h2.62Z"></path>
    <path class="uuid-224a60bb-6083-4e19-bf70-fd35f0cffdde" d="M351.096,312.326h1.13v.789c.37-.569.869-.869,1.479-.869.689,0,1.219.369,1.479.959.39-.63.95-.959,1.659-.959.97,0,1.64.749,1.64,1.809v3.278h-1.13v-3.028c0-.699-.39-1.149-1.01-1.149-.409,0-.749.189-.999.6.01.1.02.2.02.3v3.278h-1.139v-3.028c0-.699-.39-1.149-1.01-1.149-.41,0-.739.189-.989.58v3.598h-1.13v-5.009Z"></path>
    <path class="uuid-224a60bb-6083-4e19-bf70-fd35f0cffdde" d="M359.627,314.834c0-1.469,1.06-2.588,2.438-2.588,1.369,0,2.369,1.089,2.369,2.588v.271h-3.698c.11.81.72,1.399,1.499,1.399.47,0,.91-.181,1.189-.47l.739.669c-.609.51-1.219.729-1.979.729-1.439,0-2.559-1.129-2.559-2.599h.002ZM363.365,314.405c-.12-.729-.64-1.239-1.31-1.239-.68,0-1.18.49-1.31,1.239h2.62Z"></path>
    <path class="uuid-224a60bb-6083-4e19-bf70-fd35f0cffdde" d="M365.586,312.326h1.13v.819c.38-.59.93-.899,1.579-.899,1.029,0,1.749.729,1.749,1.789v3.298h-1.14v-2.979c0-.729-.43-1.199-1.1-1.199-.459,0-.829.21-1.089.609v3.568h-1.13v-5.007h.001Z"></path>
    <path class="uuid-224a60bb-6083-4e19-bf70-fd35f0cffdde" d="M371.876,316.034v-2.809h-.999v-.899h.999v-1.38l1.129-.239v1.619h1.39v.899h-1.39v2.559c0,.489.19.68.7.68.22,0,.38-.03.68-.12v.949c-.29.09-.67.14-.97.14-1.01,0-1.539-.479-1.539-1.398h0Z"></path>
    <path class="uuid-224a60bb-6083-4e19-bf70-fd35f0cffdde" d="M275.438,324.326h1.079l.88,3.527,1.039-3.527h.95l1.029,3.527.879-3.527h1.05l-1.35,5.007h-1.079l-1.02-3.528-1.009,3.528h-1.1l-1.349-5.007h.001Z"></path>
    <path class="uuid-224a60bb-6083-4e19-bf70-fd35f0cffdde" d="M283.127,322.617c0-.379.31-.699.7-.699.38,0,.7.32.7.699s-.32.69-.7.69c-.39,0-.7-.311-.7-.69ZM283.257,324.326h1.129v5.007h-1.129v-5.007Z"></path>
    <path class="uuid-224a60bb-6083-4e19-bf70-fd35f0cffdde" d="M286.407,328.034v-2.809h-1v-.899h1v-1.38l1.129-.239v1.619h1.389v.899h-1.389v2.559c0,.489.19.68.7.68.22,0,.379-.03.68-.12v.949c-.29.09-.67.14-.97.14-1.009,0-1.539-.479-1.539-1.398h0Z"></path>
    <path class="uuid-224a60bb-6083-4e19-bf70-fd35f0cffdde" d="M289.927,322.167l1.129-.2v3.179c.38-.59.929-.899,1.579-.899,1.029,0,1.749.729,1.749,1.789v3.298h-1.14v-2.979c0-.729-.43-1.199-1.099-1.199-.46,0-.83.21-1.089.609v3.568h-1.129v-7.166Z"></path>
    <path class="uuid-224a60bb-6083-4e19-bf70-fd35f0cffdde" d="M300.105,322.337h1.39l2.708,6.996h-1.289l-.72-1.959h-2.868l-.72,1.959h-1.249l2.748-6.996ZM301.864,326.435l-1.099-2.958-1.09,2.958h2.189Z"></path>
    <path class="uuid-224a60bb-6083-4e19-bf70-fd35f0cffdde" d="M304.457,325.835c0-2.029,1.579-3.608,3.618-3.608,1.069,0,2.089.46,2.729,1.25l-.8.779c-.5-.62-1.189-.949-1.929-.949-1.359,0-2.389,1.089-2.389,2.528s1.029,2.528,2.389,2.528c.739,0,1.429-.329,1.929-.949l.8.779c-.64.79-1.659,1.25-2.729,1.25-2.039,0-3.618-1.579-3.618-3.608Z"></path>
    <path class="uuid-224a60bb-6083-4e19-bf70-fd35f0cffdde" d="M312.017,322.337h1.56l2.049,4.248,2.038-4.248h1.56v6.996h-1.13v-5.477l-2.479,4.977-2.488-5.007v5.507h-1.109v-6.996h0Z"></path>
  </g>
  <rect class="uuid-b1a5381b-373a-4511-97ce-e8beff7539a6" x="341.726" y="20.923" width="231.517" height="275.684"></rect>
  <rect class="uuid-68798453-a211-4a64-9c72-4bfe21758914" x="358.023" y="52.847" width="198.923" height="229.001"></rect>
  <rect class="uuid-b1a5381b-373a-4511-97ce-e8beff7539a6" x="373.362" y="87.431" width="168.245" height="89.321"></rect>
  <rect class="uuid-68798453-a211-4a64-9c72-4bfe21758914" x="388.7" y="118.398" width="137.568" height="44.099"></rect>
  <rect class="uuid-c7d98823-ffba-4475-a9eb-0fb015aed543" x="373.362" y="178.574" width="168.245" height="88.516"></rect>
  <g>
    <path class="uuid-224a60bb-6083-4e19-bf70-fd35f0cffdde" d="M358.881,32.302h3.74c1.584,0,2.718,1.023,2.718,2.454,0,.979-.562,1.771-1.431,2.156l1.617,3.091h-2.112l-1.397-2.828h-1.243v2.828h-1.892v-7.701h0ZM362.445,35.691c.583,0,.979-.363.979-.913s-.396-.913-.979-.913h-1.673v1.826s1.673,0,1.673,0Z"></path>
    <path class="uuid-224a60bb-6083-4e19-bf70-fd35f0cffdde" d="M365.921,37.176c0-1.661,1.231-2.937,2.86-2.937,1.639,0,2.794,1.243,2.794,3.003v.385h-3.905c.165.638.682,1.067,1.331,1.067.473,0,.869-.165,1.122-.473l1.178.979c-.737.649-1.431.913-2.388.913-1.673,0-2.992-1.287-2.992-2.938h0ZM369.925,36.615c-.153-.605-.583-.99-1.155-.99-.561,0-.957.363-1.1.99h2.255Z"></path>
    <path class="uuid-224a60bb-6083-4e19-bf70-fd35f0cffdde" d="M373.07,41.907l.55-1.287c.627.297,1.188.44,1.738.44.847,0,1.287-.352,1.287-1.045v-.771c-.374.462-.99.748-1.65.748-1.397,0-2.508-1.276-2.508-2.86s1.166-2.838,2.64-2.838c.605,0,1.155.253,1.541.715v-.682h1.749v5.71c0,1.529-1.057,2.376-2.992,2.376-.858,0-1.673-.176-2.354-.506h0ZM376.646,38.089v-1.893c-.275-.286-.649-.44-1.056-.44-.781,0-1.354.583-1.354,1.386s.583,1.397,1.354,1.397c.429,0,.78-.154,1.056-.451h0Z"></path>
    <path class="uuid-224a60bb-6083-4e19-bf70-fd35f0cffdde" d="M379.692,32.456c0-.55.451-1.001,1.001-1.001s1.001.451,1.001,1.001-.45,1.001-1.001,1.001-1.001-.451-1.001-1.001ZM379.803,34.326h1.782v5.677h-1.782s0-5.677,0-5.677Z"></path>
    <path class="uuid-224a60bb-6083-4e19-bf70-fd35f0cffdde" d="M382.718,37.176c0-1.672,1.275-2.937,2.959-2.937s2.96,1.265,2.96,2.937-1.276,2.938-2.96,2.938-2.959-1.265-2.959-2.938ZM386.898,37.176c0-.847-.507-1.452-1.222-1.452s-1.221.605-1.221,1.452.506,1.453,1.221,1.453,1.222-.605,1.222-1.453Z"></path>
    <path class="uuid-224a60bb-6083-4e19-bf70-fd35f0cffdde" d="M389.769,34.326h1.782v.924c.439-.66,1.056-1.012,1.793-1.012,1.101,0,1.881.803,1.881,1.936v3.829h-1.782v-3.312c0-.638-.374-1.056-.945-1.056-.386,0-.693.154-.946.473v3.895h-1.782v-5.677h0Z"></path>
    <path class="uuid-224a60bb-6083-4e19-bf70-fd35f0cffdde" d="M398.8,38.793l3.256-3.224c.363-.352.518-.682.518-1.045,0-.495-.484-.869-1.134-.869-.692,0-1.243.264-1.947.946l-.946-1.155c.881-.836,1.882-1.265,2.949-1.265,1.639,0,2.728.891,2.728,2.233,0,.726-.308,1.342-1.001,2.013l-2.222,2.146,3.333-.011v1.441h-5.533v-1.21h-.001Z"></path>
  </g>
  <g>
    <path class="uuid-224a60bb-6083-4e19-bf70-fd35f0cffdde" d="M374.141,66.468h3.398c1.439,0,2.469.929,2.469,2.229,0,.89-.51,1.609-1.3,1.959l1.47,2.809h-1.919l-1.27-2.568h-1.129v2.568h-1.72v-6.996h0ZM377.379,69.546c.53,0,.89-.33.89-.83s-.359-.83-.89-.83h-1.519v1.659h1.519Z"></path>
    <path class="uuid-224a60bb-6083-4e19-bf70-fd35f0cffdde" d="M381.071,66.468h1.719v2.718h2.829v-2.718h1.719v6.996h-1.719v-2.769h-2.829v2.769h-1.719v-6.996Z"></path>
    <path class="uuid-224a60bb-6083-4e19-bf70-fd35f0cffdde" d="M388.472,69.966c0-2.019,1.589-3.608,3.617-3.608s3.618,1.589,3.618,3.608-1.589,3.608-3.618,3.608-3.617-1.589-3.617-3.608ZM393.938,69.966c0-1.189-.8-2.079-1.85-2.079s-1.849.89-1.849,2.079.8,2.079,1.849,2.079,1.85-.889,1.85-2.079Z"></path>
    <path class="uuid-224a60bb-6083-4e19-bf70-fd35f0cffdde" d="M396.611,69.966c0-2.039,1.608-3.608,3.688-3.608,1.119,0,2.229.53,2.839,1.359l-1.16,1.1c-.459-.62-1.019-.93-1.679-.93-1.09,0-1.909.89-1.909,2.079s.819,2.079,1.909,2.079c.66,0,1.22-.31,1.679-.929l1.16,1.099c-.61.83-1.72,1.359-2.839,1.359-2.079,0-3.688-1.569-3.688-3.608Z"></path>
    <path class="uuid-224a60bb-6083-4e19-bf70-fd35f0cffdde" d="M404.141,66.468h3.418c1.489,0,2.469.969,2.469,2.309,0,1.27-.979,2.249-2.469,2.249h-1.698v2.438h-1.72v-6.996ZM407.249,69.656c.7,0,1.04-.379,1.04-.889,0-.5-.34-.88-1.03-.88h-1.398v1.769h1.389-.001Z"></path>
    <path class="uuid-224a60bb-6083-4e19-bf70-fd35f0cffdde" d="M413.01,70.896c0-1.509,1.16-2.669,2.669-2.669.85,0,1.629.34,2.148.95l-.989.989c-.33-.39-.659-.56-1.1-.56-.64,0-1.119.55-1.119,1.29s.479,1.289,1.119,1.289c.44,0,.77-.17,1.1-.56l.989.989c-.52.61-1.299.95-2.148.95-1.509,0-2.669-1.16-2.669-2.668Z"></path>
    <path class="uuid-224a60bb-6083-4e19-bf70-fd35f0cffdde" d="M418.631,66.348l1.619-.25v7.366h-1.619v-7.116Z"></path>
    <path class="uuid-224a60bb-6083-4e19-bf70-fd35f0cffdde" d="M421.471,71.785v-3.478h1.619v3.008c0,.58.34.959.859.959.35,0,.63-.14.859-.43v-3.538h1.619v5.157h-1.619v-.839c-.399.6-.959.919-1.629.919-1,0-1.709-.729-1.709-1.759h.001Z"></path>
    <path class="uuid-224a60bb-6083-4e19-bf70-fd35f0cffdde" d="M427.271,72.934l.71-1.079c.739.39,1.159.52,1.658.52.46,0,.74-.16.74-.42,0-.2-.15-.31-.479-.37l-.99-.18c-.999-.189-1.519-.699-1.519-1.499,0-1.049.81-1.679,2.158-1.679.72,0,1.43.2,2.1.59l-.74,1.029c-.52-.3-.999-.439-1.479-.439-.391,0-.62.13-.62.35,0,.21.13.3.529.37l.97.18c1.02.19,1.549.709,1.549,1.489,0,1.009-.949,1.769-2.219,1.769-.939,0-1.769-.22-2.368-.63h0Z"></path>
    <path class="uuid-224a60bb-6083-4e19-bf70-fd35f0cffdde" d="M433.38,71.905v-2.349h-1v-1.25h1v-1.429l1.619-.33v1.759h1.379v1.25h-1.379v2.029c0,.459.18.62.68.62.189,0,.34-.02.659-.11v1.309c-.3.09-.779.16-1.109.16-1.22,0-1.849-.56-1.849-1.659h0Z"></path>
    <path class="uuid-224a60bb-6083-4e19-bf70-fd35f0cffdde" d="M437,70.896c0-1.509,1.12-2.669,2.599-2.669,1.489,0,2.539,1.129,2.539,2.729v.35h-3.548c.149.58.619.969,1.209.969.43,0,.79-.15,1.02-.43l1.069.89c-.67.589-1.299.83-2.169.83-1.52,0-2.719-1.169-2.719-2.668h0ZM440.639,70.386c-.141-.55-.53-.9-1.05-.9-.51,0-.869.33-.999.9h2.049,0Z"></path>
    <path class="uuid-224a60bb-6083-4e19-bf70-fd35f0cffdde" d="M443.15,68.307h1.619v1.169c.329-.859.789-1.27,1.399-1.27.229.01.34.03.539.13v1.389c-.199-.1-.479-.16-.76-.16-.479,0-.919.25-1.179.64v3.258h-1.619v-5.157h.001Z"></path>
    <path class="uuid-224a60bb-6083-4e19-bf70-fd35f0cffdde" d="M449.6,72.365l2.958-2.928c.33-.32.47-.62.47-.949,0-.45-.439-.79-1.029-.79-.63,0-1.129.24-1.769.859l-.859-1.049c.799-.76,1.709-1.149,2.678-1.149,1.489,0,2.479.81,2.479,2.029,0,.66-.28,1.219-.91,1.829l-2.019,1.949,3.028-.01v1.309h-5.027s0-1.1,0-1.1Z"></path>
    <path class="uuid-224a60bb-6083-4e19-bf70-fd35f0cffdde" d="M457.819,71.035c0-2.039.88-3.698,2.499-4.677l.859.989c-1.27.839-1.938,2.109-1.938,3.688s.669,2.849,1.938,3.688l-.859.989c-1.619-.979-2.499-2.638-2.499-4.677Z"></path>
    <path class="uuid-224a60bb-6083-4e19-bf70-fd35f0cffdde" d="M462.289,66.468h3.418c1.489,0,2.469.969,2.469,2.309,0,1.27-.979,2.249-2.469,2.249h-1.698v2.438h-1.72v-6.996ZM465.397,69.656c.7,0,1.04-.379,1.04-.889,0-.5-.34-.88-1.03-.88h-1.398v1.769h1.389-.001Z"></path>
    <path class="uuid-224a60bb-6083-4e19-bf70-fd35f0cffdde" d="M468.85,71.985c0-.95.739-1.5,2.009-1.5.37,0,.74.07,1.199.24v-.42c0-.5-.329-.75-1.02-.75-.39,0-.849.11-1.449.36l-.56-1.129c.85-.38,1.609-.56,2.369-.56,1.429,0,2.259.71,2.259,1.939v3.298h-1.6v-.45c-.449.38-.879.53-1.429.53-1.05,0-1.779-.64-1.779-1.559h0ZM471.129,72.475c.34,0,.649-.09.929-.26v-.66c-.3-.07-.589-.11-.889-.11-.53,0-.83.18-.83.51s.29.52.79.52Z"></path>
    <path class="uuid-224a60bb-6083-4e19-bf70-fd35f0cffdde" d="M474.46,72.934l.71-1.079c.739.39,1.159.52,1.658.52.46,0,.74-.16.74-.42,0-.2-.15-.31-.479-.37l-.99-.18c-.999-.189-1.519-.699-1.519-1.499,0-1.049.81-1.679,2.158-1.679.72,0,1.43.2,2.1.59l-.74,1.029c-.52-.3-.999-.439-1.479-.439-.391,0-.62.13-.62.35,0,.21.13.3.529.37l.97.18c1.02.19,1.549.709,1.549,1.489,0,1.009-.949,1.769-2.219,1.769-.939,0-1.769-.22-2.368-.63h0Z"></path>
    <path class="uuid-224a60bb-6083-4e19-bf70-fd35f0cffdde" d="M479.569,72.934l.71-1.079c.739.39,1.159.52,1.658.52.46,0,.74-.16.74-.42,0-.2-.15-.31-.479-.37l-.99-.18c-.999-.189-1.519-.699-1.519-1.499,0-1.049.81-1.679,2.158-1.679.72,0,1.43.2,2.1.59l-.74,1.029c-.52-.3-.999-.439-1.479-.439-.391,0-.62.13-.62.35,0,.21.13.3.529.37l.97.18c1.02.19,1.549.709,1.549,1.489,0,1.009-.949,1.769-2.219,1.769-.939,0-1.769-.22-2.368-.63h0Z"></path>
    <path class="uuid-224a60bb-6083-4e19-bf70-fd35f0cffdde" d="M484.999,66.608c0-.5.41-.909.91-.909s.909.41.909.909-.41.91-.909.91-.91-.41-.91-.91ZM485.1,68.307h1.619v5.157h-1.619v-5.157Z"></path>
    <path class="uuid-224a60bb-6083-4e19-bf70-fd35f0cffdde" d="M487.42,68.307h1.759l1.169,3.238,1.18-3.238h1.669l-2.108,5.157h-1.579l-2.089-5.157h-.001Z"></path>
    <path class="uuid-224a60bb-6083-4e19-bf70-fd35f0cffdde" d="M493.519,70.896c0-1.509,1.12-2.669,2.599-2.669,1.489,0,2.539,1.129,2.539,2.729v.35h-3.548c.149.58.619.969,1.209.969.43,0,.79-.15,1.02-.43l1.069.89c-.67.589-1.299.83-2.169.83-1.519,0-2.719-1.169-2.719-2.668h0ZM497.157,70.386c-.141-.55-.53-.9-1.05-.9-.51,0-.869.33-.999.9h2.049,0Z"></path>
    <path class="uuid-224a60bb-6083-4e19-bf70-fd35f0cffdde" d="M502.727,71.035c0,2.039-.879,3.698-2.498,4.677l-.859-.989c1.27-.839,1.938-2.109,1.938-3.688s-.669-2.849-1.938-3.688l.859-.989c1.619.979,2.498,2.638,2.498,4.677Z"></path>
  </g>
  <g>
    <path class="uuid-224a60bb-6083-4e19-bf70-fd35f0cffdde" d="M391.447,100.116h1.959l2.688,6.996h-1.858l-.58-1.669h-2.559l-.59,1.669h-1.789l2.729-6.996h0ZM393.196,104.114l-.81-2.318-.819,2.318h1.629Z"></path>
    <path class="uuid-224a60bb-6083-4e19-bf70-fd35f0cffdde" d="M396.749,101.955h1.599v.72c.34-.46.91-.75,1.529-.75,1.27,0,2.279,1.169,2.279,2.619s-1.06,2.598-2.399,2.598c-.56,0-1.049-.209-1.389-.6v2.659h-1.619v-7.246ZM400.566,104.534c0-.729-.529-1.269-1.229-1.269-.399,0-.709.14-.969.419v1.719c.25.26.59.41.969.41.71,0,1.229-.54,1.229-1.279Z"></path>
    <path class="uuid-224a60bb-6083-4e19-bf70-fd35f0cffdde" d="M403.188,101.955h1.599v.72c.34-.46.91-.75,1.529-.75,1.27,0,2.279,1.169,2.279,2.619s-1.06,2.598-2.399,2.598c-.56,0-1.049-.209-1.389-.6v2.659h-1.619v-7.246ZM407.006,104.534c0-.729-.529-1.269-1.229-1.269-.399,0-.709.14-.969.419v1.719c.25.26.59.41.969.41.71,0,1.229-.54,1.229-1.279Z"></path>
    <path class="uuid-224a60bb-6083-4e19-bf70-fd35f0cffdde" d="M409.629,99.996l1.619-.25v7.366h-1.619v-7.116Z"></path>
    <path class="uuid-224a60bb-6083-4e19-bf70-fd35f0cffdde" d="M412.408,100.256c0-.5.41-.909.91-.909s.909.41.909.909-.41.91-.909.91-.91-.41-.91-.91ZM412.509,101.955h1.619v5.157h-1.619v-5.157Z"></path>
    <path class="uuid-224a60bb-6083-4e19-bf70-fd35f0cffdde" d="M415.158,104.544c0-1.509,1.16-2.669,2.669-2.669.85,0,1.629.34,2.148.95l-.989.989c-.33-.39-.659-.56-1.1-.56-.64,0-1.119.55-1.119,1.29s.479,1.289,1.119,1.289c.44,0,.77-.17,1.1-.56l.989.989c-.52.61-1.299.95-2.148.95-1.509,0-2.669-1.16-2.669-2.668Z"></path>
    <path class="uuid-224a60bb-6083-4e19-bf70-fd35f0cffdde" d="M420.538,105.633c0-.95.739-1.5,2.009-1.5.37,0,.74.07,1.199.24v-.42c0-.5-.329-.75-1.02-.75-.39,0-.849.11-1.449.36l-.56-1.129c.85-.38,1.609-.56,2.369-.56,1.429,0,2.259.71,2.259,1.939v3.298h-1.6v-.45c-.449.38-.879.53-1.429.53-1.05,0-1.779-.64-1.779-1.559h0ZM422.817,106.123c.34,0,.649-.09.929-.26v-.66c-.3-.07-.589-.11-.889-.11-.53,0-.83.18-.83.51s.29.52.79.52Z"></path>
    <path class="uuid-224a60bb-6083-4e19-bf70-fd35f0cffdde" d="M427.099,105.553v-2.349h-1v-1.25h1v-1.429l1.619-.33v1.759h1.379v1.25h-1.379v2.029c0,.459.18.62.68.62.189,0,.34-.02.659-.11v1.309c-.3.09-.779.16-1.109.16-1.22,0-1.849-.56-1.849-1.659h0Z"></path>
    <path class="uuid-224a60bb-6083-4e19-bf70-fd35f0cffdde" d="M430.898,100.256c0-.5.41-.909.91-.909s.909.41.909.909-.41.91-.909.91-.91-.41-.91-.91ZM430.999,101.955h1.619v5.157h-1.619v-5.157Z"></path>
    <path class="uuid-224a60bb-6083-4e19-bf70-fd35f0cffdde" d="M433.648,104.544c0-1.52,1.16-2.669,2.688-2.669s2.688,1.149,2.688,2.669-1.159,2.668-2.688,2.668-2.688-1.149-2.688-2.668ZM437.446,104.544c0-.77-.459-1.319-1.109-1.319s-1.109.549-1.109,1.319.46,1.319,1.109,1.319,1.109-.549,1.109-1.319Z"></path>
    <path class="uuid-224a60bb-6083-4e19-bf70-fd35f0cffdde" d="M440.059,101.955h1.619v.839c.399-.6.959-.919,1.629-.919.999,0,1.709.73,1.709,1.759v3.478h-1.619v-3.008c0-.58-.34-.959-.859-.959-.35,0-.63.14-.859.43v3.538h-1.619v-5.157h-.001Z"></path>
  </g>
  <g>
    <path class="uuid-224a60bb-6083-4e19-bf70-fd35f0cffdde" d="M434.209,136.385h3.108c1.389,0,2.338.859,2.338,2.119,0,.91-.539,1.619-1.389,1.919l1.479,2.958h-1.33l-1.349-2.798h-1.659v2.798h-1.199v-6.996h0ZM437.207,139.623c.75,0,1.239-.44,1.239-1.109,0-.68-.489-1.12-1.239-1.12h-1.799v2.229h1.799Z"></path>
    <path class="uuid-224a60bb-6083-4e19-bf70-fd35f0cffdde" d="M440.309,140.882c0-1.469,1.06-2.589,2.438-2.589,1.369,0,2.369,1.09,2.369,2.589v.27h-3.698c.11.81.72,1.399,1.499,1.399.47,0,.91-.18,1.189-.47l.739.669c-.609.51-1.219.73-1.979.73-1.439,0-2.559-1.129-2.559-2.599h.002ZM444.047,140.452c-.12-.73-.64-1.239-1.31-1.239-.68,0-1.18.489-1.31,1.239h2.62Z"></path>
    <path class="uuid-224a60bb-6083-4e19-bf70-fd35f0cffdde" d="M445.869,142.801l.529-.75c.66.41,1.1.569,1.609.569.6,0,1.01-.28,1.01-.679,0-.31-.21-.47-.7-.57l-.879-.15c-.979-.18-1.449-.63-1.449-1.379,0-.939.77-1.549,1.938-1.549.7,0,1.329.2,1.969.6l-.529.75c-.51-.33-1-.48-1.51-.48-.52,0-.859.22-.859.58,0,.32.181.46.7.55l.89.17c.999.18,1.479.64,1.479,1.389,0,.919-.879,1.629-2.049,1.629-.859,0-1.619-.24-2.148-.68h0Z"></path>
    <path class="uuid-224a60bb-6083-4e19-bf70-fd35f0cffdde" d="M450.929,140.882c0-1.479,1.079-2.589,2.519-2.589,1.43,0,2.509,1.109,2.509,2.589s-1.079,2.588-2.509,2.588c-1.439,0-2.519-1.109-2.519-2.588ZM454.847,140.882c0-.93-.59-1.629-1.399-1.629-.819,0-1.409.7-1.409,1.629,0,.939.59,1.629,1.409,1.629.81,0,1.399-.689,1.399-1.629Z"></path>
    <path class="uuid-224a60bb-6083-4e19-bf70-fd35f0cffdde" d="M457.088,141.672v-3.298h1.14v2.968c0,.74.43,1.209,1.1,1.209.45,0,.829-.2,1.09-.6v-3.578h1.129v5.007h-1.129v-.81c-.38.59-.92.89-1.59.89-1.02,0-1.739-.74-1.739-1.789h-.001Z"></path>
    <path class="uuid-224a60bb-6083-4e19-bf70-fd35f0cffdde" d="M462.947,138.373h1.13v1.08c.279-.76.76-1.169,1.379-1.169.19.01.32.03.49.1v.989c-.181-.07-.41-.12-.62-.12-.55,0-.999.31-1.249.83v3.298h-1.13v-5.007h0Z"></path>
    <path class="uuid-224a60bb-6083-4e19-bf70-fd35f0cffdde" d="M466.418,140.882c0-1.449,1.1-2.589,2.528-2.589.78,0,1.499.31,1.999.85l-.699.729c-.35-.39-.779-.589-1.26-.589-.81,0-1.439.7-1.439,1.599,0,.909.63,1.599,1.439,1.599.48,0,.91-.2,1.26-.58l.699.719c-.5.54-1.219.85-1.999.85-1.429,0-2.528-1.129-2.528-2.588Z"></path>
    <path class="uuid-224a60bb-6083-4e19-bf70-fd35f0cffdde" d="M471.498,140.882c0-1.469,1.06-2.589,2.438-2.589,1.369,0,2.369,1.09,2.369,2.589v.27h-3.698c.11.81.72,1.399,1.499,1.399.47,0,.91-.18,1.189-.47l.739.669c-.609.51-1.219.73-1.979.73-1.439,0-2.559-1.129-2.559-2.599h.002ZM475.236,140.452c-.12-.73-.64-1.239-1.31-1.239-.68,0-1.18.489-1.31,1.239h2.62Z"></path>
    <path class="uuid-224a60bb-6083-4e19-bf70-fd35f0cffdde" d="M477.059,142.801l.529-.75c.66.41,1.1.569,1.609.569.6,0,1.01-.28,1.01-.679,0-.31-.21-.47-.7-.57l-.879-.15c-.979-.18-1.449-.63-1.449-1.379,0-.939.77-1.549,1.938-1.549.7,0,1.329.2,1.969.6l-.529.75c-.51-.33-1-.48-1.51-.48-.52,0-.859.22-.859.58,0,.32.181.46.7.55l.89.17c.999.18,1.479.64,1.479,1.389,0,.919-.879,1.629-2.049,1.629-.859,0-1.619-.24-2.148-.68h0Z"></path>
  </g>
  <g>
    <path class="uuid-224a60bb-6083-4e19-bf70-fd35f0cffdde" d="M389.161,192.003c0-2.019,1.589-3.608,3.617-3.608s3.618,1.589,3.618,3.608-1.589,3.608-3.618,3.608-3.617-1.589-3.617-3.608ZM394.628,192.003c0-1.189-.8-2.079-1.85-2.079s-1.849.89-1.849,2.079.8,2.079,1.849,2.079,1.85-.889,1.85-2.079Z"></path>
    <path class="uuid-224a60bb-6083-4e19-bf70-fd35f0cffdde" d="M397.48,190.344h1.599v.72c.34-.46.91-.75,1.529-.75,1.27,0,2.279,1.169,2.279,2.619s-1.06,2.598-2.399,2.598c-.56,0-1.049-.209-1.389-.6v2.659h-1.619v-7.246ZM401.298,192.922c0-.729-.529-1.269-1.229-1.269-.399,0-.709.14-.969.419v1.719c.25.26.59.41.969.41.71,0,1.229-.54,1.229-1.279Z"></path>
    <path class="uuid-224a60bb-6083-4e19-bf70-fd35f0cffdde" d="M403.69,192.932c0-1.509,1.12-2.669,2.599-2.669,1.489,0,2.539,1.129,2.539,2.729v.35h-3.548c.149.58.619.969,1.209.969.43,0,.79-.15,1.02-.43l1.069.89c-.67.589-1.299.83-2.169.83-1.519,0-2.719-1.169-2.719-2.668h0ZM407.329,192.423c-.141-.55-.53-.9-1.05-.9-.51,0-.869.33-.999.9h2.049,0Z"></path>
    <path class="uuid-224a60bb-6083-4e19-bf70-fd35f0cffdde" d="M409.841,190.344h1.619v.839c.399-.6.959-.919,1.629-.919.999,0,1.709.73,1.709,1.759v3.478h-1.619v-3.008c0-.58-.34-.959-.859-.959-.35,0-.63.14-.859.43v3.538h-1.619v-5.157h-.001Z"></path>
    <path class="uuid-224a60bb-6083-4e19-bf70-fd35f0cffdde" d="M415.58,194.551l.88-1.269c.97.68,1.579.93,2.269.93.74,0,1.189-.3,1.189-.74,0-.41-.239-.61-.919-.729l-1.489-.26c-1.109-.189-1.72-.889-1.72-1.879,0-1.359,1.04-2.208,2.779-2.208,1.079,0,2.148.35,2.868.919l-.87,1.249c-.68-.52-1.349-.77-2.089-.77-.68,0-1.069.28-1.069.66,0,.36.23.54.79.64l1.399.24c1.309.22,1.999.909,1.999,1.979,0,1.37-1.16,2.299-2.989,2.299-1.109,0-2.099-.37-3.028-1.06h0Z"></path>
    <path class="uuid-224a60bb-6083-4e19-bf70-fd35f0cffdde" d="M422.57,188.385l1.619-.25v3.048c.399-.6.959-.919,1.629-.919.999,0,1.709.73,1.709,1.759v3.478h-1.619v-3.008c0-.58-.34-.959-.859-.959-.35,0-.63.14-.859.43v3.538h-1.619v-7.116h-.001Z"></path>
    <path class="uuid-224a60bb-6083-4e19-bf70-fd35f0cffdde" d="M428.65,188.644c0-.5.41-.909.91-.909s.909.41.909.909-.41.91-.909.91-.91-.41-.91-.91ZM428.751,190.344h1.619v5.157h-1.619v-5.157Z"></path>
    <path class="uuid-224a60bb-6083-4e19-bf70-fd35f0cffdde" d="M432.391,191.593h-1.07v-1.25h1.07v-.68c0-1.229.729-1.899,2.059-1.899.279,0,.649.04.859.1v1.329c-.29-.05-.439-.06-.62-.06-.459,0-.679.18-.679.56v.649h1.299v1.25h-1.299v3.908h-1.619v-3.908h0Z"></path>
    <path class="uuid-224a60bb-6083-4e19-bf70-fd35f0cffdde" d="M436.91,193.942v-2.349h-1v-1.25h1v-1.429l1.619-.33v1.759h1.379v1.25h-1.379v2.029c0,.459.18.62.68.62.189,0,.34-.02.659-.11v1.309c-.3.09-.779.16-1.109.16-1.22,0-1.849-.56-1.849-1.659h0Z"></path>
    <path class="uuid-224a60bb-6083-4e19-bf70-fd35f0cffdde" d="M443.109,188.505h2.849c1.959,0,3.519,1.559,3.519,3.498s-1.56,3.498-3.519,3.498h-2.849v-6.996ZM445.958,194.032c.97,0,1.739-.899,1.739-2.029s-.77-2.029-1.739-2.029h-1.129v4.058h1.129Z"></path>
    <path class="uuid-224a60bb-6083-4e19-bf70-fd35f0cffdde" d="M450.22,194.022c0-.95.739-1.5,2.009-1.5.37,0,.74.07,1.199.24v-.42c0-.5-.329-.75-1.02-.75-.39,0-.849.11-1.449.36l-.56-1.129c.85-.38,1.609-.56,2.369-.56,1.429,0,2.259.71,2.259,1.939v3.298h-1.6v-.45c-.449.38-.879.53-1.429.53-1.05,0-1.779-.64-1.779-1.559h0ZM452.499,194.512c.34,0,.649-.09.929-.26v-.66c-.3-.07-.589-.11-.889-.11-.53,0-.83.18-.83.51s.29.52.79.52Z"></path>
    <path class="uuid-224a60bb-6083-4e19-bf70-fd35f0cffdde" d="M456.78,193.942v-2.349h-1v-1.25h1v-1.429l1.619-.33v1.759h1.379v1.25h-1.379v2.029c0,.459.18.62.68.62.189,0,.34-.02.659-.11v1.309c-.3.09-.779.16-1.109.16-1.22,0-1.849-.56-1.849-1.659h0Z"></path>
    <path class="uuid-224a60bb-6083-4e19-bf70-fd35f0cffdde" d="M460.44,194.022c0-.95.739-1.5,2.009-1.5.37,0,.74.07,1.199.24v-.42c0-.5-.329-.75-1.02-.75-.39,0-.849.11-1.449.36l-.56-1.129c.85-.38,1.609-.56,2.369-.56,1.429,0,2.259.71,2.259,1.939v3.298h-1.6v-.45c-.449.38-.879.53-1.429.53-1.05,0-1.779-.64-1.779-1.559h0ZM462.72,194.512c.34,0,.649-.09.929-.26v-.66c-.3-.07-.589-.11-.889-.11-.53,0-.83.18-.83.51s.29.52.79.52Z"></path>
    <path class="uuid-224a60bb-6083-4e19-bf70-fd35f0cffdde" d="M468.77,188.505h5.327v1.439h-3.607v1.379h2.519v1.399h-2.519v2.778h-1.72v-6.996h0Z"></path>
    <path class="uuid-224a60bb-6083-4e19-bf70-fd35f0cffdde" d="M474.12,192.932c0-1.52,1.16-2.669,2.688-2.669s2.688,1.149,2.688,2.669-1.159,2.668-2.688,2.668-2.688-1.149-2.688-2.668ZM477.918,192.932c0-.77-.459-1.319-1.109-1.319s-1.109.549-1.109,1.319.46,1.319,1.109,1.319,1.109-.549,1.109-1.319Z"></path>
    <path class="uuid-224a60bb-6083-4e19-bf70-fd35f0cffdde" d="M480.49,193.822v-3.478h1.619v3.008c0,.58.34.959.859.959.35,0,.63-.14.859-.43v-3.538h1.619v5.157h-1.619v-.839c-.399.6-.959.919-1.629.919-1,0-1.709-.729-1.709-1.759h.001Z"></path>
    <path class="uuid-224a60bb-6083-4e19-bf70-fd35f0cffdde" d="M486.71,190.344h1.619v.839c.399-.6.959-.919,1.629-.919.999,0,1.709.73,1.709,1.759v3.478h-1.619v-3.008c0-.58-.34-.959-.859-.959-.35,0-.63.14-.859.43v3.538h-1.619v-5.157h-.001Z"></path>
    <path class="uuid-224a60bb-6083-4e19-bf70-fd35f0cffdde" d="M492.659,192.912c0-1.449,1.06-2.599,2.399-2.599.539,0,1.029.22,1.379.62v-2.549l1.619-.25v7.366h-1.6v-.669c-.34.43-.909.699-1.519.699-1.27,0-2.279-1.169-2.279-2.618h.001ZM496.438,193.782v-1.739c-.25-.26-.59-.4-.96-.4-.709,0-1.229.54-1.229,1.279,0,.729.529,1.27,1.229,1.27.391,0,.71-.14.96-.41h0Z"></path>
    <path class="uuid-224a60bb-6083-4e19-bf70-fd35f0cffdde" d="M499.08,194.022c0-.95.739-1.5,2.009-1.5.37,0,.74.07,1.199.24v-.42c0-.5-.329-.75-1.02-.75-.39,0-.849.11-1.449.36l-.56-1.129c.85-.38,1.609-.56,2.369-.56,1.429,0,2.259.71,2.259,1.939v3.298h-1.6v-.45c-.449.38-.879.53-1.429.53-1.05,0-1.779-.64-1.779-1.559h0ZM501.359,194.512c.34,0,.649-.09.929-.26v-.66c-.3-.07-.589-.11-.889-.11-.53,0-.83.18-.83.51s.29.52.79.52Z"></path>
    <path class="uuid-224a60bb-6083-4e19-bf70-fd35f0cffdde" d="M505.64,193.942v-2.349h-1v-1.25h1v-1.429l1.619-.33v1.759h1.379v1.25h-1.379v2.029c0,.459.18.62.68.62.189,0,.34-.02.659-.11v1.309c-.3.09-.779.16-1.109.16-1.22,0-1.849-.56-1.849-1.659h0Z"></path>
    <path class="uuid-224a60bb-6083-4e19-bf70-fd35f0cffdde" d="M509.439,188.644c0-.5.41-.909.91-.909s.909.41.909.909-.41.91-.909.91-.91-.41-.91-.91ZM509.54,190.344h1.619v5.157h-1.619v-5.157Z"></path>
    <path class="uuid-224a60bb-6083-4e19-bf70-fd35f0cffdde" d="M512.189,192.932c0-1.52,1.16-2.669,2.688-2.669s2.688,1.149,2.688,2.669-1.159,2.668-2.688,2.668-2.688-1.149-2.688-2.668ZM515.987,192.932c0-.77-.459-1.319-1.109-1.319s-1.109.549-1.109,1.319.46,1.319,1.109,1.319,1.109-.549,1.109-1.319Z"></path>
    <path class="uuid-224a60bb-6083-4e19-bf70-fd35f0cffdde" d="M518.6,190.344h1.619v.839c.399-.6.959-.919,1.629-.919.999,0,1.709.73,1.709,1.759v3.478h-1.619v-3.008c0-.58-.34-.959-.859-.959-.35,0-.63.14-.859.43v3.538h-1.619v-5.157h0Z"></path>
  </g>
  <g>
    <line class="uuid-3a457252-32e7-426e-97d7-9a6b94c949e3" x1="221.914" y1="222.832" x2="367.979" y2="222.832"></line>
    <polygon class="uuid-224a60bb-6083-4e19-bf70-fd35f0cffdde" points="366.885 226.571 373.362 222.832 366.885 219.092 366.885 226.571"></polygon>
  </g>
  <g>
    <polyline class="uuid-b81ac81e-c66f-45fa-b549-33883963fa79" points="137.791 272.472 137.791 359.685 227.741 359.685"></polyline>
    <polygon class="uuid-64da9a2f-926a-4e11-8481-520c3f2926d8" points="134.051 273.566 137.791 267.09 141.531 273.566 134.051 273.566"></polygon>
  </g>
  <g>
    <line class="uuid-45abfd98-332f-4028-a465-daa1bd63b27a" x1="457.484" y1="272.472" x2="457.484" y2="273.972"></line>
    <line class="uuid-f6aaf052-4386-499f-a12a-9108910fa210" x1="457.484" y1="276.876" x2="457.484" y2="356.733"></line>
    <polyline class="uuid-45abfd98-332f-4028-a465-daa1bd63b27a" points="457.484 358.185 457.484 359.685 455.984 359.685"></polyline>
    <line class="uuid-f4a1fb5e-1b64-4658-b9d3-fe524953393d" x1="452.948" y1="359.685" x2="369.44" y2="359.685"></line>
    <line class="uuid-45abfd98-332f-4028-a465-daa1bd63b27a" x1="367.922" y1="359.685" x2="366.422" y2="359.685"></line>
    <polygon class="uuid-64da9a2f-926a-4e11-8481-520c3f2926d8" points="453.745 273.566 457.484 267.09 461.224 273.566 453.745 273.566"></polygon>
  </g>
  <g>
    <rect class="uuid-68798453-a211-4a64-9c72-4bfe21758914" x="388.711" y="208.658" width="137.546" height="44.099"></rect>
    <g>
      <path class="uuid-224a60bb-6083-4e19-bf70-fd35f0cffdde" d="M438.612,232.621l.649-.879c.899.74,1.549,1.02,2.358,1.02.92,0,1.56-.47,1.56-1.12,0-.569-.34-.839-1.27-1l-1.289-.22c-1.21-.22-1.799-.819-1.799-1.779,0-1.27,1.009-2.109,2.578-2.109,1.05,0,2.009.31,2.809.899l-.609.899c-.7-.53-1.449-.81-2.239-.81-.84,0-1.399.43-1.399,1,0,.51.32.77,1.08.89l1.249.21c1.409.25,2.068.869,2.068,1.929,0,1.289-1.139,2.199-2.808,2.199-1.1,0-2.05-.38-2.938-1.129h0Z"></path>
      <path class="uuid-224a60bb-6083-4e19-bf70-fd35f0cffdde" d="M445.911,232.342v-2.809h-.999v-.899h.999v-1.379l1.129-.24v1.619h1.39v.899h-1.39v2.559c0,.49.19.68.7.68.22,0,.38-.03.68-.12v.949c-.29.09-.67.14-.97.14-1.01,0-1.539-.48-1.539-1.399Z"></path>
      <path class="uuid-224a60bb-6083-4e19-bf70-fd35f0cffdde" d="M449.122,231.142c0-1.479,1.079-2.589,2.519-2.589,1.43,0,2.509,1.109,2.509,2.589s-1.079,2.588-2.509,2.588c-1.439,0-2.519-1.109-2.519-2.588ZM453.04,231.142c0-.93-.59-1.629-1.399-1.629-.819,0-1.409.7-1.409,1.629,0,.939.59,1.629,1.409,1.629.81,0,1.399-.689,1.399-1.629Z"></path>
      <path class="uuid-224a60bb-6083-4e19-bf70-fd35f0cffdde" d="M455.321,228.634h1.13v1.08c.279-.76.76-1.169,1.379-1.169.19.01.32.03.49.1v.989c-.18-.07-.41-.12-.62-.12-.55,0-.999.31-1.249.83v3.298h-1.13v-5.007h0Z"></path>
      <path class="uuid-224a60bb-6083-4e19-bf70-fd35f0cffdde" d="M458.841,232.201c0-.899.74-1.469,1.919-1.469.47,0,.91.1,1.35.32v-.56c0-.66-.38-1-1.149-1-.42,0-.88.12-1.459.39l-.4-.82c.75-.34,1.409-.51,2.079-.51,1.31,0,2.049.66,2.049,1.819v3.268h-1.119v-.52c-.43.419-.909.609-1.489.609-1.05,0-1.779-.629-1.779-1.529l-.002.002ZM460.93,232.931c.45,0,.84-.13,1.18-.42v-.81c-.359-.17-.72-.24-1.149-.24-.649,0-1.06.27-1.06.72,0,.459.4.75,1.029.75Z"></path>
      <path class="uuid-224a60bb-6083-4e19-bf70-fd35f0cffdde" d="M464.931,235.34l.39-.83c.59.29,1.069.419,1.569.419.84,0,1.279-.379,1.279-1.109v-.849c-.359.439-.909.699-1.539.699-1.27,0-2.259-1.129-2.259-2.548s1.029-2.529,2.339-2.529c.579,0,1.1.23,1.469.67v-.63h1.12v5.187c0,1.29-.84,2.009-2.359,2.009-.72,0-1.419-.18-2.009-.49h0ZM468.169,232.182v-2.099c-.29-.34-.72-.54-1.189-.54-.859,0-1.499.669-1.499,1.589,0,.91.64,1.599,1.499,1.599.49,0,.899-.2,1.189-.549h0Z"></path>
      <path class="uuid-224a60bb-6083-4e19-bf70-fd35f0cffdde" d="M470.461,231.142c0-1.469,1.06-2.589,2.438-2.589,1.369,0,2.369,1.089,2.369,2.589v.27h-3.698c.11.81.72,1.399,1.499,1.399.47,0,.91-.18,1.189-.47l.739.669c-.609.51-1.219.73-1.979.73-1.439,0-2.559-1.129-2.559-2.599h.002ZM474.199,230.713c-.12-.73-.64-1.239-1.31-1.239-.68,0-1.18.49-1.31,1.239h2.62Z"></path>
    </g>
  </g>
  <g>
    <rect class="uuid-68798453-a211-4a64-9c72-4bfe21758914" x="69.018" y="208.658" width="137.546" height="44.099"></rect>
    <g>
      <path class="uuid-224a60bb-6083-4e19-bf70-fd35f0cffdde" d="M118.918,232.621l.65-.879c.899.74,1.549,1.02,2.358,1.02.919,0,1.559-.47,1.559-1.12,0-.569-.339-.839-1.269-1l-1.29-.22c-1.209-.22-1.799-.819-1.799-1.779,0-1.27,1.009-2.109,2.579-2.109,1.049,0,2.009.31,2.809.899l-.61.899c-.7-.53-1.449-.81-2.239-.81-.839,0-1.399.43-1.399,1,0,.51.32.77,1.079.89l1.25.21c1.409.25,2.069.869,2.069,1.929,0,1.289-1.14,2.199-2.809,2.199-1.1,0-2.049-.38-2.938-1.129h0Z"></path>
      <path class="uuid-224a60bb-6083-4e19-bf70-fd35f0cffdde" d="M126.218,232.342v-2.809h-1v-.899h1v-1.379l1.129-.24v1.619h1.389v.899h-1.389v2.559c0,.49.19.68.7.68.22,0,.379-.03.68-.12v.949c-.29.09-.67.14-.97.14-1.009,0-1.539-.48-1.539-1.399Z"></path>
      <path class="uuid-224a60bb-6083-4e19-bf70-fd35f0cffdde" d="M129.428,231.142c0-1.479,1.08-2.589,2.519-2.589,1.429,0,2.509,1.109,2.509,2.589s-1.08,2.588-2.509,2.588c-1.439,0-2.519-1.109-2.519-2.588ZM133.346,231.142c0-.93-.59-1.629-1.399-1.629-.819,0-1.409.7-1.409,1.629,0,.939.59,1.629,1.409,1.629.81,0,1.399-.689,1.399-1.629Z"></path>
      <path class="uuid-224a60bb-6083-4e19-bf70-fd35f0cffdde" d="M135.628,228.634h1.129v1.08c.28-.76.759-1.169,1.379-1.169.19.01.32.03.49.1v.989c-.18-.07-.41-.12-.62-.12-.549,0-.999.31-1.249.83v3.298h-1.129v-5.007h0Z"></path>
      <path class="uuid-224a60bb-6083-4e19-bf70-fd35f0cffdde" d="M139.148,232.201c0-.899.739-1.469,1.919-1.469.47,0,.909.1,1.349.32v-.56c0-.66-.38-1-1.149-1-.42,0-.879.12-1.459.39l-.4-.82c.75-.34,1.409-.51,2.079-.51,1.31,0,2.049.66,2.049,1.819v3.268h-1.119v-.52c-.43.419-.91.609-1.489.609-1.049,0-1.779-.629-1.779-1.529v.002ZM141.237,232.931c.45,0,.839-.13,1.179-.42v-.81c-.36-.17-.72-.24-1.149-.24-.649,0-1.06.27-1.06.72,0,.459.4.75,1.03.75Z"></path>
      <path class="uuid-224a60bb-6083-4e19-bf70-fd35f0cffdde" d="M145.237,235.34l.39-.83c.589.29,1.069.419,1.569.419.84,0,1.279-.379,1.279-1.109v-.849c-.36.439-.91.699-1.539.699-1.27,0-2.259-1.129-2.259-2.548s1.029-2.529,2.339-2.529c.58,0,1.099.23,1.469.67v-.63h1.119v5.187c0,1.29-.839,2.009-2.358,2.009-.72,0-1.419-.18-2.009-.49h0ZM148.476,232.182v-2.099c-.29-.34-.72-.54-1.189-.54-.859,0-1.499.669-1.499,1.589,0,.91.64,1.599,1.499,1.599.49,0,.9-.2,1.189-.549h0Z"></path>
      <path class="uuid-224a60bb-6083-4e19-bf70-fd35f0cffdde" d="M150.768,231.142c0-1.469,1.06-2.589,2.438-2.589,1.37,0,2.369,1.089,2.369,2.589v.27h-3.698c.11.81.72,1.399,1.499,1.399.47,0,.91-.18,1.189-.47l.74.669c-.61.51-1.219.73-1.979.73-1.439,0-2.559-1.129-2.559-2.599h.001ZM154.506,230.713c-.12-.73-.64-1.239-1.309-1.239-.68,0-1.179.49-1.309,1.239h2.618Z"></path>
    </g>
  </g>
  <g>
    <path class="uuid-224a60bb-6083-4e19-bf70-fd35f0cffdde" d="M267.387,229.038h1.389l2.708,6.996h-1.29l-.719-1.959h-2.869l-.72,1.959h-1.249l2.749-6.996h0ZM269.146,233.136l-1.099-2.958-1.089,2.958h2.188Z"></path>
    <path class="uuid-224a60bb-6083-4e19-bf70-fd35f0cffdde" d="M271.949,235.455l.53-.75c.66.41,1.099.569,1.609.569.6,0,1.009-.28,1.009-.68,0-.31-.209-.47-.699-.569l-.88-.15c-.979-.18-1.449-.63-1.449-1.379,0-.939.77-1.549,1.939-1.549.7,0,1.33.2,1.969.6l-.53.75c-.51-.33-1-.48-1.509-.48-.52,0-.859.22-.859.58,0,.32.18.46.7.55l.889.17c1,.18,1.479.64,1.479,1.389,0,.919-.88,1.629-2.049,1.629-.859,0-1.619-.24-2.148-.68h0Z"></path>
    <path class="uuid-224a60bb-6083-4e19-bf70-fd35f0cffdde" d="M276.888,238.153v-.979c.13.03.29.04.44.04.4,0,.64-.18.81-.569l.23-.56-1.889-5.057h1.25l1.279,3.708,1.389-3.708h1.239l-2.398,5.877c-.39.969-.85,1.319-1.789,1.319-.16,0-.36-.02-.56-.07h-.001Z"></path>
    <path class="uuid-224a60bb-6083-4e19-bf70-fd35f0cffdde" d="M282.458,231.027h1.129v.82c.38-.59.929-.9,1.579-.9,1.029,0,1.749.73,1.749,1.789v3.298h-1.14v-2.979c0-.729-.43-1.199-1.099-1.199-.46,0-.83.21-1.089.61v3.568h-1.129v-5.007Z"></path>
    <path class="uuid-224a60bb-6083-4e19-bf70-fd35f0cffdde" d="M288.048,233.536c0-1.449,1.1-2.589,2.529-2.589.779,0,1.499.31,1.999.85l-.699.729c-.35-.39-.78-.589-1.259-.589-.81,0-1.439.7-1.439,1.599,0,.909.63,1.599,1.439,1.599.479,0,.909-.2,1.259-.58l.699.719c-.5.54-1.219.85-1.999.85-1.429,0-2.529-1.129-2.529-2.588Z"></path>
    <path class="uuid-224a60bb-6083-4e19-bf70-fd35f0cffdde" d="M293.508,228.868l1.129-.2v3.178c.38-.59.929-.9,1.579-.9,1.029,0,1.749.73,1.749,1.789v3.298h-1.14v-2.979c0-.729-.43-1.199-1.099-1.199-.46,0-.83.21-1.089.61v3.568h-1.129v-7.166h0Z"></path>
    <path class="uuid-224a60bb-6083-4e19-bf70-fd35f0cffdde" d="M299.328,231.027h1.129v1.08c.28-.76.76-1.169,1.379-1.169.19.01.32.03.49.1v.989c-.18-.07-.41-.12-.62-.12-.549,0-.999.31-1.249.83v3.298h-1.129v-5.007h0Z"></path>
    <path class="uuid-224a60bb-6083-4e19-bf70-fd35f0cffdde" d="M302.798,233.536c0-1.479,1.08-2.589,2.519-2.589,1.43,0,2.509,1.109,2.509,2.589s-1.079,2.588-2.509,2.588c-1.438,0-2.519-1.109-2.519-2.588ZM306.716,233.536c0-.93-.59-1.629-1.399-1.629-.819,0-1.409.7-1.409,1.629,0,.939.59,1.629,1.409,1.629.81,0,1.399-.689,1.399-1.629Z"></path>
    <path class="uuid-224a60bb-6083-4e19-bf70-fd35f0cffdde" d="M308.998,231.027h1.129v.82c.38-.59.93-.9,1.579-.9,1.029,0,1.749.73,1.749,1.789v3.298h-1.14v-2.979c0-.729-.43-1.199-1.099-1.199-.46,0-.83.21-1.09.61v3.568h-1.129v-5.007h.001Z"></path>
    <path class="uuid-224a60bb-6083-4e19-bf70-fd35f0cffdde" d="M314.588,233.536c0-1.479,1.079-2.589,2.519-2.589,1.429,0,2.509,1.109,2.509,2.589s-1.08,2.588-2.509,2.588c-1.439,0-2.519-1.109-2.519-2.588ZM318.506,233.536c0-.93-.59-1.629-1.399-1.629-.819,0-1.409.7-1.409,1.629,0,.939.59,1.629,1.409,1.629.81,0,1.399-.689,1.399-1.629Z"></path>
    <path class="uuid-224a60bb-6083-4e19-bf70-fd35f0cffdde" d="M320.747,234.326v-3.298h1.14v2.968c0,.74.43,1.209,1.1,1.209.449,0,.829-.2,1.089-.6v-3.578h1.13v5.007h-1.13v-.81c-.38.59-.919.89-1.589.89-1.02,0-1.739-.74-1.739-1.789h-.001Z"></path>
    <path class="uuid-224a60bb-6083-4e19-bf70-fd35f0cffdde" d="M326.158,235.455l.529-.75c.66.41,1.1.569,1.609.569.6,0,1.01-.28,1.01-.68,0-.31-.21-.47-.7-.569l-.879-.15c-.979-.18-1.449-.63-1.449-1.379,0-.939.77-1.549,1.938-1.549.7,0,1.329.2,1.969.6l-.529.75c-.51-.33-1-.48-1.509-.48-.521,0-.86.22-.86.58,0,.32.181.46.7.55l.89.17c.999.18,1.479.64,1.479,1.389,0,.919-.879,1.629-2.049,1.629-.859,0-1.619-.24-2.148-.68h-.001Z"></path>
    <path class="uuid-224a60bb-6083-4e19-bf70-fd35f0cffdde" d="M273.533,243.027h1.129v1.08c.28-.76.759-1.169,1.379-1.169.19.01.32.03.49.1v.989c-.18-.07-.41-.12-.62-.12-.549,0-1,.31-1.249.83v3.298h-1.129v-5.007h0Z"></path>
    <path class="uuid-224a60bb-6083-4e19-bf70-fd35f0cffdde" d="M277.002,245.536c0-1.469,1.06-2.589,2.438-2.589,1.37,0,2.369,1.089,2.369,2.589v.27h-3.698c.11.81.72,1.399,1.499,1.399.47,0,.91-.18,1.189-.47l.74.669c-.61.51-1.219.73-1.979.73-1.439,0-2.559-1.129-2.559-2.599h.001ZM280.74,245.106c-.12-.73-.64-1.239-1.309-1.239-.68,0-1.179.49-1.309,1.239h2.618,0Z"></path>
    <path class="uuid-224a60bb-6083-4e19-bf70-fd35f0cffdde" d="M282.963,243.027h1.109v.709c.36-.47.919-.75,1.559-.75,1.27,0,2.259,1.129,2.259,2.549,0,1.429-1.02,2.548-2.329,2.548-.59,0-1.109-.22-1.469-.64v2.679h-1.129v-7.096h0ZM286.781,245.536c0-.91-.64-1.599-1.489-1.599-.5,0-.91.2-1.199.56v2.089c.29.35.72.56,1.199.56.859,0,1.489-.689,1.489-1.609h0Z"></path>
    <path class="uuid-224a60bb-6083-4e19-bf70-fd35f0cffdde" d="M289.073,240.868l1.129-.2v7.366h-1.129v-7.166Z"></path>
    <path class="uuid-224a60bb-6083-4e19-bf70-fd35f0cffdde" d="M291.453,241.318c0-.38.31-.7.7-.7.38,0,.7.32.7.7s-.32.689-.7.689c-.39,0-.7-.31-.7-.689ZM291.583,243.027h1.129v5.007h-1.129v-5.007Z"></path>
    <path class="uuid-224a60bb-6083-4e19-bf70-fd35f0cffdde" d="M293.882,245.536c0-1.449,1.1-2.589,2.529-2.589.779,0,1.499.31,1.999.85l-.699.729c-.35-.39-.78-.589-1.26-.589-.809,0-1.439.7-1.439,1.599,0,.909.63,1.599,1.439,1.599.48,0,.91-.2,1.26-.58l.699.719c-.5.54-1.219.85-1.999.85-1.429,0-2.529-1.129-2.529-2.588Z"></path>
    <path class="uuid-224a60bb-6083-4e19-bf70-fd35f0cffdde" d="M299.083,246.595c0-.899.739-1.469,1.919-1.469.47,0,.909.1,1.349.32v-.56c0-.66-.38-1-1.149-1-.42,0-.879.12-1.459.39l-.399-.82c.749-.34,1.409-.51,2.078-.51,1.31,0,2.049.66,2.049,1.819v3.268h-1.119v-.52c-.43.419-.909.609-1.489.609-1.049,0-1.778-.629-1.778-1.529l-.002.002ZM301.172,247.325c.449,0,.839-.13,1.179-.42v-.81c-.359-.17-.72-.24-1.149-.24-.649,0-1.06.27-1.06.72,0,.459.4.75,1.03.75Z"></path>
    <path class="uuid-224a60bb-6083-4e19-bf70-fd35f0cffdde" d="M305.312,246.735v-2.809h-1v-.899h1v-1.379l1.129-.24v1.619h1.39v.899h-1.39v2.559c0,.49.19.68.7.68.22,0,.379-.03.68-.12v.949c-.29.09-.67.14-.97.14-1.01,0-1.539-.48-1.539-1.399Z"></path>
    <path class="uuid-224a60bb-6083-4e19-bf70-fd35f0cffdde" d="M308.692,241.318c0-.38.31-.7.699-.7.38,0,.7.32.7.7s-.32.689-.7.689c-.39,0-.699-.31-.699-.689ZM308.822,243.027h1.129v5.007h-1.129v-5.007Z"></path>
    <path class="uuid-224a60bb-6083-4e19-bf70-fd35f0cffdde" d="M311.122,245.536c0-1.479,1.08-2.589,2.519-2.589,1.43,0,2.509,1.109,2.509,2.589s-1.079,2.588-2.509,2.588c-1.438,0-2.519-1.109-2.519-2.588ZM315.04,245.536c0-.93-.59-1.629-1.399-1.629-.819,0-1.409.7-1.409,1.629,0,.939.59,1.629,1.409,1.629.81,0,1.399-.689,1.399-1.629Z"></path>
    <path class="uuid-224a60bb-6083-4e19-bf70-fd35f0cffdde" d="M317.322,243.027h1.13v.82c.38-.59.929-.9,1.579-.9,1.029,0,1.749.73,1.749,1.789v3.298h-1.14v-2.979c0-.729-.43-1.199-1.1-1.199-.46,0-.829.21-1.089.61v3.568h-1.13v-5.007h.001Z"></path>
  </g>
</svg>