<svg id="uuid-bae99157-6da8-4603-9836-7cb870271943" data-name="Layer 1" xmlns="http://www.w3.org/2000/svg" width="595.276" height="464.892" viewBox="0 0 595.276 464.892">
  <defs>
    <style>
      .uuid-bb2e9575-2974-4f08-833b-d1ce3af2f22d, .uuid-16bf6210-1ab8-440d-b98a-0adc065a0906, .uuid-ac845553-d19b-404c-8b7e-18cccf1cce9c, .uuid-740a7b47-c3d7-40c3-be1d-132b1b74a064 {
        stroke-linecap: round;
        stroke-linejoin: round;
      }

      .uuid-bb2e9575-2974-4f08-833b-d1ce3af2f22d, .uuid-db7dd604-00d0-4e3b-a19b-2379a155ca94 {
        stroke: #000;
      }

      .uuid-bb2e9575-2974-4f08-833b-d1ce3af2f22d, .uuid-a9e7026c-0036-45db-87ea-7e636cc15978 {
        fill: #fff;
      }

      .uuid-16bf6210-1ab8-440d-b98a-0adc065a0906 {
        stroke-dasharray: 0 0 3.019 3.019;
      }

      .uuid-16bf6210-1ab8-440d-b98a-0adc065a0906, .uuid-ac845553-d19b-404c-8b7e-18cccf1cce9c, .uuid-740a7b47-c3d7-40c3-be1d-132b1b74a064 {
        stroke: #06c;
      }

      .uuid-16bf6210-1ab8-440d-b98a-0adc065a0906, .uuid-ac845553-d19b-404c-8b7e-18cccf1cce9c, .uuid-740a7b47-c3d7-40c3-be1d-132b1b74a064, .uuid-db7dd604-00d0-4e3b-a19b-2379a155ca94 {
        fill: none;
      }

      .uuid-ac845553-d19b-404c-8b7e-18cccf1cce9c {
        stroke-dasharray: 0 0 3.009 3.009;
      }

      .uuid-90139e06-1c15-4a8f-ae81-565df7fa94e1 {
        fill: #000;
      }

      .uuid-90139e06-1c15-4a8f-ae81-565df7fa94e1, .uuid-6bc14df5-97b8-4c7d-baf2-2cca91fed695, .uuid-a5d6837f-7d75-431f-8bc2-b956ae5b9afa, .uuid-a9e7026c-0036-45db-87ea-7e636cc15978 {
        stroke-width: 0px;
      }

      .uuid-6bc14df5-97b8-4c7d-baf2-2cca91fed695 {
        fill: #f0f0f0;
      }

      .uuid-a5d6837f-7d75-431f-8bc2-b956ae5b9afa {
        fill: #dbe8f5;
      }

      .uuid-db7dd604-00d0-4e3b-a19b-2379a155ca94 {
        stroke-miterlimit: 10;
      }
    </style>
  </defs>
  <rect class="uuid-a9e7026c-0036-45db-87ea-7e636cc15978" x="42.656" y="2.435" width="501.014" height="458.271"></rect>
  <rect class="uuid-6bc14df5-97b8-4c7d-baf2-2cca91fed695" x="53.893" y="14.095" width="231.387" height="293.98"></rect>
  <rect class="uuid-6bc14df5-97b8-4c7d-baf2-2cca91fed695" x="53.893" y="336.524" width="477.354" height="111.976"></rect>
  <rect class="uuid-6bc14df5-97b8-4c7d-baf2-2cca91fed695" x="299.86" y="14.095" width="231.387" height="293.98"></rect>
  <rect class="uuid-a9e7026c-0036-45db-87ea-7e636cc15978" x="89.633" y="354.373" width="140.919" height="42.499"></rect>
  <g>
    <path class="uuid-90139e06-1c15-4a8f-ae81-565df7fa94e1" d="M129.113,375.232c0-2.029,1.579-3.608,3.618-3.608,1.069,0,2.089.459,2.729,1.249l-.8.78c-.5-.62-1.189-.95-1.929-.95-1.359,0-2.389,1.089-2.389,2.529s1.029,2.529,2.389,2.529c.739,0,1.429-.33,1.929-.95l.8.78c-.64.79-1.659,1.249-2.729,1.249-2.039,0-3.618-1.579-3.618-3.608Z"></path>
    <path class="uuid-90139e06-1c15-4a8f-ae81-565df7fa94e1" d="M136.153,376.232c0-1.479,1.08-2.589,2.519-2.589,1.429,0,2.509,1.109,2.509,2.589s-1.08,2.588-2.509,2.588c-1.439,0-2.519-1.109-2.519-2.588ZM140.071,376.232c0-.93-.59-1.629-1.399-1.629-.819,0-1.409.7-1.409,1.629,0,.939.59,1.629,1.409,1.629.81,0,1.399-.689,1.399-1.629Z"></path>
    <path class="uuid-90139e06-1c15-4a8f-ae81-565df7fa94e1" d="M142.353,373.723h1.129v.82c.38-.59.929-.9,1.579-.9,1.029,0,1.749.73,1.749,1.789v3.298h-1.14v-2.979c0-.729-.43-1.199-1.099-1.199-.46,0-.83.21-1.089.61v3.568h-1.129v-5.007Z"></path>
    <path class="uuid-90139e06-1c15-4a8f-ae81-565df7fa94e1" d="M148.642,377.431v-2.809h-1v-.899h1v-1.379l1.129-.24v1.619h1.389v.899h-1.389v2.559c0,.49.19.68.7.68.22,0,.379-.03.68-.12v.949c-.29.09-.67.14-.97.14-1.009,0-1.539-.48-1.539-1.399Z"></path>
    <path class="uuid-90139e06-1c15-4a8f-ae81-565df7fa94e1" d="M152.162,373.723h1.129v1.08c.28-.76.759-1.169,1.379-1.169.19.01.32.03.49.1v.989c-.18-.07-.41-.12-.62-.12-.549,0-.999.31-1.249.83v3.298h-1.129v-5.007Z"></path>
    <path class="uuid-90139e06-1c15-4a8f-ae81-565df7fa94e1" d="M155.632,376.232c0-1.479,1.08-2.589,2.519-2.589,1.429,0,2.509,1.109,2.509,2.589s-1.08,2.588-2.509,2.588c-1.439,0-2.519-1.109-2.519-2.588ZM159.55,376.232c0-.93-.59-1.629-1.399-1.629-.819,0-1.409.7-1.409,1.629,0,.939.59,1.629,1.409,1.629.81,0,1.399-.689,1.399-1.629Z"></path>
    <path class="uuid-90139e06-1c15-4a8f-ae81-565df7fa94e1" d="M161.832,371.564l1.129-.2v7.366h-1.129v-7.166Z"></path>
    <path class="uuid-90139e06-1c15-4a8f-ae81-565df7fa94e1" d="M166.602,373.723h1.109v.709c.36-.47.919-.75,1.559-.75,1.269,0,2.259,1.129,2.259,2.549,0,1.429-1.02,2.548-2.329,2.548-.59,0-1.109-.22-1.469-.64v2.679h-1.129v-7.096ZM170.42,376.232c0-.91-.64-1.599-1.489-1.599-.5,0-.91.2-1.199.56v2.089c.29.35.72.56,1.199.56.859,0,1.489-.689,1.489-1.609Z"></path>
    <path class="uuid-90139e06-1c15-4a8f-ae81-565df7fa94e1" d="M172.712,371.564l1.129-.2v7.366h-1.129v-7.166Z"></path>
    <path class="uuid-90139e06-1c15-4a8f-ae81-565df7fa94e1" d="M174.972,377.291c0-.899.739-1.469,1.919-1.469.47,0,.909.1,1.349.32v-.56c0-.66-.38-1-1.149-1-.42,0-.879.12-1.459.39l-.4-.82c.75-.34,1.409-.51,2.079-.51,1.31,0,2.049.66,2.049,1.819v3.268h-1.119v-.52c-.43.419-.91.609-1.489.609-1.049,0-1.779-.629-1.779-1.529ZM177.061,378.021c.45,0,.839-.13,1.179-.42v-.81c-.36-.17-.72-.24-1.149-.24-.649,0-1.06.27-1.06.72,0,.459.4.75,1.03.75Z"></path>
    <path class="uuid-90139e06-1c15-4a8f-ae81-565df7fa94e1" d="M180.732,373.723h1.129v.82c.38-.59.929-.9,1.579-.9,1.029,0,1.749.73,1.749,1.789v3.298h-1.14v-2.979c0-.729-.43-1.199-1.099-1.199-.46,0-.83.21-1.089.61v3.568h-1.129v-5.007Z"></path>
    <path class="uuid-90139e06-1c15-4a8f-ae81-565df7fa94e1" d="M186.322,376.232c0-1.469,1.06-2.589,2.438-2.589,1.37,0,2.369,1.089,2.369,2.589v.27h-3.698c.11.81.72,1.399,1.499,1.399.47,0,.91-.18,1.189-.47l.74.669c-.61.51-1.219.73-1.979.73-1.439,0-2.559-1.129-2.559-2.599ZM190.06,375.802c-.12-.73-.64-1.239-1.309-1.239-.68,0-1.179.49-1.309,1.239h2.618Z"></path>
  </g>
  <g>
    <rect class="uuid-a9e7026c-0036-45db-87ea-7e636cc15978" x="104.841" y="87.446" width="140.919" height="42.499"></rect>
    <g>
      <g>
        <path class="uuid-90139e06-1c15-4a8f-ae81-565df7fa94e1" d="M144.321,108.306c0-2.029,1.579-3.608,3.618-3.608,1.069,0,2.089.459,2.729,1.249l-.8.78c-.5-.62-1.189-.95-1.929-.95-1.359,0-2.389,1.089-2.389,2.529s1.029,2.529,2.389,2.529c.739,0,1.429-.33,1.929-.95l.8.78c-.64.79-1.659,1.249-2.729,1.249-2.039,0-3.618-1.579-3.618-3.608Z"></path>
        <path class="uuid-90139e06-1c15-4a8f-ae81-565df7fa94e1" d="M151.361,109.305c0-1.479,1.08-2.589,2.519-2.589,1.429,0,2.509,1.109,2.509,2.589s-1.08,2.588-2.509,2.588c-1.439,0-2.519-1.109-2.519-2.588ZM155.279,109.305c0-.93-.59-1.629-1.399-1.629-.819,0-1.409.7-1.409,1.629,0,.939.59,1.629,1.409,1.629.81,0,1.399-.689,1.399-1.629Z"></path>
        <path class="uuid-90139e06-1c15-4a8f-ae81-565df7fa94e1" d="M157.561,106.796h1.129v.82c.38-.59.929-.9,1.579-.9,1.029,0,1.749.73,1.749,1.789v3.298h-1.14v-2.979c0-.729-.43-1.199-1.099-1.199-.46,0-.83.21-1.089.61v3.568h-1.129v-5.007Z"></path>
        <path class="uuid-90139e06-1c15-4a8f-ae81-565df7fa94e1" d="M163.85,110.504v-2.809h-1v-.899h1v-1.379l1.129-.24v1.619h1.389v.899h-1.389v2.559c0,.49.19.68.7.68.22,0,.379-.03.68-.12v.949c-.29.09-.67.14-.97.14-1.009,0-1.539-.48-1.539-1.399Z"></path>
        <path class="uuid-90139e06-1c15-4a8f-ae81-565df7fa94e1" d="M167.37,106.796h1.129v1.08c.28-.76.759-1.169,1.379-1.169.19.01.32.03.49.1v.989c-.18-.07-.41-.12-.62-.12-.549,0-.999.31-1.249.83v3.298h-1.129v-5.007Z"></path>
        <path class="uuid-90139e06-1c15-4a8f-ae81-565df7fa94e1" d="M170.84,109.305c0-1.479,1.08-2.589,2.519-2.589,1.429,0,2.509,1.109,2.509,2.589s-1.08,2.588-2.509,2.588c-1.439,0-2.519-1.109-2.519-2.588ZM174.758,109.305c0-.93-.59-1.629-1.399-1.629-.819,0-1.409.7-1.409,1.629,0,.939.59,1.629,1.409,1.629.81,0,1.399-.689,1.399-1.629Z"></path>
        <path class="uuid-90139e06-1c15-4a8f-ae81-565df7fa94e1" d="M177.04,104.638l1.129-.2v7.366h-1.129v-7.166Z"></path>
        <path class="uuid-90139e06-1c15-4a8f-ae81-565df7fa94e1" d="M181.81,106.796h1.109v.709c.36-.47.919-.75,1.559-.75,1.269,0,2.259,1.129,2.259,2.549,0,1.429-1.02,2.548-2.329,2.548-.59,0-1.109-.22-1.469-.64v2.679h-1.129v-7.096ZM185.628,109.305c0-.91-.64-1.599-1.489-1.599-.5,0-.91.2-1.199.56v2.089c.29.35.72.56,1.199.56.859,0,1.489-.689,1.489-1.609Z"></path>
        <path class="uuid-90139e06-1c15-4a8f-ae81-565df7fa94e1" d="M187.92,104.638l1.129-.2v7.366h-1.129v-7.166Z"></path>
        <path class="uuid-90139e06-1c15-4a8f-ae81-565df7fa94e1" d="M190.18,110.364c0-.899.739-1.469,1.919-1.469.47,0,.909.1,1.349.32v-.56c0-.66-.38-1-1.149-1-.42,0-.879.12-1.459.39l-.4-.82c.75-.34,1.409-.51,2.079-.51,1.31,0,2.049.66,2.049,1.819v3.268h-1.119v-.52c-.43.419-.91.609-1.489.609-1.049,0-1.779-.629-1.779-1.529ZM192.269,111.094c.45,0,.839-.13,1.179-.42v-.81c-.36-.17-.72-.24-1.149-.24-.649,0-1.06.27-1.06.72,0,.459.4.75,1.03.75Z"></path>
        <path class="uuid-90139e06-1c15-4a8f-ae81-565df7fa94e1" d="M195.94,106.796h1.129v.82c.38-.59.929-.9,1.579-.9,1.029,0,1.749.73,1.749,1.789v3.298h-1.14v-2.979c0-.729-.43-1.199-1.099-1.199-.46,0-.83.21-1.089.61v3.568h-1.129v-5.007Z"></path>
        <path class="uuid-90139e06-1c15-4a8f-ae81-565df7fa94e1" d="M201.53,109.305c0-1.469,1.06-2.589,2.438-2.589,1.37,0,2.369,1.089,2.369,2.589v.27h-3.698c.11.81.72,1.399,1.499,1.399.47,0,.91-.18,1.189-.47l.74.669c-.61.51-1.219.73-1.979.73-1.439,0-2.559-1.129-2.559-2.599ZM205.268,108.876c-.12-.73-.64-1.239-1.309-1.239-.68,0-1.179.49-1.309,1.239h2.618Z"></path>
      </g>
      <rect class="uuid-a9e7026c-0036-45db-87ea-7e636cc15978" x="104.841" y="140.784" width="140.919" height="42.499"></rect>
      <g>
        <path class="uuid-90139e06-1c15-4a8f-ae81-565df7fa94e1" d="M138.691,161.644c0-2.029,1.579-3.608,3.618-3.608,1.069,0,2.089.459,2.729,1.249l-.8.78c-.5-.62-1.189-.95-1.929-.95-1.359,0-2.389,1.089-2.389,2.529s1.029,2.529,2.389,2.529c.739,0,1.429-.33,1.929-.95l.8.78c-.64.79-1.659,1.249-2.729,1.249-2.039,0-3.618-1.579-3.618-3.608Z"></path>
        <path class="uuid-90139e06-1c15-4a8f-ae81-565df7fa94e1" d="M145.731,162.643c0-1.479,1.08-2.589,2.519-2.589,1.429,0,2.509,1.109,2.509,2.589s-1.08,2.588-2.509,2.588c-1.439,0-2.519-1.109-2.519-2.588ZM149.649,162.643c0-.93-.59-1.629-1.399-1.629-.819,0-1.409.7-1.409,1.629,0,.939.59,1.629,1.409,1.629.81,0,1.399-.689,1.399-1.629Z"></path>
        <path class="uuid-90139e06-1c15-4a8f-ae81-565df7fa94e1" d="M151.931,160.134h1.129v.79c.37-.57.87-.87,1.479-.87.69,0,1.219.37,1.479.959.39-.629.949-.959,1.659-.959.97,0,1.639.75,1.639,1.809v3.278h-1.129v-3.028c0-.7-.39-1.149-1.009-1.149-.41,0-.75.19-1,.6.01.1.02.2.02.3v3.278h-1.139v-3.028c0-.7-.39-1.149-1.01-1.149-.41,0-.739.19-.989.58v3.598h-1.129v-5.007Z"></path>
        <path class="uuid-90139e06-1c15-4a8f-ae81-565df7fa94e1" d="M160.69,160.134h1.109v.709c.36-.47.919-.75,1.559-.75,1.27,0,2.259,1.129,2.259,2.549,0,1.429-1.02,2.548-2.329,2.548-.59,0-1.109-.22-1.469-.64v2.679h-1.129v-7.096ZM164.508,162.643c0-.91-.64-1.599-1.489-1.599-.5,0-.91.2-1.199.56v2.089c.29.35.72.56,1.199.56.859,0,1.489-.689,1.489-1.609Z"></path>
        <path class="uuid-90139e06-1c15-4a8f-ae81-565df7fa94e1" d="M166.76,163.433v-3.298h1.139v2.968c0,.74.43,1.209,1.1,1.209.45,0,.83-.2,1.089-.6v-3.578h1.129v5.007h-1.129v-.81c-.38.59-.919.89-1.589.89-1.02,0-1.739-.74-1.739-1.789Z"></path>
        <path class="uuid-90139e06-1c15-4a8f-ae81-565df7fa94e1" d="M173.24,163.842v-2.809h-1v-.899h1v-1.379l1.129-.24v1.619h1.389v.899h-1.389v2.559c0,.49.19.68.7.68.22,0,.379-.03.68-.12v.949c-.29.09-.67.14-.97.14-1.009,0-1.539-.48-1.539-1.399Z"></path>
        <path class="uuid-90139e06-1c15-4a8f-ae81-565df7fa94e1" d="M176.45,162.643c0-1.469,1.06-2.589,2.438-2.589,1.37,0,2.369,1.089,2.369,2.589v.27h-3.698c.11.81.72,1.399,1.499,1.399.47,0,.91-.18,1.189-.47l.74.669c-.61.51-1.219.73-1.979.73-1.439,0-2.559-1.129-2.559-2.599ZM180.188,162.213c-.12-.73-.64-1.239-1.309-1.239-.68,0-1.179.49-1.309,1.239h2.618Z"></path>
        <path class="uuid-90139e06-1c15-4a8f-ae81-565df7fa94e1" d="M184.66,160.134h1.129v.82c.38-.59.929-.9,1.579-.9,1.029,0,1.749.73,1.749,1.789v3.298h-1.14v-2.979c0-.729-.43-1.199-1.099-1.199-.46,0-.83.21-1.089.61v3.568h-1.129v-5.007Z"></path>
        <path class="uuid-90139e06-1c15-4a8f-ae81-565df7fa94e1" d="M190.25,162.643c0-1.479,1.08-2.589,2.519-2.589,1.429,0,2.509,1.109,2.509,2.589s-1.08,2.588-2.509,2.588c-1.439,0-2.519-1.109-2.519-2.588ZM194.168,162.643c0-.93-.59-1.629-1.399-1.629-.819,0-1.409.7-1.409,1.629,0,.939.59,1.629,1.409,1.629.81,0,1.399-.689,1.399-1.629Z"></path>
        <path class="uuid-90139e06-1c15-4a8f-ae81-565df7fa94e1" d="M196.22,162.643c0-1.429,1.029-2.549,2.339-2.549.569,0,1.089.23,1.459.65v-2.769l1.129-.2v7.366h-1.119v-.66c-.36.45-.92.709-1.549.709-1.27,0-2.259-1.129-2.259-2.548ZM200.018,163.692v-2.109c-.29-.34-.72-.54-1.189-.54-.859,0-1.499.68-1.499,1.599,0,.909.64,1.599,1.499,1.599.49,0,.9-.19,1.189-.55Z"></path>
        <path class="uuid-90139e06-1c15-4a8f-ae81-565df7fa94e1" d="M202.32,162.643c0-1.469,1.06-2.589,2.438-2.589,1.37,0,2.369,1.089,2.369,2.589v.27h-3.698c.11.81.72,1.399,1.499,1.399.47,0,.91-.18,1.189-.47l.74.669c-.61.51-1.219.73-1.979.73-1.439,0-2.559-1.129-2.559-2.599ZM206.058,162.213c-.12-.73-.64-1.239-1.309-1.239-.68,0-1.179.49-1.309,1.239h2.618Z"></path>
        <path class="uuid-90139e06-1c15-4a8f-ae81-565df7fa94e1" d="M207.88,164.562l.53-.75c.659.41,1.099.569,1.609.569.6,0,1.009-.28,1.009-.68,0-.31-.209-.47-.699-.569l-.88-.15c-.979-.18-1.449-.63-1.449-1.379,0-.939.77-1.549,1.939-1.549.7,0,1.33.2,1.969.6l-.53.75c-.51-.33-1-.48-1.509-.48-.52,0-.859.22-.859.58,0,.32.18.46.699.55l.89.17c1,.18,1.479.64,1.479,1.389,0,.919-.88,1.629-2.049,1.629-.86,0-1.619-.24-2.149-.68Z"></path>
      </g>
    </g>
  </g>
  <rect class="uuid-a5d6837f-7d75-431f-8bc2-b956ae5b9afa" x="89.633" y="196.162" width="405.528" height="94.063"></rect>
  <g>
    <path class="uuid-90139e06-1c15-4a8f-ae81-565df7fa94e1" d="M103.494,216.245c0-2.222,1.749-3.972,3.982-3.972s3.983,1.75,3.983,3.972-1.75,3.972-3.983,3.972-3.982-1.75-3.982-3.972ZM109.511,216.245c0-1.309-.88-2.288-2.035-2.288s-2.035.979-2.035,2.288.88,2.289,2.035,2.289,2.035-.979,2.035-2.289Z"></path>
    <path class="uuid-90139e06-1c15-4a8f-ae81-565df7fa94e1" d="M112.646,214.419h1.76v.792c.375-.506,1.001-.825,1.684-.825,1.397,0,2.508,1.287,2.508,2.882s-1.166,2.861-2.641,2.861c-.616,0-1.155-.231-1.529-.66v2.926h-1.783v-7.976ZM116.848,217.257c0-.803-.583-1.397-1.353-1.397-.44,0-.781.154-1.067.462v1.892c.275.286.649.451,1.067.451.781,0,1.353-.594,1.353-1.408Z"></path>
    <path class="uuid-90139e06-1c15-4a8f-ae81-565df7fa94e1" d="M119.477,217.268c0-1.661,1.232-2.937,2.86-2.937,1.64,0,2.794,1.243,2.794,3.003v.385h-3.905c.165.638.682,1.067,1.331,1.067.473,0,.869-.165,1.122-.473l1.177.979c-.737.649-1.43.913-2.387.913-1.672,0-2.993-1.287-2.993-2.938ZM123.481,216.707c-.154-.605-.583-.99-1.155-.99-.561,0-.957.363-1.1.99h2.255Z"></path>
    <path class="uuid-90139e06-1c15-4a8f-ae81-565df7fa94e1" d="M126.241,214.419h1.783v.924c.44-.66,1.056-1.012,1.793-1.012,1.1,0,1.881.803,1.881,1.936v3.829h-1.782v-3.312c0-.638-.374-1.056-.946-1.056-.385,0-.693.154-.946.473v3.895h-1.783v-5.677Z"></path>
    <path class="uuid-90139e06-1c15-4a8f-ae81-565df7fa94e1" d="M132.555,219.051l.968-1.397c1.067.748,1.738,1.023,2.497,1.023.814,0,1.31-.33,1.31-.814,0-.451-.264-.671-1.012-.803l-1.639-.286c-1.221-.209-1.893-.979-1.893-2.068,0-1.497,1.144-2.432,3.059-2.432,1.188,0,2.365.385,3.157,1.012l-.957,1.375c-.748-.572-1.485-.847-2.299-.847-.748,0-1.177.308-1.177.726,0,.396.253.594.869.704l1.541.264c1.441.242,2.2,1.001,2.2,2.179,0,1.507-1.276,2.53-3.29,2.53-1.221,0-2.31-.407-3.333-1.166Z"></path>
    <path class="uuid-90139e06-1c15-4a8f-ae81-565df7fa94e1" d="M140.244,212.263l1.783-.275v3.355c.44-.66,1.056-1.012,1.793-1.012,1.1,0,1.881.803,1.881,1.936v3.829h-1.782v-3.312c0-.638-.374-1.056-.946-1.056-.385,0-.693.154-.946.473v3.895h-1.783v-7.833Z"></path>
    <path class="uuid-90139e06-1c15-4a8f-ae81-565df7fa94e1" d="M146.932,212.549c0-.55.451-1.001,1.001-1.001s1.001.451,1.001,1.001-.451,1.001-1.001,1.001-1.001-.451-1.001-1.001ZM147.042,214.419h1.783v5.677h-1.783v-5.677Z"></path>
    <path class="uuid-90139e06-1c15-4a8f-ae81-565df7fa94e1" d="M151.046,215.794h-1.177v-1.375h1.177v-.748c0-1.354.803-2.09,2.266-2.09.308,0,.715.044.946.11v1.463c-.319-.055-.484-.066-.682-.066-.506,0-.748.198-.748.616v.715h1.43v1.375h-1.43v4.302h-1.782v-4.302Z"></path>
    <path class="uuid-90139e06-1c15-4a8f-ae81-565df7fa94e1" d="M156.019,218.379v-2.585h-1.101v-1.375h1.101v-1.573l1.782-.363v1.937h1.518v1.375h-1.518v2.233c0,.506.198.682.748.682.209,0,.374-.022.726-.121v1.441c-.33.099-.858.176-1.221.176-1.342,0-2.035-.616-2.035-1.826Z"></path>
    <path class="uuid-90139e06-1c15-4a8f-ae81-565df7fa94e1" d="M162.838,212.395h3.136c2.156,0,3.873,1.716,3.873,3.851s-1.716,3.851-3.873,3.851h-3.136v-7.701ZM165.974,218.479c1.067,0,1.914-.99,1.914-2.233s-.847-2.233-1.914-2.233h-1.243v4.467h1.243Z"></path>
    <path class="uuid-90139e06-1c15-4a8f-ae81-565df7fa94e1" d="M170.659,218.467c0-1.045.814-1.65,2.211-1.65.407,0,.814.077,1.32.264v-.462c0-.55-.363-.825-1.122-.825-.429,0-.935.121-1.595.396l-.616-1.243c.935-.418,1.771-.616,2.607-.616,1.573,0,2.486.781,2.486,2.134v3.63h-1.76v-.495c-.495.418-.968.583-1.573.583-1.155,0-1.958-.704-1.958-1.716ZM173.167,219.006c.374,0,.715-.099,1.023-.286v-.726c-.33-.077-.649-.121-.979-.121-.583,0-.913.198-.913.561s.319.572.869.572Z"></path>
    <path class="uuid-90139e06-1c15-4a8f-ae81-565df7fa94e1" d="M177.875,218.379v-2.585h-1.101v-1.375h1.101v-1.573l1.782-.363v1.937h1.518v1.375h-1.518v2.233c0,.506.198.682.748.682.209,0,.374-.022.726-.121v1.441c-.33.099-.858.176-1.221.176-1.342,0-2.035-.616-2.035-1.826Z"></path>
    <path class="uuid-90139e06-1c15-4a8f-ae81-565df7fa94e1" d="M181.901,218.467c0-1.045.814-1.65,2.211-1.65.407,0,.814.077,1.32.264v-.462c0-.55-.363-.825-1.122-.825-.429,0-.935.121-1.595.396l-.616-1.243c.935-.418,1.771-.616,2.607-.616,1.573,0,2.486.781,2.486,2.134v3.63h-1.76v-.495c-.495.418-.968.583-1.573.583-1.155,0-1.958-.704-1.958-1.716ZM184.409,219.006c.374,0,.715-.099,1.023-.286v-.726c-.33-.077-.649-.121-.979-.121-.583,0-.913.198-.913.561s.319.572.869.572Z"></path>
    <path class="uuid-90139e06-1c15-4a8f-ae81-565df7fa94e1" d="M191.063,212.395h5.864v1.584h-3.972v1.518h2.772v1.54h-2.772v3.059h-1.893v-7.701Z"></path>
    <path class="uuid-90139e06-1c15-4a8f-ae81-565df7fa94e1" d="M196.949,217.268c0-1.672,1.276-2.937,2.959-2.937s2.959,1.265,2.959,2.937-1.276,2.938-2.959,2.938-2.959-1.265-2.959-2.938ZM201.129,217.268c0-.847-.506-1.452-1.221-1.452s-1.221.605-1.221,1.452.506,1.453,1.221,1.453,1.221-.605,1.221-1.453Z"></path>
    <path class="uuid-90139e06-1c15-4a8f-ae81-565df7fa94e1" d="M203.956,218.248v-3.829h1.782v3.312c0,.638.374,1.056.946,1.056.385,0,.693-.154.946-.473v-3.895h1.782v5.677h-1.782v-.924c-.44.66-1.056,1.012-1.793,1.012-1.1,0-1.881-.803-1.881-1.936Z"></path>
    <path class="uuid-90139e06-1c15-4a8f-ae81-565df7fa94e1" d="M210.797,214.419h1.783v.924c.44-.66,1.056-1.012,1.793-1.012,1.1,0,1.881.803,1.881,1.936v3.829h-1.782v-3.312c0-.638-.374-1.056-.946-1.056-.385,0-.693.154-.946.473v3.895h-1.783v-5.677Z"></path>
    <path class="uuid-90139e06-1c15-4a8f-ae81-565df7fa94e1" d="M217.343,217.246c0-1.595,1.167-2.86,2.641-2.86.594,0,1.133.242,1.518.682v-2.805l1.782-.275v8.108h-1.76v-.737c-.374.473-1.001.771-1.672.771-1.397,0-2.508-1.288-2.508-2.883ZM221.501,218.204v-1.915c-.275-.286-.649-.44-1.056-.44-.781,0-1.353.594-1.353,1.408,0,.803.583,1.397,1.353,1.397.429,0,.781-.154,1.056-.451Z"></path>
    <path class="uuid-90139e06-1c15-4a8f-ae81-565df7fa94e1" d="M224.405,218.467c0-1.045.814-1.65,2.211-1.65.407,0,.814.077,1.32.264v-.462c0-.55-.363-.825-1.122-.825-.429,0-.935.121-1.595.396l-.616-1.243c.935-.418,1.771-.616,2.607-.616,1.573,0,2.486.781,2.486,2.134v3.63h-1.76v-.495c-.495.418-.968.583-1.573.583-1.155,0-1.958-.704-1.958-1.716ZM226.913,219.006c.374,0,.715-.099,1.023-.286v-.726c-.33-.077-.649-.121-.979-.121-.583,0-.913.198-.913.561s.319.572.869.572Z"></path>
    <path class="uuid-90139e06-1c15-4a8f-ae81-565df7fa94e1" d="M231.621,218.379v-2.585h-1.101v-1.375h1.101v-1.573l1.782-.363v1.937h1.518v1.375h-1.518v2.233c0,.506.198.682.748.682.209,0,.374-.022.726-.121v1.441c-.33.099-.858.176-1.221.176-1.342,0-2.035-.616-2.035-1.826Z"></path>
    <path class="uuid-90139e06-1c15-4a8f-ae81-565df7fa94e1" d="M235.8,212.549c0-.55.451-1.001,1.001-1.001s1.001.451,1.001,1.001-.451,1.001-1.001,1.001-1.001-.451-1.001-1.001ZM235.91,214.419h1.783v5.677h-1.783v-5.677Z"></path>
    <path class="uuid-90139e06-1c15-4a8f-ae81-565df7fa94e1" d="M238.825,217.268c0-1.672,1.276-2.937,2.959-2.937s2.959,1.265,2.959,2.937-1.276,2.938-2.959,2.938-2.959-1.265-2.959-2.938ZM243.006,217.268c0-.847-.506-1.452-1.221-1.452s-1.221.605-1.221,1.452.506,1.453,1.221,1.453,1.221-.605,1.221-1.453Z"></path>
    <path class="uuid-90139e06-1c15-4a8f-ae81-565df7fa94e1" d="M245.876,214.419h1.783v.924c.44-.66,1.056-1.012,1.793-1.012,1.1,0,1.881.803,1.881,1.936v3.829h-1.782v-3.312c0-.638-.374-1.056-.946-1.056-.385,0-.693.154-.946.473v3.895h-1.783v-5.677Z"></path>
  </g>
  <g>
    <rect class="uuid-a9e7026c-0036-45db-87ea-7e636cc15978" x="340.606" y="87.446" width="140.919" height="42.499"></rect>
    <g>
      <path class="uuid-90139e06-1c15-4a8f-ae81-565df7fa94e1" d="M380.087,108.306c0-2.029,1.579-3.608,3.618-3.608,1.069,0,2.089.459,2.729,1.249l-.8.78c-.5-.62-1.189-.95-1.929-.95-1.359,0-2.389,1.089-2.389,2.529s1.029,2.529,2.389,2.529c.739,0,1.429-.33,1.929-.95l.8.78c-.64.79-1.659,1.249-2.729,1.249-2.039,0-3.618-1.579-3.618-3.608Z"></path>
      <path class="uuid-90139e06-1c15-4a8f-ae81-565df7fa94e1" d="M387.127,109.305c0-1.479,1.079-2.589,2.519-2.589,1.43,0,2.509,1.109,2.509,2.589s-1.079,2.588-2.509,2.588c-1.439,0-2.519-1.109-2.519-2.588ZM391.045,109.305c0-.93-.59-1.629-1.399-1.629-.819,0-1.409.7-1.409,1.629,0,.939.59,1.629,1.409,1.629.81,0,1.399-.689,1.399-1.629Z"></path>
      <path class="uuid-90139e06-1c15-4a8f-ae81-565df7fa94e1" d="M393.326,106.796h1.13v.82c.38-.59.93-.9,1.579-.9,1.029,0,1.749.73,1.749,1.789v3.298h-1.14v-2.979c0-.729-.43-1.199-1.1-1.199-.459,0-.829.21-1.089.61v3.568h-1.13v-5.007Z"></path>
      <path class="uuid-90139e06-1c15-4a8f-ae81-565df7fa94e1" d="M399.616,110.504v-2.809h-1v-.899h1v-1.379l1.129-.24v1.619h1.39v.899h-1.39v2.559c0,.49.19.68.7.68.22,0,.38-.03.68-.12v.949c-.29.09-.67.14-.97.14-1.01,0-1.539-.48-1.539-1.399Z"></path>
      <path class="uuid-90139e06-1c15-4a8f-ae81-565df7fa94e1" d="M403.136,106.796h1.13v1.08c.279-.76.76-1.169,1.379-1.169.19.01.32.03.49.1v.989c-.181-.07-.41-.12-.62-.12-.55,0-.999.31-1.249.83v3.298h-1.13v-5.007Z"></path>
      <path class="uuid-90139e06-1c15-4a8f-ae81-565df7fa94e1" d="M406.606,109.305c0-1.479,1.079-2.589,2.519-2.589,1.43,0,2.509,1.109,2.509,2.589s-1.079,2.588-2.509,2.588c-1.439,0-2.519-1.109-2.519-2.588ZM410.524,109.305c0-.93-.59-1.629-1.399-1.629-.819,0-1.409.7-1.409,1.629,0,.939.59,1.629,1.409,1.629.81,0,1.399-.689,1.399-1.629Z"></path>
      <path class="uuid-90139e06-1c15-4a8f-ae81-565df7fa94e1" d="M412.806,104.638l1.13-.2v7.366h-1.13v-7.166Z"></path>
      <path class="uuid-90139e06-1c15-4a8f-ae81-565df7fa94e1" d="M417.575,106.796h1.109v.709c.36-.47.92-.75,1.56-.75,1.27,0,2.259,1.129,2.259,2.549,0,1.429-1.02,2.548-2.329,2.548-.589,0-1.109-.22-1.469-.64v2.679h-1.13v-7.096ZM421.394,109.305c0-.91-.64-1.599-1.489-1.599-.5,0-.909.2-1.199.56v2.089c.29.35.72.56,1.199.56.859,0,1.489-.689,1.489-1.609Z"></path>
      <path class="uuid-90139e06-1c15-4a8f-ae81-565df7fa94e1" d="M423.686,104.638l1.13-.2v7.366h-1.13v-7.166Z"></path>
      <path class="uuid-90139e06-1c15-4a8f-ae81-565df7fa94e1" d="M425.945,110.364c0-.899.74-1.469,1.919-1.469.47,0,.91.1,1.35.32v-.56c0-.66-.38-1-1.149-1-.42,0-.88.12-1.459.39l-.4-.82c.75-.34,1.409-.51,2.079-.51,1.31,0,2.049.66,2.049,1.819v3.268h-1.119v-.52c-.43.419-.909.609-1.489.609-1.05,0-1.779-.629-1.779-1.529ZM428.034,111.094c.45,0,.84-.13,1.18-.42v-.81c-.359-.17-.72-.24-1.149-.24-.649,0-1.06.27-1.06.72,0,.459.4.75,1.029.75Z"></path>
      <path class="uuid-90139e06-1c15-4a8f-ae81-565df7fa94e1" d="M431.705,106.796h1.13v.82c.38-.59.93-.9,1.579-.9,1.029,0,1.749.73,1.749,1.789v3.298h-1.14v-2.979c0-.729-.43-1.199-1.1-1.199-.459,0-.829.21-1.089.61v3.568h-1.13v-5.007Z"></path>
      <path class="uuid-90139e06-1c15-4a8f-ae81-565df7fa94e1" d="M437.296,109.305c0-1.469,1.06-2.589,2.438-2.589,1.369,0,2.369,1.089,2.369,2.589v.27h-3.698c.11.81.72,1.399,1.499,1.399.47,0,.91-.18,1.189-.47l.739.669c-.609.51-1.219.73-1.979.73-1.439,0-2.559-1.129-2.559-2.599ZM441.034,108.876c-.12-.73-.64-1.239-1.31-1.239-.68,0-1.18.49-1.31,1.239h2.619Z"></path>
    </g>
    <rect class="uuid-a9e7026c-0036-45db-87ea-7e636cc15978" x="340.606" y="140.784" width="140.919" height="42.499"></rect>
    <g>
      <path class="uuid-90139e06-1c15-4a8f-ae81-565df7fa94e1" d="M374.456,161.644c0-2.029,1.579-3.608,3.618-3.608,1.069,0,2.089.459,2.729,1.249l-.8.78c-.5-.62-1.189-.95-1.929-.95-1.359,0-2.389,1.089-2.389,2.529s1.029,2.529,2.389,2.529c.739,0,1.429-.33,1.929-.95l.8.78c-.64.79-1.659,1.249-2.729,1.249-2.039,0-3.618-1.579-3.618-3.608Z"></path>
      <path class="uuid-90139e06-1c15-4a8f-ae81-565df7fa94e1" d="M381.496,162.643c0-1.479,1.079-2.589,2.519-2.589,1.43,0,2.509,1.109,2.509,2.589s-1.079,2.588-2.509,2.588c-1.439,0-2.519-1.109-2.519-2.588ZM385.414,162.643c0-.93-.59-1.629-1.399-1.629-.819,0-1.409.7-1.409,1.629,0,.939.59,1.629,1.409,1.629.81,0,1.399-.689,1.399-1.629Z"></path>
      <path class="uuid-90139e06-1c15-4a8f-ae81-565df7fa94e1" d="M387.695,160.134h1.13v.79c.37-.57.869-.87,1.479-.87.689,0,1.219.37,1.479.959.39-.629.95-.959,1.659-.959.97,0,1.64.75,1.64,1.809v3.278h-1.13v-3.028c0-.7-.39-1.149-1.01-1.149-.409,0-.749.19-.999.6.01.1.02.2.02.3v3.278h-1.139v-3.028c0-.7-.39-1.149-1.01-1.149-.41,0-.739.19-.989.58v3.598h-1.13v-5.007Z"></path>
      <path class="uuid-90139e06-1c15-4a8f-ae81-565df7fa94e1" d="M396.455,160.134h1.109v.709c.36-.47.92-.75,1.56-.75,1.27,0,2.259,1.129,2.259,2.549,0,1.429-1.02,2.548-2.329,2.548-.589,0-1.109-.22-1.469-.64v2.679h-1.13v-7.096ZM400.273,162.643c0-.91-.64-1.599-1.489-1.599-.5,0-.909.2-1.199.56v2.089c.29.35.72.56,1.199.56.859,0,1.489-.689,1.489-1.609Z"></path>
      <path class="uuid-90139e06-1c15-4a8f-ae81-565df7fa94e1" d="M402.525,163.433v-3.298h1.14v2.968c0,.74.43,1.209,1.1,1.209.45,0,.829-.2,1.09-.6v-3.578h1.129v5.007h-1.129v-.81c-.38.59-.92.89-1.59.89-1.02,0-1.739-.74-1.739-1.789Z"></path>
      <path class="uuid-90139e06-1c15-4a8f-ae81-565df7fa94e1" d="M409.005,163.842v-2.809h-.999v-.899h.999v-1.379l1.129-.24v1.619h1.39v.899h-1.39v2.559c0,.49.19.68.7.68.22,0,.38-.03.68-.12v.949c-.29.09-.67.14-.97.14-1.01,0-1.539-.48-1.539-1.399Z"></path>
      <path class="uuid-90139e06-1c15-4a8f-ae81-565df7fa94e1" d="M412.216,162.643c0-1.469,1.06-2.589,2.438-2.589,1.369,0,2.369,1.089,2.369,2.589v.27h-3.698c.11.81.72,1.399,1.499,1.399.47,0,.91-.18,1.189-.47l.739.669c-.609.51-1.219.73-1.979.73-1.439,0-2.559-1.129-2.559-2.599ZM415.954,162.213c-.12-.73-.64-1.239-1.31-1.239-.68,0-1.18.49-1.31,1.239h2.619Z"></path>
      <path class="uuid-90139e06-1c15-4a8f-ae81-565df7fa94e1" d="M420.425,160.134h1.13v.82c.38-.59.93-.9,1.579-.9,1.029,0,1.749.73,1.749,1.789v3.298h-1.14v-2.979c0-.729-.43-1.199-1.1-1.199-.459,0-.829.21-1.089.61v3.568h-1.13v-5.007Z"></path>
      <path class="uuid-90139e06-1c15-4a8f-ae81-565df7fa94e1" d="M426.015,162.643c0-1.479,1.079-2.589,2.519-2.589,1.43,0,2.509,1.109,2.509,2.589s-1.079,2.588-2.509,2.588c-1.439,0-2.519-1.109-2.519-2.588ZM429.933,162.643c0-.93-.59-1.629-1.399-1.629-.819,0-1.409.7-1.409,1.629,0,.939.59,1.629,1.409,1.629.81,0,1.399-.689,1.399-1.629Z"></path>
      <path class="uuid-90139e06-1c15-4a8f-ae81-565df7fa94e1" d="M431.985,162.643c0-1.429,1.029-2.549,2.339-2.549.569,0,1.089.23,1.459.65v-2.769l1.13-.2v7.366h-1.12v-.66c-.359.45-.919.709-1.549.709-1.27,0-2.259-1.129-2.259-2.548ZM435.783,163.692v-2.109c-.29-.34-.72-.54-1.189-.54-.859,0-1.499.68-1.499,1.599,0,.909.64,1.599,1.499,1.599.49,0,.899-.19,1.189-.55Z"></path>
      <path class="uuid-90139e06-1c15-4a8f-ae81-565df7fa94e1" d="M438.085,162.643c0-1.469,1.06-2.589,2.438-2.589,1.369,0,2.369,1.089,2.369,2.589v.27h-3.698c.11.81.72,1.399,1.499,1.399.47,0,.91-.18,1.189-.47l.739.669c-.609.51-1.219.73-1.979.73-1.439,0-2.559-1.129-2.559-2.599ZM441.823,162.213c-.12-.73-.64-1.239-1.31-1.239-.68,0-1.18.49-1.31,1.239h2.619Z"></path>
      <path class="uuid-90139e06-1c15-4a8f-ae81-565df7fa94e1" d="M443.645,164.562l.529-.75c.66.41,1.1.569,1.609.569.6,0,1.01-.28,1.01-.68,0-.31-.21-.47-.7-.569l-.879-.15c-.979-.18-1.449-.63-1.449-1.379,0-.939.77-1.549,1.938-1.549.7,0,1.329.2,1.969.6l-.529.75c-.51-.33-1-.48-1.51-.48-.52,0-.859.22-.859.58,0,.32.181.46.7.55l.89.17c.999.18,1.479.64,1.479,1.389,0,.919-.879,1.629-2.049,1.629-.859,0-1.619-.24-2.148-.68Z"></path>
    </g>
  </g>
  <rect class="uuid-a9e7026c-0036-45db-87ea-7e636cc15978" x="354.242" y="354.373" width="140.919" height="42.499"></rect>
  <g>
    <path class="uuid-90139e06-1c15-4a8f-ae81-565df7fa94e1" d="M397.95,371.734h1.389l2.709,6.996h-1.289l-.72-1.959h-2.868l-.72,1.959h-1.25l2.749-6.996ZM399.709,375.832l-1.1-2.958-1.089,2.958h2.188Z"></path>
    <path class="uuid-90139e06-1c15-4a8f-ae81-565df7fa94e1" d="M402.811,373.723h1.13v1.08c.279-.76.76-1.169,1.379-1.169.19.01.32.03.49.1v.989c-.18-.07-.41-.12-.62-.12-.55,0-.999.31-1.249.83v3.298h-1.13v-5.007Z"></path>
    <path class="uuid-90139e06-1c15-4a8f-ae81-565df7fa94e1" d="M406.74,371.594l1.13-.19v2.989c.35-.44.909-.71,1.539-.71,1.27,0,2.259,1.129,2.259,2.549,0,1.429-1.02,2.548-2.329,2.548-.589,0-1.109-.24-1.489-.689v.64h-1.109v-7.136ZM410.559,376.232c0-.91-.64-1.599-1.489-1.599-.5,0-.909.2-1.199.56v2.089c.29.35.72.56,1.199.56.859,0,1.489-.689,1.489-1.609Z"></path>
    <path class="uuid-90139e06-1c15-4a8f-ae81-565df7fa94e1" d="M412.711,372.014c0-.38.31-.7.7-.7.379,0,.699.32.699.7s-.32.689-.699.689c-.391,0-.7-.31-.7-.689ZM412.841,373.723h1.13v5.007h-1.13v-5.007Z"></path>
    <path class="uuid-90139e06-1c15-4a8f-ae81-565df7fa94e1" d="M415.99,377.431v-2.809h-.999v-.899h.999v-1.379l1.129-.24v1.619h1.39v.899h-1.39v2.559c0,.49.19.68.7.68.22,0,.38-.03.68-.12v.949c-.29.09-.67.14-.97.14-1.01,0-1.539-.48-1.539-1.399Z"></path>
    <path class="uuid-90139e06-1c15-4a8f-ae81-565df7fa94e1" d="M419.201,376.232c0-1.469,1.06-2.589,2.438-2.589,1.369,0,2.369,1.089,2.369,2.589v.27h-3.698c.11.81.72,1.399,1.499,1.399.47,0,.91-.18,1.189-.47l.739.669c-.609.51-1.219.73-1.979.73-1.439,0-2.559-1.129-2.559-2.599ZM422.939,375.802c-.12-.73-.64-1.239-1.31-1.239-.68,0-1.18.49-1.31,1.239h2.619Z"></path>
    <path class="uuid-90139e06-1c15-4a8f-ae81-565df7fa94e1" d="M425.16,373.723h1.13v1.08c.279-.76.76-1.169,1.379-1.169.19.01.32.03.49.1v.989c-.18-.07-.41-.12-.62-.12-.55,0-.999.31-1.249.83v3.298h-1.13v-5.007Z"></path>
    <path class="uuid-90139e06-1c15-4a8f-ae81-565df7fa94e1" d="M431.34,373.723h1.13v.82c.38-.59.93-.9,1.579-.9,1.029,0,1.749.73,1.749,1.789v3.298h-1.14v-2.979c0-.729-.43-1.199-1.1-1.199-.459,0-.829.21-1.089.61v3.568h-1.13v-5.007Z"></path>
    <path class="uuid-90139e06-1c15-4a8f-ae81-565df7fa94e1" d="M436.931,376.232c0-1.479,1.079-2.589,2.519-2.589,1.43,0,2.509,1.109,2.509,2.589s-1.079,2.588-2.509,2.588c-1.439,0-2.519-1.109-2.519-2.588ZM440.849,376.232c0-.93-.59-1.629-1.399-1.629-.819,0-1.409.7-1.409,1.629,0,.939.59,1.629,1.409,1.629.81,0,1.399-.689,1.399-1.629Z"></path>
    <path class="uuid-90139e06-1c15-4a8f-ae81-565df7fa94e1" d="M442.9,376.232c0-1.429,1.029-2.549,2.339-2.549.569,0,1.089.23,1.459.65v-2.769l1.13-.2v7.366h-1.12v-.66c-.359.45-.919.709-1.549.709-1.27,0-2.259-1.129-2.259-2.548ZM446.698,377.281v-2.109c-.29-.34-.72-.54-1.189-.54-.859,0-1.499.68-1.499,1.599,0,.909.64,1.599,1.499,1.599.49,0,.899-.19,1.189-.55Z"></path>
    <path class="uuid-90139e06-1c15-4a8f-ae81-565df7fa94e1" d="M449,376.232c0-1.469,1.06-2.589,2.438-2.589,1.369,0,2.369,1.089,2.369,2.589v.27h-3.698c.11.81.72,1.399,1.499,1.399.47,0,.91-.18,1.189-.47l.739.669c-.609.51-1.219.73-1.979.73-1.439,0-2.559-1.129-2.559-2.599ZM452.738,375.802c-.12-.73-.64-1.239-1.31-1.239-.68,0-1.18.49-1.31,1.239h2.619Z"></path>
  </g>
  <g>
    <path class="uuid-90139e06-1c15-4a8f-ae81-565df7fa94e1" d="M75.953,29.553h2.156l2.959,7.701h-2.046l-.638-1.837h-2.816l-.649,1.837h-1.969l3.003-7.701ZM77.878,33.954l-.891-2.553-.902,2.553h1.793Z"></path>
    <path class="uuid-90139e06-1c15-4a8f-ae81-565df7fa94e1" d="M80.231,31.578h1.936l1.287,3.564,1.298-3.564h1.837l-2.321,5.677h-1.738l-2.299-5.677Z"></path>
    <path class="uuid-90139e06-1c15-4a8f-ae81-565df7fa94e1" d="M86.985,35.626c0-1.045.814-1.65,2.211-1.65.407,0,.814.077,1.32.264v-.462c0-.55-.363-.825-1.122-.825-.429,0-.935.121-1.595.396l-.616-1.243c.935-.418,1.771-.616,2.607-.616,1.573,0,2.486.781,2.486,2.134v3.63h-1.76v-.495c-.495.418-.968.583-1.573.583-1.155,0-1.958-.704-1.958-1.716ZM89.494,36.165c.374,0,.715-.099,1.023-.286v-.726c-.33-.077-.649-.121-.979-.121-.583,0-.913.198-.913.561s.319.572.869.572Z"></path>
    <path class="uuid-90139e06-1c15-4a8f-ae81-565df7fa94e1" d="M93.508,29.708c0-.55.451-1.001,1.001-1.001s1.001.451,1.001,1.001-.451,1.001-1.001,1.001-1.001-.451-1.001-1.001ZM93.618,31.578h1.783v5.677h-1.783v-5.677Z"></path>
    <path class="uuid-90139e06-1c15-4a8f-ae81-565df7fa94e1" d="M96.786,29.421l1.783-.275v8.108h-1.783v-7.833Z"></path>
    <path class="uuid-90139e06-1c15-4a8f-ae81-565df7fa94e1" d="M99.69,35.626c0-1.045.814-1.65,2.211-1.65.407,0,.814.077,1.32.264v-.462c0-.55-.363-.825-1.122-.825-.429,0-.935.121-1.595.396l-.616-1.243c.935-.418,1.771-.616,2.607-.616,1.573,0,2.486.781,2.486,2.134v3.63h-1.76v-.495c-.495.418-.968.583-1.573.583-1.155,0-1.958-.704-1.958-1.716ZM102.199,36.165c.374,0,.715-.099,1.023-.286v-.726c-.33-.077-.649-.121-.979-.121-.583,0-.913.198-.913.561s.319.572.869.572Z"></path>
    <path class="uuid-90139e06-1c15-4a8f-ae81-565df7fa94e1" d="M106.323,29.421l1.783-.275v3.158c.374-.462.99-.759,1.661-.759,1.397,0,2.508,1.287,2.508,2.882s-1.166,2.861-2.641,2.861c-.616,0-1.166-.264-1.551-.726v.693h-1.76v-7.833ZM110.525,34.416c0-.803-.583-1.397-1.353-1.397-.44,0-.781.154-1.067.462v1.892c.275.286.649.451,1.067.451.781,0,1.353-.594,1.353-1.408Z"></path>
    <path class="uuid-90139e06-1c15-4a8f-ae81-565df7fa94e1" d="M113.297,29.708c0-.55.451-1.001,1.001-1.001s1.001.451,1.001,1.001-.451,1.001-1.001,1.001-1.001-.451-1.001-1.001ZM113.407,31.578h1.783v5.677h-1.783v-5.677Z"></path>
    <path class="uuid-90139e06-1c15-4a8f-ae81-565df7fa94e1" d="M116.575,29.421l1.783-.275v8.108h-1.783v-7.833Z"></path>
    <path class="uuid-90139e06-1c15-4a8f-ae81-565df7fa94e1" d="M119.633,29.708c0-.55.451-1.001,1.001-1.001s1.001.451,1.001,1.001-.451,1.001-1.001,1.001-1.001-.451-1.001-1.001ZM119.743,31.578h1.783v5.677h-1.783v-5.677Z"></path>
    <path class="uuid-90139e06-1c15-4a8f-ae81-565df7fa94e1" d="M123.659,35.538v-2.585h-1.101v-1.375h1.101v-1.573l1.782-.363v1.937h1.518v1.375h-1.518v2.233c0,.506.198.682.748.682.209,0,.374-.022.726-.121v1.441c-.33.099-.858.176-1.221.176-1.342,0-2.035-.616-2.035-1.826Z"></path>
    <path class="uuid-90139e06-1c15-4a8f-ae81-565df7fa94e1" d="M127.938,39.576v-1.496c.132.022.319.044.528.044.484,0,.748-.198.924-.572l.088-.187-2.09-5.787h1.969l1.133,3.664,1.298-3.664h1.925l-2.553,6.315c-.528,1.298-1.177,1.771-2.486,1.771-.209,0-.495-.033-.737-.088Z"></path>
    <path class="uuid-90139e06-1c15-4a8f-ae81-565df7fa94e1" d="M136.551,36.011l2.542-2.959-2.52.022v-1.496h4.709v1.243l-2.553,2.97,2.641-.022v1.485h-4.819v-1.243Z"></path>
    <path class="uuid-90139e06-1c15-4a8f-ae81-565df7fa94e1" d="M142.04,34.427c0-1.672,1.276-2.937,2.959-2.937s2.959,1.265,2.959,2.937-1.276,2.938-2.959,2.938-2.959-1.265-2.959-2.938ZM146.22,34.427c0-.847-.506-1.452-1.221-1.452s-1.221.605-1.221,1.452.506,1.453,1.221,1.453,1.221-.605,1.221-1.453Z"></path>
    <path class="uuid-90139e06-1c15-4a8f-ae81-565df7fa94e1" d="M149.09,31.578h1.783v.924c.44-.66,1.056-1.012,1.793-1.012,1.1,0,1.881.803,1.881,1.936v3.829h-1.782v-3.312c0-.638-.374-1.056-.946-1.056-.385,0-.693.154-.946.473v3.895h-1.783v-5.677Z"></path>
    <path class="uuid-90139e06-1c15-4a8f-ae81-565df7fa94e1" d="M155.635,34.427c0-1.661,1.232-2.937,2.86-2.937,1.64,0,2.794,1.243,2.794,3.003v.385h-3.905c.165.638.682,1.067,1.331,1.067.473,0,.869-.165,1.122-.473l1.177.979c-.737.649-1.43.913-2.387.913-1.672,0-2.993-1.287-2.993-2.938ZM159.64,33.866c-.154-.605-.583-.99-1.155-.99-.561,0-.957.363-1.1.99h2.255Z"></path>
    <path class="uuid-90139e06-1c15-4a8f-ae81-565df7fa94e1" d="M165.942,31.313l-1.518.627v-1.496l2.146-.891h1.067v7.701h-1.694v-5.941Z"></path>
  </g>
  <g>
    <path class="uuid-90139e06-1c15-4a8f-ae81-565df7fa94e1" d="M90.491,67.635h3.741c1.584,0,2.717,1.023,2.717,2.454,0,.979-.561,1.771-1.43,2.156l1.617,3.091h-2.112l-1.397-2.828h-1.243v2.828h-1.893v-7.701ZM94.056,71.024c.583,0,.979-.363.979-.913s-.396-.913-.979-.913h-1.672v1.826h1.672Z"></path>
    <path class="uuid-90139e06-1c15-4a8f-ae81-565df7fa94e1" d="M98.114,67.635h1.892v2.993h3.114v-2.993h1.892v7.701h-1.892v-3.047h-3.114v3.047h-1.892v-7.701Z"></path>
    <path class="uuid-90139e06-1c15-4a8f-ae81-565df7fa94e1" d="M106.254,71.486c0-2.222,1.749-3.972,3.982-3.972s3.983,1.75,3.983,3.972-1.75,3.972-3.983,3.972-3.982-1.75-3.982-3.972ZM112.272,71.486c0-1.309-.88-2.288-2.036-2.288s-2.035.979-2.035,2.288.88,2.289,2.035,2.289,2.036-.979,2.036-2.289Z"></path>
    <path class="uuid-90139e06-1c15-4a8f-ae81-565df7fa94e1" d="M115.208,71.486c0-2.244,1.771-3.972,4.06-3.972,1.232,0,2.453.583,3.125,1.497l-1.276,1.21c-.506-.682-1.122-1.023-1.848-1.023-1.199,0-2.102.979-2.102,2.288s.902,2.289,2.102,2.289c.726,0,1.342-.341,1.848-1.023l1.276,1.21c-.671.913-1.893,1.496-3.125,1.496-2.289,0-4.06-1.728-4.06-3.972Z"></path>
    <path class="uuid-90139e06-1c15-4a8f-ae81-565df7fa94e1" d="M123.491,67.635h3.763c1.639,0,2.717,1.067,2.717,2.542,0,1.397-1.078,2.475-2.717,2.475h-1.87v2.685h-1.893v-7.701ZM126.913,71.145c.77,0,1.144-.418,1.144-.979,0-.55-.374-.968-1.133-.968h-1.54v1.947h1.529Z"></path>
  </g>
  <g>
    <path class="uuid-90139e06-1c15-4a8f-ae81-565df7fa94e1" d="M75.953,427.887h2.156l2.959,7.701h-2.046l-.638-1.837h-2.816l-.649,1.837h-1.969l3.003-7.701ZM77.878,432.287l-.891-2.552-.902,2.552h1.793Z"></path>
    <path class="uuid-90139e06-1c15-4a8f-ae81-565df7fa94e1" d="M80.231,429.911h1.936l1.287,3.564,1.298-3.564h1.837l-2.321,5.677h-1.738l-2.299-5.677Z"></path>
    <path class="uuid-90139e06-1c15-4a8f-ae81-565df7fa94e1" d="M86.985,433.96c0-1.046.814-1.65,2.211-1.65.407,0,.814.077,1.32.264v-.462c0-.55-.363-.825-1.122-.825-.429,0-.935.121-1.595.396l-.616-1.243c.935-.418,1.771-.616,2.607-.616,1.573,0,2.486.781,2.486,2.134v3.631h-1.76v-.495c-.495.418-.968.583-1.573.583-1.155,0-1.958-.704-1.958-1.716ZM89.494,434.499c.374,0,.715-.1,1.023-.286v-.727c-.33-.077-.649-.121-.979-.121-.583,0-.913.198-.913.562s.319.572.869.572Z"></path>
    <path class="uuid-90139e06-1c15-4a8f-ae81-565df7fa94e1" d="M93.508,428.041c0-.551.451-1.001,1.001-1.001s1.001.45,1.001,1.001-.451,1.001-1.001,1.001-1.001-.451-1.001-1.001ZM93.618,429.911h1.783v5.677h-1.783v-5.677Z"></path>
    <path class="uuid-90139e06-1c15-4a8f-ae81-565df7fa94e1" d="M96.786,427.755l1.783-.275v8.108h-1.783v-7.833Z"></path>
    <path class="uuid-90139e06-1c15-4a8f-ae81-565df7fa94e1" d="M99.69,433.96c0-1.046.814-1.65,2.211-1.65.407,0,.814.077,1.32.264v-.462c0-.55-.363-.825-1.122-.825-.429,0-.935.121-1.595.396l-.616-1.243c.935-.418,1.771-.616,2.607-.616,1.573,0,2.486.781,2.486,2.134v3.631h-1.76v-.495c-.495.418-.968.583-1.573.583-1.155,0-1.958-.704-1.958-1.716ZM102.199,434.499c.374,0,.715-.1,1.023-.286v-.727c-.33-.077-.649-.121-.979-.121-.583,0-.913.198-.913.562s.319.572.869.572Z"></path>
    <path class="uuid-90139e06-1c15-4a8f-ae81-565df7fa94e1" d="M106.323,427.755l1.783-.275v3.157c.374-.462.99-.759,1.661-.759,1.397,0,2.508,1.287,2.508,2.883s-1.166,2.86-2.641,2.86c-.616,0-1.166-.265-1.551-.727v.693h-1.76v-7.833ZM110.525,432.749c0-.803-.583-1.396-1.353-1.396-.44,0-.781.153-1.067.462v1.893c.275.285.649.45,1.067.45.781,0,1.353-.594,1.353-1.408Z"></path>
    <path class="uuid-90139e06-1c15-4a8f-ae81-565df7fa94e1" d="M113.297,428.041c0-.551.451-1.001,1.001-1.001s1.001.45,1.001,1.001-.451,1.001-1.001,1.001-1.001-.451-1.001-1.001ZM113.407,429.911h1.783v5.677h-1.783v-5.677Z"></path>
    <path class="uuid-90139e06-1c15-4a8f-ae81-565df7fa94e1" d="M116.575,427.755l1.783-.275v8.108h-1.783v-7.833Z"></path>
    <path class="uuid-90139e06-1c15-4a8f-ae81-565df7fa94e1" d="M119.633,428.041c0-.551.451-1.001,1.001-1.001s1.001.45,1.001,1.001-.451,1.001-1.001,1.001-1.001-.451-1.001-1.001ZM119.743,429.911h1.783v5.677h-1.783v-5.677Z"></path>
    <path class="uuid-90139e06-1c15-4a8f-ae81-565df7fa94e1" d="M123.659,433.872v-2.586h-1.101v-1.375h1.101v-1.573l1.782-.363v1.937h1.518v1.375h-1.518v2.233c0,.506.198.683.748.683.209,0,.374-.022.726-.121v1.44c-.33.1-.858.177-1.221.177-1.342,0-2.035-.616-2.035-1.826Z"></path>
    <path class="uuid-90139e06-1c15-4a8f-ae81-565df7fa94e1" d="M127.938,437.909v-1.496c.132.021.319.044.528.044.484,0,.748-.198.924-.572l.088-.187-2.09-5.787h1.969l1.133,3.663,1.298-3.663h1.925l-2.553,6.314c-.528,1.299-1.177,1.771-2.486,1.771-.209,0-.495-.033-.737-.088Z"></path>
    <path class="uuid-90139e06-1c15-4a8f-ae81-565df7fa94e1" d="M136.551,434.345l2.542-2.959-2.52.021v-1.496h4.709v1.243l-2.553,2.971,2.641-.022v1.485h-4.819v-1.243Z"></path>
    <path class="uuid-90139e06-1c15-4a8f-ae81-565df7fa94e1" d="M142.04,432.761c0-1.673,1.276-2.938,2.959-2.938s2.959,1.265,2.959,2.938-1.276,2.938-2.959,2.938-2.959-1.266-2.959-2.938ZM146.22,432.761c0-.848-.506-1.452-1.221-1.452s-1.221.604-1.221,1.452.506,1.452,1.221,1.452,1.221-.605,1.221-1.452Z"></path>
    <path class="uuid-90139e06-1c15-4a8f-ae81-565df7fa94e1" d="M149.09,429.911h1.783v.924c.44-.66,1.056-1.012,1.793-1.012,1.1,0,1.881.803,1.881,1.937v3.828h-1.782v-3.312c0-.638-.374-1.056-.946-1.056-.385,0-.693.153-.946.473v3.895h-1.783v-5.677Z"></path>
    <path class="uuid-90139e06-1c15-4a8f-ae81-565df7fa94e1" d="M155.635,432.761c0-1.661,1.232-2.938,2.86-2.938,1.64,0,2.794,1.243,2.794,3.003v.386h-3.905c.165.638.682,1.066,1.331,1.066.473,0,.869-.165,1.122-.473l1.177.979c-.737.648-1.43.913-2.387.913-1.672,0-2.993-1.287-2.993-2.938ZM159.64,432.199c-.154-.604-.583-.99-1.155-.99-.561,0-.957.363-1.1.99h2.255Z"></path>
    <path class="uuid-90139e06-1c15-4a8f-ae81-565df7fa94e1" d="M164.413,434.466l1.145-1.057c.572.616,1.023.814,1.87.814.836,0,1.386-.374,1.386-.946,0-.495-.396-.803-1.012-.803h-.99v-1.397h.814c.627,0,1.001-.319,1.001-.858,0-.55-.517-.945-1.21-.945-.748,0-1.188.22-1.793.88l-1.155-1.045c.726-.837,1.859-1.343,3.015-1.343,1.683,0,2.849.913,2.849,2.223,0,.836-.594,1.507-1.463,1.76,1.012.198,1.661.825,1.661,1.673,0,1.331-1.287,2.288-3.081,2.288-1.232,0-2.354-.462-3.037-1.243Z"></path>
  </g>
  <g>
    <path class="uuid-90139e06-1c15-4a8f-ae81-565df7fa94e1" d="M417.526,29.553h2.156l2.96,7.701h-2.047l-.638-1.837h-2.816l-.649,1.837h-1.969l3.003-7.701ZM419.452,33.954l-.892-2.553-.902,2.553h1.794Z"></path>
    <path class="uuid-90139e06-1c15-4a8f-ae81-565df7fa94e1" d="M421.805,31.578h1.937l1.287,3.564,1.298-3.564h1.837l-2.321,5.677h-1.738l-2.299-5.677Z"></path>
    <path class="uuid-90139e06-1c15-4a8f-ae81-565df7fa94e1" d="M428.559,35.626c0-1.045.814-1.65,2.212-1.65.407,0,.813.077,1.32.264v-.462c0-.55-.363-.825-1.122-.825-.43,0-.936.121-1.596.396l-.616-1.243c.936-.418,1.771-.616,2.607-.616,1.573,0,2.486.781,2.486,2.134v3.63h-1.76v-.495c-.495.418-.969.583-1.573.583-1.155,0-1.959-.704-1.959-1.716ZM431.067,36.165c.374,0,.715-.099,1.023-.286v-.726c-.33-.077-.649-.121-.979-.121-.583,0-.913.198-.913.561s.319.572.869.572Z"></path>
    <path class="uuid-90139e06-1c15-4a8f-ae81-565df7fa94e1" d="M435.082,29.708c0-.55.451-1.001,1.001-1.001s1.001.451,1.001,1.001-.45,1.001-1.001,1.001-1.001-.451-1.001-1.001ZM435.192,31.578h1.782v5.677h-1.782v-5.677Z"></path>
    <path class="uuid-90139e06-1c15-4a8f-ae81-565df7fa94e1" d="M438.36,29.421l1.782-.275v8.108h-1.782v-7.833Z"></path>
    <path class="uuid-90139e06-1c15-4a8f-ae81-565df7fa94e1" d="M441.264,35.626c0-1.045.814-1.65,2.212-1.65.407,0,.813.077,1.32.264v-.462c0-.55-.363-.825-1.122-.825-.43,0-.936.121-1.596.396l-.616-1.243c.936-.418,1.771-.616,2.607-.616,1.573,0,2.486.781,2.486,2.134v3.63h-1.76v-.495c-.495.418-.969.583-1.573.583-1.155,0-1.959-.704-1.959-1.716ZM443.772,36.165c.374,0,.715-.099,1.023-.286v-.726c-.33-.077-.649-.121-.979-.121-.583,0-.913.198-.913.561s.319.572.869.572Z"></path>
    <path class="uuid-90139e06-1c15-4a8f-ae81-565df7fa94e1" d="M447.897,29.421l1.782-.275v3.158c.374-.462.99-.759,1.661-.759,1.397,0,2.508,1.287,2.508,2.882s-1.166,2.861-2.64,2.861c-.616,0-1.166-.264-1.552-.726v.693h-1.76v-7.833ZM452.1,34.416c0-.803-.583-1.397-1.353-1.397-.44,0-.781.154-1.067.462v1.892c.274.286.648.451,1.067.451.78,0,1.353-.594,1.353-1.408Z"></path>
    <path class="uuid-90139e06-1c15-4a8f-ae81-565df7fa94e1" d="M454.871,29.708c0-.55.451-1.001,1.001-1.001s1.001.451,1.001,1.001-.45,1.001-1.001,1.001-1.001-.451-1.001-1.001ZM454.981,31.578h1.782v5.677h-1.782v-5.677Z"></path>
    <path class="uuid-90139e06-1c15-4a8f-ae81-565df7fa94e1" d="M458.149,29.421l1.782-.275v8.108h-1.782v-7.833Z"></path>
    <path class="uuid-90139e06-1c15-4a8f-ae81-565df7fa94e1" d="M461.207,29.708c0-.55.451-1.001,1.001-1.001s1.001.451,1.001,1.001-.45,1.001-1.001,1.001-1.001-.451-1.001-1.001ZM461.317,31.578h1.782v5.677h-1.782v-5.677Z"></path>
    <path class="uuid-90139e06-1c15-4a8f-ae81-565df7fa94e1" d="M465.232,35.538v-2.585h-1.101v-1.375h1.101v-1.573l1.782-.363v1.937h1.518v1.375h-1.518v2.233c0,.506.198.682.748.682.209,0,.374-.022.726-.121v1.441c-.33.099-.857.176-1.221.176-1.342,0-2.035-.616-2.035-1.826Z"></path>
    <path class="uuid-90139e06-1c15-4a8f-ae81-565df7fa94e1" d="M469.512,39.576v-1.496c.132.022.319.044.528.044.483,0,.748-.198.924-.572l.088-.187-2.09-5.787h1.969l1.133,3.664,1.299-3.664h1.925l-2.552,6.315c-.528,1.298-1.178,1.771-2.486,1.771-.209,0-.495-.033-.737-.088Z"></path>
    <path class="uuid-90139e06-1c15-4a8f-ae81-565df7fa94e1" d="M478.125,36.011l2.541-2.959-2.52.022v-1.496h4.709v1.243l-2.553,2.97,2.641-.022v1.485h-4.818v-1.243Z"></path>
    <path class="uuid-90139e06-1c15-4a8f-ae81-565df7fa94e1" d="M483.613,34.427c0-1.672,1.275-2.937,2.959-2.937s2.96,1.265,2.96,2.937-1.276,2.938-2.96,2.938-2.959-1.265-2.959-2.938ZM487.794,34.427c0-.847-.507-1.452-1.222-1.452s-1.221.605-1.221,1.452.506,1.453,1.221,1.453,1.222-.605,1.222-1.453Z"></path>
    <path class="uuid-90139e06-1c15-4a8f-ae81-565df7fa94e1" d="M490.665,31.578h1.782v.924c.439-.66,1.056-1.012,1.793-1.012,1.101,0,1.881.803,1.881,1.936v3.829h-1.782v-3.312c0-.638-.374-1.056-.945-1.056-.386,0-.693.154-.946.473v3.895h-1.782v-5.677Z"></path>
    <path class="uuid-90139e06-1c15-4a8f-ae81-565df7fa94e1" d="M497.21,34.427c0-1.661,1.231-2.937,2.86-2.937,1.639,0,2.794,1.243,2.794,3.003v.385h-3.905c.165.638.682,1.067,1.331,1.067.473,0,.869-.165,1.122-.473l1.178.979c-.737.649-1.431.913-2.388.913-1.673,0-2.992-1.287-2.992-2.938ZM501.214,33.866c-.153-.605-.583-.99-1.155-.99-.561,0-.957.363-1.1.99h2.255Z"></path>
    <path class="uuid-90139e06-1c15-4a8f-ae81-565df7fa94e1" d="M506.208,36.044l3.256-3.224c.363-.352.518-.682.518-1.045,0-.495-.484-.869-1.134-.869-.692,0-1.243.264-1.947.946l-.946-1.155c.881-.836,1.882-1.265,2.949-1.265,1.639,0,2.728.891,2.728,2.233,0,.726-.308,1.342-1.001,2.013l-2.222,2.146,3.333-.011v1.441h-5.533v-1.21Z"></path>
  </g>
  <g>
    <path class="uuid-90139e06-1c15-4a8f-ae81-565df7fa94e1" d="M256.182,319.019h1.199v2.938h3.478v-2.938h1.2v6.996h-1.2v-2.988h-3.478v2.988h-1.199v-6.996Z"></path>
    <path class="uuid-90139e06-1c15-4a8f-ae81-565df7fa94e1" d="M263.412,319.298c0-.38.31-.7.7-.7.38,0,.7.32.7.7s-.32.689-.7.689c-.39,0-.7-.31-.7-.689ZM263.542,321.007h1.129v5.007h-1.129v-5.007Z"></path>
    <path class="uuid-90139e06-1c15-4a8f-ae81-565df7fa94e1" d="M266.402,327.714l.39-.83c.589.29,1.069.419,1.569.419.84,0,1.279-.379,1.279-1.109v-.849c-.36.439-.909.699-1.539.699-1.27,0-2.259-1.129-2.259-2.548s1.029-2.529,2.339-2.529c.58,0,1.099.23,1.469.67v-.63h1.119v5.187c0,1.29-.839,2.009-2.359,2.009-.719,0-1.419-.18-2.009-.49ZM269.64,324.556v-2.099c-.29-.34-.72-.54-1.189-.54-.859,0-1.499.669-1.499,1.589,0,.91.64,1.599,1.499,1.599.49,0,.9-.2,1.189-.549Z"></path>
    <path class="uuid-90139e06-1c15-4a8f-ae81-565df7fa94e1" d="M272.162,318.849l1.129-.2v3.178c.38-.59.929-.9,1.579-.9,1.029,0,1.749.73,1.749,1.789v3.298h-1.14v-2.979c0-.729-.43-1.199-1.099-1.199-.46,0-.83.21-1.089.61v3.568h-1.129v-7.166Z"></path>
    <path class="uuid-90139e06-1c15-4a8f-ae81-565df7fa94e1" d="M279.971,324.575c0-.899.74-1.469,1.919-1.469.47,0,.91.1,1.35.32v-.56c0-.66-.38-1-1.149-1-.42,0-.88.12-1.459.39l-.4-.82c.75-.34,1.409-.51,2.079-.51,1.31,0,2.049.66,2.049,1.819v3.268h-1.119v-.52c-.43.419-.909.609-1.489.609-1.05,0-1.779-.629-1.779-1.529ZM282.06,325.305c.45,0,.84-.13,1.18-.42v-.81c-.359-.17-.72-.24-1.149-.24-.649,0-1.06.27-1.06.72,0,.459.4.75,1.029.75Z"></path>
    <path class="uuid-90139e06-1c15-4a8f-ae81-565df7fa94e1" d="M284.922,321.007h1.229l1.399,3.638,1.39-3.638h1.179l-2.059,5.007h-1.1l-2.038-5.007Z"></path>
    <path class="uuid-90139e06-1c15-4a8f-ae81-565df7fa94e1" d="M290.522,324.575c0-.899.74-1.469,1.919-1.469.47,0,.91.1,1.35.32v-.56c0-.66-.38-1-1.149-1-.42,0-.88.12-1.459.39l-.4-.82c.75-.34,1.409-.51,2.079-.51,1.31,0,2.049.66,2.049,1.819v3.268h-1.119v-.52c-.43.419-.909.609-1.489.609-1.05,0-1.779-.629-1.779-1.529ZM292.611,325.305c.45,0,.84-.13,1.18-.42v-.81c-.359-.17-.72-.24-1.149-.24-.649,0-1.06.27-1.06.72,0,.459.4.75,1.029.75Z"></path>
    <path class="uuid-90139e06-1c15-4a8f-ae81-565df7fa94e1" d="M296.141,319.298c0-.38.31-.7.7-.7.379,0,.699.32.699.7s-.32.689-.699.689c-.391,0-.7-.31-.7-.689ZM296.271,321.007h1.13v5.007h-1.13v-5.007Z"></path>
    <path class="uuid-90139e06-1c15-4a8f-ae81-565df7fa94e1" d="M298.801,318.849l1.13-.2v7.366h-1.13v-7.166Z"></path>
    <path class="uuid-90139e06-1c15-4a8f-ae81-565df7fa94e1" d="M301.062,324.575c0-.899.74-1.469,1.919-1.469.47,0,.91.1,1.35.32v-.56c0-.66-.38-1-1.149-1-.42,0-.88.12-1.459.39l-.4-.82c.75-.34,1.409-.51,2.079-.51,1.31,0,2.049.66,2.049,1.819v3.268h-1.119v-.52c-.43.419-.909.609-1.489.609-1.05,0-1.779-.629-1.779-1.529ZM303.15,325.305c.45,0,.84-.13,1.18-.42v-.81c-.359-.17-.72-.24-1.149-.24-.649,0-1.06.27-1.06.72,0,.459.4.75,1.029.75Z"></path>
    <path class="uuid-90139e06-1c15-4a8f-ae81-565df7fa94e1" d="M306.821,318.878l1.13-.19v2.989c.35-.44.909-.71,1.539-.71,1.27,0,2.259,1.129,2.259,2.549,0,1.429-1.02,2.548-2.329,2.548-.589,0-1.109-.24-1.489-.689v.64h-1.109v-7.136ZM310.64,323.516c0-.91-.64-1.599-1.489-1.599-.5,0-.909.2-1.199.56v2.089c.29.35.72.56,1.199.56.859,0,1.489-.689,1.489-1.609Z"></path>
    <path class="uuid-90139e06-1c15-4a8f-ae81-565df7fa94e1" d="M312.792,319.298c0-.38.31-.7.7-.7.379,0,.699.32.699.7s-.32.689-.699.689c-.391,0-.7-.31-.7-.689ZM312.922,321.007h1.13v5.007h-1.13v-5.007Z"></path>
    <path class="uuid-90139e06-1c15-4a8f-ae81-565df7fa94e1" d="M315.451,318.849l1.13-.2v7.366h-1.13v-7.166Z"></path>
    <path class="uuid-90139e06-1c15-4a8f-ae81-565df7fa94e1" d="M317.832,319.298c0-.38.31-.7.7-.7.379,0,.699.32.699.7s-.32.689-.699.689c-.391,0-.7-.31-.7-.689ZM317.962,321.007h1.13v5.007h-1.13v-5.007Z"></path>
    <path class="uuid-90139e06-1c15-4a8f-ae81-565df7fa94e1" d="M321.111,324.715v-2.809h-1v-.899h1v-1.379l1.129-.24v1.619h1.39v.899h-1.39v2.559c0,.49.19.68.7.68.22,0,.38-.03.68-.12v.949c-.29.09-.67.14-.97.14-1.01,0-1.539-.48-1.539-1.399Z"></path>
    <path class="uuid-90139e06-1c15-4a8f-ae81-565df7fa94e1" d="M324.532,328.133v-.979c.13.03.29.04.439.04.399,0,.64-.18.81-.569l.229-.56-1.889-5.057h1.249l1.279,3.708,1.39-3.708h1.239l-2.398,5.877c-.39.969-.85,1.319-1.789,1.319-.16,0-.36-.02-.56-.07Z"></path>
  </g>
  <g>
    <line class="uuid-db7dd604-00d0-4e3b-a19b-2379a155ca94" x1="160.093" y1="331.141" x2="160.093" y2="313.456"></line>
    <polygon class="uuid-90139e06-1c15-4a8f-ae81-565df7fa94e1" points="163.832 330.047 160.093 336.524 156.353 330.047 163.832 330.047"></polygon>
    <polygon class="uuid-90139e06-1c15-4a8f-ae81-565df7fa94e1" points="163.832 314.551 160.093 308.074 156.353 314.551 163.832 314.551"></polygon>
  </g>
  <g>
    <line class="uuid-db7dd604-00d0-4e3b-a19b-2379a155ca94" x1="425.048" y1="331.141" x2="425.048" y2="313.456"></line>
    <polygon class="uuid-90139e06-1c15-4a8f-ae81-565df7fa94e1" points="428.787 330.047 425.048 336.524 421.308 330.047 428.787 330.047"></polygon>
    <polygon class="uuid-90139e06-1c15-4a8f-ae81-565df7fa94e1" points="428.787 314.551 425.048 308.074 421.308 314.551 428.787 314.551"></polygon>
  </g>
  <g>
    <line class="uuid-db7dd604-00d0-4e3b-a19b-2379a155ca94" x1="335.224" y1="255.694" x2="251.142" y2="255.694"></line>
    <polygon class="uuid-90139e06-1c15-4a8f-ae81-565df7fa94e1" points="334.13 251.954 340.606 255.694 334.13 259.434 334.13 251.954"></polygon>
    <polygon class="uuid-90139e06-1c15-4a8f-ae81-565df7fa94e1" points="252.236 251.954 245.76 255.694 252.236 259.434 252.236 251.954"></polygon>
  </g>
  <rect class="uuid-a9e7026c-0036-45db-87ea-7e636cc15978" x="104.841" y="234.445" width="140.919" height="42.499"></rect>
  <rect class="uuid-a9e7026c-0036-45db-87ea-7e636cc15978" x="340.606" y="234.445" width="140.919" height="42.499"></rect>
  <g>
    <path class="uuid-bb2e9575-2974-4f08-833b-d1ce3af2f22d" d="M119.822,252.445v6.497c0,3.588,5.265,6.497,11.761,6.497s11.761-2.909,11.761-6.497v-6.497"></path>
    <ellipse class="uuid-bb2e9575-2974-4f08-833b-d1ce3af2f22d" cx="131.583" cy="252.445" rx="11.761" ry="6.497"></ellipse>
  </g>
  <g>
    <polyline class="uuid-740a7b47-c3d7-40c3-be1d-132b1b74a064" points="512.213 410.289 512.213 411.789 510.713 411.789"></polyline>
    <line class="uuid-ac845553-d19b-404c-8b7e-18cccf1cce9c" x1="507.704" y1="411.789" x2="75.932" y2="411.789"></line>
    <polyline class="uuid-740a7b47-c3d7-40c3-be1d-132b1b74a064" points="74.427 411.789 72.927 411.789 72.927 410.289"></polyline>
    <line class="uuid-16bf6210-1ab8-440d-b98a-0adc065a0906" x1="72.927" y1="407.269" x2="72.927" y2="58.519"></line>
    <polyline class="uuid-740a7b47-c3d7-40c3-be1d-132b1b74a064" points="72.927 57.009 72.927 55.509 74.427 55.509"></polyline>
    <line class="uuid-ac845553-d19b-404c-8b7e-18cccf1cce9c" x1="77.436" y1="55.509" x2="509.209" y2="55.509"></line>
    <polyline class="uuid-740a7b47-c3d7-40c3-be1d-132b1b74a064" points="510.713 55.509 512.213 55.509 512.213 57.009"></polyline>
    <line class="uuid-16bf6210-1ab8-440d-b98a-0adc065a0906" x1="512.213" y1="60.029" x2="512.213" y2="408.779"></line>
  </g>
  <g>
    <path class="uuid-90139e06-1c15-4a8f-ae81-565df7fa94e1" d="M152.9,257.722l.65-.879c.899.74,1.549,1.02,2.358,1.02.919,0,1.559-.47,1.559-1.12,0-.569-.339-.839-1.269-1l-1.29-.22c-1.209-.22-1.799-.819-1.799-1.779,0-1.27,1.009-2.109,2.579-2.109,1.049,0,2.009.31,2.809.899l-.61.899c-.7-.53-1.449-.81-2.239-.81-.839,0-1.399.43-1.399,1,0,.51.32.77,1.079.89l1.25.21c1.409.25,2.069.869,2.069,1.929,0,1.289-1.14,2.199-2.809,2.199-1.099,0-2.049-.38-2.938-1.129Z"></path>
    <path class="uuid-90139e06-1c15-4a8f-ae81-565df7fa94e1" d="M160.2,257.442v-2.809h-1v-.899h1v-1.379l1.129-.24v1.619h1.389v.899h-1.389v2.559c0,.49.19.68.7.68.22,0,.379-.03.68-.12v.949c-.29.09-.67.14-.97.14-1.009,0-1.539-.48-1.539-1.399Z"></path>
    <path class="uuid-90139e06-1c15-4a8f-ae81-565df7fa94e1" d="M163.41,256.243c0-1.479,1.08-2.589,2.519-2.589,1.429,0,2.509,1.109,2.509,2.589s-1.08,2.588-2.509,2.588c-1.439,0-2.519-1.109-2.519-2.588ZM167.328,256.243c0-.93-.59-1.629-1.399-1.629-.819,0-1.409.7-1.409,1.629,0,.939.59,1.629,1.409,1.629.81,0,1.399-.689,1.399-1.629Z"></path>
    <path class="uuid-90139e06-1c15-4a8f-ae81-565df7fa94e1" d="M169.61,253.734h1.129v1.08c.28-.76.759-1.169,1.379-1.169.19.01.32.03.49.1v.989c-.18-.07-.41-.12-.62-.12-.549,0-1,.31-1.249.83v3.298h-1.129v-5.007Z"></path>
    <path class="uuid-90139e06-1c15-4a8f-ae81-565df7fa94e1" d="M173.13,257.302c0-.899.739-1.469,1.919-1.469.47,0,.909.1,1.349.32v-.56c0-.66-.38-1-1.149-1-.42,0-.879.12-1.459.39l-.4-.82c.75-.34,1.409-.51,2.079-.51,1.31,0,2.049.66,2.049,1.819v3.268h-1.119v-.52c-.43.419-.91.609-1.489.609-1.049,0-1.779-.629-1.779-1.529ZM175.219,258.032c.45,0,.839-.13,1.179-.42v-.81c-.36-.17-.72-.24-1.149-.24-.649,0-1.06.27-1.06.72,0,.459.4.75,1.03.75Z"></path>
    <path class="uuid-90139e06-1c15-4a8f-ae81-565df7fa94e1" d="M179.219,260.44l.39-.83c.589.29,1.069.419,1.569.419.84,0,1.279-.379,1.279-1.109v-.849c-.36.439-.909.699-1.539.699-1.27,0-2.259-1.129-2.259-2.548s1.029-2.529,2.339-2.529c.58,0,1.099.23,1.469.67v-.63h1.119v5.187c0,1.29-.839,2.009-2.359,2.009-.719,0-1.419-.18-2.009-.49ZM182.458,257.282v-2.099c-.29-.34-.72-.54-1.189-.54-.859,0-1.499.669-1.499,1.589,0,.91.64,1.599,1.499,1.599.49,0,.9-.2,1.189-.549Z"></path>
    <path class="uuid-90139e06-1c15-4a8f-ae81-565df7fa94e1" d="M184.75,256.243c0-1.469,1.06-2.589,2.438-2.589,1.37,0,2.369,1.089,2.369,2.589v.27h-3.698c.11.81.72,1.399,1.499,1.399.47,0,.91-.18,1.189-.47l.74.669c-.61.51-1.219.73-1.979.73-1.439,0-2.559-1.129-2.559-2.599ZM188.488,255.813c-.12-.73-.64-1.239-1.309-1.239-.68,0-1.179.49-1.309,1.239h2.618Z"></path>
  </g>
  <g>
    <path class="uuid-bb2e9575-2974-4f08-833b-d1ce3af2f22d" d="M354.242,252.445v6.497c0,3.588,5.265,6.497,11.761,6.497s11.761-2.909,11.761-6.497v-6.497"></path>
    <ellipse class="uuid-bb2e9575-2974-4f08-833b-d1ce3af2f22d" cx="366.003" cy="252.445" rx="11.761" ry="6.497"></ellipse>
  </g>
  <g>
    <path class="uuid-90139e06-1c15-4a8f-ae81-565df7fa94e1" d="M387.32,257.722l.649-.879c.899.74,1.549,1.02,2.358,1.02.92,0,1.56-.47,1.56-1.12,0-.569-.34-.839-1.27-1l-1.289-.22c-1.209-.22-1.799-.819-1.799-1.779,0-1.27,1.009-2.109,2.578-2.109,1.05,0,2.009.31,2.809.899l-.609.899c-.7-.53-1.449-.81-2.239-.81-.839,0-1.398.43-1.398,1,0,.51.319.77,1.079.89l1.249.21c1.409.25,2.069.869,2.069,1.929,0,1.289-1.14,2.199-2.809,2.199-1.1,0-2.049-.38-2.938-1.129Z"></path>
    <path class="uuid-90139e06-1c15-4a8f-ae81-565df7fa94e1" d="M394.619,257.442v-2.809h-.999v-.899h.999v-1.379l1.13-.24v1.619h1.389v.899h-1.389v2.559c0,.49.189.68.699.68.22,0,.38-.03.68-.12v.949c-.29.09-.67.14-.97.14-1.009,0-1.539-.48-1.539-1.399Z"></path>
    <path class="uuid-90139e06-1c15-4a8f-ae81-565df7fa94e1" d="M397.83,256.243c0-1.479,1.079-2.589,2.519-2.589,1.429,0,2.509,1.109,2.509,2.589s-1.08,2.588-2.509,2.588c-1.439,0-2.519-1.109-2.519-2.588ZM401.748,256.243c0-.93-.59-1.629-1.399-1.629-.819,0-1.409.7-1.409,1.629,0,.939.59,1.629,1.409,1.629.81,0,1.399-.689,1.399-1.629Z"></path>
    <path class="uuid-90139e06-1c15-4a8f-ae81-565df7fa94e1" d="M404.029,253.734h1.13v1.08c.279-.76.759-1.169,1.379-1.169.189.01.319.03.489.1v.989c-.18-.07-.409-.12-.619-.12-.55,0-1,.31-1.249.83v3.298h-1.13v-5.007Z"></path>
    <path class="uuid-90139e06-1c15-4a8f-ae81-565df7fa94e1" d="M407.55,257.302c0-.899.739-1.469,1.919-1.469.47,0,.909.1,1.35.32v-.56c0-.66-.38-1-1.149-1-.42,0-.88.12-1.459.39l-.4-.82c.75-.34,1.409-.51,2.079-.51,1.31,0,2.049.66,2.049,1.819v3.268h-1.119v-.52c-.43.419-.91.609-1.489.609-1.05,0-1.779-.629-1.779-1.529ZM409.639,258.032c.45,0,.84-.13,1.18-.42v-.81c-.36-.17-.72-.24-1.149-.24-.649,0-1.06.27-1.06.72,0,.459.399.75,1.029.75Z"></path>
    <path class="uuid-90139e06-1c15-4a8f-ae81-565df7fa94e1" d="M413.639,260.44l.391-.83c.589.29,1.069.419,1.568.419.84,0,1.279-.379,1.279-1.109v-.849c-.359.439-.909.699-1.539.699-1.27,0-2.259-1.129-2.259-2.548s1.029-2.529,2.339-2.529c.58,0,1.1.23,1.47.67v-.63h1.119v5.187c0,1.29-.84,2.009-2.359,2.009-.719,0-1.419-.18-2.009-.49ZM416.877,257.282v-2.099c-.289-.34-.72-.54-1.189-.54-.859,0-1.499.669-1.499,1.589,0,.91.64,1.599,1.499,1.599.49,0,.9-.2,1.189-.549Z"></path>
    <path class="uuid-90139e06-1c15-4a8f-ae81-565df7fa94e1" d="M419.17,256.243c0-1.469,1.06-2.589,2.438-2.589,1.369,0,2.368,1.089,2.368,2.589v.27h-3.697c.109.81.72,1.399,1.499,1.399.47,0,.909-.18,1.189-.47l.739.669c-.609.51-1.219.73-1.979.73-1.439,0-2.559-1.129-2.559-2.599ZM422.907,255.813c-.119-.73-.64-1.239-1.309-1.239-.68,0-1.18.49-1.31,1.239h2.618Z"></path>
  </g>
</svg>