<svg id="uuid-dd2283d7-e693-4ad3-9686-39a57e1de29e" data-name="Layer 1" xmlns="http://www.w3.org/2000/svg" width="595.276" height="358.848" viewBox="0 0 595.276 358.848">
  <defs>
    <style>
      .uuid-f8db4b01-f07a-44fe-82bc-8c2ff659cf5b {
        fill: #e6e6e6;
      }

      .uuid-e86a0528-936b-4f01-b367-3ea8562ce28e {
        stroke: #dcdcdc;
      }

      .uuid-e86a0528-936b-4f01-b367-3ea8562ce28e, .uuid-0d7eec1f-a980-4afc-9efb-cbd85142ed37, .uuid-55523701-1c72-490d-a2a0-358744209ab8, .uuid-7c218d13-6539-42e6-a593-be22fa153c79, .uuid-5bc59b03-6ff0-4e1d-bcc4-bccef45c4211 {
        stroke-miterlimit: 10;
      }

      .uuid-e86a0528-936b-4f01-b367-3ea8562ce28e, .uuid-7c218d13-6539-42e6-a593-be22fa153c79 {
        fill: #f0f0f0;
      }

      .uuid-abbabca7-1afd-4a18-8876-85b3497e5bc1 {
        fill: #c3c3c3;
      }

      .uuid-ee0078dc-3da2-40ce-bb10-829aeba4d206 {
        fill: #06c;
      }

      .uuid-f27a2a3f-759f-45df-b91c-01b665aaa93d, .uuid-5bc59b03-6ff0-4e1d-bcc4-bccef45c4211 {
        fill: #fff;
      }

      .uuid-0d7eec1f-a980-4afc-9efb-cbd85142ed37 {
        stroke: #000;
      }

      .uuid-0d7eec1f-a980-4afc-9efb-cbd85142ed37, .uuid-55523701-1c72-490d-a2a0-358744209ab8 {
        fill: none;
      }

      .uuid-55523701-1c72-490d-a2a0-358744209ab8 {
        stroke: #c8c8c8;
      }

      .uuid-7c218d13-6539-42e6-a593-be22fa153c79 {
        stroke: #b9d6ed;
      }

      .uuid-69bbcd27-c508-4aad-8dc5-7b76a1d9c61e {
        fill: #c8c8c8;
      }

      .uuid-5bc59b03-6ff0-4e1d-bcc4-bccef45c4211 {
        stroke: #06c;
      }
    </style>
  </defs>
  <rect class="uuid-f27a2a3f-759f-45df-b91c-01b665aaa93d" x="-1.396" y="-1.368" width="597.422" height="358.684"></rect>
  <rect class="uuid-f8db4b01-f07a-44fe-82bc-8c2ff659cf5b" x="163.031" y="22.465" width="269.213" height="310.623"></rect>
  <rect class="uuid-e86a0528-936b-4f01-b367-3ea8562ce28e" x="204.636" y="209.058" width="190.5" height="57.167"></rect>
  <rect class="uuid-e86a0528-936b-4f01-b367-3ea8562ce28e" x="201.252" y="222.808" width="189.5" height="57.167"></rect>
  <rect class="uuid-e86a0528-936b-4f01-b367-3ea8562ce28e" x="197.252" y="236.558" width="188.5" height="57.167"></rect>
  <g>
    <path class="uuid-abbabca7-1afd-4a18-8876-85b3497e5bc1" d="M203.303,241.595h.936l2.918,4.069-.016-4.069h.903v5.597h-.855l-2.998-4.182.016,4.182h-.903v-5.597Z"></path>
    <path class="uuid-abbabca7-1afd-4a18-8876-85b3497e5bc1" d="M209.095,245.193c0-1.184.863-2.07,2.015-2.07,1.144,0,2.007.887,2.007,2.07s-.863,2.071-2.007,2.071c-1.151,0-2.015-.888-2.015-2.071ZM212.229,245.193c0-.743-.472-1.303-1.119-1.303-.655,0-1.127.56-1.127,1.303,0,.752.472,1.304,1.127,1.304.647,0,1.119-.552,1.119-1.304Z"></path>
    <path class="uuid-abbabca7-1afd-4a18-8876-85b3497e5bc1" d="M213.871,245.193c0-1.144.823-2.039,1.871-2.039.455,0,.871.185,1.167.52v-2.214l.903-.16v5.893h-.896v-.527c-.287.359-.735.567-1.239.567-1.016,0-1.807-.903-1.807-2.039ZM216.909,246.033v-1.688c-.231-.271-.575-.432-.951-.432-.688,0-1.199.544-1.199,1.279,0,.728.512,1.279,1.199,1.279.392,0,.72-.151.951-.439Z"></path>
    <path class="uuid-abbabca7-1afd-4a18-8876-85b3497e5bc1" d="M218.751,245.193c0-1.175.848-2.07,1.951-2.07,1.095,0,1.895.871,1.895,2.07v.216h-2.958c.088.647.575,1.119,1.199,1.119.376,0,.728-.144.951-.375l.592.535c-.488.408-.976.584-1.583.584-1.151,0-2.047-.903-2.047-2.079ZM221.742,244.849c-.096-.584-.512-.991-1.048-.991-.543,0-.943.392-1.047.991h2.095Z"></path>
    <path class="uuid-abbabca7-1afd-4a18-8876-85b3497e5bc1" d="M226.046,242.514l-.991.424v-.775l1.312-.567h.552v5.597h-.872v-4.678Z"></path>
  </g>
  <g>
    <path class="uuid-abbabca7-1afd-4a18-8876-85b3497e5bc1" d="M206.303,226.595h.936l2.918,4.069-.016-4.069h.903v5.597h-.855l-2.998-4.182.016,4.182h-.903v-5.597Z"></path>
    <path class="uuid-abbabca7-1afd-4a18-8876-85b3497e5bc1" d="M212.095,230.193c0-1.184.863-2.07,2.015-2.07,1.144,0,2.007.887,2.007,2.07s-.863,2.071-2.007,2.071c-1.151,0-2.015-.888-2.015-2.071ZM215.229,230.193c0-.743-.472-1.303-1.119-1.303-.655,0-1.127.56-1.127,1.303,0,.752.472,1.304,1.127,1.304.647,0,1.119-.552,1.119-1.304Z"></path>
    <path class="uuid-abbabca7-1afd-4a18-8876-85b3497e5bc1" d="M216.871,230.193c0-1.144.823-2.039,1.871-2.039.455,0,.871.185,1.167.52v-2.214l.903-.16v5.893h-.896v-.527c-.287.359-.735.567-1.239.567-1.016,0-1.807-.903-1.807-2.039ZM219.909,231.033v-1.688c-.231-.271-.575-.432-.951-.432-.688,0-1.199.544-1.199,1.279,0,.728.512,1.279,1.199,1.279.392,0,.72-.151.951-.439Z"></path>
    <path class="uuid-abbabca7-1afd-4a18-8876-85b3497e5bc1" d="M221.751,230.193c0-1.175.848-2.07,1.951-2.07,1.095,0,1.895.871,1.895,2.07v.216h-2.958c.088.647.575,1.119,1.199,1.119.376,0,.728-.144.951-.375l.592.535c-.488.408-.976.584-1.583.584-1.151,0-2.047-.903-2.047-2.079ZM224.742,229.849c-.096-.584-.512-.991-1.048-.991-.543,0-.943.392-1.047.991h2.095Z"></path>
    <path class="uuid-abbabca7-1afd-4a18-8876-85b3497e5bc1" d="M228.167,231.56l2.294-2.398c.408-.432.544-.712.544-1.071,0-.464-.432-.815-1.016-.815-.52,0-.919.184-1.455.68l-.495-.6c.615-.568,1.263-.848,1.967-.848,1.095,0,1.847.623,1.847,1.535,0,.543-.192.936-.792,1.566l-1.782,1.84,2.678-.009v.752h-3.789v-.632Z"></path>
  </g>
  <g>
    <path class="uuid-abbabca7-1afd-4a18-8876-85b3497e5bc1" d="M211.605,212.595h.936l2.918,4.069-.016-4.069h.903v5.597h-.855l-2.998-4.182.016,4.182h-.903v-5.597Z"></path>
    <path class="uuid-abbabca7-1afd-4a18-8876-85b3497e5bc1" d="M217.397,216.193c0-1.184.863-2.07,2.015-2.07,1.144,0,2.007.887,2.007,2.07s-.863,2.071-2.007,2.071c-1.151,0-2.015-.888-2.015-2.071ZM220.531,216.193c0-.743-.472-1.303-1.119-1.303-.655,0-1.127.56-1.127,1.303,0,.752.472,1.304,1.127,1.304.647,0,1.119-.552,1.119-1.304Z"></path>
    <path class="uuid-abbabca7-1afd-4a18-8876-85b3497e5bc1" d="M222.172,216.193c0-1.144.823-2.039,1.871-2.039.455,0,.871.185,1.167.52v-2.214l.903-.16v5.893h-.896v-.527c-.287.359-.735.567-1.239.567-1.016,0-1.807-.903-1.807-2.039ZM225.21,217.033v-1.688c-.231-.271-.575-.432-.951-.432-.688,0-1.199.544-1.199,1.279,0,.728.512,1.279,1.199,1.279.392,0,.72-.151.951-.439Z"></path>
    <path class="uuid-abbabca7-1afd-4a18-8876-85b3497e5bc1" d="M227.053,216.193c0-1.175.848-2.07,1.951-2.07,1.095,0,1.895.871,1.895,2.07v.216h-2.958c.088.647.575,1.119,1.199,1.119.376,0,.728-.144.951-.375l.592.535c-.488.408-.976.584-1.583.584-1.151,0-2.047-.903-2.047-2.079ZM230.043,215.849c-.096-.584-.512-.991-1.048-.991-.543,0-.943.392-1.047.991h2.095Z"></path>
    <path class="uuid-abbabca7-1afd-4a18-8876-85b3497e5bc1" d="M233.621,214.186h.903v.655c.304-.472.744-.719,1.264-.719.823,0,1.399.583,1.399,1.431v2.639h-.912v-2.383c0-.584-.344-.959-.879-.959-.368,0-.664.168-.872.487v2.854h-.903v-4.006Z"></path>
  </g>
  <rect class="uuid-ee0078dc-3da2-40ce-bb10-829aeba4d206" x="300.513" y="44.496" width="75" height="35.667"></rect>
  <rect class="uuid-7c218d13-6539-42e6-a593-be22fa153c79" x="300.513" y="104.558" width="75" height="35.667"></rect>
  <rect class="uuid-7c218d13-6539-42e6-a593-be22fa153c79" x="300.513" y="166.295" width="75" height="35.667"></rect>
  <rect class="uuid-7c218d13-6539-42e6-a593-be22fa153c79" x="300.513" y="246.558" width="75" height="35.667"></rect>
  <g>
    <line class="uuid-55523701-1c72-490d-a2a0-358744209ab8" x1="338.513" y1="164.725" x2="338.513" y2="147.107"></line>
    <polygon class="uuid-69bbcd27-c508-4aad-8dc5-7b76a1d9c61e" points="342.253 148.201 338.513 141.725 334.773 148.201 342.253 148.201"></polygon>
  </g>
  <g>
    <line class="uuid-55523701-1c72-490d-a2a0-358744209ab8" x1="338.513" y1="104.202" x2="338.513" y2="86.584"></line>
    <polygon class="uuid-69bbcd27-c508-4aad-8dc5-7b76a1d9c61e" points="342.253 87.678 338.513 81.202 334.773 87.678 342.253 87.678"></polygon>
  </g>
  <g>
    <polyline class="uuid-55523701-1c72-490d-a2a0-358744209ab8" points="375.763 264.725 404.169 264.725 404.169 122.225 381.307 122.225"></polyline>
    <polygon class="uuid-69bbcd27-c508-4aad-8dc5-7b76a1d9c61e" points="382.402 118.485 375.925 122.225 382.402 125.964 382.402 118.485"></polygon>
  </g>
  <g>
    <path d="M197.702,311.403c0-2.019,1.589-3.607,3.618-3.607s3.618,1.589,3.618,3.607-1.589,3.608-3.618,3.608-3.618-1.589-3.618-3.608ZM203.169,311.403c0-1.189-.799-2.079-1.849-2.079s-1.849.89-1.849,2.079.8,2.079,1.849,2.079,1.849-.89,1.849-2.079Z"></path>
    <path d="M206.022,309.744h1.599v.72c.339-.46.909-.749,1.529-.749,1.27,0,2.279,1.169,2.279,2.618s-1.06,2.599-2.398,2.599c-.56,0-1.05-.21-1.39-.6v2.658h-1.619v-7.246ZM209.84,312.323c0-.729-.53-1.27-1.229-1.27-.4,0-.709.14-.97.42v1.719c.25.26.59.41.97.41.709,0,1.229-.54,1.229-1.279Z"></path>
    <path d="M212.232,312.333c0-1.509,1.119-2.669,2.599-2.669,1.489,0,2.539,1.13,2.539,2.729v.351h-3.548c.15.579.62.969,1.209.969.43,0,.79-.149,1.02-.43l1.069.89c-.669.59-1.299.83-2.169.83-1.519,0-2.718-1.17-2.718-2.669ZM215.87,311.823c-.14-.55-.529-.899-1.049-.899-.51,0-.87.33-1,.899h2.049Z"></path>
    <path d="M218.382,309.744h1.619v.84c.4-.6.959-.92,1.629-.92,1,0,1.709.73,1.709,1.76v3.478h-1.619v-3.008c0-.58-.34-.96-.859-.96-.35,0-.63.14-.86.43v3.538h-1.619v-5.157Z"></path>
    <path d="M224.122,313.952l.879-1.27c.97.68,1.579.93,2.269.93.739,0,1.189-.3,1.189-.739,0-.41-.24-.61-.919-.729l-1.489-.261c-1.109-.189-1.719-.889-1.719-1.879,0-1.358,1.039-2.208,2.778-2.208,1.08,0,2.149.35,2.869.919l-.87,1.249c-.68-.52-1.349-.77-2.089-.77-.68,0-1.069.28-1.069.66,0,.359.229.54.79.64l1.399.24c1.31.22,1.999.909,1.999,1.979,0,1.369-1.159,2.299-2.988,2.299-1.109,0-2.099-.37-3.028-1.06Z"></path>
    <path d="M231.112,307.785l1.619-.249v3.048c.4-.6.959-.92,1.629-.92,1,0,1.709.73,1.709,1.76v3.478h-1.619v-3.008c0-.58-.34-.96-.859-.96-.35,0-.63.14-.86.43v3.538h-1.619v-7.116Z"></path>
    <path d="M237.192,308.045c0-.499.41-.909.91-.909s.909.41.909.909-.41.91-.909.91-.91-.41-.91-.91ZM237.292,309.744h1.619v5.157h-1.619v-5.157Z"></path>
    <path d="M240.931,310.994h-1.069v-1.25h1.069v-.68c0-1.229.729-1.898,2.059-1.898.28,0,.649.04.859.1v1.329c-.29-.05-.44-.06-.62-.06-.46,0-.68.18-.68.56v.649h1.299v1.25h-1.299v3.907h-1.619v-3.907Z"></path>
    <path d="M245.451,313.342v-2.349h-.999v-1.25h.999v-1.429l1.619-.33v1.759h1.379v1.25h-1.379v2.028c0,.46.18.62.68.62.19,0,.34-.021.66-.11v1.31c-.3.09-.779.16-1.109.16-1.219,0-1.849-.561-1.849-1.659Z"></path>
    <path d="M251.322,311.403c0-2.039,1.609-3.607,3.688-3.607,1.12,0,2.229.529,2.838,1.358l-1.159,1.1c-.46-.619-1.02-.93-1.679-.93-1.089,0-1.909.89-1.909,2.079s.819,2.079,1.909,2.079c.66,0,1.219-.31,1.679-.93l1.159,1.1c-.609.829-1.719,1.359-2.838,1.359-2.079,0-3.688-1.569-3.688-3.608Z"></path>
    <path d="M258.322,312.333c0-1.509,1.119-2.669,2.599-2.669,1.489,0,2.539,1.13,2.539,2.729v.351h-3.548c.15.579.62.969,1.209.969.43,0,.79-.149,1.02-.43l1.069.89c-.669.59-1.299.83-2.169.83-1.519,0-2.718-1.17-2.718-2.669ZM261.959,311.823c-.14-.55-.529-.899-1.049-.899-.51,0-.87.33-1,.899h2.049Z"></path>
    <path d="M264.472,309.744h1.619v.84c.4-.6.959-.92,1.629-.92,1,0,1.709.73,1.709,1.76v3.478h-1.619v-3.008c0-.58-.34-.96-.859-.96-.35,0-.63.14-.86.43v3.538h-1.619v-5.157Z"></path>
    <path d="M271.181,313.342v-2.349h-.999v-1.25h.999v-1.429l1.619-.33v1.759h1.379v1.25h-1.379v2.028c0,.46.18.62.68.62.19,0,.34-.021.66-.11v1.31c-.3.09-.779.16-1.109.16-1.219,0-1.849-.561-1.849-1.659Z"></path>
    <path d="M275.082,309.744h1.619v1.17c.33-.859.79-1.27,1.399-1.27.23.01.34.03.54.13v1.39c-.2-.101-.479-.16-.759-.16-.48,0-.919.25-1.18.64v3.258h-1.619v-5.157Z"></path>
    <path d="M279.161,313.423c0-.95.74-1.5,2.009-1.5.37,0,.74.07,1.2.24v-.42c0-.5-.33-.749-1.02-.749-.39,0-.85.109-1.449.359l-.56-1.129c.85-.38,1.609-.561,2.369-.561,1.429,0,2.259.71,2.259,1.939v3.298h-1.599v-.449c-.45.38-.879.529-1.429.529-1.05,0-1.779-.64-1.779-1.559ZM281.44,313.912c.34,0,.65-.09.93-.26v-.66c-.3-.069-.59-.109-.89-.109-.53,0-.83.18-.83.51s.29.52.79.52Z"></path>
    <path d="M285.191,307.785l1.619-.249v7.365h-1.619v-7.116Z"></path>
    <path d="M289.991,312.333c0-1.509,1.159-2.669,2.668-2.669.85,0,1.629.34,2.149.95l-.99.989c-.33-.39-.66-.56-1.099-.56-.64,0-1.12.55-1.12,1.289s.48,1.289,1.12,1.289c.439,0,.77-.17,1.099-.56l.99.989c-.52.61-1.299.95-2.149.95-1.509,0-2.668-1.16-2.668-2.669Z"></path>
    <path d="M295.611,307.785l1.619-.249v7.365h-1.619v-7.116Z"></path>
    <path d="M298.451,313.222v-3.479h1.619v3.009c0,.579.34.959.859.959.35,0,.63-.14.859-.43v-3.538h1.619v5.157h-1.619v-.839c-.399.6-.959.919-1.629.919-.999,0-1.709-.729-1.709-1.759Z"></path>
    <path d="M304.251,314.372l.71-1.079c.739.39,1.159.52,1.659.52.459,0,.739-.16.739-.42,0-.2-.149-.31-.479-.37l-.989-.18c-1-.189-1.52-.699-1.52-1.499,0-1.05.81-1.68,2.159-1.68.719,0,1.429.2,2.099.59l-.74,1.029c-.52-.3-.999-.439-1.479-.439-.39,0-.62.13-.62.35,0,.21.13.3.53.37l.969.18c1.02.19,1.55.71,1.55,1.489,0,1.01-.95,1.77-2.219,1.77-.939,0-1.77-.221-2.369-.63Z"></path>
    <path d="M310.36,313.342v-2.349h-.999v-1.25h.999v-1.429l1.619-.33v1.759h1.38v1.25h-1.38v2.028c0,.46.181.62.68.62.19,0,.34-.021.66-.11v1.31c-.3.09-.779.16-1.109.16-1.22,0-1.85-.561-1.85-1.659Z"></path>
    <path d="M313.981,312.333c0-1.509,1.119-2.669,2.599-2.669,1.488,0,2.538,1.13,2.538,2.729v.351h-3.548c.149.579.619.969,1.209.969.43,0,.79-.149,1.02-.43l1.069.89c-.669.59-1.299.83-2.169.83-1.519,0-2.718-1.17-2.718-2.669ZM317.619,311.823c-.14-.55-.529-.899-1.05-.899-.51,0-.869.33-.999.899h2.049Z"></path>
    <path d="M320.131,309.744h1.619v1.17c.33-.859.789-1.27,1.399-1.27.229.01.34.03.539.13v1.39c-.199-.101-.479-.16-.759-.16-.48,0-.92.25-1.18.64v3.258h-1.619v-5.157Z"></path>
  </g>
  <rect class="uuid-5bc59b03-6ff0-4e1d-bcc4-bccef45c4211" x="194.216" y="104.558" width="75" height="35.667"></rect>
  <g>
    <path d="M214.608,123.966l.585-.792c.81.666,1.396.918,2.125.918.828,0,1.404-.423,1.404-1.008,0-.513-.306-.756-1.143-.9l-1.162-.198c-1.089-.198-1.62-.738-1.62-1.603,0-1.143.909-1.899,2.323-1.899.945,0,1.809.279,2.53.81l-.549.811c-.63-.477-1.306-.729-2.017-.729-.756,0-1.26.387-1.26.9,0,.459.288.693.972.801l1.125.189c1.269.225,1.863.783,1.863,1.738,0,1.161-1.026,1.98-2.53,1.98-.99,0-1.846-.342-2.647-1.018Z"></path>
    <path d="M220.638,122.634c0-1.306.99-2.332,2.277-2.332.702,0,1.351.279,1.801.766l-.63.657c-.315-.351-.702-.531-1.134-.531-.729,0-1.296.63-1.296,1.44,0,.819.567,1.44,1.296,1.44.432,0,.819-.18,1.134-.522l.63.648c-.45.486-1.099.765-1.801.765-1.287,0-2.277-1.017-2.277-2.332Z"></path>
    <path d="M225.318,123.588c0-.81.667-1.323,1.729-1.323.423,0,.819.09,1.215.288v-.504c0-.594-.342-.9-1.035-.9-.378,0-.792.108-1.314.351l-.36-.738c.675-.306,1.269-.459,1.873-.459,1.179,0,1.845.594,1.845,1.639v2.944h-1.008v-.468c-.387.378-.819.549-1.341.549-.945,0-1.603-.567-1.603-1.377ZM227.2,124.245c.405,0,.756-.117,1.062-.378v-.729c-.324-.153-.648-.216-1.035-.216-.585,0-.954.243-.954.648,0,.414.36.675.927.675Z"></path>
    <path d="M230.502,120.374h1.017v.738c.342-.531.837-.811,1.422-.811.927,0,1.576.657,1.576,1.612v2.971h-1.026v-2.683c0-.657-.387-1.081-.99-1.081-.414,0-.748.189-.981.549v3.214h-1.017v-4.51Z"></path>
    <path d="M235.74,120.374h1.017v.738c.342-.531.837-.811,1.422-.811.927,0,1.576.657,1.576,1.612v2.971h-1.026v-2.683c0-.657-.387-1.081-.99-1.081-.414,0-.748.189-.981.549v3.214h-1.017v-4.51Z"></path>
    <path d="M240.771,122.634c0-1.324.954-2.332,2.196-2.332,1.233,0,2.134.981,2.134,2.332v.243h-3.331c.099.729.648,1.261,1.351,1.261.423,0,.819-.162,1.071-.423l.666.603c-.549.459-1.098.657-1.782.657-1.296,0-2.305-1.017-2.305-2.34ZM244.138,122.247c-.108-.657-.576-1.116-1.179-1.116-.612,0-1.062.441-1.179,1.116h2.358Z"></path>
    <path d="M246.135,120.374h1.017v.972c.252-.684.684-1.053,1.242-1.053.171.009.288.027.441.09v.892c-.162-.063-.369-.108-.558-.108-.495,0-.9.279-1.125.748v2.971h-1.017v-4.51Z"></path>
  </g>
  <rect class="uuid-5bc59b03-6ff0-4e1d-bcc4-bccef45c4211" x="194.216" y="166.295" width="75" height="35.667"></rect>
  <g>
    <path d="M207.525,185.703l.585-.792c.81.666,1.396.918,2.125.918.828,0,1.404-.423,1.404-1.008,0-.513-.306-.756-1.143-.9l-1.162-.198c-1.089-.198-1.62-.738-1.62-1.603,0-1.143.909-1.899,2.323-1.899.945,0,1.809.279,2.53.811l-.549.811c-.63-.478-1.306-.729-2.017-.729-.756,0-1.26.387-1.26.9,0,.459.288.693.972.801l1.125.189c1.269.225,1.863.783,1.863,1.737,0,1.161-1.026,1.98-2.53,1.98-.99,0-1.846-.342-2.647-1.018Z"></path>
    <path d="M213.555,184.371c0-1.306.99-2.332,2.277-2.332.702,0,1.351.279,1.801.766l-.63.657c-.315-.352-.702-.531-1.134-.531-.729,0-1.296.63-1.296,1.44,0,.819.567,1.44,1.296,1.44.432,0,.819-.18,1.134-.522l.63.648c-.45.486-1.099.766-1.801.766-1.287,0-2.277-1.018-2.277-2.332Z"></path>
    <path d="M218.235,185.325c0-.81.667-1.323,1.729-1.323.423,0,.819.09,1.215.288v-.504c0-.595-.342-.9-1.035-.9-.378,0-.792.108-1.314.351l-.36-.737c.675-.307,1.269-.46,1.873-.46,1.179,0,1.845.595,1.845,1.639v2.944h-1.008v-.469c-.387.379-.819.55-1.341.55-.945,0-1.603-.567-1.603-1.378ZM220.117,185.982c.405,0,.756-.117,1.062-.378v-.729c-.324-.152-.648-.216-1.035-.216-.585,0-.954.243-.954.648,0,.414.36.675.927.675Z"></path>
    <path d="M223.419,182.111h1.017v.738c.342-.531.837-.811,1.422-.811.927,0,1.576.657,1.576,1.612v2.971h-1.026v-2.683c0-.657-.387-1.081-.99-1.081-.414,0-.748.189-.981.55v3.214h-1.017v-4.511Z"></path>
    <path d="M228.657,182.111h1.017v.738c.342-.531.837-.811,1.422-.811.927,0,1.576.657,1.576,1.612v2.971h-1.026v-2.683c0-.657-.387-1.081-.99-1.081-.414,0-.748.189-.981.55v3.214h-1.017v-4.511Z"></path>
    <path d="M233.688,184.371c0-1.323.954-2.332,2.196-2.332,1.233,0,2.134.981,2.134,2.332v.243h-3.331c.099.729.648,1.261,1.351,1.261.423,0,.819-.162,1.071-.424l.666.604c-.549.459-1.098.657-1.782.657-1.296,0-2.305-1.018-2.305-2.341ZM237.055,183.984c-.108-.657-.576-1.116-1.179-1.116-.612,0-1.062.44-1.179,1.116h2.358Z"></path>
    <path d="M239.052,182.111h1.017v.973c.252-.685.684-1.054,1.242-1.054.171.009.288.027.441.09v.892c-.162-.063-.369-.108-.558-.108-.495,0-.9.279-1.125.748v2.971h-1.017v-4.511Z"></path>
    <path d="M244.038,180.32h1.161l1.936,5.203,1.954-5.203h1.116l-2.467,6.302h-1.251l-2.449-6.302Z"></path>
    <path d="M254.028,185.064h-3.466v-.811l3.322-3.934h1.152v3.889h.829v.855h-.829v1.558h-1.008v-1.558ZM254.028,184.209v-2.736l-2.295,2.736h2.295Z"></path>
  </g>
  <g>
    <path class="uuid-abbabca7-1afd-4a18-8876-85b3497e5bc1" d="M323.486,123.966l.586-.792c.811.666,1.396.918,2.125.918.828,0,1.404-.423,1.404-1.008,0-.513-.307-.756-1.144-.9l-1.161-.198c-1.09-.198-1.621-.738-1.621-1.603,0-1.143.91-1.899,2.323-1.899.944,0,1.81.279,2.53.81l-.55.811c-.63-.477-1.306-.729-2.017-.729-.756,0-1.26.387-1.26.9,0,.459.287.693.972.801l1.126.189c1.269.225,1.863.783,1.863,1.738,0,1.161-1.027,1.98-2.53,1.98-.99,0-1.846-.342-2.647-1.018Z"></path>
    <path class="uuid-abbabca7-1afd-4a18-8876-85b3497e5bc1" d="M329.518,122.634c0-1.324.953-2.332,2.195-2.332,1.234,0,2.135.981,2.135,2.332v.243h-3.332c.1.729.648,1.261,1.352,1.261.422,0,.818-.162,1.07-.423l.666.603c-.549.459-1.098.657-1.781.657-1.297,0-2.305-1.017-2.305-2.34ZM332.884,122.247c-.108-.657-.576-1.116-1.179-1.116-.613,0-1.062.441-1.18,1.116h2.358Z"></path>
    <path class="uuid-abbabca7-1afd-4a18-8876-85b3497e5bc1" d="M334.881,120.374h1.018v.738c.342-.531.838-.811,1.422-.811.928,0,1.576.657,1.576,1.612v2.971h-1.026v-2.683c0-.657-.388-1.081-.99-1.081-.414,0-.747.189-.981.549v3.214h-1.018v-4.51Z"></path>
    <path class="uuid-abbabca7-1afd-4a18-8876-85b3497e5bc1" d="M339.714,124.362l.478-.675c.594.369.99.513,1.449.513.54,0,.909-.252.909-.612,0-.279-.188-.423-.63-.513l-.793-.135c-.882-.162-1.305-.567-1.305-1.242,0-.846.693-1.396,1.746-1.396.631,0,1.197.18,1.773.541l-.477.675c-.459-.297-.9-.432-1.359-.432-.469,0-.775.198-.775.522,0,.288.162.414.631.495l.801.153c.9.162,1.333.576,1.333,1.251,0,.828-.792,1.467-1.846,1.467-.774,0-1.458-.216-1.936-.612Z"></path>
    <path class="uuid-abbabca7-1afd-4a18-8876-85b3497e5bc1" d="M344.268,122.634c0-1.333.973-2.332,2.27-2.332,1.287,0,2.26,1,2.26,2.332s-.973,2.332-2.26,2.332c-1.297,0-2.27-1-2.27-2.332ZM347.797,122.634c0-.837-.531-1.468-1.26-1.468-.738,0-1.27.63-1.27,1.468,0,.846.531,1.467,1.27,1.467.729,0,1.26-.621,1.26-1.467Z"></path>
    <path class="uuid-abbabca7-1afd-4a18-8876-85b3497e5bc1" d="M349.848,120.374h1.018v.972c.252-.684.684-1.053,1.242-1.053.171.009.287.027.441.09v.892c-.162-.063-.369-.108-.559-.108-.495,0-.9.279-1.125.748v2.971h-1.018v-4.51Z"></path>
  </g>
  <g>
    <path class="uuid-abbabca7-1afd-4a18-8876-85b3497e5bc1" d="M318.934,175.82h1.252l2.439,6.302h-1.162l-.648-1.765h-2.583l-.648,1.765h-1.125l2.476-6.302ZM320.518,179.511l-.99-2.665-.98,2.665h1.971Z"></path>
    <path class="uuid-abbabca7-1afd-4a18-8876-85b3497e5bc1" d="M322.902,179.872c0-1.288.928-2.296,2.106-2.296.513,0,.981.207,1.314.585v-2.494l1.017-.18v6.635h-1.008v-.594c-.324.405-.828.639-1.396.639-1.144,0-2.034-1.017-2.034-2.295ZM326.323,180.817v-1.9c-.261-.306-.648-.485-1.071-.485-.774,0-1.351.611-1.351,1.44,0,.818.576,1.44,1.351,1.44.441,0,.811-.172,1.071-.495Z"></path>
    <path class="uuid-abbabca7-1afd-4a18-8876-85b3497e5bc1" d="M328.6,177.612h1.017v.711c.333-.514.783-.783,1.333-.783.621,0,1.098.333,1.332.864.352-.567.855-.864,1.494-.864.873,0,1.477.675,1.477,1.63v2.952h-1.018v-2.728c0-.63-.352-1.035-.909-1.035-.369,0-.675.171-.899.54.008.09.018.18.018.271v2.952h-1.026v-2.728c0-.63-.351-1.035-.909-1.035-.369,0-.666.171-.892.522v3.24h-1.017v-4.51Z"></path>
    <path class="uuid-abbabca7-1afd-4a18-8876-85b3497e5bc1" d="M336.357,176.072c0-.342.278-.63.629-.63.343,0,.631.288.631.63s-.288.621-.631.621c-.351,0-.629-.278-.629-.621ZM336.474,177.612h1.018v4.51h-1.018v-4.51Z"></path>
    <path class="uuid-abbabca7-1afd-4a18-8876-85b3497e5bc1" d="M338.346,181.6l.477-.676c.595.369.99.514,1.45.514.54,0,.909-.252.909-.612,0-.279-.189-.424-.631-.514l-.791-.135c-.883-.162-1.307-.567-1.307-1.242,0-.847.693-1.396,1.747-1.396.63,0,1.197.18,1.773.54l-.478.675c-.459-.297-.9-.432-1.359-.432-.468,0-.773.198-.773.522,0,.288.162.414.63.495l.802.152c.9.162,1.332.576,1.332,1.252,0,.828-.793,1.467-1.846,1.467-.774,0-1.459-.216-1.936-.611Z"></path>
    <path class="uuid-abbabca7-1afd-4a18-8876-85b3497e5bc1" d="M342.656,181.6l.478-.676c.595.369.99.514,1.45.514.539,0,.908-.252.908-.612,0-.279-.188-.424-.63-.514l-.792-.135c-.883-.162-1.306-.567-1.306-1.242,0-.847.693-1.396,1.747-1.396.63,0,1.197.18,1.773.54l-.478.675c-.459-.297-.9-.432-1.359-.432-.468,0-.774.198-.774.522,0,.288.162.414.631.495l.801.152c.9.162,1.332.576,1.332,1.252,0,.828-.792,1.467-1.846,1.467-.773,0-1.458-.216-1.936-.611Z"></path>
    <path class="uuid-abbabca7-1afd-4a18-8876-85b3497e5bc1" d="M347.246,176.072c0-.342.279-.63.631-.63.342,0,.63.288.63.63s-.288.621-.63.621c-.352,0-.631-.278-.631-.621ZM347.363,177.612h1.018v4.51h-1.018v-4.51Z"></path>
    <path class="uuid-abbabca7-1afd-4a18-8876-85b3497e5bc1" d="M349.434,179.872c0-1.333.973-2.332,2.269-2.332,1.287,0,2.26.999,2.26,2.332s-.973,2.331-2.26,2.331c-1.296,0-2.269-.999-2.269-2.331ZM352.963,179.872c0-.838-.531-1.468-1.261-1.468-.738,0-1.27.63-1.27,1.468,0,.846.531,1.467,1.27,1.467.729,0,1.261-.621,1.261-1.467Z"></path>
    <path class="uuid-abbabca7-1afd-4a18-8876-85b3497e5bc1" d="M355.014,177.612h1.018v.738c.342-.531.837-.811,1.422-.811.928,0,1.576.657,1.576,1.611v2.971h-1.027v-2.683c0-.657-.387-1.08-.99-1.08-.414,0-.747.188-.98.549v3.214h-1.018v-4.51Z"></path>
    <path class="uuid-abbabca7-1afd-4a18-8876-85b3497e5bc1" d="M318.083,188.872c0-1.306.99-2.332,2.277-2.332.702,0,1.351.279,1.801.766l-.63.656c-.315-.351-.703-.53-1.135-.53-.729,0-1.297.63-1.297,1.44,0,.818.568,1.44,1.297,1.44.432,0,.819-.181,1.135-.522l.63.648c-.45.485-1.099.765-1.801.765-1.287,0-2.277-1.017-2.277-2.331Z"></path>
    <path class="uuid-abbabca7-1afd-4a18-8876-85b3497e5bc1" d="M322.654,188.872c0-1.333.973-2.332,2.27-2.332,1.287,0,2.26.999,2.26,2.332s-.973,2.331-2.26,2.331c-1.297,0-2.27-.999-2.27-2.331ZM326.184,188.872c0-.838-.531-1.468-1.26-1.468-.738,0-1.27.63-1.27,1.468,0,.846.531,1.467,1.27,1.467.729,0,1.26-.621,1.26-1.467Z"></path>
    <path class="uuid-abbabca7-1afd-4a18-8876-85b3497e5bc1" d="M328.234,186.612h1.018v.738c.342-.531.838-.811,1.422-.811.928,0,1.576.657,1.576,1.611v2.971h-1.026v-2.683c0-.657-.388-1.08-.99-1.08-.414,0-.747.188-.981.549v3.214h-1.018v-4.51Z"></path>
    <path class="uuid-abbabca7-1afd-4a18-8876-85b3497e5bc1" d="M333.896,189.952v-2.53h-.9v-.81h.9v-1.243l1.017-.216v1.459h1.251v.81h-1.251v2.305c0,.441.171.612.63.612.198,0,.342-.026.613-.107v.854c-.262.081-.604.126-.874.126-.909,0-1.386-.432-1.386-1.26Z"></path>
    <path class="uuid-abbabca7-1afd-4a18-8876-85b3497e5bc1" d="M337.063,186.612h1.017v.972c.252-.684.685-1.053,1.242-1.053.172.009.289.026.441.09v.892c-.162-.063-.369-.108-.558-.108-.495,0-.9.279-1.126.747v2.971h-1.017v-4.51Z"></path>
    <path class="uuid-abbabca7-1afd-4a18-8876-85b3497e5bc1" d="M340.187,188.872c0-1.333.972-2.332,2.269-2.332,1.287,0,2.26.999,2.26,2.332s-.973,2.331-2.26,2.331c-1.297,0-2.269-.999-2.269-2.331ZM343.715,188.872c0-.838-.531-1.468-1.26-1.468-.738,0-1.27.63-1.27,1.468,0,.846.531,1.467,1.27,1.467.729,0,1.26-.621,1.26-1.467Z"></path>
    <path class="uuid-abbabca7-1afd-4a18-8876-85b3497e5bc1" d="M345.767,184.667l1.017-.18v6.635h-1.017v-6.455Z"></path>
    <path class="uuid-abbabca7-1afd-4a18-8876-85b3497e5bc1" d="M348.034,184.667l1.017-.18v6.635h-1.017v-6.455Z"></path>
    <path class="uuid-abbabca7-1afd-4a18-8876-85b3497e5bc1" d="M350.096,188.872c0-1.324.953-2.332,2.195-2.332,1.234,0,2.135.981,2.135,2.332v.242h-3.332c.1.729.648,1.261,1.352,1.261.422,0,.818-.162,1.07-.423l.666.603c-.549.46-1.098.657-1.781.657-1.297,0-2.305-1.017-2.305-2.34ZM353.462,188.484c-.108-.657-.576-1.116-1.179-1.116-.613,0-1.062.441-1.18,1.116h2.358Z"></path>
    <path class="uuid-abbabca7-1afd-4a18-8876-85b3497e5bc1" d="M355.459,186.612h1.018v.972c.252-.684.684-1.053,1.242-1.053.172.009.288.026.441.09v.892c-.162-.063-.369-.108-.559-.108-.494,0-.9.279-1.125.747v2.971h-1.018v-4.51Z"></path>
  </g>
  <g>
    <path class="uuid-abbabca7-1afd-4a18-8876-85b3497e5bc1" d="M319.063,263.733c0-1.827,1.423-3.25,3.259-3.25.963,0,1.882.414,2.458,1.126l-.72.702c-.451-.559-1.072-.855-1.738-.855-1.225,0-2.151.981-2.151,2.277s.927,2.278,2.151,2.278c.666,0,1.287-.298,1.738-.855l.72.702c-.576.711-1.495,1.125-2.458,1.125-1.836,0-3.259-1.422-3.259-3.25Z"></path>
    <path class="uuid-abbabca7-1afd-4a18-8876-85b3497e5bc1" d="M325.4,264.633c0-1.332.972-2.332,2.268-2.332,1.287,0,2.26,1,2.26,2.332s-.973,2.332-2.26,2.332c-1.296,0-2.268-1-2.268-2.332ZM328.929,264.633c0-.837-.531-1.468-1.261-1.468-.738,0-1.27.631-1.27,1.468,0,.847.531,1.468,1.27,1.468.729,0,1.261-.621,1.261-1.468Z"></path>
    <path class="uuid-abbabca7-1afd-4a18-8876-85b3497e5bc1" d="M330.979,260.429l1.017-.18v6.635h-1.017v-6.455Z"></path>
    <path class="uuid-abbabca7-1afd-4a18-8876-85b3497e5bc1" d="M333.248,260.429l1.017-.18v6.635h-1.017v-6.455Z"></path>
    <path class="uuid-abbabca7-1afd-4a18-8876-85b3497e5bc1" d="M335.309,264.633c0-1.323.954-2.332,2.196-2.332,1.233,0,2.134.981,2.134,2.332v.243h-3.331c.099.729.648,1.261,1.351,1.261.423,0,.819-.162,1.071-.424l.666.604c-.55.459-1.099.657-1.782.657-1.297,0-2.305-1.018-2.305-2.341ZM338.676,264.247c-.108-.657-.576-1.116-1.18-1.116-.612,0-1.062.44-1.18,1.116h2.359Z"></path>
    <path class="uuid-abbabca7-1afd-4a18-8876-85b3497e5bc1" d="M340.483,264.633c0-1.306.99-2.332,2.277-2.332.702,0,1.351.279,1.801.766l-.63.657c-.315-.352-.703-.531-1.135-.531-.729,0-1.297.63-1.297,1.44,0,.819.568,1.44,1.297,1.44.432,0,.819-.18,1.135-.522l.63.648c-.45.486-1.099.766-1.801.766-1.287,0-2.277-1.018-2.277-2.332Z"></path>
    <path class="uuid-abbabca7-1afd-4a18-8876-85b3497e5bc1" d="M346.045,265.714v-2.529h-.9v-.811h.9v-1.242l1.018-.216v1.458h1.252v.811h-1.252v2.305c0,.441.172.612.631.612.197,0,.342-.027.611-.108v.855c-.261.081-.604.126-.873.126-.909,0-1.387-.433-1.387-1.261Z"></path>
    <path class="uuid-abbabca7-1afd-4a18-8876-85b3497e5bc1" d="M348.935,264.633c0-1.332.972-2.332,2.269-2.332,1.287,0,2.26,1,2.26,2.332s-.973,2.332-2.26,2.332c-1.297,0-2.269-1-2.269-2.332ZM352.463,264.633c0-.837-.531-1.468-1.26-1.468-.738,0-1.27.631-1.27,1.468,0,.847.531,1.468,1.27,1.468.729,0,1.26-.621,1.26-1.468Z"></path>
    <path class="uuid-abbabca7-1afd-4a18-8876-85b3497e5bc1" d="M354.514,262.374h1.018v.973c.252-.685.684-1.054,1.242-1.054.172.009.288.027.441.09v.892c-.162-.063-.369-.108-.559-.108-.494,0-.9.279-1.125.748v2.971h-1.018v-4.511Z"></path>
  </g>
  <g>
    <path class="uuid-f27a2a3f-759f-45df-b91c-01b665aaa93d" d="M322.982,61.672c0-1.828,1.423-3.25,3.26-3.25.963,0,1.881.414,2.457,1.125l-.72.702c-.45-.558-1.071-.855-1.737-.855-1.225,0-2.152.981-2.152,2.278s.928,2.278,2.152,2.278c.666,0,1.287-.297,1.737-.855l.72.702c-.576.711-1.494,1.125-2.457,1.125-1.837,0-3.26-1.422-3.26-3.25Z"></path>
    <path class="uuid-f27a2a3f-759f-45df-b91c-01b665aaa93d" d="M329.319,62.572c0-1.324.954-2.332,2.196-2.332,1.233,0,2.134.981,2.134,2.332v.243h-3.331c.1.729.648,1.261,1.351,1.261.423,0,.819-.162,1.071-.423l.666.603c-.549.459-1.098.657-1.782.657-1.296,0-2.305-1.017-2.305-2.34ZM332.686,62.185c-.107-.657-.576-1.116-1.179-1.116-.612,0-1.062.441-1.179,1.116h2.357Z"></path>
    <path class="uuid-f27a2a3f-759f-45df-b91c-01b665aaa93d" d="M334.684,60.312h1.017v.738c.343-.531.837-.811,1.423-.811.927,0,1.575.657,1.575,1.612v2.971h-1.026v-2.683c0-.657-.387-1.081-.99-1.081-.414,0-.748.189-.981.549v3.214h-1.017v-4.51Z"></path>
    <path class="uuid-f27a2a3f-759f-45df-b91c-01b665aaa93d" d="M340.344,63.652v-2.53h-.9v-.81h.9v-1.243l1.018-.216v1.458h1.252v.81h-1.252v2.305c0,.441.172.612.631.612.197,0,.342-.027.611-.108v.855c-.261.081-.604.126-.873.126-.909,0-1.387-.432-1.387-1.26Z"></path>
    <path class="uuid-f27a2a3f-759f-45df-b91c-01b665aaa93d" d="M343.512,60.312h1.018v.972c.252-.684.684-1.053,1.242-1.053.171.009.287.027.441.09v.892c-.162-.063-.369-.108-.559-.108-.495,0-.9.279-1.125.748v2.971h-1.018v-4.51Z"></path>
    <path class="uuid-f27a2a3f-759f-45df-b91c-01b665aaa93d" d="M346.68,63.526c0-.81.666-1.323,1.729-1.323.424,0,.819.09,1.215.288v-.504c0-.594-.342-.9-1.035-.9-.377,0-.791.108-1.314.351l-.359-.738c.675-.306,1.27-.459,1.873-.459,1.179,0,1.845.594,1.845,1.639v2.944h-1.009v-.468c-.387.378-.818.549-1.341.549-.945,0-1.603-.567-1.603-1.377ZM348.562,64.183c.405,0,.756-.117,1.062-.378v-.729c-.323-.153-.647-.216-1.035-.216-.584,0-.953.243-.953.648,0,.414.359.675.927.675Z"></path>
    <path class="uuid-f27a2a3f-759f-45df-b91c-01b665aaa93d" d="M351.863,58.367l1.018-.18v6.635h-1.018v-6.455Z"></path>
  </g>
  <g>
    <polyline class="uuid-0d7eec1f-a980-4afc-9efb-cbd85142ed37" points="231.303 98.457 231.303 56.774 294.679 56.774"></polyline>
    <polygon points="235.043 97.363 231.303 103.839 227.564 97.363 235.043 97.363"></polygon>
    <polygon points="293.584 60.514 300.061 56.774 293.584 53.034 293.584 60.514"></polygon>
  </g>
  <g>
    <polyline class="uuid-0d7eec1f-a980-4afc-9efb-cbd85142ed37" points="294.679 69.948 285.181 69.948 285.181 183.881 275.121 183.881"></polyline>
    <polygon points="293.584 66.209 300.061 69.948 293.584 73.688 293.584 66.209"></polygon>
    <polygon points="276.215 180.142 269.738 183.881 276.215 187.621 276.215 180.142"></polygon>
  </g>
</svg>