<svg id="uuid-39cfe49b-9f74-4a19-ae11-ff00d0916c93" data-name="Layer 1" xmlns="http://www.w3.org/2000/svg" width="595.276" height="358.848" viewBox="0 0 595.276 358.848">
  <defs>
    <style>
      .uuid-8b542126-4437-4eca-b249-1499900adef4 {
        fill: #e6e6e6;
      }

      .uuid-034d558d-b6f3-46d0-b419-6805c8bc5bf8, .uuid-f59372bd-6cbd-450c-89fd-0f375ab1be7b {
        stroke: #dcdcdc;
      }

      .uuid-034d558d-b6f3-46d0-b419-6805c8bc5bf8, .uuid-f59372bd-6cbd-450c-89fd-0f375ab1be7b, .uuid-2174fec0-2bb7-40e3-a67b-b1d2bc7bf47a, .uuid-c3584d27-a2aa-46b4-afde-a45660ccc705, .uuid-bece39e9-bd42-462e-8ad5-dacb198d2225, .uuid-9c5346f2-5097-43ce-b376-3a64134d49af, .uuid-5b792bfb-df19-45c1-b884-896b0b7eb02f {
        stroke-miterlimit: 10;
      }

      .uuid-034d558d-b6f3-46d0-b419-6805c8bc5bf8, .uuid-9c5346f2-5097-43ce-b376-3a64134d49af {
        fill: #f0f0f0;
      }

      .uuid-1d4d328a-6596-42aa-a2cb-8e3c1cc6e790 {
        fill: #c3c3c3;
      }

      .uuid-f59372bd-6cbd-450c-89fd-0f375ab1be7b, .uuid-62abd100-25c5-40dc-a8e3-6948c7e1a474, .uuid-bece39e9-bd42-462e-8ad5-dacb198d2225, .uuid-5b792bfb-df19-45c1-b884-896b0b7eb02f {
        fill: #fff;
      }

      .uuid-76788f2d-cd38-424c-8741-a531ad199421 {
        fill: #06c;
      }

      .uuid-2174fec0-2bb7-40e3-a67b-b1d2bc7bf47a {
        stroke: #000;
      }

      .uuid-2174fec0-2bb7-40e3-a67b-b1d2bc7bf47a, .uuid-c3584d27-a2aa-46b4-afde-a45660ccc705 {
        fill: none;
      }

      .uuid-c3584d27-a2aa-46b4-afde-a45660ccc705 {
        stroke: #c8c8c8;
      }

      .uuid-bece39e9-bd42-462e-8ad5-dacb198d2225 {
        stroke: #b4b4b4;
      }

      .uuid-9c5346f2-5097-43ce-b376-3a64134d49af {
        stroke: #b9d6ed;
      }

      .uuid-0dc94b99-f6f8-44f8-8b31-2edd34df1a1c {
        fill: #c8c8c8;
      }

      .uuid-5b792bfb-df19-45c1-b884-896b0b7eb02f {
        stroke: #06c;
      }
    </style>
  </defs>
  <rect class="uuid-62abd100-25c5-40dc-a8e3-6948c7e1a474" x="-1.396" y="-1.368" width="597.422" height="358.684"></rect>
  <rect class="uuid-8b542126-4437-4eca-b249-1499900adef4" x="22.018" y="22.465" width="269.213" height="310.623"></rect>
  <rect class="uuid-034d558d-b6f3-46d0-b419-6805c8bc5bf8" x="63.623" y="209.058" width="190.5" height="57.167"></rect>
  <rect class="uuid-034d558d-b6f3-46d0-b419-6805c8bc5bf8" x="60.239" y="222.808" width="189.5" height="57.167"></rect>
  <rect class="uuid-034d558d-b6f3-46d0-b419-6805c8bc5bf8" x="56.239" y="236.558" width="188.5" height="57.167"></rect>
  <g>
    <path class="uuid-1d4d328a-6596-42aa-a2cb-8e3c1cc6e790" d="M62.29,241.595h.936l2.918,4.069-.016-4.069h.903v5.597h-.855l-2.998-4.182.016,4.182h-.903v-5.597Z"></path>
    <path class="uuid-1d4d328a-6596-42aa-a2cb-8e3c1cc6e790" d="M68.082,245.193c0-1.184.863-2.07,2.015-2.07,1.144,0,2.007.887,2.007,2.07s-.863,2.071-2.007,2.071c-1.151,0-2.015-.888-2.015-2.071ZM71.216,245.193c0-.743-.472-1.303-1.119-1.303-.655,0-1.127.56-1.127,1.303,0,.752.472,1.304,1.127,1.304.647,0,1.119-.552,1.119-1.304Z"></path>
    <path class="uuid-1d4d328a-6596-42aa-a2cb-8e3c1cc6e790" d="M72.857,245.193c0-1.144.823-2.039,1.871-2.039.455,0,.871.185,1.167.52v-2.214l.903-.16v5.893h-.896v-.527c-.287.359-.735.567-1.239.567-1.016,0-1.807-.903-1.807-2.039ZM75.896,246.033v-1.688c-.231-.271-.575-.432-.951-.432-.688,0-1.199.544-1.199,1.279,0,.728.512,1.279,1.199,1.279.392,0,.72-.151.951-.439Z"></path>
    <path class="uuid-1d4d328a-6596-42aa-a2cb-8e3c1cc6e790" d="M77.738,245.193c0-1.175.848-2.07,1.951-2.07,1.095,0,1.895.871,1.895,2.07v.216h-2.958c.088.647.575,1.119,1.199,1.119.376,0,.728-.144.951-.375l.592.535c-.488.408-.976.584-1.583.584-1.151,0-2.047-.903-2.047-2.079ZM80.729,244.849c-.096-.584-.512-.991-1.048-.991-.543,0-.943.392-1.047.991h2.095Z"></path>
    <path class="uuid-1d4d328a-6596-42aa-a2cb-8e3c1cc6e790" d="M85.033,242.514l-.991.424v-.775l1.312-.567h.552v5.597h-.872v-4.678Z"></path>
  </g>
  <g>
    <path class="uuid-1d4d328a-6596-42aa-a2cb-8e3c1cc6e790" d="M65.29,226.595h.936l2.918,4.069-.016-4.069h.903v5.597h-.855l-2.998-4.182.016,4.182h-.903v-5.597Z"></path>
    <path class="uuid-1d4d328a-6596-42aa-a2cb-8e3c1cc6e790" d="M71.082,230.193c0-1.184.863-2.07,2.015-2.07,1.144,0,2.007.887,2.007,2.07s-.863,2.071-2.007,2.071c-1.151,0-2.015-.888-2.015-2.071ZM74.216,230.193c0-.743-.472-1.303-1.119-1.303-.655,0-1.127.56-1.127,1.303,0,.752.472,1.304,1.127,1.304.647,0,1.119-.552,1.119-1.304Z"></path>
    <path class="uuid-1d4d328a-6596-42aa-a2cb-8e3c1cc6e790" d="M75.857,230.193c0-1.144.823-2.039,1.871-2.039.455,0,.871.185,1.167.52v-2.214l.903-.16v5.893h-.896v-.527c-.287.359-.735.567-1.239.567-1.016,0-1.807-.903-1.807-2.039ZM78.896,231.033v-1.688c-.231-.271-.575-.432-.951-.432-.688,0-1.199.544-1.199,1.279,0,.728.512,1.279,1.199,1.279.392,0,.72-.151.951-.439Z"></path>
    <path class="uuid-1d4d328a-6596-42aa-a2cb-8e3c1cc6e790" d="M80.738,230.193c0-1.175.848-2.07,1.951-2.07,1.095,0,1.895.871,1.895,2.07v.216h-2.958c.088.647.575,1.119,1.199,1.119.376,0,.728-.144.951-.375l.592.535c-.488.408-.976.584-1.583.584-1.151,0-2.047-.903-2.047-2.079ZM83.729,229.849c-.096-.584-.512-.991-1.048-.991-.543,0-.943.392-1.047.991h2.095Z"></path>
    <path class="uuid-1d4d328a-6596-42aa-a2cb-8e3c1cc6e790" d="M87.154,231.56l2.294-2.398c.408-.432.544-.712.544-1.071,0-.464-.432-.815-1.016-.815-.52,0-.919.184-1.455.68l-.495-.6c.615-.568,1.263-.848,1.967-.848,1.095,0,1.847.623,1.847,1.535,0,.543-.192.936-.792,1.566l-1.782,1.84,2.678-.009v.752h-3.789v-.632Z"></path>
  </g>
  <g>
    <path class="uuid-1d4d328a-6596-42aa-a2cb-8e3c1cc6e790" d="M70.592,212.595h.936l2.918,4.069-.016-4.069h.903v5.597h-.855l-2.998-4.182.016,4.182h-.903v-5.597Z"></path>
    <path class="uuid-1d4d328a-6596-42aa-a2cb-8e3c1cc6e790" d="M76.384,216.193c0-1.184.863-2.07,2.015-2.07,1.144,0,2.007.887,2.007,2.07s-.863,2.071-2.007,2.071c-1.151,0-2.015-.888-2.015-2.071ZM79.518,216.193c0-.743-.472-1.303-1.119-1.303-.655,0-1.127.56-1.127,1.303,0,.752.472,1.304,1.127,1.304.647,0,1.119-.552,1.119-1.304Z"></path>
    <path class="uuid-1d4d328a-6596-42aa-a2cb-8e3c1cc6e790" d="M81.16,216.193c0-1.144.823-2.039,1.871-2.039.455,0,.871.185,1.167.52v-2.214l.903-.16v5.893h-.896v-.527c-.287.359-.735.567-1.239.567-1.016,0-1.807-.903-1.807-2.039ZM84.198,217.033v-1.688c-.231-.271-.575-.432-.951-.432-.688,0-1.199.544-1.199,1.279,0,.728.512,1.279,1.199,1.279.392,0,.72-.151.951-.439Z"></path>
    <path class="uuid-1d4d328a-6596-42aa-a2cb-8e3c1cc6e790" d="M86.041,216.193c0-1.175.848-2.07,1.951-2.07,1.095,0,1.895.871,1.895,2.07v.216h-2.958c.088.647.575,1.119,1.199,1.119.376,0,.728-.144.951-.375l.592.535c-.488.408-.976.584-1.583.584-1.151,0-2.047-.903-2.047-2.079ZM89.031,215.849c-.096-.584-.512-.991-1.048-.991-.543,0-.943.392-1.047.991h2.095Z"></path>
    <path class="uuid-1d4d328a-6596-42aa-a2cb-8e3c1cc6e790" d="M92.608,214.186h.903v.655c.304-.472.744-.719,1.264-.719.823,0,1.399.583,1.399,1.431v2.639h-.912v-2.383c0-.584-.344-.959-.879-.959-.368,0-.664.168-.872.487v2.854h-.903v-4.006Z"></path>
  </g>
  <rect class="uuid-8b542126-4437-4eca-b249-1499900adef4" x="304.707" y="22.465" width="268.5" height="310.623"></rect>
  <rect class="uuid-f59372bd-6cbd-450c-89fd-0f375ab1be7b" x="346.476" y="209.058" width="190.5" height="57.167"></rect>
  <rect class="uuid-5b792bfb-df19-45c1-b884-896b0b7eb02f" x="441.476" y="104.558" width="75" height="35.667"></rect>
  <rect class="uuid-5b792bfb-df19-45c1-b884-896b0b7eb02f" x="441.476" y="166.295" width="75" height="35.667"></rect>
  <rect class="uuid-f59372bd-6cbd-450c-89fd-0f375ab1be7b" x="341.476" y="222.808" width="189.5" height="57.167"></rect>
  <rect class="uuid-bece39e9-bd42-462e-8ad5-dacb198d2225" x="337.476" y="236.558" width="188.5" height="57.167"></rect>
  <rect class="uuid-5b792bfb-df19-45c1-b884-896b0b7eb02f" x="441.476" y="246.558" width="75" height="35.667"></rect>
  <g>
    <path d="M343.479,241.595h1.295l2.486,3.39-.023-3.39h1.295v5.597h-1.215l-2.567-3.502.024,3.502h-1.295v-5.597Z"></path>
    <path d="M349.478,245.137c0-1.216.928-2.135,2.151-2.135s2.15.919,2.15,2.135-.927,2.135-2.15,2.135-2.151-.92-2.151-2.135ZM352.517,245.137c0-.616-.368-1.056-.888-1.056s-.888.439-.888,1.056.368,1.056.888,1.056.888-.44.888-1.056Z"></path>
    <path d="M354.423,245.121c0-1.159.847-2.078,1.918-2.078.433,0,.824.176,1.104.495v-2.038l1.296-.2v5.893h-1.279v-.536c-.272.344-.728.561-1.216.561-1.016,0-1.822-.936-1.822-2.096ZM357.444,245.817v-1.392c-.199-.208-.472-.319-.768-.319-.567,0-.983.432-.983,1.023,0,.583.424,1.015.983,1.015.312,0,.568-.111.768-.327Z"></path>
    <path d="M359.565,245.137c0-1.208.896-2.135,2.079-2.135,1.191,0,2.031.903,2.031,2.183v.279h-2.839c.12.464.496.776.968.776.344,0,.632-.12.815-.344l.855.711c-.535.472-1.039.664-1.734.664-1.216,0-2.176-.936-2.176-2.135ZM362.477,244.729c-.112-.439-.424-.72-.84-.72-.407,0-.695.265-.8.72h1.64Z"></path>
    <path d="M367.062,242.875l-1.104.455v-1.087l1.56-.647h.775v5.597h-1.231v-4.317Z"></path>
  </g>
  <g>
    <path d="M346.479,226.595h1.295l2.486,3.39-.023-3.39h1.295v5.597h-1.215l-2.567-3.502.024,3.502h-1.295v-5.597Z"></path>
    <path d="M352.478,230.137c0-1.216.928-2.135,2.151-2.135s2.15.919,2.15,2.135-.927,2.135-2.15,2.135-2.151-.92-2.151-2.135ZM355.517,230.137c0-.616-.368-1.056-.888-1.056s-.888.439-.888,1.056.368,1.056.888,1.056.888-.44.888-1.056Z"></path>
    <path d="M357.423,230.121c0-1.159.847-2.078,1.918-2.078.433,0,.824.176,1.104.495v-2.038l1.296-.2v5.893h-1.279v-.536c-.272.344-.728.561-1.216.561-1.016,0-1.822-.936-1.822-2.096ZM360.444,230.817v-1.392c-.199-.208-.472-.319-.768-.319-.567,0-.983.432-.983,1.023,0,.583.424,1.015.983,1.015.312,0,.568-.111.768-.327Z"></path>
    <path d="M362.565,230.137c0-1.208.896-2.135,2.079-2.135,1.191,0,2.031.903,2.031,2.183v.279h-2.839c.12.464.496.776.968.776.344,0,.632-.12.815-.344l.855.711c-.535.472-1.039.664-1.734.664-1.216,0-2.176-.936-2.176-2.135ZM365.477,229.729c-.112-.439-.424-.72-.84-.72-.407,0-.695.265-.8.72h1.64Z"></path>
    <path d="M369.11,231.312l2.366-2.343c.264-.256.376-.495.376-.759,0-.36-.352-.632-.823-.632-.504,0-.904.191-1.416.688l-.688-.84c.64-.607,1.367-.919,2.144-.919,1.19,0,1.982.647,1.982,1.623,0,.527-.224.976-.728,1.463l-1.615,1.56,2.423-.009v1.048h-4.021v-.88Z"></path>
  </g>
  <g>
    <path d="M351.78,212.595h1.295l2.486,3.39-.023-3.39h1.295v5.597h-1.215l-2.567-3.502.024,3.502h-1.295v-5.597Z"></path>
    <path d="M357.779,216.137c0-1.216.928-2.135,2.151-2.135s2.15.919,2.15,2.135-.927,2.135-2.15,2.135-2.151-.92-2.151-2.135ZM360.818,216.137c0-.616-.368-1.056-.888-1.056s-.888.439-.888,1.056.368,1.056.888,1.056.888-.44.888-1.056Z"></path>
    <path d="M362.725,216.121c0-1.159.847-2.078,1.918-2.078.433,0,.824.176,1.104.495v-2.038l1.296-.2v5.893h-1.279v-.536c-.272.344-.728.561-1.216.561-1.016,0-1.822-.936-1.822-2.096ZM365.746,216.817v-1.392c-.199-.208-.472-.319-.768-.319-.567,0-.983.432-.983,1.023,0,.583.424,1.015.983,1.015.312,0,.568-.111.768-.327Z"></path>
    <path d="M367.867,216.137c0-1.208.896-2.135,2.079-2.135,1.191,0,2.031.903,2.031,2.183v.279h-2.839c.12.464.496.776.968.776.344,0,.632-.12.815-.344l.855.711c-.535.472-1.039.664-1.734.664-1.216,0-2.176-.936-2.176-2.135ZM370.778,215.729c-.112-.439-.424-.72-.84-.72-.407,0-.695.265-.8.72h1.64Z"></path>
    <path d="M374.508,214.066h1.295v.672c.32-.479.768-.735,1.304-.735.8,0,1.367.583,1.367,1.407v2.782h-1.296v-2.406c0-.464-.271-.768-.688-.768-.279,0-.504.111-.688.344v2.83h-1.295v-4.126Z"></path>
  </g>
  <g>
    <line class="uuid-2174fec0-2bb7-40e3-a67b-b1d2bc7bf47a" x1="479.476" y1="165.725" x2="479.476" y2="148.107"></line>
    <polygon points="483.216 149.201 479.476 142.725 475.736 149.201 483.216 149.201"></polygon>
  </g>
  <rect class="uuid-8b542126-4437-4eca-b249-1499900adef4" x="525.519" y="262.579" width="12" height="4.095"></rect>
  <g>
    <polyline class="uuid-2174fec0-2bb7-40e3-a67b-b1d2bc7bf47a" points="516.726 264.725 545.131 264.725 545.131 122.225 522.27 122.225"></polyline>
    <polygon points="523.364 118.485 516.888 122.225 523.364 125.964 523.364 118.485"></polygon>
  </g>
  <g>
    <path d="M337.666,313.952l.879-1.27c.97.68,1.579.93,2.27.93.739,0,1.188-.3,1.188-.739,0-.41-.239-.61-.919-.729l-1.489-.261c-1.109-.189-1.719-.889-1.719-1.879,0-1.358,1.039-2.208,2.778-2.208,1.079,0,2.148.35,2.868.919l-.869,1.249c-.68-.52-1.35-.77-2.089-.77-.68,0-1.069.28-1.069.66,0,.359.229.54.789.64l1.399.24c1.31.22,1.999.909,1.999,1.979,0,1.369-1.159,2.299-2.988,2.299-1.109,0-2.099-.37-3.028-1.06Z"></path>
    <path d="M344.525,312.333c0-1.509,1.119-2.669,2.599-2.669,1.489,0,2.539,1.13,2.539,2.729v.351h-3.549c.15.579.62.969,1.21.969.43,0,.789-.149,1.02-.43l1.069.89c-.67.59-1.3.83-2.169.83-1.52,0-2.719-1.17-2.719-2.669ZM348.163,311.823c-.14-.55-.529-.899-1.049-.899-.51,0-.87.33-1,.899h2.049Z"></path>
    <path d="M350.495,312.333c0-1.509,1.159-2.669,2.669-2.669.85,0,1.629.34,2.148.95l-.989.989c-.33-.39-.66-.56-1.1-.56-.64,0-1.119.55-1.119,1.289s.479,1.289,1.119,1.289c.439,0,.77-.17,1.1-.56l.989.989c-.52.61-1.299.95-2.148.95-1.51,0-2.669-1.16-2.669-2.669Z"></path>
    <path d="M356.075,313.222v-3.479h1.619v3.009c0,.579.34.959.859.959.35,0,.63-.14.859-.43v-3.538h1.619v5.157h-1.619v-.839c-.399.6-.959.919-1.629.919-.999,0-1.709-.729-1.709-1.759Z"></path>
    <path d="M362.295,309.744h1.619v1.17c.33-.859.79-1.27,1.399-1.27.229.01.34.03.539.13v1.39c-.199-.101-.479-.16-.759-.16-.48,0-.92.25-1.18.64v3.258h-1.619v-5.157Z"></path>
    <path d="M366.335,312.333c0-1.509,1.119-2.669,2.599-2.669,1.489,0,2.539,1.13,2.539,2.729v.351h-3.549c.15.579.62.969,1.21.969.43,0,.789-.149,1.02-.43l1.069.89c-.67.59-1.3.83-2.169.83-1.52,0-2.719-1.17-2.719-2.669ZM369.973,311.823c-.14-.55-.529-.899-1.049-.899-.51,0-.87.33-1,.899h2.049Z"></path>
    <path d="M372.305,312.313c0-1.449,1.06-2.599,2.398-2.599.54,0,1.03.22,1.38.619v-2.549l1.619-.249v7.365h-1.6v-.669c-.34.43-.909.699-1.519.699-1.27,0-2.279-1.169-2.279-2.618ZM376.083,313.182v-1.739c-.25-.26-.59-.399-.96-.399-.709,0-1.229.539-1.229,1.279,0,.729.53,1.27,1.229,1.27.39,0,.71-.141.96-.41Z"></path>
    <path d="M380.885,312.333c0-1.509,1.159-2.669,2.669-2.669.85,0,1.629.34,2.148.95l-.989.989c-.33-.39-.66-.56-1.1-.56-.64,0-1.119.55-1.119,1.289s.479,1.289,1.119,1.289c.439,0,.77-.17,1.1-.56l.989.989c-.52.61-1.299.95-2.148.95-1.51,0-2.669-1.16-2.669-2.669Z"></path>
    <path d="M386.505,307.785l1.618-.249v7.365h-1.618v-7.116Z"></path>
    <path d="M389.345,313.222v-3.479h1.619v3.009c0,.579.34.959.859.959.35,0,.629-.14.859-.43v-3.538h1.619v5.157h-1.619v-.839c-.4.6-.96.919-1.629.919-1,0-1.709-.729-1.709-1.759Z"></path>
    <path d="M395.145,314.372l.71-1.079c.739.39,1.159.52,1.659.52.46,0,.739-.16.739-.42,0-.2-.149-.31-.479-.37l-.989-.18c-1-.189-1.52-.699-1.52-1.499,0-1.05.81-1.68,2.159-1.68.719,0,1.429.2,2.099.59l-.74,1.029c-.52-.3-.999-.439-1.479-.439-.39,0-.62.13-.62.35,0,.21.13.3.53.37l.969.18c1.02.19,1.55.71,1.55,1.489,0,1.01-.95,1.77-2.219,1.77-.939,0-1.77-.221-2.369-.63Z"></path>
    <path d="M401.254,313.342v-2.349h-.999v-1.25h.999v-1.429l1.619-.33v1.759h1.379v1.25h-1.379v2.028c0,.46.18.62.68.62.189,0,.34-.021.659-.11v1.31c-.3.09-.779.16-1.109.16-1.219,0-1.849-.561-1.849-1.659Z"></path>
    <path d="M404.875,312.333c0-1.509,1.119-2.669,2.599-2.669,1.488,0,2.538,1.13,2.538,2.729v.351h-3.548c.149.579.619.969,1.209.969.43,0,.79-.149,1.02-.43l1.069.89c-.669.59-1.299.83-2.169.83-1.519,0-2.718-1.17-2.718-2.669ZM408.513,311.823c-.14-.55-.529-.899-1.05-.899-.51,0-.869.33-.999.899h2.049Z"></path>
    <path d="M411.024,309.744h1.619v1.17c.33-.859.79-1.27,1.399-1.27.229.01.34.03.539.13v1.39c-.199-.101-.479-.16-.759-.16-.48,0-.92.25-1.18.64v3.258h-1.619v-5.157Z"></path>
  </g>
  <g>
    <path d="M464.449,123.966l.586-.792c.81.666,1.396.918,2.124.918.828,0,1.404-.423,1.404-1.008,0-.513-.306-.756-1.143-.9l-1.162-.198c-1.089-.198-1.62-.738-1.62-1.603,0-1.143.909-1.899,2.323-1.899.944,0,1.809.279,2.529.81l-.549.811c-.631-.477-1.306-.729-2.017-.729-.757,0-1.261.387-1.261.9,0,.459.288.693.973.801l1.125.189c1.27.225,1.863.783,1.863,1.738,0,1.161-1.026,1.98-2.529,1.98-.99,0-1.846-.342-2.647-1.018Z"></path>
    <path d="M470.479,122.634c0-1.324.954-2.332,2.196-2.332,1.233,0,2.134.981,2.134,2.332v.243h-3.331c.1.729.648,1.261,1.351,1.261.423,0,.819-.162,1.071-.423l.666.603c-.549.459-1.098.657-1.782.657-1.296,0-2.305-1.017-2.305-2.34ZM473.847,122.247c-.108-.657-.576-1.116-1.18-1.116-.612,0-1.062.441-1.179,1.116h2.358Z"></path>
    <path d="M475.844,120.374h1.018v.738c.342-.531.837-.811,1.422-.811.928,0,1.576.657,1.576,1.612v2.971h-1.026v-2.683c0-.657-.388-1.081-.99-1.081-.414,0-.748.189-.981.549v3.214h-1.018v-4.51Z"></path>
    <path d="M480.677,124.362l.477-.675c.595.369.99.513,1.45.513.54,0,.909-.252.909-.612,0-.279-.189-.423-.631-.513l-.792-.135c-.882-.162-1.306-.567-1.306-1.242,0-.846.693-1.396,1.747-1.396.63,0,1.197.18,1.773.541l-.478.675c-.459-.297-.9-.432-1.359-.432-.468,0-.774.198-.774.522,0,.288.162.414.631.495l.801.153c.9.162,1.333.576,1.333,1.251,0,.828-.793,1.467-1.846,1.467-.774,0-1.459-.216-1.936-.612Z"></path>
    <path d="M485.23,122.634c0-1.333.973-2.332,2.269-2.332,1.287,0,2.26,1,2.26,2.332s-.973,2.332-2.26,2.332c-1.296,0-2.269-1-2.269-2.332ZM488.76,122.634c0-.837-.531-1.468-1.261-1.468-.738,0-1.27.63-1.27,1.468,0,.846.531,1.467,1.27,1.467.729,0,1.261-.621,1.261-1.467Z"></path>
    <path d="M490.811,120.374h1.017v.972c.252-.684.685-1.053,1.242-1.053.172.009.288.027.441.09v.892c-.162-.063-.369-.108-.558-.108-.495,0-.9.279-1.126.748v2.971h-1.017v-4.51Z"></path>
  </g>
  <g>
    <path d="M459.896,175.82h1.251l2.439,6.302h-1.161l-.648-1.765h-2.583l-.648,1.765h-1.125l2.476-6.302ZM461.48,179.511l-.99-2.665-.981,2.665h1.972Z"></path>
    <path d="M463.865,179.872c0-1.288.927-2.296,2.106-2.296.513,0,.981.207,1.314.585v-2.494l1.017-.18v6.635h-1.008v-.594c-.324.405-.828.639-1.396.639-1.144,0-2.034-1.017-2.034-2.295ZM467.286,180.817v-1.9c-.262-.306-.648-.485-1.071-.485-.774,0-1.351.611-1.351,1.44,0,.818.576,1.44,1.351,1.44.44,0,.81-.172,1.071-.495Z"></path>
    <path d="M469.562,177.612h1.018v.711c.333-.514.783-.783,1.332-.783.621,0,1.099.333,1.333.864.351-.567.854-.864,1.494-.864.873,0,1.477.675,1.477,1.63v2.952h-1.018v-2.728c0-.63-.352-1.035-.909-1.035-.369,0-.676.171-.9.54.009.09.018.18.018.271v2.952h-1.025v-2.728c0-.63-.352-1.035-.91-1.035-.369,0-.666.171-.891.522v3.24h-1.018v-4.51Z"></path>
    <path d="M477.319,176.072c0-.342.279-.63.63-.63.343,0,.631.288.631.63s-.288.621-.631.621c-.351,0-.63-.278-.63-.621ZM477.437,177.612h1.018v4.51h-1.018v-4.51Z"></path>
    <path d="M479.309,181.6l.477-.676c.595.369.99.514,1.45.514.54,0,.909-.252.909-.612,0-.279-.189-.424-.631-.514l-.792-.135c-.882-.162-1.306-.567-1.306-1.242,0-.847.693-1.396,1.747-1.396.63,0,1.197.18,1.773.54l-.478.675c-.459-.297-.9-.432-1.359-.432-.468,0-.774.198-.774.522,0,.288.162.414.631.495l.801.152c.9.162,1.333.576,1.333,1.252,0,.828-.793,1.467-1.846,1.467-.774,0-1.459-.216-1.936-.611Z"></path>
    <path d="M483.619,181.6l.478-.676c.594.369.99.514,1.449.514.54,0,.909-.252.909-.612,0-.279-.188-.424-.63-.514l-.792-.135c-.883-.162-1.306-.567-1.306-1.242,0-.847.693-1.396,1.746-1.396.631,0,1.197.18,1.773.54l-.477.675c-.459-.297-.9-.432-1.359-.432-.469,0-.774.198-.774.522,0,.288.162.414.63.495l.802.152c.9.162,1.332.576,1.332,1.252,0,.828-.792,1.467-1.846,1.467-.774,0-1.458-.216-1.936-.611Z"></path>
    <path d="M488.209,176.072c0-.342.279-.63.63-.63.343,0,.631.288.631.63s-.288.621-.631.621c-.351,0-.63-.278-.63-.621ZM488.326,177.612h1.018v4.51h-1.018v-4.51Z"></path>
    <path d="M490.396,179.872c0-1.333.972-2.332,2.269-2.332,1.287,0,2.26.999,2.26,2.332s-.973,2.331-2.26,2.331c-1.297,0-2.269-.999-2.269-2.331ZM493.925,179.872c0-.838-.531-1.468-1.26-1.468-.738,0-1.27.63-1.27,1.468,0,.846.531,1.467,1.27,1.467.729,0,1.26-.621,1.26-1.467Z"></path>
    <path d="M495.977,177.612h1.017v.738c.343-.531.838-.811,1.423-.811.927,0,1.575.657,1.575,1.611v2.971h-1.026v-2.683c0-.657-.387-1.08-.99-1.08-.414,0-.747.188-.981.549v3.214h-1.017v-4.51Z"></path>
    <path d="M459.046,188.872c0-1.306.99-2.332,2.277-2.332.702,0,1.351.279,1.801.766l-.631.656c-.314-.351-.702-.53-1.134-.53-.729,0-1.297.63-1.297,1.44,0,.818.567,1.44,1.297,1.44.432,0,.819-.181,1.134-.522l.631.648c-.45.485-1.099.765-1.801.765-1.287,0-2.277-1.017-2.277-2.331Z"></path>
    <path d="M463.617,188.872c0-1.333.973-2.332,2.269-2.332,1.287,0,2.26.999,2.26,2.332s-.973,2.331-2.26,2.331c-1.296,0-2.269-.999-2.269-2.331ZM467.146,188.872c0-.838-.531-1.468-1.261-1.468-.738,0-1.27.63-1.27,1.468,0,.846.531,1.467,1.27,1.467.729,0,1.261-.621,1.261-1.467Z"></path>
    <path d="M469.197,186.612h1.018v.738c.342-.531.837-.811,1.422-.811.928,0,1.576.657,1.576,1.611v2.971h-1.026v-2.683c0-.657-.388-1.08-.99-1.08-.414,0-.748.188-.981.549v3.214h-1.018v-4.51Z"></path>
    <path d="M474.858,189.952v-2.53h-.9v-.81h.9v-1.243l1.018-.216v1.459h1.251v.81h-1.251v2.305c0,.441.171.612.63.612.198,0,.342-.026.612-.107v.854c-.261.081-.604.126-.873.126-.909,0-1.387-.432-1.387-1.26Z"></path>
    <path d="M478.026,186.612h1.017v.972c.252-.684.685-1.053,1.242-1.053.172.009.288.026.441.09v.892c-.162-.063-.369-.108-.558-.108-.495,0-.9.279-1.126.747v2.971h-1.017v-4.51Z"></path>
    <path d="M481.149,188.872c0-1.333.972-2.332,2.269-2.332,1.287,0,2.26.999,2.26,2.332s-.973,2.331-2.26,2.331c-1.297,0-2.269-.999-2.269-2.331ZM484.678,188.872c0-.838-.531-1.468-1.26-1.468-.738,0-1.27.63-1.27,1.468,0,.846.531,1.467,1.27,1.467.729,0,1.26-.621,1.26-1.467Z"></path>
    <path d="M486.729,184.667l1.017-.18v6.635h-1.017v-6.455Z"></path>
    <path d="M488.997,184.667l1.017-.18v6.635h-1.017v-6.455Z"></path>
    <path d="M491.058,188.872c0-1.324.954-2.332,2.196-2.332,1.233,0,2.134.981,2.134,2.332v.242h-3.331c.1.729.648,1.261,1.351,1.261.423,0,.819-.162,1.071-.423l.666.603c-.549.46-1.098.657-1.782.657-1.296,0-2.305-1.017-2.305-2.34ZM494.425,188.484c-.108-.657-.576-1.116-1.18-1.116-.612,0-1.062.441-1.179,1.116h2.358Z"></path>
    <path d="M496.422,186.612h1.018v.972c.252-.684.684-1.053,1.242-1.053.171.009.288.026.441.09v.892c-.162-.063-.369-.108-.559-.108-.495,0-.9.279-1.125.747v2.971h-1.018v-4.51Z"></path>
  </g>
  <g>
    <path d="M460.026,263.733c0-1.827,1.422-3.25,3.259-3.25.963,0,1.882.414,2.458,1.126l-.721.702c-.45-.559-1.071-.855-1.737-.855-1.225,0-2.151.981-2.151,2.277s.927,2.278,2.151,2.278c.666,0,1.287-.298,1.737-.855l.721.702c-.576.711-1.495,1.125-2.458,1.125-1.837,0-3.259-1.422-3.259-3.25Z"></path>
    <path d="M466.362,264.633c0-1.332.973-2.332,2.269-2.332,1.287,0,2.26,1,2.26,2.332s-.973,2.332-2.26,2.332c-1.296,0-2.269-1-2.269-2.332ZM469.892,264.633c0-.837-.531-1.468-1.261-1.468-.738,0-1.27.631-1.27,1.468,0,.847.531,1.468,1.27,1.468.729,0,1.261-.621,1.261-1.468Z"></path>
    <path d="M471.942,260.429l1.017-.18v6.635h-1.017v-6.455Z"></path>
    <path d="M474.21,260.429l1.018-.18v6.635h-1.018v-6.455Z"></path>
    <path d="M476.271,264.633c0-1.323.954-2.332,2.196-2.332,1.233,0,2.134.981,2.134,2.332v.243h-3.331c.099.729.648,1.261,1.351,1.261.423,0,.819-.162,1.071-.424l.666.604c-.55.459-1.099.657-1.782.657-1.297,0-2.305-1.018-2.305-2.341ZM479.638,264.247c-.107-.657-.576-1.116-1.179-1.116-.612,0-1.062.44-1.18,1.116h2.358Z"></path>
    <path d="M481.446,264.633c0-1.306.99-2.332,2.277-2.332.702,0,1.351.279,1.801.766l-.631.657c-.314-.352-.702-.531-1.134-.531-.729,0-1.297.63-1.297,1.44,0,.819.567,1.44,1.297,1.44.432,0,.819-.18,1.134-.522l.631.648c-.45.486-1.099.766-1.801.766-1.287,0-2.277-1.018-2.277-2.332Z"></path>
    <path d="M487.008,265.714v-2.529h-.9v-.811h.9v-1.242l1.018-.216v1.458h1.251v.811h-1.251v2.305c0,.441.171.612.63.612.198,0,.342-.027.612-.108v.855c-.261.081-.604.126-.873.126-.909,0-1.387-.433-1.387-1.261Z"></path>
    <path d="M489.897,264.633c0-1.332.972-2.332,2.269-2.332,1.287,0,2.26,1,2.26,2.332s-.973,2.332-2.26,2.332c-1.297,0-2.269-1-2.269-2.332ZM493.426,264.633c0-.837-.531-1.468-1.26-1.468-.738,0-1.27.631-1.27,1.468,0,.847.531,1.468,1.27,1.468.729,0,1.26-.621,1.26-1.468Z"></path>
    <path d="M495.477,262.374h1.018v.973c.252-.685.684-1.054,1.242-1.054.171.009.288.027.441.09v.892c-.162-.063-.369-.108-.559-.108-.495,0-.9.279-1.125.748v2.971h-1.018v-4.511Z"></path>
  </g>
  <rect class="uuid-76788f2d-cd38-424c-8741-a531ad199421" x="159.5" y="44.496" width="75" height="35.667"></rect>
  <rect class="uuid-9c5346f2-5097-43ce-b376-3a64134d49af" x="159.5" y="104.558" width="75" height="35.667"></rect>
  <rect class="uuid-9c5346f2-5097-43ce-b376-3a64134d49af" x="159.5" y="166.295" width="75" height="35.667"></rect>
  <rect class="uuid-9c5346f2-5097-43ce-b376-3a64134d49af" x="159.5" y="246.558" width="75" height="35.667"></rect>
  <g>
    <polyline class="uuid-2174fec0-2bb7-40e3-a67b-b1d2bc7bf47a" points="241.66 61.705 479.5 61.705 479.5 98.103"></polyline>
    <polygon points="242.754 65.444 236.278 61.705 242.754 57.965 242.754 65.444"></polygon>
    <polygon points="475.76 97.008 479.5 103.485 483.24 97.008 475.76 97.008"></polygon>
  </g>
  <g>
    <line class="uuid-c3584d27-a2aa-46b4-afde-a45660ccc705" x1="197.5" y1="164.725" x2="197.5" y2="147.107"></line>
    <polygon class="uuid-0dc94b99-f6f8-44f8-8b31-2edd34df1a1c" points="201.24 148.201 197.5 141.725 193.76 148.201 201.24 148.201"></polygon>
  </g>
  <g>
    <line class="uuid-c3584d27-a2aa-46b4-afde-a45660ccc705" x1="197.5" y1="104.202" x2="197.5" y2="86.584"></line>
    <polygon class="uuid-0dc94b99-f6f8-44f8-8b31-2edd34df1a1c" points="201.24 87.678 197.5 81.202 193.76 87.678 201.24 87.678"></polygon>
  </g>
  <g>
    <polyline class="uuid-c3584d27-a2aa-46b4-afde-a45660ccc705" points="234.75 264.725 263.156 264.725 263.156 122.225 240.294 122.225"></polyline>
    <polygon class="uuid-0dc94b99-f6f8-44f8-8b31-2edd34df1a1c" points="241.389 118.485 234.912 122.225 241.389 125.964 241.389 118.485"></polygon>
  </g>
  <g>
    <path d="M56.689,311.403c0-2.039,1.609-3.607,3.688-3.607,1.12,0,2.229.529,2.838,1.358l-1.159,1.1c-.46-.619-1.02-.93-1.679-.93-1.089,0-1.909.89-1.909,2.079s.819,2.079,1.909,2.079c.66,0,1.219-.31,1.679-.93l1.159,1.1c-.609.829-1.719,1.359-2.838,1.359-2.079,0-3.688-1.569-3.688-3.608Z"></path>
    <path d="M63.689,312.333c0-1.509,1.119-2.669,2.599-2.669,1.489,0,2.539,1.13,2.539,2.729v.351h-3.548c.15.579.62.969,1.209.969.43,0,.79-.149,1.02-.43l1.069.89c-.669.59-1.299.83-2.169.83-1.519,0-2.718-1.17-2.718-2.669ZM67.327,311.823c-.14-.55-.529-.899-1.049-.899-.51,0-.87.33-1,.899h2.049Z"></path>
    <path d="M69.839,309.744h1.619v.84c.4-.6.959-.92,1.629-.92,1,0,1.709.73,1.709,1.76v3.478h-1.619v-3.008c0-.58-.34-.96-.859-.96-.35,0-.63.14-.86.43v3.538h-1.619v-5.157Z"></path>
    <path d="M76.549,313.342v-2.349h-.999v-1.25h.999v-1.429l1.619-.33v1.759h1.379v1.25h-1.379v2.028c0,.46.18.62.68.62.19,0,.34-.021.66-.11v1.31c-.3.09-.779.16-1.109.16-1.219,0-1.849-.561-1.849-1.659Z"></path>
    <path d="M80.449,309.744h1.619v1.17c.33-.859.79-1.27,1.399-1.27.23.01.34.03.54.13v1.39c-.2-.101-.479-.16-.759-.16-.48,0-.919.25-1.18.64v3.258h-1.619v-5.157Z"></path>
    <path d="M84.529,313.423c0-.95.74-1.5,2.009-1.5.37,0,.739.07,1.199.24v-.42c0-.5-.33-.749-1.02-.749-.39,0-.85.109-1.449.359l-.56-1.129c.85-.38,1.609-.561,2.369-.561,1.429,0,2.259.71,2.259,1.939v3.298h-1.599v-.449c-.45.38-.88.529-1.429.529-1.049,0-1.779-.64-1.779-1.559ZM86.808,313.912c.34,0,.65-.09.93-.26v-.66c-.3-.069-.59-.109-.89-.109-.53,0-.83.18-.83.51s.29.52.79.52Z"></path>
    <path d="M90.559,307.785l1.619-.249v7.365h-1.619v-7.116Z"></path>
    <path d="M95.359,312.333c0-1.509,1.159-2.669,2.668-2.669.85,0,1.629.34,2.149.95l-.99.989c-.33-.39-.66-.56-1.099-.56-.64,0-1.12.55-1.12,1.289s.48,1.289,1.12,1.289c.439,0,.77-.17,1.099-.56l.99.989c-.52.61-1.299.95-2.149.95-1.509,0-2.668-1.16-2.668-2.669Z"></path>
    <path d="M100.979,307.785l1.619-.249v7.365h-1.619v-7.116Z"></path>
    <path d="M103.819,313.222v-3.479h1.619v3.009c0,.579.34.959.859.959.35,0,.629-.14.859-.43v-3.538h1.619v5.157h-1.619v-.839c-.4.6-.959.919-1.629.919-1,0-1.709-.729-1.709-1.759Z"></path>
    <path d="M109.619,314.372l.709-1.079c.74.39,1.16.52,1.659.52.459,0,.74-.16.74-.42,0-.2-.15-.31-.48-.37l-.989-.18c-1-.189-1.52-.699-1.52-1.499,0-1.05.81-1.68,2.159-1.68.719,0,1.429.2,2.099.59l-.74,1.029c-.52-.3-.999-.439-1.479-.439-.39,0-.62.13-.62.35,0,.21.13.3.53.37l.969.18c1.02.19,1.549.71,1.549,1.489,0,1.01-.95,1.77-2.219,1.77-.939,0-1.769-.221-2.369-.63Z"></path>
    <path d="M115.728,313.342v-2.349h-.999v-1.25h.999v-1.429l1.619-.33v1.759h1.379v1.25h-1.379v2.028c0,.46.18.62.68.62.19,0,.34-.021.66-.11v1.31c-.3.09-.779.16-1.109.16-1.219,0-1.849-.561-1.849-1.659Z"></path>
    <path d="M119.349,312.333c0-1.509,1.119-2.669,2.599-2.669,1.489,0,2.539,1.13,2.539,2.729v.351h-3.548c.15.579.62.969,1.209.969.43,0,.79-.149,1.02-.43l1.069.89c-.669.59-1.299.83-2.169.83-1.519,0-2.718-1.17-2.718-2.669ZM122.986,311.823c-.14-.55-.529-.899-1.049-.899-.51,0-.87.33-1,.899h2.049Z"></path>
    <path d="M125.499,309.744h1.619v1.17c.33-.859.79-1.27,1.399-1.27.23.01.34.03.54.13v1.39c-.2-.101-.479-.16-.759-.16-.48,0-.919.25-1.18.64v3.258h-1.619v-5.157Z"></path>
  </g>
  <rect class="uuid-5b792bfb-df19-45c1-b884-896b0b7eb02f" x="337.483" y="104.558" width="75" height="35.667"></rect>
  <g>
    <line class="uuid-2174fec0-2bb7-40e3-a67b-b1d2bc7bf47a" x1="419.116" y1="122.391" x2="435.324" y2="122.391"></line>
    <polygon points="420.21 126.131 413.733 122.391 420.21 118.651 420.21 126.131"></polygon>
    <polygon points="434.23 126.131 440.706 122.391 434.23 118.651 434.23 126.131"></polygon>
  </g>
  <g>
    <path d="M357.874,119.466l.586-.792c.81.666,1.396.918,2.124.918.828,0,1.404-.423,1.404-1.008,0-.513-.306-.756-1.143-.9l-1.162-.198c-1.089-.198-1.62-.738-1.62-1.603,0-1.143.909-1.899,2.323-1.899.944,0,1.809.279,2.529.81l-.549.811c-.631-.477-1.306-.729-2.017-.729-.757,0-1.261.387-1.261.9,0,.459.288.693.973.801l1.125.189c1.27.225,1.863.783,1.863,1.738,0,1.161-1.026,1.98-2.529,1.98-.99,0-1.846-.342-2.647-1.018Z"></path>
    <path d="M363.904,118.134c0-1.306.99-2.332,2.277-2.332.702,0,1.351.279,1.801.766l-.63.657c-.315-.351-.702-.531-1.135-.531-.729,0-1.296.63-1.296,1.44,0,.819.567,1.44,1.296,1.44.433,0,.819-.18,1.135-.522l.63.648c-.45.486-1.099.765-1.801.765-1.287,0-2.277-1.017-2.277-2.332Z"></path>
    <path d="M368.584,119.088c0-.81.667-1.323,1.729-1.323.424,0,.819.09,1.216.288v-.504c0-.594-.342-.9-1.035-.9-.378,0-.793.108-1.314.351l-.36-.738c.675-.306,1.27-.459,1.873-.459,1.179,0,1.845.594,1.845,1.639v2.944h-1.008v-.468c-.388.378-.819.549-1.342.549-.945,0-1.603-.567-1.603-1.377ZM370.466,119.745c.405,0,.756-.117,1.062-.378v-.729c-.324-.153-.648-.216-1.035-.216-.585,0-.954.243-.954.648,0,.414.359.675.927.675Z"></path>
    <path d="M373.769,115.874h1.017v.738c.343-.531.838-.811,1.423-.811.927,0,1.575.657,1.575,1.612v2.971h-1.026v-2.683c0-.657-.387-1.081-.99-1.081-.414,0-.747.189-.981.549v3.214h-1.017v-4.51Z"></path>
    <path d="M379.007,115.874h1.017v.738c.343-.531.838-.811,1.423-.811.927,0,1.575.657,1.575,1.612v2.971h-1.026v-2.683c0-.657-.387-1.081-.99-1.081-.414,0-.747.189-.981.549v3.214h-1.017v-4.51Z"></path>
    <path d="M384.037,118.134c0-1.324.954-2.332,2.196-2.332,1.233,0,2.134.981,2.134,2.332v.243h-3.331c.1.729.648,1.261,1.351,1.261.423,0,.819-.162,1.071-.423l.666.603c-.549.459-1.098.657-1.782.657-1.296,0-2.305-1.017-2.305-2.34ZM387.404,117.747c-.108-.657-.576-1.116-1.18-1.116-.612,0-1.062.441-1.179,1.116h2.358Z"></path>
    <path d="M389.401,115.874h1.017v.972c.252-.684.685-1.053,1.242-1.053.172.009.288.027.441.09v.892c-.162-.063-.369-.108-.558-.108-.495,0-.9.279-1.126.748v2.971h-1.017v-4.51Z"></path>
    <path d="M357.919,127.418c0-1.647.672-2.958,1.896-3.726l.304.408c-1.048.648-1.64,1.847-1.64,3.318s.592,2.67,1.64,3.318l-.304.4c-1.224-.759-1.896-2.079-1.896-3.718Z"></path>
    <path d="M360.951,127.434c0-1.151.815-2.015,1.896-2.015s1.895.864,1.895,2.015-.815,2.015-1.895,2.015-1.896-.863-1.896-2.015ZM364.166,127.434c0-.856-.561-1.503-1.319-1.503s-1.319.647-1.319,1.503.56,1.503,1.319,1.503,1.319-.647,1.319-1.503Z"></path>
    <path d="M365.767,125.483h.576v.56c.296-.392.743-.607,1.263-.607,1.016,0,1.8.879,1.8,1.999,0,1.127-.8,2.007-1.831,2.007-.488,0-.92-.192-1.224-.544v2.159h-.584v-5.573ZM368.829,127.442c0-.855-.584-1.495-1.367-1.495-.464,0-.863.192-1.111.536v1.911c.256.344.664.544,1.111.544.783,0,1.367-.64,1.367-1.495Z"></path>
    <path d="M370.654,128.513v-2.551h-.808v-.479h.808v-1.071l.584-.136v1.208h1.119v.479h-1.119v2.399c0,.416.16.583.567.583.2,0,.336-.024.552-.104v.52c-.216.072-.456.104-.68.104-.672,0-1.023-.328-1.023-.952Z"></path>
    <path d="M373.079,124.099c0-.224.192-.416.424-.416s.424.192.424.416-.192.416-.424.416-.424-.192-.424-.416ZM373.207,125.483h.584v3.902h-.584v-3.902Z"></path>
    <path d="M374.814,127.434c0-1.151.815-2.015,1.896-2.015s1.895.864,1.895,2.015-.815,2.015-1.895,2.015-1.896-.863-1.896-2.015ZM378.029,127.434c0-.856-.561-1.503-1.319-1.503s-1.319.647-1.319,1.503.56,1.503,1.319,1.503,1.319-.647,1.319-1.503Z"></path>
    <path d="M379.631,125.483h.583v.632c.296-.464.72-.696,1.24-.696.839,0,1.415.583,1.415,1.439v2.527h-.584v-2.359c0-.688-.408-1.119-1.048-1.119-.432,0-.791.208-1.023.6v2.878h-.583v-3.902Z"></path>
    <path d="M383.839,128.265c0-.695.584-1.159,1.463-1.159.448,0,.848.096,1.191.304v-.536c0-.64-.344-.967-1.007-.967-.36,0-.729.104-1.184.336l-.216-.448c.535-.256.999-.376,1.471-.376.968,0,1.512.488,1.512,1.375v2.59h-.576v-.456c-.344.352-.76.527-1.239.527-.831,0-1.415-.487-1.415-1.191ZM385.374,129.008c.439,0,.8-.144,1.119-.448v-.751c-.328-.192-.663-.28-1.104-.28-.6,0-.991.288-.991.72,0,.456.392.759.976.759Z"></path>
    <path d="M388.254,123.612l.584-.12v5.893h-.584v-5.773Z"></path>
    <path d="M392.045,127.418c0,1.647-.671,2.958-1.895,3.726l-.304-.408c1.047-.647,1.639-1.847,1.639-3.318s-.592-2.67-1.639-3.318l.304-.4c1.224.76,1.895,2.079,1.895,3.718Z"></path>
  </g>
  <g>
    <path class="uuid-1d4d328a-6596-42aa-a2cb-8e3c1cc6e790" d="M182.474,123.966l.586-.792c.81.666,1.396.918,2.124.918.828,0,1.404-.423,1.404-1.008,0-.513-.306-.756-1.143-.9l-1.162-.198c-1.089-.198-1.62-.738-1.62-1.603,0-1.143.909-1.899,2.323-1.899.944,0,1.809.279,2.529.81l-.549.811c-.631-.477-1.306-.729-2.017-.729-.757,0-1.261.387-1.261.9,0,.459.288.693.973.801l1.125.189c1.27.225,1.863.783,1.863,1.738,0,1.161-1.026,1.98-2.529,1.98-.99,0-1.846-.342-2.647-1.018Z"></path>
    <path class="uuid-1d4d328a-6596-42aa-a2cb-8e3c1cc6e790" d="M188.504,122.634c0-1.324.954-2.332,2.196-2.332,1.233,0,2.134.981,2.134,2.332v.243h-3.331c.1.729.648,1.261,1.351,1.261.423,0,.819-.162,1.071-.423l.666.603c-.549.459-1.098.657-1.782.657-1.296,0-2.305-1.017-2.305-2.34ZM191.871,122.247c-.108-.657-.576-1.116-1.18-1.116-.612,0-1.062.441-1.179,1.116h2.358Z"></path>
    <path class="uuid-1d4d328a-6596-42aa-a2cb-8e3c1cc6e790" d="M193.868,120.374h1.018v.738c.342-.531.837-.811,1.422-.811.928,0,1.576.657,1.576,1.612v2.971h-1.026v-2.683c0-.657-.388-1.081-.99-1.081-.414,0-.748.189-.981.549v3.214h-1.018v-4.51Z"></path>
    <path class="uuid-1d4d328a-6596-42aa-a2cb-8e3c1cc6e790" d="M198.701,124.362l.477-.675c.595.369.99.513,1.45.513.54,0,.909-.252.909-.612,0-.279-.189-.423-.631-.513l-.792-.135c-.882-.162-1.306-.567-1.306-1.242,0-.846.693-1.396,1.747-1.396.63,0,1.197.18,1.773.541l-.478.675c-.459-.297-.9-.432-1.359-.432-.468,0-.774.198-.774.522,0,.288.162.414.631.495l.801.153c.9.162,1.333.576,1.333,1.251,0,.828-.793,1.467-1.846,1.467-.774,0-1.459-.216-1.936-.612Z"></path>
    <path class="uuid-1d4d328a-6596-42aa-a2cb-8e3c1cc6e790" d="M203.255,122.634c0-1.333.973-2.332,2.269-2.332,1.287,0,2.26,1,2.26,2.332s-.973,2.332-2.26,2.332c-1.296,0-2.269-1-2.269-2.332ZM206.784,122.634c0-.837-.531-1.468-1.261-1.468-.738,0-1.27.63-1.27,1.468,0,.846.531,1.467,1.27,1.467.729,0,1.261-.621,1.261-1.467Z"></path>
    <path class="uuid-1d4d328a-6596-42aa-a2cb-8e3c1cc6e790" d="M208.835,120.374h1.017v.972c.252-.684.685-1.053,1.242-1.053.172.009.288.027.441.09v.892c-.162-.063-.369-.108-.558-.108-.495,0-.9.279-1.126.748v2.971h-1.017v-4.51Z"></path>
  </g>
  <g>
    <path class="uuid-1d4d328a-6596-42aa-a2cb-8e3c1cc6e790" d="M177.921,175.82h1.251l2.439,6.302h-1.161l-.648-1.765h-2.583l-.648,1.765h-1.125l2.476-6.302ZM179.505,179.511l-.99-2.665-.981,2.665h1.972Z"></path>
    <path class="uuid-1d4d328a-6596-42aa-a2cb-8e3c1cc6e790" d="M181.89,179.872c0-1.288.927-2.296,2.106-2.296.513,0,.981.207,1.314.585v-2.494l1.017-.18v6.635h-1.008v-.594c-.324.405-.828.639-1.396.639-1.144,0-2.034-1.017-2.034-2.295ZM185.311,180.817v-1.9c-.262-.306-.648-.485-1.071-.485-.774,0-1.351.611-1.351,1.44,0,.818.576,1.44,1.351,1.44.44,0,.81-.172,1.071-.495Z"></path>
    <path class="uuid-1d4d328a-6596-42aa-a2cb-8e3c1cc6e790" d="M187.586,177.612h1.018v.711c.333-.514.783-.783,1.332-.783.621,0,1.099.333,1.333.864.351-.567.854-.864,1.494-.864.873,0,1.477.675,1.477,1.63v2.952h-1.018v-2.728c0-.63-.352-1.035-.909-1.035-.369,0-.676.171-.9.54.009.09.018.18.018.271v2.952h-1.025v-2.728c0-.63-.352-1.035-.91-1.035-.369,0-.666.171-.891.522v3.24h-1.018v-4.51Z"></path>
    <path class="uuid-1d4d328a-6596-42aa-a2cb-8e3c1cc6e790" d="M195.344,176.072c0-.342.279-.63.63-.63.343,0,.631.288.631.63s-.288.621-.631.621c-.351,0-.63-.278-.63-.621ZM195.461,177.612h1.018v4.51h-1.018v-4.51Z"></path>
    <path class="uuid-1d4d328a-6596-42aa-a2cb-8e3c1cc6e790" d="M197.333,181.6l.477-.676c.595.369.99.514,1.45.514.54,0,.909-.252.909-.612,0-.279-.189-.424-.631-.514l-.792-.135c-.882-.162-1.306-.567-1.306-1.242,0-.847.693-1.396,1.747-1.396.63,0,1.197.18,1.773.54l-.478.675c-.459-.297-.9-.432-1.359-.432-.468,0-.774.198-.774.522,0,.288.162.414.631.495l.801.152c.9.162,1.333.576,1.333,1.252,0,.828-.793,1.467-1.846,1.467-.774,0-1.459-.216-1.936-.611Z"></path>
    <path class="uuid-1d4d328a-6596-42aa-a2cb-8e3c1cc6e790" d="M201.644,181.6l.478-.676c.594.369.99.514,1.449.514.54,0,.909-.252.909-.612,0-.279-.188-.424-.63-.514l-.792-.135c-.883-.162-1.306-.567-1.306-1.242,0-.847.693-1.396,1.746-1.396.631,0,1.197.18,1.773.54l-.477.675c-.459-.297-.9-.432-1.359-.432-.469,0-.774.198-.774.522,0,.288.162.414.63.495l.802.152c.9.162,1.332.576,1.332,1.252,0,.828-.792,1.467-1.846,1.467-.774,0-1.458-.216-1.936-.611Z"></path>
    <path class="uuid-1d4d328a-6596-42aa-a2cb-8e3c1cc6e790" d="M206.233,176.072c0-.342.279-.63.63-.63.343,0,.631.288.631.63s-.288.621-.631.621c-.351,0-.63-.278-.63-.621ZM206.351,177.612h1.018v4.51h-1.018v-4.51Z"></path>
    <path class="uuid-1d4d328a-6596-42aa-a2cb-8e3c1cc6e790" d="M208.421,179.872c0-1.333.972-2.332,2.269-2.332,1.287,0,2.26.999,2.26,2.332s-.973,2.331-2.26,2.331c-1.297,0-2.269-.999-2.269-2.331ZM211.949,179.872c0-.838-.531-1.468-1.26-1.468-.738,0-1.27.63-1.27,1.468,0,.846.531,1.467,1.27,1.467.729,0,1.26-.621,1.26-1.467Z"></path>
    <path class="uuid-1d4d328a-6596-42aa-a2cb-8e3c1cc6e790" d="M214.001,177.612h1.017v.738c.343-.531.838-.811,1.423-.811.927,0,1.575.657,1.575,1.611v2.971h-1.026v-2.683c0-.657-.387-1.08-.99-1.08-.414,0-.747.188-.981.549v3.214h-1.017v-4.51Z"></path>
    <path class="uuid-1d4d328a-6596-42aa-a2cb-8e3c1cc6e790" d="M177.07,188.872c0-1.306.99-2.332,2.277-2.332.702,0,1.351.279,1.801.766l-.631.656c-.314-.351-.702-.53-1.134-.53-.729,0-1.297.63-1.297,1.44,0,.818.567,1.44,1.297,1.44.432,0,.819-.181,1.134-.522l.631.648c-.45.485-1.099.765-1.801.765-1.287,0-2.277-1.017-2.277-2.331Z"></path>
    <path class="uuid-1d4d328a-6596-42aa-a2cb-8e3c1cc6e790" d="M181.642,188.872c0-1.333.973-2.332,2.269-2.332,1.287,0,2.26.999,2.26,2.332s-.973,2.331-2.26,2.331c-1.296,0-2.269-.999-2.269-2.331ZM185.171,188.872c0-.838-.531-1.468-1.261-1.468-.738,0-1.27.63-1.27,1.468,0,.846.531,1.467,1.27,1.467.729,0,1.261-.621,1.261-1.467Z"></path>
    <path class="uuid-1d4d328a-6596-42aa-a2cb-8e3c1cc6e790" d="M187.222,186.612h1.018v.738c.342-.531.837-.811,1.422-.811.928,0,1.576.657,1.576,1.611v2.971h-1.026v-2.683c0-.657-.388-1.08-.99-1.08-.414,0-.748.188-.981.549v3.214h-1.018v-4.51Z"></path>
    <path class="uuid-1d4d328a-6596-42aa-a2cb-8e3c1cc6e790" d="M192.883,189.952v-2.53h-.9v-.81h.9v-1.243l1.018-.216v1.459h1.251v.81h-1.251v2.305c0,.441.171.612.63.612.198,0,.342-.026.612-.107v.854c-.261.081-.604.126-.873.126-.909,0-1.387-.432-1.387-1.26Z"></path>
    <path class="uuid-1d4d328a-6596-42aa-a2cb-8e3c1cc6e790" d="M196.051,186.612h1.017v.972c.252-.684.685-1.053,1.242-1.053.172.009.288.026.441.09v.892c-.162-.063-.369-.108-.558-.108-.495,0-.9.279-1.126.747v2.971h-1.017v-4.51Z"></path>
    <path class="uuid-1d4d328a-6596-42aa-a2cb-8e3c1cc6e790" d="M199.174,188.872c0-1.333.972-2.332,2.269-2.332,1.287,0,2.26.999,2.26,2.332s-.973,2.331-2.26,2.331c-1.297,0-2.269-.999-2.269-2.331ZM202.702,188.872c0-.838-.531-1.468-1.26-1.468-.738,0-1.27.63-1.27,1.468,0,.846.531,1.467,1.27,1.467.729,0,1.26-.621,1.26-1.467Z"></path>
    <path class="uuid-1d4d328a-6596-42aa-a2cb-8e3c1cc6e790" d="M204.754,184.667l1.017-.18v6.635h-1.017v-6.455Z"></path>
    <path class="uuid-1d4d328a-6596-42aa-a2cb-8e3c1cc6e790" d="M207.021,184.667l1.017-.18v6.635h-1.017v-6.455Z"></path>
    <path class="uuid-1d4d328a-6596-42aa-a2cb-8e3c1cc6e790" d="M209.082,188.872c0-1.324.954-2.332,2.196-2.332,1.233,0,2.134.981,2.134,2.332v.242h-3.331c.1.729.648,1.261,1.351,1.261.423,0,.819-.162,1.071-.423l.666.603c-.549.46-1.098.657-1.782.657-1.296,0-2.305-1.017-2.305-2.34ZM212.449,188.484c-.108-.657-.576-1.116-1.18-1.116-.612,0-1.062.441-1.179,1.116h2.358Z"></path>
    <path class="uuid-1d4d328a-6596-42aa-a2cb-8e3c1cc6e790" d="M214.446,186.612h1.018v.972c.252-.684.684-1.053,1.242-1.053.171.009.288.026.441.09v.892c-.162-.063-.369-.108-.559-.108-.495,0-.9.279-1.125.747v2.971h-1.018v-4.51Z"></path>
  </g>
  <g>
    <path class="uuid-1d4d328a-6596-42aa-a2cb-8e3c1cc6e790" d="M178.051,263.733c0-1.827,1.422-3.25,3.259-3.25.963,0,1.882.414,2.458,1.126l-.721.702c-.45-.559-1.071-.855-1.737-.855-1.225,0-2.151.981-2.151,2.277s.927,2.278,2.151,2.278c.666,0,1.287-.298,1.737-.855l.721.702c-.576.711-1.495,1.125-2.458,1.125-1.837,0-3.259-1.422-3.259-3.25Z"></path>
    <path class="uuid-1d4d328a-6596-42aa-a2cb-8e3c1cc6e790" d="M184.387,264.633c0-1.332.973-2.332,2.269-2.332,1.287,0,2.26,1,2.26,2.332s-.973,2.332-2.26,2.332c-1.296,0-2.269-1-2.269-2.332ZM187.916,264.633c0-.837-.531-1.468-1.261-1.468-.738,0-1.27.631-1.27,1.468,0,.847.531,1.468,1.27,1.468.729,0,1.261-.621,1.261-1.468Z"></path>
    <path class="uuid-1d4d328a-6596-42aa-a2cb-8e3c1cc6e790" d="M189.967,260.429l1.017-.18v6.635h-1.017v-6.455Z"></path>
    <path class="uuid-1d4d328a-6596-42aa-a2cb-8e3c1cc6e790" d="M192.234,260.429l1.018-.18v6.635h-1.018v-6.455Z"></path>
    <path class="uuid-1d4d328a-6596-42aa-a2cb-8e3c1cc6e790" d="M194.296,264.633c0-1.323.954-2.332,2.196-2.332,1.233,0,2.134.981,2.134,2.332v.243h-3.331c.099.729.648,1.261,1.351,1.261.423,0,.819-.162,1.071-.424l.666.604c-.55.459-1.099.657-1.782.657-1.297,0-2.305-1.018-2.305-2.341ZM197.662,264.247c-.107-.657-.576-1.116-1.179-1.116-.612,0-1.062.44-1.18,1.116h2.358Z"></path>
    <path class="uuid-1d4d328a-6596-42aa-a2cb-8e3c1cc6e790" d="M199.471,264.633c0-1.306.99-2.332,2.277-2.332.702,0,1.351.279,1.801.766l-.631.657c-.314-.352-.702-.531-1.134-.531-.729,0-1.297.63-1.297,1.44,0,.819.567,1.44,1.297,1.44.432,0,.819-.18,1.134-.522l.631.648c-.45.486-1.099.766-1.801.766-1.287,0-2.277-1.018-2.277-2.332Z"></path>
    <path class="uuid-1d4d328a-6596-42aa-a2cb-8e3c1cc6e790" d="M205.032,265.714v-2.529h-.9v-.811h.9v-1.242l1.018-.216v1.458h1.251v.811h-1.251v2.305c0,.441.171.612.63.612.198,0,.342-.027.612-.108v.855c-.261.081-.604.126-.873.126-.909,0-1.387-.433-1.387-1.261Z"></path>
    <path class="uuid-1d4d328a-6596-42aa-a2cb-8e3c1cc6e790" d="M207.922,264.633c0-1.332.972-2.332,2.269-2.332,1.287,0,2.26,1,2.26,2.332s-.973,2.332-2.26,2.332c-1.297,0-2.269-1-2.269-2.332ZM211.45,264.633c0-.837-.531-1.468-1.26-1.468-.738,0-1.27.631-1.27,1.468,0,.847.531,1.468,1.27,1.468.729,0,1.26-.621,1.26-1.468Z"></path>
    <path class="uuid-1d4d328a-6596-42aa-a2cb-8e3c1cc6e790" d="M213.501,262.374h1.018v.973c.252-.685.684-1.054,1.242-1.054.171.009.288.027.441.09v.892c-.162-.063-.369-.108-.559-.108-.495,0-.9.279-1.125.748v2.971h-1.018v-4.511Z"></path>
  </g>
  <g>
    <path class="uuid-62abd100-25c5-40dc-a8e3-6948c7e1a474" d="M181.97,61.672c0-1.828,1.423-3.25,3.26-3.25.963,0,1.881.414,2.457,1.125l-.72.702c-.45-.558-1.071-.855-1.737-.855-1.225,0-2.152.981-2.152,2.278s.928,2.278,2.152,2.278c.666,0,1.287-.297,1.737-.855l.72.702c-.576.711-1.494,1.125-2.457,1.125-1.837,0-3.26-1.422-3.26-3.25Z"></path>
    <path class="uuid-62abd100-25c5-40dc-a8e3-6948c7e1a474" d="M188.307,62.572c0-1.324.954-2.332,2.196-2.332,1.233,0,2.134.981,2.134,2.332v.243h-3.331c.099.729.648,1.261,1.351,1.261.423,0,.819-.162,1.071-.423l.666.603c-.55.459-1.099.657-1.782.657-1.297,0-2.305-1.017-2.305-2.34ZM191.673,62.185c-.107-.657-.576-1.116-1.179-1.116-.612,0-1.062.441-1.18,1.116h2.358Z"></path>
    <path class="uuid-62abd100-25c5-40dc-a8e3-6948c7e1a474" d="M193.67,60.312h1.018v.738c.342-.531.837-.811,1.422-.811.928,0,1.576.657,1.576,1.612v2.971h-1.026v-2.683c0-.657-.388-1.081-.99-1.081-.414,0-.748.189-.981.549v3.214h-1.018v-4.51Z"></path>
    <path class="uuid-62abd100-25c5-40dc-a8e3-6948c7e1a474" d="M199.331,63.652v-2.53h-.9v-.81h.9v-1.243l1.018-.216v1.458h1.251v.81h-1.251v2.305c0,.441.171.612.63.612.198,0,.342-.027.612-.108v.855c-.261.081-.604.126-.873.126-.909,0-1.387-.432-1.387-1.26Z"></path>
    <path class="uuid-62abd100-25c5-40dc-a8e3-6948c7e1a474" d="M202.499,60.312h1.017v.972c.252-.684.685-1.053,1.242-1.053.172.009.288.027.441.09v.892c-.162-.063-.369-.108-.558-.108-.495,0-.9.279-1.126.748v2.971h-1.017v-4.51Z"></path>
    <path class="uuid-62abd100-25c5-40dc-a8e3-6948c7e1a474" d="M205.667,63.526c0-.81.666-1.323,1.729-1.323.423,0,.819.09,1.215.288v-.504c0-.594-.342-.9-1.035-.9-.378,0-.792.108-1.314.351l-.359-.738c.675-.306,1.269-.459,1.872-.459,1.18,0,1.846.594,1.846,1.639v2.944h-1.009v-.468c-.387.378-.819.549-1.341.549-.945,0-1.603-.567-1.603-1.377ZM207.549,64.183c.404,0,.756-.117,1.062-.378v-.729c-.323-.153-.647-.216-1.035-.216-.585,0-.954.243-.954.648,0,.414.36.675.928.675Z"></path>
    <path class="uuid-62abd100-25c5-40dc-a8e3-6948c7e1a474" d="M210.851,58.367l1.018-.18v6.635h-1.018v-6.455Z"></path>
  </g>
</svg>